<?xml version="1.0" encoding="UTF-8" standalone="no"?>
<svg width="24px" height="24px" viewBox="0 0 24 24" version="1.1" xmlns="http://www.w3.org/2000/svg" xmlns:xlink="http://www.w3.org/1999/xlink">
    <!-- Generator: Sketch 39.1 (31720) - http://www.bohemiancoding.com/sketch -->
    <title>icon_error_chameleon</title>
    <desc>Created with Sketch.</desc>
    <defs></defs>
    <g id="浮动插件" stroke="none" stroke-width="1" fill="none" fill-rule="evenodd">
        <g id="Artboard" transform="translate(-644.000000, -186.000000)">
            <g id="Group-2" transform="translate(644.000000, 190.000000)">
                <g id="多云" fill="#FFFFFF">
                    <path d="M22.5235505,15.0319249 C21.6626342,15.8801999 20.475905,16.3906197 19.1712341,16.4035382 L19.1453252,16.4035382 L6.2030728,16.4035382 C4.50646571,16.4035382 2.95370924,15.7271418 1.83263919,14.6304436 L1.84525201,14.6304436 C0.717029116,13.5330984 0.0318505491,12.0149057 0.0318505491,10.3565812 C0.0318505491,8.75604342 0.664638148,7.2955282 1.70132017,6.21110151 C2.64119165,5.2545429 3.89355365,4.58461741 5.28911014,4.38742412 C5.92858636,3.14940138 6.89433959,2.10331718 8.07495345,1.35101537 C9.35983088,0.515666742 10.9125061,0.0311854339 12.556176,0.0311854339 C14.8068067,0.0311854339 16.8483369,0.930690292 18.3228485,2.37173021 C19.6468209,3.65979778 20.5277227,5.38874942 20.6842673,7.32144329 C21.5192757,7.60163662 22.2496645,8.08664029 22.7915395,8.7306195 C23.5025998,9.54067673 23.9197624,10.5926862 23.9197624,11.7347201 C23.9197624,13.0227799 23.3778603,14.1965529 22.5235505,15.0319249 L22.5235505,15.0319249 L22.5235505,15.0319249 Z" id="Shape"></path>
                </g>
                <path d="M12.366,4.9215 L11.805,10.0215 L11.38425,10.0215 L10.77225,4.947 C10.7552499,4.85349953 10.74675,4.76000047 10.74675,4.6665 C10.74675,4.36049847 10.8211243,4.12037587 10.969875,3.946125 C11.1186257,3.77187413 11.3289986,3.68475 11.601,3.68475 C12.1280026,3.68475 12.3915,3.99924686 12.3915,4.62825 C12.3915,4.70475038 12.3830001,4.80249941 12.366,4.9215 Z M12.40425,12.09975 C12.40425,12.3207511 12.3235008,12.5119992 12.162,12.6735 C12.0004992,12.8350008 11.8092511,12.91575 11.58825,12.91575 C11.3672489,12.91575 11.1760008,12.8350008 11.0145,12.6735 C10.8529992,12.5119992 10.77225,12.3207511 10.77225,12.09975 C10.77225,11.8787489 10.8529992,11.6875008 11.0145,11.526 C11.1760008,11.3644992 11.3672489,11.28375 11.58825,11.28375 C11.8092511,11.28375 12.0004992,11.3644992 12.162,11.526 C12.3235008,11.6875008 12.40425,11.8787489 12.40425,12.09975 Z" id="！" stroke="#A0A1A4" stroke-width="0.5" fill="#A0A1A4"></path>
            </g>
        </g>
    </g>
</svg>