<?xml version="1.0" encoding="UTF-8" standalone="no"?>
<svg width="249px" height="36px" viewBox="0 0 249 36" version="1.1" xmlns="http://www.w3.org/2000/svg" xmlns:xlink="http://www.w3.org/1999/xlink">
    <!-- Generator: Sketch 3.8.3 (29802) - http://www.bohemiancoding.com/sketch -->
    <title>Group 24</title>
    <desc>Created with Sketch.</desc>
    <defs></defs>
    <g id="Mockup" stroke="none" stroke-width="1" fill="none" fill-rule="evenodd">
        <g id="Group-24" fill="#FFFFFF">
            <path d="M24.7900311,25.5109368 C22.76387,25.5109368 20.8732253,24.7077739 19.4664193,23.249095 C19.1122051,22.8814793 19.1227183,22.2965521 19.4901029,21.9419912 C19.8577187,21.5875459 20.4425304,21.5984057 20.7969757,21.9656748 C21.8521091,23.0598573 23.2703525,23.6624605 24.7900311,23.6624605 C27.8487972,23.6624605 30.3371929,21.1741804 30.3371929,18.1154142 C30.3371929,15.0568792 27.8487972,12.5684835 24.7900311,12.5684835 C20.9059203,12.5684835 19.267015,17.0176504 18.8571154,18.3813638 C18.8378219,18.4459449 18.8118277,18.5062514 18.7805191,18.562861 C17.3474879,22.8383867 14.6053888,25.2798773 11.2102,25.2798773 C7.13223024,25.2798773 3.81456189,21.9622089 3.81456189,17.8843547 C3.81456189,13.8063849 7.13223024,10.4889477 11.2102,10.4889477 C13.1174809,10.4889477 14.9284101,11.2128572 16.3092218,12.5277015 C16.6789171,12.8798362 16.6932428,13.4646479 16.3412236,13.8345742 C15.9890889,14.2045005 15.4041616,14.2184796 15.0345819,13.866576 C13.9989731,12.8804139 12.6408051,12.3374239 11.2102,12.3374239 C8.15143385,12.3374239 5.66303818,14.8258196 5.66303818,17.8843547 C5.66303818,20.9431208 8.15143385,23.431401 11.2102,23.431401 C14.9507073,23.431401 16.6064799,19.362096 17.1446176,17.6127442 C17.1625247,17.5545172 17.1860928,17.4994095 17.2138199,17.4476522 C18.6042207,13.2257323 21.4137891,10.7200072 24.7900311,10.7200072 C28.8680008,10.7200072 32.1856692,14.0374445 32.1856692,18.1154142 C32.1856692,22.1932685 28.8680008,25.5109368 24.7900311,25.5109368 M18.0001155,0 C8.05889451,0 0,8.05877898 0,17.9998845 C0,27.9411055 8.05889451,36 18.0001155,36 C27.9411055,36 36.0002311,27.9411055 36.0002311,17.9998845 C36.0002311,8.05877898 27.9411055,0 18.0001155,0" id="Fill-1-Copy"></path>
            <path d="M47.208,22.496 L46.548,22.964 C47.196,23.636 47.736,24.272 48.156,24.872 L48.828,24.404 C48.444,23.852 47.904,23.216 47.208,22.496 L47.208,22.496 Z M51.432,27.56 L50.736,27.992 C51.552,28.928 52.188,29.792 52.668,30.56 L53.424,30.032 C52.956,29.336 52.296,28.508 51.432,27.56 L51.432,27.56 Z M49.932,22.196 L49.932,23.624 C49.92,24.152 49.896,24.656 49.86,25.16 L46.032,25.16 L46.032,26 L49.764,26 C49.608,27.2 49.344,28.244 48.972,29.132 C48.348,30.488 47.22,31.568 45.612,32.384 L46.104,33.152 C47.736,32.348 48.9,31.232 49.608,29.804 C50.1,28.772 50.436,27.512 50.628,26 L54.78,26 C54.78,27.536 54.732,28.964 54.636,30.272 C54.54,31.568 54.144,32.252 53.472,32.3 C52.968,32.3 52.416,32.276 51.804,32.228 L52.032,33.068 C52.44,33.092 52.932,33.116 53.52,33.116 C54.324,33.116 54.888,32.648 55.2,31.712 C55.5,30.776 55.656,28.592 55.656,25.16 L50.712,25.16 C50.748,24.668 50.772,24.152 50.784,23.624 L50.784,22.196 L49.932,22.196 Z M62.688,22.232 C61.272,23.816 59.508,25.148 57.396,26.204 L57.852,27.032 C59.988,25.904 61.704,24.56 63,23 C64.416,24.656 66.108,26 68.1,27.02 L68.568,26.192 C66.588,25.232 64.836,23.912 63.312,22.232 L62.688,22.232 Z M62.904,25.4 L62.904,31.88 L60.6,31.88 L60.6,27.128 L59.748,27.128 L59.748,31.88 L57.936,31.88 L57.936,32.72 L67.92,32.72 L67.92,31.88 L63.78,31.88 L63.78,28.928 L67.056,28.928 L67.056,28.1 L63.78,28.1 L63.78,25.4 L62.904,25.4 Z M73.26,22.316 L73.26,31.856 L69.684,31.856 L69.684,32.696 L80.316,32.696 L80.316,31.856 L76.716,31.856 L76.716,22.316 L75.84,22.316 L75.84,31.856 L74.136,31.856 L74.136,22.316 L73.26,22.316 Z M79.224,24.5 C78.708,26.696 78.096,28.508 77.4,29.924 L78.18,30.2 C78.912,28.628 79.512,26.804 79.992,24.716 L79.224,24.5 Z M70.716,24.476 L69.984,24.716 C70.632,26.492 71.172,28.34 71.604,30.26 L72.396,30.056 C71.904,27.956 71.34,26.096 70.716,24.476 L70.716,24.476 Z M91.92,23.012 L87.336,23.012 L87.336,32.84 L88.164,32.84 L88.164,31.772 L91.08,31.772 L91.08,32.72 L91.92,32.72 L91.92,23.012 Z M88.164,30.956 L88.164,23.816 L91.08,23.816 L91.08,30.956 L88.164,30.956 Z M81.852,25.496 L81.852,26.3 L83.952,26.3 L83.952,26.384 C83.46,27.704 82.656,28.892 81.54,29.948 L81.9,30.884 C82.752,29.96 83.436,28.928 83.952,27.788 L83.952,33.116 L84.792,33.116 L84.792,27.704 C85.236,28.208 85.764,28.892 86.388,29.744 L86.892,29 C86.184,28.208 85.488,27.512 84.792,26.9 L84.792,26.3 L86.844,26.3 L86.844,25.496 L84.792,25.496 L84.792,23.6 C85.464,23.456 86.1,23.264 86.724,23.036 L86.316,22.316 C85.116,22.772 83.628,23.072 81.84,23.216 L82.116,23.984 C82.74,23.936 83.352,23.864 83.952,23.768 L83.952,25.496 L81.852,25.496 Z M94.344,22.916 L94.344,23.756 L96.528,23.756 L96.528,26.516 C96.528,26.636 96.516,26.78 96.516,26.936 L93.696,26.936 L93.696,27.764 L96.468,27.764 C96.372,28.724 96.204,29.54 95.952,30.236 C95.568,31.148 94.884,31.88 93.912,32.432 L94.38,33.176 C95.436,32.624 96.192,31.844 96.648,30.836 C97.008,30.02 97.236,29 97.344,27.764 L100.812,27.764 L100.812,33.08 L101.688,33.08 L101.688,27.764 L104.316,27.764 L104.316,26.936 L101.688,26.936 L101.688,23.756 L103.692,23.756 L103.692,22.916 L94.344,22.916 Z M97.416,23.756 L100.812,23.756 L100.812,26.936 L97.404,26.936 C97.404,26.804 97.416,26.66 97.416,26.516 L97.416,23.756 Z M106.392,25.88 L109.368,25.88 C108.528,28.556 107.244,30.656 105.492,32.192 L105.936,32.984 C107.304,31.868 108.432,30.368 109.308,28.472 C109.704,29.312 110.364,30.092 111.3,30.812 C110.4,31.4 109.284,31.94 107.94,32.432 L108.396,33.236 C109.848,32.672 111.072,32.048 112.056,31.352 C113.064,32.012 114.336,32.624 115.872,33.188 L116.316,32.384 C114.924,31.904 113.736,31.376 112.764,30.8 C113.748,29.96 114.396,29.024 114.72,27.992 L114.72,27.248 L109.812,27.248 C109.98,26.816 110.124,26.36 110.268,25.88 L116.112,25.88 L116.112,25.052 L110.496,25.052 C110.712,24.164 110.904,23.228 111.06,22.22 L110.184,22.112 C110.04,23.144 109.848,24.116 109.608,25.052 L107.508,25.052 L108.192,22.688 L107.34,22.544 L106.392,25.88 Z M109.956,28.04 L113.844,28.04 C113.508,28.856 112.896,29.612 112.008,30.308 C111.048,29.612 110.364,28.856 109.956,28.04 L109.956,28.04 Z M113.076,22.208 L112.5,22.772 C113.4,23.492 114.108,24.164 114.612,24.8 L115.224,24.188 C114.648,23.528 113.94,22.868 113.076,22.208 L113.076,22.208 Z M118.752,23.444 L118.752,24.248 L122.04,24.248 L122.04,25.676 L117.684,25.676 L117.684,26.492 L123.144,26.492 C121.44,27.476 119.568,28.22 117.516,28.7 L117.876,29.504 C118.572,29.276 119.244,29.048 119.892,28.808 L119.892,33.224 L120.768,33.224 L120.768,32.684 L125.964,32.684 L125.964,33.224 L126.828,33.224 L126.828,27.824 L122.292,27.824 C122.988,27.5 123.624,27.176 124.176,26.84 C124.356,26.72 124.536,26.612 124.716,26.492 L128.376,26.492 L128.376,25.676 L125.808,25.676 C126.612,25.028 127.368,24.272 128.076,23.432 L127.416,22.952 C126.564,23.96 125.568,24.872 124.44,25.676 L122.928,25.676 L122.928,24.248 L125.76,24.248 L125.76,23.444 L122.928,23.444 L122.928,22.172 L122.04,22.172 L122.04,23.444 L118.752,23.444 Z M120.768,30.608 L125.964,30.608 L125.964,31.916 L120.768,31.916 L120.768,30.608 Z M125.964,29.84 L120.768,29.84 L120.768,28.58 L125.964,28.58 L125.964,29.84 Z M130.98,33.092 C131.664,33.092 132.012,32.744 132.012,32.072 L132.012,28.532 C132.36,28.364 132.708,28.196 133.044,28.016 L133.044,27.14 C132.708,27.332 132.36,27.5 132.012,27.668 L132.012,25.328 L133.224,25.328 L133.224,24.5 L132.012,24.5 L132.012,22.232 L131.124,22.232 L131.124,24.5 L129.672,24.5 L129.672,25.328 L131.124,25.328 L131.124,28.04 C130.596,28.244 130.068,28.412 129.528,28.544 L129.732,29.408 C130.2,29.264 130.668,29.096 131.124,28.916 L131.124,31.844 C131.124,32.144 130.968,32.3 130.68,32.3 C130.368,32.3 130.056,32.276 129.72,32.252 L129.9,33.092 L130.98,33.092 Z M134.16,22.616 L134.16,26.78 L139.392,26.78 L139.392,22.616 L134.16,22.616 Z M138.552,26.072 L135,26.072 L135,25.04 L138.552,25.04 L138.552,26.072 Z M135,24.368 L135,23.324 L138.552,23.324 L138.552,24.368 L135,24.368 Z M133.32,27.62 L133.32,28.388 L136.356,28.388 L136.356,31.892 C136.248,31.856 136.152,31.82 136.068,31.784 C135.564,31.556 135.12,31.04 134.736,30.236 C134.832,29.828 134.892,29.42 134.916,28.988 L134.148,28.904 C134.052,30.272 133.548,31.52 132.636,32.624 L133.272,33.176 C133.788,32.552 134.184,31.868 134.472,31.124 C134.832,31.796 135.252,32.252 135.708,32.492 C136.284,32.78 137.364,32.936 138.948,32.948 C139.332,32.948 139.776,32.96 140.256,32.96 L140.496,32.12 C140.052,32.156 139.512,32.18 138.888,32.18 C138.228,32.18 137.664,32.144 137.184,32.072 L137.184,30.524 L139.692,30.524 L139.692,29.744 L137.184,29.744 L137.184,28.388 L140.184,28.388 L140.184,27.62 L133.32,27.62 Z M145.104,24.752 L145.104,25.592 L146.652,25.592 L146.652,28.4 L144.768,28.4 L144.768,29.228 L152.496,29.228 L152.496,28.4 L150.564,28.4 L150.564,25.592 L152.16,25.592 L152.16,24.752 L150.564,24.752 L150.564,22.244 L149.688,22.244 L149.688,24.752 L147.54,24.752 L147.54,22.244 L146.652,22.244 L146.652,24.752 L145.104,24.752 Z M147.54,28.4 L147.54,25.592 L149.688,25.592 L149.688,28.4 L147.54,28.4 Z M150.048,29.672 L149.34,30.104 C150.288,31.232 151.044,32.252 151.596,33.164 L152.364,32.636 C151.824,31.796 151.056,30.8 150.048,29.672 L150.048,29.672 Z M147.012,29.756 C146.412,30.884 145.68,31.844 144.84,32.648 L145.584,33.188 C146.436,32.324 147.18,31.304 147.804,30.128 L147.012,29.756 Z M142.968,26.48 L142.968,33.2 L143.856,33.2 L143.856,25.124 C144.336,24.296 144.732,23.408 145.044,22.472 L144.228,22.1 C143.628,23.972 142.68,25.64 141.372,27.104 L141.66,28.016 C142.14,27.524 142.572,27.008 142.968,26.48 L142.968,26.48 Z M158.688,22.232 C157.296,23.744 155.544,25.016 153.432,26.036 L153.852,26.792 C155.976,25.724 157.692,24.464 159,23.012 C160.416,24.536 162.108,25.772 164.1,26.732 L164.532,25.964 C162.564,25.052 160.824,23.816 159.312,22.232 L158.688,22.232 Z M155.652,26.024 L155.652,26.852 L158.556,26.852 L158.556,28.94 L155.076,28.94 L155.076,29.768 L158.556,29.768 L158.556,31.988 L154.008,31.988 L154.008,32.84 L164.004,32.84 L164.004,31.988 L159.444,31.988 L159.444,29.768 L162.912,29.768 L162.912,28.94 L159.444,28.94 L159.444,26.852 L162.348,26.852 L162.348,26.024 L155.652,26.024 Z M169.596,24.272 L169.596,25.112 L172.32,25.112 L172.32,27.716 C171.396,29.132 170.328,30.26 169.116,31.076 L169.56,31.82 C170.604,31.028 171.528,30.056 172.32,28.892 L172.32,31.892 C172.32,32.18 172.164,32.336 171.852,32.336 C171.468,32.336 171.06,32.312 170.652,32.276 L170.82,33.092 L172.14,33.092 C172.812,33.092 173.16,32.756 173.16,32.096 L173.16,28.136 C173.82,29.732 174.744,31.1 175.92,32.228 L176.484,31.556 C175.548,30.728 174.78,29.756 174.18,28.652 C174.768,28.052 175.356,27.308 175.932,26.42 L175.284,25.94 C174.84,26.672 174.348,27.332 173.796,27.92 C173.556,27.392 173.34,26.84 173.16,26.264 L173.16,25.112 L176.004,25.112 L176.004,24.272 L175.284,24.272 L175.764,23.78 C175.356,23.312 174.84,22.844 174.24,22.376 L173.736,22.856 C174.336,23.348 174.816,23.816 175.2,24.272 L173.16,24.272 L173.16,22.22 L172.32,22.22 L172.32,24.272 L169.596,24.272 Z M170.292,26.06 L169.62,26.48 C170.184,27.224 170.628,27.908 170.964,28.52 L171.564,28.1 C171.264,27.524 170.844,26.84 170.292,26.06 L170.292,26.06 Z M165.756,26.624 L165.756,27.44 L167.112,27.44 L167.112,30.224 C166.56,30.416 166.008,30.572 165.432,30.704 L165.66,31.568 C167.004,31.16 168.264,30.668 169.428,30.068 L169.428,29.228 C168.972,29.468 168.492,29.684 168,29.888 L168,27.44 L169.176,27.44 L169.176,26.624 L168,26.624 L168,23.816 L169.416,23.816 L169.416,23.012 L165.612,23.012 L165.612,23.816 L167.112,23.816 L167.112,26.624 L165.756,26.624 Z M180.072,24.14 L187.512,24.14 L187.512,23.3 L180.516,23.3 C180.66,22.988 180.792,22.664 180.936,22.316 L180.06,22.124 C179.412,23.732 178.584,25.04 177.576,26.036 L178.128,26.708 C178.86,25.988 179.508,25.124 180.072,24.14 L180.072,24.14 Z M187.188,33.176 C187.464,33.176 187.716,33.008 187.944,32.672 C188.172,32.312 188.376,31.604 188.568,30.572 L187.848,30.224 C187.74,30.764 187.644,31.22 187.548,31.58 C187.416,32.012 187.272,32.228 187.116,32.228 C186.804,32.228 186.576,32 186.432,31.568 C186.264,31.136 186.18,30.152 186.18,28.592 L186.18,27.044 L178.608,27.044 L178.608,27.872 L185.4,27.872 L185.4,28.592 C185.4,30.44 185.544,31.664 185.832,32.264 C186.12,32.864 186.576,33.164 187.188,33.176 L187.188,33.176 Z M179.928,25.196 L179.928,26 L186.924,26 L186.924,25.196 L179.928,25.196 Z M190.98,24.98 L190.98,27.248 L193.536,27.248 C192.696,27.824 191.532,28.232 190.044,28.472 L190.38,29.192 C192.012,28.916 193.296,28.424 194.232,27.716 C194.472,27.908 194.7,28.124 194.916,28.364 C193.776,29.144 192.168,29.78 190.092,30.284 L190.512,31.016 C192.54,30.464 194.148,29.756 195.324,28.892 C195.48,29.132 195.612,29.372 195.72,29.636 C194.376,30.656 192.456,31.484 189.972,32.132 L190.404,32.876 C192.72,32.24 194.568,31.412 195.936,30.404 C195.972,30.584 195.996,30.776 195.996,30.98 C195.996,31.556 195.876,31.94 195.648,32.132 C195.408,32.312 195.084,32.42 194.7,32.444 C194.424,32.444 194.088,32.456 193.68,32.456 L193.944,33.248 C194.256,33.248 194.532,33.236 194.796,33.212 C195.552,33.14 196.08,32.96 196.38,32.696 C196.704,32.372 196.872,31.796 196.872,30.98 C196.848,30.536 196.764,30.104 196.62,29.696 C196.8,29.636 196.992,29.576 197.196,29.504 C197.748,30.68 198.684,31.736 199.992,32.696 L200.568,31.976 C199.308,31.184 198.42,30.26 197.916,29.228 C198.612,28.94 199.26,28.616 199.836,28.232 L199.272,27.584 C198.48,28.148 197.484,28.616 196.308,28.988 C195.972,28.364 195.468,27.788 194.808,27.248 L199.62,27.248 L199.62,24.572 L196.5,24.572 C196.884,24.284 197.256,23.948 197.64,23.552 L197.64,22.976 L193.824,22.976 C194.04,22.76 194.244,22.544 194.448,22.328 L193.548,22.124 C192.54,23.192 191.232,24.056 189.624,24.716 L190.164,25.376 C190.44,25.256 190.716,25.124 190.98,24.98 L190.98,24.98 Z M195.372,24.572 L191.712,24.572 C192.18,24.284 192.624,23.984 193.032,23.66 L196.548,23.66 C196.164,23.996 195.768,24.308 195.372,24.572 L195.372,24.572 Z M198.768,26.528 L195.348,26.528 C195.576,26.168 195.756,25.748 195.888,25.292 L198.768,25.292 L198.768,26.528 Z M194.34,26.528 L191.832,26.528 L191.832,25.292 L195.024,25.292 C194.88,25.736 194.652,26.144 194.34,26.528 L194.34,26.528 Z M208.896,24.86 L210.672,24.86 C210.624,26.48 210.372,27.896 209.904,29.108 C209.424,28.1 209.04,26.888 208.74,25.484 L208.896,24.86 Z M209.508,29.972 C208.956,30.992 208.224,31.82 207.288,32.468 L207.732,33.188 C208.632,32.54 209.376,31.736 209.952,30.776 C210.552,31.784 211.272,32.6 212.112,33.2 L212.58,32.492 C211.716,31.904 210.984,31.076 210.36,29.996 C211.032,28.58 211.404,26.864 211.464,24.86 L212.244,24.86 L212.244,24.032 L209.076,24.032 C209.172,23.504 209.268,22.928 209.34,22.316 L208.5,22.172 C208.26,24.452 207.78,26.264 207.072,27.608 L207.612,28.268 C207.864,27.836 208.104,27.344 208.32,26.792 C208.644,27.992 209.04,29.048 209.508,29.972 L209.508,29.972 Z M203.82,27.776 C203.736,28.016 203.64,28.268 203.532,28.532 L201.78,28.532 L201.78,29.288 L203.196,29.288 C202.956,29.768 202.68,30.26 202.368,30.788 C202.956,31.004 203.508,31.232 204.036,31.46 C203.34,31.856 202.488,32.18 201.504,32.444 L201.912,33.164 C203.112,32.828 204.108,32.384 204.9,31.832 C205.608,32.144 206.22,32.468 206.748,32.78 L207.216,32.108 C206.688,31.82 206.136,31.556 205.56,31.292 C206.184,30.716 206.628,30.032 206.892,29.24 L206.892,28.532 L204.384,28.532 C204.456,28.316 204.54,28.1 204.624,27.872 L203.82,27.776 Z M204.768,30.956 C204.336,30.776 203.88,30.608 203.4,30.44 C203.64,30.08 203.856,29.696 204.048,29.288 L206.112,29.288 C205.824,29.912 205.368,30.476 204.768,30.956 L204.768,30.956 Z M202.728,22.424 L202.044,22.652 C202.332,23.108 202.596,23.624 202.848,24.212 L203.472,23.924 C203.256,23.396 203.016,22.892 202.728,22.424 L202.728,22.424 Z M206.376,22.388 C206.16,22.892 205.848,23.396 205.464,23.912 L206.076,24.224 C206.46,23.72 206.76,23.204 207,22.676 L206.376,22.388 Z M201.804,24.5 L201.804,25.256 L203.508,25.256 C203.148,25.916 202.5,26.516 201.576,27.056 L201.996,27.752 C203.028,27.056 203.748,26.24 204.144,25.292 L204.144,27.572 L204.948,27.572 L204.948,26.012 C205.38,26.3 205.896,26.684 206.496,27.164 L206.94,26.492 C206.268,26.084 205.596,25.712 204.948,25.388 L204.948,25.256 L207.132,25.256 L207.132,24.5 L204.948,24.5 L204.948,22.208 L204.144,22.208 L204.144,24.5 L201.804,24.5 Z M214.968,33.092 C215.64,33.092 215.976,32.732 215.976,32.036 L215.976,28.532 C216.348,28.364 216.72,28.196 217.092,28.004 L217.092,27.152 C216.732,27.344 216.36,27.524 215.976,27.692 L215.976,25.328 L217.128,25.328 L217.128,24.5 L215.976,24.5 L215.976,22.232 L215.136,22.232 L215.136,24.5 L213.696,24.5 L213.696,25.328 L215.136,25.328 L215.136,28.04 C214.608,28.232 214.056,28.4 213.504,28.532 L213.72,29.372 C214.188,29.228 214.656,29.06 215.136,28.88 L215.136,31.82 C215.136,32.156 214.98,32.336 214.68,32.336 C214.392,32.336 214.08,32.312 213.768,32.276 L213.948,33.092 L214.968,33.092 Z M218.556,27.788 L221.004,27.788 L221.004,29.264 L219,29.264 L219,33.2 L219.804,33.2 L219.804,32.612 L223.056,32.612 L223.056,33.2 L223.86,33.2 L223.86,29.264 L221.844,29.264 L221.844,27.788 L224.412,27.788 L224.412,27.008 L221.844,27.008 L221.844,25.592 L224.1,25.592 L224.1,22.676 L217.776,22.676 L217.776,26.432 C217.764,28.952 217.332,31.016 216.48,32.6 L217.152,33.2 C217.944,31.64 218.412,29.84 218.556,27.788 L218.556,27.788 Z M221.004,25.592 L221.004,27.008 L218.604,27.008 C218.604,26.816 218.616,26.624 218.616,26.432 L218.616,25.592 L221.004,25.592 Z M219.804,31.844 L219.804,30.032 L223.056,30.032 L223.056,31.844 L219.804,31.844 Z M223.26,23.48 L223.26,24.812 L218.616,24.812 L218.616,23.48 L223.26,23.48 Z M227.184,26.3 L229.116,26.3 L229.116,28.304 L227.184,28.304 L227.184,26.3 Z M229.116,25.52 L227.184,25.52 L227.184,23.492 L229.116,23.492 L229.116,25.52 Z M227.172,29.084 L229.116,29.084 L229.116,31.796 C229.116,32.228 228.96,32.444 228.66,32.444 C228.372,32.444 228.072,32.42 227.736,32.396 L227.94,33.164 L228.9,33.164 C229.572,33.164 229.908,32.792 229.908,32.072 L229.908,22.712 L226.404,22.712 L226.404,28.472 C226.392,30.152 226.152,31.544 225.672,32.624 L226.32,33.224 C226.812,32.144 227.1,30.764 227.172,29.084 L227.172,29.084 Z M231.732,27.896 L232.02,27.896 C232.284,29.072 232.8,30.128 233.568,31.064 C233.088,31.64 232.512,32.108 231.828,32.48 L232.284,33.176 C233.004,32.792 233.616,32.3 234.144,31.688 C234.696,32.228 235.344,32.72 236.112,33.164 L236.544,32.432 C235.812,32.012 235.176,31.544 234.636,31.016 C235.188,30.152 235.584,29.096 235.812,27.86 L235.812,27.128 L231.732,27.128 L231.732,23.492 L234.936,23.492 C234.912,24.404 234.864,24.992 234.78,25.256 C234.708,25.436 234.6,25.556 234.456,25.604 C234.312,25.64 234.108,25.664 233.82,25.664 C233.484,25.664 233.22,25.652 233.016,25.652 L233.244,26.396 L234.216,26.396 C234.972,26.396 235.416,26.144 235.56,25.652 C235.704,25.172 235.776,24.188 235.776,22.7 L230.916,22.7 L230.916,33.212 L231.732,33.212 L231.732,27.896 Z M232.764,27.896 L235.044,27.896 C234.828,28.844 234.504,29.672 234.06,30.392 C233.448,29.648 233.016,28.82 232.764,27.896 L232.764,27.896 Z M241.128,22.16 C240.624,23.36 239.64,24.368 238.2,25.196 L238.728,25.892 C239.28,25.556 239.772,25.184 240.228,24.776 C240.804,25.28 241.428,25.736 242.1,26.132 C240.78,26.66 239.256,27.044 237.516,27.284 L237.912,28.1 C239.856,27.8 241.572,27.308 243.036,26.636 C244.524,27.38 246.216,27.86 248.112,28.076 L248.508,27.272 C246.84,27.104 245.328,26.732 243.972,26.156 C245.076,25.532 246.012,24.776 246.78,23.888 L246.78,23.192 L241.548,23.192 C241.716,22.904 241.872,22.604 242.004,22.28 L241.128,22.16 Z M243.024,25.712 C242.22,25.292 241.476,24.788 240.804,24.2 L240.96,24.008 L245.544,24.008 C244.836,24.656 243.996,25.232 243.024,25.712 L243.024,25.712 Z M242.292,27.5 C242.292,27.98 242.244,28.436 242.148,28.868 L238.332,28.868 L238.332,29.648 L241.908,29.648 C241.812,29.888 241.68,30.116 241.536,30.332 C240.912,31.208 239.604,31.94 237.636,32.516 L238.212,33.224 C240.42,32.528 241.824,31.628 242.436,30.548 C242.592,30.26 242.724,29.96 242.82,29.648 L246.372,29.648 C246.336,30.848 246.228,31.592 246.048,31.88 C245.856,32.168 245.412,32.324 244.692,32.336 L243.276,32.276 L243.492,33.056 C244.044,33.08 244.512,33.104 244.896,33.104 C245.748,33.104 246.348,32.9 246.696,32.504 C247.044,32.108 247.224,30.896 247.248,28.868 L243.024,28.868 C243.096,28.436 243.144,27.98 243.144,27.5 L242.292,27.5 Z" id="为企业和开发者提供全球气象数据服务" opacity="0.6"></path>
            <path d="M49.046875,2.8828125 L49.921875,2.8828125 L49.921875,12.0703125 C49.8854165,12.8723998 50.3411411,13.2552085 51.2890625,13.21875 L54.296875,13.21875 C55.1354209,13.2552085 55.5364585,12.9088578 55.5,12.1796875 L55.5,11.5234375 L56.15625,11.5234375 L56.15625,12.1796875 C56.1927085,13.34636 55.609381,13.9114585 54.40625,13.875 L51.0703125,13.875 C49.6484304,13.947917 48.973958,13.2916736 49.046875,11.90625 L49.046875,2.8828125 Z M46.859375,4.6328125 L47.515625,4.6328125 C47.515625,7.29428414 47.2968772,9.70051008 46.859375,11.8515625 L45.984375,11.8515625 C46.4583357,9.62759305 46.7499995,7.22136711 46.859375,4.6328125 L46.859375,4.6328125 Z M53.1484375,1.7890625 C53.5494812,3.50261273 53.8776029,5.45311406 54.1328125,7.640625 L53.203125,7.640625 C53.130208,5.67186516 52.8932312,3.72136383 52.4921875,1.7890625 L53.1484375,1.7890625 Z M57.0859375,4.5234375 C57.7057323,7.03907508 58.1067699,9.48175898 58.2890625,11.8515625 L57.46875,11.8515625 C57.2135404,9.08071531 56.8671897,6.63803141 56.4296875,4.5234375 L57.0859375,4.5234375 Z M67.8921875,13.546875 L67.8921875,2.8828125 L73.2515625,2.8828125 L73.2515625,11.90625 C73.288021,13.036464 72.6682355,13.5833335 71.3921875,13.546875 L67.8921875,13.546875 Z M72.43125,3.4296875 L68.7671875,3.4296875 L68.7671875,13 L71.2828125,13 C72.0484413,13 72.43125,12.6354203 72.43125,11.90625 L72.43125,3.4296875 Z M60.946875,5.453125 C61.9312549,4.57812062 62.4416665,3.35677867 62.478125,1.7890625 L63.353125,1.7890625 C63.3166665,1.93489656 63.2802085,2.15364437 63.24375,2.4453125 C63.1708329,2.80989766 63.116146,3.08333242 63.0796875,3.265625 L66.7984375,3.265625 L66.7984375,3.8125 L64.775,3.8125 L64.775,7.0390625 L64.775,7.4765625 L67.18125,7.4765625 L67.18125,8.0234375 L64.775,8.0234375 C64.847917,10.1380314 65.7046793,11.9973878 67.3453125,13.6015625 L67.3453125,14.3125 C65.8140548,13.109369 64.8114607,11.7057372 64.3375,10.1015625 C63.8270808,11.7786542 62.7515707,13.182286 61.1109375,14.3125 L61.1109375,13.65625 C62.8974047,12.0885338 63.8270829,10.2109484 63.9,8.0234375 L61.05625,8.0234375 L61.05625,7.4765625 L63.9,7.4765625 C63.9,7.40364547 63.918229,7.33072953 63.9546875,7.2578125 L63.9546875,7.0390625 L63.9546875,3.8125 L62.915625,3.8125 C62.5874983,4.61458734 61.9312549,5.3619757 60.946875,6.0546875 L60.946875,5.453125 Z M77.2765625,3.265625 L77.2765625,2.6640625 L88.378125,2.6640625 L88.378125,3.265625 L83.2921875,3.265625 L83.2921875,6.4375 L83.2921875,6.765625 L89.034375,6.765625 L89.034375,7.421875 L83.346875,7.421875 C83.6385431,10.1562637 85.5525864,12.2890548 89.0890625,13.8203125 L89.0890625,14.3671875 C85.8442546,13.127598 83.7661503,11.4323024 82.8546875,9.28125 C82.0161416,11.3229269 79.9015794,13.0182224 76.5109375,14.3671875 L76.5109375,13.8203125 C80.3755401,11.9973867 82.3078125,9.86459555 82.3078125,7.421875 L76.565625,7.421875 L76.565625,6.765625 L82.3625,6.765625 L82.3625,6.4921875 L82.3625,3.265625 L77.2765625,3.265625 Z M92.8406249,8.1875 L92.8406249,7.640625 L102.246875,7.640625 C102.210416,11.9791884 102.593225,14.0208346 103.395312,13.765625 C103.759898,13.8020835 103.942187,13.4557328 103.942187,12.7265625 L104.54375,12.7265625 C104.580208,13.8567765 104.1974,14.403646 103.395312,14.3671875 C101.97343,14.6588556 101.298958,12.5989804 101.371875,8.1875 L92.8406249,8.1875 Z M91.9109374,6.328125 L91.9109374,5.78125 C93.5515706,4.79687008 94.5177068,3.46615422 94.8093749,1.7890625 L95.7390624,1.7890625 C95.7026039,1.97135508 95.629688,2.20833187 95.5203124,2.5 C95.4473954,2.71875109 95.3927084,2.88281195 95.3562499,2.9921875 L103.942187,2.9921875 L103.942187,3.5390625 L95.0828124,3.5390625 C94.6088517,4.63281797 93.5515706,5.56249617 91.9109374,6.328125 L91.9109374,6.328125 Z M102.957812,5.8359375 L94.4812499,5.8359375 L94.4812499,5.234375 L102.957812,5.234375 L102.957812,5.8359375 Z" id="心知天气-copy"></path>
        </g>
    </g>
</svg>