<?xml version="1.0" encoding="UTF-8" standalone="no"?>
<svg width="46px" height="46px" viewBox="0 0 46 46" version="1.1" xmlns="http://www.w3.org/2000/svg" xmlns:xlink="http://www.w3.org/1999/xlink">
    <!-- Generator: Sketch 3.8.3 (29802) - http://www.bohemiancoding.com/sketch -->
    <title>btn_switch_white</title>
    <desc>Created with Sketch.</desc>
    <defs></defs>
    <g id="mockup" stroke="none" stroke-width="1" fill="none" fill-rule="evenodd">
        <path d="M25.4347645,20.1874419 C25.4347645,18.8088372 24.3426185,17.6874418 22.999972,17.6874418 C21.6573254,17.6874418 20.5651794,18.8088372 20.5651794,20.1874419 C20.5651794,21.5660465 21.6573254,22.6874419 22.999972,22.6874419 C24.3426185,22.6874419 25.4347645,21.5660465 25.4347645,20.1874419 L25.4347645,20.1874419 Z M21.7823492,20.1874419 C21.7823492,19.4981395 22.3281957,18.9372093 22.999972,18.9372093 C23.6712952,18.9372093 24.2175947,19.4981395 24.2175947,20.1874419 C24.2175947,20.8767442 23.6717482,21.4376744 22.999972,21.4376744 C22.3286487,21.4376744 21.7823492,20.8767442 21.7823492,20.1874419 L21.7823492,20.1874419 Z M22.9895533,33 C23.1644054,33 23.3306508,32.9227907 23.4461619,32.7883721 C23.7143288,32.4758139 30.0216872,25.0753488 29.9999439,20.1953488 C29.9822775,16.227907 26.8421879,13 22.999972,13 C19.1400897,13 16,16.2288372 16,20.1981395 C16,25.0753488 22.2652308,32.4744186 22.5320388,32.7869767 C22.6475499,32.9223256 22.8051886,32.9953488 22.9895533,33 L22.9895533,33 Z M22.999972,14.2502326 C26.1740355,14.2502326 28.7678256,16.92 28.7827741,20.2013953 C28.7990816,23.8962791 24.4363863,29.6144186 22.9913652,31.4060465 C21.5535919,29.6130232 17.2176227,23.8976744 17.2176227,20.1981395 C17.2171698,16.9181395 19.8114129,14.2502326 22.999972,14.2502326 L22.999972,14.2502326 Z" id="Shape-Copy-3" fill="#FFFFFF"></path>
    </g>
</svg>