<?xml version="1.0" encoding="UTF-8" standalone="no"?>
<svg width="64px" height="64px" viewBox="0 0 64 64" version="1.1" xmlns="http://www.w3.org/2000/svg" xmlns:xlink="http://www.w3.org/1999/xlink">
    <!-- Generator: Sketch 3.8.3 (29802) - http://www.bohemiancoding.com/sketch -->
    <title>27</title>
    <desc>Created with Sketch.</desc>
    <defs></defs>
    <g id="天气图标" stroke="none" stroke-width="1" fill="none" fill-rule="evenodd">
        <g id="天气图标_黑色背景" transform="translate(-360.000000, -2401.000000)" fill="#E5C793">
            <path d="M372.615385,2454.23077 C372.615385,2455.42185 371.650462,2456.38462 370.461539,2456.38462 L366.153846,2456.38462 C364.964923,2456.38462 364,2455.42185 364,2454.23077 C364,2453.03969 364.964923,2452.07692 366.153846,2452.07692 L370.461538,2452.07692 C371.650462,2452.07692 372.615385,2453.03969 372.615385,2454.23077 L372.615385,2454.23077 Z M383.384615,2452.07692 L379.076923,2452.07692 C377.888,2452.07692 376.923077,2453.03969 376.923077,2454.23077 C376.923077,2455.42185 377.888,2456.38462 379.076923,2456.38462 L383.384615,2456.38462 C384.573539,2456.38462 385.538462,2455.42185 385.538462,2454.23077 C385.538462,2453.03969 384.573538,2452.07692 383.384615,2452.07692 L383.384615,2452.07692 Z M396.307692,2452.07692 L392,2452.07692 C390.811077,2452.07692 389.846154,2453.03969 389.846154,2454.23077 C389.846154,2455.42185 390.811077,2456.38462 392,2456.38462 L396.307692,2456.38462 C397.498769,2456.38462 398.461538,2455.42185 398.461538,2454.23077 C398.461538,2453.03969 397.498769,2452.07692 396.307692,2452.07692 L396.307692,2452.07692 Z M409.230769,2452.07692 L404.923077,2452.07692 C403.732,2452.07692 402.769231,2453.03969 402.769231,2454.23077 C402.769231,2455.42185 403.732,2456.38462 404.923077,2456.38462 L409.230769,2456.38462 C410.421846,2456.38462 411.384615,2455.42185 411.384615,2454.23077 C411.384615,2453.03969 410.421846,2452.07692 409.230769,2452.07692 L409.230769,2452.07692 Z M381.230769,2445.61538 C381.230769,2444.42431 380.265846,2443.46154 379.076923,2443.46154 L374.769231,2443.46154 C373.580308,2443.46154 372.615385,2444.42431 372.615385,2445.61538 C372.615385,2446.80646 373.580308,2447.76923 374.769231,2447.76923 L379.076923,2447.76923 C380.265846,2447.76923 381.230769,2446.80646 381.230769,2445.61538 L381.230769,2445.61538 Z M394.153846,2445.61538 C394.153846,2444.42431 393.188923,2443.46154 392,2443.46154 L387.692308,2443.46154 C386.503385,2443.46154 385.538462,2444.42431 385.538462,2445.61538 C385.538462,2446.80646 386.503385,2447.76923 387.692308,2447.76923 L392,2447.76923 C393.188923,2447.76923 394.153846,2446.80646 394.153846,2445.61538 L394.153846,2445.61538 Z M407.076923,2445.61538 C407.076923,2444.42431 406.114154,2443.46154 404.923077,2443.46154 L400.615385,2443.46154 C399.424308,2443.46154 398.461539,2444.42431 398.461539,2445.61538 C398.461539,2446.80646 399.424308,2447.76923 400.615385,2447.76923 L404.923077,2447.76923 C406.114154,2447.76923 407.076923,2446.80646 407.076923,2445.61538 L407.076923,2445.61538 Z M417.846154,2443.46154 L413.538462,2443.46154 C412.347385,2443.46154 411.384615,2444.42431 411.384615,2445.61538 C411.384615,2446.80646 412.347385,2447.76923 413.538462,2447.76923 L417.846154,2447.76923 C419.037231,2447.76923 420,2446.80646 420,2445.61538 C420,2444.42431 419.037231,2443.46154 417.846154,2443.46154 L417.846154,2443.46154 Z M366.153846,2439.15385 L370.461538,2439.15385 C371.650462,2439.15385 372.615385,2438.19108 372.615385,2437 C372.615385,2435.80892 371.650461,2434.84615 370.461538,2434.84615 L366.153846,2434.84615 C364.964923,2434.84615 364,2435.80892 364,2437 C364,2438.19108 364.964923,2439.15385 366.153846,2439.15385 L366.153846,2439.15385 Z M379.076923,2439.15385 L383.384615,2439.15385 C384.573539,2439.15385 385.538462,2438.19108 385.538462,2437 C385.538462,2435.80892 384.573538,2434.84615 383.384615,2434.84615 L379.076923,2434.84615 C377.888,2434.84615 376.923077,2435.80892 376.923077,2437 C376.923077,2438.19108 377.888,2439.15385 379.076923,2439.15385 L379.076923,2439.15385 Z M392,2439.15385 L396.307692,2439.15385 C397.498769,2439.15385 398.461538,2438.19108 398.461538,2437 C398.461538,2435.80892 397.498769,2434.84615 396.307692,2434.84615 L392,2434.84615 C390.811077,2434.84615 389.846154,2435.80892 389.846154,2437 C389.846154,2438.19108 390.811077,2439.15385 392,2439.15385 L392,2439.15385 Z M404.923077,2439.15385 L409.230769,2439.15385 C410.421846,2439.15385 411.384615,2438.19108 411.384615,2437 C411.384615,2435.80892 410.421846,2434.84615 409.230769,2434.84615 L404.923077,2434.84615 C403.732,2434.84615 402.769231,2435.80892 402.769231,2437 C402.769231,2438.19108 403.732,2439.15385 404.923077,2439.15385 L404.923077,2439.15385 Z M381.230769,2428.38462 C381.230769,2427.19569 380.265846,2426.23077 379.076923,2426.23077 L374.769231,2426.23077 C373.580308,2426.23077 372.615385,2427.19569 372.615385,2428.38462 C372.615385,2429.57354 373.580308,2430.53846 374.769231,2430.53846 L379.076923,2430.53846 C380.265846,2430.53846 381.230769,2429.57354 381.230769,2428.38462 L381.230769,2428.38462 Z M394.153846,2428.38462 C394.153846,2427.19569 393.188923,2426.23077 392,2426.23077 L387.692308,2426.23077 C386.503385,2426.23077 385.538462,2427.19569 385.538462,2428.38462 C385.538462,2429.57354 386.503385,2430.53846 387.692308,2430.53846 L392,2430.53846 C393.188923,2430.53846 394.153846,2429.57354 394.153846,2428.38462 L394.153846,2428.38462 Z M407.076923,2428.38462 C407.076923,2427.19569 406.114154,2426.23077 404.923077,2426.23077 L400.615385,2426.23077 C399.424308,2426.23077 398.461539,2427.19569 398.461539,2428.38462 C398.461539,2429.57354 399.424308,2430.53846 400.615385,2430.53846 L404.923077,2430.53846 C406.114154,2430.53846 407.076923,2429.57354 407.076923,2428.38462 L407.076923,2428.38462 Z M417.846154,2426.23077 L413.538462,2426.23077 C412.347385,2426.23077 411.384615,2427.19569 411.384615,2428.38462 C411.384615,2429.57354 412.347385,2430.53846 413.538462,2430.53846 L417.846154,2430.53846 C419.037231,2430.53846 420,2429.57354 420,2428.38462 C420,2427.19569 419.037231,2426.23077 417.846154,2426.23077 L417.846154,2426.23077 Z M366.153846,2421.92308 L370.461538,2421.92308 C371.650462,2421.92308 372.615385,2420.95815 372.615385,2419.76923 C372.615385,2418.58031 371.650462,2417.61538 370.461538,2417.61538 L366.153846,2417.61538 C364.964923,2417.61538 364,2418.58031 364,2419.76923 C364,2420.95815 364.964923,2421.92308 366.153846,2421.92308 L366.153846,2421.92308 Z M376.923077,2419.76923 C376.923077,2420.95815 377.888,2421.92308 379.076923,2421.92308 L383.384615,2421.92308 C384.573538,2421.92308 385.538461,2420.95815 385.538461,2419.76923 C385.538461,2418.58031 384.573538,2417.61538 383.384615,2417.61538 L379.076923,2417.61538 C377.888,2417.61538 376.923077,2418.58031 376.923077,2419.76923 L376.923077,2419.76923 Z M389.846154,2419.76923 C389.846154,2420.95815 390.811077,2421.92308 392,2421.92308 L396.307692,2421.92308 C397.498769,2421.92308 398.461538,2420.95815 398.461538,2419.76923 C398.461538,2418.58031 397.498769,2417.61538 396.307692,2417.61538 L392,2417.61538 C390.811077,2417.61538 389.846154,2418.58031 389.846154,2419.76923 L389.846154,2419.76923 Z M402.769231,2419.76923 C402.769231,2420.95815 403.732,2421.92308 404.923077,2421.92308 L409.230769,2421.92308 C410.421846,2421.92308 411.384615,2420.95815 411.384615,2419.76923 C411.384615,2418.58031 410.421846,2417.61538 409.230769,2417.61538 L404.923077,2417.61538 C403.732,2417.61538 402.769231,2418.58031 402.769231,2419.76923 L402.769231,2419.76923 Z M374.769231,2413.30769 L379.076923,2413.30769 C380.265846,2413.30769 381.230769,2412.34277 381.230769,2411.15385 C381.230769,2409.96492 380.265846,2409 379.076923,2409 L374.769231,2409 C373.580308,2409 372.615385,2409.96492 372.615385,2411.15385 C372.615385,2412.34277 373.580308,2413.30769 374.769231,2413.30769 L374.769231,2413.30769 Z M387.692308,2413.30769 L392,2413.30769 C393.188923,2413.30769 394.153846,2412.34277 394.153846,2411.15385 C394.153846,2409.96492 393.188923,2409 392,2409 L387.692308,2409 C386.503385,2409 385.538462,2409.96492 385.538462,2411.15385 C385.538462,2412.34277 386.503385,2413.30769 387.692308,2413.30769 L387.692308,2413.30769 Z M400.615385,2413.30769 L404.923077,2413.30769 C406.114154,2413.30769 407.076923,2412.34277 407.076923,2411.15385 C407.076923,2409.96492 406.114154,2409 404.923077,2409 L400.615385,2409 C399.424308,2409 398.461539,2409.96492 398.461539,2411.15385 C398.461539,2412.34277 399.424308,2413.30769 400.615385,2413.30769 L400.615385,2413.30769 Z M413.538462,2413.30769 L417.846154,2413.30769 C419.037231,2413.30769 420,2412.34277 420,2411.15385 C420,2409.96492 419.037231,2409 417.846154,2409 L413.538462,2409 C412.347385,2409 411.384615,2409.96492 411.384615,2411.15385 C411.384615,2412.34277 412.347385,2413.30769 413.538462,2413.30769 L413.538462,2413.30769 Z" id="Shape"></path>
        </g>
    </g>
</svg>