<?xml version="1.0" encoding="UTF-8" standalone="no"?>
<svg width="64px" height="64px" viewBox="0 0 64 64" version="1.1" xmlns="http://www.w3.org/2000/svg" xmlns:xlink="http://www.w3.org/1999/xlink">
    <!-- Generator: Sketch 3.8.3 (29802) - http://www.bohemiancoding.com/sketch -->
    <title>30</title>
    <desc>Created with Sketch.</desc>
    <defs>
        <linearGradient x1="50%" y1="0%" x2="50%" y2="97.7459343%" id="linearGradient-1">
            <stop stop-color="#B5B5B5" stop-opacity="0.8" offset="0%"></stop>
            <stop stop-color="#B5B5B5" stop-opacity="0.9" offset="100%"></stop>
        </linearGradient>
    </defs>
    <g id="天气图标" stroke="none" stroke-width="1" fill="none" fill-rule="evenodd">
        <g id="天气图标_黑色背景" transform="translate(-360.000000, -2631.000000)" fill="url(#linearGradient-1)">
            <path d="M415.696639,2656.75816 L419.0356,2656.75816 C416.57792,2651.35424 411.16656,2647.81032 405.17984,2647.81032 C404.25232,2647.81032 403.35208,2647.94424 402.59568,2648.07568 L401.94592,2648.18728 L401.626,2647.61192 C397.97544,2641.06472 391.07608,2637 383.61376,2637 C372.548,2637 363.48856,2645.78168 363,2656.75816 L366.160887,2656.75816 L366.167469,2656.82665 L415.738758,2656.82665 L415.696639,2656.75816 Z M418.67848,2685.89766 L364.76576,2685.89766 C363.79112,2685.89766 363,2686.69126 363,2687.67086 C363,2688.64798 363.79112,2689.44406 364.76576,2689.44406 L418.67848,2689.44406 C419.65064,2689.44406 420.44176,2688.64798 420.44176,2687.67086 C420.44176,2686.69126 419.65064,2685.89766 418.67848,2685.89766 Z M418.67848,2664.28 L364.76576,2664.28 C363.79112,2664.28 363,2665.07608 363,2666.0532 C363,2667.03032 363.79112,2667.8264 364.76576,2667.8264 L418.67848,2667.8264 C419.65064,2667.8264 420.44176,2667.03032 420.44176,2666.0532 C420.44176,2665.07608 419.65064,2664.28 418.67848,2664.28 Z M418.67848,2675.08883 L364.76576,2675.08883 C363.79112,2675.08883 363,2675.88243 363,2676.86203 C363,2677.83915 363.79112,2678.63523 364.76576,2678.63523 L418.67848,2678.63523 C419.65064,2678.63523 420.44176,2677.83915 420.44176,2676.86203 C420.44176,2675.88243 419.65064,2675.08883 418.67848,2675.08883 Z" id="Combined-Shape"></path>
        </g>
    </g>
</svg>