<?xml version="1.0" encoding="UTF-8" standalone="no"?>
<svg width="64px" height="64px" viewBox="0 0 64 64" version="1.1" xmlns="http://www.w3.org/2000/svg" xmlns:xlink="http://www.w3.org/1999/xlink">
    <!-- Generator: Sketch 3.8.3 (29802) - http://www.bohemiancoding.com/sketch -->
    <title>31</title>
    <desc>Created with Sketch.</desc>
    <defs></defs>
    <g id="天气图标" stroke="none" stroke-width="1" fill="none" fill-rule="evenodd">
        <g id="天气图标_黑色背景" transform="translate(-360.000000, -2714.000000)" fill="#B5B5B5">
            <path d="M407.330062,2733.10462 C398.803651,2733.10462 393.862941,2739.9561 391.761092,2743.80494 C389.658151,2739.9561 384.717441,2733.10244 376.189938,2733.10244 C367.569627,2733.10244 362,2738.51374 362,2746.89057 C362,2755.37221 367.638415,2760.85012 376.366821,2760.85012 C384.846281,2760.85012 389.684356,2753.9102 391.76,2749.93361 C393.833461,2753.90801 398.671535,2760.85012 407.149903,2760.85012 C415.879401,2760.85012 421.517816,2755.37221 421.52,2746.89275 C421.52,2738.51593 415.951465,2733.10462 407.330062,2733.10462 Z M391.753449,2725.36545 C393.235116,2725.36545 394.436173,2724.1633 394.436173,2722.68272 C394.436173,2721.20106 393.235116,2720 391.753449,2720 C390.271782,2720 389.070725,2721.20106 389.070725,2722.68272 C389.070725,2724.1633 390.271782,2725.36545 391.753449,2725.36545 Z M418.579923,2725.36545 C420.060498,2725.36545 421.261554,2724.1633 421.261554,2722.68272 C421.261554,2721.20106 420.060498,2720 418.579923,2720 C417.099347,2720 415.897199,2721.20106 415.897199,2722.68272 C415.897199,2724.1633 417.099347,2725.36545 418.579923,2725.36545 Z M366.866463,2725.36545 C368.347038,2725.36545 369.549187,2724.1633 369.549187,2722.68272 C369.549187,2721.20106 368.347038,2720 366.866463,2720 C365.384796,2720 364.183739,2721.20106 364.183739,2722.68272 C364.183739,2724.1633 365.384796,2725.36545 366.866463,2725.36545 Z M391.546539,2766.95029 C390.064872,2766.95029 388.863816,2768.15134 388.863816,2769.63301 C388.863816,2771.11359 390.064872,2772.31573 391.546539,2772.31573 C393.027115,2772.31573 394.229263,2771.11359 394.229263,2769.63301 C394.229263,2768.15134 393.027115,2766.95029 391.546539,2766.95029 Z M418.372031,2766.95029 C416.890363,2766.95029 415.689307,2768.15134 415.689307,2769.63301 C415.689307,2771.11359 416.890363,2772.31573 418.372031,2772.31573 C419.853698,2772.31573 421.054754,2771.11359 421.054754,2769.63301 C421.054754,2768.15134 419.853698,2766.95029 418.372031,2766.95029 Z M366.866463,2766.95029 C365.384796,2766.95029 364.183739,2768.15134 364.183739,2769.63301 C364.183739,2771.11359 365.384796,2772.31573 366.866463,2772.31573 C368.347038,2772.31573 369.549187,2771.11359 369.549187,2769.63301 C369.549187,2768.15134 368.347038,2766.95029 366.866463,2766.95029 Z M376.567725,2756.21295 C370.517675,2756.21295 366.906862,2752.73425 366.906862,2746.90585 C366.906862,2741.16589 370.46199,2737.73961 376.421415,2737.73961 C383.546956,2737.73961 387.256038,2745.09881 388.036724,2746.8458 C387.289886,2748.63537 383.708553,2756.21295 376.567725,2756.21295 Z M406.939172,2756.09394 C399.910807,2756.09394 396.357863,2748.61026 395.619759,2746.8458 C396.38516,2745.11846 400.025453,2737.85971 407.083299,2737.85971 C412.961925,2737.85971 416.473378,2741.24232 416.473378,2746.90694 C416.473378,2752.65891 412.910608,2756.09394 406.939172,2756.09394 Z" id="Combined-Shape"></path>
        </g>
    </g>
</svg>