<?xml version="1.0" encoding="UTF-8" standalone="no"?>
<svg width="64px" height="64px" viewBox="0 0 64 64" version="1.1" xmlns="http://www.w3.org/2000/svg" xmlns:xlink="http://www.w3.org/1999/xlink">
    <!-- Generator: Sketch 3.8.3 (29802) - http://www.bohemiancoding.com/sketch -->
    <title>32</title>
    <desc>Created with Sketch.</desc>
    <defs>
        <linearGradient x1="1.12703284%" y1="48.8729672%" x2="98.8729672%" y2="48.8729672%" id="linearGradient-1">
            <stop stop-color="#B5B5B5" stop-opacity="0.6" offset="0%"></stop>
            <stop stop-color="#B5B5B5" stop-opacity="0.9" offset="100%"></stop>
        </linearGradient>
    </defs>
    <g id="天气图标" stroke="none" stroke-width="1" fill="none" fill-rule="evenodd">
        <g id="天气图标_黑色背景" transform="translate(-360.000000, -2802.000000)" fill="url(#linearGradient-1)">
            <path d="M363.534198,2827.09504 L389.592594,2827.09504 C394.02926,2827.09504 397.638838,2823.48546 397.638838,2819.0488 C397.638838,2814.60958 394.02926,2811 389.592594,2811 C385.367805,2811 381.896075,2814.27006 381.569324,2818.41061 L384.650484,2818.41061 C384.964472,2815.96508 387.060273,2814.06584 389.592594,2814.06584 C392.339345,2814.06584 394.572995,2816.29949 394.572995,2819.0488 C394.572995,2821.79555 392.339345,2824.0292 389.592594,2824.0292 L363.534198,2824.0292 C362.68924,2824.0292 362,2824.71333 362,2825.55829 C362,2825.97183 362.15827,2826.3573 362.44673,2826.64576 C362.737743,2826.93677 363.123207,2827.09504 363.534198,2827.09504 Z M411.30469,2841.40444 L363.535219,2841.40444 C362.690262,2841.40444 362.001021,2842.09113 362.001021,2842.93609 C362.001021,2843.78104 362.690262,2844.46518 363.535219,2844.46518 L411.30469,2844.46518 C414.051441,2844.46518 416.285091,2846.70138 416.285091,2849.45068 C416.285091,2852.19744 414.051441,2854.42853 411.30469,2854.42853 C408.77237,2854.42853 406.676568,2852.53184 406.360028,2850.08887 L403.28142,2850.08887 C403.608172,2854.22942 407.082454,2857.49948 411.30469,2857.49948 C415.738804,2857.49948 419.345829,2853.8899 419.345829,2849.45068 C419.345829,2845.01402 415.738804,2841.40444 411.30469,2841.40444 Z M401.225697,2827.09504 L404.33749,2827.09504 C404.214958,2826.57939 404.153693,2826.07394 404.153693,2825.5634 C404.153693,2821.61686 407.36249,2818.41061 411.303924,2818.41061 C415.250464,2818.41061 418.459262,2821.61686 418.459262,2825.5634 C418.459262,2829.28785 415.643587,2832.34093 411.91403,2832.65747 C411.850211,2832.68044 411.732785,2832.71363 411.584726,2832.71363 L363.534454,2832.71363 C362.689496,2832.71363 362.000255,2833.40287 362.000255,2834.25038 C362.000255,2834.65882 362.158525,2835.04173 362.446985,2835.33019 C362.735445,2835.6212 363.123462,2835.77947 363.534454,2835.77947 L411.303924,2835.77947 C416.937827,2835.77947 421.52,2831.1973 421.52,2825.5634 C421.52,2819.92694 416.937827,2815.34222 411.303924,2815.34222 C405.667469,2815.34222 401.082743,2819.92694 401.082743,2825.5634 C401.082743,2826.04331 401.128693,2826.53854 401.225697,2827.09504 Z" id="Combined-Shape"></path>
        </g>
    </g>
</svg>