<?xml version="1.0" encoding="UTF-8" standalone="no"?>
<svg width="64px" height="64px" viewBox="0 0 64 64" version="1.1" xmlns="http://www.w3.org/2000/svg" xmlns:xlink="http://www.w3.org/1999/xlink">
    <!-- Generator: Sketch 3.8.3 (29802) - http://www.bohemiancoding.com/sketch -->
    <title>1</title>
    <desc>Created with Sketch.</desc>
    <defs>
        <linearGradient x1="50%" y1="0%" x2="50%" y2="100%" id="linearGradient-1">
            <stop stop-color="#EAE6C5" offset="0%"></stop>
            <stop stop-color="#D8C7A0" offset="100%"></stop>
        </linearGradient>
    </defs>
    <g id="天气图标" stroke="none" stroke-width="1" fill="none" fill-rule="evenodd">
        <g id="天气图标_黑色背景" transform="translate(-360.000000, -135.000000)" fill="url(#linearGradient-1)">
            <path d="M392.510467,194.000679 L392.504264,193.995268 C385.174554,193.95383 378.289712,191.081121 373.101402,185.893867 C367.877262,180.668737 365,173.722265 365,166.331717 C365,160.256243 366.950441,154.52125 370.642746,149.747918 C372.410872,147.460097 374.527859,145.468217 376.932935,143.825264 C379.363546,142.166409 382.030252,140.902143 384.860863,140.069548 C385.017576,140.022897 385.181548,140 385.345454,140 C385.856308,140 386.338326,140.225536 386.666929,140.620124 C387.104606,141.148793 387.185833,141.884391 386.872868,142.496597 C385.185111,145.786263 384.399234,148.920008 384.399234,152.361043 C384.399234,164.623373 394.376316,174.600456 406.638646,174.600456 C410.080671,174.600456 413.215208,173.814578 416.503093,172.128603 C416.745388,172.004354 417.015794,171.939161 417.286133,171.939161 C417.685406,171.939161 418.072802,172.079115 418.379565,172.33375 C418.906387,172.770634 419.123147,173.47898 418.930867,174.138827 C418.0924,176.978214 416.828133,179.644919 415.174425,182.06781 C413.533254,184.471831 411.540319,186.589015 409.252498,188.357999 C404.479429,192.05004 398.744238,194.000481 392.668962,194.000481 L392.510467,194.000481 L392.510467,194.000679 L392.510467,194.000679 Z" id="Shape"></path>
        </g>
    </g>
</svg>