<?xml version="1.0" encoding="UTF-8" standalone="no"?>
<svg width="64px" height="64px" viewBox="0 0 64 64" version="1.1" xmlns="http://www.w3.org/2000/svg" xmlns:xlink="http://www.w3.org/1999/xlink">
    <!-- Generator: Sketch 3.8.3 (29802) - http://www.bohemiancoding.com/sketch -->
    <title>19</title>
    <desc>Created with Sketch.</desc>
    <defs>
        <linearGradient x1="50%" y1="0%" x2="50%" y2="97.7459343%" id="linearGradient-1">
            <stop stop-color="#EDEDED" stop-opacity="0.8" offset="0%"></stop>
            <stop stop-color="#EDEDED" stop-opacity="0.9" offset="100%"></stop>
        </linearGradient>
    </defs>
    <g id="天气图标" stroke="none" stroke-width="1" fill="none" fill-rule="evenodd">
        <g id="天气图标_黑色背景" transform="translate(-360.000000, -1684.000000)">
            <g id="Group-26" transform="translate(362.000000, 1686.000000)">
                <path d="M29.9965184,51.5308044 L25.9883056,47.5225916 L29.9965184,43.5143788 L34.0047313,47.5225916 L29.9965184,51.5308044 Z M21.9799535,60.0335894 L17.9717407,56.0253766 L21.9799535,52.0171637 L25.9881663,56.0253766 L21.9799535,60.0335894 Z M38.4993153,60.5200002 L34.4911025,56.5117874 L38.4993153,52.5035746 L42.5075281,56.5117874 L38.4993153,60.5200002 Z M10.399648,47.5219175 L14.4078608,43.5137047 L18.4160736,47.5219175 L14.4078608,51.5301303 L10.399648,47.5219175 Z M45.5851177,51.5308883 L41.5769049,47.5226755 L45.5851177,43.5144627 L49.5933305,47.5226755 L45.5851177,51.5308883 Z" id="Shape-Copy-3" fill="#9FD2FF"></path>
                <path d="M51.8338945,14.6050035 C51.8338945,6.5518468 45.1443399,0 36.9220275,0 C31.6871105,0 26.8587783,2.70600805 24.1753188,7.01981095 C22.5077109,5.90369524 20.5371552,5.30297366 18.4755757,5.30297366 C12.8917921,5.30297366 8.34972581,9.75180086 8.34972581,15.2205469 C8.34972581,15.8248141 8.40453774,16.423792 8.51404535,17.0112611 C3.71977441,18.7154852 0.48,23.1666374 0.48,28.2742531 C0.48,34.776403 5.74241014,39.68 12.7198001,39.68 L47.7596768,39.68 C54.5089259,39.68 60,34.3026845 60,27.6924802 C60.0001744,22.5584759 56.5770154,17.9716018 51.69794,16.3402083 C51.7681551,15.7637248 51.8338945,15.0962176 51.8338945,14.6050035 Z" id="Shape-Copy-7" fill="url(#linearGradient-1)"></path>
            </g>
        </g>
    </g>
</svg>