<?xml version="1.0" encoding="UTF-8" standalone="no"?>
<svg width="64px" height="64px" viewBox="0 0 64 64" version="1.1" xmlns="http://www.w3.org/2000/svg" xmlns:xlink="http://www.w3.org/1999/xlink">
    <!-- Generator: Sketch 3.8.3 (29802) - http://www.bohemiancoding.com/sketch -->
    <title>28</title>
    <desc>Created with Sketch.</desc>
    <defs></defs>
    <g id="天气图标" stroke="none" stroke-width="1" fill="none" fill-rule="evenodd">
        <g id="天气图标_黑色背景" transform="translate(-360.000000, -2481.000000)" fill="#E5C793">
            <path d="M363.125947,2505.82529 C361.953751,2505.82529 361,2506.76218 361,2507.92209 C361,2509.08199 361.953751,2510.01889 363.125947,2510.01889 C364.298143,2510.01889 365.251894,2509.08199 365.251894,2507.92209 C365.251894,2506.76218 364.298143,2505.82529 363.125947,2505.82529 L363.125947,2505.82529 L363.125947,2505.82529 Z M363.125947,2506.77913 C363.775118,2506.77913 364.298048,2507.29282 364.298048,2507.92209 C364.298048,2508.55135 363.775118,2509.06504 363.125947,2509.06504 C362.476776,2509.06504 361.953846,2508.55135 361.953846,2507.92209 C361.953846,2507.29282 362.476776,2506.77913 363.125947,2506.77913 L363.125947,2506.77913 L363.125947,2506.77913 Z M366.975568,2515.35325 C365.800397,2515.35325 364.843927,2516.28969 364.843927,2517.45005 C364.843927,2518.6103 365.800662,2519.54685 366.975568,2519.54685 C368.150473,2519.54685 369.107209,2518.6103 369.107209,2517.45005 C369.107209,2516.28969 368.150738,2515.35325 366.975568,2515.35325 L366.975568,2515.35325 L366.975568,2515.35325 Z M366.975568,2516.3071 C367.628409,2516.3071 368.153363,2516.82106 368.153363,2517.45005 C368.153363,2518.0789 367.628177,2518.59301 366.975568,2518.59301 C366.322958,2518.59301 365.797773,2518.0789 365.797773,2517.45005 C365.797773,2516.82106 366.322726,2516.3071 366.975568,2516.3071 L366.975568,2516.3071 L366.975568,2516.3071 Z M374.122857,2500.82429 C375.295381,2500.82429 376.248804,2499.88445 376.248804,2498.7219 C376.248804,2497.55935 375.295381,2496.6195 374.122857,2496.6195 C372.950332,2496.6195 371.99691,2497.55935 371.99691,2498.7219 C371.99691,2499.88471 372.950218,2500.82429 374.122857,2500.82429 L374.122857,2500.82429 L374.122857,2500.82429 Z M374.122857,2499.87045 C373.473942,2499.87045 372.950756,2499.35479 372.950756,2498.7219 C372.950756,2498.08923 373.474089,2497.57335 374.122857,2497.57335 C374.771624,2497.57335 375.294958,2498.08923 375.294958,2498.7219 C375.294958,2499.35456 374.771624,2499.87045 374.122857,2499.87045 L374.122857,2499.87045 L374.122857,2499.87045 Z M387.395013,2498.7219 C387.395013,2499.88471 388.348321,2500.82429 389.52096,2500.82429 C390.693484,2500.82429 391.646907,2499.88445 391.646907,2498.7219 C391.646907,2497.55935 390.693484,2496.6195 389.52096,2496.6195 C388.348435,2496.6195 387.395013,2497.55935 387.395013,2498.7219 L387.395013,2498.7219 L387.395013,2498.7219 Z M388.348859,2498.7219 C388.348859,2498.08923 388.872192,2497.57335 389.52096,2497.57335 C390.169727,2497.57335 390.693061,2498.08923 390.693061,2498.7219 C390.693061,2499.35456 390.169727,2499.87045 389.52096,2499.87045 C388.872045,2499.87045 388.348859,2499.35479 388.348859,2498.7219 L388.348859,2498.7219 L388.348859,2498.7219 Z M372.950756,2507.92209 C372.950756,2506.76218 371.997005,2505.82529 370.824809,2505.82529 C369.652613,2505.82529 368.698862,2506.76218 368.698862,2507.92209 C368.698862,2509.08199 369.652613,2510.01889 370.824809,2510.01889 C371.99727,2510.01889 372.950756,2509.0821 372.950756,2507.92209 L372.950756,2507.92209 L372.950756,2507.92209 Z M371.99691,2507.92209 C371.99691,2508.5515 371.474212,2509.06504 370.824809,2509.06504 C370.175638,2509.06504 369.652708,2508.55135 369.652708,2507.92209 C369.652708,2507.29282 370.175638,2506.77913 370.824809,2506.77913 C371.47398,2506.77913 371.99691,2507.29282 371.99691,2507.92209 L371.99691,2507.92209 L371.99691,2507.92209 Z M379.696151,2498.7219 C379.696151,2499.88471 380.649459,2500.82429 381.822098,2500.82429 C382.994623,2500.82429 383.948045,2499.88445 383.948045,2498.7219 C383.948045,2497.55935 382.994623,2496.6195 381.822098,2496.6195 C380.649308,2496.6195 379.696151,2497.55924 379.696151,2498.7219 L379.696151,2498.7219 L379.696151,2498.7219 Z M380.649997,2498.7219 C380.649997,2498.08909 381.173098,2497.57335 381.822098,2497.57335 C382.470866,2497.57335 382.994199,2498.08923 382.994199,2498.7219 C382.994199,2499.35456 382.470866,2499.87045 381.822098,2499.87045 C381.173183,2499.87045 380.649997,2499.35479 380.649997,2498.7219 L380.649997,2498.7219 L380.649997,2498.7219 Z M395.093874,2498.7219 C395.093874,2499.88505 396.050168,2500.82429 397.225516,2500.82429 C398.400748,2500.82429 399.357157,2499.88479 399.357157,2498.7219 C399.357157,2497.55901 398.400748,2496.6195 397.225516,2496.6195 C396.050283,2496.6195 395.093874,2497.55901 395.093874,2498.7219 L395.093874,2498.7219 L395.093874,2498.7219 Z M396.047721,2498.7219 C396.047721,2498.08965 396.573308,2497.57335 397.225516,2497.57335 C397.877723,2497.57335 398.403311,2498.08965 398.403311,2498.7219 C398.403311,2499.35415 397.877723,2499.87045 397.225516,2499.87045 C396.57316,2499.87045 396.047721,2499.35438 396.047721,2498.7219 L396.047721,2498.7219 L396.047721,2498.7219 Z M408.774378,2510.01889 C412.986534,2510.01889 416.404663,2506.65846 416.404663,2502.50944 C416.404663,2498.36017 412.986661,2495 408.774378,2495 C406.818692,2495 404.978354,2495.73293 403.571665,2497.02654 L403.202326,2497.3662 L403.560281,2497.71782 L403.606214,2497.76294 L403.940429,2497.42271 L403.658579,2497.03799 C403.119636,2497.43281 402.793495,2498.04977 402.793495,2498.72264 C402.793495,2499.8858 403.749789,2500.82504 404.925136,2500.82504 C405.640997,2500.82504 406.297956,2500.47366 406.691959,2499.89879 L406.603883,2499.99555 C407.212975,2499.48797 407.974132,2499.20516 408.780451,2499.20516 C410.644697,2499.20516 412.153149,2500.68907 412.153149,2502.51541 C412.153149,2504.16535 410.912539,2505.55699 409.259164,2505.78811 L408.848268,2505.84555 L408.848268,2506.26044 L408.848268,2506.30594 L409.325191,2506.30594 L409.325191,2505.82901 L384.575406,2505.82901 L377.978414,2505.82566 L377.501248,2505.82542 L377.501248,2506.30258 L377.501248,2506.40065 L377.978172,2506.40065 L377.822206,2505.94995 C376.977075,2506.24241 376.398103,2507.02524 376.398103,2507.92246 C376.398103,2508.81951 376.977262,2509.60239 377.822123,2509.89493 L377.978172,2509.44426 L377.501248,2509.44426 L377.501248,2509.54234 L377.501248,2510.01926 L377.978172,2510.01926 L408.228499,2510.01926 L408.265793,2510.0178 C408.344762,2510.01161 408.413985,2510.01156 408.580726,2510.01573 C408.673294,2510.01805 408.718269,2510.01889 408.774378,2510.01889 L408.774378,2510.01889 L408.774378,2510.01889 Z M408.774378,2509.06504 C408.728814,2509.06504 408.693032,2509.06437 408.604555,2509.06218 C408.404914,2509.05719 408.31392,2509.05725 408.191225,2509.06687 L408.191214,2509.06687 L377.978172,2509.06541 L377.978172,2509.54234 L378.455095,2509.54234 L378.455095,2509.44426 L378.455095,2509.1047 L378.13422,2508.99359 C377.667079,2508.83184 377.351949,2508.40586 377.351949,2507.92246 C377.351949,2507.43887 377.666883,2507.01305 378.134137,2506.85135 L378.455095,2506.74029 L378.455095,2506.40065 L378.455095,2506.30258 L377.978172,2506.30258 L377.977929,2506.7795 L384.575164,2506.78286 L409.325191,2506.78286 L409.802114,2506.78286 L409.802114,2506.30594 L409.802114,2506.26044 L409.325191,2506.26044 L409.391218,2506.73277 C411.510968,2506.43645 413.106995,2504.64613 413.106995,2502.51541 C413.106995,2500.15874 411.168021,2498.25131 408.780451,2498.25131 C407.748102,2498.25131 406.771637,2498.61412 405.993245,2499.26278 L405.905169,2499.35954 C405.687785,2499.67672 405.324185,2499.87119 404.925136,2499.87119 C404.272781,2499.87119 403.747341,2499.35512 403.747341,2498.72264 C403.747341,2498.36 403.923878,2498.02605 404.22228,2497.80744 L404.67501,2497.47577 L404.274645,2497.08249 L404.228712,2497.03737 L403.894496,2497.37759 L404.217328,2497.72864 C405.449747,2496.59529 407.06037,2495.95385 408.774378,2495.95385 C412.463475,2495.95385 415.450817,2498.89065 415.450817,2502.50944 C415.450817,2506.128 412.46334,2509.06504 408.774378,2509.06504 L408.774378,2509.06504 L408.774378,2509.06504 Z M388.429582,2525.0837 C387.257057,2525.0837 386.303635,2526.02355 386.303635,2527.1861 C386.303635,2528.34865 387.257057,2529.28849 388.429582,2529.28849 C389.602107,2529.28849 390.555529,2528.34865 390.555529,2527.1861 C390.555529,2526.02355 389.602107,2525.0837 388.429582,2525.0837 L388.429582,2525.0837 L388.429582,2525.0837 Z M388.429582,2526.03755 C389.07835,2526.03755 389.601683,2526.55343 389.601683,2527.1861 C389.601683,2527.81876 389.07835,2528.33465 388.429582,2528.33465 C387.780814,2528.33465 387.257481,2527.81876 387.257481,2527.1861 C387.257481,2526.55343 387.780814,2526.03755 388.429582,2526.03755 L388.429582,2526.03755 L388.429582,2526.03755 Z M403.827306,2525.0837 C402.654781,2525.0837 401.701359,2526.02355 401.701359,2527.1861 C401.701359,2528.34865 402.654781,2529.28849 403.827306,2529.28849 C404.99983,2529.28849 405.953253,2528.34865 405.953253,2527.1861 C405.953253,2526.02355 404.99983,2525.0837 403.827306,2525.0837 L403.827306,2525.0837 L403.827306,2525.0837 Z M403.827306,2526.03755 C404.476073,2526.03755 404.999407,2526.55343 404.999407,2527.1861 C404.999407,2527.81876 404.476073,2528.33465 403.827306,2528.33465 C403.178538,2528.33465 402.655205,2527.81876 402.655205,2527.1861 C402.655205,2526.55343 403.178538,2526.03755 403.827306,2526.03755 L403.827306,2526.03755 L403.827306,2526.03755 Z M396.128444,2525.0837 C394.955919,2525.0837 394.002497,2526.02355 394.002497,2527.1861 C394.002497,2528.34865 394.955919,2529.28849 396.128444,2529.28849 C397.300969,2529.28849 398.254391,2528.34865 398.254391,2527.1861 C398.254391,2526.02355 397.300969,2525.0837 396.128444,2525.0837 L396.128444,2525.0837 L396.128444,2525.0837 Z M396.128444,2526.03755 C396.777212,2526.03755 397.300545,2526.55343 397.300545,2527.1861 C397.300545,2527.81876 396.777212,2528.33465 396.128444,2528.33465 C395.479676,2528.33465 394.956343,2527.81876 394.956343,2527.1861 C394.956343,2526.55343 395.479676,2526.03755 396.128444,2526.03755 L396.128444,2526.03755 L396.128444,2526.03755 Z M373.025405,2525.0837 C371.849908,2525.0837 370.893764,2526.0231 370.893764,2527.1861 C370.893764,2528.34899 371.850173,2529.28849 373.025405,2529.28849 C374.200638,2529.28849 375.157047,2528.34899 375.157047,2527.1861 C375.157047,2526.0231 374.200903,2525.0837 373.025405,2525.0837 L373.025405,2525.0837 L373.025405,2525.0837 Z M373.025405,2526.03755 C373.677845,2526.03755 374.2032,2526.5537 374.2032,2527.1861 C374.2032,2527.81835 373.677613,2528.33465 373.025405,2528.33465 C372.373198,2528.33465 371.84761,2527.81835 371.84761,2527.1861 C371.84761,2526.5537 372.372966,2526.03755 373.025405,2526.03755 L373.025405,2526.03755 L373.025405,2526.03755 Z M414.824752,2515.38048 L390.624642,2515.35325 L390.147182,2515.35272 L390.147182,2515.83018 L390.147182,2515.92825 L390.624105,2515.92825 L390.77987,2515.47748 C390.546204,2515.39674 390.314988,2515.35325 390.078227,2515.35325 C388.906031,2515.35325 387.952279,2516.29015 387.952279,2517.45005 C387.952279,2518.60996 388.906031,2519.54685 390.078227,2519.54685 C390.315567,2519.54685 390.546986,2519.50343 390.780435,2519.42243 L390.624105,2518.97186 L390.147182,2518.97186 L390.147182,2519.06993 L390.147182,2519.54685 L390.624105,2519.54685 L391.175298,2519.54685 L415.924833,2519.54014 L415.924703,2519.06322 L415.44778,2519.06322 L415.44778,2519.11281 L415.44778,2519.52732 L415.85824,2519.58508 C417.509858,2519.81752 418.748486,2521.20844 418.748486,2522.8571 C418.748486,2524.68358 417.240275,2526.16735 415.375788,2526.16735 C414.569992,2526.16735 413.810178,2525.88726 413.205702,2525.38451 L413.295996,2525.4843 C412.903938,2524.90364 412.245451,2524.54747 411.526547,2524.54747 C410.354351,2524.54747 409.4006,2525.48437 409.4006,2526.64427 C409.4006,2527.34459 409.752327,2527.98564 410.3264,2528.37365 L410.593467,2527.97851 L410.259251,2527.63828 L410.205347,2527.69123 L409.845258,2528.04496 L410.21882,2528.38442 C411.616587,2529.65461 413.43915,2530.37214 415.375788,2530.37214 C419.584638,2530.37214 423,2527.01161 423,2522.8627 C423,2518.71379 419.584638,2515.35325 415.375788,2515.35325 C415.209028,2515.35325 415.081745,2515.36024 414.803635,2515.3807 C414.796437,2515.38123 414.796437,2515.38123 414.789255,2515.38176 L414.789246,2515.38176 L414.824752,2515.38048 L414.824752,2515.38048 Z M414.859185,2516.33304 L414.859194,2516.33304 C414.866418,2516.33251 414.866418,2516.33251 414.873624,2516.33198 C415.128606,2516.31322 415.240044,2516.3071 415.375788,2516.3071 C419.061267,2516.3071 422.046154,2519.24407 422.046154,2522.8627 C422.046154,2526.48132 419.061267,2529.41829 415.375788,2529.41829 C413.678528,2529.41829 412.084059,2528.79056 410.860304,2527.6785 L410.539562,2528.03146 L410.873777,2528.37169 L410.927682,2528.31874 L411.343779,2527.91 L410.860533,2527.58338 C410.544987,2527.3701 410.354446,2527.02283 410.354446,2526.64427 C410.354446,2526.01501 410.877376,2525.50132 411.526547,2525.50132 C411.925848,2525.50132 412.289314,2525.69791 412.505471,2526.01806 L412.595766,2526.11785 C413.369956,2526.76176 414.345007,2527.1212 415.375788,2527.1212 C417.763613,2527.1212 419.702332,2525.21389 419.702332,2522.8571 C419.702332,2520.72802 418.108798,2518.93856 415.991167,2518.64055 L415.924703,2519.11281 L416.401626,2519.11281 L416.401626,2519.06322 L416.401626,2518.58617 L415.924574,2518.5863 L391.175169,2518.59301 L390.624105,2518.59301 L390.624105,2519.06993 L391.101028,2519.06993 L391.101028,2518.97186 L391.101028,2518.30157 L390.467775,2518.52129 C390.329933,2518.56911 390.202578,2518.59301 390.078227,2518.59301 C389.429056,2518.59301 388.906126,2518.07932 388.906126,2517.45005 C388.906126,2516.82079 389.429056,2516.3071 390.078227,2516.3071 C390.202004,2516.3071 390.32972,2516.33112 390.468341,2516.37902 L391.101028,2516.59765 L391.101028,2515.92825 L391.101028,2515.83018 L390.624105,2515.83018 L390.623569,2516.3071 L414.823679,2516.33432 L414.859185,2516.33304 L414.859185,2516.33304 Z M374.680503,2515.35325 C373.508307,2515.35325 372.554556,2516.29015 372.554556,2517.45005 C372.554556,2518.60996 373.508307,2519.54685 374.680503,2519.54685 C375.852699,2519.54685 376.80645,2518.60996 376.80645,2517.45005 C376.80645,2516.29015 375.852699,2515.35325 374.680503,2515.35325 L374.680503,2515.35325 L374.680503,2515.35325 Z M374.680503,2516.3071 C375.329674,2516.3071 375.852604,2516.82079 375.852604,2517.45005 C375.852604,2518.07932 375.329674,2518.59301 374.680503,2518.59301 C374.031332,2518.59301 373.508402,2518.07932 373.508402,2517.45005 C373.508402,2516.82079 374.031332,2516.3071 374.680503,2516.3071 L374.680503,2516.3071 L374.680503,2516.3071 Z M382.379365,2515.35325 C381.207169,2515.35325 380.253418,2516.29015 380.253418,2517.45005 C380.253418,2518.60996 381.207169,2519.54685 382.379365,2519.54685 C383.551561,2519.54685 384.505312,2518.60996 384.505312,2517.45005 C384.505312,2516.29015 383.551561,2515.35325 382.379365,2515.35325 L382.379365,2515.35325 L382.379365,2515.35325 Z M382.379365,2516.3071 C383.028536,2516.3071 383.551466,2516.82079 383.551466,2517.45005 C383.551466,2518.07932 383.028536,2518.59301 382.379365,2518.59301 C381.730194,2518.59301 381.207264,2518.07932 381.207264,2517.45005 C381.207264,2516.82079 381.730194,2516.3071 382.379365,2516.3071 L382.379365,2516.3071 L382.379365,2516.3071 Z M380.724647,2525.0837 C379.549149,2525.0837 378.593006,2526.0231 378.593006,2527.1861 C378.593006,2528.34899 379.549414,2529.28849 380.724647,2529.28849 C381.899879,2529.28849 382.856288,2528.34899 382.856288,2527.1861 C382.856288,2526.02321 381.899879,2525.0837 380.724647,2525.0837 L380.724647,2525.0837 L380.724647,2525.0837 Z M363.125947,2506.30221 C362.215264,2506.30221 361.476923,2507.0275 361.476923,2507.92209 C361.476923,2508.81667 362.215264,2509.54196 363.125947,2509.54196 C364.03663,2509.54196 364.774971,2508.81667 364.774971,2507.92209 C364.774971,2507.0275 364.03663,2506.30221 363.125947,2506.30221 L363.125947,2506.30221 Z M366.975568,2515.83018 C366.061468,2515.83018 365.32085,2516.55547 365.32085,2517.45005 C365.32085,2518.34464 366.061847,2519.06993 366.975568,2519.06993 C367.889288,2519.06993 368.630286,2518.34464 368.630286,2517.45005 C368.630286,2516.55547 367.889668,2515.83018 366.975568,2515.83018 L366.975568,2515.83018 Z M374.122857,2500.34737 C375.03354,2500.34737 375.771881,2499.61947 375.771881,2498.7219 C375.771881,2497.82433 375.03354,2497.09643 374.122857,2497.09643 C373.212173,2497.09643 372.473833,2497.82433 372.473833,2498.7219 C372.473833,2499.61984 373.212173,2500.34737 374.122857,2500.34737 L374.122857,2500.34737 Z M387.871936,2498.7219 C387.871936,2499.61984 388.610276,2500.34737 389.52096,2500.34737 C390.431643,2500.34737 391.169984,2499.61947 391.169984,2498.7219 C391.169984,2497.82433 390.431643,2497.09643 389.52096,2497.09643 C388.610276,2497.09643 387.871936,2497.82433 387.871936,2498.7219 L387.871936,2498.7219 Z M372.473833,2507.92209 C372.473833,2507.0275 371.735492,2506.30221 370.824809,2506.30221 C369.914125,2506.30221 369.175785,2507.0275 369.175785,2507.92209 C369.175785,2508.81667 369.914125,2509.54196 370.824809,2509.54196 C371.735872,2509.54196 372.473833,2508.81667 372.473833,2507.92209 L372.473833,2507.92209 Z M380.173074,2498.7219 C380.173074,2499.61984 380.911415,2500.34737 381.822098,2500.34737 C382.732781,2500.34737 383.471122,2499.61947 383.471122,2498.7219 C383.471122,2497.82433 382.732781,2497.09643 381.822098,2497.09643 C380.911035,2497.09643 380.173074,2497.82433 380.173074,2498.7219 L380.173074,2498.7219 Z M395.570797,2498.7219 C395.570797,2499.61984 396.311795,2500.34737 397.225516,2500.34737 C398.139236,2500.34737 398.880234,2499.61947 398.880234,2498.7219 C398.880234,2497.82433 398.139236,2497.09643 397.225516,2497.09643 C396.311795,2497.09643 395.570797,2497.82433 395.570797,2498.7219 L395.570797,2498.7219 Z M415.92774,2502.50944 C415.92774,2498.62532 412.724974,2495.47692 408.774378,2495.47692 C406.88582,2495.47692 405.173022,2496.20184 403.894496,2497.37759 L403.940429,2497.42271 C403.535765,2497.71917 403.270418,2498.18865 403.270418,2498.72264 C403.270418,2499.62059 404.011416,2500.34811 404.925136,2500.34811 C405.497208,2500.34811 406.00133,2500.06285 406.298564,2499.62916 C406.969334,2499.07019 407.832566,2498.72824 408.780451,2498.72824 C410.906265,2498.72824 412.630072,2500.42381 412.630072,2502.51541 C412.630072,2504.42466 411.192491,2505.99941 409.325191,2506.26044 L409.325191,2506.30594 L384.575406,2506.30594 L377.978172,2506.30258 L377.978172,2506.40065 C377.337011,2506.62253 376.875026,2507.21693 376.875026,2507.92246 C376.875026,2508.62799 377.337391,2509.22239 377.978172,2509.44426 L377.978172,2509.54234 L408.228499,2509.54234 C408.409193,2509.52817 408.589887,2509.54196 408.774378,2509.54196 C412.724974,2509.54196 415.92774,2506.3932 415.92774,2502.50944 L415.92774,2502.50944 Z M388.429582,2525.56063 C387.518899,2525.56063 386.780558,2526.28853 386.780558,2527.1861 C386.780558,2528.08367 387.518899,2528.81157 388.429582,2528.81157 C389.340266,2528.81157 390.078606,2528.08367 390.078606,2527.1861 C390.078606,2526.28853 389.340266,2525.56063 388.429582,2525.56063 L388.429582,2525.56063 Z M403.827306,2525.56063 C402.916622,2525.56063 402.178282,2526.28853 402.178282,2527.1861 C402.178282,2528.08367 402.916622,2528.81157 403.827306,2528.81157 C404.737989,2528.81157 405.47633,2528.08367 405.47633,2527.1861 C405.47633,2526.28853 404.737989,2525.56063 403.827306,2525.56063 L403.827306,2525.56063 Z M396.128444,2525.56063 C395.217761,2525.56063 394.47942,2526.28853 394.47942,2527.1861 C394.47942,2528.08367 395.217761,2528.81157 396.128444,2528.81157 C397.039127,2528.81157 397.777468,2528.08367 397.777468,2527.1861 C397.777468,2526.28853 397.039127,2525.56063 396.128444,2525.56063 L396.128444,2525.56063 Z M373.025405,2525.56063 C372.111306,2525.56063 371.370687,2526.28853 371.370687,2527.1861 C371.370687,2528.08367 372.111685,2528.81157 373.025405,2528.81157 C373.939126,2528.81157 374.680124,2528.08367 374.680124,2527.1861 C374.680124,2526.28853 373.939505,2525.56063 373.025405,2525.56063 L373.025405,2525.56063 Z M414.824215,2515.8574 L390.624105,2515.83018 L390.624105,2515.92825 C390.452522,2515.86896 390.270689,2515.83018 390.078227,2515.83018 C389.167543,2515.83018 388.429203,2516.55547 388.429203,2517.45005 C388.429203,2518.34464 389.167543,2519.06993 390.078227,2519.06993 C390.270689,2519.06993 390.452142,2519.03152 390.624105,2518.97186 L390.624105,2519.06993 L391.175298,2519.06993 L415.924703,2519.06322 L415.924703,2519.11281 C417.790105,2519.37534 419.225409,2520.94935 419.225409,2522.8571 C419.225409,2524.9487 417.501981,2526.64427 415.375788,2526.64427 C414.431319,2526.64427 413.569226,2526.30717 412.900734,2525.75118 C412.605397,2525.31377 412.100896,2525.0244 411.526547,2525.0244 C410.615864,2525.0244 409.877523,2525.74969 409.877523,2526.64427 C409.877523,2527.1984 410.161471,2527.68653 410.593467,2527.97851 L410.539562,2528.03146 C411.811254,2529.18708 413.507729,2529.89522 415.375788,2529.89522 C419.322968,2529.89522 422.523077,2526.74645 422.523077,2522.8627 C422.523077,2518.97894 419.322968,2515.83018 415.375788,2515.83018 C415.1894,2515.83018 415.006807,2515.84397 414.824215,2515.8574 L414.824215,2515.8574 Z M374.680503,2515.83018 C373.76982,2515.83018 373.031479,2516.55547 373.031479,2517.45005 C373.031479,2518.34464 373.76982,2519.06993 374.680503,2519.06993 C375.591187,2519.06993 376.329527,2518.34464 376.329527,2517.45005 C376.329527,2516.55547 375.591187,2515.83018 374.680503,2515.83018 L374.680503,2515.83018 Z M382.379365,2515.83018 C381.468681,2515.83018 380.730341,2516.55547 380.730341,2517.45005 C380.730341,2518.34464 381.468681,2519.06993 382.379365,2519.06993 C383.290048,2519.06993 384.028389,2518.34464 384.028389,2517.45005 C384.028389,2516.55547 383.290048,2515.83018 382.379365,2515.83018 L382.379365,2515.83018 Z M380.724647,2525.56063 C379.810547,2525.56063 379.069929,2526.28853 379.069929,2527.1861 C379.069929,2528.08367 379.810927,2528.81157 380.724647,2528.81157 C381.638367,2528.81157 382.379365,2528.08367 382.379365,2527.1861 C382.379365,2526.28853 381.638367,2525.56063 380.724647,2525.56063 L380.724647,2525.56063 Z" id="Combined-Shape"></path>
        </g>
    </g>
</svg>