<?xml version="1.0" encoding="UTF-8" standalone="no"?>
<svg width="64px" height="64px" viewBox="0 0 64 64" version="1.1" xmlns="http://www.w3.org/2000/svg" xmlns:xlink="http://www.w3.org/1999/xlink">
    <!-- Generator: Sketch 3.8.3 (29802) - http://www.bohemiancoding.com/sketch -->
    <title>34</title>
    <desc>Created with Sketch.</desc>
    <defs></defs>
    <g id="天气图标" stroke="none" stroke-width="1" fill="none" fill-rule="evenodd">
        <g id="天气图标_黑色背景" transform="translate(-360.000000, -2982.000000)" fill="#B5B5B5">
            <path d="M393.336211,3039.69195 L387.960737,3039.69195 C387.318737,3039.69195 386.793928,3040.23969 386.793928,3040.91226 L386.793928,3042.30326 C386.793928,3042.97583 387.318737,3043.52102 387.960737,3043.52102 L393.336211,3043.52102 C393.978211,3043.52102 394.500473,3042.97583 394.500473,3042.30326 L394.500473,3040.91226 C394.500473,3040.23969 393.978211,3039.69195 393.336211,3039.69195 Z M411.348635,3021.12949 L386.580693,3021.12949 C385.938693,3021.12949 385.416431,3021.67468 385.416431,3022.34726 L385.416431,3023.73826 C385.416431,3024.41083 385.938693,3024.95856 386.580693,3024.95856 L411.348635,3024.95856 C411.990635,3024.95856 412.512896,3024.41083 412.512896,3023.73826 L412.512896,3022.34726 C412.512896,3021.67468 411.990635,3021.12949 411.348635,3021.12949 Z M363.156619,2988.46343 L363.161714,2987.82907 L420.355739,2987.82907 C420.997738,2987.82907 421.52,2987.28388 421.52,2986.61131 L421.52,2985.21776 C421.52,2984.54519 420.997738,2984 420.355739,2984 L363.164261,2984 C362.522262,2984 362,2984.54519 362,2985.21776 L362,2986.61131 C362,2986.93995 362.122286,2987.24821 362.346476,2987.48005 C362.563024,2987.70424 362.850904,2987.82907 363.156619,2987.82907 L363.156619,2988.46343 Z M402.342296,3030.40945 L388.381349,3030.40945 C387.739349,3030.40945 387.217088,3030.95464 387.217088,3031.62721 L387.217088,3033.01821 C387.217088,3033.69078 387.739349,3034.23852 388.381349,3034.23852 L402.342296,3034.23852 C402.984296,3034.23852 403.506557,3033.69078 403.506557,3033.01821 L403.506557,3031.62721 C403.506557,3030.95464 402.984296,3030.40945 402.342296,3030.40945 Z M420.36491,3011.8498 L377.575118,3011.8498 C376.93057,3011.8498 376.408309,3012.39499 376.408309,3013.06756 L376.408309,3014.45346 C376.408309,3015.12603 376.93057,3015.67377 377.575118,3015.67377 L420.35472,3015.67377 C420.996719,3015.67377 421.518981,3015.12603 421.518981,3014.45346 L421.518981,3013.06756 C421.518981,3012.39499 421.001814,3011.8498 420.36491,3011.8498 Z M366.76532,3006.39382 L409.547469,3006.39382 C410.189469,3006.39382 410.711731,3005.84608 410.711731,3005.17351 L410.711731,3003.78251 C410.711731,3003.10994 410.189469,3002.56475 409.547469,3002.56475 L366.76532,3002.56475 C366.12332,3002.56475 365.59851,3003.10994 365.59851,3003.78251 L365.59851,3005.17351 C365.59851,3005.84608 366.12332,3006.39382 366.76532,3006.39382 Z M420.36491,2993.28479 L372.17162,2993.28479 C371.52962,2993.28479 371.004811,2993.82998 371.004811,2994.50256 L371.004811,2995.89101 C371.004811,2996.56358 371.52962,2997.10877 372.17162,2997.10877 L420.35472,2997.10877 C420.996719,2997.10877 421.518981,2996.56358 421.518981,2995.89101 L421.518981,2994.50256 C421.518981,2993.82998 421.001814,2993.28479 420.36491,2993.28479 Z" id="Combined-Shape"></path>
        </g>
    </g>
</svg>