<?xml version="1.0" encoding="UTF-8" standalone="no"?>
<svg width="64px" height="64px" viewBox="0 0 64 64" version="1.1" xmlns="http://www.w3.org/2000/svg" xmlns:xlink="http://www.w3.org/1999/xlink">
    <!-- Generator: Sketch 3.8.3 (29802) - http://www.bohemiancoding.com/sketch -->
    <title>36</title>
    <desc>Created with Sketch.</desc>
    <defs>
        <linearGradient x1="1.12703284%" y1="48.8729672%" x2="98.8729672%" y2="48.8729672%" id="linearGradient-1">
            <stop stop-color="#B5B5B5" stop-opacity="0.5" offset="0%"></stop>
            <stop stop-color="#B5B5B5" stop-opacity="0.9" offset="49.6631856%"></stop>
            <stop stop-color="#B5B5B5" stop-opacity="0.5" offset="100%"></stop>
        </linearGradient>
    </defs>
    <g id="天气图标" stroke="none" stroke-width="1" fill="none" fill-rule="evenodd">
        <g id="天气图标_黑色背景" transform="translate(-360.000000, -3175.000000)" fill="url(#linearGradient-1)">
            <path d="M391.595524,3178 C375.250233,3178 362,3183.5003 362,3190.28493 C362,3197.06957 375.250233,3202.56987 391.595524,3202.56987 C407.940816,3202.56987 421.191049,3197.06957 421.191049,3190.28493 C421.191049,3183.5003 407.940816,3178 391.595524,3178 L391.595524,3178 Z M375.029476,3194.00764 C375.029476,3191.48886 382.550462,3189.44733 391.828193,3189.44733 C401.105925,3189.44733 408.626911,3191.48886 408.626911,3194.00764 C408.626911,3195.56671 405.742929,3196.94262 401.34604,3197.76497 C398.291186,3198.15995 395.00813,3198.38182 391.669606,3198.38182 C388.726061,3198.38182 385.835379,3198.21318 383.110357,3197.90643 C378.265253,3197.10642 375.029476,3195.65978 375.029476,3194.00764 L375.029476,3194.00764 Z M411.72532,3195.44796 C411.955756,3194.98113 412.081211,3194.50016 412.081211,3194.00764 C412.081211,3189.74142 403.036893,3186.28302 391.879939,3186.28302 C380.722985,3186.28302 371.678667,3189.74142 371.678667,3194.00764 C371.678667,3194.5627 371.835021,3195.10398 372.126137,3195.6259 C367.501789,3194.06423 364.78868,3191.99217 365.498228,3189.8196 C366.653012,3186.28302 377.21545,3181.25737 391.669234,3181.25737 C406.123018,3181.25737 416.258089,3185.72462 417.84024,3189.8196 C418.639133,3191.88607 416.117371,3193.89559 411.72532,3195.44796 L411.72532,3195.44796 Z M415.445794,3201.80969 C415.14835,3201.80969 414.872869,3201.89866 414.639083,3202.0472 L414.631266,3202.03454 C409.668524,3205.50411 401.334127,3207.78166 391.88329,3207.78166 C382.454044,3207.78166 374.13826,3205.51341 369.171796,3202.05725 C368.894826,3201.7196 368.479372,3201.49959 368.00845,3201.49959 C367.174191,3201.49959 366.497775,3202.17601 366.497775,3203.01027 C366.497775,3203.26453 366.566645,3203.50055 366.677582,3203.71051 L366.66083,3203.72279 C366.677954,3203.74141 366.69694,3203.75965 366.714064,3203.77789 C366.841753,3203.99232 367.018954,3204.17138 367.232638,3204.30018 C371.753494,3208.62523 381.089299,3211.59743 391.883662,3211.59743 C402.400683,3211.59743 411.538813,3208.77786 416.183263,3204.63262 L416.182518,3204.6315 C416.642272,3204.3724 416.956097,3203.88547 416.956097,3203.32037 C416.956469,3202.48611 416.280053,3201.80969 415.445794,3201.80969 L415.445794,3201.80969 Z M405.940605,3213.57196 C405.760426,3213.57196 405.589182,3213.60881 405.430967,3213.67098 L405.425755,3213.66093 C405.401929,3213.67657 405.374754,3213.69109 405.350556,3213.70635 C405.262328,3213.74767 405.180428,3213.79793 405.103368,3213.856 C402.160196,3215.62243 397.234309,3216.78354 391.641686,3216.78354 C385.987265,3216.78354 381.010378,3215.59786 378.07949,3213.7983 C377.945845,3213.66242 377.78279,3213.55781 377.601495,3213.48857 C377.596655,3213.48522 377.590699,3213.48187 377.585859,3213.47852 L377.582881,3213.48299 C377.440301,3213.43124 377.288787,3213.39811 377.128339,3213.39811 C376.391242,3213.39811 375.79412,3213.9956 375.79412,3214.73233 C375.79412,3215.08673 375.934838,3215.40688 376.160435,3215.64588 L376.152989,3215.65705 C378.32035,3218.32735 384.433407,3220.25236 391.641686,3220.25236 C398.389838,3220.25236 404.17902,3218.56523 406.669139,3216.15887 C407.069702,3215.9128 407.339226,3215.47463 407.339226,3214.97021 C407.339599,3214.19812 406.713067,3213.57196 405.940605,3213.57196 L405.940605,3213.57196 Z M398.266244,3223.16314 C397.602485,3223.16314 397.0344,3223.55217 396.763015,3224.11169 L396.748868,3224.10238 L392.410053,3230.57915 L388.270774,3224.05883 L388.259978,3224.06553 C387.972213,3223.557 387.433165,3223.21005 386.807378,3223.21005 C385.881913,3223.21005 385.131787,3223.96017 385.131787,3224.88564 C385.131787,3225.24711 385.249053,3225.57992 385.44375,3225.85354 L385.441889,3225.85466 L390.372243,3233.62097 L390.368892,3233.62581 L390.637299,3234.04871 L390.648468,3234.05616 L391.693432,3235.70197 L391.700132,3235.6975 C391.824471,3235.93426 392.069797,3236.09732 392.355701,3236.09732 C392.659102,3236.09732 392.918947,3235.9149 393.034723,3235.65431 L393.039935,3235.65767 L393.98513,3234.24639 L393.999276,3234.23745 L394.375642,3233.67532 L394.37192,3233.66937 L399.531964,3225.96671 L399.509256,3225.95145 C399.775057,3225.65512 399.94109,3225.26759 399.94109,3224.83799 C399.941834,3223.91327 399.191709,3223.16314 398.266244,3223.16314 L398.266244,3223.16314 Z" id="Shape"></path>
        </g>
    </g>
</svg>