<?xml version="1.0" encoding="UTF-8" standalone="no"?>
<svg width="64px" height="64px" viewBox="0 0 64 64" version="1.1" xmlns="http://www.w3.org/2000/svg" xmlns:xlink="http://www.w3.org/1999/xlink">
    <!-- Generator: Sketch 3.8.3 (29802) - http://www.bohemiancoding.com/sketch -->
    <title>99</title>
    <desc>Created with Sketch.</desc>
    <defs></defs>
    <g id="天气图标" stroke="none" stroke-width="1" fill="none" fill-rule="evenodd">
        <g id="天气图标_黑色背景" transform="translate(-360.000000, -3465.000000)" fill="#7D7D7D">
            <path d="M380.193548,3505.03226 L380.258065,3505.03226 L380.258065,3485.58065 L382.580645,3485.58065 L382.580645,3508.41935 L379.677419,3508.41935 L366.387097,3488.77419 L366.322581,3488.77419 L366.322581,3508.41935 L364,3508.41935 L364,3485.58065 L366.903226,3485.58065 L380.193548,3505.03226 Z M387.645161,3509 L385.774194,3508.3871 L395.548387,3485 L397.387097,3485.64516 L387.645161,3509 Z M400.419355,3508.41935 L397.870968,3508.41935 L407.741935,3485.58065 L410,3485.58065 L419.806452,3508.41935 L417.225806,3508.41935 L414.709677,3502.41935 L402.903226,3502.41935 L400.419355,3508.41935 Z M403.774194,3500.29032 L413.83871,3500.29032 L408.806452,3488.16129 L403.774194,3500.29032 Z" id="N/A"></path>
        </g>
    </g>
</svg>