<?xml version="1.0" encoding="UTF-8" standalone="no"?>
<svg width="64px" height="64px" viewBox="0 0 64 64" version="1.1" xmlns="http://www.w3.org/2000/svg" xmlns:xlink="http://www.w3.org/1999/xlink">
    <!-- Generator: Sketch 3.8.3 (29802) - http://www.bohemiancoding.com/sketch -->
    <title>23</title>
    <desc>Created with Sketch.</desc>
    <defs>
        <linearGradient x1="50%" y1="0%" x2="50%" y2="97.7459343%" id="linearGradient-1">
            <stop stop-color="#FFFFFF" stop-opacity="0.8" offset="0%"></stop>
            <stop stop-color="#FFFFFF" stop-opacity="0.9" offset="100%"></stop>
        </linearGradient>
    </defs>
    <g id="天气图标" stroke="none" stroke-width="1" fill="none" fill-rule="evenodd">
        <g id="天气图标_默认背景" transform="translate(-364.000000, -2108.000000)">
            <g id="Group-32" transform="translate(366.000000, 2112.000000)">
                <path d="M19.2937175,49.8938517 L21.3380815,49.8938517 C22.145569,49.8938517 22.8,50.5484097 22.8,51.3557702 C22.8,52.1631305 22.145569,52.8176887 21.3380815,52.8176887 L19.2937175,52.8176887 L20.3158826,54.5881355 C20.7196263,55.2873139 20.4799989,56.1814995 19.7808205,56.5851161 C19.5506,56.7180873 19.2991501,56.7812675 19.0512596,56.7812675 C18.5459443,56.7812675 18.0546126,56.5191391 17.7838398,56.050054 L16.761641,54.2795488 L15.7394421,56.0500541 C15.4687966,56.5190121 14.9773376,56.7812675 14.4720224,56.7812675 C14.2240047,56.7812675 13.9726818,56.7180872 13.7424615,56.5851162 C13.0432831,56.1814996 12.8036555,55.2874411 13.2073993,54.5881356 L14.2295645,52.8176887 L12.1852004,52.8176887 C11.37784,52.8176887 10.7232818,52.1632577 10.7232818,51.3557702 C10.7232818,50.5484099 11.3778399,49.8938517 12.1852004,49.8938517 L14.2295646,49.8938517 L13.2073993,48.1234047 C12.8036556,47.4242263 13.0432831,46.5300407 13.7424615,46.126424 C14.441767,45.7226803 15.3358255,45.9623078 15.7394421,46.6614862 L16.761641,48.4319915 L17.7838398,46.6614863 C18.1874565,45.9623079 19.081515,45.7226803 19.7808205,46.1264242 C20.4799989,46.5301679 20.7196264,47.4242264 20.3158826,48.1234048 L19.2937175,49.8938517 Z" id="Shape-Copy-4" fill="#A8D8FF"></path>
                <path d="M34.1737175,49.8938517 L36.2180815,49.8938517 C37.025569,49.8938517 37.68,50.5484097 37.68,51.3557702 C37.68,52.1631305 37.025569,52.8176887 36.2180815,52.8176887 L34.1737175,52.8176887 L35.1958826,54.5881355 C35.5996263,55.2873139 35.3599989,56.1814995 34.6608205,56.5851161 C34.4306,56.7180873 34.1791501,56.7812675 33.9312596,56.7812675 C33.4259443,56.7812675 32.9346126,56.5191391 32.6638398,56.050054 L31.641641,54.2795488 L30.6194421,56.0500541 C30.3487966,56.5190121 29.8573376,56.7812675 29.3520224,56.7812675 C29.1040047,56.7812675 28.8526818,56.7180872 28.6224615,56.5851162 C27.9232831,56.1814996 27.6836555,55.2874411 28.0873993,54.5881356 L29.1095645,52.8176887 L27.0652004,52.8176887 C26.25784,52.8176887 25.6032818,52.1632577 25.6032818,51.3557702 C25.6032818,50.5484099 26.2578399,49.8938517 27.0652004,49.8938517 L29.1095646,49.8938517 L28.0873993,48.1234047 C27.6836556,47.4242263 27.9232831,46.5300407 28.6224615,46.126424 C29.321767,45.7226803 30.2158255,45.9623078 30.6194421,46.6614862 L31.641641,48.4319915 L32.6638398,46.6614863 C33.0674565,45.9623079 33.961515,45.7226803 34.6608205,46.1264242 C35.3599989,46.5301679 35.5996264,47.4242264 35.1958826,48.1234048 L34.1737175,49.8938517 Z" id="Shape-Copy-4" fill="#A8D8FF"></path>
                <path d="M49.0537175,49.8938517 L51.0980815,49.8938517 C51.905569,49.8938517 52.56,50.5484097 52.56,51.3557702 C52.56,52.1631305 51.905569,52.8176887 51.0980815,52.8176887 L49.0537175,52.8176887 L50.0758826,54.5881355 C50.4796263,55.2873139 50.2399989,56.1814995 49.5408205,56.5851161 C49.3106,56.7180873 49.0591501,56.7812675 48.8112596,56.7812675 C48.3059443,56.7812675 47.8146126,56.5191391 47.5438398,56.050054 L46.521641,54.2795488 L45.4994421,56.0500541 C45.2287966,56.5190121 44.7373376,56.7812675 44.2320224,56.7812675 C43.9840047,56.7812675 43.7326818,56.7180872 43.5024615,56.5851162 C42.8032831,56.1814996 42.5636555,55.2874411 42.9673993,54.5881356 L43.9895645,52.8176887 L41.9452004,52.8176887 C41.13784,52.8176887 40.4832818,52.1632577 40.4832818,51.3557702 C40.4832818,50.5484099 41.1378399,49.8938517 41.9452004,49.8938517 L43.9895646,49.8938517 L42.9673993,48.1234047 C42.5636556,47.4242263 42.8032831,46.5300407 43.5024615,46.126424 C44.201767,45.7226803 45.0958255,45.9623078 45.4994421,46.6614862 L46.521641,48.4319915 L47.5438398,46.6614863 C47.9474565,45.9623079 48.841515,45.7226803 49.5408205,46.1264242 C50.2399989,46.5301679 50.4796264,47.4242264 50.0758826,48.1234048 L49.0537175,49.8938517 Z" id="Shape-Copy-4" fill="#A8D8FF"></path>
                <path d="M51.8338945,14.6050035 C51.8338945,6.5518468 45.1443399,0 36.9220275,0 C31.6871105,0 26.8587783,2.70600805 24.1753188,7.01981095 C22.5077109,5.90369524 20.5371552,5.30297366 18.4755757,5.30297366 C12.8917921,5.30297366 8.34972581,9.75180086 8.34972581,15.2205469 C8.34972581,15.8248141 8.40453774,16.423792 8.51404535,17.0112611 C3.71977441,18.7154852 0.48,23.1666374 0.48,28.2742531 C0.48,34.776403 5.74241014,39.68 12.7198001,39.68 L47.7596768,39.68 C54.5089259,39.68 60,34.3026845 60,27.6924802 C60.0001744,22.5584759 56.5770154,17.9716018 51.69794,16.3402083 C51.7681551,15.7637248 51.8338945,15.0962176 51.8338945,14.6050035 Z" id="Shape-Copy-8" fill="url(#linearGradient-1)"></path>
            </g>
        </g>
    </g>
</svg>