<?xml version="1.0" encoding="UTF-8" standalone="no"?>
<svg width="64px" height="64px" viewBox="0 0 64 64" version="1.1" xmlns="http://www.w3.org/2000/svg" xmlns:xlink="http://www.w3.org/1999/xlink">
    <!-- Generator: Sketch 3.8.3 (29802) - http://www.bohemiancoding.com/sketch -->
    <title>30</title>
    <desc>Created with Sketch.</desc>
    <defs>
        <linearGradient x1="50%" y1="0%" x2="50%" y2="97.7459343%" id="linearGradient-1">
            <stop stop-color="#FFFFFF" stop-opacity="0.8" offset="0%"></stop>
            <stop stop-color="#FFFFFF" stop-opacity="0.9" offset="100%"></stop>
        </linearGradient>
    </defs>
    <g id="天气图标" stroke="none" stroke-width="1" fill="none" fill-rule="evenodd">
        <g id="天气图标_默认背景" transform="translate(-364.000000, -2694.000000)" fill="url(#linearGradient-1)">
            <path d="M419.696639,2718.75816 L423.0356,2718.75816 C420.57792,2713.35424 415.16656,2709.81032 409.17984,2709.81032 C408.25232,2709.81032 407.35208,2709.94424 406.59568,2710.07568 L405.94592,2710.18728 L405.626,2709.61192 C401.97544,2703.06472 395.07608,2699 387.61376,2699 C376.548,2699 367.48856,2707.78168 367,2718.75816 L370.160887,2718.75816 L370.167469,2718.82665 L419.738758,2718.82665 L419.696639,2718.75816 Z M422.67848,2747.89766 L368.76576,2747.89766 C367.79112,2747.89766 367,2748.69126 367,2749.67086 C367,2750.64798 367.79112,2751.44406 368.76576,2751.44406 L422.67848,2751.44406 C423.65064,2751.44406 424.44176,2750.64798 424.44176,2749.67086 C424.44176,2748.69126 423.65064,2747.89766 422.67848,2747.89766 Z M422.67848,2726.28 L368.76576,2726.28 C367.79112,2726.28 367,2727.07608 367,2728.0532 C367,2729.03032 367.79112,2729.8264 368.76576,2729.8264 L422.67848,2729.8264 C423.65064,2729.8264 424.44176,2729.03032 424.44176,2728.0532 C424.44176,2727.07608 423.65064,2726.28 422.67848,2726.28 Z M422.67848,2737.08883 L368.76576,2737.08883 C367.79112,2737.08883 367,2737.88243 367,2738.86203 C367,2739.83915 367.79112,2740.63523 368.76576,2740.63523 L422.67848,2740.63523 C423.65064,2740.63523 424.44176,2739.83915 424.44176,2738.86203 C424.44176,2737.88243 423.65064,2737.08883 422.67848,2737.08883 Z" id="Combined-Shape"></path>
        </g>
    </g>
</svg>