<?xml version="1.0" encoding="UTF-8" standalone="no"?>
<svg width="64px" height="64px" viewBox="0 0 64 64" version="1.1" xmlns="http://www.w3.org/2000/svg" xmlns:xlink="http://www.w3.org/1999/xlink">
    <!-- Generator: Sketch 3.8.3 (29802) - http://www.bohemiancoding.com/sketch -->
    <title>34</title>
    <desc>Created with Sketch.</desc>
    <defs></defs>
    <g id="天气图标" stroke="none" stroke-width="1" fill="none" fill-rule="evenodd">
        <g id="天气图标_默认背景" transform="translate(-364.000000, -3033.000000)" fill="#FFFFFF">
            <path d="M397.336211,3090.69195 L391.960737,3090.69195 C391.318737,3090.69195 390.793928,3091.23969 390.793928,3091.91226 L390.793928,3093.30326 C390.793928,3093.97583 391.318737,3094.52102 391.960737,3094.52102 L397.336211,3094.52102 C397.978211,3094.52102 398.500473,3093.97583 398.500473,3093.30326 L398.500473,3091.91226 C398.500473,3091.23969 397.978211,3090.69195 397.336211,3090.69195 Z M415.348635,3072.12949 L390.580693,3072.12949 C389.938693,3072.12949 389.416431,3072.67468 389.416431,3073.34726 L389.416431,3074.73826 C389.416431,3075.41083 389.938693,3075.95856 390.580693,3075.95856 L415.348635,3075.95856 C415.990635,3075.95856 416.512896,3075.41083 416.512896,3074.73826 L416.512896,3073.34726 C416.512896,3072.67468 415.990635,3072.12949 415.348635,3072.12949 Z M367.156619,3039.46343 L367.161714,3038.82907 L424.355739,3038.82907 C424.997738,3038.82907 425.52,3038.28388 425.52,3037.61131 L425.52,3036.21776 C425.52,3035.54519 424.997738,3035 424.355739,3035 L367.164261,3035 C366.522262,3035 366,3035.54519 366,3036.21776 L366,3037.61131 C366,3037.93995 366.122286,3038.24821 366.346476,3038.48005 C366.563024,3038.70424 366.850904,3038.82907 367.156619,3038.82907 L367.156619,3039.46343 Z M406.342296,3081.40945 L392.381349,3081.40945 C391.739349,3081.40945 391.217088,3081.95464 391.217088,3082.62721 L391.217088,3084.01821 C391.217088,3084.69078 391.739349,3085.23852 392.381349,3085.23852 L406.342296,3085.23852 C406.984296,3085.23852 407.506557,3084.69078 407.506557,3084.01821 L407.506557,3082.62721 C407.506557,3081.95464 406.984296,3081.40945 406.342296,3081.40945 Z M424.36491,3062.8498 L381.575118,3062.8498 C380.93057,3062.8498 380.408309,3063.39499 380.408309,3064.06756 L380.408309,3065.45346 C380.408309,3066.12603 380.93057,3066.67377 381.575118,3066.67377 L424.35472,3066.67377 C424.996719,3066.67377 425.518981,3066.12603 425.518981,3065.45346 L425.518981,3064.06756 C425.518981,3063.39499 425.001814,3062.8498 424.36491,3062.8498 Z M370.76532,3057.39382 L413.547469,3057.39382 C414.189469,3057.39382 414.711731,3056.84608 414.711731,3056.17351 L414.711731,3054.78251 C414.711731,3054.10994 414.189469,3053.56475 413.547469,3053.56475 L370.76532,3053.56475 C370.12332,3053.56475 369.59851,3054.10994 369.59851,3054.78251 L369.59851,3056.17351 C369.59851,3056.84608 370.12332,3057.39382 370.76532,3057.39382 Z M424.36491,3044.28479 L376.17162,3044.28479 C375.52962,3044.28479 375.004811,3044.82998 375.004811,3045.50256 L375.004811,3046.89101 C375.004811,3047.56358 375.52962,3048.10877 376.17162,3048.10877 L424.35472,3048.10877 C424.996719,3048.10877 425.518981,3047.56358 425.518981,3046.89101 L425.518981,3045.50256 C425.518981,3044.82998 425.001814,3044.28479 424.36491,3044.28479 Z" id="Combined-Shape"></path>
        </g>
    </g>
</svg>