<?xml version="1.0" encoding="UTF-8" standalone="no"?>
<svg width="64px" height="64px" viewBox="0 0 64 64" version="1.1" xmlns="http://www.w3.org/2000/svg" xmlns:xlink="http://www.w3.org/1999/xlink">
    <!-- Generator: Sketch 3.8.3 (29802) - http://www.bohemiancoding.com/sketch -->
    <title>36</title>
    <desc>Created with Sketch.</desc>
    <defs>
        <linearGradient x1="1.12703284%" y1="48.8729672%" x2="98.8729672%" y2="48.8729672%" id="linearGradient-1">
            <stop stop-color="#FFFFFF" stop-opacity="0.7" offset="0%"></stop>
            <stop stop-color="#FFFFFF" stop-opacity="0.9" offset="49.6631856%"></stop>
            <stop stop-color="#FFFFFF" stop-opacity="0.7" offset="100%"></stop>
        </linearGradient>
    </defs>
    <g id="天气图标" stroke="none" stroke-width="1" fill="none" fill-rule="evenodd">
        <g id="天气图标_默认背景" transform="translate(-364.000000, -3216.000000)" fill="url(#linearGradient-1)">
            <path d="M395.595524,3218 C379.250233,3218 366,3223.5003 366,3230.28493 C366,3237.06957 379.250233,3242.56987 395.595524,3242.56987 C411.940816,3242.56987 425.191049,3237.06957 425.191049,3230.28493 C425.191049,3223.5003 411.940816,3218 395.595524,3218 L395.595524,3218 Z M379.029476,3234.00764 C379.029476,3231.48886 386.550462,3229.44733 395.828193,3229.44733 C405.105925,3229.44733 412.626911,3231.48886 412.626911,3234.00764 C412.626911,3235.56671 409.742929,3236.94262 405.34604,3237.76497 C402.291186,3238.15995 399.00813,3238.38182 395.669606,3238.38182 C392.726061,3238.38182 389.835379,3238.21318 387.110357,3237.90643 C382.265253,3237.10642 379.029476,3235.65978 379.029476,3234.00764 L379.029476,3234.00764 Z M415.72532,3235.44796 C415.955756,3234.98113 416.081211,3234.50016 416.081211,3234.00764 C416.081211,3229.74142 407.036893,3226.28302 395.879939,3226.28302 C384.722985,3226.28302 375.678667,3229.74142 375.678667,3234.00764 C375.678667,3234.5627 375.835021,3235.10398 376.126137,3235.6259 C371.501789,3234.06423 368.78868,3231.99217 369.498228,3229.8196 C370.653012,3226.28302 381.21545,3221.25737 395.669234,3221.25737 C410.123018,3221.25737 420.258089,3225.72462 421.84024,3229.8196 C422.639133,3231.88607 420.117371,3233.89559 415.72532,3235.44796 L415.72532,3235.44796 Z M419.445794,3241.80969 C419.14835,3241.80969 418.872869,3241.89866 418.639083,3242.0472 L418.631266,3242.03454 C413.668524,3245.50411 405.334127,3247.78166 395.88329,3247.78166 C386.454044,3247.78166 378.13826,3245.51341 373.171796,3242.05725 C372.894826,3241.7196 372.479372,3241.49959 372.00845,3241.49959 C371.174191,3241.49959 370.497775,3242.17601 370.497775,3243.01027 C370.497775,3243.26453 370.566645,3243.50055 370.677582,3243.71051 L370.66083,3243.72279 C370.677954,3243.74141 370.69694,3243.75965 370.714064,3243.77789 C370.841753,3243.99232 371.018954,3244.17138 371.232638,3244.30018 C375.753494,3248.62523 385.089299,3251.59743 395.883662,3251.59743 C406.400683,3251.59743 415.538813,3248.77786 420.183263,3244.63262 L420.182518,3244.6315 C420.642272,3244.3724 420.956097,3243.88547 420.956097,3243.32037 C420.956469,3242.48611 420.280053,3241.80969 419.445794,3241.80969 L419.445794,3241.80969 Z M409.940605,3253.57196 C409.760426,3253.57196 409.589182,3253.60881 409.430967,3253.67098 L409.425755,3253.66093 C409.401929,3253.67657 409.374754,3253.69109 409.350556,3253.70635 C409.262328,3253.74767 409.180428,3253.79793 409.103368,3253.856 C406.160196,3255.62243 401.234309,3256.78354 395.641686,3256.78354 C389.987265,3256.78354 385.010378,3255.59786 382.07949,3253.7983 C381.945845,3253.66242 381.78279,3253.55781 381.601495,3253.48857 C381.596655,3253.48522 381.590699,3253.48187 381.585859,3253.47852 L381.582881,3253.48299 C381.440301,3253.43124 381.288787,3253.39811 381.128339,3253.39811 C380.391242,3253.39811 379.79412,3253.9956 379.79412,3254.73233 C379.79412,3255.08673 379.934838,3255.40688 380.160435,3255.64588 L380.152989,3255.65705 C382.32035,3258.32735 388.433407,3260.25236 395.641686,3260.25236 C402.389838,3260.25236 408.17902,3258.56523 410.669139,3256.15887 C411.069702,3255.9128 411.339226,3255.47463 411.339226,3254.97021 C411.339599,3254.19812 410.713067,3253.57196 409.940605,3253.57196 L409.940605,3253.57196 Z M402.266244,3263.16314 C401.602485,3263.16314 401.0344,3263.55217 400.763015,3264.11169 L400.748868,3264.10238 L396.410053,3270.57915 L392.270774,3264.05883 L392.259978,3264.06553 C391.972213,3263.557 391.433165,3263.21005 390.807378,3263.21005 C389.881913,3263.21005 389.131787,3263.96017 389.131787,3264.88564 C389.131787,3265.24711 389.249053,3265.57992 389.44375,3265.85354 L389.441889,3265.85466 L394.372243,3273.62097 L394.368892,3273.62581 L394.637299,3274.04871 L394.648468,3274.05616 L395.693432,3275.70197 L395.700132,3275.6975 C395.824471,3275.93426 396.069797,3276.09732 396.355701,3276.09732 C396.659102,3276.09732 396.918947,3275.9149 397.034723,3275.65431 L397.039935,3275.65767 L397.98513,3274.24639 L397.999276,3274.23745 L398.375642,3273.67532 L398.37192,3273.66937 L403.531964,3265.96671 L403.509256,3265.95145 C403.775057,3265.65512 403.94109,3265.26759 403.94109,3264.83799 C403.941834,3263.91327 403.191709,3263.16314 402.266244,3263.16314 L402.266244,3263.16314 Z" id="Shape"></path>
        </g>
    </g>
</svg>