<?xml version="1.0" encoding="UTF-8" standalone="no"?>
<svg width="64px" height="64px" viewBox="0 0 64 64" version="1.1" xmlns="http://www.w3.org/2000/svg" xmlns:xlink="http://www.w3.org/1999/xlink">
    <!-- Generator: Sketch 3.8.3 (29802) - http://www.bohemiancoding.com/sketch -->
    <title>37</title>
    <desc>Created with Sketch.</desc>
    <defs></defs>
    <g id="天气图标" stroke="none" stroke-width="1" fill="none" fill-rule="evenodd">
        <g id="天气图标_默认背景" transform="translate(-364.000000, -3308.000000)" fill="#FFFFFF">
            <path d="M421.54325,3353.46989 L412.164753,3347.96356 L420.997094,3345.15716 C421.741084,3344.92076 422.155745,3344.11582 421.923275,3343.35924 C421.690874,3342.60265 420.89912,3342.18055 420.155271,3342.41738 L408.841313,3346.01238 L398.447111,3339.90974 L408.658353,3333.91447 L420.155271,3337.56756 C420.295423,3337.61216 420.437112,3337.63332 420.576566,3337.63332 C421.17747,3337.63318 421.734519,3337.23977 421.923205,3336.62578 C422.155746,3335.8692 421.741014,3335.06433 420.997024,3334.82785 L411.981654,3331.9633 L421.47265,3326.39092 C422.147715,3325.99459 422.378998,3325.11693 421.989196,3324.43044 C421.599604,3323.74424 420.736412,3323.50875 420.061347,3323.90515 L410.68292,3329.41142 L412.709093,3320.22984 C412.879832,3319.45649 412.401623,3318.68884 411.641084,3318.51535 C410.879916,3318.34101 410.125591,3318.82817 409.955132,3319.60143 L407.359619,3331.36267 L397.037484,3337.42305 L397.037484,3325.4551 L405.824783,3317.22418 C406.397964,3316.6871 406.434625,3315.77919 405.906626,3315.19617 C405.378487,3314.61343 404.485686,3314.57586 403.912366,3315.11294 L397.037484,3321.55261 L397.037484,3310.43519 C397.037484,3309.64253 396.405575,3309 395.626181,3309 C394.846787,3309 394.214878,3309.64253 394.214878,3310.43519 L394.214878,3321.55552 L387.336643,3315.11272 C386.763463,3314.57579 385.870662,3314.61307 385.342453,3315.19595 C384.814384,3315.77898 384.851046,3316.68689 385.424366,3317.22396 L394.214878,3325.45801 L394.214878,3337.42476 L383.930172,3331.38645 L381.334729,3319.62515 C381.16406,3318.85167 380.409177,3318.36473 379.648708,3318.53907 C378.888168,3318.71255 378.409959,3319.48021 378.580628,3320.25355 L380.606732,3329.43514 L371.187733,3323.90508 C370.512807,3323.50875 369.649475,3323.74388 369.259883,3324.43037 C368.870151,3325.11686 369.101434,3325.99452 369.77643,3326.39085 L379.307998,3331.98702 L370.292767,3334.85157 C369.548778,3335.08798 369.134185,3335.89292 369.366586,3336.6495 C369.555272,3337.26363 370.112251,3337.65704 370.713225,3337.65704 C370.852609,3337.65704 370.994438,3337.63588 371.134521,3337.59128 L382.631299,3333.93826 L392.801899,3339.90967 L382.448339,3345.98852 L371.134591,3342.39359 C370.390741,3342.15726 369.599126,3342.57887 369.366586,3343.33545 C369.134116,3344.09203 369.548778,3344.8969 370.292767,3345.13337 L379.124968,3347.93977 L369.705899,3353.46996 C369.030904,3353.86629 368.799551,3354.74395 369.189353,3355.43044 C369.450733,3355.89082 369.925102,3356.14832 370.412878,3356.14832 C370.652262,3356.14832 370.894997,3356.08625 371.117202,3355.95573 L380.64877,3350.35956 L378.580698,3359.73139 C378.410029,3360.5048 378.888168,3361.27239 379.648777,3361.44588 C379.752827,3361.46974 379.856667,3361.48103 379.95911,3361.48103 C380.604846,3361.48103 381.187524,3361.02732 381.334869,3360.35979 L383.972281,3348.40824 L394.215017,3342.39451 L394.215017,3354.57451 L385.424366,3362.80856 C384.851046,3363.34564 384.814384,3364.25355 385.342453,3364.83657 C385.870522,3365.41931 386.763323,3365.45645 387.336643,3364.9198 L394.214878,3358.477 L394.214878,3369.56481 C394.214878,3370.3574 394.846787,3371 395.626181,3371 C396.405575,3371 397.037484,3370.3574 397.037484,3369.56481 L397.037484,3358.4802 L403.912366,3364.91987 C404.183733,3365.17396 404.526328,3365.29944 404.868156,3365.29944 C405.24881,3365.29944 405.628416,3365.14371 405.906626,3364.83664 C406.434625,3364.25362 406.397964,3363.34571 405.824783,3362.80863 L397.037484,3354.57764 L397.037484,3342.39643 L407.31765,3348.43218 L409.955132,3360.38365 C410.102477,3361.05132 410.685015,3361.50489 411.33089,3361.50489 C411.433124,3361.50489 411.537244,3361.49353 411.641153,3361.46974 C412.401623,3361.29625 412.879902,3360.52859 412.709163,3359.75525 L410.641021,3350.38342 L420.132016,3355.9558 C420.354291,3356.08625 420.596888,3356.14839 420.836271,3356.14839 C421.324047,3356.14839 421.798555,3355.8909 422.059866,3355.43051 C422.449598,3354.74395 422.218315,3353.86629 421.54325,3353.46989 L421.54325,3353.46989 Z" id="Shape"></path>
        </g>
    </g>
</svg>