<?xml version="1.0" encoding="UTF-8" standalone="no"?>
<svg width="64px" height="64px" viewBox="0 0 64 64" version="1.1" xmlns="http://www.w3.org/2000/svg" xmlns:xlink="http://www.w3.org/1999/xlink">
    <!-- Generator: Sketch 3.8.3 (29802) - http://www.bohemiancoding.com/sketch -->
    <title>99</title>
    <desc>Created with Sketch.</desc>
    <defs></defs>
    <g id="天气图标" stroke="none" stroke-width="1" fill="none" fill-rule="evenodd">
        <g id="天气图标_默认背景" transform="translate(-364.000000, -3484.000000)" fill="#FFFFFF">
            <path d="M384.193548,3524.03226 L384.258065,3524.03226 L384.258065,3504.58065 L386.580645,3504.58065 L386.580645,3527.41935 L383.677419,3527.41935 L370.387097,3507.77419 L370.322581,3507.77419 L370.322581,3527.41935 L368,3527.41935 L368,3504.58065 L370.903226,3504.58065 L384.193548,3524.03226 Z M391.645161,3528 L389.774194,3527.3871 L399.548387,3504 L401.387097,3504.64516 L391.645161,3528 Z M404.419355,3527.41935 L401.870968,3527.41935 L411.741935,3504.58065 L414,3504.58065 L423.806452,3527.41935 L421.225806,3527.41935 L418.709677,3521.41935 L406.903226,3521.41935 L404.419355,3527.41935 Z M407.774194,3519.29032 L417.83871,3519.29032 L412.806452,3507.16129 L407.774194,3519.29032 Z" id="N/A"></path>
        </g>
    </g>
</svg>