<?xml version="1.0" encoding="UTF-8" standalone="no"?>
<svg width="64px" height="64px" viewBox="0 0 64 64" version="1.1" xmlns="http://www.w3.org/2000/svg" xmlns:xlink="http://www.w3.org/1999/xlink">
    <!-- Generator: Sketch 3.8.3 (29802) - http://www.bohemiancoding.com/sketch -->
    <title>35</title>
    <desc>Created with Sketch.</desc>
    <defs></defs>
    <g id="天气图标" stroke="none" stroke-width="1" fill="none" fill-rule="evenodd">
        <g id="天气图标_白色背景" transform="translate(-363.000000, -3151.000000)" fill="#B5B5B5">
            <path d="M396.336211,3208.69195 L390.960737,3208.69195 C390.318737,3208.69195 389.793928,3209.23969 389.793928,3209.91226 L389.793928,3211.30326 C389.793928,3211.97583 390.318737,3212.52102 390.960737,3212.52102 L396.336211,3212.52102 C396.978211,3212.52102 397.500473,3211.97583 397.500473,3211.30326 L397.500473,3209.91226 C397.500473,3209.23969 396.978211,3208.69195 396.336211,3208.69195 Z M414.348635,3190.12949 L389.580693,3190.12949 C388.938693,3190.12949 388.416431,3190.67468 388.416431,3191.34726 L388.416431,3192.73826 C388.416431,3193.41083 388.938693,3193.95856 389.580693,3193.95856 L414.348635,3193.95856 C414.990635,3193.95856 415.512896,3193.41083 415.512896,3192.73826 L415.512896,3191.34726 C415.512896,3190.67468 414.990635,3190.12949 414.348635,3190.12949 Z M366.156619,3157.46343 L366.161714,3156.82907 L423.355739,3156.82907 C423.997738,3156.82907 424.52,3156.28388 424.52,3155.61131 L424.52,3154.21776 C424.52,3153.54519 423.997738,3153 423.355739,3153 L366.164261,3153 C365.522262,3153 365,3153.54519 365,3154.21776 L365,3155.61131 C365,3155.93995 365.122286,3156.24821 365.346476,3156.48005 C365.563024,3156.70424 365.850904,3156.82907 366.156619,3156.82907 L366.156619,3157.46343 Z M405.342296,3199.40945 L391.381349,3199.40945 C390.739349,3199.40945 390.217088,3199.95464 390.217088,3200.62721 L390.217088,3202.01821 C390.217088,3202.69078 390.739349,3203.23852 391.381349,3203.23852 L405.342296,3203.23852 C405.984296,3203.23852 406.506557,3202.69078 406.506557,3202.01821 L406.506557,3200.62721 C406.506557,3199.95464 405.984296,3199.40945 405.342296,3199.40945 Z M423.36491,3180.8498 L380.575118,3180.8498 C379.93057,3180.8498 379.408309,3181.39499 379.408309,3182.06756 L379.408309,3183.45346 C379.408309,3184.12603 379.93057,3184.67377 380.575118,3184.67377 L423.35472,3184.67377 C423.996719,3184.67377 424.518981,3184.12603 424.518981,3183.45346 L424.518981,3182.06756 C424.518981,3181.39499 424.001814,3180.8498 423.36491,3180.8498 Z M369.76532,3175.39382 L412.547469,3175.39382 C413.189469,3175.39382 413.711731,3174.84608 413.711731,3174.17351 L413.711731,3172.78251 C413.711731,3172.10994 413.189469,3171.56475 412.547469,3171.56475 L369.76532,3171.56475 C369.12332,3171.56475 368.59851,3172.10994 368.59851,3172.78251 L368.59851,3174.17351 C368.59851,3174.84608 369.12332,3175.39382 369.76532,3175.39382 Z M423.36491,3162.28479 L375.17162,3162.28479 C374.52962,3162.28479 374.004811,3162.82998 374.004811,3163.50256 L374.004811,3164.89101 C374.004811,3165.56358 374.52962,3166.10877 375.17162,3166.10877 L423.35472,3166.10877 C423.996719,3166.10877 424.518981,3165.56358 424.518981,3164.89101 L424.518981,3163.50256 C424.518981,3162.82998 424.001814,3162.28479 423.36491,3162.28479 Z" id="Combined-Shape"></path>
        </g>
    </g>
</svg>