<?xml version="1.0" encoding="UTF-8" standalone="no"?>
<svg width="64px" height="64px" viewBox="0 0 64 64" version="1.1" xmlns="http://www.w3.org/2000/svg" xmlns:xlink="http://www.w3.org/1999/xlink">
    <!-- Generator: Sketch 3.8.3 (29802) - http://www.bohemiancoding.com/sketch -->
    <title>6</title>
    <desc>Created with Sketch.</desc>
    <defs>
        <linearGradient x1="50%" y1="0%" x2="50%" y2="100%" id="linearGradient-1">
            <stop stop-color="#EAE6C5" offset="0%"></stop>
            <stop stop-color="#D8C7A0" offset="100%"></stop>
        </linearGradient>
        <linearGradient x1="50%" y1="0%" x2="50%" y2="97.7459343%" id="linearGradient-2">
            <stop stop-color="#EDEDED" stop-opacity="0.8" offset="0%"></stop>
            <stop stop-color="#EDEDED" stop-opacity="0.9" offset="100%"></stop>
        </linearGradient>
    </defs>
    <g id="天气图标" stroke="none" stroke-width="1" fill="none" fill-rule="evenodd">
        <g id="天气图标_白色背景" transform="translate(-363.000000, -587.000000)">
            <g id="Group-4" transform="translate(363.000000, 592.000000)">
                <g id="Group">
                    <path d="M46.6181987,34.8192 L46.6142486,34.8157112 C41.9464579,34.7889921 37.5619736,32.9366924 34.2578945,29.5919931 C30.9309979,26.222872 29.0986667,21.7438433 29.0986667,16.9784774 C29.0986667,13.0610611 30.3407691,9.36318411 32.6921453,6.28537825 C33.8181434,4.81020978 35.1663072,3.52586191 36.6979352,2.46649933 C38.2458254,1.39688308 39.9440672,0.581694256 41.7466895,0.0448438999 C41.8464897,0.014763613 41.9509122,0 42.0552927,0 C42.3806203,0 42.6875845,0.145423547 42.8968498,0.399850981 C43.1755759,0.740732654 43.2273038,1.2150398 43.0279977,1.60978521 C41.9531813,3.73093551 41.4527097,5.7515487 41.4527097,7.97030041 C41.4527097,15.8769514 47.8064301,22.3100932 55.6154681,22.3100932 C57.8074581,22.3100932 59.8036296,21.8033657 61.8974584,20.7162629 C62.0517599,20.636148 62.2239625,20.5941123 62.396123,20.5941123 C62.6503929,20.5941123 62.8970989,20.6843531 63.0924552,20.8485397 C63.4279518,21.1302393 63.5659912,21.5869748 63.4435417,22.0124387 C62.9095792,23.8432524 62.1044544,25.5627222 61.051321,27.1249831 C60.0061715,28.6750758 58.7370074,30.0402192 57.280051,31.1808455 C54.2404108,33.5614436 50.5880605,34.8190724 46.7191334,34.8190724 L46.6181987,34.8190724 L46.6181987,34.8192 L46.6181987,34.8192 Z" id="Shape" fill="url(#linearGradient-1)"></path>
                    <path d="M9.69955556,53.568 C4.34263894,53.568 0,49.091134 0,43.56864 C0,38.9009904 3.1022708,34.9803109 7.29716699,33.8783632 C7.77261091,23.9608011 15.7231484,16.0704 25.4613333,16.0704 C32.5873883,16.0704 38.756196,20.2955428 41.7391633,26.4483515 C42.740411,26.2008442 43.7855785,26.06976 44.8604444,26.06976 C52.2262048,26.06976 58.1973333,32.2254507 58.1973333,39.81888 C58.1973333,46.9909742 52.8704587,52.8804543 46.0728889,53.5119498 L46.0728889,53.568 L9.69955556,53.568 L9.69955556,53.568 Z" id="Combined-Shape" fill="url(#linearGradient-2)"></path>
                </g>
            </g>
        </g>
    </g>
</svg>