<?xml version="1.0" encoding="UTF-8" standalone="no"?>
<svg width="64px" height="64px" viewBox="0 0 64 64" version="1.1" xmlns="http://www.w3.org/2000/svg" xmlns:xlink="http://www.w3.org/1999/xlink">
    <!-- Generator: Sketch 3.8.3 (29802) - http://www.bohemiancoding.com/sketch -->
    <title>7</title>
    <desc>Created with Sketch.</desc>
    <defs>
        <linearGradient x1="50%" y1="-1.11022302e-14%" x2="50%" y2="100%" id="linearGradient-1">
            <stop stop-color="#FFE20F" offset="0%"></stop>
            <stop stop-color="#FFC800" offset="100%"></stop>
        </linearGradient>
        <linearGradient x1="50%" y1="0%" x2="50%" y2="97.7459343%" id="linearGradient-2">
            <stop stop-color="#EDEDED" stop-opacity="0.8" offset="0%"></stop>
            <stop stop-color="#EDEDED" stop-opacity="0.9" offset="100%"></stop>
        </linearGradient>
    </defs>
    <g id="天气图标" stroke="none" stroke-width="1" fill="none" fill-rule="evenodd">
        <g id="天气图标_白色背景" transform="translate(-363.000000, -675.000000)">
            <g id="Group-5" transform="translate(363.000000, 684.000000)">
                <g id="Group-19-Copy-2">
                    <path d="M47.2468837,32.9486441 C56.2166046,32.9486441 63.488,25.5728389 63.488,16.4743221 C63.488,7.37580522 56.2166046,0 47.2468837,0 C38.2771629,0 31.0057674,7.37580522 31.0057674,16.4743221 C31.0057674,25.5728389 38.2771629,32.9486441 47.2468837,32.9486441 Z" id="Combined-Shape-Copy-4" fill="url(#linearGradient-1)"></path>
                    <path d="M49.6741675,20.3230393 C49.6741675,12.4202082 43.2034205,5.99066256 35.2500505,5.99066256 C30.1863617,5.99066256 25.5159587,8.64615847 22.9202721,12.879437 C21.3072097,11.7841555 19.4011087,11.1946474 17.4069611,11.1946474 C12.0058166,11.1946474 7.61231611,15.5604298 7.61231611,20.9270926 C7.61231611,21.5200802 7.6653352,22.1078771 7.77126094,22.6843801 C3.13380511,24.3567921 0,28.7248561 0,33.7371296 C0,40.1179061 5.09028274,44.9299692 11.8394503,44.9299692 L45.7332128,44.9299692 C52.2617017,44.9299692 57.5731691,39.6530303 57.5731691,33.1662165 C57.5733377,28.1280469 54.2621464,23.6267945 49.5426599,22.0258536 C49.6105784,21.4601312 49.6741675,20.8050841 49.6741675,20.3230393 Z" id="Shape-Copy-5" fill="url(#linearGradient-2)"></path>
                </g>
            </g>
        </g>
    </g>
</svg>