<?xml version="1.0" encoding="UTF-8"?>
<svg width="120px" height="200px" viewBox="0 0 120 200" version="1.1" xmlns="http://www.w3.org/2000/svg" xmlns:xlink="http://www.w3.org/1999/xlink">
    <!-- Generator: Sketch 57.1 (83088) - https://sketch.com -->
    <title>arrow-up</title>
    <desc>Created with Sketch.</desc>
    <g id="Page-1" stroke="none" stroke-width="1" fill="none" fill-rule="evenodd">
        <g id="arrow-up" transform="translate(60.000000, 100.000000) scale(1, -1) translate(-60.000000, -100.000000) " fill="#CF6B61" fill-rule="nonzero">
            <path d="M49.9609375,165.86 L49.9609375,9.44 C49.9609375,4.23 54.4009375,0 59.9609375,0 C65.4809375,0 69.9609375,4.2 69.9609375,9.44 L69.9609375,165.86 L102.890937,132.93 C106.814726,129.140278 113.051785,129.194476 116.909123,133.051814 C120.766461,136.909152 120.82066,143.146211 117.030938,147.07 L67.0309375,197.07 C63.125939,200.973819 56.795936,200.973819 52.8909375,197.07 L2.8909375,147.07 C-0.898784595,143.146211 -0.844586239,136.909152 3.01275175,133.051814 C6.87008973,129.194476 13.1071486,129.140278 17.0309375,132.93 L49.9609375,165.86 Z" id="路径"></path>
        </g>
    </g>
</svg>