<?xml version="1.0" encoding="UTF-8" standalone="no"?>
<svg width="64px" height="64px" viewBox="0 0 64 64" version="1.1" xmlns="http://www.w3.org/2000/svg" xmlns:xlink="http://www.w3.org/1999/xlink">
    <!-- Generator: Sketch 3.8.3 (29802) - http://www.bohemiancoding.com/sketch -->
    <title>30</title>
    <desc>Created with Sketch.</desc>
    <defs>
        <linearGradient x1="50%" y1="0%" x2="50%" y2="97.7459343%" id="linearGradient-1">
            <stop stop-color="#B5B5B5" stop-opacity="0.8" offset="0%"></stop>
            <stop stop-color="#B5B5B5" stop-opacity="0.9" offset="100%"></stop>
        </linearGradient>
    </defs>
    <g id="天气图标" stroke="none" stroke-width="1" fill="none" fill-rule="evenodd">
        <g id="天气图标_白色背景" transform="translate(-363.000000, -2709.000000)" fill="url(#linearGradient-1)">
            <path d="M418.696639,2734.75816 L422.0356,2734.75816 C419.57792,2729.35424 414.16656,2725.81032 408.17984,2725.81032 C407.25232,2725.81032 406.35208,2725.94424 405.59568,2726.07568 L404.94592,2726.18728 L404.626,2725.61192 C400.97544,2719.06472 394.07608,2715 386.61376,2715 C375.548,2715 366.48856,2723.78168 366,2734.75816 L369.160887,2734.75816 L369.167469,2734.82665 L418.738758,2734.82665 L418.696639,2734.75816 Z M421.67848,2763.89766 L367.76576,2763.89766 C366.79112,2763.89766 366,2764.69126 366,2765.67086 C366,2766.64798 366.79112,2767.44406 367.76576,2767.44406 L421.67848,2767.44406 C422.65064,2767.44406 423.44176,2766.64798 423.44176,2765.67086 C423.44176,2764.69126 422.65064,2763.89766 421.67848,2763.89766 Z M421.67848,2742.28 L367.76576,2742.28 C366.79112,2742.28 366,2743.07608 366,2744.0532 C366,2745.03032 366.79112,2745.8264 367.76576,2745.8264 L421.67848,2745.8264 C422.65064,2745.8264 423.44176,2745.03032 423.44176,2744.0532 C423.44176,2743.07608 422.65064,2742.28 421.67848,2742.28 Z M421.67848,2753.08883 L367.76576,2753.08883 C366.79112,2753.08883 366,2753.88243 366,2754.86203 C366,2755.83915 366.79112,2756.63523 367.76576,2756.63523 L421.67848,2756.63523 C422.65064,2756.63523 423.44176,2755.83915 423.44176,2754.86203 C423.44176,2753.88243 422.65064,2753.08883 421.67848,2753.08883 Z" id="Combined-Shape"></path>
        </g>
    </g>
</svg>