<?xml version="1.0" encoding="UTF-8" standalone="no"?>
<svg width="64px" height="64px" viewBox="0 0 64 64" version="1.1" xmlns="http://www.w3.org/2000/svg" xmlns:xlink="http://www.w3.org/1999/xlink">
    <!-- Generator: Sketch 3.8.3 (29802) - http://www.bohemiancoding.com/sketch -->
    <title>31</title>
    <desc>Created with Sketch.</desc>
    <defs></defs>
    <g id="天气图标" stroke="none" stroke-width="1" fill="none" fill-rule="evenodd">
        <g id="天气图标_白色背景" transform="translate(-363.000000, -2798.000000)" fill="#B5B5B5">
            <path d="M410.330062,2817.10462 C401.803651,2817.10462 396.862941,2823.9561 394.761092,2827.80494 C392.658151,2823.9561 387.717441,2817.10244 379.189938,2817.10244 C370.569627,2817.10244 365,2822.51374 365,2830.89057 C365,2839.37221 370.638415,2844.85012 379.366821,2844.85012 C387.846281,2844.85012 392.684356,2837.9102 394.76,2833.93361 C396.833461,2837.90801 401.671535,2844.85012 410.149903,2844.85012 C418.879401,2844.85012 424.517816,2839.37221 424.52,2830.89275 C424.52,2822.51593 418.951465,2817.10462 410.330062,2817.10462 Z M394.753449,2809.36545 C396.235116,2809.36545 397.436173,2808.1633 397.436173,2806.68272 C397.436173,2805.20106 396.235116,2804 394.753449,2804 C393.271782,2804 392.070725,2805.20106 392.070725,2806.68272 C392.070725,2808.1633 393.271782,2809.36545 394.753449,2809.36545 Z M421.579923,2809.36545 C423.060498,2809.36545 424.261554,2808.1633 424.261554,2806.68272 C424.261554,2805.20106 423.060498,2804 421.579923,2804 C420.099347,2804 418.897199,2805.20106 418.897199,2806.68272 C418.897199,2808.1633 420.099347,2809.36545 421.579923,2809.36545 Z M369.866463,2809.36545 C371.347038,2809.36545 372.549187,2808.1633 372.549187,2806.68272 C372.549187,2805.20106 371.347038,2804 369.866463,2804 C368.384796,2804 367.183739,2805.20106 367.183739,2806.68272 C367.183739,2808.1633 368.384796,2809.36545 369.866463,2809.36545 Z M394.546539,2850.95029 C393.064872,2850.95029 391.863816,2852.15134 391.863816,2853.63301 C391.863816,2855.11359 393.064872,2856.31573 394.546539,2856.31573 C396.027115,2856.31573 397.229263,2855.11359 397.229263,2853.63301 C397.229263,2852.15134 396.027115,2850.95029 394.546539,2850.95029 Z M421.372031,2850.95029 C419.890363,2850.95029 418.689307,2852.15134 418.689307,2853.63301 C418.689307,2855.11359 419.890363,2856.31573 421.372031,2856.31573 C422.853698,2856.31573 424.054754,2855.11359 424.054754,2853.63301 C424.054754,2852.15134 422.853698,2850.95029 421.372031,2850.95029 Z M369.866463,2850.95029 C368.384796,2850.95029 367.183739,2852.15134 367.183739,2853.63301 C367.183739,2855.11359 368.384796,2856.31573 369.866463,2856.31573 C371.347038,2856.31573 372.549187,2855.11359 372.549187,2853.63301 C372.549187,2852.15134 371.347038,2850.95029 369.866463,2850.95029 Z M379.567725,2840.21295 C373.517675,2840.21295 369.906862,2836.73425 369.906862,2830.90585 C369.906862,2825.16589 373.46199,2821.73961 379.421415,2821.73961 C386.546956,2821.73961 390.256038,2829.09881 391.036724,2830.8458 C390.289886,2832.63537 386.708553,2840.21295 379.567725,2840.21295 Z M409.939172,2840.09394 C402.910807,2840.09394 399.357863,2832.61026 398.619759,2830.8458 C399.38516,2829.11846 403.025453,2821.85971 410.083299,2821.85971 C415.961925,2821.85971 419.473378,2825.24232 419.473378,2830.90694 C419.473378,2836.65891 415.910608,2840.09394 409.939172,2840.09394 Z" id="Combined-Shape"></path>
        </g>
    </g>
</svg>