<?xml version="1.0" encoding="UTF-8" standalone="no"?>
<svg width="64px" height="64px" viewBox="0 0 64 64" version="1.1" xmlns="http://www.w3.org/2000/svg" xmlns:xlink="http://www.w3.org/1999/xlink">
    <!-- Generator: Sketch 3.8.3 (29802) - http://www.bohemiancoding.com/sketch -->
    <title>34</title>
    <desc>Created with Sketch.</desc>
    <defs></defs>
    <g id="天气图标" stroke="none" stroke-width="1" fill="none" fill-rule="evenodd">
        <g id="天气图标_白色背景" transform="translate(-363.000000, -3060.000000)" fill="#B5B5B5">
            <path d="M396.336211,3117.69195 L390.960737,3117.69195 C390.318737,3117.69195 389.793928,3118.23969 389.793928,3118.91226 L389.793928,3120.30326 C389.793928,3120.97583 390.318737,3121.52102 390.960737,3121.52102 L396.336211,3121.52102 C396.978211,3121.52102 397.500473,3120.97583 397.500473,3120.30326 L397.500473,3118.91226 C397.500473,3118.23969 396.978211,3117.69195 396.336211,3117.69195 Z M414.348635,3099.12949 L389.580693,3099.12949 C388.938693,3099.12949 388.416431,3099.67468 388.416431,3100.34726 L388.416431,3101.73826 C388.416431,3102.41083 388.938693,3102.95856 389.580693,3102.95856 L414.348635,3102.95856 C414.990635,3102.95856 415.512896,3102.41083 415.512896,3101.73826 L415.512896,3100.34726 C415.512896,3099.67468 414.990635,3099.12949 414.348635,3099.12949 Z M366.156619,3066.46343 L366.161714,3065.82907 L423.355739,3065.82907 C423.997738,3065.82907 424.52,3065.28388 424.52,3064.61131 L424.52,3063.21776 C424.52,3062.54519 423.997738,3062 423.355739,3062 L366.164261,3062 C365.522262,3062 365,3062.54519 365,3063.21776 L365,3064.61131 C365,3064.93995 365.122286,3065.24821 365.346476,3065.48005 C365.563024,3065.70424 365.850904,3065.82907 366.156619,3065.82907 L366.156619,3066.46343 Z M405.342296,3108.40945 L391.381349,3108.40945 C390.739349,3108.40945 390.217088,3108.95464 390.217088,3109.62721 L390.217088,3111.01821 C390.217088,3111.69078 390.739349,3112.23852 391.381349,3112.23852 L405.342296,3112.23852 C405.984296,3112.23852 406.506557,3111.69078 406.506557,3111.01821 L406.506557,3109.62721 C406.506557,3108.95464 405.984296,3108.40945 405.342296,3108.40945 Z M423.36491,3089.8498 L380.575118,3089.8498 C379.93057,3089.8498 379.408309,3090.39499 379.408309,3091.06756 L379.408309,3092.45346 C379.408309,3093.12603 379.93057,3093.67377 380.575118,3093.67377 L423.35472,3093.67377 C423.996719,3093.67377 424.518981,3093.12603 424.518981,3092.45346 L424.518981,3091.06756 C424.518981,3090.39499 424.001814,3089.8498 423.36491,3089.8498 Z M369.76532,3084.39382 L412.547469,3084.39382 C413.189469,3084.39382 413.711731,3083.84608 413.711731,3083.17351 L413.711731,3081.78251 C413.711731,3081.10994 413.189469,3080.56475 412.547469,3080.56475 L369.76532,3080.56475 C369.12332,3080.56475 368.59851,3081.10994 368.59851,3081.78251 L368.59851,3083.17351 C368.59851,3083.84608 369.12332,3084.39382 369.76532,3084.39382 Z M423.36491,3071.28479 L375.17162,3071.28479 C374.52962,3071.28479 374.004811,3071.82998 374.004811,3072.50256 L374.004811,3073.89101 C374.004811,3074.56358 374.52962,3075.10877 375.17162,3075.10877 L423.35472,3075.10877 C423.996719,3075.10877 424.518981,3074.56358 424.518981,3073.89101 L424.518981,3072.50256 C424.518981,3071.82998 424.001814,3071.28479 423.36491,3071.28479 Z" id="Combined-Shape"></path>
        </g>
    </g>
</svg>