<?xml version="1.0" encoding="UTF-8" standalone="no"?>
<svg width="64px" height="64px" viewBox="0 0 64 64" version="1.1" xmlns="http://www.w3.org/2000/svg" xmlns:xlink="http://www.w3.org/1999/xlink">
    <!-- Generator: Sketch 3.8.3 (29802) - http://www.bohemiancoding.com/sketch -->
    <title>37</title>
    <desc>Created with Sketch.</desc>
    <defs></defs>
    <g id="天气图标" stroke="none" stroke-width="1" fill="none" fill-rule="evenodd">
        <g id="天气图标_白色背景" transform="translate(-363.000000, -3333.000000)" fill="#9FD2FF">
            <path d="M420.54325,3378.46989 L411.164753,3372.96356 L419.997094,3370.15716 C420.741084,3369.92076 421.155745,3369.11582 420.923275,3368.35924 C420.690874,3367.60265 419.89912,3367.18055 419.155271,3367.41738 L407.841313,3371.01238 L397.447111,3364.90974 L407.658353,3358.91447 L419.155271,3362.56756 C419.295423,3362.61216 419.437112,3362.63332 419.576566,3362.63332 C420.17747,3362.63318 420.734519,3362.23977 420.923205,3361.62578 C421.155746,3360.8692 420.741014,3360.06433 419.997024,3359.82785 L410.981654,3356.9633 L420.47265,3351.39092 C421.147715,3350.99459 421.378998,3350.11693 420.989196,3349.43044 C420.599604,3348.74424 419.736412,3348.50875 419.061347,3348.90515 L409.68292,3354.41142 L411.709093,3345.22984 C411.879832,3344.45649 411.401623,3343.68884 410.641084,3343.51535 C409.879916,3343.34101 409.125591,3343.82817 408.955132,3344.60143 L406.359619,3356.36267 L396.037484,3362.42305 L396.037484,3350.4551 L404.824783,3342.22418 C405.397964,3341.6871 405.434625,3340.77919 404.906626,3340.19617 C404.378487,3339.61343 403.485686,3339.57586 402.912366,3340.11294 L396.037484,3346.55261 L396.037484,3335.43519 C396.037484,3334.64253 395.405575,3334 394.626181,3334 C393.846787,3334 393.214878,3334.64253 393.214878,3335.43519 L393.214878,3346.55552 L386.336643,3340.11272 C385.763463,3339.57579 384.870662,3339.61307 384.342453,3340.19595 C383.814384,3340.77898 383.851046,3341.68689 384.424366,3342.22396 L393.214878,3350.45801 L393.214878,3362.42476 L382.930172,3356.38645 L380.334729,3344.62515 C380.16406,3343.85167 379.409177,3343.36473 378.648708,3343.53907 C377.888168,3343.71255 377.409959,3344.48021 377.580628,3345.25355 L379.606732,3354.43514 L370.187733,3348.90508 C369.512807,3348.50875 368.649475,3348.74388 368.259883,3349.43037 C367.870151,3350.11686 368.101434,3350.99452 368.77643,3351.39085 L378.307998,3356.98702 L369.292767,3359.85157 C368.548778,3360.08798 368.134185,3360.89292 368.366586,3361.6495 C368.555272,3362.26363 369.112251,3362.65704 369.713225,3362.65704 C369.852609,3362.65704 369.994438,3362.63588 370.134521,3362.59128 L381.631299,3358.93826 L391.801899,3364.90967 L381.448339,3370.98852 L370.134591,3367.39359 C369.390741,3367.15726 368.599126,3367.57887 368.366586,3368.33545 C368.134116,3369.09203 368.548778,3369.8969 369.292767,3370.13337 L378.124968,3372.93977 L368.705899,3378.46996 C368.030904,3378.86629 367.799551,3379.74395 368.189353,3380.43044 C368.450733,3380.89082 368.925102,3381.14832 369.412878,3381.14832 C369.652262,3381.14832 369.894997,3381.08625 370.117202,3380.95573 L379.64877,3375.35956 L377.580698,3384.73139 C377.410029,3385.5048 377.888168,3386.27239 378.648777,3386.44588 C378.752827,3386.46974 378.856667,3386.48103 378.95911,3386.48103 C379.604846,3386.48103 380.187524,3386.02732 380.334869,3385.35979 L382.972281,3373.40824 L393.215017,3367.39451 L393.215017,3379.57451 L384.424366,3387.80856 C383.851046,3388.34564 383.814384,3389.25355 384.342453,3389.83657 C384.870522,3390.41931 385.763323,3390.45645 386.336643,3389.9198 L393.214878,3383.477 L393.214878,3394.56481 C393.214878,3395.3574 393.846787,3396 394.626181,3396 C395.405575,3396 396.037484,3395.3574 396.037484,3394.56481 L396.037484,3383.4802 L402.912366,3389.91987 C403.183733,3390.17396 403.526328,3390.29944 403.868156,3390.29944 C404.24881,3390.29944 404.628416,3390.14371 404.906626,3389.83664 C405.434625,3389.25362 405.397964,3388.34571 404.824783,3387.80863 L396.037484,3379.57764 L396.037484,3367.39643 L406.31765,3373.43218 L408.955132,3385.38365 C409.102477,3386.05132 409.685015,3386.50489 410.33089,3386.50489 C410.433124,3386.50489 410.537244,3386.49353 410.641153,3386.46974 C411.401623,3386.29625 411.879902,3385.52859 411.709163,3384.75525 L409.641021,3375.38342 L419.132016,3380.9558 C419.354291,3381.08625 419.596888,3381.14839 419.836271,3381.14839 C420.324047,3381.14839 420.798555,3380.8909 421.059866,3380.43051 C421.449598,3379.74395 421.218315,3378.86629 420.54325,3378.46989 L420.54325,3378.46989 Z" id="Shape"></path>
        </g>
    </g>
</svg>