<?xml version="1.0" encoding="UTF-8" standalone="no"?>
<svg width="64px" height="64px" viewBox="0 0 64 64" version="1.1" xmlns="http://www.w3.org/2000/svg" xmlns:xlink="http://www.w3.org/1999/xlink">
    <!-- Generator: Sketch 3.8.3 (29802) - http://www.bohemiancoding.com/sketch -->
    <title>8</title>
    <desc>Created with Sketch.</desc>
    <defs>
        <linearGradient x1="50%" y1="0%" x2="50%" y2="100%" id="linearGradient-1">
            <stop stop-color="#EAE6C5" offset="0%"></stop>
            <stop stop-color="#D8C7A0" offset="100%"></stop>
        </linearGradient>
        <linearGradient x1="50%" y1="0%" x2="50%" y2="97.7459343%" id="linearGradient-2">
            <stop stop-color="#EDEDED" stop-opacity="0.8" offset="0%"></stop>
            <stop stop-color="#EDEDED" stop-opacity="0.9" offset="100%"></stop>
        </linearGradient>
    </defs>
    <g id="天气图标" stroke="none" stroke-width="1" fill="none" fill-rule="evenodd">
        <g id="天气图标_白色背景" transform="translate(-363.000000, -759.000000)">
            <g id="Group-4-Copy" transform="translate(365.000000, 765.000000)">
                <g id="Group">
                    <path d="M43.7045612,32.24 L43.7008581,32.2367696 C39.3248043,32.2120297 35.2143503,30.4969374 32.1167761,27.3999936 C28.9978105,24.2804371 27.28,20.1331882 27.28,15.7208124 C27.28,12.0935751 28.4444711,8.66961491 30.6488862,5.81979468 C31.7045094,4.45389794 32.968413,3.26468696 34.4043143,2.28379568 C35.8554613,1.29341026 37.447563,0.538605792 39.1375214,0.0415221296 C39.2310841,0.0136700121 39.3289802,0 39.4268369,0 C39.7318315,0 40.0196105,0.134651432 40.2157966,0.37023239 C40.4771024,0.685863568 40.5255973,1.12503685 40.3387479,1.49054187 C39.3311075,3.45456992 38.8619154,5.32550805 38.8619154,7.37990779 C38.8619154,14.7008809 44.8185282,20.6574937 52.1395013,20.6574937 C54.194492,20.6574937 56.0659028,20.1883016 58.0288672,19.1817249 C58.1735249,19.1075445 58.3349649,19.0686225 58.4963653,19.0686225 C58.7347434,19.0686225 58.9660302,19.1521788 59.1491767,19.3042034 C59.4637048,19.5650364 59.5931168,19.9879396 59.4783203,20.3818876 C58.9777305,22.0770856 58.222926,23.6691872 57.2356134,25.1157251 C56.2557858,26.5509961 55.0659444,27.8150178 53.7000478,28.8711532 C50.8503851,31.0754108 47.4263067,32.2398818 43.7991876,32.2398818 L43.7045612,32.2398818 L43.7045612,32.24 L43.7045612,32.24 Z" id="Shape" fill="url(#linearGradient-1)"></path>
                    <path d="M9.09333333,51.6 C4.07122401,51.6 0,47.4547537 0,42.3413333 C0,38.0194356 2.90837887,34.3891767 6.84109405,33.3688548 C7.28682273,24.1859269 14.7404517,16.88 23.87,16.88 C30.5506766,16.88 36.3339338,20.7921692 39.1304656,26.4892143 C40.0691353,26.2600409 41.0489799,26.1386667 42.0566667,26.1386667 C48.962067,26.1386667 54.56,31.8383803 54.56,38.8693333 C54.56,45.5101613 49.566055,50.9633836 43.1933333,51.5481017 L43.1933333,51.6 L9.09333333,51.6 L9.09333333,51.6 Z" id="Combined-Shape" fill="url(#linearGradient-2)"></path>
                </g>
            </g>
        </g>
    </g>
</svg>