<?xml version="1.0" encoding="UTF-8" standalone="no"?>
<svg width="64px" height="64px" viewBox="0 0 64 64" version="1.1" xmlns="http://www.w3.org/2000/svg" xmlns:xlink="http://www.w3.org/1999/xlink">
    <!-- Generator: Sketch 3.8.3 (29802) - http://www.bohemiancoding.com/sketch -->
    <title>99</title>
    <desc>Created with Sketch.</desc>
    <defs></defs>
    <g id="天气图标" stroke="none" stroke-width="1" fill="none" fill-rule="evenodd">
        <g id="天气图标_白色背景" transform="translate(-363.000000, -3505.000000)" fill="#C6C6C6">
            <path d="M383.193548,3545.03226 L383.258065,3545.03226 L383.258065,3525.58065 L385.580645,3525.58065 L385.580645,3548.41935 L382.677419,3548.41935 L369.387097,3528.77419 L369.322581,3528.77419 L369.322581,3548.41935 L367,3548.41935 L367,3525.58065 L369.903226,3525.58065 L383.193548,3545.03226 Z M390.645161,3549 L388.774194,3548.3871 L398.548387,3525 L400.387097,3525.64516 L390.645161,3549 Z M403.419355,3548.41935 L400.870968,3548.41935 L410.741935,3525.58065 L413,3525.58065 L422.806452,3548.41935 L420.225806,3548.41935 L417.709677,3542.41935 L405.903226,3542.41935 L403.419355,3548.41935 Z M406.774194,3540.29032 L416.83871,3540.29032 L411.806452,3528.16129 L406.774194,3540.29032 Z" id="N/A"></path>
        </g>
    </g>
</svg>