<svg class="icon" width="200" height="200" viewBox="0 0 1024 1024" version="1.1" xmlns="http://www.w3.org/2000/svg"><title>30</title><g class="nc-icon-wrapper"><path d="M551.52 534.47a207.24 207.24 0 1 0 414.48 0 207.24 207.24 0 1 0-414.48 0z" fill="#CEE9F4"/><path d="M137.51999999999998 534.47a207.24 207.24 0 1 0 414.48 0 207.24 207.24 0 1 0-414.48 0z" fill="#CEE9F4"/><path d="M718.76 737.71a223.24 223.24 0 1 1 157.85-65.38 221.77 221.77 0 0 1-157.85 65.38zm0-414.48c-105.45 0-191.24 85.79-191.24 191.24s85.79 191.24 191.24 191.24S910 619.92 910 514.47s-85.79-191.24-191.24-191.24z"/><path d="M304.76 737.71a223.24 223.24 0 1 1 157.85-65.38 221.77 221.77 0 0 1-157.85 65.38zm0-414.48c-105.45 0-191.24 85.79-191.24 191.24s85.79 191.24 191.24 191.24S496 619.92 496 514.47s-85.79-191.24-191.24-191.24z"/><path d="M98 214a18 18 0 1 0 36 0 18 18 0 1 0-36 0z"/><path d="M494 214a18 18 0 1 0 36 0 18 18 0 1 0-36 0z"/><path d="M890 214a18 18 0 1 0 36 0 18 18 0 1 0-36 0z"/><path d="M98 815a18 18 0 1 0 36 0 18 18 0 1 0-36 0z"/><path d="M494 815a18 18 0 1 0 36 0 18 18 0 1 0-36 0z"/><path d="M890 815a18 18 0 1 0 36 0 18 18 0 1 0-36 0z"/></g></svg>