<svg class="icon" width="200" height="200" viewBox="0 0 1024 1024" version="1.1" xmlns="http://www.w3.org/2000/svg"><title>32</title><g class="nc-icon-wrapper"><path d="M431.71 259.96a75.3 75.3 0 1 0 150.6 0 75.3 75.3 0 1 0-150.6 0z" fill="#F7D134"/><path d="M316.14 469.63a75.3 75.3 0 1 0 150.6 0 75.3 75.3 0 1 0-150.6 0z" fill="#CEE9F4"/><path d="M485.42 330.68a91.29 91.29 0 1 1 91.33-93.38 91.4 91.4 0 0 1-89.19 93.36zm.09-150.59h-1.39A59.3 59.3 0 1 0 544.75 238a59.29 59.29 0 0 0-59.24-57.94zM369.84 540.36A91.29 91.29 0 1 1 461.17 447 91.29 91.29 0 0 1 372 540.33c-.73.02-1.44.03-2.16.03zm.1-150.6h-1.39a59.3 59.3 0 1 0 60.63 57.93 59.31 59.31 0 0 0-59.24-57.95zm378.95 231.72H115a16 16 0 0 1 0-32h633.89a16 16 0 0 1 0 32zM910 751H115a16 16 0 0 1 0-32h795a16 16 0 0 1 0 32z"/><path d="M741.52 621.48a16 16 0 0 1 0-32C825.6 589.48 894 521.08 894 437s-68.4-152.47-152.48-152.47a151.3 151.3 0 0 0-122 61.05 16 16 0 0 1-25.6-19.21 186.07 186.07 0 0 1 63.78-53.72 182.52 182.52 0 0 1 83.85-20.12C843.24 252.53 926 335.29 926 437s-82.76 184.48-184.48 184.48z"/></g></svg>