<svg class="icon" width="200" height="200" viewBox="0 0 1024 1024" version="1.1" xmlns="http://www.w3.org/2000/svg"><title>34</title><g class="nc-icon-wrapper"><path d="M579.17 190.68c41-77.73 95.33-96 95.33-96-240 0-434.5 194.53-434.5 434.5 0 186.47 150.78 337.7 337.06 338.48C536.11 945 482 963.17 482 963.17c240 0 434.5-194.54 434.5-434.5l.5.5C917 342.44 765.81 191 579.17 190.68zm-.67 468A129.5 129.5 0 1 1 708 529.17a129.5 129.5 0 0 1-129.5 129.5z" fill="#CEE9F4"/><path d="M449 529.17a129.5 129.5 0 1 0 259 0 129.5 129.5 0 1 0-259 0z" fill="#F7D134"/><path d="M538.5 654.67c-80.23 0-145.5-65.27-145.5-145.5s65.27-145.5 145.5-145.5S684 428.94 684 509.17s-65.27 145.5-145.5 145.5zm0-259A113.5 113.5 0 1 0 652 509.17a113.63 113.63 0 0 0-113.5-113.5z"/><path d="M442 959.17a16.08 16.08 0 0 1-15.91-13.49A15.89 15.89 0 0 1 436.84 928c1.49-.55 38.88-14.76 72.79-65.52A354.55 354.55 0 0 1 184 509.17a450.14 450.14 0 0 1 450.5-450.5 16.07 16.07 0 0 1 15.91 13.48 15.88 15.88 0 0 1-10.75 17.66c-1.58.58-39.13 14.9-73.07 65.95A354.22 354.22 0 0 1 893 509.17a16 16 0 0 1-.52 4.05A450.14 450.14 0 0 1 442 959.17zM576.14 94.72C372.91 123.2 216 298.21 216 509.17c0 177.08 144.06 321.74 321.13 322.48a16 16 0 0 1 14.07 23.49c-16.11 30.42-34.27 52.37-50.85 68C703.59 894.63 860.5 719.63 860.5 508.67a15.94 15.94 0 0 1 .47-3.86C858.64 329.33 715.16 187 539.14 186.67A16 16 0 0 1 525 163.21c16.21-30.69 34.47-52.79 51.14-68.49z"/></g></svg>