<svg class="icon" width="200" height="200" viewBox="0 0 1024 1024" version="1.1" xmlns="http://www.w3.org/2000/svg"><title>15</title><g class="nc-icon-wrapper"><path d="M723 255.4c-30.5 0-59.3 7.2-84.8 19.9-38.5-98.9-134.6-169-247.1-169-146.5 0-265.2 118.7-265.2 265.2s118.7 265.2 265.2 265.2H723c105.3 0 190.6-85.3 190.6-190.6S828.3 255.4 723 255.4z" fill="#90E6F4"/><path d="M391.1 646.1c-63.5 0-125.4-22.2-174.3-62.6-3.6-2.9-4.1-8.2-1.1-11.8 2.9-3.6 8.2-4.1 11.8-1.1 45.9 37.9 104 58.8 163.7 58.8 4.6 0 8.4 3.7 8.4 8.4-.2 4.5-3.9 8.3-8.5 8.3zm151-128c-3.5 0-6.7-2.2-7.9-5.6-7.4-21.2-11.2-43.4-11.2-65.9 0-74.1 39.9-140.6 104.7-175.6-40.6-95.2-132.7-156.3-236.6-156.3-61 0-120.2 21.7-166.6 61.2-3.5 3-8.8 2.6-11.8-1-3-3.5-2.6-8.8 1-11.8C263 121.2 326.1 98 391.1 98c113.4 0 213.6 68.3 255.1 173.9l2.8 7.2-6.9 3.4c-63.1 31-102.3 93.9-102.3 164.1 0 20.6 3.5 40.9 10.3 60.4 1.5 4.4-.8 9.1-5.1 10.7-1.1.2-2 .4-2.9.4z" fill="#54686B"/><path d="M722.5 646.1c-4.6 0-8.4-3.7-8.4-8.4 0-4.6 3.7-8.4 8.4-8.4 100.8 0 182.8-82 182.8-182.8s-82-182.8-182.8-182.8c-28.2 0-55.3 6.3-80.5 18.6-4.2 2.1-9.2.3-11.2-3.8s-.3-9.2 3.8-11.2c27.5-13.5 57.1-20.4 87.8-20.4 110 0 199.5 89.5 199.5 199.5s-89.4 199.7-199.4 199.7z" fill="#54686B"/><path d="M722.5 646.1h-61.3c-4.6 0-8.4-3.7-8.4-8.4 0-4.6 3.7-8.4 8.4-8.4h61.3c4.6 0 8.4 3.7 8.4 8.4 0 4.6-3.8 8.4-8.4 8.4zm-257.2 0h-74.2c-4.6 0-8.4-3.7-8.4-8.4 0-4.6 3.7-8.4 8.4-8.4h74.2c4.6 0 8.4 3.7 8.4 8.4-.1 4.6-3.8 8.4-8.4 8.4z" fill="#54686B"/><path d="M645.3 848.3c0 59.2-48 107.2-107.2 107.2s-107.2-48-107.2-107.2 48-179.9 107.2-179.9 107.2 120.7 107.2 179.9zm-270.5-58.4c0 40-32.4 72.4-72.4 72.4-40 0-72.4-32.4-72.4-72.4 0-40 32.4-121.5 72.4-121.5 40 0 72.4 81.5 72.4 121.5zm468.2 0c0 40-32.4 72.4-72.4 72.4-40 0-72.4-32.4-72.4-72.4 0-40 32.4-121.5 72.4-121.5 40 0 72.4 81.5 72.4 121.5z" fill="#90E6F4"/><path d="M586 952.6c-3.1 0-6-1.7-7.5-4.6-2.1-4.1-.4-9.2 3.7-11.2 33.7-16.8 54.7-50.7 54.7-88.4 0-56.5-45.7-171.5-98.8-171.5-20 0-37.5 17.3-48.7 31.8-2.8 3.7-8.1 4.3-11.7 1.5-3.7-2.8-4.3-8.1-1.5-11.7 19.3-25.1 40.7-38.3 61.9-38.3 65.6 0 115.5 125.5 115.5 188.2 0 44.1-24.5 83.7-63.9 103.4-1.2.5-2.4.8-3.7.8z" fill="#54686B"/></g></svg>