<svg class="icon" width="200" height="200" viewBox="0 0 1024 1024" version="1.1" xmlns="http://www.w3.org/2000/svg"><title>richu</title><g class="nc-icon-wrapper"><path d="M769 441.8c0 156.2-126.6 282.8-282.8 282.8-156.2.1-282.8-126.6-282.8-282.8C203.4 285.6 330 159 486.2 159 642.4 159 769 285.6 769 441.8z" fill="#F9B95A"/><path d="M769 450.7c-4.9 0-8.9-4-8.9-8.9 0-91.1-45.2-176.1-120.8-227.2-4.1-2.7-5.1-8.3-2.4-12.3 2.7-4.1 8.2-5.1 12.3-2.4 80.5 54.4 128.6 144.8 128.6 241.9.1 4.9-3.9 8.9-8.8 8.9z" fill="#705B57"/><path d="M927.2 545.5H80.8c-21.2 0-38.5 16.5-38.5 37.8 0 21.3 17.2 37.8 38.5 37.8h423.4c6.8.1 12.4 5.7 12.4 12.6 0 6.9-5.5 12.4-12.4 12.6H330.9c-21.3 0-38.5 20.7-38.5 42s17.2 42 38.5 42H177c-21.2 0-38.5 20.7-38.5 42s17.2 42 38.5 42h500.1c21.3 0 38.5-20.7 38.5-42s-17.2-42-38.5-42H831c21.2 0 38.5-20.7 38.5-42 0-21.2-17.2-42-38.5-42h-32.8c-7 0-12.6-5.6-12.6-12.6s5.6-12.6 12.6-12.6h129c21.3 0 38.5-16.5 38.5-37.8 0-21.3-17.2-37.8-38.5-37.8z" fill="#AEF4E4"/><path d="M676.9 823.1c-4.9 0-8.9-4-8.9-8.9s4-8.9 8.9-8.9c15.5 0 29.6-15.8 29.6-33.1s-14.1-33.1-29.6-33.1c-4.9 0-8.9-4-8.9-8.9s4-8.9 8.9-8.9h153.9c15.5 0 29.6-15.8 29.6-33.1s-14.1-33.1-29.6-33.1H798c-11.8 0-21.5-9.6-21.5-21.5s9.6-21.5 21.5-21.5h129c16.6 0 29.6-12.7 29.6-28.9s-13-28.9-29.6-28.9H126.5c-4.9 0-8.9-4-8.9-8.9s4-8.9 8.9-8.9H927c26.5 0 47.3 20.5 47.3 46.7s-20.8 46.7-47.3 46.7H798c-2.1 0-3.7 1.7-3.7 3.7 0 2.1 1.7 3.7 3.7 3.7h32.8c25.2 0 47.3 23.8 47.3 50.9 0 27.1-22.1 50.9-47.3 50.9H712.2c7.4 9 12 20.7 12 33.1.1 27.1-22.1 50.9-47.3 50.9zm-236.7 0H176.8c-25.2 0-47.3-23.8-47.3-50.9 0-4.9 4-8.9 8.9-8.9s8.9 4 8.9 8.9c0 17.3 14.1 33.1 29.6 33.1h263.4c4.9 0 8.9 4 8.9 8.9s-4.1 8.9-9 8.9z" fill="#54686B"/></g></svg>