<svg class="icon" width="200" height="200" viewBox="0 0 1024 1024" version="1.1" xmlns="http://www.w3.org/2000/svg"><title>34</title><g class="nc-icon-wrapper"><path d="M949.7 301.5c0-59.7-199.1-108.1-444.8-108.1-245.6 0-444.8 48.4-444.8 108.1 0 22.8 29.2 44 78.8 61.4-22.5 14-35.4 29.6-35.4 46.1 0 33.8 52.7 64 135.1 83.8-38 16.3-60.8 37.1-60.8 59.7 0 37.4 62.3 69.7 152.7 85.3-2.6 5.5-4 11.1-4 16.9 0 18.8 14.5 36.2 39 50.5-22.1 12.5-35.4 28.4-35.4 45.8 0 40 70.5 72.5 157.4 72.5S644.9 791 644.9 751c0-6.4-2-12.7-5.4-18.6 67.8-14.7 114-44 114-77.7 0-22.9-21.4-43.6-56.2-59.3 18.9-12.9 29.7-27.5 29.7-43 0-20.3-18.4-39-49.5-54.5 95.9-19.5 158.8-52.1 158.8-89 0-10.9-5.6-21.4-15.8-31.4 79.8-19.4 129.2-46.3 129.2-76z" fill="#BDF9F3"/><path d="M504.9 419.2c-96.9 0-189.2-7.4-266.8-21.4-5.3-1-8.7-6-7.8-11.2 1-5.3 5.9-8.7 11.2-7.8 76.5 13.8 167.6 21.1 263.4 21.1 256.4 0 435.1-51.9 435.1-98.4 0-33.5-98.6-76-287.1-92.3-5.3-.5-9.3-5.1-8.8-10.5.5-5.3 5-9.4 10.5-8.8 147.4 12.7 304.8 48.7 304.8 111.5-.1 76.5-234.2 117.8-454.5 117.8z" fill="#54686B"/><path d="M166.7 479.4c-1.3 0-2.6-.3-3.8-.8-45.1-19.6-69-43.6-69-69.6 0-43.3 66-80.2 181-101.3 5.4-1 10.3 2.5 11.2 7.8 1 5.2-2.5 10.3-7.8 11.2C178 345.1 113.1 377.4 113.1 409c0 17.4 20.4 35.8 57.4 51.8 4.9 2.1 7.1 7.8 5 12.7-1.6 3.7-5.1 5.9-8.8 5.9zm303.2 47.4c-29 0-57.8-1-85.7-3-5.3-.4-9.3-5-9-10.3.4-5.3 4.7-9.5 10.3-9 27.4 1.9 55.8 2.9 84.3 2.9 210.2 0 356.7-51.9 356.7-98.4 0-28.7-59-66.6-190.9-86.6-5.3-.8-8.9-5.7-8.1-11 .8-5.3 5.7-8.9 11-8.1C768.3 323 845.8 362.5 845.8 409c.1 76.5-193.7 117.8-375.9 117.8z" fill="#54686B"/><path d="M452.3 657.5c-32.4 0-64.2-1.9-94.5-5.7-5.3-.7-9-5.5-8.4-10.8.7-5.3 5.5-9 10.8-8.4 29.5 3.7 60.5 5.6 92.1 5.6 156.1 0 264.9-45.1 264.9-85.6 0-26.5-45.5-54-115.9-70.1-5.2-1.2-8.5-6.4-7.3-11.6 1.2-5.2 6.3-8.5 11.6-7.3 83.2 19.1 130.9 51.5 130.9 89 .1 65.6-144.4 104.9-284.2 104.9zm142.4 91.8c-4.9 0-9.1-3.7-9.6-8.6-.6-5.3 3.3-10.1 8.6-10.6 86.9-9.5 150.1-41.2 150.1-75.3 0-16.3-14.8-29.6-27.2-37.9-4.4-3-5.6-9-2.7-13.4 3-4.4 9-5.6 13.4-2.7 23.4 15.7 35.8 34.3 35.8 54 0 45.6-67.2 83.6-167.3 94.5h-1.1zm-107.3 83.9c-93.7 0-167.1-36.1-167.1-82.2 0-5.3 4.3-9.7 9.7-9.7s9.7 4.3 9.7 9.7c0 30.4 59.4 62.8 147.7 62.8 42.1 0 82.6-8.1 111-22.1 4.8-2.4 10.6-.4 13 4.4 2.4 4.8.4 10.6-4.4 13-31.5 15.5-74 24.1-119.6 24.1z" fill="#54686B"/></g></svg>