<svg class="icon" width="200" height="200" viewBox="0 0 1024 1024" version="1.1" xmlns="http://www.w3.org/2000/svg"><title>37</title><g class="nc-icon-wrapper"><path d="M575.6 559.3V144.1c0-37.4-30.6-68-68-68s-68 30.6-68 68v413.2C361 584.4 304.4 658.9 304.4 746.7c0 110.8 89.8 200.6 200.6 200.6s200.6-89.8 200.6-200.6c-.1-85.8-54.2-158.8-130-187.4z" fill="#ACE0F9"/><path d="M504.9 959.6c-65.5 0-126.5-29.5-167.1-81-4.2-5.3-3.3-13 2-17.2 5.3-4.2 13-3.3 17.2 2 36 45.6 89.9 71.7 147.9 71.7 103.8 0 188.3-84.5 188.3-188.3 0-77.8-49-148.5-121.9-176-4.8-1.8-7.9-6.4-7.9-11.5V144.1c0-30.7-25-55.8-55.8-55.8-30.8 0-55.8 25-55.8 55.8v28.2c0 6.8-5.5 12.2-12.2 12.2s-12.2-5.5-12.2-12.2v-28.2c0-44.3 36-80.3 80.3-80.3s80.3 36 80.3 80.3V551c78 33.1 129.9 110.7 129.9 195.8-.2 117.3-95.6 212.8-213 212.8z" fill="#54686B"/><path d="M524.4 271.2h-65.3c-6.8 0-12.2-5.5-12.2-12.2s5.5-12.2 12.2-12.2h65.3c6.8 0 12.2 5.5 12.2 12.2s-5.4 12.2-12.2 12.2zm0 52.7h-65.3c-6.8 0-12.2-5.5-12.2-12.2s5.5-12.2 12.2-12.2h65.3c6.8 0 12.2 5.5 12.2 12.2s-5.4 12.2-12.2 12.2zm0 52.7h-65.3c-6.8 0-12.2-5.5-12.2-12.2s5.5-12.2 12.2-12.2h65.3c6.8 0 12.2 5.5 12.2 12.2s-5.4 12.2-12.2 12.2zm0 52.7h-65.3c-6.8 0-12.2-5.5-12.2-12.2s5.5-12.2 12.2-12.2h65.3c6.8 0 12.2 5.5 12.2 12.2s-5.4 12.2-12.2 12.2zm0 52.7h-65.3c-6.8 0-12.2-5.5-12.2-12.2s5.5-12.2 12.2-12.2h65.3c6.8 0 12.2 5.5 12.2 12.2s-5.4 12.2-12.2 12.2zm0 52.7h-65.3c-6.8 0-12.2-5.5-12.2-12.2 0-6.8 5.5-12.2 12.2-12.2h65.3c6.8 0 12.2 5.5 12.2 12.2.1 6.8-5.4 12.2-12.2 12.2z" fill="#B1B2B2"/></g></svg>