<svg class="icon" width="200" height="200" viewBox="0 0 1024 1024" version="1.1" xmlns="http://www.w3.org/2000/svg"><title>4</title><g class="nc-icon-wrapper"><path d="M949.9 546.4c0-99.6-80.8-180.4-180.4-180.4-28.8 0-56.1 6.8-80.3 18.8-36.5-93.6-127.4-159.9-233.9-159.9-81.2 0-153.1 38.7-199 98.4C150.7 352.9 73 452.9 73 568c0 138.6 112.4 254.2 251 254.2h314.2c67 0 125.4-39.8 156.5-94.1 87.7-12.3 155.2-90.6 155.2-181.7z" fill="#90E6F4"/><path d="M324.2 825.7c-52.3 0-102.7-15.4-145.8-44.6-4.3-2.9-5.4-8.8-2.5-13.1 2.9-4.3 8.7-5.4 13.1-2.5 40 27 86.8 41.3 135.3 41.3 5.2 0 9.4 4.2 9.4 9.4s-4.3 9.5-9.5 9.5zm143-121.2c-3.9 0-7.5-2.4-8.9-6.3-7.1-20.3-10.7-41.4-10.7-62.8 0-70.2 37.6-133.3 98.7-166.8-38.4-88.8-124.7-145.8-222.1-145.8-53.9 0-104.9 17.3-147.5 50.1-4.1 3.2-10 2.4-13.2-1.7-3.2-4.1-2.4-10 1.7-13.2 45.9-35.4 100.9-54.1 159-54.1 108 0 203.3 65 242.8 165.5l3.2 8.1-7.8 3.8c-59.2 29.1-96 88.1-96 154 0 19.3 3.2 38.4 9.6 56.6 1.7 4.9-.9 10.3-5.8 12-1 .4-2 .6-3 .6z" fill="#54686B"/><path d="M637.9 825.7c-5.2 0-9.4-4.2-9.4-9.4s4.2-9.4 9.4-9.4c94.6 0 171.5-76.9 171.5-171.5s-76.9-171.5-171.5-171.5c-26.5 0-51.8 5.9-75.5 17.5-4.7 2.3-10.3.4-12.6-4.3-2.3-4.7-.4-10.3 4.3-12.6 26.2-12.9 54.4-19.4 83.8-19.4 104.9 0 190.3 85.4 190.3 190.3s-85.4 190.3-190.3 190.3z" fill="#54686B"/><path d="M637.9 825.7h-44.8c-5.2 0-9.4-4.2-9.4-9.4s4.2-9.4 9.4-9.4h44.8c5.2 0 9.4 4.2 9.4 9.4s-4.2 9.4-9.4 9.4zm-254.8 0h-58.9c-5.2 0-9.4-4.2-9.4-9.4s4.2-9.4 9.4-9.4h58.9c5.2 0 9.4 4.2 9.4 9.4s-4.2 9.4-9.4 9.4z" fill="#54686B"/><path d="M689.4 394.3c-3.7 0-7.3-2.3-8.8-6-28-71.1-88.6-125.5-162.2-145.3-5-1.3-8-6.5-6.6-11.5 1.3-5 6.5-8 11.5-6.6 79.4 21.4 144.7 79.9 174.9 156.5 1.9 4.8-.5 10.3-5.3 12.2-1.2.5-2.4.7-3.5.7z" fill="#54686B"/><path d="M943.6 604.6c-.8 0-1.7-.1-2.5-.3-5-1.4-8-6.5-6.6-11.6 4-14.7 6.1-29.9 6.1-45.3 0-94.6-76.9-171.5-171.5-171.5-26.4 0-51.8 5.9-75.5 17.5-4.7 2.3-10.3.4-12.6-4.3-2.3-4.7-.4-10.3 4.3-12.6 26.3-12.9 54.4-19.4 83.8-19.4 104.9 0 190.3 85.4 190.3 190.3 0 17.1-2.3 34-6.7 50.3-1.2 4.2-5 6.9-9.1 6.9z" fill="#54686B"/></g></svg>