<svg class="icon" width="200" height="200" viewBox="0 0 1024 1024" version="1.1" xmlns="http://www.w3.org/2000/svg"><title>9</title><g class="nc-icon-wrapper"><path d="M920.9 601.5c0 114.8-93.1 207.9-207.9 207.9H350.8C191.1 809.4 61.7 680 61.7 520.2 61.7 360.5 191.1 231 350.9 231c122.7 0 227.5 76.5 269.5 184.3 27.9-13.9 59.3-21.7 92.5-21.7 114.9 0 208 93.1 208 207.9z" fill="#B5E5EA"/><path d="M351.5 818.7c-85.5 0-167-36.7-223.8-100.7-3.4-3.8-3-9.6.8-12.9 3.8-3.4 9.6-3 12.9.8 53.3 60.1 129.8 94.6 210.1 94.6 5.1 0 9.2 4.1 9.2 9.2-.1 4.9-4.2 9-9.2 9zm167.7-140.1c4.8-1.7 7.3-6.9 5.6-11.7-7.4-21.2-11.2-43.4-11.2-65.8 0-76.6 42.8-145.2 111.6-179l7.6-3.7-3.1-7.8c-45.3-115.2-154.5-189.7-278.2-189.7-42.6 0-83.7 8.8-122.2 26.1-4.6 2.1-6.7 7.5-4.6 12.1 2.1 4.6 7.5 6.6 12.1 4.6 36.2-16.2 74.8-24.4 114.7-24.4 113.4 0 213.8 66.6 258.1 170.4-70.7 38.1-114.2 110.7-114.2 191.5 0 24.5 4.1 48.7 12.2 71.9 1.3 3.8 4.8 6.1 8.6 6.1 1-.1 2-.3 3-.6zm411.4-77.5c0-120-97.6-217.6-217.6-217.6-33.6 0-65.8 7.5-95.8 22.2-4.5 2.2-6.4 7.7-4.2 12.3 2.2 4.5 7.7 6.4 12.3 4.2 27.5-13.5 57-20.3 87.7-20.3 109.9 0 199.3 89.4 199.3 199.3S822.9 800.4 713 800.4c-5.1 0-9.2 4.1-9.2 9.2s4.1 9.2 9.2 9.2c120-.1 217.6-97.7 217.6-217.7z" fill="#54686B"/><path d="M713 818.7h-45.3c-5.1 0-9.2-4.1-9.2-9.2s4.1-9.2 9.2-9.2H713c5.1 0 9.2 4.1 9.2 9.2-.1 5.1-4.2 9.2-9.2 9.2zm-319.3 0h-42.2c-5.1 0-9.2-4.1-9.2-9.2s4.1-9.2 9.2-9.2h42.2c5.1 0 9.2 4.1 9.2 9.2-.1 5.1-4.1 9.2-9.2 9.2z" fill="#54686B"/></g></svg>