<?xml version="1.0" standalone="no"?><!DOCTYPE svg PUBLIC "-//W3C//DTD SVG 1.1//EN" "http://www.w3.org/Graphics/SVG/1.1/DTD/svg11.dtd"><svg t="1571654174026" class="icon" viewBox="0 0 1024 1024" version="1.1" xmlns="http://www.w3.org/2000/svg" p-id="1304" xmlns:xlink="http://www.w3.org/1999/xlink" width="200" height="200"><defs><style type="text/css"></style></defs><path d="M686.4 380.8c-36 0-69.6 6.4-101.6 17.6-22.4-11.2-47.2-17.6-72.8-17.6s-49.6 6.4-72.8 17.6c-32-11.2-66.4-17.6-101.6-17.6C168.8 380.8 32 517.6 32 686.4S168.8 992 337.6 992c36 0 69.6-6.4 101.6-17.6 22.4 11.2 47.2 17.6 72.8 17.6s49.6-6.4 72.8-17.6c32 11.2 66.4 17.6 101.6 17.6 168.8 0 305.6-136.8 305.6-305.6s-136.8-305.6-305.6-305.6z" fill="#FFAB5F" p-id="1305"></path><path d="M336 504m-24 0a24 24 0 1 0 48 0 24 24 0 1 0-48 0Z" fill="#444B54" p-id="1306"></path><path d="M686.4 968c-13.6 0-27.2-0.8-40.8-3.2-12.8-1.6-22.4-14.4-20-27.2 1.6-12.8 14.4-22.4 27.2-20 11.2 1.6 22.4 2.4 33.6 2.4 128.8 0 233.6-104.8 233.6-233.6 0-13.6 10.4-24 24-24s24 10.4 24 24c0 155.2-126.4 281.6-281.6 281.6z" fill="#E57451" p-id="1307"></path><path d="M732.8 756c-4-8-12-12-20.8-12H624c-13.6 0-24 10.4-24 24v16c0 8.8-7.2 16-16 16h-56c-8.8 0-16-7.2-16-16v-16c0-13.6-10.4-24-24-24H312c-8.8 0-16.8 4.8-20.8 12-4 8-4 16.8 0.8 24 48 76.8 130.4 122.4 220 122.4s172.8-45.6 220-122.4c4.8-6.4 5.6-16 0.8-24z" fill="#444B54" p-id="1308"></path><path d="M699.2 552.8c-9.6 0-18.4-5.6-22.4-14.4-15.2-34.4-35.2-64-58.4-86.4-9.6-8.8-9.6-24-0.8-33.6 8.8-9.6 24-9.6 33.6-0.8 28 27.2 52 62.4 69.6 102.4 5.6 12 0 26.4-12.8 31.2-2.4 0.8-5.6 1.6-8.8 1.6z" fill="#E57451" p-id="1309"></path><path d="M686.4 356.8c-34.4 0-68 5.6-100 16-16-7.2-32.8-12-50.4-13.6v-64.8c0-35.2 28-63.2 63.2-63.2 13.6 0 24-10.4 24-24s-10.4-24-24-24c-61.6 0-111.2 49.6-111.2 111.2v64.8c-16.8 2.4-33.6 7.2-50.4 14.4-0.8 0-0.8-0.8-1.6-0.8-32-10.4-64.8-15.2-99.2-15.2C156 356.8 8 504.8 8 686.4 8 868 156 1016 337.6 1016c34.4 0 68.8-5.6 101.6-16 4 1.6 7.2 2.4 9.6 4 20.8 8 32.8 12 63.2 12 25.6 0 50.4-5.6 74.4-16 32 10.4 66.4 16 100 16 181.6 0 329.6-148 329.6-329.6 0-181.6-148-329.6-329.6-329.6z m0 611.2c-15.2 0-29.6-0.8-44-3.2 4-3.2 7.2-6.4 11.2-10.4l2.4-2.4c8-8 10.4-21.6 3.2-31.2-8.8-12.8-26.4-13.6-36.8-3.2l-2.4 2.4c-32 31.2-69.6 48-108 48-23.2 0-29.6-2.4-45.6-8.8-5.6-2.4-11.2-4.8-19.2-7.2h-0.8c-4.8-1.6-10.4-1.6-15.2 0-31.2 11.2-64 16.8-98.4 16-144-2.4-265.6-116-276.8-259.2-12-165.6 119.2-304 281.6-304 12 0 24 0.8 36 2.4 3.2 0.8 5.6 4 4 7.2-4.8 8.8-3.2 20 4.8 28 8.8 8.8 23.2 8.8 32.8 0.8 29.6-24.8 63.2-38.4 96.8-38.4 37.6 0 74.4 16 106.4 46.4 4.8 4.8 10.4 6.4 16.8 6.4s13.6-2.4 18.4-8c8.8-9.6 7.2-24.8-2.4-33.6-3.2-3.2-1.6-8 3.2-8.8 11.2-1.6 21.6-1.6 32.8-1.6 155.2 0 281.6 126.4 281.6 281.6S841.6 968 686.4 968z" fill="#444B54" p-id="1310"></path><path d="M134.4 552.8c-4.8 0-10.4-1.6-14.4-4.8-10.4-8-12-23.2-4-33.6 36-45.6 84-79.2 138.4-96a24.296 24.296 0 0 1 14.4 46.4c-45.6 14.4-85.6 41.6-115.2 80-5.6 4.8-12.8 8-19.2 8z" fill="#FFFFFF" p-id="1311"></path><path d="M88 624m-24 0a24 24 0 1 0 48 0 24 24 0 1 0-48 0Z" fill="#FFFFFF" p-id="1312"></path><path d="M428.8 660l-48-80C376 572.8 368.8 568 360 568s-16 4.8-20.8 12l-48 80c-4.8 7.2-4.8 16.8 0 24 4 7.2 12 12 20.8 12h96c8.8 0 16.8-4.8 20.8-12 4-8 4-16.8 0-24zM732.8 660l-48-80C680 572.8 672.8 568 664 568s-16 4.8-20.8 12l-48 80c-4.8 7.2-4.8 16.8 0 24 4 7.2 12 12 20.8 12h96c8.8 0 16.8-4.8 20.8-12 4-8 4-16.8 0-24z" fill="#444B54" p-id="1313"></path></svg>