<?xml version="1.0" standalone="no"?><!DOCTYPE svg PUBLIC "-//W3C//DTD SVG 1.1//EN" "http://www.w3.org/Graphics/SVG/1.1/DTD/svg11.dtd"><svg t="1571668263076" class="icon" viewBox="0 0 1024 1024" version="1.1" xmlns="http://www.w3.org/2000/svg" p-id="1036" xmlns:xlink="http://www.w3.org/1999/xlink" width="200" height="200"><defs><style type="text/css"></style></defs><path d="M938.4 272H752v4.8C752 146.4 649.6 36 518.4 32 383.2 28 272 137.6 272 272H85.6c-23.2 0-44.8 14.4-51.2 36.8-6.4 22.4 2.4 45.6 20.8 58.4L272 512v160h1.6c0.8 184.8 109.6 333.6 207.2 218.4 115.2-136.8 157.6-136.8 195.2-91.2 57.6 70.4 141.6 112.8 232 112.8 28.8 0 52-23.2 52-52v-8c0-32.8-27.2-60-60-60H776.8c-13.6 0-24.8-11.2-24.8-24.8V586.4c0-46.4 23.2-90.4 62.4-116l154.4-103.2c18.4-12.8 28-36 20.8-58.4-6.4-22.4-28-36.8-51.2-36.8z" fill="#FFFFFF" p-id="1037"></path><path d="M472 272m-32 0a32 32 0 1 0 64 0 32 32 0 1 0-64 0Z" fill="#444B54" p-id="1038"></path><path d="M632 272m-32 0a32 32 0 1 0 64 0 32 32 0 1 0-64 0Z" fill="#444B54" p-id="1039"></path><path d="M408.8 955.2c-12.8 0-24-2.4-32-5.6-73.6-27.2-127.2-143.2-127.2-277.6-0.8-8.8 3.2-16.8 10.4-21.6 11.2-7.2 25.6-4.8 32.8 6.4v0.8c2.4 4 4 8.8 4 12.8 0 96 36.8 212.8 96 234.4 22.4 8 45.6-1.6 68.8-28.8 76-90.4 124.8-127.2 167.2-127.2 32 0 52 20.8 64.8 36 54.4 66.4 132 104 213.6 104 15.2 0 28-12.8 28-28v-8c0-20-16-36-36-36H872c-13.6 0-24-10.4-24-24s10.4-24 24-24h28c46.4 0 84 37.6 84 84v8c0 41.6-34.4 76-76 76-96 0-187.2-44-251.2-121.6-13.6-16-21.6-18.4-28-18.4-24.8 0-68.8 36.8-130.4 110.4-32.8 37.6-64.8 48-89.6 48z" fill="#444B54" p-id="1040"></path><path d="M752 776c-13.6 0-24-10.4-24-24V574.4c0-47.2 23.2-90.4 62.4-116.8 11.2-7.2 25.6-4 33.6 6.4s4 25.6-6.4 33.6c-25.6 16.8-40.8 45.6-40.8 76.8V752c-0.8 13.6-11.2 24-24.8 24zM883.2 448.8c-8 0-15.2-4-20-10.4-7.2-11.2-4-25.6 6.4-33.6l32-21.6c11.2-7.2 25.6-4 33.6 6.4 7.2 11.2 4 25.6-6.4 33.6l-32 21.6c-4.8 2.4-8.8 4-13.6 4z" fill="#444B54" p-id="1041"></path><path d="M937.6 248H782.4c-4 0-7.2-3.2-8-7.2C758.4 109.6 647.2 8 512 8S265.6 109.6 249.6 240.8c-0.8 4-4 7.2-8 7.2H86.4C44 248 8 280.8 8 323.2c0 25.6 12 50.4 33.6 64.8l160 107.2c29.6 20 44.8 54.4 45.6 90.4 0 13.6 11.2 24 24.8 23.2 12.8-0.8 23.2-12.8 23.2-25.6-0.8-52.8-27.2-100.8-70.4-130.4l-156-104c-6.4-5.6-12-12.8-12.8-21.6-1.6-16.8 12-31.2 28-31.2H240c4.8 0 8 3.2 8 8v47.2c0 12 8 22.4 19.2 24.8 15.2 3.2 28.8-8.8 28.8-23.2v-75.2C296 160 386.4 60.8 503.2 56 626.4 51.2 728 150.4 728 272c0 12.8 11.2 24 24 24h186.4c13.6 0 25.6 8.8 28.8 22.4 2.4 11.2-2.4 23.2-12 29.6-8 5.6-12.8 14.4-11.2 23.2 2.4 13.6 12.8 20.8 24 20.8 4.8 0 9.6-1.6 13.6-4 21.6-14.4 34.4-38.4 33.6-64.8 0-42.4-36-75.2-77.6-75.2z" fill="#444B54" p-id="1042"></path><path d="M552 488c-61.6 0-112-50.4-112-112 0-13.6 10.4-24 24-24h176c13.6 0 24 10.4 24 24 0 61.6-50.4 112-112 112z" fill="#444B54" p-id="1043"></path><path d="M620.8 464c-13.6-24-40-40-68.8-40s-55.2 16-68.8 40c19.2 15.2 43.2 24 68.8 24s50.4-8.8 68.8-24z" fill="#EE5055" p-id="1044"></path><path d="M483.2 464c19.2 15.2 43.2 24 68.8 24v-64c-29.6 0-55.2 16-68.8 40z" fill="#FFFFFF" opacity=".3" p-id="1045"></path></svg>