<?xml version="1.0" standalone="no"?><!DOCTYPE svg PUBLIC "-//W3C//DTD SVG 1.1//EN" "http://www.w3.org/Graphics/SVG/1.1/DTD/svg11.dtd"><svg t="1571668290920" class="icon" viewBox="0 0 1024 1024" version="1.1" xmlns="http://www.w3.org/2000/svg" p-id="1172" xmlns:xlink="http://www.w3.org/1999/xlink" width="200" height="200"><defs><style type="text/css"></style></defs><path d="M519.2 528.8c-6.4 0-12-2.4-16.8-7.2-9.6-9.6-9.6-24.8 0-33.6l164-164c4-4 10.4-7.2 16.8-7.2l76.8-1.6 1.6-76.8c0-6.4 2.4-12 7.2-16.8l152.8-152.8c9.6-9.6 24.8-9.6 33.6 0 9.6 9.6 9.6 24.8 0 33.6L809.6 248l-2.4 89.6c0 12.8-10.4 23.2-23.2 23.2l-89.6 2.4L536 521.6c-4.8 4.8-10.4 7.2-16.8 7.2z" fill="#444B54" p-id="1173"></path><path d="M536 488c-18.4-18.4-48.8-18.4-68 0l-48 48C330.4 505.6 178.4 567.2 48 692.8c-5.6 5.6-5.6 14.4 0 20l39.2 39.2c4.8 4.8 11.2 5.6 16.8 2.4l40.8-21.6c7.2-4 14.4 4 11.2 11.2l-22.4 40c-3.2 5.6-1.6 12 2.4 16.8l40.8 40.8c4.8 4.8 12.8 5.6 18.4 1.6l77.6-57.6c7.2-5.6 16.8 4 11.2 11.2l-52 70.4c-7.2 9.6-6.4 23.2 2.4 31.2l20 20c3.2 3.2 8 4.8 12.8 4l8.8-1.6c5.6-0.8 10.4 4 9.6 9.6l-1.6 8.8c-0.8 4.8 0.8 9.6 4 12.8l16.8 16.8c9.6 9.6 25.6 9.6 34.4-0.8 120-128.8 179.2-276 148.8-364l48-48c19.2-19.2 19.2-49.6 0-68z" fill="#FCCB46" p-id="1174"></path><path d="M251.2 905.6c-4.8 0-9.6-1.6-14.4-4.8-10.4-8-12.8-23.2-4.8-33.6l50.4-68c8-10.4 23.2-12.8 33.6-4.8 10.4 8 12.8 23.2 4.8 33.6l-50.4 68c-4.8 6.4-12 9.6-19.2 9.6zM320.8 975.2c-5.6 0-12-2.4-16.8-6.4-9.6-8.8-10.4-24-0.8-33.6 72-76.8 123.2-162.4 139.2-236 3.2-12.8 16-20.8 28.8-18.4 12.8 3.2 20.8 16 18.4 28.8-18.4 82.4-72 174.4-151.2 258.4-4.8 4.8-11.2 7.2-17.6 7.2zM492 590.4c-6.4 0-12-2.4-16.8-7.2-9.6-9.6-9.6-24.8 0-33.6l27.2-27.2c9.6-9.6 24.8-9.6 33.6 0 9.6 9.6 9.6 24.8 0 33.6l-27.2 27.2c-4.8 4.8-11.2 7.2-16.8 7.2z" fill="#F6A048" p-id="1175"></path><path d="M504.8 610.4c-6.4 0-12-2.4-16.8-7.2l-66.4-66.4c-9.6-9.6-9.6-24.8 0-33.6 9.6-9.6 24.8-9.6 33.6 0l66.4 66.4c9.6 9.6 9.6 24.8 0 33.6-4 4.8-10.4 7.2-16.8 7.2z" fill="#444B54" p-id="1176"></path></svg>