<?xml version="1.0" encoding="UTF-8" standalone="no"?>
<svg width="24px" height="24px" viewBox="0 0 24 24" version="1.1" xmlns="http://www.w3.org/2000/svg" xmlns:xlink="http://www.w3.org/1999/xlink">
    <!-- Generator: Sketch 39.1 (31720) - http://www.bohemiancoding.com/sketch -->
    <title>icon_no_data_white</title>
    <desc>Created with Sketch.</desc>
    <defs></defs>
    <g id="浮动插件" stroke="none" stroke-width="1" fill="none" fill-rule="evenodd">
        <g id="Artboard" transform="translate(-674.000000, -246.000000)">
            <g id="Group" transform="translate(674.000000, 250.000000)">
                <path d="M22.5235505,15.0319249 C21.6626342,15.8801999 20.475905,16.3906197 19.1712341,16.4035382 L19.1453252,16.4035382 L6.2030728,16.4035382 C4.50646571,16.4035382 2.95370924,15.7271418 1.83263919,14.6304436 L1.84525201,14.6304436 C0.717029116,13.5330984 0.0318505491,12.0149057 0.0318505491,10.3565812 C0.0318505491,8.75604342 0.664638148,7.2955282 1.70132017,6.21110151 C2.64119165,5.2545429 3.89355365,4.58461741 5.28911014,4.38742412 C5.92858636,3.14940138 6.89433959,2.10331718 8.07495345,1.35101537 C9.35983088,0.515666742 10.9125061,0.0311854339 12.556176,0.0311854339 C14.8068067,0.0311854339 16.8483369,0.930690292 18.3228485,2.37173021 C19.6468209,3.65979778 20.5277227,5.38874942 20.6842673,7.32144329 C21.5192757,7.60163662 22.2496645,8.08664029 22.7915395,8.7306195 C23.5025998,9.54067673 23.9197624,10.5926862 23.9197624,11.7347201 C23.9197624,13.0227799 23.3778603,14.1965529 22.5235505,15.0319249 L22.5235505,15.0319249 L22.5235505,15.0319249 Z" id="Shape" fill="#CCCCCC"></path>
                <path d="M12.32775,3.468 C11.38425,3.468 10.64475,3.73575 10.0965,4.27125 C9.5355,4.80675 9.26775,5.54625 9.26775,6.48975 L10.72125,6.48975 C10.72125,5.95425 10.82325,5.5335 11.04,5.24025 C11.28225,4.88325 11.6775,4.7175 12.2385,4.7175 C12.672,4.7175 13.01625,4.83225 13.2585,5.0745 C13.488,5.31675 13.6155,5.64825 13.6155,6.069 C13.6155,6.38775 13.50075,6.69375 13.27125,6.97425 L13.11825,7.15275 C12.2895,7.89225 11.79225,8.42775 11.6265,8.772 C11.448,9.11625 11.3715,9.537 11.3715,10.0215 L11.3715,10.2 L12.83775,10.2 L12.83775,10.0215 C12.83775,9.7155 12.9015,9.44775 13.029,9.19275 C13.14375,8.96325 13.3095,8.7465 13.539,8.55525 C14.151,8.01975 14.52075,7.6755 14.6355,7.548 C14.9415,7.14 15.10725,6.61725 15.10725,5.97975 C15.10725,5.202 14.85225,4.59 14.34225,4.14375 C13.83225,3.68475 13.1565,3.468 12.32775,3.468 Z M12.09825,10.82475 C11.81775,10.82475 11.58825,10.914 11.397,11.0925 C11.20575,11.271 11.1165,11.5005 11.1165,11.781 C11.1165,12.0615 11.20575,12.291 11.397,12.4695 C11.58825,12.648 11.81775,12.75 12.09825,12.75 C12.37875,12.75 12.60825,12.66075 12.7995,12.48225 C12.99075,12.30375 13.09275,12.0615 13.09275,11.781 C13.09275,11.5005 12.99075,11.271 12.81225,11.0925 C12.621,10.914 12.37875,10.82475 12.09825,10.82475 Z" id="？" fill="#FFFFFF"></path>
            </g>
        </g>
    </g>
</svg>