<?xml version="1.0" encoding="UTF-8"?>
<svg width="30px" height="30px" viewBox="0 0 30 30" version="1.1" xmlns="http://www.w3.org/2000/svg" xmlns:xlink="http://www.w3.org/1999/xlink">
    <!-- Generator: Sketch 42 (36781) - http://www.bohemiancoding.com/sketch -->
    <title>logo-red</title>
    <desc>Created with Sketch.</desc>
    <defs></defs>
    <g id="final" stroke="none" stroke-width="1" fill="none" fill-rule="evenodd">
        <g id="logo-red">
            <g>
                <path d="M15,0 C6.71541212,0 1.77635684e-15,6.71594582 1.77635684e-15,14.9996562 C1.77635684e-15,23.2840542 6.71541212,30 15,30 C23.2845879,30 30,23.2840542 30,14.9996562 C30,6.71594582 23.2845879,0 15,0" id="circle" fill="#D91F16" fill-rule="evenodd"></path>
                <path d="M16.0378151,19.2442726 C17.1249771,20.3607222 18.5958851,21 20.1632653,21 C23.387052,21 26,18.3137939 26,15 C26,11.6862061 23.387052,9 20.1632653,9 C17.2399148,9 15.3090757,11.1278108 14.1481211,14.7080974 C13.2037233,17.620541 11.8124497,19.1538462 9.83673469,19.1538462 C7.60511284,19.1538462 5.79591837,17.2940448 5.79591837,15 C5.79591837,12.7059552 7.60511284,10.8461538 9.83673469,10.8461538 C10.9234717,10.8461538 11.9395494,11.2876147 12.6935259,12.0615136 C13.044465,12.4217256 13.6130212,12.421285 13.9634316,12.0605293 C14.313842,11.6997737 14.3134133,11.1153139 13.9624741,10.7551018 C12.8751661,9.63906379 11.4042803,9 9.83673469,9 C6.61325451,9 4,11.6863525 4,15 C4,18.3136475 6.61325451,21 9.83673469,21 C12.7603973,21 14.6908227,18.8725025 15.8518789,15.2919026 C16.7961743,12.3797746 18.1878276,10.8461538 20.1632653,10.8461538 C22.3951685,10.8461538 24.2040816,12.7057828 24.2040816,15 C24.2040816,17.2942172 22.3951685,19.1538462 20.1632653,19.1538462 C19.0768431,19.1538462 18.0608818,18.7122947 17.3070829,17.9381889 C16.9562318,17.5778861 16.3876756,17.5781798 16.037177,17.9388449 C15.6866783,18.29951 15.6869641,18.8839699 16.0378151,19.2442726 Z" id="path" fill="#FFFFFF" fill-rule="nonzero"></path>
            </g>
        </g>
    </g>
</svg>