<?xml version="1.0" encoding="UTF-8" standalone="no"?>
<svg width="249px" height="36px" viewBox="0 0 249 36" version="1.1" xmlns="http://www.w3.org/2000/svg" xmlns:xlink="http://www.w3.org/1999/xlink">
    <!-- Generator: Sketch 3.8.3 (29802) - http://www.bohemiancoding.com/sketch -->
    <title>Group 2 Copy</title>
    <desc>Created with Sketch.</desc>
    <defs></defs>
    <g id="Mockup" stroke="none" stroke-width="1" fill="none" fill-rule="evenodd">
        <g id="Group-2-Copy">
            <path d="M24.7900311,25.5109368 C22.76387,25.5109368 20.8732253,24.7077739 19.4664193,23.249095 C19.1122051,22.8814793 19.1227183,22.2965521 19.4901029,21.9419912 C19.8577187,21.5875459 20.4425304,21.5984057 20.7969757,21.9656748 C21.8521091,23.0598573 23.2703525,23.6624605 24.7900311,23.6624605 C27.8487972,23.6624605 30.3371929,21.1741804 30.3371929,18.1154142 C30.3371929,15.0568792 27.8487972,12.5684835 24.7900311,12.5684835 C20.9059203,12.5684835 19.267015,17.0176504 18.8571154,18.3813638 C18.8378219,18.4459449 18.8118277,18.5062514 18.7805191,18.562861 C17.3474879,22.8383867 14.6053888,25.2798773 11.2102,25.2798773 C7.13223024,25.2798773 3.81456189,21.9622089 3.81456189,17.8843547 C3.81456189,13.8063849 7.13223024,10.4889477 11.2102,10.4889477 C13.1174809,10.4889477 14.9284101,11.2128572 16.3092218,12.5277015 C16.6789171,12.8798362 16.6932428,13.4646479 16.3412236,13.8345742 C15.9890889,14.2045005 15.4041616,14.2184796 15.0345819,13.866576 C13.9989731,12.8804139 12.6408051,12.3374239 11.2102,12.3374239 C8.15143385,12.3374239 5.66303818,14.8258196 5.66303818,17.8843547 C5.66303818,20.9431208 8.15143385,23.431401 11.2102,23.431401 C14.9507073,23.431401 16.6064799,19.362096 17.1446176,17.6127442 C17.1625247,17.5545172 17.1860928,17.4994095 17.2138199,17.4476522 C18.6042207,13.2257323 21.4137891,10.7200072 24.7900311,10.7200072 C28.8680008,10.7200072 32.1856692,14.0374445 32.1856692,18.1154142 C32.1856692,22.1932685 28.8680008,25.5109368 24.7900311,25.5109368 M18.0001155,0 C8.05889451,0 0,8.05877898 0,17.9998845 C0,27.9411055 8.05889451,36 18.0001155,36 C27.9411055,36 36.0002311,27.9411055 36.0002311,17.9998845 C36.0002311,8.05877898 27.9411055,0 18.0001155,0" id="Fill-1-Copy" fill="#CD2323"></path>
            <g id="Group-6" transform="translate(45.000000, 1.000000)">
                <path d="M2.208,21.496 L1.548,21.964 C2.196,22.636 2.736,23.272 3.156,23.872 L3.828,23.404 C3.444,22.852 2.904,22.216 2.208,21.496 L2.208,21.496 Z M6.432,26.56 L5.736,26.992 C6.552,27.928 7.188,28.792 7.668,29.56 L8.424,29.032 C7.956,28.336 7.296,27.508 6.432,26.56 L6.432,26.56 Z M4.932,21.196 L4.932,22.624 C4.92,23.152 4.896,23.656 4.86,24.16 L1.032,24.16 L1.032,25 L4.764,25 C4.608,26.2 4.344,27.244 3.972,28.132 C3.348,29.488 2.22,30.568 0.612,31.384 L1.104,32.152 C2.736,31.348 3.9,30.232 4.608,28.804 C5.1,27.772 5.436,26.512 5.628,25 L9.78,25 C9.78,26.536 9.732,27.964 9.636,29.272 C9.54,30.568 9.144,31.252 8.472,31.3 C7.968,31.3 7.416,31.276 6.804,31.228 L7.032,32.068 C7.44,32.092 7.932,32.116 8.52,32.116 C9.324,32.116 9.888,31.648 10.2,30.712 C10.5,29.776 10.656,27.592 10.656,24.16 L5.712,24.16 C5.748,23.668 5.772,23.152 5.784,22.624 L5.784,21.196 L4.932,21.196 Z M17.688,21.232 C16.272,22.816 14.508,24.148 12.396,25.204 L12.852,26.032 C14.988,24.904 16.704,23.56 18,22 C19.416,23.656 21.108,25 23.1,26.02 L23.568,25.192 C21.588,24.232 19.836,22.912 18.312,21.232 L17.688,21.232 Z M17.904,24.4 L17.904,30.88 L15.6,30.88 L15.6,26.128 L14.748,26.128 L14.748,30.88 L12.936,30.88 L12.936,31.72 L22.92,31.72 L22.92,30.88 L18.78,30.88 L18.78,27.928 L22.056,27.928 L22.056,27.1 L18.78,27.1 L18.78,24.4 L17.904,24.4 Z M28.26,21.316 L28.26,30.856 L24.684,30.856 L24.684,31.696 L35.316,31.696 L35.316,30.856 L31.716,30.856 L31.716,21.316 L30.84,21.316 L30.84,30.856 L29.136,30.856 L29.136,21.316 L28.26,21.316 Z M34.224,23.5 C33.708,25.696 33.096,27.508 32.4,28.924 L33.18,29.2 C33.912,27.628 34.512,25.804 34.992,23.716 L34.224,23.5 Z M25.716,23.476 L24.984,23.716 C25.632,25.492 26.172,27.34 26.604,29.26 L27.396,29.056 C26.904,26.956 26.34,25.096 25.716,23.476 L25.716,23.476 Z M46.92,22.012 L42.336,22.012 L42.336,31.84 L43.164,31.84 L43.164,30.772 L46.08,30.772 L46.08,31.72 L46.92,31.72 L46.92,22.012 Z M43.164,29.956 L43.164,22.816 L46.08,22.816 L46.08,29.956 L43.164,29.956 Z M36.852,24.496 L36.852,25.3 L38.952,25.3 L38.952,25.384 C38.46,26.704 37.656,27.892 36.54,28.948 L36.9,29.884 C37.752,28.96 38.436,27.928 38.952,26.788 L38.952,32.116 L39.792,32.116 L39.792,26.704 C40.236,27.208 40.764,27.892 41.388,28.744 L41.892,28 C41.184,27.208 40.488,26.512 39.792,25.9 L39.792,25.3 L41.844,25.3 L41.844,24.496 L39.792,24.496 L39.792,22.6 C40.464,22.456 41.1,22.264 41.724,22.036 L41.316,21.316 C40.116,21.772 38.628,22.072 36.84,22.216 L37.116,22.984 C37.74,22.936 38.352,22.864 38.952,22.768 L38.952,24.496 L36.852,24.496 Z M49.344,21.916 L49.344,22.756 L51.528,22.756 L51.528,25.516 C51.528,25.636 51.516,25.78 51.516,25.936 L48.696,25.936 L48.696,26.764 L51.468,26.764 C51.372,27.724 51.204,28.54 50.952,29.236 C50.568,30.148 49.884,30.88 48.912,31.432 L49.38,32.176 C50.436,31.624 51.192,30.844 51.648,29.836 C52.008,29.02 52.236,28 52.344,26.764 L55.812,26.764 L55.812,32.08 L56.688,32.08 L56.688,26.764 L59.316,26.764 L59.316,25.936 L56.688,25.936 L56.688,22.756 L58.692,22.756 L58.692,21.916 L49.344,21.916 Z M52.416,22.756 L55.812,22.756 L55.812,25.936 L52.404,25.936 C52.404,25.804 52.416,25.66 52.416,25.516 L52.416,22.756 Z M61.392,24.88 L64.368,24.88 C63.528,27.556 62.244,29.656 60.492,31.192 L60.936,31.984 C62.304,30.868 63.432,29.368 64.308,27.472 C64.704,28.312 65.364,29.092 66.3,29.812 C65.4,30.4 64.284,30.94 62.94,31.432 L63.396,32.236 C64.848,31.672 66.072,31.048 67.056,30.352 C68.064,31.012 69.336,31.624 70.872,32.188 L71.316,31.384 C69.924,30.904 68.736,30.376 67.764,29.8 C68.748,28.96 69.396,28.024 69.72,26.992 L69.72,26.248 L64.812,26.248 C64.98,25.816 65.124,25.36 65.268,24.88 L71.112,24.88 L71.112,24.052 L65.496,24.052 C65.712,23.164 65.904,22.228 66.06,21.22 L65.184,21.112 C65.04,22.144 64.848,23.116 64.608,24.052 L62.508,24.052 L63.192,21.688 L62.34,21.544 L61.392,24.88 Z M64.956,27.04 L68.844,27.04 C68.508,27.856 67.896,28.612 67.008,29.308 C66.048,28.612 65.364,27.856 64.956,27.04 L64.956,27.04 Z M68.076,21.208 L67.5,21.772 C68.4,22.492 69.108,23.164 69.612,23.8 L70.224,23.188 C69.648,22.528 68.94,21.868 68.076,21.208 L68.076,21.208 Z M73.752,22.444 L73.752,23.248 L77.04,23.248 L77.04,24.676 L72.684,24.676 L72.684,25.492 L78.144,25.492 C76.44,26.476 74.568,27.22 72.516,27.7 L72.876,28.504 C73.572,28.276 74.244,28.048 74.892,27.808 L74.892,32.224 L75.768,32.224 L75.768,31.684 L80.964,31.684 L80.964,32.224 L81.828,32.224 L81.828,26.824 L77.292,26.824 C77.988,26.5 78.624,26.176 79.176,25.84 C79.356,25.72 79.536,25.612 79.716,25.492 L83.376,25.492 L83.376,24.676 L80.808,24.676 C81.612,24.028 82.368,23.272 83.076,22.432 L82.416,21.952 C81.564,22.96 80.568,23.872 79.44,24.676 L77.928,24.676 L77.928,23.248 L80.76,23.248 L80.76,22.444 L77.928,22.444 L77.928,21.172 L77.04,21.172 L77.04,22.444 L73.752,22.444 Z M75.768,29.608 L80.964,29.608 L80.964,30.916 L75.768,30.916 L75.768,29.608 Z M80.964,28.84 L75.768,28.84 L75.768,27.58 L80.964,27.58 L80.964,28.84 Z M85.98,32.092 C86.664,32.092 87.012,31.744 87.012,31.072 L87.012,27.532 C87.36,27.364 87.708,27.196 88.044,27.016 L88.044,26.14 C87.708,26.332 87.36,26.5 87.012,26.668 L87.012,24.328 L88.224,24.328 L88.224,23.5 L87.012,23.5 L87.012,21.232 L86.124,21.232 L86.124,23.5 L84.672,23.5 L84.672,24.328 L86.124,24.328 L86.124,27.04 C85.596,27.244 85.068,27.412 84.528,27.544 L84.732,28.408 C85.2,28.264 85.668,28.096 86.124,27.916 L86.124,30.844 C86.124,31.144 85.968,31.3 85.68,31.3 C85.368,31.3 85.056,31.276 84.72,31.252 L84.9,32.092 L85.98,32.092 Z M89.16,21.616 L89.16,25.78 L94.392,25.78 L94.392,21.616 L89.16,21.616 Z M93.552,25.072 L90,25.072 L90,24.04 L93.552,24.04 L93.552,25.072 Z M90,23.368 L90,22.324 L93.552,22.324 L93.552,23.368 L90,23.368 Z M88.32,26.62 L88.32,27.388 L91.356,27.388 L91.356,30.892 C91.248,30.856 91.152,30.82 91.068,30.784 C90.564,30.556 90.12,30.04 89.736,29.236 C89.832,28.828 89.892,28.42 89.916,27.988 L89.148,27.904 C89.052,29.272 88.548,30.52 87.636,31.624 L88.272,32.176 C88.788,31.552 89.184,30.868 89.472,30.124 C89.832,30.796 90.252,31.252 90.708,31.492 C91.284,31.78 92.364,31.936 93.948,31.948 C94.332,31.948 94.776,31.96 95.256,31.96 L95.496,31.12 C95.052,31.156 94.512,31.18 93.888,31.18 C93.228,31.18 92.664,31.144 92.184,31.072 L92.184,29.524 L94.692,29.524 L94.692,28.744 L92.184,28.744 L92.184,27.388 L95.184,27.388 L95.184,26.62 L88.32,26.62 Z M100.104,23.752 L100.104,24.592 L101.652,24.592 L101.652,27.4 L99.768,27.4 L99.768,28.228 L107.496,28.228 L107.496,27.4 L105.564,27.4 L105.564,24.592 L107.16,24.592 L107.16,23.752 L105.564,23.752 L105.564,21.244 L104.688,21.244 L104.688,23.752 L102.54,23.752 L102.54,21.244 L101.652,21.244 L101.652,23.752 L100.104,23.752 Z M102.54,27.4 L102.54,24.592 L104.688,24.592 L104.688,27.4 L102.54,27.4 Z M105.048,28.672 L104.34,29.104 C105.288,30.232 106.044,31.252 106.596,32.164 L107.364,31.636 C106.824,30.796 106.056,29.8 105.048,28.672 L105.048,28.672 Z M102.012,28.756 C101.412,29.884 100.68,30.844 99.84,31.648 L100.584,32.188 C101.436,31.324 102.18,30.304 102.804,29.128 L102.012,28.756 Z M97.968,25.48 L97.968,32.2 L98.856,32.2 L98.856,24.124 C99.336,23.296 99.732,22.408 100.044,21.472 L99.228,21.1 C98.628,22.972 97.68,24.64 96.372,26.104 L96.66,27.016 C97.14,26.524 97.572,26.008 97.968,25.48 L97.968,25.48 Z M113.688,21.232 C112.296,22.744 110.544,24.016 108.432,25.036 L108.852,25.792 C110.976,24.724 112.692,23.464 114,22.012 C115.416,23.536 117.108,24.772 119.1,25.732 L119.532,24.964 C117.564,24.052 115.824,22.816 114.312,21.232 L113.688,21.232 Z M110.652,25.024 L110.652,25.852 L113.556,25.852 L113.556,27.94 L110.076,27.94 L110.076,28.768 L113.556,28.768 L113.556,30.988 L109.008,30.988 L109.008,31.84 L119.004,31.84 L119.004,30.988 L114.444,30.988 L114.444,28.768 L117.912,28.768 L117.912,27.94 L114.444,27.94 L114.444,25.852 L117.348,25.852 L117.348,25.024 L110.652,25.024 Z M124.596,23.272 L124.596,24.112 L127.32,24.112 L127.32,26.716 C126.396,28.132 125.328,29.26 124.116,30.076 L124.56,30.82 C125.604,30.028 126.528,29.056 127.32,27.892 L127.32,30.892 C127.32,31.18 127.164,31.336 126.852,31.336 C126.468,31.336 126.06,31.312 125.652,31.276 L125.82,32.092 L127.14,32.092 C127.812,32.092 128.16,31.756 128.16,31.096 L128.16,27.136 C128.82,28.732 129.744,30.1 130.92,31.228 L131.484,30.556 C130.548,29.728 129.78,28.756 129.18,27.652 C129.768,27.052 130.356,26.308 130.932,25.42 L130.284,24.94 C129.84,25.672 129.348,26.332 128.796,26.92 C128.556,26.392 128.34,25.84 128.16,25.264 L128.16,24.112 L131.004,24.112 L131.004,23.272 L130.284,23.272 L130.764,22.78 C130.356,22.312 129.84,21.844 129.24,21.376 L128.736,21.856 C129.336,22.348 129.816,22.816 130.2,23.272 L128.16,23.272 L128.16,21.22 L127.32,21.22 L127.32,23.272 L124.596,23.272 Z M125.292,25.06 L124.62,25.48 C125.184,26.224 125.628,26.908 125.964,27.52 L126.564,27.1 C126.264,26.524 125.844,25.84 125.292,25.06 L125.292,25.06 Z M120.756,25.624 L120.756,26.44 L122.112,26.44 L122.112,29.224 C121.56,29.416 121.008,29.572 120.432,29.704 L120.66,30.568 C122.004,30.16 123.264,29.668 124.428,29.068 L124.428,28.228 C123.972,28.468 123.492,28.684 123,28.888 L123,26.44 L124.176,26.44 L124.176,25.624 L123,25.624 L123,22.816 L124.416,22.816 L124.416,22.012 L120.612,22.012 L120.612,22.816 L122.112,22.816 L122.112,25.624 L120.756,25.624 Z M135.072,23.14 L142.512,23.14 L142.512,22.3 L135.516,22.3 C135.66,21.988 135.792,21.664 135.936,21.316 L135.06,21.124 C134.412,22.732 133.584,24.04 132.576,25.036 L133.128,25.708 C133.86,24.988 134.508,24.124 135.072,23.14 L135.072,23.14 Z M142.188,32.176 C142.464,32.176 142.716,32.008 142.944,31.672 C143.172,31.312 143.376,30.604 143.568,29.572 L142.848,29.224 C142.74,29.764 142.644,30.22 142.548,30.58 C142.416,31.012 142.272,31.228 142.116,31.228 C141.804,31.228 141.576,31 141.432,30.568 C141.264,30.136 141.18,29.152 141.18,27.592 L141.18,26.044 L133.608,26.044 L133.608,26.872 L140.4,26.872 L140.4,27.592 C140.4,29.44 140.544,30.664 140.832,31.264 C141.12,31.864 141.576,32.164 142.188,32.176 L142.188,32.176 Z M134.928,24.196 L134.928,25 L141.924,25 L141.924,24.196 L134.928,24.196 Z M145.98,23.98 L145.98,26.248 L148.536,26.248 C147.696,26.824 146.532,27.232 145.044,27.472 L145.38,28.192 C147.012,27.916 148.296,27.424 149.232,26.716 C149.472,26.908 149.7,27.124 149.916,27.364 C148.776,28.144 147.168,28.78 145.092,29.284 L145.512,30.016 C147.54,29.464 149.148,28.756 150.324,27.892 C150.48,28.132 150.612,28.372 150.72,28.636 C149.376,29.656 147.456,30.484 144.972,31.132 L145.404,31.876 C147.72,31.24 149.568,30.412 150.936,29.404 C150.972,29.584 150.996,29.776 150.996,29.98 C150.996,30.556 150.876,30.94 150.648,31.132 C150.408,31.312 150.084,31.42 149.7,31.444 C149.424,31.444 149.088,31.456 148.68,31.456 L148.944,32.248 C149.256,32.248 149.532,32.236 149.796,32.212 C150.552,32.14 151.08,31.96 151.38,31.696 C151.704,31.372 151.872,30.796 151.872,29.98 C151.848,29.536 151.764,29.104 151.62,28.696 C151.8,28.636 151.992,28.576 152.196,28.504 C152.748,29.68 153.684,30.736 154.992,31.696 L155.568,30.976 C154.308,30.184 153.42,29.26 152.916,28.228 C153.612,27.94 154.26,27.616 154.836,27.232 L154.272,26.584 C153.48,27.148 152.484,27.616 151.308,27.988 C150.972,27.364 150.468,26.788 149.808,26.248 L154.62,26.248 L154.62,23.572 L151.5,23.572 C151.884,23.284 152.256,22.948 152.64,22.552 L152.64,21.976 L148.824,21.976 C149.04,21.76 149.244,21.544 149.448,21.328 L148.548,21.124 C147.54,22.192 146.232,23.056 144.624,23.716 L145.164,24.376 C145.44,24.256 145.716,24.124 145.98,23.98 L145.98,23.98 Z M150.372,23.572 L146.712,23.572 C147.18,23.284 147.624,22.984 148.032,22.66 L151.548,22.66 C151.164,22.996 150.768,23.308 150.372,23.572 L150.372,23.572 Z M153.768,25.528 L150.348,25.528 C150.576,25.168 150.756,24.748 150.888,24.292 L153.768,24.292 L153.768,25.528 Z M149.34,25.528 L146.832,25.528 L146.832,24.292 L150.024,24.292 C149.88,24.736 149.652,25.144 149.34,25.528 L149.34,25.528 Z M163.896,23.86 L165.672,23.86 C165.624,25.48 165.372,26.896 164.904,28.108 C164.424,27.1 164.04,25.888 163.74,24.484 L163.896,23.86 Z M164.508,28.972 C163.956,29.992 163.224,30.82 162.288,31.468 L162.732,32.188 C163.632,31.54 164.376,30.736 164.952,29.776 C165.552,30.784 166.272,31.6 167.112,32.2 L167.58,31.492 C166.716,30.904 165.984,30.076 165.36,28.996 C166.032,27.58 166.404,25.864 166.464,23.86 L167.244,23.86 L167.244,23.032 L164.076,23.032 C164.172,22.504 164.268,21.928 164.34,21.316 L163.5,21.172 C163.26,23.452 162.78,25.264 162.072,26.608 L162.612,27.268 C162.864,26.836 163.104,26.344 163.32,25.792 C163.644,26.992 164.04,28.048 164.508,28.972 L164.508,28.972 Z M158.82,26.776 C158.736,27.016 158.64,27.268 158.532,27.532 L156.78,27.532 L156.78,28.288 L158.196,28.288 C157.956,28.768 157.68,29.26 157.368,29.788 C157.956,30.004 158.508,30.232 159.036,30.46 C158.34,30.856 157.488,31.18 156.504,31.444 L156.912,32.164 C158.112,31.828 159.108,31.384 159.9,30.832 C160.608,31.144 161.22,31.468 161.748,31.78 L162.216,31.108 C161.688,30.82 161.136,30.556 160.56,30.292 C161.184,29.716 161.628,29.032 161.892,28.24 L161.892,27.532 L159.384,27.532 C159.456,27.316 159.54,27.1 159.624,26.872 L158.82,26.776 Z M159.768,29.956 C159.336,29.776 158.88,29.608 158.4,29.44 C158.64,29.08 158.856,28.696 159.048,28.288 L161.112,28.288 C160.824,28.912 160.368,29.476 159.768,29.956 L159.768,29.956 Z M157.728,21.424 L157.044,21.652 C157.332,22.108 157.596,22.624 157.848,23.212 L158.472,22.924 C158.256,22.396 158.016,21.892 157.728,21.424 L157.728,21.424 Z M161.376,21.388 C161.16,21.892 160.848,22.396 160.464,22.912 L161.076,23.224 C161.46,22.72 161.76,22.204 162,21.676 L161.376,21.388 Z M156.804,23.5 L156.804,24.256 L158.508,24.256 C158.148,24.916 157.5,25.516 156.576,26.056 L156.996,26.752 C158.028,26.056 158.748,25.24 159.144,24.292 L159.144,26.572 L159.948,26.572 L159.948,25.012 C160.38,25.3 160.896,25.684 161.496,26.164 L161.94,25.492 C161.268,25.084 160.596,24.712 159.948,24.388 L159.948,24.256 L162.132,24.256 L162.132,23.5 L159.948,23.5 L159.948,21.208 L159.144,21.208 L159.144,23.5 L156.804,23.5 Z M169.968,32.092 C170.64,32.092 170.976,31.732 170.976,31.036 L170.976,27.532 C171.348,27.364 171.72,27.196 172.092,27.004 L172.092,26.152 C171.732,26.344 171.36,26.524 170.976,26.692 L170.976,24.328 L172.128,24.328 L172.128,23.5 L170.976,23.5 L170.976,21.232 L170.136,21.232 L170.136,23.5 L168.696,23.5 L168.696,24.328 L170.136,24.328 L170.136,27.04 C169.608,27.232 169.056,27.4 168.504,27.532 L168.72,28.372 C169.188,28.228 169.656,28.06 170.136,27.88 L170.136,30.82 C170.136,31.156 169.98,31.336 169.68,31.336 C169.392,31.336 169.08,31.312 168.768,31.276 L168.948,32.092 L169.968,32.092 Z M173.556,26.788 L176.004,26.788 L176.004,28.264 L174,28.264 L174,32.2 L174.804,32.2 L174.804,31.612 L178.056,31.612 L178.056,32.2 L178.86,32.2 L178.86,28.264 L176.844,28.264 L176.844,26.788 L179.412,26.788 L179.412,26.008 L176.844,26.008 L176.844,24.592 L179.1,24.592 L179.1,21.676 L172.776,21.676 L172.776,25.432 C172.764,27.952 172.332,30.016 171.48,31.6 L172.152,32.2 C172.944,30.64 173.412,28.84 173.556,26.788 L173.556,26.788 Z M176.004,24.592 L176.004,26.008 L173.604,26.008 C173.604,25.816 173.616,25.624 173.616,25.432 L173.616,24.592 L176.004,24.592 Z M174.804,30.844 L174.804,29.032 L178.056,29.032 L178.056,30.844 L174.804,30.844 Z M178.26,22.48 L178.26,23.812 L173.616,23.812 L173.616,22.48 L178.26,22.48 Z M182.184,25.3 L184.116,25.3 L184.116,27.304 L182.184,27.304 L182.184,25.3 Z M184.116,24.52 L182.184,24.52 L182.184,22.492 L184.116,22.492 L184.116,24.52 Z M182.172,28.084 L184.116,28.084 L184.116,30.796 C184.116,31.228 183.96,31.444 183.66,31.444 C183.372,31.444 183.072,31.42 182.736,31.396 L182.94,32.164 L183.9,32.164 C184.572,32.164 184.908,31.792 184.908,31.072 L184.908,21.712 L181.404,21.712 L181.404,27.472 C181.392,29.152 181.152,30.544 180.672,31.624 L181.32,32.224 C181.812,31.144 182.1,29.764 182.172,28.084 L182.172,28.084 Z M186.732,26.896 L187.02,26.896 C187.284,28.072 187.8,29.128 188.568,30.064 C188.088,30.64 187.512,31.108 186.828,31.48 L187.284,32.176 C188.004,31.792 188.616,31.3 189.144,30.688 C189.696,31.228 190.344,31.72 191.112,32.164 L191.544,31.432 C190.812,31.012 190.176,30.544 189.636,30.016 C190.188,29.152 190.584,28.096 190.812,26.86 L190.812,26.128 L186.732,26.128 L186.732,22.492 L189.936,22.492 C189.912,23.404 189.864,23.992 189.78,24.256 C189.708,24.436 189.6,24.556 189.456,24.604 C189.312,24.64 189.108,24.664 188.82,24.664 C188.484,24.664 188.22,24.652 188.016,24.652 L188.244,25.396 L189.216,25.396 C189.972,25.396 190.416,25.144 190.56,24.652 C190.704,24.172 190.776,23.188 190.776,21.7 L185.916,21.7 L185.916,32.212 L186.732,32.212 L186.732,26.896 Z M187.764,26.896 L190.044,26.896 C189.828,27.844 189.504,28.672 189.06,29.392 C188.448,28.648 188.016,27.82 187.764,26.896 L187.764,26.896 Z M196.128,21.16 C195.624,22.36 194.64,23.368 193.2,24.196 L193.728,24.892 C194.28,24.556 194.772,24.184 195.228,23.776 C195.804,24.28 196.428,24.736 197.1,25.132 C195.78,25.66 194.256,26.044 192.516,26.284 L192.912,27.1 C194.856,26.8 196.572,26.308 198.036,25.636 C199.524,26.38 201.216,26.86 203.112,27.076 L203.508,26.272 C201.84,26.104 200.328,25.732 198.972,25.156 C200.076,24.532 201.012,23.776 201.78,22.888 L201.78,22.192 L196.548,22.192 C196.716,21.904 196.872,21.604 197.004,21.28 L196.128,21.16 Z M198.024,24.712 C197.22,24.292 196.476,23.788 195.804,23.2 L195.96,23.008 L200.544,23.008 C199.836,23.656 198.996,24.232 198.024,24.712 L198.024,24.712 Z M197.292,26.5 C197.292,26.98 197.244,27.436 197.148,27.868 L193.332,27.868 L193.332,28.648 L196.908,28.648 C196.812,28.888 196.68,29.116 196.536,29.332 C195.912,30.208 194.604,30.94 192.636,31.516 L193.212,32.224 C195.42,31.528 196.824,30.628 197.436,29.548 C197.592,29.26 197.724,28.96 197.82,28.648 L201.372,28.648 C201.336,29.848 201.228,30.592 201.048,30.88 C200.856,31.168 200.412,31.324 199.692,31.336 L198.276,31.276 L198.492,32.056 C199.044,32.08 199.512,32.104 199.896,32.104 C200.748,32.104 201.348,31.9 201.696,31.504 C202.044,31.108 202.224,29.896 202.248,27.868 L198.024,27.868 C198.096,27.436 198.144,26.98 198.144,26.5 L197.292,26.5 Z" id="为企业和开发者提供全球气象数据服务" fill="#696969" opacity="0.6"></path>
                <path d="M4.046875,1.8828125 L4.921875,1.8828125 L4.921875,11.0703125 C4.88541648,11.8723998 5.34114109,12.2552085 6.2890625,12.21875 L9.296875,12.21875 C10.1354209,12.2552085 10.5364585,11.9088578 10.5,11.1796875 L10.5,10.5234375 L11.15625,10.5234375 L11.15625,11.1796875 C11.1927085,12.34636 10.609381,12.9114585 9.40625,12.875 L6.0703125,12.875 C4.64843039,12.947917 3.97395797,12.2916736 4.046875,10.90625 L4.046875,1.8828125 Z M1.859375,3.6328125 L2.515625,3.6328125 C2.515625,6.29428414 2.29687719,8.70051008 1.859375,10.8515625 L0.984375,10.8515625 C1.4583357,8.62759305 1.74999945,6.22136711 1.859375,3.6328125 L1.859375,3.6328125 Z M8.1484375,0.7890625 C8.54948117,2.50261273 8.87760289,4.45311406 9.1328125,6.640625 L8.203125,6.640625 C8.13020797,4.67186516 7.89323117,2.72136383 7.4921875,0.7890625 L8.1484375,0.7890625 Z M12.0859375,3.5234375 C12.7057323,6.03907508 13.1067699,8.48175898 13.2890625,10.8515625 L12.46875,10.8515625 C12.2135404,8.08071531 11.8671897,5.63803141 11.4296875,3.5234375 L12.0859375,3.5234375 Z M22.8921875,12.546875 L22.8921875,1.8828125 L28.2515625,1.8828125 L28.2515625,10.90625 C28.288021,12.036464 27.6682355,12.5833335 26.3921875,12.546875 L22.8921875,12.546875 Z M27.43125,2.4296875 L23.7671875,2.4296875 L23.7671875,12 L26.2828125,12 C27.0484413,12 27.43125,11.6354203 27.43125,10.90625 L27.43125,2.4296875 Z M15.946875,4.453125 C16.9312549,3.57812063 17.4416665,2.35677867 17.478125,0.7890625 L18.353125,0.7890625 C18.3166665,0.934896563 18.2802085,1.15364438 18.24375,1.4453125 C18.1708329,1.80989766 18.116146,2.08333242 18.0796875,2.265625 L21.7984375,2.265625 L21.7984375,2.8125 L19.775,2.8125 L19.775,6.0390625 L19.775,6.4765625 L22.18125,6.4765625 L22.18125,7.0234375 L19.775,7.0234375 C19.847917,9.13803141 20.7046793,10.9973878 22.3453125,12.6015625 L22.3453125,13.3125 C20.8140548,12.109369 19.8114607,10.7057372 19.3375,9.1015625 C18.8270808,10.7786542 17.7515707,12.182286 16.1109375,13.3125 L16.1109375,12.65625 C17.8974047,11.0885338 18.8270829,9.21094844 18.9,7.0234375 L16.05625,7.0234375 L16.05625,6.4765625 L18.9,6.4765625 C18.9,6.40364547 18.918229,6.33072953 18.9546875,6.2578125 L18.9546875,6.0390625 L18.9546875,2.8125 L17.915625,2.8125 C17.5874983,3.61458734 16.9312549,4.3619757 15.946875,5.0546875 L15.946875,4.453125 Z M32.2765625,2.265625 L32.2765625,1.6640625 L43.378125,1.6640625 L43.378125,2.265625 L38.2921875,2.265625 L38.2921875,5.4375 L38.2921875,5.765625 L44.034375,5.765625 L44.034375,6.421875 L38.346875,6.421875 C38.6385431,9.15626367 40.5525864,11.2890548 44.0890625,12.8203125 L44.0890625,13.3671875 C40.8442546,12.127598 38.7661503,10.4323024 37.8546875,8.28125 C37.0161416,10.3229269 34.9015794,12.0182224 31.5109375,13.3671875 L31.5109375,12.8203125 C35.3755401,10.9973867 37.3078125,8.86459555 37.3078125,6.421875 L31.565625,6.421875 L31.565625,5.765625 L37.3625,5.765625 L37.3625,5.4921875 L37.3625,2.265625 L32.2765625,2.265625 Z M47.8406249,7.1875 L47.8406249,6.640625 L57.2468749,6.640625 C57.2104164,10.9791884 57.5932251,13.0208346 58.3953124,12.765625 C58.7598976,12.8020835 58.9421874,12.4557328 58.9421874,11.7265625 L59.5437499,11.7265625 C59.5802084,12.8567765 59.1973998,13.403646 58.3953124,13.3671875 C56.9734303,13.6588556 56.2989579,11.5989804 56.3718749,7.1875 L47.8406249,7.1875 Z M46.9109374,5.328125 L46.9109374,4.78125 C48.5515706,3.79687008 49.5177068,2.46615422 49.8093749,0.7890625 L50.7390624,0.7890625 C50.7026039,0.971355078 50.629688,1.20833188 50.5203124,1.5 C50.4473954,1.71875109 50.3927084,1.88281195 50.3562499,1.9921875 L58.9421874,1.9921875 L58.9421874,2.5390625 L50.0828124,2.5390625 C49.6088517,3.63281797 48.5515706,4.56249617 46.9109374,5.328125 L46.9109374,5.328125 Z M57.9578124,4.8359375 L49.4812499,4.8359375 L49.4812499,4.234375 L57.9578124,4.234375 L57.9578124,4.8359375 Z" id="心知天气" fill="#212121"></path>
            </g>
        </g>
    </g>
</svg>