<?xml version="1.0" encoding="UTF-8" standalone="no"?>
<svg width="48px" height="36px" viewBox="0 0 48 36" version="1.1" xmlns="http://www.w3.org/2000/svg" xmlns:xlink="http://www.w3.org/1999/xlink">
    <!-- Generator: Sketch 3.8.3 (29802) - http://www.bohemiancoding.com/sketch -->
    <title>btn_more_black</title>
    <desc>Created with Sketch.</desc>
    <defs></defs>
    <g id="Mockup" stroke="none" stroke-width="1" fill="none" fill-rule="evenodd">
        <g id="btn_more_black" fill="#868686">
            <g id="箭头" transform="translate(24.500000, 18.000000) scale(-1, 1) translate(-24.500000, -18.000000) translate(19.000000, 9.000000)">
                <g id="Group" transform="translate(0.086145, 0.091973)">
                    <path d="M8.81370353,15.102952 L1.88449573,8.27654857 L8.76885713,1.34899678 C9.07441808,1.04478505 9.07332943,0.5504641 8.766494,0.244956959 L8.76646746,0.244956959 C8.45963202,-0.0605766369 7.96318842,-0.0616341146 7.65778678,0.320672821 L0.313968764,7.63269937 C0.214903092,7.74310072 0.101047918,7.87351493 0.0821694053,7.94389049 C-0.0338364895,8.23097098 0.0242328441,8.58369479 0.256297722,8.87363049 L7.70271282,16.28781 C8.0108493,16.5163852 8.5095764,16.5175749 8.81643838,16.2120413 C9.12324729,15.9065077 9.12205244,15.4099661 8.81370353,15.102952 L8.81370353,15.102952 Z" id="Shape"></path>
                </g>
            </g>
        </g>
    </g>
</svg>