<?xml version="1.0" encoding="UTF-8" standalone="no"?>
<svg width="24px" height="24px" viewBox="0 0 24 24" version="1.1" xmlns="http://www.w3.org/2000/svg" xmlns:xlink="http://www.w3.org/1999/xlink">
    <!-- Generator: Sketch 3.8.3 (29802) - http://www.bohemiancoding.com/sketch -->
    <title>10</title>
    <desc>Created with Sketch.</desc>
    <defs></defs>
    <g id="天气图标" stroke="none" stroke-width="1" fill="none" fill-rule="evenodd">
        <g id="天气图标_默认背景" transform="translate(-204.000000, -575.000000)">
            <g id="Group-7" transform="translate(204.000000, 575.000000)">
                <path d="M17.8604651,12.4553846 C21.2512366,12.4553846 24,9.6671518 24,6.22769231 C24,2.78823282 21.2512366,0 17.8604651,0 C14.4696936,0 11.7209302,2.78823282 11.7209302,6.22769231 C11.7209302,9.6671518 14.4696936,12.4553846 17.8604651,12.4553846 Z" id="Combined-Shape-Copy-4" fill="#FFD610"></path>
                <path d="M18.7780371,7.68260055 C18.7780371,4.6951392 16.3319382,2.26461538 13.3253719,2.26461538 C11.411175,2.26461538 9.6456497,3.26845708 8.66441736,4.8687388 C8.05464077,4.45469588 7.33408846,4.23184755 6.58025242,4.23184755 C4.53848915,4.23184755 2.87763966,5.88221893 2.87763966,7.91094732 C2.87763966,8.13511096 2.89768216,8.35731241 2.93772465,8.57524449 C1.18465415,9.20745668 0,10.8586906 0,12.7534512 C0,15.1655391 1.92425003,16.9846154 4.47559864,16.9846154 L17.2882609,16.9846154 C19.7561876,16.9846154 21.7640508,14.9898048 21.7640508,12.5376322 C21.7641146,10.6330822 20.5124041,8.93149994 18.7283241,8.32630555 C18.7539989,8.11244878 18.7780371,7.86482515 18.7780371,7.68260055 Z" id="Shape-Copy-5" fill-opacity="0.85" fill="#FFFFFF"></path>
                <path d="M4.32641656,18.7170601 L2.85820361,22.3213428 C2.70194024,22.7049502 2.88623899,23.1426019 3.26984639,23.2988653 C3.65345378,23.4551286 4.09110551,23.2708299 4.24736888,22.8872225 L5.71558183,19.2829399 C5.8718452,18.8993325 5.68754645,18.4616807 5.30393905,18.3054174 C4.92033166,18.149154 4.48267993,18.3334527 4.32641656,18.7170601 L4.32641656,18.7170601 Z" id="Line" fill="#A8D8FF"></path>
                <path d="M10.3264166,18.7170601 L8.85820361,22.3213428 C8.70194024,22.7049502 8.88623899,23.1426019 9.26984639,23.2988653 C9.65345378,23.4551286 10.0911055,23.2708299 10.2473689,22.8872225 L11.7155818,19.2829399 C11.8718452,18.8993325 11.6875464,18.4616807 11.3039391,18.3054174 C10.9203317,18.149154 10.4826799,18.3334527 10.3264166,18.7170601 L10.3264166,18.7170601 Z" id="Line" fill="#A8D8FF"></path>
                <path d="M16.3264166,18.7170601 L14.8582036,22.3213428 C14.7019402,22.7049502 14.886239,23.1426019 15.2698464,23.2988653 C15.6534538,23.4551286 16.0911055,23.2708299 16.2473689,22.8872225 L17.7155818,19.2829399 C17.8718452,18.8993325 17.6875464,18.4616807 17.3039391,18.3054174 C16.9203317,18.149154 16.4826799,18.3334527 16.3264166,18.7170601 L16.3264166,18.7170601 Z" id="Line" fill="#A8D8FF"></path>
            </g>
        </g>
    </g>
</svg>