<?xml version="1.0" encoding="UTF-8" standalone="no"?>
<svg width="24px" height="24px" viewBox="0 0 24 24" version="1.1" xmlns="http://www.w3.org/2000/svg" xmlns:xlink="http://www.w3.org/1999/xlink">
    <!-- Generator: Sketch 3.8.3 (29802) - http://www.bohemiancoding.com/sketch -->
    <title>11</title>
    <desc>Created with Sketch.</desc>
    <defs></defs>
    <g id="天气图标" stroke="none" stroke-width="1" fill="none" fill-rule="evenodd">
        <g id="天气图标_默认背景" transform="translate(-204.000000, -625.000000)">
            <g id="Group-8" transform="translate(204.000000, 625.000000)">
                <path d="M20.7072155,5.88911431 C20.7072155,2.64187371 18.0098145,0 14.6943659,0 C12.5835123,0 10.6366041,1.09113228 9.55456402,2.83056893 C8.88214149,2.38052228 8.08756259,2.13829583 7.25628052,2.13829583 C5.00475489,2.13829583 3.17327654,3.93217777 3.17327654,6.13731732 C3.17327654,6.38097345 3.19537812,6.62249677 3.23953441,6.85937946 C1.30636065,7.54656663 0,9.34138606 0,11.4009085 C0,14.0227432 2.12193957,16 4.93540326,16 L19.0643858,16 C21.7858572,16 24,13.8317276 24,11.1663227 C24.0000703,9.09615962 22.6197643,7.24661365 20.6523952,6.58879366 C20.6807077,6.35634065 20.7072155,6.08718453 20.7072155,5.88911431 Z" id="Shape-Copy-5" fill-opacity="0.85" fill="#FFFFFF"></path>
                <path d="M4.32641656,17.7170601 L2.85820361,21.3213428 C2.70194024,21.7049502 2.88623899,22.1426019 3.26984639,22.2988653 C3.65345378,22.4551286 4.09110551,22.2708299 4.24736888,21.8872225 L5.71558183,18.2829399 C5.8718452,17.8993325 5.68754645,17.4616807 5.30393905,17.3054174 C4.92033166,17.149154 4.48267993,17.3334527 4.32641656,17.7170601 L4.32641656,17.7170601 Z" id="Line" fill="#A8D8FF"></path>
                <path d="M18.3264166,17.7170601 L16.8582036,21.3213428 C16.7019402,21.7049502 16.886239,22.1426019 17.2698464,22.2988653 C17.6534538,22.4551286 18.0911055,22.2708299 18.2473689,21.8872225 L19.7155818,18.2829399 C19.8718452,17.8993325 19.6875464,17.4616807 19.3039391,17.3054174 C18.9203317,17.149154 18.4826799,17.3334527 18.3264166,17.7170601 L18.3264166,17.7170601 Z" id="Line" fill="#A8D8FF"></path>
                <polygon id="Page-1" fill="#FFD80B" points="10.1843029 16 8.58524646 20.2982862 10.185048 20.2982862 10.234972 20.2284761 8.75334857 24 14.0336933 18.8161186 12.2479064 18.8161186 14.2672181 16"></polygon>
            </g>
        </g>
    </g>
</svg>