<?xml version="1.0" encoding="UTF-8" standalone="no"?>
<svg width="24px" height="24px" viewBox="0 0 24 24" version="1.1" xmlns="http://www.w3.org/2000/svg" xmlns:xlink="http://www.w3.org/1999/xlink">
    <!-- Generator: Sketch 3.8.3 (29802) - http://www.bohemiancoding.com/sketch -->
    <title>13</title>
    <desc>Created with Sketch.</desc>
    <defs></defs>
    <g id="天气图标" stroke="none" stroke-width="1" fill="none" fill-rule="evenodd">
        <g id="天气图标_默认背景" transform="translate(-204.000000, -723.000000)">
            <g id="Group-10" transform="translate(204.000000, 723.000000)">
                <path d="M20.7072155,5.88911431 C20.7072155,2.64187371 18.0098145,0 14.6943659,0 C12.5835123,0 10.6366041,1.09113228 9.55456402,2.83056893 C8.88214149,2.38052228 8.08756259,2.13829583 7.25628052,2.13829583 C5.00475489,2.13829583 3.17327654,3.93217777 3.17327654,6.13731732 C3.17327654,6.38097345 3.19537812,6.62249677 3.23953441,6.85937946 C1.30636065,7.54656663 0,9.34138606 0,11.4009085 C0,14.0227432 2.12193957,16 4.93540326,16 L19.0643858,16 C21.7858572,16 24,13.8317276 24,11.1663227 C24.0000703,9.09615962 22.6197643,7.24661365 20.6523952,6.58879366 C20.6807077,6.35634065 20.7072155,6.08718453 20.7072155,5.88911431 Z" id="Shape-Copy-5" fill-opacity="0.85" fill="#FFFFFF"></path>
                <path d="M5.32641656,18.7170601 L3.85820361,22.3213428 C3.70194024,22.7049502 3.88623899,23.1426019 4.26984639,23.2988653 C4.65345378,23.4551286 5.09110551,23.2708299 5.24736888,22.8872225 L6.71558183,19.2829399 C6.8718452,18.8993325 6.68754645,18.4616807 6.30393905,18.3054174 C5.92033166,18.149154 5.48267993,18.3334527 5.32641656,18.7170601 L5.32641656,18.7170601 Z" id="Line" fill="#A8D8FF"></path>
                <path d="M11.3264166,18.7170601 L9.85820361,22.3213428 C9.70194024,22.7049502 9.88623899,23.1426019 10.2698464,23.2988653 C10.6534538,23.4551286 11.0911055,23.2708299 11.2473689,22.8872225 L12.7155818,19.2829399 C12.8718452,18.8993325 12.6875464,18.4616807 12.3039391,18.3054174 C11.9203317,18.149154 11.4826799,18.3334527 11.3264166,18.7170601 L11.3264166,18.7170601 Z" id="Line" fill="#A8D8FF"></path>
                <path d="M17.3264166,18.7170601 L15.8582036,22.3213428 C15.7019402,22.7049502 15.886239,23.1426019 16.2698464,23.2988653 C16.6534538,23.4551286 17.0911055,23.2708299 17.2473689,22.8872225 L18.7155818,19.2829399 C18.8718452,18.8993325 18.6875464,18.4616807 18.3039391,18.3054174 C17.9203317,18.149154 17.4826799,18.3334527 17.3264166,18.7170601 L17.3264166,18.7170601 Z" id="Line" fill="#A8D8FF"></path>
            </g>
        </g>
    </g>
</svg>