<?xml version="1.0" encoding="UTF-8" standalone="no"?>
<svg width="24px" height="24px" viewBox="0 0 24 24" version="1.1" xmlns="http://www.w3.org/2000/svg" xmlns:xlink="http://www.w3.org/1999/xlink">
    <!-- Generator: Sketch 3.8.3 (29802) - http://www.bohemiancoding.com/sketch -->
    <title>15</title>
    <desc>Created with Sketch.</desc>
    <defs></defs>
    <g id="天气图标" stroke="none" stroke-width="1" fill="none" fill-rule="evenodd">
        <g id="天气图标_默认背景" transform="translate(-204.000000, -823.000000)">
            <g id="Group-12" transform="translate(204.000000, 823.000000)">
                <path d="M20.7072155,6.28483169 C20.7072155,3.03759109 18.0098145,0.395717382 14.6943659,0.395717382 C12.5835123,0.395717382 10.6366041,1.48684966 9.55456402,3.22628631 C8.88214149,2.77623966 8.08756259,2.53401321 7.25628052,2.53401321 C5.00475489,2.53401321 3.17327654,4.32789515 3.17327654,6.5330347 C3.17327654,6.77669083 3.19537812,7.01821415 3.23953441,7.25509685 C1.30636065,7.94228401 0,9.73710345 0,11.7966259 C0,14.4184605 2.12193957,16.3957174 4.93540326,16.3957174 L19.0643858,16.3957174 C21.7858572,16.3957174 24,14.227445 24,11.5620401 C24.0000703,9.491877 22.6197643,7.64233103 20.6523952,6.98451104 C20.6807077,6.75205803 20.7072155,6.48290191 20.7072155,6.28483169 Z" id="Shape-Copy-6" fill-opacity="0.85" fill="#FFFFFF"></path>
                <path d="M2.77363031,19.1127775 L1.30541737,22.7170601 C1.149154,23.1006675 1.33345274,23.5383193 1.71706014,23.6945826 C2.10066754,23.850846 2.53831927,23.6665473 2.69458263,23.2829399 L4.16279558,19.6786572 C4.31905895,19.2950498 4.1347602,18.8573981 3.7511528,18.7011347 C3.36754541,18.5448714 2.92989368,18.7291701 2.77363031,19.1127775 L2.77363031,19.1127775 Z" id="Line-Copy" fill="#A8D8FF"></path>
                <path d="M6.77363031,19.1127775 L5.30541737,22.7170601 C5.149154,23.1006675 5.33345274,23.5383193 5.71706014,23.6945826 C6.10066754,23.850846 6.53831927,23.6665473 6.69458263,23.2829399 L8.16279558,19.6786572 C8.31905895,19.2950498 8.1347602,18.8573981 7.7511528,18.7011347 C7.36754541,18.5448714 6.92989368,18.7291701 6.77363031,19.1127775 L6.77363031,19.1127775 Z" id="Line-Copy-2" fill="#A8D8FF"></path>
                <path d="M10.7736303,19.1127775 L9.30541737,22.7170601 C9.149154,23.1006675 9.33345274,23.5383193 9.71706014,23.6945826 C10.1006675,23.850846 10.5383193,23.6665473 10.6945826,23.2829399 L12.1627956,19.6786572 C12.3190589,19.2950498 12.1347602,18.8573981 11.7511528,18.7011347 C11.3675454,18.5448714 10.9298937,18.7291701 10.7736303,19.1127775 L10.7736303,19.1127775 Z" id="Line-Copy-3" fill="#A8D8FF"></path>
                <path d="M14.7736303,19.1127775 L13.3054174,22.7170601 C13.149154,23.1006675 13.3334527,23.5383193 13.7170601,23.6945826 C14.1006675,23.850846 14.5383193,23.6665473 14.6945826,23.2829399 L16.1627956,19.6786572 C16.3190589,19.2950498 16.1347602,18.8573981 15.7511528,18.7011347 C15.3675454,18.5448714 14.9298937,18.7291701 14.7736303,19.1127775 L14.7736303,19.1127775 Z" id="Line-Copy-4" fill="#A8D8FF"></path>
                <path d="M18.7736303,19.1127775 L17.3054174,22.7170601 C17.149154,23.1006675 17.3334527,23.5383193 17.7170601,23.6945826 C18.1006675,23.850846 18.5383193,23.6665473 18.6945826,23.2829399 L20.1627956,19.6786572 C20.3190589,19.2950498 20.1347602,18.8573981 19.7511528,18.7011347 C19.3675454,18.5448714 18.9298937,18.7291701 18.7736303,19.1127775 L18.7736303,19.1127775 Z" id="Line-Copy-4" fill="#A8D8FF"></path>
            </g>
        </g>
    </g>
</svg>