<?xml version="1.0" encoding="UTF-8" standalone="no"?>
<svg width="24px" height="24px" viewBox="0 0 24 24" version="1.1" xmlns="http://www.w3.org/2000/svg" xmlns:xlink="http://www.w3.org/1999/xlink">
    <!-- Generator: Sketch 3.8.3 (29802) - http://www.bohemiancoding.com/sketch -->
    <title>16</title>
    <desc>Created with Sketch.</desc>
    <defs></defs>
    <g id="天气图标" stroke="none" stroke-width="1" fill="none" fill-rule="evenodd">
        <g id="天气图标_默认背景" transform="translate(-204.000000, -882.000000)">
            <g id="Group-13" transform="translate(204.000000, 882.000000)">
                <path d="M3.6678464,17.7131263 L1.60315819,22.7005521 C1.44472224,23.0832673 1.62653649,23.521957 2.00925169,23.680393 C2.39196689,23.8388289 2.83065658,23.6570147 2.98909253,23.2742995 L5.05378074,18.2868737 C5.21221669,17.9041585 5.03040244,17.4654688 4.64768724,17.3070328 C4.26497204,17.1485969 3.82628235,17.3304111 3.6678464,17.7131263 L3.6678464,17.7131263 Z" id="Line-Copy-5" fill="#A8D8FF"></path>
                <path d="M6.6678464,17.7131263 L4.60315819,22.7005521 C4.44472224,23.0832673 4.62653649,23.521957 5.00925169,23.680393 C5.39196689,23.8388289 5.83065658,23.6570147 5.98909253,23.2742995 L8.05378074,18.2868737 C8.21221669,17.9041585 8.03040244,17.4654688 7.64768724,17.3070328 C7.26497204,17.1485969 6.82628235,17.3304111 6.6678464,17.7131263 L6.6678464,17.7131263 Z" id="Line-Copy-5" fill="#A8D8FF"></path>
                <path d="M9.6678464,17.7131263 L7.60315819,22.7005521 C7.44472224,23.0832673 7.62653649,23.521957 8.00925169,23.680393 C8.39196689,23.8388289 8.83065658,23.6570147 8.98909253,23.2742995 L11.0537807,18.2868737 C11.2122167,17.9041585 11.0304024,17.4654688 10.6476872,17.3070328 C10.264972,17.1485969 9.82628235,17.3304111 9.6678464,17.7131263 L9.6678464,17.7131263 Z" id="Line-Copy-5" fill="#A8D8FF"></path>
                <path d="M12.6678464,17.7131263 L10.6031582,22.7005521 C10.4447222,23.0832673 10.6265365,23.521957 11.0092517,23.680393 C11.3919669,23.8388289 11.8306566,23.6570147 11.9890925,23.2742995 L14.0537807,18.2868737 C14.2122167,17.9041585 14.0304024,17.4654688 13.6476872,17.3070328 C13.264972,17.1485969 12.8262824,17.3304111 12.6678464,17.7131263 L12.6678464,17.7131263 Z" id="Line-Copy-5" fill="#A8D8FF"></path>
                <path d="M15.6678464,17.7131263 L13.6031582,22.7005521 C13.4447222,23.0832673 13.6265365,23.521957 14.0092517,23.680393 C14.3919669,23.8388289 14.8306566,23.6570147 14.9890925,23.2742995 L17.0537807,18.2868737 C17.2122167,17.9041585 17.0304024,17.4654688 16.6476872,17.3070328 C16.264972,17.1485969 15.8262824,17.3304111 15.6678464,17.7131263 L15.6678464,17.7131263 Z" id="Line-Copy-5" fill="#A8D8FF"></path>
                <path d="M18.6678464,17.7131263 L16.6031582,22.7005521 C16.4447222,23.0832673 16.6265365,23.521957 17.0092517,23.680393 C17.3919669,23.8388289 17.8306566,23.6570147 17.9890925,23.2742995 L20.0537807,18.2868737 C20.2122167,17.9041585 20.0304024,17.4654688 19.6476872,17.3070328 C19.264972,17.1485969 18.8262824,17.3304111 18.6678464,17.7131263 L18.6678464,17.7131263 Z" id="Line-Copy-5" fill="#A8D8FF"></path>
                <path d="M20.7072155,5.88911431 C20.7072155,2.64187371 18.0098145,0 14.6943659,0 C12.5835123,0 10.6366041,1.09113228 9.55456402,2.83056893 C8.88214149,2.38052228 8.08756259,2.13829583 7.25628052,2.13829583 C5.00475489,2.13829583 3.17327654,3.93217777 3.17327654,6.13731732 C3.17327654,6.38097345 3.19537812,6.62249677 3.23953441,6.85937946 C1.30636065,7.54656663 0,9.34138606 0,11.4009085 C0,14.0227432 2.12193957,16 4.93540326,16 L19.0643858,16 C21.7858572,16 24,13.8317276 24,11.1663227 C24.0000703,9.09615962 22.6197643,7.24661365 20.6523952,6.58879366 C20.6807077,6.35634065 20.7072155,6.08718453 20.7072155,5.88911431 Z" id="Shape-Copy-7" fill-opacity="0.85" fill="#FFFFFF"></path>
            </g>
        </g>
    </g>
</svg>