<?xml version="1.0" encoding="UTF-8" standalone="no"?>
<svg width="24px" height="24px" viewBox="0 0 24 24" version="1.1" xmlns="http://www.w3.org/2000/svg" xmlns:xlink="http://www.w3.org/1999/xlink">
    <!-- Generator: Sketch 3.8.3 (29802) - http://www.bohemiancoding.com/sketch -->
    <title>17</title>
    <desc>Created with Sketch.</desc>
    <defs></defs>
    <g id="天气图标" stroke="none" stroke-width="1" fill="none" fill-rule="evenodd">
        <g id="天气图标_默认背景" transform="translate(-204.000000, -942.000000)">
            <g id="Group-14" transform="translate(204.000000, 942.000000)">
                <path d="M3.45853758,20.5391731 L4.00775279,18.1536134 C4.29055801,17.5499243 5.07361094,17.2631333 5.75675044,17.5130477 C6.19889717,17.6747993 6.49082323,18.0217346 6.56508988,18.4100591 L6.68522487,18.1536134 C6.96803009,17.5499243 7.75108302,17.2631333 8.43422252,17.5130477 C8.87636925,17.6747993 9.16829531,18.0217346 9.24256196,18.4100591 L9.36269695,18.1536134 C9.64550217,17.5499243 10.4285551,17.2631333 11.1116946,17.5130477 C11.5538413,17.6747993 11.8457674,18.0217346 11.920034,18.4100591 L12.040169,18.1536134 C12.3229743,17.5499243 13.1060272,17.2631333 13.7891667,17.5130477 C14.2313134,17.6747993 14.5232395,18.0217346 14.5975061,18.4100591 L14.7176411,18.1536134 C15.0004463,17.5499243 15.7834993,17.2631333 16.4666388,17.5130477 C16.9259105,17.6810641 17.2230997,18.048887 17.2826241,18.4553582 L17.42398,18.1536134 C17.7067852,17.5499243 18.4898381,17.2631333 19.1729777,17.5130477 C19.8561172,17.7629622 20.1806522,18.4549445 19.897847,19.0586336 L19.6020936,20.3432617 C19.6042397,20.3432617 19.6063842,20.3432617 19.6085273,20.3432617 C19.0358344,22.2664794 22.3494464,22.0957527 22.9137507,19.651001 C22.9137507,22.0957527 22.9137507,23.7549554 22.9137507,23.7549554 L0.0434389838,23.7549554 L0.0434389838,19.8587338 C0.222160901,21.3280657 2.3080137,22.5188052 3.45853758,20.5391731 L3.45853758,20.5391731 Z" id="Combined-Shape" fill="#A8D8FF"></path>
                <path d="M20.7072155,5.88911431 C20.7072155,2.64187371 18.0098145,0 14.6943659,0 C12.5835123,0 10.6366041,1.09113228 9.55456402,2.83056893 C8.88214149,2.38052228 8.08756259,2.13829583 7.25628052,2.13829583 C5.00475489,2.13829583 3.17327654,3.93217777 3.17327654,6.13731732 C3.17327654,6.38097345 3.19537812,6.62249677 3.23953441,6.85937946 C1.30636065,7.54656663 0,9.34138606 0,11.4009085 C0,14.0227432 2.12193957,16 4.93540326,16 L19.0643858,16 C21.7858572,16 24,13.8317276 24,11.1663227 C24.0000703,9.09615962 22.6197643,7.24661365 20.6523952,6.58879366 C20.6807077,6.35634065 20.7072155,6.08718453 20.7072155,5.88911431 Z" id="Shape-Copy-7" fill-opacity="0.85" fill="#FFFFFF"></path>
            </g>
        </g>
    </g>
</svg>