<?xml version="1.0" encoding="UTF-8" standalone="no"?>
<svg width="24px" height="24px" viewBox="0 0 24 24" version="1.1" xmlns="http://www.w3.org/2000/svg" xmlns:xlink="http://www.w3.org/1999/xlink">
    <!-- Generator: Sketch 3.8.3 (29802) - http://www.bohemiancoding.com/sketch -->
    <title>21</title>
    <desc>Created with Sketch.</desc>
    <defs></defs>
    <g id="天气图标" stroke="none" stroke-width="1" fill="none" fill-rule="evenodd">
        <g id="天气图标_默认背景" transform="translate(-204.000000, -1156.000000)">
            <g id="Group-18" transform="translate(203.000000, 1156.000000)">
                <path d="M9.58617639,21.1184886 L10.4105167,21.1184886 C10.7361165,21.1184886 11,21.3824233 11,21.7079719 C11,22.0335204 10.7361165,22.2974551 10.4105167,22.2974551 L9.58617642,22.2974551 L9.99833976,23.0113449 C10.1611396,23.2932717 10.0645157,23.6538304 9.78258891,23.8165791 C9.68975808,23.8701965 9.58836699,23.8956724 9.48841113,23.8956724 C9.28465497,23.8956724 9.08653734,23.7899755 8.97735477,23.6008282 L8.56517783,22.8869148 L8.15300085,23.6008283 C8.04386958,23.7899242 7.84570066,23.8956724 7.6419445,23.8956724 C7.54193739,23.8956724 7.4405975,23.8701964 7.34776672,23.8165791 C7.06583994,23.6538305 6.96921593,23.293323 7.13201586,23.011345 L7.54417923,22.2974551 L6.71983886,22.2974551 C6.39429033,22.2974551 6.13035558,22.0335717 6.13035558,21.7079719 C6.13035558,21.3824233 6.39429028,21.1184886 6.71983886,21.1184886 L7.54417926,21.1184886 L7.13201586,20.4045987 C6.96921598,20.1226719 7.06583994,19.7621132 7.34776672,19.5993645 C7.62974474,19.4365646 7.99025221,19.5331886 8.15300085,19.8151154 L8.56517783,20.5290288 L8.97735477,19.8151154 C9.14010341,19.5331887 9.50061089,19.4365646 9.78258891,19.5993646 C10.0645157,19.7621645 10.1611397,20.1226719 9.99833976,20.4045987 L9.58617639,21.1184886 Z" id="Shape-Copy-4" fill="#A8D8FF"></path>
                <path d="M16.5861764,21.1184886 L17.4105167,21.1184886 C17.7361165,21.1184886 18,21.3824233 18,21.7079719 C18,22.0335204 17.7361165,22.2974551 17.4105167,22.2974551 L16.5861764,22.2974551 L16.9983398,23.0113449 C17.1611396,23.2932717 17.0645157,23.6538304 16.7825889,23.8165791 C16.6897581,23.8701965 16.588367,23.8956724 16.4884111,23.8956724 C16.284655,23.8956724 16.0865373,23.7899755 15.9773548,23.6008282 L15.5651778,22.8869148 L15.1530009,23.6008283 C15.0438696,23.7899242 14.8457007,23.8956724 14.6419445,23.8956724 C14.5419374,23.8956724 14.4405975,23.8701964 14.3477667,23.8165791 C14.0658399,23.6538305 13.9692159,23.293323 14.1320159,23.011345 L14.5441792,22.2974551 L13.7198389,22.2974551 C13.3942903,22.2974551 13.1303556,22.0335717 13.1303556,21.7079719 C13.1303556,21.3824233 13.3942903,21.1184886 13.7198389,21.1184886 L14.5441793,21.1184886 L14.1320159,20.4045987 C13.969216,20.1226719 14.0658399,19.7621132 14.3477667,19.5993645 C14.6297447,19.4365646 14.9902522,19.5331886 15.1530009,19.8151154 L15.5651778,20.5290288 L15.9773548,19.8151154 C16.1401034,19.5331887 16.5006109,19.4365646 16.7825889,19.5993646 C17.0645157,19.7621645 17.1611397,20.1226719 16.9983398,20.4045987 L16.5861764,21.1184886 Z" id="Shape-Copy-4" fill="#A8D8FF"></path>
                <path d="M18.7516127,12.4553846 C22.1423842,12.4553846 24.8911476,9.6671518 24.8911476,6.22769231 C24.8911476,2.78823282 22.1423842,0 18.7516127,0 C15.3608412,0 12.6120778,2.78823282 12.6120778,6.22769231 C12.6120778,9.6671518 15.3608412,12.4553846 18.7516127,12.4553846 Z" id="Combined-Shape-Copy-4" fill="#FFD80B"></path>
                <path d="M19.6691847,7.68260055 C19.6691847,4.6951392 17.2230858,2.26461538 14.2165195,2.26461538 C12.3023226,2.26461538 10.5367973,3.26845708 9.55556494,4.8687388 C8.94578835,4.45469588 8.22523603,4.23184755 7.47139999,4.23184755 C5.42963672,4.23184755 3.76878723,5.88221893 3.76878723,7.91094732 C3.76878723,8.13511096 3.78882973,8.35731241 3.82887222,8.57524449 C2.07580172,9.20745668 0.891147573,10.8586906 0.891147573,12.7534512 C0.891147573,15.1655391 2.8153976,16.9846154 5.36674621,16.9846154 L18.1794085,16.9846154 C20.6473352,16.9846154 22.6551984,14.9898048 22.6551984,12.5376322 C22.6552621,10.6330822 21.4035517,8.93149994 19.6194716,8.32630555 C19.6451464,8.11244878 19.6691847,7.86482515 19.6691847,7.68260055 Z" id="Shape-Copy-5" fill-opacity="0.85" fill="#FFFFFF"></path>
            </g>
        </g>
    </g>
</svg>