<?xml version="1.0" encoding="UTF-8" standalone="no"?>
<svg width="24px" height="24px" viewBox="0 0 24 24" version="1.1" xmlns="http://www.w3.org/2000/svg" xmlns:xlink="http://www.w3.org/1999/xlink">
    <!-- Generator: Sketch 3.8.3 (29802) - http://www.bohemiancoding.com/sketch -->
    <title>22</title>
    <desc>Created with Sketch.</desc>
    <defs></defs>
    <g id="天气图标" stroke="none" stroke-width="1" fill="none" fill-rule="evenodd">
        <g id="天气图标_默认背景" transform="translate(-204.000000, -1205.000000)">
            <g id="Group-19" transform="translate(204.000000, 1206.000000)">
                <path d="M9.58617639,20.1184886 L10.4105167,20.1184886 C10.7361165,20.1184886 11,20.3824233 11,20.7079719 C11,21.0335204 10.7361165,21.2974551 10.4105167,21.2974551 L9.58617642,21.2974551 L9.99833976,22.0113449 C10.1611396,22.2932717 10.0645157,22.6538304 9.78258891,22.8165791 C9.68975808,22.8701965 9.58836699,22.8956724 9.48841113,22.8956724 C9.28465497,22.8956724 9.08653734,22.7899755 8.97735477,22.6008282 L8.56517783,21.8869148 L8.15300085,22.6008283 C8.04386958,22.7899242 7.84570066,22.8956724 7.6419445,22.8956724 C7.54193739,22.8956724 7.4405975,22.8701964 7.34776672,22.8165791 C7.06583994,22.6538305 6.96921593,22.293323 7.13201586,22.011345 L7.54417923,21.2974551 L6.71983886,21.2974551 C6.39429033,21.2974551 6.13035558,21.0335717 6.13035558,20.7079719 C6.13035558,20.3824233 6.39429028,20.1184886 6.71983886,20.1184886 L7.54417926,20.1184886 L7.13201586,19.4045987 C6.96921598,19.1226719 7.06583994,18.7621132 7.34776672,18.5993645 C7.62974474,18.4365646 7.99025221,18.5331886 8.15300085,18.8151154 L8.56517783,19.5290288 L8.97735477,18.8151154 C9.14010341,18.5331887 9.50061089,18.4365646 9.78258891,18.5993646 C10.0645157,18.7621645 10.1611397,19.1226719 9.99833976,19.4045987 L9.58617639,20.1184886 Z" id="Shape-Copy-4" fill="#A8D8FF"></path>
                <path d="M16.5861764,20.1184886 L17.4105167,20.1184886 C17.7361165,20.1184886 18,20.3824233 18,20.7079719 C18,21.0335204 17.7361165,21.2974551 17.4105167,21.2974551 L16.5861764,21.2974551 L16.9983398,22.0113449 C17.1611396,22.2932717 17.0645157,22.6538304 16.7825889,22.8165791 C16.6897581,22.8701965 16.588367,22.8956724 16.4884111,22.8956724 C16.284655,22.8956724 16.0865373,22.7899755 15.9773548,22.6008282 L15.5651778,21.8869148 L15.1530009,22.6008283 C15.0438696,22.7899242 14.8457007,22.8956724 14.6419445,22.8956724 C14.5419374,22.8956724 14.4405975,22.8701964 14.3477667,22.8165791 C14.0658399,22.6538305 13.9692159,22.293323 14.1320159,22.011345 L14.5441792,21.2974551 L13.7198389,21.2974551 C13.3942903,21.2974551 13.1303556,21.0335717 13.1303556,20.7079719 C13.1303556,20.3824233 13.3942903,20.1184886 13.7198389,20.1184886 L14.5441793,20.1184886 L14.1320159,19.4045987 C13.969216,19.1226719 14.0658399,18.7621132 14.3477667,18.5993645 C14.6297447,18.4365646 14.9902522,18.5331886 15.1530009,18.8151154 L15.5651778,19.5290288 L15.9773548,18.8151154 C16.1401034,18.5331887 16.5006109,18.4365646 16.7825889,18.5993646 C17.0645157,18.7621645 17.1611397,19.1226719 16.9983398,19.4045987 L16.5861764,20.1184886 Z" id="Shape-Copy-4" fill="#A8D8FF"></path>
                <path d="M20.7072155,5.88911431 C20.7072155,2.64187371 18.0098145,0 14.6943659,0 C12.5835123,0 10.6366041,1.09113228 9.55456402,2.83056893 C8.88214149,2.38052228 8.08756259,2.13829583 7.25628052,2.13829583 C5.00475489,2.13829583 3.17327654,3.93217777 3.17327654,6.13731732 C3.17327654,6.38097345 3.19537812,6.62249677 3.23953441,6.85937946 C1.30636065,7.54656663 0,9.34138606 0,11.4009085 C0,14.0227432 2.12193957,16 4.93540326,16 L19.0643858,16 C21.7858572,16 24,13.8317276 24,11.1663227 C24.0000703,9.09615962 22.6197643,7.24661365 20.6523952,6.58879366 C20.6807077,6.35634065 20.7072155,6.08718453 20.7072155,5.88911431 Z" id="Shape-Copy-8" fill-opacity="0.85" fill="#FFFFFF"></path>
            </g>
        </g>
    </g>
</svg>