<?xml version="1.0" encoding="UTF-8" standalone="no"?>
<svg width="24px" height="24px" viewBox="0 0 24 24" version="1.1" xmlns="http://www.w3.org/2000/svg" xmlns:xlink="http://www.w3.org/1999/xlink">
    <!-- Generator: Sketch 3.8.3 (29802) - http://www.bohemiancoding.com/sketch -->
    <title>24</title>
    <desc>Created with Sketch.</desc>
    <defs></defs>
    <g id="天气图标" stroke="none" stroke-width="1" fill="none" fill-rule="evenodd">
        <g id="天气图标_默认背景" transform="translate(-204.000000, -1302.000000)">
            <g id="Group-21" transform="translate(204.000000, 1303.000000)">
                <path d="M3.58617639,20.1184886 L4.41051672,20.1184886 C4.73611653,20.1184886 5,20.3824233 5,20.7079719 C5,21.0335204 4.73611653,21.2974551 4.41051672,21.2974551 L3.58617642,21.2974551 L3.99833976,22.0113449 C4.16113964,22.2932717 4.06451568,22.6538304 3.78258891,22.8165791 C3.68975808,22.8701965 3.58836699,22.8956724 3.48841113,22.8956724 C3.28465497,22.8956724 3.08653734,22.7899755 2.97735477,22.6008282 L2.56517783,21.8869148 L2.15300085,22.6008283 C2.04386958,22.7899242 1.84570066,22.8956724 1.6419445,22.8956724 C1.54193739,22.8956724 1.4405975,22.8701964 1.34776672,22.8165791 C1.06583994,22.6538305 0.969215934,22.293323 1.13201586,22.011345 L1.54417923,21.2974551 L0.719838855,21.2974551 C0.394290335,21.2974551 0.130355578,21.0335717 0.130355578,20.7079719 C0.130355578,20.3824233 0.394290285,20.1184886 0.719838855,20.1184886 L1.54417926,20.1184886 L1.13201586,19.4045987 C0.969215984,19.1226719 1.06583994,18.7621132 1.34776672,18.5993645 C1.62974474,18.4365646 1.99025221,18.5331886 2.15300085,18.8151154 L2.56517783,19.5290288 L2.97735477,18.8151154 C3.14010341,18.5331887 3.50061089,18.4365646 3.78258891,18.5993646 C4.06451568,18.7621645 4.16113969,19.1226719 3.99833976,19.4045987 L3.58617639,20.1184886 Z" id="Shape-Copy-4" fill="#A8D8FF"></path>
                <path d="M9.58617639,20.1184886 L10.4105167,20.1184886 C10.7361165,20.1184886 11,20.3824233 11,20.7079719 C11,21.0335204 10.7361165,21.2974551 10.4105167,21.2974551 L9.58617642,21.2974551 L9.99833976,22.0113449 C10.1611396,22.2932717 10.0645157,22.6538304 9.78258891,22.8165791 C9.68975808,22.8701965 9.58836699,22.8956724 9.48841113,22.8956724 C9.28465497,22.8956724 9.08653734,22.7899755 8.97735477,22.6008282 L8.56517783,21.8869148 L8.15300085,22.6008283 C8.04386958,22.7899242 7.84570066,22.8956724 7.6419445,22.8956724 C7.54193739,22.8956724 7.4405975,22.8701964 7.34776672,22.8165791 C7.06583994,22.6538305 6.96921593,22.293323 7.13201586,22.011345 L7.54417923,21.2974551 L6.71983886,21.2974551 C6.39429033,21.2974551 6.13035558,21.0335717 6.13035558,20.7079719 C6.13035558,20.3824233 6.39429028,20.1184886 6.71983886,20.1184886 L7.54417926,20.1184886 L7.13201586,19.4045987 C6.96921598,19.1226719 7.06583994,18.7621132 7.34776672,18.5993645 C7.62974474,18.4365646 7.99025221,18.5331886 8.15300085,18.8151154 L8.56517783,19.5290288 L8.97735477,18.8151154 C9.14010341,18.5331887 9.50061089,18.4365646 9.78258891,18.5993646 C10.0645157,18.7621645 10.1611397,19.1226719 9.99833976,19.4045987 L9.58617639,20.1184886 Z" id="Shape-Copy-4" fill="#A8D8FF"></path>
                <path d="M15.5861764,20.1184886 L16.4105167,20.1184886 C16.7361165,20.1184886 17,20.3824233 17,20.7079719 C17,21.0335204 16.7361165,21.2974551 16.4105167,21.2974551 L15.5861764,21.2974551 L15.9983398,22.0113449 C16.1611396,22.2932717 16.0645157,22.6538304 15.7825889,22.8165791 C15.6897581,22.8701965 15.588367,22.8956724 15.4884111,22.8956724 C15.284655,22.8956724 15.0865373,22.7899755 14.9773548,22.6008282 L14.5651778,21.8869148 L14.1530009,22.6008283 C14.0438696,22.7899242 13.8457007,22.8956724 13.6419445,22.8956724 C13.5419374,22.8956724 13.4405975,22.8701964 13.3477667,22.8165791 C13.0658399,22.6538305 12.9692159,22.293323 13.1320159,22.011345 L13.5441792,21.2974551 L12.7198389,21.2974551 C12.3942903,21.2974551 12.1303556,21.0335717 12.1303556,20.7079719 C12.1303556,20.3824233 12.3942903,20.1184886 12.7198389,20.1184886 L13.5441793,20.1184886 L13.1320159,19.4045987 C12.969216,19.1226719 13.0658399,18.7621132 13.3477667,18.5993645 C13.6297447,18.4365646 13.9902522,18.5331886 14.1530009,18.8151154 L14.5651778,19.5290288 L14.9773548,18.8151154 C15.1401034,18.5331887 15.5006109,18.4365646 15.7825889,18.5993646 C16.0645157,18.7621645 16.1611397,19.1226719 15.9983398,19.4045987 L15.5861764,20.1184886 Z" id="Shape-Copy-4" fill="#A8D8FF"></path>
                <path d="M21.5861764,20.1184886 L22.4105167,20.1184886 C22.7361165,20.1184886 23,20.3824233 23,20.7079719 C23,21.0335204 22.7361165,21.2974551 22.4105167,21.2974551 L21.5861764,21.2974551 L21.9983398,22.0113449 C22.1611396,22.2932717 22.0645157,22.6538304 21.7825889,22.8165791 C21.6897581,22.8701965 21.588367,22.8956724 21.4884111,22.8956724 C21.284655,22.8956724 21.0865373,22.7899755 20.9773548,22.6008282 L20.5651778,21.8869148 L20.1530009,22.6008283 C20.0438696,22.7899242 19.8457007,22.8956724 19.6419445,22.8956724 C19.5419374,22.8956724 19.4405975,22.8701964 19.3477667,22.8165791 C19.0658399,22.6538305 18.9692159,22.293323 19.1320159,22.011345 L19.5441792,21.2974551 L18.7198389,21.2974551 C18.3942903,21.2974551 18.1303556,21.0335717 18.1303556,20.7079719 C18.1303556,20.3824233 18.3942903,20.1184886 18.7198389,20.1184886 L19.5441793,20.1184886 L19.1320159,19.4045987 C18.969216,19.1226719 19.0658399,18.7621132 19.3477667,18.5993645 C19.6297447,18.4365646 19.9902522,18.5331886 20.1530009,18.8151154 L20.5651778,19.5290288 L20.9773548,18.8151154 C21.1401034,18.5331887 21.5006109,18.4365646 21.7825889,18.5993646 C22.0645157,18.7621645 22.1611397,19.1226719 21.9983398,19.4045987 L21.5861764,20.1184886 Z" id="Shape-Copy-4" fill="#A8D8FF"></path>
                <path d="M20.7072155,5.88911431 C20.7072155,2.64187371 18.0098145,0 14.6943659,0 C12.5835123,0 10.6366041,1.09113228 9.55456402,2.83056893 C8.88214149,2.38052228 8.08756259,2.13829583 7.25628052,2.13829583 C5.00475489,2.13829583 3.17327654,3.93217777 3.17327654,6.13731732 C3.17327654,6.38097345 3.19537812,6.62249677 3.23953441,6.85937946 C1.30636065,7.54656663 0,9.34138606 0,11.4009085 C0,14.0227432 2.12193957,16 4.93540326,16 L19.0643858,16 C21.7858572,16 24,13.8317276 24,11.1663227 C24.0000703,9.09615962 22.6197643,7.24661365 20.6523952,6.58879366 C20.6807077,6.35634065 20.7072155,6.08718453 20.7072155,5.88911431 Z" id="Shape-Copy-8" fill-opacity="0.85" fill="#FFFFFF"></path>
            </g>
        </g>
    </g>
</svg>