<?xml version="1.0" encoding="UTF-8" standalone="no"?>
<svg width="24px" height="24px" viewBox="0 0 24 24" version="1.1" xmlns="http://www.w3.org/2000/svg" xmlns:xlink="http://www.w3.org/1999/xlink">
    <!-- Generator: Sketch 3.8.3 (29802) - http://www.bohemiancoding.com/sketch -->
    <title>27</title>
    <desc>Created with Sketch.</desc>
    <defs></defs>
    <g id="天气图标" stroke="none" stroke-width="1" fill="none" fill-rule="evenodd">
        <g id="天气图标_默认背景" transform="translate(-204.000000, -1461.000000)" fill="#FFFFFF">
            <path d="M207.692308,1482.38462 C207.692308,1482.89508 207.278769,1483.30769 206.769231,1483.30769 L204.923077,1483.30769 C204.413538,1483.30769 204,1482.89508 204,1482.38462 C204,1481.87415 204.413538,1481.46154 204.923077,1481.46154 L206.769231,1481.46154 C207.278769,1481.46154 207.692308,1481.87415 207.692308,1482.38462 L207.692308,1482.38462 Z M212.307692,1481.46154 L210.461538,1481.46154 C209.952,1481.46154 209.538462,1481.87415 209.538462,1482.38462 C209.538462,1482.89508 209.952,1483.30769 210.461538,1483.30769 L212.307692,1483.30769 C212.817231,1483.30769 213.230769,1482.89508 213.230769,1482.38462 C213.230769,1481.87415 212.817231,1481.46154 212.307692,1481.46154 L212.307692,1481.46154 Z M217.846154,1481.46154 L216,1481.46154 C215.490462,1481.46154 215.076923,1481.87415 215.076923,1482.38462 C215.076923,1482.89508 215.490462,1483.30769 216,1483.30769 L217.846154,1483.30769 C218.356615,1483.30769 218.769231,1482.89508 218.769231,1482.38462 C218.769231,1481.87415 218.356615,1481.46154 217.846154,1481.46154 L217.846154,1481.46154 Z M223.384615,1481.46154 L221.538462,1481.46154 C221.028,1481.46154 220.615385,1481.87415 220.615385,1482.38462 C220.615385,1482.89508 221.028,1483.30769 221.538462,1483.30769 L223.384615,1483.30769 C223.895077,1483.30769 224.307692,1482.89508 224.307692,1482.38462 C224.307692,1481.87415 223.895077,1481.46154 223.384615,1481.46154 L223.384615,1481.46154 Z M211.384615,1478.69231 C211.384615,1478.18185 210.971077,1477.76923 210.461538,1477.76923 L208.615385,1477.76923 C208.105846,1477.76923 207.692308,1478.18185 207.692308,1478.69231 C207.692308,1479.20277 208.105846,1479.61538 208.615385,1479.61538 L210.461538,1479.61538 C210.971077,1479.61538 211.384615,1479.20277 211.384615,1478.69231 L211.384615,1478.69231 Z M216.923077,1478.69231 C216.923077,1478.18185 216.509538,1477.76923 216,1477.76923 L214.153846,1477.76923 C213.644308,1477.76923 213.230769,1478.18185 213.230769,1478.69231 C213.230769,1479.20277 213.644308,1479.61538 214.153846,1479.61538 L216,1479.61538 C216.509538,1479.61538 216.923077,1479.20277 216.923077,1478.69231 L216.923077,1478.69231 Z M222.461538,1478.69231 C222.461538,1478.18185 222.048923,1477.76923 221.538462,1477.76923 L219.692308,1477.76923 C219.181846,1477.76923 218.769231,1478.18185 218.769231,1478.69231 C218.769231,1479.20277 219.181846,1479.61538 219.692308,1479.61538 L221.538462,1479.61538 C222.048923,1479.61538 222.461538,1479.20277 222.461538,1478.69231 L222.461538,1478.69231 Z M227.076923,1477.76923 L225.230769,1477.76923 C224.720308,1477.76923 224.307692,1478.18185 224.307692,1478.69231 C224.307692,1479.20277 224.720308,1479.61538 225.230769,1479.61538 L227.076923,1479.61538 C227.587385,1479.61538 228,1479.20277 228,1478.69231 C228,1478.18185 227.587385,1477.76923 227.076923,1477.76923 L227.076923,1477.76923 Z M204.923077,1475.92308 L206.769231,1475.92308 C207.278769,1475.92308 207.692308,1475.51046 207.692308,1475 C207.692308,1474.48954 207.278769,1474.07692 206.769231,1474.07692 L204.923077,1474.07692 C204.413538,1474.07692 204,1474.48954 204,1475 C204,1475.51046 204.413538,1475.92308 204.923077,1475.92308 L204.923077,1475.92308 Z M210.461538,1475.92308 L212.307692,1475.92308 C212.817231,1475.92308 213.230769,1475.51046 213.230769,1475 C213.230769,1474.48954 212.817231,1474.07692 212.307692,1474.07692 L210.461538,1474.07692 C209.952,1474.07692 209.538462,1474.48954 209.538462,1475 C209.538462,1475.51046 209.952,1475.92308 210.461538,1475.92308 L210.461538,1475.92308 Z M216,1475.92308 L217.846154,1475.92308 C218.356615,1475.92308 218.769231,1475.51046 218.769231,1475 C218.769231,1474.48954 218.356615,1474.07692 217.846154,1474.07692 L216,1474.07692 C215.490462,1474.07692 215.076923,1474.48954 215.076923,1475 C215.076923,1475.51046 215.490462,1475.92308 216,1475.92308 L216,1475.92308 Z M221.538462,1475.92308 L223.384615,1475.92308 C223.895077,1475.92308 224.307692,1475.51046 224.307692,1475 C224.307692,1474.48954 223.895077,1474.07692 223.384615,1474.07692 L221.538462,1474.07692 C221.028,1474.07692 220.615385,1474.48954 220.615385,1475 C220.615385,1475.51046 221.028,1475.92308 221.538462,1475.92308 L221.538462,1475.92308 Z M211.384615,1471.30769 C211.384615,1470.79815 210.971077,1470.38462 210.461538,1470.38462 L208.615385,1470.38462 C208.105846,1470.38462 207.692308,1470.79815 207.692308,1471.30769 C207.692308,1471.81723 208.105846,1472.23077 208.615385,1472.23077 L210.461538,1472.23077 C210.971077,1472.23077 211.384615,1471.81723 211.384615,1471.30769 L211.384615,1471.30769 Z M216.923077,1471.30769 C216.923077,1470.79815 216.509538,1470.38462 216,1470.38462 L214.153846,1470.38462 C213.644308,1470.38462 213.230769,1470.79815 213.230769,1471.30769 C213.230769,1471.81723 213.644308,1472.23077 214.153846,1472.23077 L216,1472.23077 C216.509538,1472.23077 216.923077,1471.81723 216.923077,1471.30769 L216.923077,1471.30769 Z M222.461538,1471.30769 C222.461538,1470.79815 222.048923,1470.38462 221.538462,1470.38462 L219.692308,1470.38462 C219.181846,1470.38462 218.769231,1470.79815 218.769231,1471.30769 C218.769231,1471.81723 219.181846,1472.23077 219.692308,1472.23077 L221.538462,1472.23077 C222.048923,1472.23077 222.461538,1471.81723 222.461538,1471.30769 L222.461538,1471.30769 Z M227.076923,1470.38462 L225.230769,1470.38462 C224.720308,1470.38462 224.307692,1470.79815 224.307692,1471.30769 C224.307692,1471.81723 224.720308,1472.23077 225.230769,1472.23077 L227.076923,1472.23077 C227.587385,1472.23077 228,1471.81723 228,1471.30769 C228,1470.79815 227.587385,1470.38462 227.076923,1470.38462 L227.076923,1470.38462 Z M204.923077,1468.53846 L206.769231,1468.53846 C207.278769,1468.53846 207.692308,1468.12492 207.692308,1467.61538 C207.692308,1467.10585 207.278769,1466.69231 206.769231,1466.69231 L204.923077,1466.69231 C204.413538,1466.69231 204,1467.10585 204,1467.61538 C204,1468.12492 204.413538,1468.53846 204.923077,1468.53846 L204.923077,1468.53846 Z M209.538462,1467.61538 C209.538462,1468.12492 209.952,1468.53846 210.461538,1468.53846 L212.307692,1468.53846 C212.817231,1468.53846 213.230769,1468.12492 213.230769,1467.61538 C213.230769,1467.10585 212.817231,1466.69231 212.307692,1466.69231 L210.461538,1466.69231 C209.952,1466.69231 209.538462,1467.10585 209.538462,1467.61538 L209.538462,1467.61538 Z M215.076923,1467.61538 C215.076923,1468.12492 215.490462,1468.53846 216,1468.53846 L217.846154,1468.53846 C218.356615,1468.53846 218.769231,1468.12492 218.769231,1467.61538 C218.769231,1467.10585 218.356615,1466.69231 217.846154,1466.69231 L216,1466.69231 C215.490462,1466.69231 215.076923,1467.10585 215.076923,1467.61538 L215.076923,1467.61538 Z M220.615385,1467.61538 C220.615385,1468.12492 221.028,1468.53846 221.538462,1468.53846 L223.384615,1468.53846 C223.895077,1468.53846 224.307692,1468.12492 224.307692,1467.61538 C224.307692,1467.10585 223.895077,1466.69231 223.384615,1466.69231 L221.538462,1466.69231 C221.028,1466.69231 220.615385,1467.10585 220.615385,1467.61538 L220.615385,1467.61538 Z M208.615385,1464.84615 L210.461538,1464.84615 C210.971077,1464.84615 211.384615,1464.43262 211.384615,1463.92308 C211.384615,1463.41354 210.971077,1463 210.461538,1463 L208.615385,1463 C208.105846,1463 207.692308,1463.41354 207.692308,1463.92308 C207.692308,1464.43262 208.105846,1464.84615 208.615385,1464.84615 L208.615385,1464.84615 Z M214.153846,1464.84615 L216,1464.84615 C216.509538,1464.84615 216.923077,1464.43262 216.923077,1463.92308 C216.923077,1463.41354 216.509538,1463 216,1463 L214.153846,1463 C213.644308,1463 213.230769,1463.41354 213.230769,1463.92308 C213.230769,1464.43262 213.644308,1464.84615 214.153846,1464.84615 L214.153846,1464.84615 Z M219.692308,1464.84615 L221.538462,1464.84615 C222.048923,1464.84615 222.461538,1464.43262 222.461538,1463.92308 C222.461538,1463.41354 222.048923,1463 221.538462,1463 L219.692308,1463 C219.181846,1463 218.769231,1463.41354 218.769231,1463.92308 C218.769231,1464.43262 219.181846,1464.84615 219.692308,1464.84615 L219.692308,1464.84615 Z M225.230769,1464.84615 L227.076923,1464.84615 C227.587385,1464.84615 228,1464.43262 228,1463.92308 C228,1463.41354 227.587385,1463 227.076923,1463 L225.230769,1463 C224.720308,1463 224.307692,1463.41354 224.307692,1463.92308 C224.307692,1464.43262 224.720308,1464.84615 225.230769,1464.84615 L225.230769,1464.84615 Z" id="Shape"></path>
        </g>
    </g>
</svg>