<?xml version="1.0" encoding="UTF-8" standalone="no"?>
<svg width="24px" height="24px" viewBox="0 0 24 24" version="1.1" xmlns="http://www.w3.org/2000/svg" xmlns:xlink="http://www.w3.org/1999/xlink">
    <!-- Generator: Sketch 3.8.3 (29802) - http://www.bohemiancoding.com/sketch -->
    <title>3</title>
    <desc>Created with Sketch.</desc>
    <defs></defs>
    <g id="天气图标" stroke="none" stroke-width="1" fill="none" fill-rule="evenodd">
        <g id="天气图标_默认背景" transform="translate(-204.000000, -218.000000)" fill="#DEDBC2">
            <path d="M216.189062,240.000252 L216.186765,239.998248 C213.472057,239.9829 210.922115,238.918934 209.000519,236.997728 C207.065653,235.062495 206,232.489728 206,229.752488 C206,227.502312 206.722386,225.378241 208.089906,223.61034 C208.744767,222.762999 209.528837,222.025266 210.419605,221.416765 C211.319832,220.802374 212.307501,220.334127 213.355875,220.025758 C213.413917,220.00848 213.474647,220 213.535353,220 C213.724558,220 213.903084,220.083532 214.024789,220.229676 C214.186891,220.425479 214.216975,220.697922 214.101062,220.924665 C213.475967,222.14306 213.184901,223.303707 213.184901,224.578164 C213.184901,229.119768 216.880117,232.814984 221.421721,232.814984 C222.696545,232.814984 223.857484,232.523918 225.07522,231.899483 C225.164959,231.853464 225.265109,231.829319 225.365234,231.829319 C225.513113,231.829319 225.656593,231.881154 225.770209,231.975463 C225.965329,232.137272 226.04561,232.399622 225.974395,232.64401 C225.663852,233.695635 225.195605,234.683303 224.58312,235.580671 C223.975279,236.471048 223.237155,237.255191 222.389814,237.91037 C220.622011,239.277793 218.497866,240.000178 216.247764,240.000178 L216.189062,240.000178 L216.189062,240.000252 L216.189062,240.000252 Z" id="Shape"></path>
        </g>
    </g>
</svg>