<?xml version="1.0" encoding="UTF-8" standalone="no"?>
<svg width="24px" height="24px" viewBox="0 0 24 24" version="1.1" xmlns="http://www.w3.org/2000/svg" xmlns:xlink="http://www.w3.org/1999/xlink">
    <!-- Generator: Sketch 3.8.3 (29802) - http://www.bohemiancoding.com/sketch -->
    <title>30</title>
    <desc>Created with Sketch.</desc>
    <defs></defs>
    <g id="天气图标" stroke="none" stroke-width="1" fill="none" fill-rule="evenodd" fill-opacity="0.85">
        <g id="天气图标_默认背景" transform="translate(-204.000000, -1607.000000)" fill="#FFFFFF">
            <g id="Group-2" transform="translate(204.000000, 1608.000000)">
                <path d="M21.2486449,7.967 L22.595,7.967 C21.604,5.788 19.422,4.359 17.008,4.359 C16.634,4.359 16.271,4.413 15.966,4.466 L15.704,4.511 L15.575,4.279 C14.103,1.639 11.321,0 8.312,0 C3.85,0 0.197,3.541 0,7.967 L1.27455115,7.967 L1.27720509,7.99461837 L21.2656283,7.99461837 L21.2486449,7.967 L21.2486449,7.967 Z" id="Combined-Shape"></path>
                <path d="M22.451,19.7168 L0.712,19.7168 C0.319,19.7168 0,20.0368 0,20.4318 C0,20.8258 0.319,21.1468 0.712,21.1468 L22.451,21.1468 C22.843,21.1468 23.162,20.8258 23.162,20.4318 C23.162,20.0368 22.843,19.7168 22.451,19.7168 Z M22.451,11 L0.712,11 C0.319,11 0,11.321 0,11.715 C0,12.109 0.319,12.43 0.712,12.43 L22.451,12.43 C22.843,12.43 23.162,12.109 23.162,11.715 C23.162,11.321 22.843,11 22.451,11 Z M22.451,15.3584 L0.712,15.3584 C0.319,15.3584 0,15.6784 0,16.0734 C0,16.4674 0.319,16.7884 0.712,16.7884 L22.451,16.7884 C22.843,16.7884 23.162,16.4674 23.162,16.0734 C23.162,15.6784 22.843,15.3584 22.451,15.3584 Z" id="Combined-Shape-Copy"></path>
            </g>
        </g>
    </g>
</svg>