<?xml version="1.0" encoding="UTF-8" standalone="no"?>
<svg width="24px" height="24px" viewBox="0 0 24 24" version="1.1" xmlns="http://www.w3.org/2000/svg" xmlns:xlink="http://www.w3.org/1999/xlink">
    <!-- Generator: Sketch 3.8.3 (29802) - http://www.bohemiancoding.com/sketch -->
    <title>31</title>
    <desc>Created with Sketch.</desc>
    <defs></defs>
    <g id="天气图标" stroke="none" stroke-width="1" fill="none" fill-rule="evenodd">
        <g id="天气图标_默认背景" transform="translate(-204.000000, -1664.000000)" fill="#FFFFFF">
            <path d="M222.278251,1671.28412 C218.840182,1671.28412 216.84796,1674.04682 216.00044,1675.59877 C215.15248,1674.04682 213.160258,1671.28324 209.721749,1671.28324 C206.245817,1671.28324 204,1673.46522 204,1676.84297 C204,1680.26299 206.273554,1682.47182 209.793073,1682.47182 C213.21221,1682.47182 215.163047,1679.67347 216,1678.07 C216.836073,1679.67259 218.786909,1682.47182 222.205606,1682.47182 C225.725565,1682.47182 227.999119,1680.26299 228,1676.84385 C228,1673.4661 225.754623,1671.28412 222.278251,1671.28412 Z M215.997358,1668.16349 C216.594805,1668.16349 217.079102,1667.67875 217.079102,1667.08174 C217.079102,1666.4843 216.594805,1666 215.997358,1666 C215.399912,1666 214.915615,1666.4843 214.915615,1667.08174 C214.915615,1667.67875 215.399912,1668.16349 215.997358,1668.16349 Z M226.814485,1668.16349 C227.411491,1668.16349 227.895788,1667.67875 227.895788,1667.08174 C227.895788,1666.4843 227.411491,1666 226.814485,1666 C226.217479,1666 225.732741,1666.4843 225.732741,1667.08174 C225.732741,1667.67875 226.217479,1668.16349 226.814485,1668.16349 Z M205.962284,1668.16349 C206.55929,1668.16349 207.044027,1667.67875 207.044027,1667.08174 C207.044027,1666.4843 206.55929,1666 205.962284,1666 C205.364837,1666 204.88054,1666.4843 204.88054,1667.08174 C204.88054,1667.67875 205.364837,1668.16349 205.962284,1668.16349 Z M215.913927,1684.93157 C215.316481,1684.93157 214.832184,1685.41586 214.832184,1686.01331 C214.832184,1686.61032 215.316481,1687.09505 215.913927,1687.09505 C216.510933,1687.09505 216.995671,1686.61032 216.995671,1686.01331 C216.995671,1685.41586 216.510933,1684.93157 215.913927,1684.93157 Z M226.730657,1684.93157 C226.133211,1684.93157 225.648914,1685.41586 225.648914,1686.01331 C225.648914,1686.61032 226.133211,1687.09505 226.730657,1687.09505 C227.328104,1687.09505 227.812401,1686.61032 227.812401,1686.01331 C227.812401,1685.41586 227.328104,1684.93157 226.730657,1684.93157 Z M205.962284,1684.93157 C205.364837,1684.93157 204.88054,1685.41586 204.88054,1686.01331 C204.88054,1686.61032 205.364837,1687.09505 205.962284,1687.09505 C206.55929,1687.09505 207.044027,1686.61032 207.044027,1686.01331 C207.044027,1685.41586 206.55929,1684.93157 205.962284,1684.93157 Z M209.874083,1680.602 C207.434547,1680.602 205.978574,1679.1993 205.978574,1676.84913 C205.978574,1674.53463 207.412093,1673.15307 209.815087,1673.15307 C212.688289,1673.15307 214.183886,1676.12049 214.498679,1676.82492 C214.197534,1677.54652 212.753449,1680.602 209.874083,1680.602 Z M222.120634,1680.55401 C219.286616,1680.55401 217.853977,1677.5364 217.556355,1676.82492 C217.864984,1676.12841 219.332844,1673.2015 222.17875,1673.2015 C224.549163,1673.2015 225.965072,1674.56545 225.965072,1676.84957 C225.965072,1679.16892 224.528471,1680.55401 222.120634,1680.55401 Z" id="Combined-Shape"></path>
        </g>
    </g>
</svg>