<?xml version="1.0" encoding="UTF-8" standalone="no"?>
<svg width="24px" height="24px" viewBox="0 0 24 24" version="1.1" xmlns="http://www.w3.org/2000/svg" xmlns:xlink="http://www.w3.org/1999/xlink">
    <!-- Generator: Sketch 3.8.3 (29802) - http://www.bohemiancoding.com/sketch -->
    <title>34</title>
    <desc>Created with Sketch.</desc>
    <defs></defs>
    <g id="天气图标" stroke="none" stroke-width="1" fill="none" fill-rule="evenodd">
        <g id="天气图标_默认背景" transform="translate(-204.000000, -1826.000000)" fill="#FFFFFF">
            <path d="M216.635569,1848.45643 L214.468039,1848.45643 C214.209168,1848.45643 213.997552,1848.67729 213.997552,1848.94849 L213.997552,1849.50938 C213.997552,1849.78058 214.209168,1850.00041 214.468039,1850.00041 L216.635569,1850.00041 C216.89444,1850.00041 217.105029,1849.78058 217.105029,1849.50938 L217.105029,1848.94849 C217.105029,1848.67729 216.89444,1848.45643 216.635569,1848.45643 Z M223.898643,1840.97157 L213.91157,1840.97157 C213.652699,1840.97157 213.442109,1841.19141 213.442109,1841.4626 L213.442109,1842.02349 C213.442109,1842.29469 213.652699,1842.51555 213.91157,1842.51555 L223.898643,1842.51555 C224.157514,1842.51555 224.368103,1842.29469 224.368103,1842.02349 L224.368103,1841.4626 C224.368103,1841.19141 224.157514,1840.97157 223.898643,1840.97157 Z M204.466378,1827.79977 L204.468433,1827.54398 L227.53054,1827.54398 C227.789411,1827.54398 228,1827.32415 228,1827.05295 L228,1826.49103 C228,1826.21983 227.789411,1826 227.53054,1826 L204.46946,1826 C204.210589,1826 204,1826.21983 204,1826.49103 L204,1827.05295 C204,1827.18546 204.049309,1827.30976 204.139708,1827.40324 C204.227026,1827.49364 204.343107,1827.54398 204.466378,1827.54398 L204.466378,1827.79977 Z M220.267055,1844.71349 L214.637641,1844.71349 C214.37877,1844.71349 214.16818,1844.93332 214.16818,1845.20452 L214.16818,1845.76541 C214.16818,1846.0366 214.37877,1846.25747 214.637641,1846.25747 L220.267055,1846.25747 C220.525926,1846.25747 220.736515,1846.0366 220.736515,1845.76541 L220.736515,1845.20452 C220.736515,1844.93332 220.525926,1844.71349 220.267055,1844.71349 Z M227.534238,1837.22976 L210.280289,1837.22976 C210.020391,1837.22976 209.809802,1837.44959 209.809802,1837.72079 L209.809802,1838.27962 C209.809802,1838.55082 210.020391,1838.77168 210.280289,1838.77168 L227.530129,1838.77168 C227.789,1838.77168 227.999589,1838.55082 227.999589,1838.27962 L227.999589,1837.72079 C227.999589,1837.44959 227.791054,1837.22976 227.534238,1837.22976 Z M205.9215,1835.02977 L223.172367,1835.02977 C223.431237,1835.02977 223.641827,1834.8089 223.641827,1834.5377 L223.641827,1833.97682 C223.641827,1833.70562 223.431237,1833.48579 223.172367,1833.48579 L205.9215,1833.48579 C205.662629,1833.48579 205.451012,1833.70562 205.451012,1833.97682 L205.451012,1834.5377 C205.451012,1834.8089 205.662629,1835.02977 205.9215,1835.02977 Z M227.534238,1829.74387 L208.10146,1829.74387 C207.842589,1829.74387 207.630972,1829.9637 207.630972,1830.2349 L207.630972,1830.79476 C207.630972,1831.06596 207.842589,1831.28579 208.10146,1831.28579 L227.530129,1831.28579 C227.789,1831.28579 227.999589,1831.06596 227.999589,1830.79476 L227.999589,1830.2349 C227.999589,1829.9637 227.791054,1829.74387 227.534238,1829.74387 Z" id="Combined-Shape"></path>
        </g>
    </g>
</svg>