<?xml version="1.0" encoding="UTF-8" standalone="no"?>
<svg width="24px" height="24px" viewBox="0 0 24 24" version="1.1" xmlns="http://www.w3.org/2000/svg" xmlns:xlink="http://www.w3.org/1999/xlink">
    <!-- Generator: Sketch 3.8.3 (29802) - http://www.bohemiancoding.com/sketch -->
    <title>35</title>
    <desc>Created with Sketch.</desc>
    <defs></defs>
    <g id="天气图标" stroke="none" stroke-width="1" fill="none" fill-rule="evenodd">
        <g id="天气图标_默认背景" transform="translate(-204.000000, -1878.000000)" fill="#FFFFFF">
            <path d="M216.635569,1900.45643 L214.468039,1900.45643 C214.209168,1900.45643 213.997552,1900.67729 213.997552,1900.94849 L213.997552,1901.50938 C213.997552,1901.78058 214.209168,1902.00041 214.468039,1902.00041 L216.635569,1902.00041 C216.89444,1902.00041 217.105029,1901.78058 217.105029,1901.50938 L217.105029,1900.94849 C217.105029,1900.67729 216.89444,1900.45643 216.635569,1900.45643 Z M223.898643,1892.97157 L213.91157,1892.97157 C213.652699,1892.97157 213.442109,1893.19141 213.442109,1893.4626 L213.442109,1894.02349 C213.442109,1894.29469 213.652699,1894.51555 213.91157,1894.51555 L223.898643,1894.51555 C224.157514,1894.51555 224.368103,1894.29469 224.368103,1894.02349 L224.368103,1893.4626 C224.368103,1893.19141 224.157514,1892.97157 223.898643,1892.97157 Z M204.466378,1879.79977 L204.468433,1879.54398 L227.53054,1879.54398 C227.789411,1879.54398 228,1879.32415 228,1879.05295 L228,1878.49103 C228,1878.21983 227.789411,1878 227.53054,1878 L204.46946,1878 C204.210589,1878 204,1878.21983 204,1878.49103 L204,1879.05295 C204,1879.18546 204.049309,1879.30976 204.139708,1879.40324 C204.227026,1879.49364 204.343107,1879.54398 204.466378,1879.54398 L204.466378,1879.79977 Z M220.267055,1896.71349 L214.637641,1896.71349 C214.37877,1896.71349 214.16818,1896.93332 214.16818,1897.20452 L214.16818,1897.76541 C214.16818,1898.0366 214.37877,1898.25747 214.637641,1898.25747 L220.267055,1898.25747 C220.525926,1898.25747 220.736515,1898.0366 220.736515,1897.76541 L220.736515,1897.20452 C220.736515,1896.93332 220.525926,1896.71349 220.267055,1896.71349 Z M227.534238,1889.22976 L210.280289,1889.22976 C210.020391,1889.22976 209.809802,1889.44959 209.809802,1889.72079 L209.809802,1890.27962 C209.809802,1890.55082 210.020391,1890.77168 210.280289,1890.77168 L227.530129,1890.77168 C227.789,1890.77168 227.999589,1890.55082 227.999589,1890.27962 L227.999589,1889.72079 C227.999589,1889.44959 227.791054,1889.22976 227.534238,1889.22976 Z M205.9215,1887.02977 L223.172367,1887.02977 C223.431237,1887.02977 223.641827,1886.8089 223.641827,1886.5377 L223.641827,1885.97682 C223.641827,1885.70562 223.431237,1885.48579 223.172367,1885.48579 L205.9215,1885.48579 C205.662629,1885.48579 205.451012,1885.70562 205.451012,1885.97682 L205.451012,1886.5377 C205.451012,1886.8089 205.662629,1887.02977 205.9215,1887.02977 Z M227.534238,1881.74387 L208.10146,1881.74387 C207.842589,1881.74387 207.630972,1881.9637 207.630972,1882.2349 L207.630972,1882.79476 C207.630972,1883.06596 207.842589,1883.28579 208.10146,1883.28579 L227.530129,1883.28579 C227.789,1883.28579 227.999589,1883.06596 227.999589,1882.79476 L227.999589,1882.2349 C227.999589,1881.9637 227.791054,1881.74387 227.534238,1881.74387 Z" id="Combined-Shape"></path>
        </g>
    </g>
</svg>