<?xml version="1.0" encoding="UTF-8" standalone="no"?>
<svg width="24px" height="24px" viewBox="0 0 24 24" version="1.1" xmlns="http://www.w3.org/2000/svg" xmlns:xlink="http://www.w3.org/1999/xlink">
    <!-- Generator: Sketch 3.8.3 (29802) - http://www.bohemiancoding.com/sketch -->
    <title>37</title>
    <desc>Created with Sketch.</desc>
    <defs></defs>
    <g id="天气图标" stroke="none" stroke-width="1" fill="none" fill-rule="evenodd">
        <g id="天气图标_默认背景" transform="translate(-204.000000, -2011.000000)" fill="#FFFFFF">
            <path d="M226.506766,2028.06702 L222.846493,2025.95375 L226.29361,2024.87669 C226.583977,2024.78596 226.745813,2024.47704 226.655084,2024.18667 C226.564381,2023.8963 226.255373,2023.7343 225.96506,2023.8252 L221.549409,2025.20491 L217.492723,2022.86279 L221.478003,2020.56188 L225.96506,2021.96389 C226.01976,2021.98101 226.075059,2021.98913 226.129485,2021.98913 C226.364008,2021.98908 226.581415,2021.83809 226.655056,2021.60245 C226.745813,2021.31208 226.58395,2021.00318 226.293583,2020.91242 L222.775032,2019.81304 L226.479212,2017.67443 C226.742679,2017.52232 226.832945,2017.18549 226.680812,2016.92202 C226.52876,2016.65866 226.19187,2016.56829 225.928403,2016.72042 L222.268158,2018.83366 L223.05894,2015.30988 C223.125577,2015.01308 222.938939,2014.71846 222.642113,2014.65188 C222.345042,2014.58497 222.050642,2014.77193 221.984114,2015.06871 L220.971128,2019.58253 L216.942569,2021.90843 L216.942569,2017.31527 L220.372107,2014.15634 C220.59581,2013.95022 220.610118,2013.60177 220.404049,2013.37801 C220.197925,2013.15437 219.84948,2013.13995 219.625722,2013.34607 L216.942569,2015.81754 L216.942569,2011.55081 C216.942569,2011.2466 216.695945,2011 216.39176,2011 C216.087576,2011 215.840952,2011.2466 215.840952,2011.55081 L215.840952,2015.81866 L213.15649,2013.34599 C212.932787,2013.13992 212.584342,2013.15423 212.378191,2013.37793 C212.172094,2013.60169 212.186402,2013.95014 212.41016,2014.15626 L215.840952,2017.31639 L215.840952,2021.90909 L211.827001,2019.59166 L210.814042,2015.07781 C210.747433,2014.78095 210.452814,2014.59407 210.156015,2014.66098 C209.859189,2014.72756 209.672552,2015.02218 209.739162,2015.31898 L210.529916,2018.84276 L206.853836,2016.72039 C206.590424,2016.56829 206.253479,2016.65853 206.101428,2016.92199 C205.949322,2017.18546 206.039588,2017.5223 206.303028,2017.6744 L210.023042,2019.82215 L206.504546,2020.92153 C206.214179,2021.01226 206.05237,2021.32118 206.143073,2021.61155 C206.216713,2021.84725 206.434093,2021.99823 206.668643,2021.99823 C206.723043,2021.99823 206.778396,2021.99011 206.833068,2021.973 L211.320072,2020.57101 L215.289489,2022.86277 L211.248665,2025.19576 L206.833096,2023.81607 C206.542783,2023.72536 206.233829,2023.88717 206.143073,2024.17754 C206.052343,2024.46791 206.214179,2024.7768 206.504546,2024.86756 L209.951609,2025.94462 L206.275501,2028.06705 C206.012061,2028.21915 205.921768,2028.55599 206.073901,2028.81945 C206.175914,2028.99614 206.361052,2029.09497 206.551423,2029.09497 C206.64485,2029.09497 206.739586,2029.07115 206.826309,2029.02105 L210.546323,2026.87331 L209.739189,2030.47011 C209.67258,2030.76693 209.859189,2031.06153 210.156043,2031.12811 C210.196651,2031.13727 210.237179,2031.1416 210.27716,2031.1416 C210.529181,2031.1416 210.75659,2030.96747 210.814096,2030.71128 L211.843435,2026.12442 L215.841006,2023.81642 L215.841006,2028.49096 L212.41016,2031.65109 C212.186402,2031.85721 212.172094,2032.20566 212.378191,2032.42942 C212.584287,2032.65306 212.932733,2032.66732 213.15649,2032.46136 L215.840952,2029.98869 L215.840952,2034.24406 C215.840952,2034.54824 216.087576,2034.79487 216.39176,2034.79487 C216.695945,2034.79487 216.942569,2034.54824 216.942569,2034.24406 L216.942569,2029.98992 L219.625722,2032.46139 C219.731632,2032.5589 219.865342,2032.60706 219.998751,2032.60706 C220.147314,2032.60706 220.295468,2032.54729 220.404049,2032.42944 C220.610118,2032.20569 220.59581,2031.85724 220.372107,2031.65112 L216.942569,2028.49216 L216.942569,2023.81716 L220.954748,2026.1336 L221.984114,2030.72044 C222.041621,2030.97668 222.268976,2031.15076 222.52105,2031.15076 C222.56095,2031.15076 222.601586,2031.1464 222.642141,2031.13727 C222.938939,2031.07068 223.125604,2030.77606 223.058967,2030.47927 L222.251805,2026.88247 L225.955985,2029.02108 C226.042735,2029.07115 226.137416,2029.095 226.230844,2029.095 C226.421215,2029.095 226.606407,2028.99617 226.708393,2028.81948 C226.860499,2028.55599 226.770233,2028.21915 226.506766,2028.06702 L226.506766,2028.06702 Z" id="Shape"></path>
        </g>
    </g>
</svg>