<?xml version="1.0" encoding="UTF-8" standalone="no"?>
<svg width="24px" height="24px" viewBox="0 0 24 24" version="1.1" xmlns="http://www.w3.org/2000/svg" xmlns:xlink="http://www.w3.org/1999/xlink">
    <!-- Generator: Sketch 3.8.3 (29802) - http://www.bohemiancoding.com/sketch -->
    <title>4</title>
    <desc>Created with Sketch.</desc>
    <defs></defs>
    <g id="天气图标" stroke="none" stroke-width="1" fill="none" fill-rule="evenodd" fill-opacity="0.85">
        <g id="天气图标_默认背景" transform="translate(-204.000000, -272.000000)" fill="#FFFFFF">
            <path d="M224.707216,281.889114 C224.707216,278.641874 222.009814,276 218.694366,276 C216.583512,276 214.636604,277.091132 213.554564,278.830569 C212.882141,278.380522 212.087563,278.138296 211.256281,278.138296 C209.004755,278.138296 207.173277,279.932178 207.173277,282.137317 C207.173277,282.380973 207.195378,282.622497 207.239534,282.859379 C205.306361,283.546567 204,285.341386 204,287.400908 C204,290.022743 206.12194,292 208.935403,292 L223.064386,292 C225.785857,292 228,289.831728 228,287.166323 C228.00007,285.09616 226.619764,283.246614 224.652395,282.588794 C224.680708,282.356341 224.707216,282.087185 224.707216,281.889114 Z" id="Shape-Copy-5"></path>
        </g>
    </g>
</svg>