<?xml version="1.0" encoding="UTF-8" standalone="no"?>
<svg width="24px" height="24px" viewBox="0 0 24 24" version="1.1" xmlns="http://www.w3.org/2000/svg" xmlns:xlink="http://www.w3.org/1999/xlink">
    <!-- Generator: Sketch 3.8.3 (29802) - http://www.bohemiancoding.com/sketch -->
    <title>6</title>
    <desc>Created with Sketch.</desc>
    <defs></defs>
    <g id="天气图标" stroke="none" stroke-width="1" fill="none" fill-rule="evenodd">
        <g id="天气图标_默认背景" transform="translate(-204.000000, -374.000000)">
            <g id="Group-4" transform="translate(204.000000, 376.000000)">
                <g id="Group">
                    <path d="M17.622807,13 L17.6213137,12.9986974 C15.8567759,12.9887216 14.1993348,12.2971522 12.9503129,11.0483845 C11.6926655,9.79049882 11,8.11822106 11,6.33903727 C11,4.87644157 11.4695448,3.49581246 12.3584219,2.3466914 C12.7840764,1.79592659 13.2937149,1.31640603 13.8727074,0.920885354 C14.4578473,0.521536394 15.0998238,0.217179755 15.7812586,0.0167427942 C15.8189855,0.00551210164 15.8584598,0 15.8979181,0 C16.0208998,0 16.1369397,0.0542949324 16.216047,0.149287254 C16.3214123,0.27655789 16.3409667,0.453643893 16.2656241,0.601024946 C15.8593175,1.39297174 15.6701272,2.14738228 15.6701272,2.97576927 C15.6701272,5.92777455 18.0719872,8.32963456 21.0239925,8.32963456 C21.8526177,8.32963456 22.6072189,8.14044419 23.3987368,7.73456648 C23.4570665,7.70465502 23.5221632,7.68896067 23.5872441,7.68896067 C23.6833643,7.68896067 23.7766251,7.72265275 23.8504745,7.78395298 C23.9773003,7.88912757 24.0294826,8.05965308 23.9831937,8.21850308 C23.7813429,8.90205063 23.4769863,9.54402711 23.0788764,10.1273085 C22.6837846,10.7060468 22.2040099,11.215733 21.6532451,11.641594 C20.5041875,12.5304076 19.1235108,12.9999523 17.6609627,12.9999523 L17.622807,12.9999523 L17.622807,13 L17.622807,13 Z" id="Shape" fill="#FFD610"></path>
                    <path d="M3.66666667,20 C1.64162258,20 0,18.3285297 0,16.2666667 C0,14.5239659 1.17273342,13.0601519 2.75850567,12.6487318 C2.93823497,8.94593827 5.94373051,6 9.625,6 C12.3188212,6 14.6507797,7.57748759 15.7784136,9.87468319 C16.1569094,9.78227455 16.552008,9.73333333 16.9583333,9.73333333 C19.7427689,9.73333333 22,12.031605 22,14.8666667 C22,17.5444199 19.9863125,19.7432998 17.4166667,19.9790733 L17.4166667,20 L3.66666667,20 L3.66666667,20 Z" id="Combined-Shape" fill-opacity="0.85" fill="#FFFFFF"></path>
                </g>
            </g>
        </g>
    </g>
</svg>