<?xml version="1.0" encoding="UTF-8" standalone="no"?>
<svg width="24px" height="24px" viewBox="0 0 24 24" version="1.1" xmlns="http://www.w3.org/2000/svg" xmlns:xlink="http://www.w3.org/1999/xlink">
    <!-- Generator: Sketch 3.8.3 (29802) - http://www.bohemiancoding.com/sketch -->
    <title>9</title>
    <desc>Created with Sketch.</desc>
    <defs></defs>
    <g id="天气图标" stroke="none" stroke-width="1" fill="none" fill-rule="evenodd" fill-opacity="0.85">
        <g id="天气图标_默认背景" transform="translate(-204.000000, -525.000000)" fill="#DFE3E7">
            <path d="M224.707216,534.889114 C224.707216,531.641874 222.009814,529 218.694366,529 C216.583512,529 214.636604,530.091132 213.554564,531.830569 C212.882141,531.380522 212.087563,531.138296 211.256281,531.138296 C209.004755,531.138296 207.173277,532.932178 207.173277,535.137317 C207.173277,535.380973 207.195378,535.622497 207.239534,535.859379 C205.306361,536.546567 204,538.341386 204,540.400908 C204,543.022743 206.12194,545 208.935403,545 L223.064386,545 C225.785857,545 228,542.831728 228,540.166323 C228.00007,538.09616 226.619764,536.246614 224.652395,535.588794 C224.680708,535.356341 224.707216,535.087185 224.707216,534.889114 Z" id="Shape-Copy-5"></path>
        </g>
    </g>
</svg>