<?xml version="1.0" encoding="UTF-8" standalone="no"?>
<svg width="24px" height="24px" viewBox="0 0 24 24" version="1.1" xmlns="http://www.w3.org/2000/svg" xmlns:xlink="http://www.w3.org/1999/xlink">
    <!-- Generator: Sketch 3.8.3 (29802) - http://www.bohemiancoding.com/sketch -->
    <title>99</title>
    <desc>Created with Sketch.</desc>
    <defs></defs>
    <g id="天气图标" stroke="none" stroke-width="1" fill="none" fill-rule="evenodd">
        <g id="天气图标_默认背景" transform="translate(-204.000000, -2112.000000)" fill="#FFFFFF">
            <path d="M210.964162,2127.61503 L210.991908,2127.61503 L210.991908,2119.24971 L211.990751,2119.24971 L211.990751,2129.07168 L210.742197,2129.07168 L205.02659,2120.62312 L204.998844,2120.62312 L204.998844,2129.07168 L204,2129.07168 L204,2119.24971 L205.248555,2119.24971 L210.964162,2127.61503 Z M214.168786,2129.32139 L213.364162,2129.0578 L217.56763,2119 L218.358382,2119.27746 L214.168786,2129.32139 Z M219.662428,2129.07168 L218.566474,2129.07168 L222.811561,2119.24971 L223.782659,2119.24971 L228,2129.07168 L226.890173,2129.07168 L225.808092,2126.49133 L220.730636,2126.49133 L219.662428,2129.07168 Z M221.105202,2125.57572 L225.433526,2125.57572 L223.269364,2120.35954 L221.105202,2125.57572 Z" id="N/A"></path>
        </g>
    </g>
</svg>