<svg class="icon" width="200" height="200" viewBox="0 0 1024 1024" version="1.1" xmlns="http://www.w3.org/2000/svg"><title>26</title><g class="nc-icon-wrapper"><path d="M233.44 291.51a71.51 71.51 0 1 0 143.02 0 71.51 71.51 0 1 0-143.02 0z" fill="#CEE9F4"/><path d="M490.75 291.51a71.51 71.51 0 1 0 143.02 0 71.51 71.51 0 1 0-143.02 0z" fill="#F7D134"/><path d="M748.0600000000001 291.51a71.51 71.51 0 1 0 143.02 0 71.51 71.51 0 1 0-143.02 0z" fill="#CEE9F4"/><path d="M233.44 521.27a71.51 71.51 0 1 0 143.02 0 71.51 71.51 0 1 0-143.02 0z" fill="#F7D134"/><path d="M490.75 521.27a71.51 71.51 0 1 0 143.02 0 71.51 71.51 0 1 0-143.02 0z" fill="#CEE9F4"/><path d="M748.0600000000001 521.27a71.51 71.51 0 1 0 143.02 0 71.51 71.51 0 1 0-143.02 0z" fill="#F7D134"/><path d="M285 359a87.51 87.51 0 1 1 87.51-87.5A87.6 87.6 0 0 1 285 359zm0-143a55.51 55.51 0 1 0 55.51 55.51A55.58 55.58 0 0 0 285 216zm257.26 143a87.51 87.51 0 1 1 87.51-87.5 87.6 87.6 0 0 1-87.51 87.5zm0-143a55.51 55.51 0 1 0 55.51 55.51A55.57 55.57 0 0 0 542.26 216zm257.31 143a87.51 87.51 0 1 1 87.5-87.5 87.6 87.6 0 0 1-87.5 87.5zm0-143a55.51 55.51 0 1 0 55.5 55.51 55.57 55.57 0 0 0-55.5-55.51zM285 588.77a87.51 87.51 0 1 1 87.51-87.5 87.6 87.6 0 0 1-87.51 87.5zm0-143a55.51 55.51 0 1 0 55.51 55.51A55.58 55.58 0 0 0 285 445.76zm257.26 143a87.51 87.51 0 1 1 87.51-87.5 87.6 87.6 0 0 1-87.51 87.5zm0-143a55.51 55.51 0 1 0 55.51 55.51 55.57 55.57 0 0 0-55.51-55.52zm257.31 143a87.51 87.51 0 1 1 87.5-87.5 87.6 87.6 0 0 1-87.5 87.5zm0-143a55.51 55.51 0 1 0 55.5 55.51 55.57 55.57 0 0 0-55.5-55.52zM622.21 842.13q-3.68 0-7.39-.17c-55.15-2.42-86.11-26.34-116-49.46-33-25.52-64.23-49.63-131.29-52.52-123.12-5.31-162.21 90.86-162.59 91.83a16 16 0 0 1-29.8-11.66c.48-1.24 12.19-30.6 42-58.95 27.31-26.07 75.86-56.46 151.73-53.2 77.21 3.33 115.6 33 149.48 59.16 28.36 21.93 52.86 40.84 97.88 42.84 52.25 2.31 100.9-25.74 147.93-52.85C808 731.87 849.41 708 893.1 708h1.64a16 16 0 0 1-.22 32h-1.38c-35.17 0-73 21.81-113 44.88-46.66 26.89-99.31 57.24-157.93 57.25z"/></g></svg>