<svg class="icon" width="200" height="200" viewBox="0 0 1024 1024" version="1.1" xmlns="http://www.w3.org/2000/svg"><title>tianqiicon_duoyun_baitian</title><g class="nc-icon-wrapper"><path d="M437.82 275a138.1 138.1 0 0 0-98.54-43C262.83 231 199.6 292.93 199 369.38a137.92 137.92 0 0 0 32.71 90.5c17.73 20.95 51.16 17.72 64.14-6.45C322 404.72 368.21 363.44 427 335.1a37.81 37.81 0 0 0 10.82-60.1z" fill="#F7D134"/><path d="M270.41 492.47a16.31 16.31 0 0 1-4.39-.61c-81.88-23.33-129.52-108.92-106.2-190.81A154.43 154.43 0 0 1 459.94 314a16 16 0 0 1-31.41 6.11 122.42 122.42 0 1 0-153.74 141 16 16 0 0 1-4.38 31.39zM357.2 183.8a12.16 12.16 0 0 1-3.3-.46 12 12 0 0 1-8.25-14.83l18.82-66.07a12 12 0 0 1 23.08 6.56l-18.82 66.06a12 12 0 0 1-11.53 8.74zm-135.62 15.69a12 12 0 0 1-10.5-6.16l-33.4-60a12 12 0 1 1 21-11.67l33.4 60a12 12 0 0 1-10.47 17.84zm-84.81 107a12.09 12.09 0 0 1-3.29-.46l-66.07-18.82A12 12 0 0 1 74 264.13l66.06 18.81a12 12 0 0 1-3.28 23.55z"/><path d="M92.44 475.52A12 12 0 0 1 86.6 453l60-33.41a12 12 0 1 1 11.67 21l-60 33.41a11.94 11.94 0 0 1-5.83 1.52zM464.2 268.6a12 12 0 0 1-5.85-22.48l60-33.41a12 12 0 0 1 11.67 21l-60 33.41a11.89 11.89 0 0 1-5.82 1.48z"/><path d="M803.4 503.17c-28.24-98.68-119.12-170.92-226.88-170.92-110 0-202.49 75.33-228.6 177.23a211.72 211.72 0 0 0-21.48-1.1c-115 0-208.31 93.27-208.31 208.31S211.39 925 326.44 925h443.14c117.23 0 212.26-95 212.26-212.26 0-105.74-77.29-193.37-178.44-209.57z" fill="#CEE9F4"/><path d="M719.58 911H276.44a224.31 224.31 0 0 1 0-448.62q4.81 0 9.66.21a252.06 252.06 0 0 1 479.73-3.4A228.27 228.27 0 0 1 719.58 911zm-442.1-32h442.1c108.22 0 196.26-88 196.26-196.26 0-97-69.38-178.46-165-193.77A16 16 0 0 1 738 477.58c-26.85-93.81-113.82-159.33-211.5-159.33a219.8 219.8 0 0 0-213.1 165.2 16 16 0 0 1-17.13 11.95 196.18 196.18 0 0 0-19.85-1c-106 0-192.31 86.27-192.31 192.31S170.4 879 276.44 879h1z"/></g></svg>