<svg class="icon" width="200" height="200" viewBox="0 0 1024 1024" version="1.1" xmlns="http://www.w3.org/2000/svg"><title>tianqiicon_duoyun_heiye</title><g class="nc-icon-wrapper"><path d="M232.28 483.58a187.46 187.46 0 0 1 74.4-18.5 192.82 192.82 0 0 1 19.41.24c18.33-85.14 87.82-152 175.81-165.41 0-2.62 0-5.26-.13-7.9-3.86-99.59-80.77-179.08-177.21-188.85A196.82 196.82 0 0 1 384.11 237c4.22 109-80.73 200.8-189.73 205a198.77 198.77 0 0 1-27.8-.88 197.7 197.7 0 0 0 65.7 42.46z" fill="#F7D134"/><path d="M225.37 501a16.44 16.44 0 0 1-3.46-.38A213.16 213.16 0 0 1 119 445a16 16 0 0 1 12.77-27.38 183.88 183.88 0 0 0 25.57.8A181.52 181.52 0 0 0 277 107a16 16 0 0 1 12.77-27.38 213.56 213.56 0 0 1 191.59 204.15 217.36 217.36 0 0 1-.49 25.15 16 16 0 1 1-31.87-2.49 182 182 0 0 0 .42-21.42c-2.89-74.72-51.75-138.88-119.48-163.61a213.59 213.59 0 0 1-153.28 327.53 180.59 180.59 0 0 0 52.14 20.39 16 16 0 0 1-3.43 31.68z"/><path d="M815.4 503.17c-28.24-98.68-119.12-170.92-226.88-170.92-110 0-202.49 75.33-228.6 177.23a211.72 211.72 0 0 0-21.48-1.1c-115 0-208.31 93.27-208.31 208.31S223.39 925 338.44 925h443.14c117.23 0 212.26-95 212.26-212.26 0-105.74-77.29-193.37-178.44-209.57z" fill="#CEE9F4"/><path d="M731.58 911H288.44a224.31 224.31 0 0 1 0-448.62q4.81 0 9.66.21a252.06 252.06 0 0 1 479.73-3.4A228.27 228.27 0 0 1 731.58 911zm-442.1-32h442.1c108.22 0 196.26-88 196.26-196.26 0-97-69.38-178.46-165-193.77A16 16 0 0 1 750 477.58c-26.85-93.81-113.82-159.33-211.5-159.33a219.8 219.8 0 0 0-213.1 165.2 16 16 0 0 1-17.13 11.95 196.18 196.18 0 0 0-19.85-1c-106 0-192.31 86.27-192.31 192.31S182.4 879 288.44 879h1z"/></g></svg>