<?xml version="1.0" encoding="UTF-8" standalone="no"?>
<svg width="64px" height="64px" viewBox="0 0 64 64" version="1.1" xmlns="http://www.w3.org/2000/svg" xmlns:xlink="http://www.w3.org/1999/xlink">
    <!-- Generator: Sketch 3.8.3 (29802) - http://www.bohemiancoding.com/sketch -->
    <title>22</title>
    <desc>Created with Sketch.</desc>
    <defs>
        <linearGradient x1="50%" y1="0%" x2="50%" y2="97.7459343%" id="linearGradient-1">
            <stop stop-color="#EDEDED" stop-opacity="0.8" offset="0%"></stop>
            <stop stop-color="#EDEDED" stop-opacity="0.9" offset="100%"></stop>
        </linearGradient>
    </defs>
    <g id="天气图标" stroke="none" stroke-width="1" fill="none" fill-rule="evenodd">
        <g id="天气图标_白色背景" transform="translate(-363.000000, -2018.000000)">
            <g id="Group-12" transform="translate(365.000000, 2022.000000)">
                <path d="M24.2537175,49.8938517 L26.2980815,49.8938517 C27.105569,49.8938517 27.76,50.5484097 27.76,51.3557702 C27.76,52.1631305 27.105569,52.8176887 26.2980815,52.8176887 L24.2537175,52.8176887 L25.2758826,54.5881355 C25.6796263,55.2873139 25.4399989,56.1814995 24.7408205,56.5851161 C24.5106,56.7180873 24.2591501,56.7812675 24.0112596,56.7812675 C23.5059443,56.7812675 23.0146126,56.5191391 22.7438398,56.050054 L21.721641,54.2795488 L20.6994421,56.0500541 C20.4287966,56.5190121 19.9373376,56.7812675 19.4320224,56.7812675 C19.1840047,56.7812675 18.9326818,56.7180872 18.7024615,56.5851162 C18.0032831,56.1814996 17.7636555,55.2874411 18.1673993,54.5881356 L19.1895645,52.8176887 L17.1452004,52.8176887 C16.33784,52.8176887 15.6832818,52.1632577 15.6832818,51.3557702 C15.6832818,50.5484099 16.3378399,49.8938517 17.1452004,49.8938517 L19.1895646,49.8938517 L18.1673993,48.1234047 C17.7636556,47.4242263 18.0032831,46.5300407 18.7024615,46.126424 C19.401767,45.7226803 20.2958255,45.9623078 20.6994421,46.6614862 L21.721641,48.4319915 L22.7438398,46.6614863 C23.1474565,45.9623079 24.041515,45.7226803 24.7408205,46.1264242 C25.4399989,46.5301679 25.6796264,47.4242264 25.2758826,48.1234048 L24.2537175,49.8938517 Z" id="Shape-Copy-4" fill="#9FD2FF"></path>
                <path d="M41.6137175,49.8938517 L43.6580815,49.8938517 C44.465569,49.8938517 45.12,50.5484097 45.12,51.3557702 C45.12,52.1631305 44.465569,52.8176887 43.6580815,52.8176887 L41.6137175,52.8176887 L42.6358826,54.5881355 C43.0396263,55.2873139 42.7999989,56.1814995 42.1008205,56.5851161 C41.8706,56.7180873 41.6191501,56.7812675 41.3712596,56.7812675 C40.8659443,56.7812675 40.3746126,56.5191391 40.1038398,56.050054 L39.081641,54.2795488 L38.0594421,56.0500541 C37.7887966,56.5190121 37.2973376,56.7812675 36.7920224,56.7812675 C36.5440047,56.7812675 36.2926818,56.7180872 36.0624615,56.5851162 C35.3632831,56.1814996 35.1236555,55.2874411 35.5273993,54.5881356 L36.5495645,52.8176887 L34.5052004,52.8176887 C33.69784,52.8176887 33.0432818,52.1632577 33.0432818,51.3557702 C33.0432818,50.5484099 33.6978399,49.8938517 34.5052004,49.8938517 L36.5495646,49.8938517 L35.5273993,48.1234047 C35.1236556,47.4242263 35.3632831,46.5300407 36.0624615,46.126424 C36.761767,45.7226803 37.6558255,45.9623078 38.0594421,46.6614862 L39.081641,48.4319915 L40.1038398,46.6614863 C40.5074565,45.9623079 41.401515,45.7226803 42.1008205,46.1264242 C42.7999989,46.5301679 43.0396264,47.4242264 42.6358826,48.1234048 L41.6137175,49.8938517 Z" id="Shape-Copy-4" fill="#9FD2FF"></path>
                <path d="M51.8338945,14.6050035 C51.8338945,6.5518468 45.1443399,0 36.9220275,0 C31.6871105,0 26.8587783,2.70600805 24.1753188,7.01981095 C22.5077109,5.90369524 20.5371552,5.30297366 18.4755757,5.30297366 C12.8917921,5.30297366 8.34972581,9.75180086 8.34972581,15.2205469 C8.34972581,15.8248141 8.40453774,16.423792 8.51404535,17.0112611 C3.71977441,18.7154852 0.48,23.1666374 0.48,28.2742531 C0.48,34.776403 5.74241014,39.68 12.7198001,39.68 L47.7596768,39.68 C54.5089259,39.68 60,34.3026845 60,27.6924802 C60.0001744,22.5584759 56.5770154,17.9716018 51.69794,16.3402083 C51.7681551,15.7637248 51.8338945,15.0962176 51.8338945,14.6050035 Z" id="Shape-Copy-8" fill="url(#linearGradient-1)"></path>
            </g>
        </g>
    </g>
</svg>