<?xml version="1.0" encoding="UTF-8" standalone="no"?>
<svg width="64px" height="64px" viewBox="0 0 64 64" version="1.1" xmlns="http://www.w3.org/2000/svg" xmlns:xlink="http://www.w3.org/1999/xlink">
    <!-- Generator: Sketch 3.8.3 (29802) - http://www.bohemiancoding.com/sketch -->
    <title>26</title>
    <desc>Created with Sketch.</desc>
    <defs></defs>
    <g id="天气图标" stroke="none" stroke-width="1" fill="none" fill-rule="evenodd">
        <g id="天气图标_白色背景" transform="translate(-363.000000, -2375.000000)" fill="#E5C793">
            <path d="M375.615385,2429.23077 C375.615385,2430.42185 374.650462,2431.38462 373.461539,2431.38462 L369.153846,2431.38462 C367.964923,2431.38462 367,2430.42185 367,2429.23077 C367,2428.03969 367.964923,2427.07692 369.153846,2427.07692 L373.461538,2427.07692 C374.650462,2427.07692 375.615385,2428.03969 375.615385,2429.23077 L375.615385,2429.23077 Z M386.384615,2427.07692 L382.076923,2427.07692 C380.888,2427.07692 379.923077,2428.03969 379.923077,2429.23077 C379.923077,2430.42185 380.888,2431.38462 382.076923,2431.38462 L386.384615,2431.38462 C387.573539,2431.38462 388.538462,2430.42185 388.538462,2429.23077 C388.538462,2428.03969 387.573538,2427.07692 386.384615,2427.07692 L386.384615,2427.07692 Z M399.307692,2427.07692 L395,2427.07692 C393.811077,2427.07692 392.846154,2428.03969 392.846154,2429.23077 C392.846154,2430.42185 393.811077,2431.38462 395,2431.38462 L399.307692,2431.38462 C400.498769,2431.38462 401.461538,2430.42185 401.461538,2429.23077 C401.461538,2428.03969 400.498769,2427.07692 399.307692,2427.07692 L399.307692,2427.07692 Z M412.230769,2427.07692 L407.923077,2427.07692 C406.732,2427.07692 405.769231,2428.03969 405.769231,2429.23077 C405.769231,2430.42185 406.732,2431.38462 407.923077,2431.38462 L412.230769,2431.38462 C413.421846,2431.38462 414.384615,2430.42185 414.384615,2429.23077 C414.384615,2428.03969 413.421846,2427.07692 412.230769,2427.07692 L412.230769,2427.07692 Z M384.230769,2420.61538 C384.230769,2419.42431 383.265846,2418.46154 382.076923,2418.46154 L377.769231,2418.46154 C376.580308,2418.46154 375.615385,2419.42431 375.615385,2420.61538 C375.615385,2421.80646 376.580308,2422.76923 377.769231,2422.76923 L382.076923,2422.76923 C383.265846,2422.76923 384.230769,2421.80646 384.230769,2420.61538 L384.230769,2420.61538 Z M397.153846,2420.61538 C397.153846,2419.42431 396.188923,2418.46154 395,2418.46154 L390.692308,2418.46154 C389.503385,2418.46154 388.538462,2419.42431 388.538462,2420.61538 C388.538462,2421.80646 389.503385,2422.76923 390.692308,2422.76923 L395,2422.76923 C396.188923,2422.76923 397.153846,2421.80646 397.153846,2420.61538 L397.153846,2420.61538 Z M410.076923,2420.61538 C410.076923,2419.42431 409.114154,2418.46154 407.923077,2418.46154 L403.615385,2418.46154 C402.424308,2418.46154 401.461539,2419.42431 401.461539,2420.61538 C401.461539,2421.80646 402.424308,2422.76923 403.615385,2422.76923 L407.923077,2422.76923 C409.114154,2422.76923 410.076923,2421.80646 410.076923,2420.61538 L410.076923,2420.61538 Z M420.846154,2418.46154 L416.538462,2418.46154 C415.347385,2418.46154 414.384615,2419.42431 414.384615,2420.61538 C414.384615,2421.80646 415.347385,2422.76923 416.538462,2422.76923 L420.846154,2422.76923 C422.037231,2422.76923 423,2421.80646 423,2420.61538 C423,2419.42431 422.037231,2418.46154 420.846154,2418.46154 L420.846154,2418.46154 Z M369.153846,2414.15385 L373.461538,2414.15385 C374.650462,2414.15385 375.615385,2413.19108 375.615385,2412 C375.615385,2410.80892 374.650461,2409.84615 373.461538,2409.84615 L369.153846,2409.84615 C367.964923,2409.84615 367,2410.80892 367,2412 C367,2413.19108 367.964923,2414.15385 369.153846,2414.15385 L369.153846,2414.15385 Z M382.076923,2414.15385 L386.384615,2414.15385 C387.573539,2414.15385 388.538462,2413.19108 388.538462,2412 C388.538462,2410.80892 387.573538,2409.84615 386.384615,2409.84615 L382.076923,2409.84615 C380.888,2409.84615 379.923077,2410.80892 379.923077,2412 C379.923077,2413.19108 380.888,2414.15385 382.076923,2414.15385 L382.076923,2414.15385 Z M395,2414.15385 L399.307692,2414.15385 C400.498769,2414.15385 401.461538,2413.19108 401.461538,2412 C401.461538,2410.80892 400.498769,2409.84615 399.307692,2409.84615 L395,2409.84615 C393.811077,2409.84615 392.846154,2410.80892 392.846154,2412 C392.846154,2413.19108 393.811077,2414.15385 395,2414.15385 L395,2414.15385 Z M407.923077,2414.15385 L412.230769,2414.15385 C413.421846,2414.15385 414.384615,2413.19108 414.384615,2412 C414.384615,2410.80892 413.421846,2409.84615 412.230769,2409.84615 L407.923077,2409.84615 C406.732,2409.84615 405.769231,2410.80892 405.769231,2412 C405.769231,2413.19108 406.732,2414.15385 407.923077,2414.15385 L407.923077,2414.15385 Z M384.230769,2403.38462 C384.230769,2402.19569 383.265846,2401.23077 382.076923,2401.23077 L377.769231,2401.23077 C376.580308,2401.23077 375.615385,2402.19569 375.615385,2403.38462 C375.615385,2404.57354 376.580308,2405.53846 377.769231,2405.53846 L382.076923,2405.53846 C383.265846,2405.53846 384.230769,2404.57354 384.230769,2403.38462 L384.230769,2403.38462 Z M397.153846,2403.38462 C397.153846,2402.19569 396.188923,2401.23077 395,2401.23077 L390.692308,2401.23077 C389.503385,2401.23077 388.538462,2402.19569 388.538462,2403.38462 C388.538462,2404.57354 389.503385,2405.53846 390.692308,2405.53846 L395,2405.53846 C396.188923,2405.53846 397.153846,2404.57354 397.153846,2403.38462 L397.153846,2403.38462 Z M410.076923,2403.38462 C410.076923,2402.19569 409.114154,2401.23077 407.923077,2401.23077 L403.615385,2401.23077 C402.424308,2401.23077 401.461539,2402.19569 401.461539,2403.38462 C401.461539,2404.57354 402.424308,2405.53846 403.615385,2405.53846 L407.923077,2405.53846 C409.114154,2405.53846 410.076923,2404.57354 410.076923,2403.38462 L410.076923,2403.38462 Z M420.846154,2401.23077 L416.538462,2401.23077 C415.347385,2401.23077 414.384615,2402.19569 414.384615,2403.38462 C414.384615,2404.57354 415.347385,2405.53846 416.538462,2405.53846 L420.846154,2405.53846 C422.037231,2405.53846 423,2404.57354 423,2403.38462 C423,2402.19569 422.037231,2401.23077 420.846154,2401.23077 L420.846154,2401.23077 Z M369.153846,2396.92308 L373.461538,2396.92308 C374.650462,2396.92308 375.615385,2395.95815 375.615385,2394.76923 C375.615385,2393.58031 374.650462,2392.61538 373.461538,2392.61538 L369.153846,2392.61538 C367.964923,2392.61538 367,2393.58031 367,2394.76923 C367,2395.95815 367.964923,2396.92308 369.153846,2396.92308 L369.153846,2396.92308 Z M379.923077,2394.76923 C379.923077,2395.95815 380.888,2396.92308 382.076923,2396.92308 L386.384615,2396.92308 C387.573538,2396.92308 388.538461,2395.95815 388.538461,2394.76923 C388.538461,2393.58031 387.573538,2392.61538 386.384615,2392.61538 L382.076923,2392.61538 C380.888,2392.61538 379.923077,2393.58031 379.923077,2394.76923 L379.923077,2394.76923 Z M392.846154,2394.76923 C392.846154,2395.95815 393.811077,2396.92308 395,2396.92308 L399.307692,2396.92308 C400.498769,2396.92308 401.461538,2395.95815 401.461538,2394.76923 C401.461538,2393.58031 400.498769,2392.61538 399.307692,2392.61538 L395,2392.61538 C393.811077,2392.61538 392.846154,2393.58031 392.846154,2394.76923 L392.846154,2394.76923 Z M405.769231,2394.76923 C405.769231,2395.95815 406.732,2396.92308 407.923077,2396.92308 L412.230769,2396.92308 C413.421846,2396.92308 414.384615,2395.95815 414.384615,2394.76923 C414.384615,2393.58031 413.421846,2392.61538 412.230769,2392.61538 L407.923077,2392.61538 C406.732,2392.61538 405.769231,2393.58031 405.769231,2394.76923 L405.769231,2394.76923 Z M377.769231,2388.30769 L382.076923,2388.30769 C383.265846,2388.30769 384.230769,2387.34277 384.230769,2386.15385 C384.230769,2384.96492 383.265846,2384 382.076923,2384 L377.769231,2384 C376.580308,2384 375.615385,2384.96492 375.615385,2386.15385 C375.615385,2387.34277 376.580308,2388.30769 377.769231,2388.30769 L377.769231,2388.30769 Z M390.692308,2388.30769 L395,2388.30769 C396.188923,2388.30769 397.153846,2387.34277 397.153846,2386.15385 C397.153846,2384.96492 396.188923,2384 395,2384 L390.692308,2384 C389.503385,2384 388.538462,2384.96492 388.538462,2386.15385 C388.538462,2387.34277 389.503385,2388.30769 390.692308,2388.30769 L390.692308,2388.30769 Z M403.615385,2388.30769 L407.923077,2388.30769 C409.114154,2388.30769 410.076923,2387.34277 410.076923,2386.15385 C410.076923,2384.96492 409.114154,2384 407.923077,2384 L403.615385,2384 C402.424308,2384 401.461539,2384.96492 401.461539,2386.15385 C401.461539,2387.34277 402.424308,2388.30769 403.615385,2388.30769 L403.615385,2388.30769 Z M416.538462,2388.30769 L420.846154,2388.30769 C422.037231,2388.30769 423,2387.34277 423,2386.15385 C423,2384.96492 422.037231,2384 420.846154,2384 L416.538462,2384 C415.347385,2384 414.384615,2384.96492 414.384615,2386.15385 C414.384615,2387.34277 415.347385,2388.30769 416.538462,2388.30769 L416.538462,2388.30769 Z" id="Shape"></path>
        </g>
    </g>
</svg>