<?xml version="1.0" encoding="UTF-8" standalone="no"?>
<svg width="64px" height="64px" viewBox="0 0 64 64" version="1.1" xmlns="http://www.w3.org/2000/svg" xmlns:xlink="http://www.w3.org/1999/xlink">
    <!-- Generator: Sketch 3.8.3 (29802) - http://www.bohemiancoding.com/sketch -->
    <title>27</title>
    <desc>Created with Sketch.</desc>
    <defs></defs>
    <g id="天气图标" stroke="none" stroke-width="1" fill="none" fill-rule="evenodd">
        <g id="天气图标_白色背景" transform="translate(-363.000000, -2461.000000)" fill="#E5C793">
            <path d="M375.615385,2515.23077 C375.615385,2516.42185 374.650462,2517.38462 373.461539,2517.38462 L369.153846,2517.38462 C367.964923,2517.38462 367,2516.42185 367,2515.23077 C367,2514.03969 367.964923,2513.07692 369.153846,2513.07692 L373.461538,2513.07692 C374.650462,2513.07692 375.615385,2514.03969 375.615385,2515.23077 L375.615385,2515.23077 Z M386.384615,2513.07692 L382.076923,2513.07692 C380.888,2513.07692 379.923077,2514.03969 379.923077,2515.23077 C379.923077,2516.42185 380.888,2517.38462 382.076923,2517.38462 L386.384615,2517.38462 C387.573539,2517.38462 388.538462,2516.42185 388.538462,2515.23077 C388.538462,2514.03969 387.573538,2513.07692 386.384615,2513.07692 L386.384615,2513.07692 Z M399.307692,2513.07692 L395,2513.07692 C393.811077,2513.07692 392.846154,2514.03969 392.846154,2515.23077 C392.846154,2516.42185 393.811077,2517.38462 395,2517.38462 L399.307692,2517.38462 C400.498769,2517.38462 401.461538,2516.42185 401.461538,2515.23077 C401.461538,2514.03969 400.498769,2513.07692 399.307692,2513.07692 L399.307692,2513.07692 Z M412.230769,2513.07692 L407.923077,2513.07692 C406.732,2513.07692 405.769231,2514.03969 405.769231,2515.23077 C405.769231,2516.42185 406.732,2517.38462 407.923077,2517.38462 L412.230769,2517.38462 C413.421846,2517.38462 414.384615,2516.42185 414.384615,2515.23077 C414.384615,2514.03969 413.421846,2513.07692 412.230769,2513.07692 L412.230769,2513.07692 Z M384.230769,2506.61538 C384.230769,2505.42431 383.265846,2504.46154 382.076923,2504.46154 L377.769231,2504.46154 C376.580308,2504.46154 375.615385,2505.42431 375.615385,2506.61538 C375.615385,2507.80646 376.580308,2508.76923 377.769231,2508.76923 L382.076923,2508.76923 C383.265846,2508.76923 384.230769,2507.80646 384.230769,2506.61538 L384.230769,2506.61538 Z M397.153846,2506.61538 C397.153846,2505.42431 396.188923,2504.46154 395,2504.46154 L390.692308,2504.46154 C389.503385,2504.46154 388.538462,2505.42431 388.538462,2506.61538 C388.538462,2507.80646 389.503385,2508.76923 390.692308,2508.76923 L395,2508.76923 C396.188923,2508.76923 397.153846,2507.80646 397.153846,2506.61538 L397.153846,2506.61538 Z M410.076923,2506.61538 C410.076923,2505.42431 409.114154,2504.46154 407.923077,2504.46154 L403.615385,2504.46154 C402.424308,2504.46154 401.461539,2505.42431 401.461539,2506.61538 C401.461539,2507.80646 402.424308,2508.76923 403.615385,2508.76923 L407.923077,2508.76923 C409.114154,2508.76923 410.076923,2507.80646 410.076923,2506.61538 L410.076923,2506.61538 Z M420.846154,2504.46154 L416.538462,2504.46154 C415.347385,2504.46154 414.384615,2505.42431 414.384615,2506.61538 C414.384615,2507.80646 415.347385,2508.76923 416.538462,2508.76923 L420.846154,2508.76923 C422.037231,2508.76923 423,2507.80646 423,2506.61538 C423,2505.42431 422.037231,2504.46154 420.846154,2504.46154 L420.846154,2504.46154 Z M369.153846,2500.15385 L373.461538,2500.15385 C374.650462,2500.15385 375.615385,2499.19108 375.615385,2498 C375.615385,2496.80892 374.650461,2495.84615 373.461538,2495.84615 L369.153846,2495.84615 C367.964923,2495.84615 367,2496.80892 367,2498 C367,2499.19108 367.964923,2500.15385 369.153846,2500.15385 L369.153846,2500.15385 Z M382.076923,2500.15385 L386.384615,2500.15385 C387.573539,2500.15385 388.538462,2499.19108 388.538462,2498 C388.538462,2496.80892 387.573538,2495.84615 386.384615,2495.84615 L382.076923,2495.84615 C380.888,2495.84615 379.923077,2496.80892 379.923077,2498 C379.923077,2499.19108 380.888,2500.15385 382.076923,2500.15385 L382.076923,2500.15385 Z M395,2500.15385 L399.307692,2500.15385 C400.498769,2500.15385 401.461538,2499.19108 401.461538,2498 C401.461538,2496.80892 400.498769,2495.84615 399.307692,2495.84615 L395,2495.84615 C393.811077,2495.84615 392.846154,2496.80892 392.846154,2498 C392.846154,2499.19108 393.811077,2500.15385 395,2500.15385 L395,2500.15385 Z M407.923077,2500.15385 L412.230769,2500.15385 C413.421846,2500.15385 414.384615,2499.19108 414.384615,2498 C414.384615,2496.80892 413.421846,2495.84615 412.230769,2495.84615 L407.923077,2495.84615 C406.732,2495.84615 405.769231,2496.80892 405.769231,2498 C405.769231,2499.19108 406.732,2500.15385 407.923077,2500.15385 L407.923077,2500.15385 Z M384.230769,2489.38462 C384.230769,2488.19569 383.265846,2487.23077 382.076923,2487.23077 L377.769231,2487.23077 C376.580308,2487.23077 375.615385,2488.19569 375.615385,2489.38462 C375.615385,2490.57354 376.580308,2491.53846 377.769231,2491.53846 L382.076923,2491.53846 C383.265846,2491.53846 384.230769,2490.57354 384.230769,2489.38462 L384.230769,2489.38462 Z M397.153846,2489.38462 C397.153846,2488.19569 396.188923,2487.23077 395,2487.23077 L390.692308,2487.23077 C389.503385,2487.23077 388.538462,2488.19569 388.538462,2489.38462 C388.538462,2490.57354 389.503385,2491.53846 390.692308,2491.53846 L395,2491.53846 C396.188923,2491.53846 397.153846,2490.57354 397.153846,2489.38462 L397.153846,2489.38462 Z M410.076923,2489.38462 C410.076923,2488.19569 409.114154,2487.23077 407.923077,2487.23077 L403.615385,2487.23077 C402.424308,2487.23077 401.461539,2488.19569 401.461539,2489.38462 C401.461539,2490.57354 402.424308,2491.53846 403.615385,2491.53846 L407.923077,2491.53846 C409.114154,2491.53846 410.076923,2490.57354 410.076923,2489.38462 L410.076923,2489.38462 Z M420.846154,2487.23077 L416.538462,2487.23077 C415.347385,2487.23077 414.384615,2488.19569 414.384615,2489.38462 C414.384615,2490.57354 415.347385,2491.53846 416.538462,2491.53846 L420.846154,2491.53846 C422.037231,2491.53846 423,2490.57354 423,2489.38462 C423,2488.19569 422.037231,2487.23077 420.846154,2487.23077 L420.846154,2487.23077 Z M369.153846,2482.92308 L373.461538,2482.92308 C374.650462,2482.92308 375.615385,2481.95815 375.615385,2480.76923 C375.615385,2479.58031 374.650462,2478.61538 373.461538,2478.61538 L369.153846,2478.61538 C367.964923,2478.61538 367,2479.58031 367,2480.76923 C367,2481.95815 367.964923,2482.92308 369.153846,2482.92308 L369.153846,2482.92308 Z M379.923077,2480.76923 C379.923077,2481.95815 380.888,2482.92308 382.076923,2482.92308 L386.384615,2482.92308 C387.573538,2482.92308 388.538461,2481.95815 388.538461,2480.76923 C388.538461,2479.58031 387.573538,2478.61538 386.384615,2478.61538 L382.076923,2478.61538 C380.888,2478.61538 379.923077,2479.58031 379.923077,2480.76923 L379.923077,2480.76923 Z M392.846154,2480.76923 C392.846154,2481.95815 393.811077,2482.92308 395,2482.92308 L399.307692,2482.92308 C400.498769,2482.92308 401.461538,2481.95815 401.461538,2480.76923 C401.461538,2479.58031 400.498769,2478.61538 399.307692,2478.61538 L395,2478.61538 C393.811077,2478.61538 392.846154,2479.58031 392.846154,2480.76923 L392.846154,2480.76923 Z M405.769231,2480.76923 C405.769231,2481.95815 406.732,2482.92308 407.923077,2482.92308 L412.230769,2482.92308 C413.421846,2482.92308 414.384615,2481.95815 414.384615,2480.76923 C414.384615,2479.58031 413.421846,2478.61538 412.230769,2478.61538 L407.923077,2478.61538 C406.732,2478.61538 405.769231,2479.58031 405.769231,2480.76923 L405.769231,2480.76923 Z M377.769231,2474.30769 L382.076923,2474.30769 C383.265846,2474.30769 384.230769,2473.34277 384.230769,2472.15385 C384.230769,2470.96492 383.265846,2470 382.076923,2470 L377.769231,2470 C376.580308,2470 375.615385,2470.96492 375.615385,2472.15385 C375.615385,2473.34277 376.580308,2474.30769 377.769231,2474.30769 L377.769231,2474.30769 Z M390.692308,2474.30769 L395,2474.30769 C396.188923,2474.30769 397.153846,2473.34277 397.153846,2472.15385 C397.153846,2470.96492 396.188923,2470 395,2470 L390.692308,2470 C389.503385,2470 388.538462,2470.96492 388.538462,2472.15385 C388.538462,2473.34277 389.503385,2474.30769 390.692308,2474.30769 L390.692308,2474.30769 Z M403.615385,2474.30769 L407.923077,2474.30769 C409.114154,2474.30769 410.076923,2473.34277 410.076923,2472.15385 C410.076923,2470.96492 409.114154,2470 407.923077,2470 L403.615385,2470 C402.424308,2470 401.461539,2470.96492 401.461539,2472.15385 C401.461539,2473.34277 402.424308,2474.30769 403.615385,2474.30769 L403.615385,2474.30769 Z M416.538462,2474.30769 L420.846154,2474.30769 C422.037231,2474.30769 423,2473.34277 423,2472.15385 C423,2470.96492 422.037231,2470 420.846154,2470 L416.538462,2470 C415.347385,2470 414.384615,2470.96492 414.384615,2472.15385 C414.384615,2473.34277 415.347385,2474.30769 416.538462,2474.30769 L416.538462,2474.30769 Z" id="Shape"></path>
        </g>
    </g>
</svg>