<?xml version="1.0" encoding="UTF-8" standalone="no"?>
<svg width="64px" height="64px" viewBox="0 0 64 64" version="1.1" xmlns="http://www.w3.org/2000/svg" xmlns:xlink="http://www.w3.org/1999/xlink">
    <!-- Generator: Sketch 3.8.3 (29802) - http://www.bohemiancoding.com/sketch -->
    <title>29</title>
    <desc>Created with Sketch.</desc>
    <defs></defs>
    <g id="天气图标" stroke="none" stroke-width="1" fill="none" fill-rule="evenodd">
        <g id="天气图标_白色背景" transform="translate(-363.000000, -2621.000000)" fill="#E5C793">
            <path d="M366.125947,2645.82529 C364.953751,2645.82529 364,2646.76218 364,2647.92209 C364,2649.08199 364.953751,2650.01889 366.125947,2650.01889 C367.298143,2650.01889 368.251894,2649.08199 368.251894,2647.92209 C368.251894,2646.76218 367.298143,2645.82529 366.125947,2645.82529 L366.125947,2645.82529 L366.125947,2645.82529 Z M366.125947,2646.77913 C366.775118,2646.77913 367.298048,2647.29282 367.298048,2647.92209 C367.298048,2648.55135 366.775118,2649.06504 366.125947,2649.06504 C365.476776,2649.06504 364.953846,2648.55135 364.953846,2647.92209 C364.953846,2647.29282 365.476776,2646.77913 366.125947,2646.77913 L366.125947,2646.77913 L366.125947,2646.77913 Z M369.975568,2655.35325 C368.800397,2655.35325 367.843927,2656.28969 367.843927,2657.45005 C367.843927,2658.6103 368.800662,2659.54685 369.975568,2659.54685 C371.150473,2659.54685 372.107209,2658.6103 372.107209,2657.45005 C372.107209,2656.28969 371.150738,2655.35325 369.975568,2655.35325 L369.975568,2655.35325 L369.975568,2655.35325 Z M369.975568,2656.3071 C370.628409,2656.3071 371.153363,2656.82106 371.153363,2657.45005 C371.153363,2658.0789 370.628177,2658.59301 369.975568,2658.59301 C369.322958,2658.59301 368.797773,2658.0789 368.797773,2657.45005 C368.797773,2656.82106 369.322726,2656.3071 369.975568,2656.3071 L369.975568,2656.3071 L369.975568,2656.3071 Z M377.122857,2640.82429 C378.295381,2640.82429 379.248804,2639.88445 379.248804,2638.7219 C379.248804,2637.55935 378.295381,2636.6195 377.122857,2636.6195 C375.950332,2636.6195 374.99691,2637.55935 374.99691,2638.7219 C374.99691,2639.88471 375.950218,2640.82429 377.122857,2640.82429 L377.122857,2640.82429 L377.122857,2640.82429 Z M377.122857,2639.87045 C376.473942,2639.87045 375.950756,2639.35479 375.950756,2638.7219 C375.950756,2638.08923 376.474089,2637.57335 377.122857,2637.57335 C377.771624,2637.57335 378.294958,2638.08923 378.294958,2638.7219 C378.294958,2639.35456 377.771624,2639.87045 377.122857,2639.87045 L377.122857,2639.87045 L377.122857,2639.87045 Z M390.395013,2638.7219 C390.395013,2639.88471 391.348321,2640.82429 392.52096,2640.82429 C393.693484,2640.82429 394.646907,2639.88445 394.646907,2638.7219 C394.646907,2637.55935 393.693484,2636.6195 392.52096,2636.6195 C391.348435,2636.6195 390.395013,2637.55935 390.395013,2638.7219 L390.395013,2638.7219 L390.395013,2638.7219 Z M391.348859,2638.7219 C391.348859,2638.08923 391.872192,2637.57335 392.52096,2637.57335 C393.169727,2637.57335 393.693061,2638.08923 393.693061,2638.7219 C393.693061,2639.35456 393.169727,2639.87045 392.52096,2639.87045 C391.872045,2639.87045 391.348859,2639.35479 391.348859,2638.7219 L391.348859,2638.7219 L391.348859,2638.7219 Z M375.950756,2647.92209 C375.950756,2646.76218 374.997005,2645.82529 373.824809,2645.82529 C372.652613,2645.82529 371.698862,2646.76218 371.698862,2647.92209 C371.698862,2649.08199 372.652613,2650.01889 373.824809,2650.01889 C374.99727,2650.01889 375.950756,2649.0821 375.950756,2647.92209 L375.950756,2647.92209 L375.950756,2647.92209 Z M374.99691,2647.92209 C374.99691,2648.5515 374.474212,2649.06504 373.824809,2649.06504 C373.175638,2649.06504 372.652708,2648.55135 372.652708,2647.92209 C372.652708,2647.29282 373.175638,2646.77913 373.824809,2646.77913 C374.47398,2646.77913 374.99691,2647.29282 374.99691,2647.92209 L374.99691,2647.92209 L374.99691,2647.92209 Z M382.696151,2638.7219 C382.696151,2639.88471 383.649459,2640.82429 384.822098,2640.82429 C385.994623,2640.82429 386.948045,2639.88445 386.948045,2638.7219 C386.948045,2637.55935 385.994623,2636.6195 384.822098,2636.6195 C383.649308,2636.6195 382.696151,2637.55924 382.696151,2638.7219 L382.696151,2638.7219 L382.696151,2638.7219 Z M383.649997,2638.7219 C383.649997,2638.08909 384.173098,2637.57335 384.822098,2637.57335 C385.470866,2637.57335 385.994199,2638.08923 385.994199,2638.7219 C385.994199,2639.35456 385.470866,2639.87045 384.822098,2639.87045 C384.173183,2639.87045 383.649997,2639.35479 383.649997,2638.7219 L383.649997,2638.7219 L383.649997,2638.7219 Z M398.093874,2638.7219 C398.093874,2639.88505 399.050168,2640.82429 400.225516,2640.82429 C401.400748,2640.82429 402.357157,2639.88479 402.357157,2638.7219 C402.357157,2637.55901 401.400748,2636.6195 400.225516,2636.6195 C399.050283,2636.6195 398.093874,2637.55901 398.093874,2638.7219 L398.093874,2638.7219 L398.093874,2638.7219 Z M399.047721,2638.7219 C399.047721,2638.08965 399.573308,2637.57335 400.225516,2637.57335 C400.877723,2637.57335 401.403311,2638.08965 401.403311,2638.7219 C401.403311,2639.35415 400.877723,2639.87045 400.225516,2639.87045 C399.57316,2639.87045 399.047721,2639.35438 399.047721,2638.7219 L399.047721,2638.7219 L399.047721,2638.7219 Z M411.774378,2650.01889 C415.986534,2650.01889 419.404663,2646.65846 419.404663,2642.50944 C419.404663,2638.36017 415.986661,2635 411.774378,2635 C409.818692,2635 407.978354,2635.73293 406.571665,2637.02654 L406.202326,2637.3662 L406.560281,2637.71782 L406.606214,2637.76294 L406.940429,2637.42271 L406.658579,2637.03799 C406.119636,2637.43281 405.793495,2638.04977 405.793495,2638.72264 C405.793495,2639.8858 406.749789,2640.82504 407.925136,2640.82504 C408.640997,2640.82504 409.297956,2640.47366 409.691959,2639.89879 L409.603883,2639.99555 C410.212975,2639.48797 410.974132,2639.20516 411.780451,2639.20516 C413.644697,2639.20516 415.153149,2640.68907 415.153149,2642.51541 C415.153149,2644.16535 413.912539,2645.55699 412.259164,2645.78811 L411.848268,2645.84555 L411.848268,2646.26044 L411.848268,2646.30594 L412.325191,2646.30594 L412.325191,2645.82901 L387.575406,2645.82901 L380.978414,2645.82566 L380.501248,2645.82542 L380.501248,2646.30258 L380.501248,2646.40065 L380.978172,2646.40065 L380.822206,2645.94995 C379.977075,2646.24241 379.398103,2647.02524 379.398103,2647.92246 C379.398103,2648.81951 379.977262,2649.60239 380.822123,2649.89493 L380.978172,2649.44426 L380.501248,2649.44426 L380.501248,2649.54234 L380.501248,2650.01926 L380.978172,2650.01926 L411.228499,2650.01926 L411.265793,2650.0178 C411.344762,2650.01161 411.413985,2650.01156 411.580726,2650.01573 C411.673294,2650.01805 411.718269,2650.01889 411.774378,2650.01889 L411.774378,2650.01889 L411.774378,2650.01889 Z M411.774378,2649.06504 C411.728814,2649.06504 411.693032,2649.06437 411.604555,2649.06218 C411.404914,2649.05719 411.31392,2649.05725 411.191225,2649.06687 L411.191214,2649.06687 L380.978172,2649.06541 L380.978172,2649.54234 L381.455095,2649.54234 L381.455095,2649.44426 L381.455095,2649.1047 L381.13422,2648.99359 C380.667079,2648.83184 380.351949,2648.40586 380.351949,2647.92246 C380.351949,2647.43887 380.666883,2647.01305 381.134137,2646.85135 L381.455095,2646.74029 L381.455095,2646.40065 L381.455095,2646.30258 L380.978172,2646.30258 L380.977929,2646.7795 L387.575164,2646.78286 L412.325191,2646.78286 L412.802114,2646.78286 L412.802114,2646.30594 L412.802114,2646.26044 L412.325191,2646.26044 L412.391218,2646.73277 C414.510968,2646.43645 416.106995,2644.64613 416.106995,2642.51541 C416.106995,2640.15874 414.168021,2638.25131 411.780451,2638.25131 C410.748102,2638.25131 409.771637,2638.61412 408.993245,2639.26278 L408.905169,2639.35954 C408.687785,2639.67672 408.324185,2639.87119 407.925136,2639.87119 C407.272781,2639.87119 406.747341,2639.35512 406.747341,2638.72264 C406.747341,2638.36 406.923878,2638.02605 407.22228,2637.80744 L407.67501,2637.47577 L407.274645,2637.08249 L407.228712,2637.03737 L406.894496,2637.37759 L407.217328,2637.72864 C408.449747,2636.59529 410.06037,2635.95385 411.774378,2635.95385 C415.463475,2635.95385 418.450817,2638.89065 418.450817,2642.50944 C418.450817,2646.128 415.46334,2649.06504 411.774378,2649.06504 L411.774378,2649.06504 L411.774378,2649.06504 Z M391.429582,2665.0837 C390.257057,2665.0837 389.303635,2666.02355 389.303635,2667.1861 C389.303635,2668.34865 390.257057,2669.28849 391.429582,2669.28849 C392.602107,2669.28849 393.555529,2668.34865 393.555529,2667.1861 C393.555529,2666.02355 392.602107,2665.0837 391.429582,2665.0837 L391.429582,2665.0837 L391.429582,2665.0837 Z M391.429582,2666.03755 C392.07835,2666.03755 392.601683,2666.55343 392.601683,2667.1861 C392.601683,2667.81876 392.07835,2668.33465 391.429582,2668.33465 C390.780814,2668.33465 390.257481,2667.81876 390.257481,2667.1861 C390.257481,2666.55343 390.780814,2666.03755 391.429582,2666.03755 L391.429582,2666.03755 L391.429582,2666.03755 Z M406.827306,2665.0837 C405.654781,2665.0837 404.701359,2666.02355 404.701359,2667.1861 C404.701359,2668.34865 405.654781,2669.28849 406.827306,2669.28849 C407.99983,2669.28849 408.953253,2668.34865 408.953253,2667.1861 C408.953253,2666.02355 407.99983,2665.0837 406.827306,2665.0837 L406.827306,2665.0837 L406.827306,2665.0837 Z M406.827306,2666.03755 C407.476073,2666.03755 407.999407,2666.55343 407.999407,2667.1861 C407.999407,2667.81876 407.476073,2668.33465 406.827306,2668.33465 C406.178538,2668.33465 405.655205,2667.81876 405.655205,2667.1861 C405.655205,2666.55343 406.178538,2666.03755 406.827306,2666.03755 L406.827306,2666.03755 L406.827306,2666.03755 Z M399.128444,2665.0837 C397.955919,2665.0837 397.002497,2666.02355 397.002497,2667.1861 C397.002497,2668.34865 397.955919,2669.28849 399.128444,2669.28849 C400.300969,2669.28849 401.254391,2668.34865 401.254391,2667.1861 C401.254391,2666.02355 400.300969,2665.0837 399.128444,2665.0837 L399.128444,2665.0837 L399.128444,2665.0837 Z M399.128444,2666.03755 C399.777212,2666.03755 400.300545,2666.55343 400.300545,2667.1861 C400.300545,2667.81876 399.777212,2668.33465 399.128444,2668.33465 C398.479676,2668.33465 397.956343,2667.81876 397.956343,2667.1861 C397.956343,2666.55343 398.479676,2666.03755 399.128444,2666.03755 L399.128444,2666.03755 L399.128444,2666.03755 Z M376.025405,2665.0837 C374.849908,2665.0837 373.893764,2666.0231 373.893764,2667.1861 C373.893764,2668.34899 374.850173,2669.28849 376.025405,2669.28849 C377.200638,2669.28849 378.157047,2668.34899 378.157047,2667.1861 C378.157047,2666.0231 377.200903,2665.0837 376.025405,2665.0837 L376.025405,2665.0837 L376.025405,2665.0837 Z M376.025405,2666.03755 C376.677845,2666.03755 377.2032,2666.5537 377.2032,2667.1861 C377.2032,2667.81835 376.677613,2668.33465 376.025405,2668.33465 C375.373198,2668.33465 374.84761,2667.81835 374.84761,2667.1861 C374.84761,2666.5537 375.372966,2666.03755 376.025405,2666.03755 L376.025405,2666.03755 L376.025405,2666.03755 Z M417.824752,2655.38048 L393.624642,2655.35325 L393.147182,2655.35272 L393.147182,2655.83018 L393.147182,2655.92825 L393.624105,2655.92825 L393.77987,2655.47748 C393.546204,2655.39674 393.314988,2655.35325 393.078227,2655.35325 C391.906031,2655.35325 390.952279,2656.29015 390.952279,2657.45005 C390.952279,2658.60996 391.906031,2659.54685 393.078227,2659.54685 C393.315567,2659.54685 393.546986,2659.50343 393.780435,2659.42243 L393.624105,2658.97186 L393.147182,2658.97186 L393.147182,2659.06993 L393.147182,2659.54685 L393.624105,2659.54685 L394.175298,2659.54685 L418.924833,2659.54014 L418.924703,2659.06322 L418.44778,2659.06322 L418.44778,2659.11281 L418.44778,2659.52732 L418.85824,2659.58508 C420.509858,2659.81752 421.748486,2661.20844 421.748486,2662.8571 C421.748486,2664.68358 420.240275,2666.16735 418.375788,2666.16735 C417.569992,2666.16735 416.810178,2665.88726 416.205702,2665.38451 L416.295996,2665.4843 C415.903938,2664.90364 415.245451,2664.54747 414.526547,2664.54747 C413.354351,2664.54747 412.4006,2665.48437 412.4006,2666.64427 C412.4006,2667.34459 412.752327,2667.98564 413.3264,2668.37365 L413.593467,2667.97851 L413.259251,2667.63828 L413.205347,2667.69123 L412.845258,2668.04496 L413.21882,2668.38442 C414.616587,2669.65461 416.43915,2670.37214 418.375788,2670.37214 C422.584638,2670.37214 426,2667.01161 426,2662.8627 C426,2658.71379 422.584638,2655.35325 418.375788,2655.35325 C418.209028,2655.35325 418.081745,2655.36024 417.803635,2655.3807 C417.796437,2655.38123 417.796437,2655.38123 417.789255,2655.38176 L417.789246,2655.38176 L417.824752,2655.38048 L417.824752,2655.38048 Z M417.859185,2656.33304 L417.859194,2656.33304 C417.866418,2656.33251 417.866418,2656.33251 417.873624,2656.33198 C418.128606,2656.31322 418.240044,2656.3071 418.375788,2656.3071 C422.061267,2656.3071 425.046154,2659.24407 425.046154,2662.8627 C425.046154,2666.48132 422.061267,2669.41829 418.375788,2669.41829 C416.678528,2669.41829 415.084059,2668.79056 413.860304,2667.6785 L413.539562,2668.03146 L413.873777,2668.37169 L413.927682,2668.31874 L414.343779,2667.91 L413.860533,2667.58338 C413.544987,2667.3701 413.354446,2667.02283 413.354446,2666.64427 C413.354446,2666.01501 413.877376,2665.50132 414.526547,2665.50132 C414.925848,2665.50132 415.289314,2665.69791 415.505471,2666.01806 L415.595766,2666.11785 C416.369956,2666.76176 417.345007,2667.1212 418.375788,2667.1212 C420.763613,2667.1212 422.702332,2665.21389 422.702332,2662.8571 C422.702332,2660.72802 421.108798,2658.93856 418.991167,2658.64055 L418.924703,2659.11281 L419.401626,2659.11281 L419.401626,2659.06322 L419.401626,2658.58617 L418.924574,2658.5863 L394.175169,2658.59301 L393.624105,2658.59301 L393.624105,2659.06993 L394.101028,2659.06993 L394.101028,2658.97186 L394.101028,2658.30157 L393.467775,2658.52129 C393.329933,2658.56911 393.202578,2658.59301 393.078227,2658.59301 C392.429056,2658.59301 391.906126,2658.07932 391.906126,2657.45005 C391.906126,2656.82079 392.429056,2656.3071 393.078227,2656.3071 C393.202004,2656.3071 393.32972,2656.33112 393.468341,2656.37902 L394.101028,2656.59765 L394.101028,2655.92825 L394.101028,2655.83018 L393.624105,2655.83018 L393.623569,2656.3071 L417.823679,2656.33432 L417.859185,2656.33304 L417.859185,2656.33304 Z M377.680503,2655.35325 C376.508307,2655.35325 375.554556,2656.29015 375.554556,2657.45005 C375.554556,2658.60996 376.508307,2659.54685 377.680503,2659.54685 C378.852699,2659.54685 379.80645,2658.60996 379.80645,2657.45005 C379.80645,2656.29015 378.852699,2655.35325 377.680503,2655.35325 L377.680503,2655.35325 L377.680503,2655.35325 Z M377.680503,2656.3071 C378.329674,2656.3071 378.852604,2656.82079 378.852604,2657.45005 C378.852604,2658.07932 378.329674,2658.59301 377.680503,2658.59301 C377.031332,2658.59301 376.508402,2658.07932 376.508402,2657.45005 C376.508402,2656.82079 377.031332,2656.3071 377.680503,2656.3071 L377.680503,2656.3071 L377.680503,2656.3071 Z M385.379365,2655.35325 C384.207169,2655.35325 383.253418,2656.29015 383.253418,2657.45005 C383.253418,2658.60996 384.207169,2659.54685 385.379365,2659.54685 C386.551561,2659.54685 387.505312,2658.60996 387.505312,2657.45005 C387.505312,2656.29015 386.551561,2655.35325 385.379365,2655.35325 L385.379365,2655.35325 L385.379365,2655.35325 Z M385.379365,2656.3071 C386.028536,2656.3071 386.551466,2656.82079 386.551466,2657.45005 C386.551466,2658.07932 386.028536,2658.59301 385.379365,2658.59301 C384.730194,2658.59301 384.207264,2658.07932 384.207264,2657.45005 C384.207264,2656.82079 384.730194,2656.3071 385.379365,2656.3071 L385.379365,2656.3071 L385.379365,2656.3071 Z M383.724647,2665.0837 C382.549149,2665.0837 381.593006,2666.0231 381.593006,2667.1861 C381.593006,2668.34899 382.549414,2669.28849 383.724647,2669.28849 C384.899879,2669.28849 385.856288,2668.34899 385.856288,2667.1861 C385.856288,2666.02321 384.899879,2665.0837 383.724647,2665.0837 L383.724647,2665.0837 L383.724647,2665.0837 Z M366.125947,2646.30221 C365.215264,2646.30221 364.476923,2647.0275 364.476923,2647.92209 C364.476923,2648.81667 365.215264,2649.54196 366.125947,2649.54196 C367.03663,2649.54196 367.774971,2648.81667 367.774971,2647.92209 C367.774971,2647.0275 367.03663,2646.30221 366.125947,2646.30221 L366.125947,2646.30221 Z M369.975568,2655.83018 C369.061468,2655.83018 368.32085,2656.55547 368.32085,2657.45005 C368.32085,2658.34464 369.061847,2659.06993 369.975568,2659.06993 C370.889288,2659.06993 371.630286,2658.34464 371.630286,2657.45005 C371.630286,2656.55547 370.889668,2655.83018 369.975568,2655.83018 L369.975568,2655.83018 Z M377.122857,2640.34737 C378.03354,2640.34737 378.771881,2639.61947 378.771881,2638.7219 C378.771881,2637.82433 378.03354,2637.09643 377.122857,2637.09643 C376.212173,2637.09643 375.473833,2637.82433 375.473833,2638.7219 C375.473833,2639.61984 376.212173,2640.34737 377.122857,2640.34737 L377.122857,2640.34737 Z M390.871936,2638.7219 C390.871936,2639.61984 391.610276,2640.34737 392.52096,2640.34737 C393.431643,2640.34737 394.169984,2639.61947 394.169984,2638.7219 C394.169984,2637.82433 393.431643,2637.09643 392.52096,2637.09643 C391.610276,2637.09643 390.871936,2637.82433 390.871936,2638.7219 L390.871936,2638.7219 Z M375.473833,2647.92209 C375.473833,2647.0275 374.735492,2646.30221 373.824809,2646.30221 C372.914125,2646.30221 372.175785,2647.0275 372.175785,2647.92209 C372.175785,2648.81667 372.914125,2649.54196 373.824809,2649.54196 C374.735872,2649.54196 375.473833,2648.81667 375.473833,2647.92209 L375.473833,2647.92209 Z M383.173074,2638.7219 C383.173074,2639.61984 383.911415,2640.34737 384.822098,2640.34737 C385.732781,2640.34737 386.471122,2639.61947 386.471122,2638.7219 C386.471122,2637.82433 385.732781,2637.09643 384.822098,2637.09643 C383.911035,2637.09643 383.173074,2637.82433 383.173074,2638.7219 L383.173074,2638.7219 Z M398.570797,2638.7219 C398.570797,2639.61984 399.311795,2640.34737 400.225516,2640.34737 C401.139236,2640.34737 401.880234,2639.61947 401.880234,2638.7219 C401.880234,2637.82433 401.139236,2637.09643 400.225516,2637.09643 C399.311795,2637.09643 398.570797,2637.82433 398.570797,2638.7219 L398.570797,2638.7219 Z M418.92774,2642.50944 C418.92774,2638.62532 415.724974,2635.47692 411.774378,2635.47692 C409.88582,2635.47692 408.173022,2636.20184 406.894496,2637.37759 L406.940429,2637.42271 C406.535765,2637.71917 406.270418,2638.18865 406.270418,2638.72264 C406.270418,2639.62059 407.011416,2640.34811 407.925136,2640.34811 C408.497208,2640.34811 409.00133,2640.06285 409.298564,2639.62916 C409.969334,2639.07019 410.832566,2638.72824 411.780451,2638.72824 C413.906265,2638.72824 415.630072,2640.42381 415.630072,2642.51541 C415.630072,2644.42466 414.192491,2645.99941 412.325191,2646.26044 L412.325191,2646.30594 L387.575406,2646.30594 L380.978172,2646.30258 L380.978172,2646.40065 C380.337011,2646.62253 379.875026,2647.21693 379.875026,2647.92246 C379.875026,2648.62799 380.337391,2649.22239 380.978172,2649.44426 L380.978172,2649.54234 L411.228499,2649.54234 C411.409193,2649.52817 411.589887,2649.54196 411.774378,2649.54196 C415.724974,2649.54196 418.92774,2646.3932 418.92774,2642.50944 L418.92774,2642.50944 Z M391.429582,2665.56063 C390.518899,2665.56063 389.780558,2666.28853 389.780558,2667.1861 C389.780558,2668.08367 390.518899,2668.81157 391.429582,2668.81157 C392.340266,2668.81157 393.078606,2668.08367 393.078606,2667.1861 C393.078606,2666.28853 392.340266,2665.56063 391.429582,2665.56063 L391.429582,2665.56063 Z M406.827306,2665.56063 C405.916622,2665.56063 405.178282,2666.28853 405.178282,2667.1861 C405.178282,2668.08367 405.916622,2668.81157 406.827306,2668.81157 C407.737989,2668.81157 408.47633,2668.08367 408.47633,2667.1861 C408.47633,2666.28853 407.737989,2665.56063 406.827306,2665.56063 L406.827306,2665.56063 Z M399.128444,2665.56063 C398.217761,2665.56063 397.47942,2666.28853 397.47942,2667.1861 C397.47942,2668.08367 398.217761,2668.81157 399.128444,2668.81157 C400.039127,2668.81157 400.777468,2668.08367 400.777468,2667.1861 C400.777468,2666.28853 400.039127,2665.56063 399.128444,2665.56063 L399.128444,2665.56063 Z M376.025405,2665.56063 C375.111306,2665.56063 374.370687,2666.28853 374.370687,2667.1861 C374.370687,2668.08367 375.111685,2668.81157 376.025405,2668.81157 C376.939126,2668.81157 377.680124,2668.08367 377.680124,2667.1861 C377.680124,2666.28853 376.939505,2665.56063 376.025405,2665.56063 L376.025405,2665.56063 Z M417.824215,2655.8574 L393.624105,2655.83018 L393.624105,2655.92825 C393.452522,2655.86896 393.270689,2655.83018 393.078227,2655.83018 C392.167543,2655.83018 391.429203,2656.55547 391.429203,2657.45005 C391.429203,2658.34464 392.167543,2659.06993 393.078227,2659.06993 C393.270689,2659.06993 393.452142,2659.03152 393.624105,2658.97186 L393.624105,2659.06993 L394.175298,2659.06993 L418.924703,2659.06322 L418.924703,2659.11281 C420.790105,2659.37534 422.225409,2660.94935 422.225409,2662.8571 C422.225409,2664.9487 420.501981,2666.64427 418.375788,2666.64427 C417.431319,2666.64427 416.569226,2666.30717 415.900734,2665.75118 C415.605397,2665.31377 415.100896,2665.0244 414.526547,2665.0244 C413.615864,2665.0244 412.877523,2665.74969 412.877523,2666.64427 C412.877523,2667.1984 413.161471,2667.68653 413.593467,2667.97851 L413.539562,2668.03146 C414.811254,2669.18708 416.507729,2669.89522 418.375788,2669.89522 C422.322968,2669.89522 425.523077,2666.74645 425.523077,2662.8627 C425.523077,2658.97894 422.322968,2655.83018 418.375788,2655.83018 C418.1894,2655.83018 418.006807,2655.84397 417.824215,2655.8574 L417.824215,2655.8574 Z M377.680503,2655.83018 C376.76982,2655.83018 376.031479,2656.55547 376.031479,2657.45005 C376.031479,2658.34464 376.76982,2659.06993 377.680503,2659.06993 C378.591187,2659.06993 379.329527,2658.34464 379.329527,2657.45005 C379.329527,2656.55547 378.591187,2655.83018 377.680503,2655.83018 L377.680503,2655.83018 Z M385.379365,2655.83018 C384.468681,2655.83018 383.730341,2656.55547 383.730341,2657.45005 C383.730341,2658.34464 384.468681,2659.06993 385.379365,2659.06993 C386.290048,2659.06993 387.028389,2658.34464 387.028389,2657.45005 C387.028389,2656.55547 386.290048,2655.83018 385.379365,2655.83018 L385.379365,2655.83018 Z M383.724647,2665.56063 C382.810547,2665.56063 382.069929,2666.28853 382.069929,2667.1861 C382.069929,2668.08367 382.810927,2668.81157 383.724647,2668.81157 C384.638367,2668.81157 385.379365,2668.08367 385.379365,2667.1861 C385.379365,2666.28853 384.638367,2665.56063 383.724647,2665.56063 L383.724647,2665.56063 Z" id="Combined-Shape"></path>
        </g>
    </g>
</svg>