<?xml version="1.0" encoding="UTF-8" standalone="no"?>
<svg width="64px" height="64px" viewBox="0 0 64 64" version="1.1" xmlns="http://www.w3.org/2000/svg" xmlns:xlink="http://www.w3.org/1999/xlink">
    <!-- Generator: Sketch 3.8.3 (29802) - http://www.bohemiancoding.com/sketch -->
    <title>3</title>
    <desc>Created with Sketch.</desc>
    <defs>
        <linearGradient x1="50%" y1="0%" x2="50%" y2="100%" id="linearGradient-1">
            <stop stop-color="#EAE6C5" offset="0%"></stop>
            <stop stop-color="#D8C7A0" offset="100%"></stop>
        </linearGradient>
    </defs>
    <g id="天气图标" stroke="none" stroke-width="1" fill="none" fill-rule="evenodd">
        <g id="天气图标_白色背景" transform="translate(-363.000000, -321.000000)" fill="url(#linearGradient-1)">
            <path d="M395.510467,380.000679 L395.504264,379.995268 C388.174554,379.95383 381.289712,377.081121 376.101402,371.893867 C370.877262,366.668737 368,359.722265 368,352.331717 C368,346.256243 369.950441,340.52125 373.642746,335.747918 C375.410872,333.460097 377.527859,331.468217 379.932935,329.825264 C382.363546,328.166409 385.030252,326.902143 387.860863,326.069548 C388.017576,326.022897 388.181548,326 388.345454,326 C388.856308,326 389.338326,326.225536 389.666929,326.620124 C390.104606,327.148793 390.185833,327.884391 389.872868,328.496597 C388.185111,331.786263 387.399234,334.920008 387.399234,338.361043 C387.399234,350.623373 397.376316,360.600456 409.638646,360.600456 C413.080671,360.600456 416.215208,359.814578 419.503093,358.128603 C419.745388,358.004354 420.015794,357.939161 420.286133,357.939161 C420.685406,357.939161 421.072802,358.079115 421.379565,358.33375 C421.906387,358.770634 422.123147,359.47898 421.930867,360.138827 C421.0924,362.978214 419.828133,365.644919 418.174425,368.06781 C416.533254,370.471831 414.540319,372.589015 412.252498,374.357999 C407.479429,378.05004 401.744238,380.000481 395.668962,380.000481 L395.510467,380.000481 L395.510467,380.000679 L395.510467,380.000679 Z" id="Shape"></path>
        </g>
    </g>
</svg>