<?xml version="1.0" encoding="UTF-8" standalone="no"?>
<svg width="64px" height="64px" viewBox="0 0 64 64" version="1.1" xmlns="http://www.w3.org/2000/svg" xmlns:xlink="http://www.w3.org/1999/xlink">
    <!-- Generator: Sketch 3.8.3 (29802) - http://www.bohemiancoding.com/sketch -->
    <title>32</title>
    <desc>Created with Sketch.</desc>
    <defs>
        <linearGradient x1="1.12703284%" y1="48.8729672%" x2="98.8729672%" y2="48.8729672%" id="linearGradient-1">
            <stop stop-color="#B5B5B5" stop-opacity="0.6" offset="0%"></stop>
            <stop stop-color="#B5B5B5" stop-opacity="0.9" offset="100%"></stop>
        </linearGradient>
    </defs>
    <g id="天气图标" stroke="none" stroke-width="1" fill="none" fill-rule="evenodd">
        <g id="天气图标_白色背景" transform="translate(-363.000000, -2886.000000)" fill="url(#linearGradient-1)">
            <path d="M366.534198,2911.09504 L392.592594,2911.09504 C397.02926,2911.09504 400.638838,2907.48546 400.638838,2903.0488 C400.638838,2898.60958 397.02926,2895 392.592594,2895 C388.367805,2895 384.896075,2898.27006 384.569324,2902.41061 L387.650484,2902.41061 C387.964472,2899.96508 390.060273,2898.06584 392.592594,2898.06584 C395.339345,2898.06584 397.572995,2900.29949 397.572995,2903.0488 C397.572995,2905.79555 395.339345,2908.0292 392.592594,2908.0292 L366.534198,2908.0292 C365.68924,2908.0292 365,2908.71333 365,2909.55829 C365,2909.97183 365.15827,2910.3573 365.44673,2910.64576 C365.737743,2910.93677 366.123207,2911.09504 366.534198,2911.09504 Z M414.30469,2925.40444 L366.535219,2925.40444 C365.690262,2925.40444 365.001021,2926.09113 365.001021,2926.93609 C365.001021,2927.78104 365.690262,2928.46518 366.535219,2928.46518 L414.30469,2928.46518 C417.051441,2928.46518 419.285091,2930.70138 419.285091,2933.45068 C419.285091,2936.19744 417.051441,2938.42853 414.30469,2938.42853 C411.77237,2938.42853 409.676568,2936.53184 409.360028,2934.08887 L406.28142,2934.08887 C406.608172,2938.22942 410.082454,2941.49948 414.30469,2941.49948 C418.738804,2941.49948 422.345829,2937.8899 422.345829,2933.45068 C422.345829,2929.01402 418.738804,2925.40444 414.30469,2925.40444 Z M404.225697,2911.09504 L407.33749,2911.09504 C407.214958,2910.57939 407.153693,2910.07394 407.153693,2909.5634 C407.153693,2905.61686 410.36249,2902.41061 414.303924,2902.41061 C418.250464,2902.41061 421.459262,2905.61686 421.459262,2909.5634 C421.459262,2913.28785 418.643587,2916.34093 414.91403,2916.65747 C414.850211,2916.68044 414.732785,2916.71363 414.584726,2916.71363 L366.534454,2916.71363 C365.689496,2916.71363 365.000255,2917.40287 365.000255,2918.25038 C365.000255,2918.65882 365.158525,2919.04173 365.446985,2919.33019 C365.735445,2919.6212 366.123462,2919.77947 366.534454,2919.77947 L414.303924,2919.77947 C419.937827,2919.77947 424.52,2915.1973 424.52,2909.5634 C424.52,2903.92694 419.937827,2899.34222 414.303924,2899.34222 C408.667469,2899.34222 404.082743,2903.92694 404.082743,2909.5634 C404.082743,2910.04331 404.128693,2910.53854 404.225697,2911.09504 Z" id="Combined-Shape"></path>
        </g>
    </g>
</svg>