<?xml version="1.0" encoding="UTF-8" standalone="no"?>
<svg width="64px" height="64px" viewBox="0 0 64 64" version="1.1" xmlns="http://www.w3.org/2000/svg" xmlns:xlink="http://www.w3.org/1999/xlink">
    <!-- Generator: Sketch 3.8.3 (29802) - http://www.bohemiancoding.com/sketch -->
    <title>36</title>
    <desc>Created with Sketch.</desc>
    <defs>
        <linearGradient x1="1.12703284%" y1="48.8729672%" x2="98.8729672%" y2="48.8729672%" id="linearGradient-1">
            <stop stop-color="#B5B5B5" stop-opacity="0.5" offset="0%"></stop>
            <stop stop-color="#B5B5B5" stop-opacity="0.9" offset="49.6631856%"></stop>
            <stop stop-color="#B5B5B5" stop-opacity="0.5" offset="100%"></stop>
        </linearGradient>
    </defs>
    <g id="天气图标" stroke="none" stroke-width="1" fill="none" fill-rule="evenodd">
        <g id="天气图标_白色背景" transform="translate(-363.000000, -3240.000000)" fill="url(#linearGradient-1)">
            <path d="M394.595524,3243 C378.250233,3243 365,3248.5003 365,3255.28493 C365,3262.06957 378.250233,3267.56987 394.595524,3267.56987 C410.940816,3267.56987 424.191049,3262.06957 424.191049,3255.28493 C424.191049,3248.5003 410.940816,3243 394.595524,3243 L394.595524,3243 Z M378.029476,3259.00764 C378.029476,3256.48886 385.550462,3254.44733 394.828193,3254.44733 C404.105925,3254.44733 411.626911,3256.48886 411.626911,3259.00764 C411.626911,3260.56671 408.742929,3261.94262 404.34604,3262.76497 C401.291186,3263.15995 398.00813,3263.38182 394.669606,3263.38182 C391.726061,3263.38182 388.835379,3263.21318 386.110357,3262.90643 C381.265253,3262.10642 378.029476,3260.65978 378.029476,3259.00764 L378.029476,3259.00764 Z M414.72532,3260.44796 C414.955756,3259.98113 415.081211,3259.50016 415.081211,3259.00764 C415.081211,3254.74142 406.036893,3251.28302 394.879939,3251.28302 C383.722985,3251.28302 374.678667,3254.74142 374.678667,3259.00764 C374.678667,3259.5627 374.835021,3260.10398 375.126137,3260.6259 C370.501789,3259.06423 367.78868,3256.99217 368.498228,3254.8196 C369.653012,3251.28302 380.21545,3246.25737 394.669234,3246.25737 C409.123018,3246.25737 419.258089,3250.72462 420.84024,3254.8196 C421.639133,3256.88607 419.117371,3258.89559 414.72532,3260.44796 L414.72532,3260.44796 Z M418.445794,3266.80969 C418.14835,3266.80969 417.872869,3266.89866 417.639083,3267.0472 L417.631266,3267.03454 C412.668524,3270.50411 404.334127,3272.78166 394.88329,3272.78166 C385.454044,3272.78166 377.13826,3270.51341 372.171796,3267.05725 C371.894826,3266.7196 371.479372,3266.49959 371.00845,3266.49959 C370.174191,3266.49959 369.497775,3267.17601 369.497775,3268.01027 C369.497775,3268.26453 369.566645,3268.50055 369.677582,3268.71051 L369.66083,3268.72279 C369.677954,3268.74141 369.69694,3268.75965 369.714064,3268.77789 C369.841753,3268.99232 370.018954,3269.17138 370.232638,3269.30018 C374.753494,3273.62523 384.089299,3276.59743 394.883662,3276.59743 C405.400683,3276.59743 414.538813,3273.77786 419.183263,3269.63262 L419.182518,3269.6315 C419.642272,3269.3724 419.956097,3268.88547 419.956097,3268.32037 C419.956469,3267.48611 419.280053,3266.80969 418.445794,3266.80969 L418.445794,3266.80969 Z M408.940605,3278.57196 C408.760426,3278.57196 408.589182,3278.60881 408.430967,3278.67098 L408.425755,3278.66093 C408.401929,3278.67657 408.374754,3278.69109 408.350556,3278.70635 C408.262328,3278.74767 408.180428,3278.79793 408.103368,3278.856 C405.160196,3280.62243 400.234309,3281.78354 394.641686,3281.78354 C388.987265,3281.78354 384.010378,3280.59786 381.07949,3278.7983 C380.945845,3278.66242 380.78279,3278.55781 380.601495,3278.48857 C380.596655,3278.48522 380.590699,3278.48187 380.585859,3278.47852 L380.582881,3278.48299 C380.440301,3278.43124 380.288787,3278.39811 380.128339,3278.39811 C379.391242,3278.39811 378.79412,3278.9956 378.79412,3279.73233 C378.79412,3280.08673 378.934838,3280.40688 379.160435,3280.64588 L379.152989,3280.65705 C381.32035,3283.32735 387.433407,3285.25236 394.641686,3285.25236 C401.389838,3285.25236 407.17902,3283.56523 409.669139,3281.15887 C410.069702,3280.9128 410.339226,3280.47463 410.339226,3279.97021 C410.339599,3279.19812 409.713067,3278.57196 408.940605,3278.57196 L408.940605,3278.57196 Z M401.266244,3288.16314 C400.602485,3288.16314 400.0344,3288.55217 399.763015,3289.11169 L399.748868,3289.10238 L395.410053,3295.57915 L391.270774,3289.05883 L391.259978,3289.06553 C390.972213,3288.557 390.433165,3288.21005 389.807378,3288.21005 C388.881913,3288.21005 388.131787,3288.96017 388.131787,3289.88564 C388.131787,3290.24711 388.249053,3290.57992 388.44375,3290.85354 L388.441889,3290.85466 L393.372243,3298.62097 L393.368892,3298.62581 L393.637299,3299.04871 L393.648468,3299.05616 L394.693432,3300.70197 L394.700132,3300.6975 C394.824471,3300.93426 395.069797,3301.09732 395.355701,3301.09732 C395.659102,3301.09732 395.918947,3300.9149 396.034723,3300.65431 L396.039935,3300.65767 L396.98513,3299.24639 L396.999276,3299.23745 L397.375642,3298.67532 L397.37192,3298.66937 L402.531964,3290.96671 L402.509256,3290.95145 C402.775057,3290.65512 402.94109,3290.26759 402.94109,3289.83799 C402.941834,3288.91327 402.191709,3288.16314 401.266244,3288.16314 L401.266244,3288.16314 Z" id="Shape"></path>
        </g>
    </g>
</svg>