<?xml version="1.0" encoding="UTF-8" standalone="no"?>
<svg width="64px" height="64px" viewBox="0 0 64 64" version="1.1" xmlns="http://www.w3.org/2000/svg" xmlns:xlink="http://www.w3.org/1999/xlink">
    <!-- Generator: Sketch 3.8.3 (29802) - http://www.bohemiancoding.com/sketch -->
    <title>11</title>
    <desc>Created with Sketch.</desc>
    <defs>
        <linearGradient x1="50%" y1="0%" x2="50%" y2="97.7459343%" id="linearGradient-1">
            <stop stop-color="#FFFFFF" stop-opacity="0.8" offset="0%"></stop>
            <stop stop-color="#FFFFFF" stop-opacity="0.9" offset="100%"></stop>
        </linearGradient>
        <linearGradient x1="50%" y1="100%" x2="50%" y2="-1.35917284e-14%" id="linearGradient-2">
            <stop stop-color="#F1D616" offset="0%"></stop>
            <stop stop-color="#FFC500" offset="100%"></stop>
        </linearGradient>
    </defs>
    <g id="天气图标" stroke="none" stroke-width="1" fill="none" fill-rule="evenodd">
        <g id="天气图标_默认背景" transform="translate(-364.000000, -1010.000000)">
            <g id="Group-8" transform="translate(366.000000, 1012.000000)">
                <path d="M51.3538945,14.6050035 C51.3538945,6.5518468 44.6643399,0 36.4420275,0 C31.2071105,0 26.3787783,2.70600805 23.6953188,7.01981095 C22.0277109,5.90369524 20.0571552,5.30297366 17.9955757,5.30297366 C12.4117921,5.30297366 7.86972581,9.75180086 7.86972581,15.2205469 C7.86972581,15.8248141 7.92453774,16.423792 8.03404535,17.0112611 C3.23977441,18.7154852 0,23.1666374 0,28.2742531 C0,34.776403 5.26241014,39.68 12.2398001,39.68 L47.2796768,39.68 C54.0289259,39.68 59.52,34.3026845 59.52,27.6924802 C59.5201744,22.5584759 56.0970154,17.9716018 51.21794,16.3402083 C51.2881551,15.7637248 51.3538945,15.0962176 51.3538945,14.6050035 Z" id="Shape-Copy-5" fill="url(#linearGradient-1)"></path>
                <path d="M10.7295131,43.9383091 L7.08834496,52.87693 C6.7008118,53.8282764 7.1578727,54.9136527 8.10921904,55.3011858 C9.06056539,55.688719 10.1459417,55.2316581 10.5334748,54.2803117 L14.1746429,45.3416909 C14.5621761,44.3903445 14.1051152,43.3049682 13.1537688,42.9174351 C12.2024225,42.5299019 11.1170462,42.9869628 10.7295131,43.9383091 L10.7295131,43.9383091 Z" id="Line" fill="#A8D8FF"></path>
                <path d="M45.4495131,43.9383091 L41.808345,52.87693 C41.4208118,53.8282764 41.8778727,54.9136527 42.829219,55.3011858 C43.7805654,55.688719 44.8659417,55.2316581 45.2534748,54.2803117 L48.8946429,45.3416909 C49.2821761,44.3903445 48.8251152,43.3049682 47.8737688,42.9174351 C46.9224225,42.5299019 45.8370462,42.9869628 45.4495131,43.9383091 L45.4495131,43.9383091 Z" id="Line" fill="#A8D8FF"></path>
                <polygon id="Page-1" fill="url(#linearGradient-2)" points="25.2570712 39.68 21.2914112 50.3397499 25.2589191 50.3397499 25.3827305 50.1666208 21.7083045 59.52 34.8035594 46.6639741 30.3748079 46.6639741 35.382701 39.68"></polygon>
            </g>
        </g>
    </g>
</svg>