<?xml version="1.0" encoding="UTF-8" standalone="no"?>
<svg width="64px" height="64px" viewBox="0 0 64 64" version="1.1" xmlns="http://www.w3.org/2000/svg" xmlns:xlink="http://www.w3.org/1999/xlink">
    <!-- Generator: Sketch 3.8.3 (29802) - http://www.bohemiancoding.com/sketch -->
    <title>20</title>
    <desc>Created with Sketch.</desc>
    <defs>
        <linearGradient x1="50%" y1="0%" x2="50%" y2="97.7459343%" id="linearGradient-1">
            <stop stop-color="#FFFFFF" stop-opacity="0.8" offset="0%"></stop>
            <stop stop-color="#FFFFFF" stop-opacity="0.9" offset="100%"></stop>
        </linearGradient>
    </defs>
    <g id="天气图标" stroke="none" stroke-width="1" fill="none" fill-rule="evenodd">
        <g id="天气图标_默认背景" transform="translate(-364.000000, -1836.000000)">
            <g id="Group-31" transform="translate(366.000000, 1839.000000)">
                <path d="M51.8338945,14.6050035 C51.8338945,6.5518468 45.1443399,0 36.9220275,0 C31.6871105,0 26.8587783,2.70600805 24.1753188,7.01981095 C22.5077109,5.90369524 20.5371552,5.30297366 18.4755757,5.30297366 C12.8917921,5.30297366 8.34972581,9.75180086 8.34972581,15.2205469 C8.34972581,15.8248141 8.40453774,16.423792 8.51404535,17.0112611 C3.71977441,18.7154852 0.48,23.1666374 0.48,28.2742531 C0.48,34.776403 5.74241014,39.68 12.7198001,39.68 L47.7596768,39.68 C54.5089259,39.68 60,34.3026845 60,27.6924802 C60.0001744,22.5584759 56.5770154,17.9716018 51.69794,16.3402083 C51.7681551,15.7637248 51.8338945,15.0962176 51.8338945,14.6050035 Z" id="Shape-Copy-5" fill="url(#linearGradient-1)"></path>
                <path d="M15.2696354,47 L11,56.9624827" id="Line" stroke="#A8D8FF" stroke-width="3" stroke-linecap="round"></path>
                <path d="M30.2696354,47 L26,56.9624827" id="Line" stroke="#A8D8FF" stroke-width="3" stroke-linecap="round"></path>
                <path d="M48.1337175,50.3738517 L50.1780815,50.3738517 C50.985569,50.3738517 51.64,51.0284097 51.64,51.8357702 C51.64,52.6431305 50.985569,53.2976887 50.1780815,53.2976887 L48.1337175,53.2976887 L49.1558826,55.0681355 C49.5596263,55.7673139 49.3199989,56.6614995 48.6208205,57.0651161 C48.3906,57.1980873 48.1391501,57.2612675 47.8912596,57.2612675 C47.3859443,57.2612675 46.8946126,56.9991391 46.6238398,56.530054 L45.601641,54.7595488 L44.5794421,56.5300541 C44.3087966,56.9990121 43.8173376,57.2612675 43.3120224,57.2612675 C43.0640047,57.2612675 42.8126818,57.1980872 42.5824615,57.0651162 C41.8832831,56.6614996 41.6436555,55.7674411 42.0473993,55.0681356 L43.0695645,53.2976887 L41.0252004,53.2976887 C40.21784,53.2976887 39.5632818,52.6432577 39.5632818,51.8357702 C39.5632818,51.0284099 40.2178399,50.3738517 41.0252004,50.3738517 L43.0695646,50.3738517 L42.0473993,48.6034047 C41.6436556,47.9042263 41.8832831,47.0100407 42.5824615,46.606424 C43.281767,46.2026803 44.1758255,46.4423078 44.5794421,47.1414862 L45.601641,48.9119915 L46.6238398,47.1414863 C47.0274565,46.4423079 47.921515,46.2026803 48.6208205,46.6064242 C49.3199989,47.0101679 49.5596264,47.9042264 49.1558826,48.6034048 L48.1337175,50.3738517 Z" id="Shape-Copy-4" fill="#A8D8FF"></path>
            </g>
        </g>
    </g>
</svg>