<?xml version="1.0" encoding="UTF-8" standalone="no"?>
<svg width="64px" height="64px" viewBox="0 0 64 64" version="1.1" xmlns="http://www.w3.org/2000/svg" xmlns:xlink="http://www.w3.org/1999/xlink">
    <!-- Generator: Sketch 3.8.3 (29802) - http://www.bohemiancoding.com/sketch -->
    <title>26</title>
    <desc>Created with Sketch.</desc>
    <defs></defs>
    <g id="天气图标" stroke="none" stroke-width="1" fill="none" fill-rule="evenodd">
        <g id="天气图标_默认背景" transform="translate(-364.000000, -2375.000000)" fill="#FFFFFF">
            <path d="M376.615385,2428.23077 C376.615385,2429.42185 375.650462,2430.38462 374.461539,2430.38462 L370.153846,2430.38462 C368.964923,2430.38462 368,2429.42185 368,2428.23077 C368,2427.03969 368.964923,2426.07692 370.153846,2426.07692 L374.461538,2426.07692 C375.650462,2426.07692 376.615385,2427.03969 376.615385,2428.23077 L376.615385,2428.23077 Z M387.384615,2426.07692 L383.076923,2426.07692 C381.888,2426.07692 380.923077,2427.03969 380.923077,2428.23077 C380.923077,2429.42185 381.888,2430.38462 383.076923,2430.38462 L387.384615,2430.38462 C388.573539,2430.38462 389.538462,2429.42185 389.538462,2428.23077 C389.538462,2427.03969 388.573538,2426.07692 387.384615,2426.07692 L387.384615,2426.07692 Z M400.307692,2426.07692 L396,2426.07692 C394.811077,2426.07692 393.846154,2427.03969 393.846154,2428.23077 C393.846154,2429.42185 394.811077,2430.38462 396,2430.38462 L400.307692,2430.38462 C401.498769,2430.38462 402.461538,2429.42185 402.461538,2428.23077 C402.461538,2427.03969 401.498769,2426.07692 400.307692,2426.07692 L400.307692,2426.07692 Z M413.230769,2426.07692 L408.923077,2426.07692 C407.732,2426.07692 406.769231,2427.03969 406.769231,2428.23077 C406.769231,2429.42185 407.732,2430.38462 408.923077,2430.38462 L413.230769,2430.38462 C414.421846,2430.38462 415.384615,2429.42185 415.384615,2428.23077 C415.384615,2427.03969 414.421846,2426.07692 413.230769,2426.07692 L413.230769,2426.07692 Z M385.230769,2419.61538 C385.230769,2418.42431 384.265846,2417.46154 383.076923,2417.46154 L378.769231,2417.46154 C377.580308,2417.46154 376.615385,2418.42431 376.615385,2419.61538 C376.615385,2420.80646 377.580308,2421.76923 378.769231,2421.76923 L383.076923,2421.76923 C384.265846,2421.76923 385.230769,2420.80646 385.230769,2419.61538 L385.230769,2419.61538 Z M398.153846,2419.61538 C398.153846,2418.42431 397.188923,2417.46154 396,2417.46154 L391.692308,2417.46154 C390.503385,2417.46154 389.538462,2418.42431 389.538462,2419.61538 C389.538462,2420.80646 390.503385,2421.76923 391.692308,2421.76923 L396,2421.76923 C397.188923,2421.76923 398.153846,2420.80646 398.153846,2419.61538 L398.153846,2419.61538 Z M411.076923,2419.61538 C411.076923,2418.42431 410.114154,2417.46154 408.923077,2417.46154 L404.615385,2417.46154 C403.424308,2417.46154 402.461539,2418.42431 402.461539,2419.61538 C402.461539,2420.80646 403.424308,2421.76923 404.615385,2421.76923 L408.923077,2421.76923 C410.114154,2421.76923 411.076923,2420.80646 411.076923,2419.61538 L411.076923,2419.61538 Z M421.846154,2417.46154 L417.538462,2417.46154 C416.347385,2417.46154 415.384615,2418.42431 415.384615,2419.61538 C415.384615,2420.80646 416.347385,2421.76923 417.538462,2421.76923 L421.846154,2421.76923 C423.037231,2421.76923 424,2420.80646 424,2419.61538 C424,2418.42431 423.037231,2417.46154 421.846154,2417.46154 L421.846154,2417.46154 Z M370.153846,2413.15385 L374.461538,2413.15385 C375.650462,2413.15385 376.615385,2412.19108 376.615385,2411 C376.615385,2409.80892 375.650461,2408.84615 374.461538,2408.84615 L370.153846,2408.84615 C368.964923,2408.84615 368,2409.80892 368,2411 C368,2412.19108 368.964923,2413.15385 370.153846,2413.15385 L370.153846,2413.15385 Z M383.076923,2413.15385 L387.384615,2413.15385 C388.573539,2413.15385 389.538462,2412.19108 389.538462,2411 C389.538462,2409.80892 388.573538,2408.84615 387.384615,2408.84615 L383.076923,2408.84615 C381.888,2408.84615 380.923077,2409.80892 380.923077,2411 C380.923077,2412.19108 381.888,2413.15385 383.076923,2413.15385 L383.076923,2413.15385 Z M396,2413.15385 L400.307692,2413.15385 C401.498769,2413.15385 402.461538,2412.19108 402.461538,2411 C402.461538,2409.80892 401.498769,2408.84615 400.307692,2408.84615 L396,2408.84615 C394.811077,2408.84615 393.846154,2409.80892 393.846154,2411 C393.846154,2412.19108 394.811077,2413.15385 396,2413.15385 L396,2413.15385 Z M408.923077,2413.15385 L413.230769,2413.15385 C414.421846,2413.15385 415.384615,2412.19108 415.384615,2411 C415.384615,2409.80892 414.421846,2408.84615 413.230769,2408.84615 L408.923077,2408.84615 C407.732,2408.84615 406.769231,2409.80892 406.769231,2411 C406.769231,2412.19108 407.732,2413.15385 408.923077,2413.15385 L408.923077,2413.15385 Z M385.230769,2402.38462 C385.230769,2401.19569 384.265846,2400.23077 383.076923,2400.23077 L378.769231,2400.23077 C377.580308,2400.23077 376.615385,2401.19569 376.615385,2402.38462 C376.615385,2403.57354 377.580308,2404.53846 378.769231,2404.53846 L383.076923,2404.53846 C384.265846,2404.53846 385.230769,2403.57354 385.230769,2402.38462 L385.230769,2402.38462 Z M398.153846,2402.38462 C398.153846,2401.19569 397.188923,2400.23077 396,2400.23077 L391.692308,2400.23077 C390.503385,2400.23077 389.538462,2401.19569 389.538462,2402.38462 C389.538462,2403.57354 390.503385,2404.53846 391.692308,2404.53846 L396,2404.53846 C397.188923,2404.53846 398.153846,2403.57354 398.153846,2402.38462 L398.153846,2402.38462 Z M411.076923,2402.38462 C411.076923,2401.19569 410.114154,2400.23077 408.923077,2400.23077 L404.615385,2400.23077 C403.424308,2400.23077 402.461539,2401.19569 402.461539,2402.38462 C402.461539,2403.57354 403.424308,2404.53846 404.615385,2404.53846 L408.923077,2404.53846 C410.114154,2404.53846 411.076923,2403.57354 411.076923,2402.38462 L411.076923,2402.38462 Z M421.846154,2400.23077 L417.538462,2400.23077 C416.347385,2400.23077 415.384615,2401.19569 415.384615,2402.38462 C415.384615,2403.57354 416.347385,2404.53846 417.538462,2404.53846 L421.846154,2404.53846 C423.037231,2404.53846 424,2403.57354 424,2402.38462 C424,2401.19569 423.037231,2400.23077 421.846154,2400.23077 L421.846154,2400.23077 Z M370.153846,2395.92308 L374.461538,2395.92308 C375.650462,2395.92308 376.615385,2394.95815 376.615385,2393.76923 C376.615385,2392.58031 375.650462,2391.61538 374.461538,2391.61538 L370.153846,2391.61538 C368.964923,2391.61538 368,2392.58031 368,2393.76923 C368,2394.95815 368.964923,2395.92308 370.153846,2395.92308 L370.153846,2395.92308 Z M380.923077,2393.76923 C380.923077,2394.95815 381.888,2395.92308 383.076923,2395.92308 L387.384615,2395.92308 C388.573538,2395.92308 389.538461,2394.95815 389.538461,2393.76923 C389.538461,2392.58031 388.573538,2391.61538 387.384615,2391.61538 L383.076923,2391.61538 C381.888,2391.61538 380.923077,2392.58031 380.923077,2393.76923 L380.923077,2393.76923 Z M393.846154,2393.76923 C393.846154,2394.95815 394.811077,2395.92308 396,2395.92308 L400.307692,2395.92308 C401.498769,2395.92308 402.461538,2394.95815 402.461538,2393.76923 C402.461538,2392.58031 401.498769,2391.61538 400.307692,2391.61538 L396,2391.61538 C394.811077,2391.61538 393.846154,2392.58031 393.846154,2393.76923 L393.846154,2393.76923 Z M406.769231,2393.76923 C406.769231,2394.95815 407.732,2395.92308 408.923077,2395.92308 L413.230769,2395.92308 C414.421846,2395.92308 415.384615,2394.95815 415.384615,2393.76923 C415.384615,2392.58031 414.421846,2391.61538 413.230769,2391.61538 L408.923077,2391.61538 C407.732,2391.61538 406.769231,2392.58031 406.769231,2393.76923 L406.769231,2393.76923 Z M378.769231,2387.30769 L383.076923,2387.30769 C384.265846,2387.30769 385.230769,2386.34277 385.230769,2385.15385 C385.230769,2383.96492 384.265846,2383 383.076923,2383 L378.769231,2383 C377.580308,2383 376.615385,2383.96492 376.615385,2385.15385 C376.615385,2386.34277 377.580308,2387.30769 378.769231,2387.30769 L378.769231,2387.30769 Z M391.692308,2387.30769 L396,2387.30769 C397.188923,2387.30769 398.153846,2386.34277 398.153846,2385.15385 C398.153846,2383.96492 397.188923,2383 396,2383 L391.692308,2383 C390.503385,2383 389.538462,2383.96492 389.538462,2385.15385 C389.538462,2386.34277 390.503385,2387.30769 391.692308,2387.30769 L391.692308,2387.30769 Z M404.615385,2387.30769 L408.923077,2387.30769 C410.114154,2387.30769 411.076923,2386.34277 411.076923,2385.15385 C411.076923,2383.96492 410.114154,2383 408.923077,2383 L404.615385,2383 C403.424308,2383 402.461539,2383.96492 402.461539,2385.15385 C402.461539,2386.34277 403.424308,2387.30769 404.615385,2387.30769 L404.615385,2387.30769 Z M417.538462,2387.30769 L421.846154,2387.30769 C423.037231,2387.30769 424,2386.34277 424,2385.15385 C424,2383.96492 423.037231,2383 421.846154,2383 L417.538462,2383 C416.347385,2383 415.384615,2383.96492 415.384615,2385.15385 C415.384615,2386.34277 416.347385,2387.30769 417.538462,2387.30769 L417.538462,2387.30769 Z" id="Shape"></path>
        </g>
    </g>
</svg>