<?xml version="1.0" encoding="UTF-8" standalone="no"?>
<svg width="64px" height="64px" viewBox="0 0 64 64" version="1.1" xmlns="http://www.w3.org/2000/svg" xmlns:xlink="http://www.w3.org/1999/xlink">
    <!-- Generator: Sketch 3.8.3 (29802) - http://www.bohemiancoding.com/sketch -->
    <title>3</title>
    <desc>Created with Sketch.</desc>
    <defs>
        <linearGradient x1="50%" y1="0%" x2="50%" y2="100%" id="linearGradient-1">
            <stop stop-color="#EAE6C5" offset="0%"></stop>
            <stop stop-color="#D8C7A0" offset="100%"></stop>
        </linearGradient>
    </defs>
    <g id="天气图标" stroke="none" stroke-width="1" fill="none" fill-rule="evenodd">
        <g id="天气图标_默认背景" transform="translate(-364.000000, -321.000000)" fill="url(#linearGradient-1)">
            <path d="M396.510467,380.000679 L396.504264,379.995268 C389.174554,379.95383 382.289712,377.081121 377.101402,371.893867 C371.877262,366.668737 369,359.722265 369,352.331717 C369,346.256243 370.950441,340.52125 374.642746,335.747918 C376.410872,333.460097 378.527859,331.468217 380.932935,329.825264 C383.363546,328.166409 386.030252,326.902143 388.860863,326.069548 C389.017576,326.022897 389.181548,326 389.345454,326 C389.856308,326 390.338326,326.225536 390.666929,326.620124 C391.104606,327.148793 391.185833,327.884391 390.872868,328.496597 C389.185111,331.786263 388.399234,334.920008 388.399234,338.361043 C388.399234,350.623373 398.376316,360.600456 410.638646,360.600456 C414.080671,360.600456 417.215208,359.814578 420.503093,358.128603 C420.745388,358.004354 421.015794,357.939161 421.286133,357.939161 C421.685406,357.939161 422.072802,358.079115 422.379565,358.33375 C422.906387,358.770634 423.123147,359.47898 422.930867,360.138827 C422.0924,362.978214 420.828133,365.644919 419.174425,368.06781 C417.533254,370.471831 415.540319,372.589015 413.252498,374.357999 C408.479429,378.05004 402.744238,380.000481 396.668962,380.000481 L396.510467,380.000481 L396.510467,380.000679 L396.510467,380.000679 Z" id="Shape"></path>
        </g>
    </g>
</svg>