<?xml version="1.0" encoding="UTF-8" standalone="no"?>
<svg width="64px" height="64px" viewBox="0 0 64 64" version="1.1" xmlns="http://www.w3.org/2000/svg" xmlns:xlink="http://www.w3.org/1999/xlink">
    <!-- Generator: Sketch 3.8.3 (29802) - http://www.bohemiancoding.com/sketch -->
    <title>31</title>
    <desc>Created with Sketch.</desc>
    <defs></defs>
    <g id="天气图标" stroke="none" stroke-width="1" fill="none" fill-rule="evenodd">
        <g id="天气图标_默认背景" transform="translate(-364.000000, -2781.000000)" fill="#FFFFFF">
            <path d="M411.330062,2799.10462 C402.803651,2799.10462 397.862941,2805.9561 395.761092,2809.80494 C393.658151,2805.9561 388.717441,2799.10244 380.189938,2799.10244 C371.569627,2799.10244 366,2804.51374 366,2812.89057 C366,2821.37221 371.638415,2826.85012 380.366821,2826.85012 C388.846281,2826.85012 393.684356,2819.9102 395.76,2815.93361 C397.833461,2819.90801 402.671535,2826.85012 411.149903,2826.85012 C419.879401,2826.85012 425.517816,2821.37221 425.52,2812.89275 C425.52,2804.51593 419.951465,2799.10462 411.330062,2799.10462 Z M395.753449,2791.36545 C397.235116,2791.36545 398.436173,2790.1633 398.436173,2788.68272 C398.436173,2787.20106 397.235116,2786 395.753449,2786 C394.271782,2786 393.070725,2787.20106 393.070725,2788.68272 C393.070725,2790.1633 394.271782,2791.36545 395.753449,2791.36545 Z M422.579923,2791.36545 C424.060498,2791.36545 425.261554,2790.1633 425.261554,2788.68272 C425.261554,2787.20106 424.060498,2786 422.579923,2786 C421.099347,2786 419.897199,2787.20106 419.897199,2788.68272 C419.897199,2790.1633 421.099347,2791.36545 422.579923,2791.36545 Z M370.866463,2791.36545 C372.347038,2791.36545 373.549187,2790.1633 373.549187,2788.68272 C373.549187,2787.20106 372.347038,2786 370.866463,2786 C369.384796,2786 368.183739,2787.20106 368.183739,2788.68272 C368.183739,2790.1633 369.384796,2791.36545 370.866463,2791.36545 Z M395.546539,2832.95029 C394.064872,2832.95029 392.863816,2834.15134 392.863816,2835.63301 C392.863816,2837.11359 394.064872,2838.31573 395.546539,2838.31573 C397.027115,2838.31573 398.229263,2837.11359 398.229263,2835.63301 C398.229263,2834.15134 397.027115,2832.95029 395.546539,2832.95029 Z M422.372031,2832.95029 C420.890363,2832.95029 419.689307,2834.15134 419.689307,2835.63301 C419.689307,2837.11359 420.890363,2838.31573 422.372031,2838.31573 C423.853698,2838.31573 425.054754,2837.11359 425.054754,2835.63301 C425.054754,2834.15134 423.853698,2832.95029 422.372031,2832.95029 Z M370.866463,2832.95029 C369.384796,2832.95029 368.183739,2834.15134 368.183739,2835.63301 C368.183739,2837.11359 369.384796,2838.31573 370.866463,2838.31573 C372.347038,2838.31573 373.549187,2837.11359 373.549187,2835.63301 C373.549187,2834.15134 372.347038,2832.95029 370.866463,2832.95029 Z M380.567725,2822.21295 C374.517675,2822.21295 370.906862,2818.73425 370.906862,2812.90585 C370.906862,2807.16589 374.46199,2803.73961 380.421415,2803.73961 C387.546956,2803.73961 391.256038,2811.09881 392.036724,2812.8458 C391.289886,2814.63537 387.708553,2822.21295 380.567725,2822.21295 Z M410.939172,2822.09394 C403.910807,2822.09394 400.357863,2814.61026 399.619759,2812.8458 C400.38516,2811.11846 404.025453,2803.85971 411.083299,2803.85971 C416.961925,2803.85971 420.473378,2807.24232 420.473378,2812.90694 C420.473378,2818.65891 416.910608,2822.09394 410.939172,2822.09394 Z" id="Combined-Shape"></path>
        </g>
    </g>
</svg>