<?xml version="1.0" encoding="UTF-8" standalone="no"?>
<svg width="64px" height="64px" viewBox="0 0 64 64" version="1.1" xmlns="http://www.w3.org/2000/svg" xmlns:xlink="http://www.w3.org/1999/xlink">
    <!-- Generator: Sketch 3.8.3 (29802) - http://www.bohemiancoding.com/sketch -->
    <title>35</title>
    <desc>Created with Sketch.</desc>
    <defs></defs>
    <g id="天气图标" stroke="none" stroke-width="1" fill="none" fill-rule="evenodd">
        <g id="天气图标_默认背景" transform="translate(-364.000000, -3125.000000)" fill="#FFFFFF">
            <path d="M397.336211,3182.69195 L391.960737,3182.69195 C391.318737,3182.69195 390.793928,3183.23969 390.793928,3183.91226 L390.793928,3185.30326 C390.793928,3185.97583 391.318737,3186.52102 391.960737,3186.52102 L397.336211,3186.52102 C397.978211,3186.52102 398.500473,3185.97583 398.500473,3185.30326 L398.500473,3183.91226 C398.500473,3183.23969 397.978211,3182.69195 397.336211,3182.69195 Z M415.348635,3164.12949 L390.580693,3164.12949 C389.938693,3164.12949 389.416431,3164.67468 389.416431,3165.34726 L389.416431,3166.73826 C389.416431,3167.41083 389.938693,3167.95856 390.580693,3167.95856 L415.348635,3167.95856 C415.990635,3167.95856 416.512896,3167.41083 416.512896,3166.73826 L416.512896,3165.34726 C416.512896,3164.67468 415.990635,3164.12949 415.348635,3164.12949 Z M367.156619,3131.46343 L367.161714,3130.82907 L424.355739,3130.82907 C424.997738,3130.82907 425.52,3130.28388 425.52,3129.61131 L425.52,3128.21776 C425.52,3127.54519 424.997738,3127 424.355739,3127 L367.164261,3127 C366.522262,3127 366,3127.54519 366,3128.21776 L366,3129.61131 C366,3129.93995 366.122286,3130.24821 366.346476,3130.48005 C366.563024,3130.70424 366.850904,3130.82907 367.156619,3130.82907 L367.156619,3131.46343 Z M406.342296,3173.40945 L392.381349,3173.40945 C391.739349,3173.40945 391.217088,3173.95464 391.217088,3174.62721 L391.217088,3176.01821 C391.217088,3176.69078 391.739349,3177.23852 392.381349,3177.23852 L406.342296,3177.23852 C406.984296,3177.23852 407.506557,3176.69078 407.506557,3176.01821 L407.506557,3174.62721 C407.506557,3173.95464 406.984296,3173.40945 406.342296,3173.40945 Z M424.36491,3154.8498 L381.575118,3154.8498 C380.93057,3154.8498 380.408309,3155.39499 380.408309,3156.06756 L380.408309,3157.45346 C380.408309,3158.12603 380.93057,3158.67377 381.575118,3158.67377 L424.35472,3158.67377 C424.996719,3158.67377 425.518981,3158.12603 425.518981,3157.45346 L425.518981,3156.06756 C425.518981,3155.39499 425.001814,3154.8498 424.36491,3154.8498 Z M370.76532,3149.39382 L413.547469,3149.39382 C414.189469,3149.39382 414.711731,3148.84608 414.711731,3148.17351 L414.711731,3146.78251 C414.711731,3146.10994 414.189469,3145.56475 413.547469,3145.56475 L370.76532,3145.56475 C370.12332,3145.56475 369.59851,3146.10994 369.59851,3146.78251 L369.59851,3148.17351 C369.59851,3148.84608 370.12332,3149.39382 370.76532,3149.39382 Z M424.36491,3136.28479 L376.17162,3136.28479 C375.52962,3136.28479 375.004811,3136.82998 375.004811,3137.50256 L375.004811,3138.89101 C375.004811,3139.56358 375.52962,3140.10877 376.17162,3140.10877 L424.35472,3140.10877 C424.996719,3140.10877 425.518981,3139.56358 425.518981,3138.89101 L425.518981,3137.50256 C425.518981,3136.82998 425.001814,3136.28479 424.36491,3136.28479 Z" id="Combined-Shape"></path>
        </g>
    </g>
</svg>