<?xml version="1.0" encoding="UTF-8" standalone="no"?>
<svg width="64px" height="64px" viewBox="0 0 64 64" version="1.1" xmlns="http://www.w3.org/2000/svg" xmlns:xlink="http://www.w3.org/1999/xlink">
    <!-- Generator: Sketch 3.8.3 (29802) - http://www.bohemiancoding.com/sketch -->
    <title>4</title>
    <desc>Created with Sketch.</desc>
    <defs>
        <linearGradient x1="50%" y1="0%" x2="50%" y2="97.7459343%" id="linearGradient-1">
            <stop stop-color="#EDEDED" stop-opacity="0.8" offset="0%"></stop>
            <stop stop-color="#EDEDED" stop-opacity="0.9" offset="100%"></stop>
        </linearGradient>
    </defs>
    <g id="天气图标" stroke="none" stroke-width="1" fill="none" fill-rule="evenodd">
        <g id="天气图标_默认背景" transform="translate(-364.000000, -409.000000)">
            <g id="Group-20-Copy" transform="translate(364.000000, 416.000000)">
                <path d="M53.3960644,13.2418698 C53.3960644,5.9403411 47.3308681,0 39.8759716,0 C35.1296468,0 30.751959,2.4534473 28.3189557,6.36462859 C26.8069912,5.35268369 25.0203541,4.80802945 23.1511886,4.80802945 C18.0885582,4.80802945 13.9704181,8.84163278 13.9704181,13.7999626 C13.9704181,14.3478315 14.0201142,14.8909047 14.1194011,15.4235434 C9.77259547,16.9687066 6.8352,21.0044179 6.8352,25.6353228 C6.8352,31.5306054 11.6064519,35.9765333 17.9326187,35.9765333 L49.702107,35.9765333 C55.8214261,35.9765333 60.8,31.1011006 60.8,25.1078487 C60.8001581,20.4530181 57.696494,16.2942523 53.2727989,14.8151222 C53.3364606,14.2924438 53.3960644,13.6872373 53.3960644,13.2418698 Z" id="Shape-Copy-5" fill="url(#linearGradient-1)"></path>
                <path d="M53.7962465,49.9316546 L32.8884353,49.9316546 C32.8322681,49.9316546 32.7772701,49.926528 32.7239361,49.9166347 C30.5390378,49.8248515 28.4994367,48.9163285 26.9668691,47.3489093 C25.3976062,45.7439854 24.5333333,43.6237087 24.5333333,41.3787309 C24.5333333,39.110189 25.4124462,36.9734084 27.0087359,35.3620538 C28.4278,33.9296337 30.2674208,33.0592899 32.2518441,32.8678089 C32.8069501,30.3566555 34.1648554,28.0735434 36.1255347,26.3782754 C38.2971669,24.5007001 41.0762948,23.4666667 43.9510284,23.4666667 C48.5809296,23.4666667 52.7642367,26.1123695 54.7597675,30.2534051 C57.0967083,30.4797825 59.2607856,31.52272 60.9034391,33.2256779 C62.6832052,35.0706951 63.6633649,37.4991492 63.6633649,40.0636817 C63.6633649,42.6994912 62.6370213,45.177547 60.7733417,47.0413615 C58.909707,48.905176 56.4318762,49.9316546 53.7962465,49.9316546 L53.7962465,49.9316546 Z" id="Shape" fill="#FFFFFF"></path>
                <path d="M12.0625145,42.1626933 C11.1330521,40.5400711 9.40170389,39.5393481 7.50162117,39.5393481 C6.23523573,39.5393481 5.01298594,39.9906904 4.06006617,40.8102474 C3.19467328,41.5545319 2.60329198,42.5551733 2.37369727,43.65356 C1.01384615,44.0394726 0.056757651,45.2710815 0.056757651,46.6919881 C0.056757651,48.2649556 1.24378825,49.6177763 2.78150538,49.8505689 L11.7728536,49.8545778 C13.9288172,49.8545778 15.6828453,48.1266652 15.6828453,46.0028015 C15.6828453,43.9749556 14.0836063,42.30936 12.0625145,42.1626933 L12.0625145,42.1626933 Z" id="Shape" fill="url(#linearGradient-1)"></path>
            </g>
        </g>
    </g>
</svg>