<?xml version="1.0" encoding="UTF-8" standalone="no"?>
<svg width="64px" height="64px" viewBox="0 0 64 64" version="1.1" xmlns="http://www.w3.org/2000/svg" xmlns:xlink="http://www.w3.org/1999/xlink">
    <!-- Generator: Sketch 3.8.3 (29802) - http://www.bohemiancoding.com/sketch -->
    <title>9</title>
    <desc>Created with Sketch.</desc>
    <defs>
        <linearGradient x1="50%" y1="0%" x2="50%" y2="97.7459343%" id="linearGradient-1">
            <stop stop-color="#EDEDED" stop-opacity="0.85" offset="0%"></stop>
            <stop stop-color="#EDEDED" stop-opacity="0.95" offset="100%"></stop>
        </linearGradient>
        <linearGradient x1="61.6984292%" y1="0%" x2="54.4923027%" y2="64.5135801%" id="linearGradient-2">
            <stop stop-color="#F5F5F5" offset="0%"></stop>
            <stop stop-color="#F4F4F4" stop-opacity="0" offset="100%"></stop>
        </linearGradient>
    </defs>
    <g id="天气图标" stroke="none" stroke-width="1" fill="none" fill-rule="evenodd">
        <g id="天气图标_默认背景" transform="translate(-364.000000, -836.000000)">
            <g id="Group-25" transform="translate(363.000000, 847.000000)">
                <path d="M55.6992414,15.8269947 C55.6992414,7.1000356 48.5061719,0 39.6649758,0 C34.0360328,0 28.8442777,2.932418 25.9588374,7.607154 C24.1657106,6.39765361 22.0468336,5.74667005 19.8300814,5.74667005 C13.826013,5.74667005 8.94207076,10.5677278 8.94207076,16.4940403 C8.94207076,17.1488661 9.00100832,17.7979601 9.11875844,18.4345823 C3.9636284,20.2813978 0.48,25.104975 0.48,30.6399416 C0.48,37.6861222 6.13850553,43 13.6410754,43 L51.3183621,43 C58.5756192,43 64.48,37.172768 64.48,30.0094922 C64.4801875,24.445929 60.7993714,19.4752742 55.5530538,17.707383 C55.6285539,17.0826655 55.6992414,16.3593084 55.6992414,15.8269947 Z" id="Shape-Copy-5" fill="url(#linearGradient-1)"></path>
                <path d="M47.3,39.6 C54.0931024,39.6 59.6,34.0931024 59.6,27.3 C59.6,20.5068976 54.0931024,15 47.3,15 C40.5068976,15 35,20.5068976 35,27.3 C35,34.0931024 40.5068976,39.6 47.3,39.6 Z" id="Oval-33" fill="url(#linearGradient-2)"></path>
            </g>
        </g>
    </g>
</svg>