<svg class="icon" width="200" height="200" viewBox="0 0 1024 1024" version="1.1" xmlns="http://www.w3.org/2000/svg"><title>13</title><g class="nc-icon-wrapper"><path d="M790.4 286.17c-28.24-98.68-119.12-170.92-226.88-170.92-110 0-202.49 75.33-228.6 177.23a211.72 211.72 0 0 0-21.48-1.1c-115 0-208.31 93.27-208.31 208.31S198.39 708 313.44 708h443.14c117.23 0 212.26-95 212.26-212.26 0-105.74-77.29-193.37-178.44-209.57z" fill="#CEE9F4"/><path d="M706.58 694H516a16 16 0 0 1 0-32h190.58c108.22 0 196.26-88 196.26-196.26 0-97-69.38-178.46-165-193.77A16 16 0 0 1 725 260.58c-26.85-93.81-113.82-159.33-211.5-159.33a219.8 219.8 0 0 0-213.1 165.2 16 16 0 0 1-17.13 11.95 196.18 196.18 0 0 0-19.85-1c-106 0-192.31 86.27-192.31 192.31S157.4 662 263.44 662h26.4a16 16 0 0 1 0 32h-26.4a224.31 224.31 0 0 1 0-448.62q4.81 0 9.66.21a252.06 252.06 0 0 1 479.73-3.4A228.27 228.27 0 0 1 706.58 694z"/><path d="M486 758.9c0 55.72-30.91 77.3-69 77.3s-69-21.58-69-77.3 69-124.49 69-124.49 69 68.77 69 124.49z" fill="#F7D134"/><path d="M404 820.59c-22.35 0-41.18-6.93-54.44-20.06-15-14.83-22.6-36.78-22.6-65.23 0-58.37 68.48-127.26 71.39-130.16a8 8 0 0 1 11.29 0C412.55 608 481 676.93 481 735.3c0 28.45-7.6 50.4-22.59 65.23-13.25 13.13-32.08 20.06-54.41 20.06zm0-198.16c-16.1 17.5-61 70.19-61 112.87 0 57.27 33.19 69.29 61 69.29s61-12 61-69.29c0-42.74-44.91-95.38-61-112.87z"/><path d="M698 899c0 68.64-38.07 95.21-85 95.21s-85-26.57-85-95.21 85-153.34 85-153.34 85 84.7 85 153.34z" fill="#F7D134"/><path d="M597 977.13c-28.1 0-51.81-8.76-68.56-25.34-18.91-18.68-28.44-46.23-28.44-81.87 0-72.78 84.95-158.24 88.56-161.84a12 12 0 0 1 16.94 0c3.62 3.6 88.56 89.06 88.56 161.84 0 35.64-9.58 63.19-28.46 81.87-16.81 16.58-40.52 25.34-68.6 25.34zm0-243.06c-20.86 22.94-73 85.35-73 135.85 0 68.77 39.72 83.21 73 83.21s73-14.44 73-83.21c0-50.5-52.15-112.92-73-135.85z"/></g></svg>