<?xml version="1.0" encoding="UTF-8" standalone="no"?>
<svg width="48px" height="48px" viewBox="0 0 48 48" version="1.1" xmlns="http://www.w3.org/2000/svg" xmlns:xlink="http://www.w3.org/1999/xlink">
    <!-- Generator: Sketch 3.8.3 (29802) - http://www.bohemiancoding.com/sketch -->
    <title>Artboard 10</title>
    <desc>Created with Sketch.</desc>
    <defs></defs>
    <g id="Mockup" stroke="none" stroke-width="1" fill="none" fill-rule="evenodd">
        <g id="Artboard-10" fill="#FFFFFF">
            <path d="M22.8912606,23.9997989 L16.3346732,30.555192 C15.9512773,30.9398831 15.8878098,31.4994339 16.1934903,31.8051144 C16.4991708,32.1120901 17.0587215,32.0486225 17.4434126,31.6639314 L23.999899,25.1086393 L30.5552921,31.6652267 C30.9399833,32.0486225 31.499534,32.1120901 31.8052145,31.8064096 C32.1121902,31.5007291 32.0487227,30.9411784 31.6640315,30.5564873 L25.1081422,24.0005979 L31.6653268,17.4446077 C32.0487227,17.0599166 32.1121902,16.5003659 31.8065097,16.1946854 C31.5008292,15.8877097 30.9412785,15.9511772 30.5565874,16.3358683 L23.9994028,22.8918586 L17.4434126,16.3358683 C17.0600167,15.9511772 16.500466,15.8877097 16.1934903,16.1933902 C15.8878098,16.5003659 15.9512773,17.0599166 16.3359685,17.4433125 L22.8912606,23.9997989 Z" id="Shape"></path>
        </g>
    </g>
</svg>