<?xml version="1.0" standalone="no"?>
<!DOCTYPE svg PUBLIC "-//W3C//DTD SVG 1.1//EN" "http://www.w3.org/Graphics/SVG/1.1/DTD/svg11.dtd" >
<svg xmlns="http://www.w3.org/2000/svg">
<metadata>
Created by FontForge 20120731 at Fri Aug 19 12:39:53 2016
 By admin
</metadata>
<defs>
<font id="iconfont" horiz-adv-x="1024" >
  <font-face 
    font-family="iconfont"
    font-weight="500"
    font-stretch="normal"
    units-per-em="1024"
    panose-1="2 0 6 3 0 0 0 0 0 0"
    ascent="896"
    descent="-128"
    x-height="792"
    bbox="8 -82.0208 1016 841.769"
    underline-thickness="50"
    underline-position="-100"
    unicode-range="U+0078-E638"
  />
<missing-glyph horiz-adv-x="374" 
d="M34 0v682h272v-682h-272zM68 34h204v614h-204v-614z" />
    <glyph glyph-name=".notdef" horiz-adv-x="374" 
d="M34 0v682h272v-682h-272zM68 34h204v614h-204v-614z" />
    <glyph glyph-name=".null" horiz-adv-x="0" 
 />
    <glyph glyph-name="nonmarkingreturn" horiz-adv-x="341" 
 />
    <glyph glyph-name="x" unicode="x" horiz-adv-x="1001" 
d="M281 543q-27 -1 -53 -1h-83q-18 0 -36.5 -6t-32.5 -18.5t-23 -32t-9 -45.5v-76h912v41q0 16 -0.5 30t-0.5 18q0 13 -5 29t-17 29.5t-31.5 22.5t-49.5 9h-133v-97h-438v97zM955 310v-52q0 -23 0.5 -52t0.5 -58t-10.5 -47.5t-26 -30t-33 -16t-31.5 -4.5q-14 -1 -29.5 -0.5
t-29.5 0.5h-32l-45 128h-439l-44 -128h-29h-34q-20 0 -45 1q-25 0 -41 9.5t-25.5 23t-13.5 29.5t-4 30v167h911zM163 247q-12 0 -21 -8.5t-9 -21.5t9 -21.5t21 -8.5q13 0 22 8.5t9 21.5t-9 21.5t-22 8.5zM316 123q-8 -26 -14 -48q-5 -19 -10.5 -37t-7.5 -25t-3 -15t1 -14.5
t9.5 -10.5t21.5 -4h37h67h81h80h64h36q23 0 34 12t2 38q-5 13 -9.5 30.5t-9.5 34.5q-5 19 -11 39h-368zM336 498v228q0 11 2.5 23t10 21.5t20.5 15.5t34 6h188q31 0 51.5 -14.5t20.5 -52.5v-227h-327z" />
    <glyph glyph-name="uniE604" unicode="&#xe604;" 
d="M909 583q7 -2 20 11q4 6 11.5 12t13.5 6q2 0 2 -7.5t3 -9.5l2 -3q2 -2 1 -2q-1 -5 -3 -24t0 -20q-1 -7 -3 -9q-1 -2 -3.5 -2t-6.5 0.5t-5 0.5q0 -1 -3 -3t-4 -4q-2 -6 6 -20.5t6 -20.5q0 -2 -3 -14q-1 -2 -3 -3l-2 1h-4l-2 1q-1 1 -1.5 4t-0.5 4.5t-1 1.5t-3 -2l-1 -1
q-2 -13 -7 -16q-2 -2 -9 -2v-1q-1 0 -1 -2q5 -3 4 -7q1 -3 -2 -6t-4 -2q-3 0 -8.5 2t-8.5 2v-1q-1 0 -2.5 -4t-2.5 -4q-1 -4 -5.5 -9.5t-4.5 -6.5h-1q-2 -1 -10 -8q0 -1 -1.5 -5t-1.5 -6q-3 -2 -14.5 -6.5t-16.5 -14.5q0 -3 -4 -11h-6h-6q-1 3 1.5 6.5t5.5 3.5l-2 4l-3 4.5
t1 2.5v1q0 3 3.5 7.5t2.5 9.5q-2 9 -11 5l-16 -20l-16 -19q-1 -1 -17 -5q-3 -3 -3.5 -7.5t3.5 -7.5q0 -1 1.5 -3.5t1.5 -4.5l7 1q6 2 9 1q2 -6 2 -10q4 -6 8 -7h1q2 0 7.5 8.5t13.5 8.5q3 1 9 -1t9 -1q5 1 10 -2q0 -9 -2 -9q0 -1 -8 -4l-8 -4q1 -1 -6 -8.5t-9 -6.5
q0 -1 -1.5 -3t-2.5 -4l-1 -2q-2 -2 -2 -3h-1q-2 -7 -2 -14v-1h1q0 -1 1 -2h1q12 -2 20 -20.5t10 -19.5v-1q3 -2 9.5 -6t8.5 -6q5 -2 -3 -4q-4 -2 -5 -2q10 -6 13 -13h-1q0 -4 -4.5 -8t-10.5 -7.5t-7 -4.5v-1h6q4 7 24 -1q0 -2 -4.5 -5.5t-4.5 -5.5l2 1q4 3 5 2q0 -1 1 -2
q1 -4 0 -5q-2 -2 -4 -2t-3 -1q0 -2 2.5 -9.5t1 -10.5t-8.5 -3q-6 -11 -7 -21q-2 -2 -3.5 -7t-3.5 -7q-6 0 -7 -1q0 -3 7 -5q0 -1 -3 -3t-2 -5q1 -11 0 -12q-5 -1 -5.5 -6t-4.5 -6q-1 -4 -6 -6t-6 -2q0 -1 -3 -6.5t-6.5 -10t-5.5 -4.5q-14 -5 -14 -9v-2v-2q-1 0 -9 -5.5
t-13.5 -7.5t-10.5 0q-3 0 -6 -5t-5 -5q-2 -1 -5.5 2t-3.5 5q-3 2 -4 -2l-1 -1q-1 -6 -9 -11.5t-14 -5.5q-2 0 -11 -1.5t-16 -3.5t-7 -5q0 -7 -5 -7q-1 -2 0 -5q2 0 4 -1q1 -2 0 -7q-3 -2 -9 -1q-1 0 -2.5 2t-3 4.5t-1.5 3.5q-3 3 -3 4.5t1.5 4.5t1.5 4h-1q-1 0 -4.5 -1.5
t-6.5 -1.5l-1 2q-8 9 -8 4q5 -2 0 -3q0 -1 -16 1q-6 0 -14.5 3.5t-7.5 9.5q0 1 1 5t1 5h-1q-1 1 -1 2q-19 1 -19 3q-2 0 -2.5 2t-1.5 3q-2 1 -5 -1q-6 -9 -10 -9v-1q-6 0 -8 -1q0 -3 -9 -3l-2 1q-1 1 -1 2q-7 0 -7 -2q-3 -1 -7 1t-6 2q-3 -5 -5 -5q0 -1 -4.5 0t-5.5 1
q-1 -1 -1 -5q3 -3 2 -12q2 0 2 -5v-6q-1 -2 -6 -2v1q-8 1 -8 11q0 1 -2 4q-3 0 -5 -2.5t-4 -2.5q-1 0 -2.5 0.5t-2.5 0.5q0 2 -2.5 5t-4.5 5l-3 2q-1 0 -3.5 -0.5t-2.5 0.5q-2 0 -3 3h-1q0 2 0.5 9t-0.5 8q-5 2 -6 3t-3.5 8.5t-3.5 9.5q-3 2 -7 -0.5t-6 -2.5v-1q-2 1 -3 2
t-1 4v5q-1 2 3 17q0 1 2.5 3.5t6 4.5t4.5 3q1 0 1 1q2 1 4.5 16t0.5 18q0 1 -3.5 3t-3.5 3q-1 1 -1 2l-1 1q0 5 -5 12q-5 1 -6 -1q-2 0 -2.5 -5.5t-3.5 -6.5q-1 0 -3 1.5t-4.5 4t-3.5 2.5q-2 0 -7 3t-7 4v-1q-4 0 -10 -8q-5 0 -14 -7t-13 -8q-4 -3 -16 -4t-17 4l1 11
q-5 4 -5 8h-3l-4 2h-2q-3 1 -9 6t-10 5q0 1 -4 -1l-6 -2q-4 -2 -5 -3v-9q-5 -2 -9 -1q-3 0 -2 8l2 8q-5 3 -12 0q-2 0 -5 -2t-5 -1q-4 1 -10 8q-3 0 -15 1q-2 1 -12 15q-1 1 -5 1.5t-5 2.5q-1 1 -2 1q-4 6 -4 15q-1 1 -5.5 1t-5.5 2q-1 0 -3 3t-2 4q-1 1 -5 3t-5 4q0 1 -2 4
t-4 5t-2 3q-1 -1 -6 -2t-7 -1t-5.5 1t-5.5 4q-2 2 -2 10q-3 2 -7 6.5t-7.5 6.5t-8.5 2q-1 0 -3 2q1 7 3 8v1q2 1 2 4.5v8.5l-1 6q0 4 1 6q2 0 5.5 -2t5.5 -2q0 1 0.5 1.5t0.5 1.5q0 3 -0.5 7t-1.5 8t-1 7h-1q-1 3 2 7.5t3 6.5t-2 4q-11 2 -7 15q2 5 -8.5 13.5t-13.5 5.5
l-3 3q0 1 1.5 8t0.5 9q-8 4 -15 11v1q-3 4 -0.5 7.5t6.5 4.5q2 3 2 18h-1q0 3 -1.5 4t-5 0t-4.5 -1q-5 4 -3 10q3 0 4 2.5t0 4.5t-2 2t1 1.5t4 3.5t2 4q1 0 13.5 6.5t18.5 4.5q3 0 4 -4.5t6 -4.5q14 11 36 11q1 1 5.5 1.5t8.5 1t4 1.5q6 3 5 8q1 0 9 9l7 10q3 13 0 24
q2 6 0 8q-4 4 2 4q7 2 18 -0.5t15 -2.5q1 1 1.5 8.5t7.5 11.5q6 10 7 15h1q1 1 6 1q0 -4 11.5 -6.5t14.5 -2.5q4 0 5 5v3v6v4h1q1 4 4 5.5t9 2.5t7 2q1 0 3.5 4.5t6.5 4.5q3 1 6 -0.5t3 -4.5q0 -1 1 -3.5t1 -3.5q-1 -2 6.5 -8t9.5 -6q8 -2 9 -6q0 -13 4 -16q0 -1 1 -4.5
t1.5 -6t0 -5t-3.5 -4.5v-1q-9 -9 -1 -17q2 -2 15 -5q4 1 26.5 -10t21.5 -18q0 -11 6 -14v-1q0 -8 1 -8q1 -1 2 -1v-1q3 0 8.5 -1t8.5 -1q17 -5 18 -5v-1q6 0 17 0.5t16 0.5q6 -1 14 -7.5t12 -7.5q3 3 7.5 1t6.5 -5q3 0 5.5 -1t5.5 -3.5t4 -3.5t3 -1q2 3 26.5 12t24.5 12v0
q4 2 13.5 -0.5t14.5 -1.5q1 5 13 15q0 1 5.5 5.5t8.5 7.5t3 4q-8 28 3 28v-1h1q16 -10 16 -6q3 0 8.5 6t6.5 10q17 3 18 6q2 1 4 4.5t3 6t2 2.5q2 3 10 5h1q6 7 10 7q0 1 5 1.5t10.5 0.5t6.5 1q0 1 -1 3v3q-2 7 -19 17q-1 0 -3.5 -2t-4.5 -2q-1 -1 -2 -3t-2 -3q-2 0 -8 1.5
t-8 1.5t-6.5 -2t-8.5 -2q-2 5 -2 6q6 7 5 10q0 2 5 25v1q2 2 4 2q20 0 26 7q1 1 1 2q0 2 2 8.5t2 9.5q0 4 2.5 9l4.5 9l2 3q3 7 -8 13q0 2 -1 2q1 6 5 9q5 1 12 4q2 3 10 6t13 3q2 1 6 -1t6 -2q11 1 17 -2h1v0q1 -1 5.5 -6.5t10 -12t5.5 -8.5h1v-1l1 -1q9 -9 10 -9v-1
q0 -6 6 -10q0 -1 1 -1q2 -8 3 -8l1 -1h15q0 -1 2.5 -1t4.5 0.5t4 -0.5l1 -1q2 -1 3 -1q0 -4 12 -7q0 -4 4 -10.5t8 -6.5v0zM839 40l1 15q0 4 2 8t2 6q0 12 11 22q1 1 4.5 1.5t4.5 0.5q6 -1 7 -3t-0.5 -6t-1.5 -6q0 -1 1 -12.5t0 -12.5q0 -2 -1.5 -4.5t-1.5 -3.5
q-1 0 -4.5 -2.5t-3.5 -4.5q-1 -2 -1.5 -8.5t-4.5 -11.5v0q0 2 -2.5 4.5t-2.5 3.5q-8 10 -9 14v0zM634 -40q3 0 10 2t11.5 3t10 -0.5t6.5 -4.5q1 -1 0 -3.5t-3.5 -7.5t-3.5 -11h-1q-1 -3 -6 -6.5t-9.5 -5t-4.5 -0.5h-1q-2 -1 -8.5 1.5t-6.5 4.5q-3 11 1.5 17t4.5 11v0z
M634 -40z" />
    <glyph glyph-name="uniE625" unicode="&#xe625;" 
d="M806 529q13 -14 15.5 -35.5t-6.5 -37.5l-280 -478q-9 -16 -23 -16t-23 16l-280 478q-9 16 -6.5 37.5t15.5 35.5l262 276q13 13 32 13t32 -13zM516 749v-344l248 78zM516 55v350l-252 77z" />
    <glyph glyph-name="uniE626" unicode="&#xe626;" 
d="M360 89q-48 24 -87 58q-88 71 -112 174q-13 46 -13 94q0 101 55 187t150.5 135.5t207.5 49.5q119 0 217.5 -55.5t150.5 -147.5q-49 47 -116 73.5t-142 26.5h-8q48 -24 87 -59q88 -70 112 -174q13 -45 13 -93q0 -101 -55.5 -187t-150.5 -136t-208 -50q-118 0 -217 55.5
t-151 147.5q50 -47 117 -73t142 -26h8v0zM516 244q61 0 104.5 43.5t43.5 104.5t-43.5 104t-104.5 43t-104 -43t-43 -104t43 -104.5t104 -43.5z" />
    <glyph glyph-name="uniE628" unicode="&#xe628;" 
d="M145 589q87 43 172 43t172 -43q106 -53 213.5 -53t213.5 53q17 9 23 27t-2.5 35.5t-27 23.5t-35.5 -3q-86 -43 -171.5 -43t-172.5 43q-106 53 -213.5 53t-213.5 -53q-17 -8 -23 -26.5t2.5 -35.5t27 -23.5t35.5 2.5v0zM874 509q-86 -43 -171.5 -43t-172.5 43
q-106 53 -213.5 53t-213.5 -53q-17 -8 -23 -26.5t2.5 -35.5t27 -23t35.5 2q87 43 172 43t172 -43q106 -53 213.5 -53t213.5 53q17 9 23 27t-2.5 35.5t-27 23.5t-35.5 -3v0zM874 347q-86 -44 -171.5 -44t-172.5 44q-106 53 -213.5 53t-213.5 -53q-17 -9 -23 -27.5t2.5 -35.5
t27 -23t35.5 2q87 43 172 43t172 -43q106 -53 213.5 -53t213.5 53q17 9 23 27.5t-2.5 35.5t-27 23t-35.5 -2v0zM874 184q-86 -43 -171.5 -43t-172.5 43q-106 53 -213.5 53t-213.5 -53q-17 -9 -23 -27.5t2.5 -35.5t27 -23t35.5 2q87 44 172 44t172 -44q106 -53 213.5 -53
t213.5 53q17 9 23 27.5t-2.5 35.5t-27 23t-35.5 -2v0z" />
    <glyph glyph-name="uniE629" unicode="&#xe629;" 
d="M453 831q-5 5 -13 8q-15 6 -29.5 -1t-20.5 -22l-315 -846q-5 -15 1.5 -29.5t21.5 -20t30 1t20 21.5l167 448l604 172q21 6 22.5 28t-18.5 31z" />
    <glyph glyph-name="uniE62A" unicode="&#xe62a;" 
d="M482 738l47 -48v82h46v-82l58 58l32 -33l-90 -91v-169l145 84l33 124l45 -12l-21 -79l70 41l24 -41l-71 -41l78 -21l-11 -45l-123 33l-146 -84l145 -85l123 34l12 -46l-78 -21l70 -41l-23 -41l-70 41l21 -79l-45 -12l-33 124l-145 85v-149l90 -90l-33 -33l-57 57v-102
h-37q13 39 13 80q0 55 -22 105v132l-46 -26v54l22 13l-22 12v55l46 -27v170l-46 45v42q0 14 -1 27zM437 274v437q0 45 -31.5 76t-75.5 31t-75.5 -31t-31.5 -76v-437q-32 -25 -50 -61t-18 -77q0 -72 51.5 -123t123.5 -51t123.5 51t51.5 123q0 41 -18 77t-50 61zM330 3
q-55 0 -94 39t-39 94q0 33 15.5 62.5t42.5 47.5q10 6 10 18v447q0 27 19 46t46 19t46 -19t19 -46v-447q0 -12 9 -18q28 -18 43.5 -47.5t15.5 -62.5q0 -55 -39 -94t-94 -39zM354 226v105q0 9 -6 15.5t-15.5 6.5t-16 -6.5t-6.5 -15.5v-106q-27 -7 -44.5 -30t-17.5 -52
q0 -36 25.5 -61t61 -25t60.5 25t25 61q0 30 -18.5 53.5t-47.5 29.5z" />
    <glyph glyph-name="uniE62B" unicode="&#xe62b;" 
d="M291 99h-171q-18 0 -30 -12.5t-12 -30t12 -30t30 -12.5h784q18 0 30 12.5t12 30t-12 30t-30 12.5h-113q0 1 -1 2l-124 208l123 192q13 20 1 41l-121 196q-8 14 -24 17.5t-29.5 -5t-17 -24t4.5 -29.5l108 -175l-124 -191q-13 -21 0 -41l114 -191h-115q-1 1 -1 2l-125 208
l124 192q13 20 0 41l-120 196q-9 14 -24.5 17.5t-29 -5t-17.5 -24t5 -29.5l108 -175l-124 -191q-13 -21 -1 -41l115 -191h-115q-1 1 -1 2l-125 208l124 192q13 20 0 41l-120 196q-9 14 -24.5 17.5t-29 -5t-17.5 -24t5 -29.5l108 -174l-124 -192q-13 -21 -1 -41z" />
    <glyph glyph-name="uniE62C" unicode="&#xe62c;" 
d="M345 734q-14 0 -23.5 -10t-9.5 -24.5t9.5 -24.5t23.5 -10t23.5 10t9.5 24.5t-9.5 24.5t-23.5 10zM513 110l9 -5h-17l8 5l-373 243h-57l422 -274l8 -6l8 6l434 273l-57 1zM513 -14l9 -5h-17l8 5l-373 242h-57l422 -273l8 -6l8 6l434 273h-57zM434 593q0 70 50 120t121 50
q68 0 117 -46l-23 -21q-40 36 -94 36q-58 0 -99 -40.5t-41 -98.5t41 -99t99 -41q35 0 64.5 15.5t49.5 42.5l22 -22q-24 -31 -59.5 -49t-76.5 -18q-71 0 -121 50t-50 121zM345 633q-27 0 -45.5 19t-18.5 46t18.5 46t45 19t45.5 -19t19 -46t-19 -46t-45 -19zM946 470h-130v364
h-608v-364h-130l434 -276z" />
    <glyph glyph-name="uniE62D" unicode="&#xe62d;" 
d="M786 255h-549v0q-66 0 -112.5 46.5t-46.5 112.5q0 50 28 90t73 58q1 52 39 89t91 37q16 0 32 -4q34 61 95 97.5t133 36.5q106 0 181.5 -73t78.5 -179q51 -14 83.5 -56t32.5 -96q0 -66 -46.5 -112.5t-112.5 -46.5zM225 154l-77 -158q-6 -12 -1.5 -24t16 -17.5t23.5 -1.5
t18 16l77 158q5 11 1 23t-15.5 18t-24 1.5t-17.5 -15.5zM392 154l-76 -158q-6 -12 -1.5 -24t16 -17.5t23.5 -1.5t18 16l76 158q6 11 1.5 23t-16 18t-23.5 1.5t-18 -15.5zM560 154l-77 -158q-5 -12 -1 -24t15.5 -17.5t24 -1.5t17.5 16l77 158q5 11 1 23t-15.5 18t-23.5 1.5
t-18 -15.5zM728 154l-77 -158q-6 -12 -1.5 -24t16 -17.5t23.5 -1.5t18 16l77 158q5 11 1 23t-15.5 18t-24 1.5t-17.5 -15.5z" />
    <glyph glyph-name="uniE62E" unicode="&#xe62e;" 
d="M512 487l-150 260q-10 18 -30 23t-37.5 -5t-22.5 -29.5t5 -37.5l150 -260h-300q-21 0 -35 -14.5t-14 -34.5t14 -34.5t35 -14.5h300l-150 -260q-10 -18 -5 -37.5t22.5 -29.5t37.5 -5t30 23l150 260l150 -260q10 -18 30 -23t37.5 5t22.5 29.5t-5 37.5l-150 260h300
q21 0 35 14.5t14 34.5t-14 34.5t-35 14.5h-300l150 260q10 18 5 37.5t-22.5 29.5t-37.5 5t-30 -23z" />
    <glyph glyph-name="uniE62F" unicode="&#xe62f;" 
d="M42 495q-14 0 -24 -10t-10 -24t10 -24t24.5 -10t24.5 10t10 24t-10 24t-25 10v0zM42 479q8 0 13.5 -5t5.5 -13t-5.5 -13.5t-13.5 -5.5t-13.5 5.5t-5.5 13.5t5.5 13t13.5 5v0zM105 340q-14 0 -24.5 -10t-10.5 -24t10.5 -24t24.5 -10t24.5 10t10.5 24t-10.5 24t-24.5 10v0z
M105 324q8 0 13.5 -5t5.5 -13t-5.5 -13.5t-13.5 -5.5t-13.5 5.5t-5.5 13.5t5.5 13t13.5 5v0zM221 576q15 0 25 10t10 24.5t-10 24.5t-24.5 10t-24.5 -10t-10 -24.5t10 -24.5t24 -10v0zM221 592q-8 0 -13.5 5.5t-5.5 13t5.5 13t13.5 5.5t13.5 -5.5t5.5 -13t-5.5 -13
t-13.5 -5.5v0zM437 610q0 -14 10 -24t24.5 -10t24.5 10t10 24.5t-10 24.5t-24.5 10t-24.5 -10t-10 -25v0zM453 610q0 8 5.5 13.5t13.5 5.5t13.5 -5.5t5.5 -13t-5.5 -13t-13.5 -5.5t-13.5 5.5t-5.5 12.5v0zM202 461q0 14 -10 24t-24.5 10t-24.5 -10t-10 -24t10 -24t24.5 -10
t24.5 10t10 24v0zM187 461q0 -8 -6 -13.5t-13.5 -5.5t-13 5.5t-5.5 13.5t5.5 13t13 5t13.5 -5t6 -13v0zM312 610q0 -14 10 -24t24.5 -10t24.5 10t10 24.5t-10 24.5t-24.5 10t-24.5 -10t-10 -25v0zM327 610q0 8 6 13.5t13.5 5.5t13.5 -5.5t6 -13t-6 -13t-13.5 -5.5t-13.5 5.5
t-6 12.5v0zM562 610q0 -14 10.5 -24t24.5 -10t24.5 10t10.5 24.5t-10.5 24.5t-24.5 10t-24.5 -10t-10.5 -25v0zM578 610q0 8 5.5 13.5t13.5 5.5t13.5 -5.5t5.5 -13t-5.5 -13t-13.5 -5.5t-13.5 5.5t-5.5 12.5v0zM785 427q51 0 87.5 35.5t36.5 86t-36.5 86.5t-87.5 36
q-49 0 -85 -33l-6 -5l6 -6l1 -1l5 6l-4 6q-14 -10 -14 -28q0 -14 10 -24t24 -10q19 0 29 15l-1 -1q15 13 35 13q23 0 39 -16t16 -38q0 -20 -13.5 -35.5t-33.5 -17.5l-7 -1v-7v-1h8v8h-403h-107h-8v-8v-1h8l-3 7q-23 -8 -23 -32t23 -32l3 7h-8v-2v-7h8h492h1h5h3v0zM785 442
h-3h-7h-491v-8h8v2v6l-6 1q-12 5 -12 18t12 17l6 2v6v1h-8v-8h107h403h8v8v1h-8l1 -8q26 4 43 23.5t17 45.5q0 29 -20.5 49t-49.5 20q-26 0 -45 -16l-2 -2q-6 -8 -16 -8q-8 0 -13.5 5.5t-5.5 12.5q0 10 8 15l7 6l-6 6l-1 1l-6 -6l6 -5q31 29 74 29q45 0 76.5 -31.5
t31.5 -75.5t-31.5 -75.5t-76.5 -31.5v0zM454 182q-14 0 -24.5 -10t-10.5 -24.5t10.5 -24.5t24.5 -10t24.5 10t10.5 24.5t-10.5 24.5t-24.5 10v0zM454 166q8 0 13.5 -5.5t5.5 -13t-5.5 -13t-13.5 -5.5t-13.5 5.5t-5.5 13t5.5 13t13.5 5.5v0zM704 182q-14 0 -24 -10t-10 -24.5
t10 -24.5t24.5 -10t24.5 10t10 24.5t-10 24.5t-25 10v0zM704 166q8 0 13.5 -5.5t5.5 -13t-5.5 -13t-13.5 -5.5t-13.5 5.5t-5.5 13t5.5 13t13.5 5.5v0zM579 182q-14 0 -24 -10t-10 -24.5t10 -24.5t24 -10t24.5 10t10.5 24.5t-10.5 24.5t-24.5 10v0zM579 166q8 0 13.5 -5.5
t5.5 -13t-5.5 -13t-13.5 -5.5t-13.5 5.5t-5.5 13t5.5 13t13.5 5.5v0zM203 182q-14 0 -24 -10t-10 -24.5t10 -24.5t24.5 -10t24.5 10t10 24.5t-10 24.5t-25 10v0zM203 166q8 0 14 -5.5t6 -13t-6 -13t-14 -5.5t-13.5 5.5t-5.5 13t5.5 13t13.5 5.5v0zM883 340h-393h-8v-8v-1h8
l2 7q-6 2 -11 2q-15 0 -25 -10t-10 -24t10 -24t25 -10q5 0 11 2l-2 7h-8v-1v-8h8h9h402v8h-8v-1v-7l7 -1q20 -3 33.5 -18t13.5 -35q0 -22 -16 -38t-39 -16q-20 0 -35 13l1 -2q-10 15 -28 15q-15 0 -25 -10t-10 -24q0 -18 15 -28l4 7l-5 5l-1 -1l-6 -5l6 -6q36 -32 84 -32
q52 0 88 35.5t36 86t-36 86.5t-88 36h-9v0v0zM884 324v0h8q45 0 77 -31t32 -75t-32 -75.5t-77 -31.5q-42 0 -73 28l-5 -5l5 -6l1 1l7 7l-8 5q-8 6 -8 15q0 8 5.5 13.5t13.5 5.5q10 0 16 -9l1 -1q20 -16 45 -16q29 0 50 20t21 49q0 26 -17.5 45.5t-43.5 22.5l-1 -7h8v1v7h-8
h-402h-9v-7h7v1v11l-10 -4q-3 -1 -6 -1q-8 0 -13.5 5.5t-5.5 13.5t5.5 13t13.5 5q3 0 6 -1l10 -3v11v1h-7v-8h393h1zM230 340q-14 0 -24 -10t-10 -24t10 -24t24.5 -10t24.5 10t10 24t-10 24t-25 10v0zM230 324q8 0 13.5 -5t5.5 -13t-5.5 -13.5t-13.5 -5.5t-13.5 5.5
t-5.5 13.5t5.5 13t13.5 5v0zM356 340q-15 0 -25 -10t-10 -24t10 -24t24.5 -10t24.5 10t10 24t-10 24t-24 10v0zM356 324q7 0 13 -5t6 -13t-6 -13.5t-13.5 -5.5t-13.5 5.5t-6 13.5t6 13t14 5v0zM329 182q-15 0 -25 -10t-10 -24.5t10 -24.5t24.5 -10t24.5 10t10 24.5t-10 24.5
t-24 10v0zM42 487q-11 0 -18.5 -7.5t-7.5 -18.5t7.5 -19t18.5 -8t19 8t8 19t-8 18.5t-19 7.5zM105 332q-11 0 -19 -7.5t-8 -18.5t8 -18.5t19 -7.5t19 7.5t8 18.5t-8 18.5t-19 7.5zM221 584q11 0 19 8t8 18.5t-8 18.5t-19 8t-19 -8t-8 -18.5t8 -18.5t19 -8zM445 610
q0 -10 8 -18t19 -8t18.5 8t7.5 18.5t-7.5 18.5t-18.5 8t-19 -8t-8 -19zM194 461q0 11 -7.5 18.5t-19 7.5t-19 -7.5t-7.5 -18.5t7.5 -19t19 -8t19 8t7.5 19zM320 610q0 -10 7.5 -18t19 -8t19 8t7.5 18.5t-7.5 18.5t-19 8t-19 -8t-7.5 -19zM570 610q0 -10 8 -18t19 -8t19 8
t8 18.5t-8 18.5t-19 8t-19 -8t-8 -19zM901 549q0 47 -34 80.5t-82 33.5q-46 0 -80 -31h1q-11 -8 -11 -22q0 -10 8 -18t19 -8q15 0 23 12q17 14 40 14q26 0 44.5 -18t18.5 -43q0 -23 -15.5 -40.5t-38.5 -20.5v-1h-403h-107v-1q-18 -7 -18 -25.5t18 -24.5v-2h492h9q48 0 82 34
t34 81zM454 174q-11 0 -19 -8t-8 -18.5t8 -18.5t19 -8t19 8t8 18.5t-8 18.5t-19 8zM704 174q-11 0 -18.5 -8t-7.5 -18.5t7.5 -18.5t18.5 -8t19 8t8 18.5t-8 18.5t-19 8zM579 174q-11 0 -19 -8t-8 -18.5t8 -18.5t19 -8t19 8t8 18.5t-8 18.5t-19 8zM203 174q-11 0 -19 -8
t-8 -18.5t8 -18.5t19.5 -8t19 8t7.5 18.5t-7.5 18.5t-19.5 8zM883 332h-393v-1q-5 1 -9 1q-11 0 -19 -7.5t-8 -18.5t8 -18.5t19 -7.5q4 0 9 1v-1h9h402v-1q23 -3 38.5 -20.5t15.5 -40.5q0 -26 -18.5 -44t-44.5 -18q-23 0 -40 15q-8 12 -22 12q-11 0 -19 -8t-8 -19
q0 -14 11 -21v-1q33 -31 78 -31q48 0 82 33.5t34 81t-34 81t-82 33.5h-9zM230 332q-11 0 -19 -7.5t-8 -18.5t8 -18.5t19 -7.5t19 7.5t8 18.5t-8 18.5t-19 7.5zM356 332q-12 0 -19.5 -7.5t-7.5 -18.5t7.5 -18.5t19 -7.5t19 7.5t7.5 18.5t-7.5 18.5t-18.5 7.5zM329 174
q-12 0 -19.5 -8t-7.5 -18.5t7.5 -18.5t19 -8t19.5 8t8 18.5t-8 18.5t-19 8z" />
    <glyph glyph-name="uniE630" unicode="&#xe630;" 
d="M667 593h-1q1 -4 1 -7v-123q0 -13 -9 -22t-22 -9t-22 9t-9 22v118h-2q-7 20 -29 20q-11 0 -20 -7t-11 -18v-301q0 -12 -9 -21.5t-22 -9.5t-22 9.5t-9 21.5v301h-1q-2 11 -10.5 18t-19.5 7q-21 0 -29 -20q-1 1 -2 1v-180q0 -13 -9 -22t-22 -9t-22 9t-9 22v184q0 4 1 7
q-1 0 -1 1v7q0 13 -9 22t-22 9q-23 0 -30 -21h-1v-80q0 -13 -9 -22t-22 -9t-22 9t-9 22v104l-22 10q-29 13 -56 29v-631q0 -20 -13.5 -33.5t-33 -13.5t-33 13.5t-13.5 33.5v682q0 20 13.5 33.5t33.5 13.5q23 0 37 -19l12 -8q37 -24 79 -44q335 -157 647 58q6 6 13 9l4 2
q7 2 14 2q20 0 33.5 -13.5t13.5 -33.5v-682q0 -20 -13.5 -33.5t-33 -13.5t-33 13.5t-13.5 33.5v633q-39 -23 -78 -40v-4v-236q0 -12 -9 -21.5t-22 -9.5t-22 9.5t-9 21.5v215q-2 -1 -3 -1q-9 16 -28 16q-13 0 -22 -9t-9 -22v-2z" />
    <glyph glyph-name="uniE631" unicode="&#xe631;" 
d="M796 667q-6 47 -58 61l-268 71q-52 14 -81 -23l-83 -106q-20 3 -43 -9.5t-31 -39.5l-12 -160l29 -7l-10 -38q-4 -17 0.5 -31t15.5 -19.5t23 -6t23 9t16 26.5l10 38l351 -94l-10 -38q-10 -36 18 -51q26 -15 47 6q9 9 13 24l10 38l29 -8l69 144q7 28 -7 50.5t-32 29.5z
M341 527q-18 5 -27.5 20.5t-5 32.5t20.5 25.5t34.5 4t28 -20t5 -32.5t-20.5 -26t-35 -4v0zM358 670l65 84q14 21 36 15l276 -74q21 -6 23 -31l14 -106l-414 112v0zM713 428q-18 5 -28 20.5t-5.5 32.5t21 25.5t34.5 3.5t28 -20.5t5 -32.5t-21 -25.5t-34 -3.5zM244 307l68 -75
l-188 -63l258 -183l112 57l-244 127l167 53l-142 90zM664 241l60 -67l-166 -55l255 -163l99 51l-243 112l148 47l-126 80z" />
    <glyph glyph-name="uniE632" unicode="&#xe632;" 
d="M763 807h-320l-167 -450h167l5 7l-154 -395l445 543h-186z" />
    <glyph glyph-name="uniE633" unicode="&#xe633;" 
d="M722 570q-43 0 -81 -15.5t-65 -41t-44.5 -48t-31.5 -47.5q-13 25 -30.5 47.5t-44.5 48t-65 41t-81 15.5q-92 0 -146.5 -53t-54.5 -143t55.5 -144t148.5 -54q42 0 79.5 15.5t64.5 41.5t44 49t30 49q14 -26 31 -49t44 -49t64.5 -41.5t79.5 -15.5q93 0 148.5 54t55.5 144
t-54.5 143t-146.5 53zM500.5 680q15.5 0 26.5 11t11 27t-11 27t-26.5 11t-27 -11t-11.5 -27t11.5 -27t27 -11zM881.5 680q15.5 0 27 11t11.5 27t-11.5 27t-27 11t-27 -11t-11.5 -27t11.5 -27t27 -11zM147 680q16 0 27 11t11 27t-11 27t-27 11t-27 -11t-11 -27t11 -27t27 -11
zM497.5 89q-15.5 0 -27 -11t-11.5 -27t11.5 -27t27 -11t27 11t11.5 27t-11.5 27t-27 11zM878.5 89q-15.5 0 -27 -11t-11.5 -27t11.5 -27t27 -11t27 11t11.5 27t-11.5 27t-27 11zM147 89q-16 0 -27 -11t-11 -27t11 -27t27 -11t27 11t11 27t-11 27t-27 11zM285 242
q-65 0 -101.5 35t-36.5 97q0 61 36 95.5t99 34.5q29 0 55.5 -11.5t43.5 -26.5t32.5 -35.5t22.5 -32.5t12 -23q-5 -12 -11.5 -24.5t-21.5 -33t-32 -36.5t-43.5 -27.5t-54.5 -11.5zM716 243q-28 0 -54 12t-42.5 27.5t-31.5 36t-21.5 33t-11.5 23.5q5 11 11.5 23t22 32t32.5 35
t43 26.5t54 11.5q63 0 98.5 -34.5t35.5 -94.5q0 -61 -36 -96t-100 -35z" />
    <glyph glyph-name="uniE634" unicode="&#xe634;" 
d="M131 -12q-5 -2 -11 -2q-18 0 -30 12.5t-12 29.5v177q0 17 12 29.5t29.5 12.5t30 -12.5t12.5 -29.5v-129h700v129q0 17 12.5 29.5t30 12.5t29.5 -12.5t12 -29.5v-177q0 -17 -12 -29.5t-30 -12.5q-6 0 -11 2h-759h-3zM512 574l-113 195q-7 13 -22 17t-28 -3.5t-17 -22.5
t4 -28l112 -195h-225q-15 0 -26 -10.5t-11 -26t11 -26.5t26 -11h225l-112 -195q-8 -13 -4 -27.5t17 -22.5t28 -4t22 18l113 195l113 -195q7 -14 22 -18t28 4t17 22.5t-4 27.5l-112 195h225q15 0 26 11t11 26.5t-11 26t-26 10.5h-225l112 195q8 13 4 28t-17 22.5t-28 3.5
t-22 -17z" />
    <glyph glyph-name="uniE635" unicode="&#xe635;" 
d="M582 134q36 68 29 165q5 -3 12.5 -10t23 -31.5t21.5 -51.5t-4 -70.5t-42 -90.5q4 -1 10.5 -2t26.5 -1.5t38.5 2.5t43 14t45 29t39 51t28.5 77q15 73 4.5 130.5t-41 98.5t-67.5 64t-74 27l3 -3t10 -11t12.5 -16t11.5 -20.5t8.5 -25t1 -27.5t-8.5 -29q0 -1 -8 4.5t-21 16.5
t-29 27t-31.5 39t-28 50t-20 63.5t-6.5 75.5q-29 -18 -55 -51v-320q68 -72 68 -172v-2zM437 274v437q0 45 -31.5 76t-75.5 31t-75.5 -31t-31.5 -76v-437q-32 -25 -50 -61t-18 -77q0 -72 51.5 -123t123.5 -51t123.5 51t51.5 123q0 41 -18 77t-50 61zM330 3q-55 0 -94 39
t-39 94q0 33 15.5 62.5t42.5 47.5q10 6 10 18v447q0 27 19 46t46 19t46 -19t19 -46v-447q0 -12 9 -18q28 -18 43.5 -47.5t15.5 -62.5q0 -55 -39 -94t-94 -39zM354 703q0 9 -6 15.5t-15.5 6.5t-16 -6.5t-6.5 -15.5v-478q-27 -7 -44.5 -30t-17.5 -52q0 -36 25.5 -61t61 -25
t60.5 25t25 61q0 30 -18.5 53.5t-47.5 29.5v477z" />
    <glyph glyph-name="uniE637" unicode="&#xe637;" 
d="M512 27q97 0 179 48t130 130t48 179t-48 179t-130 130t-179 48t-179 -48t-130 -130t-48 -179t48 -179t130 -130t179 -48z" />
    <glyph glyph-name="uniE638" unicode="&#xe638;" 
d="M531 62q24 0 41.5 16.5t17.5 39.5t-17.5 39.5t-41.5 16.5t-41.5 -16.5t-17.5 -39.5t17.5 -39.5t41.5 -16.5zM513 706q-28 0 -78 -10t-50 -18l87 -387q0 -8 17.5 -14.5t41.5 -6.5t41.5 6.5t17.5 14.5l58 387q3 13 -47.5 20.5t-87.5 7.5z" />
  </font>
</defs>
</svg>
