<?xml version="1.0" encoding="UTF-8" standalone="no"?>
<svg width="64px" height="64px" viewBox="0 0 64 64" version="1.1" xmlns="http://www.w3.org/2000/svg" xmlns:xlink="http://www.w3.org/1999/xlink">
    <!-- Generator: Sketch 3.8.3 (29802) - http://www.bohemiancoding.com/sketch -->
    <title>26</title>
    <desc>Created with Sketch.</desc>
    <defs></defs>
    <g id="天气图标" stroke="none" stroke-width="1" fill="none" fill-rule="evenodd">
        <g id="天气图标_黑色背景" transform="translate(-360.000000, -2318.000000)" fill="#E5C793">
            <path d="M372.615385,2371.23077 C372.615385,2372.42185 371.650462,2373.38462 370.461539,2373.38462 L366.153846,2373.38462 C364.964923,2373.38462 364,2372.42185 364,2371.23077 C364,2370.03969 364.964923,2369.07692 366.153846,2369.07692 L370.461538,2369.07692 C371.650462,2369.07692 372.615385,2370.03969 372.615385,2371.23077 L372.615385,2371.23077 Z M383.384615,2369.07692 L379.076923,2369.07692 C377.888,2369.07692 376.923077,2370.03969 376.923077,2371.23077 C376.923077,2372.42185 377.888,2373.38462 379.076923,2373.38462 L383.384615,2373.38462 C384.573539,2373.38462 385.538462,2372.42185 385.538462,2371.23077 C385.538462,2370.03969 384.573538,2369.07692 383.384615,2369.07692 L383.384615,2369.07692 Z M396.307692,2369.07692 L392,2369.07692 C390.811077,2369.07692 389.846154,2370.03969 389.846154,2371.23077 C389.846154,2372.42185 390.811077,2373.38462 392,2373.38462 L396.307692,2373.38462 C397.498769,2373.38462 398.461538,2372.42185 398.461538,2371.23077 C398.461538,2370.03969 397.498769,2369.07692 396.307692,2369.07692 L396.307692,2369.07692 Z M409.230769,2369.07692 L404.923077,2369.07692 C403.732,2369.07692 402.769231,2370.03969 402.769231,2371.23077 C402.769231,2372.42185 403.732,2373.38462 404.923077,2373.38462 L409.230769,2373.38462 C410.421846,2373.38462 411.384615,2372.42185 411.384615,2371.23077 C411.384615,2370.03969 410.421846,2369.07692 409.230769,2369.07692 L409.230769,2369.07692 Z M381.230769,2362.61538 C381.230769,2361.42431 380.265846,2360.46154 379.076923,2360.46154 L374.769231,2360.46154 C373.580308,2360.46154 372.615385,2361.42431 372.615385,2362.61538 C372.615385,2363.80646 373.580308,2364.76923 374.769231,2364.76923 L379.076923,2364.76923 C380.265846,2364.76923 381.230769,2363.80646 381.230769,2362.61538 L381.230769,2362.61538 Z M394.153846,2362.61538 C394.153846,2361.42431 393.188923,2360.46154 392,2360.46154 L387.692308,2360.46154 C386.503385,2360.46154 385.538462,2361.42431 385.538462,2362.61538 C385.538462,2363.80646 386.503385,2364.76923 387.692308,2364.76923 L392,2364.76923 C393.188923,2364.76923 394.153846,2363.80646 394.153846,2362.61538 L394.153846,2362.61538 Z M407.076923,2362.61538 C407.076923,2361.42431 406.114154,2360.46154 404.923077,2360.46154 L400.615385,2360.46154 C399.424308,2360.46154 398.461539,2361.42431 398.461539,2362.61538 C398.461539,2363.80646 399.424308,2364.76923 400.615385,2364.76923 L404.923077,2364.76923 C406.114154,2364.76923 407.076923,2363.80646 407.076923,2362.61538 L407.076923,2362.61538 Z M417.846154,2360.46154 L413.538462,2360.46154 C412.347385,2360.46154 411.384615,2361.42431 411.384615,2362.61538 C411.384615,2363.80646 412.347385,2364.76923 413.538462,2364.76923 L417.846154,2364.76923 C419.037231,2364.76923 420,2363.80646 420,2362.61538 C420,2361.42431 419.037231,2360.46154 417.846154,2360.46154 L417.846154,2360.46154 Z M366.153846,2356.15385 L370.461538,2356.15385 C371.650462,2356.15385 372.615385,2355.19108 372.615385,2354 C372.615385,2352.80892 371.650461,2351.84615 370.461538,2351.84615 L366.153846,2351.84615 C364.964923,2351.84615 364,2352.80892 364,2354 C364,2355.19108 364.964923,2356.15385 366.153846,2356.15385 L366.153846,2356.15385 Z M379.076923,2356.15385 L383.384615,2356.15385 C384.573539,2356.15385 385.538462,2355.19108 385.538462,2354 C385.538462,2352.80892 384.573538,2351.84615 383.384615,2351.84615 L379.076923,2351.84615 C377.888,2351.84615 376.923077,2352.80892 376.923077,2354 C376.923077,2355.19108 377.888,2356.15385 379.076923,2356.15385 L379.076923,2356.15385 Z M392,2356.15385 L396.307692,2356.15385 C397.498769,2356.15385 398.461538,2355.19108 398.461538,2354 C398.461538,2352.80892 397.498769,2351.84615 396.307692,2351.84615 L392,2351.84615 C390.811077,2351.84615 389.846154,2352.80892 389.846154,2354 C389.846154,2355.19108 390.811077,2356.15385 392,2356.15385 L392,2356.15385 Z M404.923077,2356.15385 L409.230769,2356.15385 C410.421846,2356.15385 411.384615,2355.19108 411.384615,2354 C411.384615,2352.80892 410.421846,2351.84615 409.230769,2351.84615 L404.923077,2351.84615 C403.732,2351.84615 402.769231,2352.80892 402.769231,2354 C402.769231,2355.19108 403.732,2356.15385 404.923077,2356.15385 L404.923077,2356.15385 Z M381.230769,2345.38462 C381.230769,2344.19569 380.265846,2343.23077 379.076923,2343.23077 L374.769231,2343.23077 C373.580308,2343.23077 372.615385,2344.19569 372.615385,2345.38462 C372.615385,2346.57354 373.580308,2347.53846 374.769231,2347.53846 L379.076923,2347.53846 C380.265846,2347.53846 381.230769,2346.57354 381.230769,2345.38462 L381.230769,2345.38462 Z M394.153846,2345.38462 C394.153846,2344.19569 393.188923,2343.23077 392,2343.23077 L387.692308,2343.23077 C386.503385,2343.23077 385.538462,2344.19569 385.538462,2345.38462 C385.538462,2346.57354 386.503385,2347.53846 387.692308,2347.53846 L392,2347.53846 C393.188923,2347.53846 394.153846,2346.57354 394.153846,2345.38462 L394.153846,2345.38462 Z M407.076923,2345.38462 C407.076923,2344.19569 406.114154,2343.23077 404.923077,2343.23077 L400.615385,2343.23077 C399.424308,2343.23077 398.461539,2344.19569 398.461539,2345.38462 C398.461539,2346.57354 399.424308,2347.53846 400.615385,2347.53846 L404.923077,2347.53846 C406.114154,2347.53846 407.076923,2346.57354 407.076923,2345.38462 L407.076923,2345.38462 Z M417.846154,2343.23077 L413.538462,2343.23077 C412.347385,2343.23077 411.384615,2344.19569 411.384615,2345.38462 C411.384615,2346.57354 412.347385,2347.53846 413.538462,2347.53846 L417.846154,2347.53846 C419.037231,2347.53846 420,2346.57354 420,2345.38462 C420,2344.19569 419.037231,2343.23077 417.846154,2343.23077 L417.846154,2343.23077 Z M366.153846,2338.92308 L370.461538,2338.92308 C371.650462,2338.92308 372.615385,2337.95815 372.615385,2336.76923 C372.615385,2335.58031 371.650462,2334.61538 370.461538,2334.61538 L366.153846,2334.61538 C364.964923,2334.61538 364,2335.58031 364,2336.76923 C364,2337.95815 364.964923,2338.92308 366.153846,2338.92308 L366.153846,2338.92308 Z M376.923077,2336.76923 C376.923077,2337.95815 377.888,2338.92308 379.076923,2338.92308 L383.384615,2338.92308 C384.573538,2338.92308 385.538461,2337.95815 385.538461,2336.76923 C385.538461,2335.58031 384.573538,2334.61538 383.384615,2334.61538 L379.076923,2334.61538 C377.888,2334.61538 376.923077,2335.58031 376.923077,2336.76923 L376.923077,2336.76923 Z M389.846154,2336.76923 C389.846154,2337.95815 390.811077,2338.92308 392,2338.92308 L396.307692,2338.92308 C397.498769,2338.92308 398.461538,2337.95815 398.461538,2336.76923 C398.461538,2335.58031 397.498769,2334.61538 396.307692,2334.61538 L392,2334.61538 C390.811077,2334.61538 389.846154,2335.58031 389.846154,2336.76923 L389.846154,2336.76923 Z M402.769231,2336.76923 C402.769231,2337.95815 403.732,2338.92308 404.923077,2338.92308 L409.230769,2338.92308 C410.421846,2338.92308 411.384615,2337.95815 411.384615,2336.76923 C411.384615,2335.58031 410.421846,2334.61538 409.230769,2334.61538 L404.923077,2334.61538 C403.732,2334.61538 402.769231,2335.58031 402.769231,2336.76923 L402.769231,2336.76923 Z M374.769231,2330.30769 L379.076923,2330.30769 C380.265846,2330.30769 381.230769,2329.34277 381.230769,2328.15385 C381.230769,2326.96492 380.265846,2326 379.076923,2326 L374.769231,2326 C373.580308,2326 372.615385,2326.96492 372.615385,2328.15385 C372.615385,2329.34277 373.580308,2330.30769 374.769231,2330.30769 L374.769231,2330.30769 Z M387.692308,2330.30769 L392,2330.30769 C393.188923,2330.30769 394.153846,2329.34277 394.153846,2328.15385 C394.153846,2326.96492 393.188923,2326 392,2326 L387.692308,2326 C386.503385,2326 385.538462,2326.96492 385.538462,2328.15385 C385.538462,2329.34277 386.503385,2330.30769 387.692308,2330.30769 L387.692308,2330.30769 Z M400.615385,2330.30769 L404.923077,2330.30769 C406.114154,2330.30769 407.076923,2329.34277 407.076923,2328.15385 C407.076923,2326.96492 406.114154,2326 404.923077,2326 L400.615385,2326 C399.424308,2326 398.461539,2326.96492 398.461539,2328.15385 C398.461539,2329.34277 399.424308,2330.30769 400.615385,2330.30769 L400.615385,2330.30769 Z M413.538462,2330.30769 L417.846154,2330.30769 C419.037231,2330.30769 420,2329.34277 420,2328.15385 C420,2326.96492 419.037231,2326 417.846154,2326 L413.538462,2326 C412.347385,2326 411.384615,2326.96492 411.384615,2328.15385 C411.384615,2329.34277 412.347385,2330.30769 413.538462,2330.30769 L413.538462,2330.30769 Z" id="Shape"></path>
        </g>
    </g>
</svg>