<?xml version="1.0" encoding="UTF-8" standalone="no"?>
<svg width="64px" height="64px" viewBox="0 0 64 64" version="1.1" xmlns="http://www.w3.org/2000/svg" xmlns:xlink="http://www.w3.org/1999/xlink">
    <!-- Generator: Sketch 3.8.3 (29802) - http://www.bohemiancoding.com/sketch -->
    <title>35</title>
    <desc>Created with Sketch.</desc>
    <defs></defs>
    <g id="天气图标" stroke="none" stroke-width="1" fill="none" fill-rule="evenodd">
        <g id="天气图标_黑色背景" transform="translate(-360.000000, -3072.000000)" fill="#B5B5B5">
            <path d="M393.336211,3129.69195 L387.960737,3129.69195 C387.318737,3129.69195 386.793928,3130.23969 386.793928,3130.91226 L386.793928,3132.30326 C386.793928,3132.97583 387.318737,3133.52102 387.960737,3133.52102 L393.336211,3133.52102 C393.978211,3133.52102 394.500473,3132.97583 394.500473,3132.30326 L394.500473,3130.91226 C394.500473,3130.23969 393.978211,3129.69195 393.336211,3129.69195 Z M411.348635,3111.12949 L386.580693,3111.12949 C385.938693,3111.12949 385.416431,3111.67468 385.416431,3112.34726 L385.416431,3113.73826 C385.416431,3114.41083 385.938693,3114.95856 386.580693,3114.95856 L411.348635,3114.95856 C411.990635,3114.95856 412.512896,3114.41083 412.512896,3113.73826 L412.512896,3112.34726 C412.512896,3111.67468 411.990635,3111.12949 411.348635,3111.12949 Z M363.156619,3078.46343 L363.161714,3077.82907 L420.355739,3077.82907 C420.997738,3077.82907 421.52,3077.28388 421.52,3076.61131 L421.52,3075.21776 C421.52,3074.54519 420.997738,3074 420.355739,3074 L363.164261,3074 C362.522262,3074 362,3074.54519 362,3075.21776 L362,3076.61131 C362,3076.93995 362.122286,3077.24821 362.346476,3077.48005 C362.563024,3077.70424 362.850904,3077.82907 363.156619,3077.82907 L363.156619,3078.46343 Z M402.342296,3120.40945 L388.381349,3120.40945 C387.739349,3120.40945 387.217088,3120.95464 387.217088,3121.62721 L387.217088,3123.01821 C387.217088,3123.69078 387.739349,3124.23852 388.381349,3124.23852 L402.342296,3124.23852 C402.984296,3124.23852 403.506557,3123.69078 403.506557,3123.01821 L403.506557,3121.62721 C403.506557,3120.95464 402.984296,3120.40945 402.342296,3120.40945 Z M420.36491,3101.8498 L377.575118,3101.8498 C376.93057,3101.8498 376.408309,3102.39499 376.408309,3103.06756 L376.408309,3104.45346 C376.408309,3105.12603 376.93057,3105.67377 377.575118,3105.67377 L420.35472,3105.67377 C420.996719,3105.67377 421.518981,3105.12603 421.518981,3104.45346 L421.518981,3103.06756 C421.518981,3102.39499 421.001814,3101.8498 420.36491,3101.8498 Z M366.76532,3096.39382 L409.547469,3096.39382 C410.189469,3096.39382 410.711731,3095.84608 410.711731,3095.17351 L410.711731,3093.78251 C410.711731,3093.10994 410.189469,3092.56475 409.547469,3092.56475 L366.76532,3092.56475 C366.12332,3092.56475 365.59851,3093.10994 365.59851,3093.78251 L365.59851,3095.17351 C365.59851,3095.84608 366.12332,3096.39382 366.76532,3096.39382 Z M420.36491,3083.28479 L372.17162,3083.28479 C371.52962,3083.28479 371.004811,3083.82998 371.004811,3084.50256 L371.004811,3085.89101 C371.004811,3086.56358 371.52962,3087.10877 372.17162,3087.10877 L420.35472,3087.10877 C420.996719,3087.10877 421.518981,3086.56358 421.518981,3085.89101 L421.518981,3084.50256 C421.518981,3083.82998 421.001814,3083.28479 420.36491,3083.28479 Z" id="Combined-Shape"></path>
        </g>
    </g>
</svg>