<?xml version="1.0" encoding="UTF-8" standalone="no"?>
<svg width="64px" height="64px" viewBox="0 0 64 64" version="1.1" xmlns="http://www.w3.org/2000/svg" xmlns:xlink="http://www.w3.org/1999/xlink">
    <!-- Generator: Sketch 3.8.3 (29802) - http://www.bohemiancoding.com/sketch -->
    <title>37</title>
    <desc>Created with Sketch.</desc>
    <defs></defs>
    <g id="天气图标" stroke="none" stroke-width="1" fill="none" fill-rule="evenodd">
        <g id="天气图标_黑色背景" transform="translate(-360.000000, -3286.000000)" fill="#9FD2FF">
            <path d="M418.432511,3331.46989 L408.895289,3325.96356 L417.877112,3323.15716 C418.633693,3322.92076 419.055372,3322.11582 418.818968,3321.35924 C418.582634,3320.60265 417.777479,3320.18055 417.021041,3320.41738 L405.515601,3324.01238 L394.945484,3317.90974 L405.329545,3311.91447 L417.021041,3315.56756 C417.163565,3315.61216 417.307652,3315.63332 417.449467,3315.63332 C418.06054,3315.63318 418.627017,3315.23977 418.818897,3314.62578 C419.055372,3313.8692 418.633622,3313.06433 417.877041,3312.82785 L408.709091,3309.9633 L418.360716,3304.39092 C419.047206,3303.99459 419.282403,3303.11693 418.886005,3302.43044 C418.489819,3301.74424 417.612017,3301.50875 416.925527,3301.90515 L407.388377,3307.41142 L409.448841,3298.22984 C409.62247,3297.45649 409.136168,3296.68884 408.362757,3296.51535 C407.588707,3296.34101 406.821616,3296.82817 406.648271,3297.60143 L404.008831,3309.36267 L393.512,3315.42305 L393.512,3303.4551 L402.448019,3295.22418 C403.0309,3294.6871 403.068182,3293.77919 402.531247,3293.19617 C401.99417,3292.61343 401.086259,3292.57586 400.503236,3293.11294 L393.512,3299.55261 L393.512,3288.43519 C393.512,3287.64253 392.869396,3287 392.076812,3287 C391.284227,3287 390.641623,3287.64253 390.641623,3288.43519 L390.641623,3299.55552 L383.646979,3293.11272 C383.064098,3292.57579 382.156187,3292.61307 381.619039,3293.19595 C381.082032,3293.77898 381.119315,3294.68689 381.702338,3295.22396 L390.641623,3303.45801 L390.641623,3315.42476 L380.182856,3309.38645 L377.543487,3297.62515 C377.369929,3296.85167 376.60227,3296.36473 375.82893,3296.53907 C375.055519,3296.71255 374.569217,3297.48021 374.742774,3298.25355 L376.803168,3307.43514 L367.224759,3301.90508 C366.538411,3301.50875 365.660467,3301.74388 365.264281,3302.43037 C364.867953,3303.11686 365.103151,3303.99452 365.78957,3304.39085 L375.482454,3309.98702 L366.314646,3312.85157 C365.558065,3313.08798 365.136456,3313.89292 365.37279,3314.6495 C365.56467,3315.26363 366.131075,3315.65704 366.74222,3315.65704 C366.883964,3315.65704 367.028193,3315.63588 367.170646,3315.59128 L378.862,3311.93826 L389.204731,3317.90967 L378.675944,3323.98852 L367.170717,3320.39359 C366.414278,3320.15726 365.609266,3320.57887 365.37279,3321.33545 C365.136385,3322.09203 365.558065,3322.8969 366.314646,3323.13337 L375.296327,3325.93977 L365.717846,3331.46996 C365.031427,3331.86629 364.796158,3332.74395 365.192557,3333.43044 C365.458362,3333.89082 365.940758,3334.14832 366.43679,3334.14832 C366.680225,3334.14832 366.927069,3334.08625 367.153035,3333.95573 L376.845918,3328.35956 L374.742845,3337.73139 C374.569288,3338.5048 375.055519,3339.27239 375.829001,3339.44588 C375.934812,3339.46974 376.040409,3339.48103 376.144586,3339.48103 C376.801251,3339.48103 377.39379,3339.02732 377.543629,3338.35979 L380.225677,3326.40824 L390.641765,3320.39451 L390.641765,3332.57451 L381.702338,3340.80856 C381.119315,3341.34564 381.082032,3342.25355 381.619039,3342.83657 C382.156045,3343.41931 383.063956,3343.45645 383.646979,3342.9198 L390.641623,3336.477 L390.641623,3347.56481 C390.641623,3348.3574 391.284227,3349 392.076812,3349 C392.869396,3349 393.512,3348.3574 393.512,3347.56481 L393.512,3336.4802 L400.503236,3342.91987 C400.779195,3343.17396 401.127589,3343.29944 401.475201,3343.29944 C401.862297,3343.29944 402.248328,3343.14371 402.531247,3342.83664 C403.068182,3342.25362 403.0309,3341.34571 402.448019,3340.80863 L393.512,3332.57764 L393.512,3320.39643 L403.966152,3326.43218 L406.648271,3338.38365 C406.79811,3339.05132 407.390507,3339.50489 408.047314,3339.50489 C408.151278,3339.50489 408.257159,3339.49353 408.362828,3339.46974 C409.136168,3339.29625 409.622541,3338.52859 409.448912,3337.75525 L407.345768,3328.38342 L416.997393,3333.9558 C417.22343,3334.08625 417.470132,3334.14839 417.713567,3334.14839 C418.209598,3334.14839 418.692137,3333.8909 418.957871,3333.43051 C419.354198,3332.74395 419.119001,3331.86629 418.432511,3331.46989 L418.432511,3331.46989 Z" id="Shape"></path>
        </g>
    </g>
</svg>