<?xml version="1.0" encoding="UTF-8" standalone="no"?>
<svg width="64px" height="64px" viewBox="0 0 64 64" version="1.1" xmlns="http://www.w3.org/2000/svg" xmlns:xlink="http://www.w3.org/1999/xlink">
    <!-- Generator: Sketch 3.8.3 (29802) - http://www.bohemiancoding.com/sketch -->
    <title>10</title>
    <desc>Created with Sketch.</desc>
    <defs>
        <linearGradient x1="50%" y1="-1.11022302e-14%" x2="50%" y2="100%" id="linearGradient-1">
            <stop stop-color="#FFE20F" offset="0%"></stop>
            <stop stop-color="#FFC800" offset="100%"></stop>
        </linearGradient>
        <linearGradient x1="50%" y1="0%" x2="50%" y2="97.7459343%" id="linearGradient-2">
            <stop stop-color="#FFFFFF" stop-opacity="0.8" offset="0%"></stop>
            <stop stop-color="#FFFFFF" stop-opacity="0.9" offset="100%"></stop>
        </linearGradient>
    </defs>
    <g id="天气图标" stroke="none" stroke-width="1" fill="none" fill-rule="evenodd">
        <g id="天气图标_默认背景" transform="translate(-364.000000, -915.000000)">
            <g id="Group-2-Copy" transform="translate(364.000000, 916.000000)">
                <path d="M47.7588837,32.9486441 C56.7286046,32.9486441 64,25.5728389 64,16.4743221 C64,7.37580522 56.7286046,0 47.7588837,0 C38.7891629,0 31.5177674,7.37580522 31.5177674,16.4743221 C31.5177674,25.5728389 38.7891629,32.9486441 47.7588837,32.9486441 Z" id="Combined-Shape-Copy-4" fill="url(#linearGradient-1)"></path>
                <path d="M50.1861675,21.3230393 C50.1861675,13.4202082 43.7154205,6.99066256 35.7620505,6.99066256 C30.6983617,6.99066256 26.0279587,9.64615847 23.4322721,13.879437 C21.8192097,12.7841555 19.9131087,12.1946474 17.9189611,12.1946474 C12.5178166,12.1946474 8.12431611,16.5604298 8.12431611,21.9270926 C8.12431611,22.5200802 8.1773352,23.1078771 8.28326094,23.6843801 C3.64580511,25.3567921 0.512,29.7248561 0.512,34.7371296 C0.512,41.1179061 5.60228274,45.9299692 12.3514503,45.9299692 L46.2452128,45.9299692 C52.7737017,45.9299692 58.0851691,40.6530303 58.0851691,34.1662165 C58.0853377,29.1280469 54.7741464,24.6267945 50.0546599,23.0258536 C50.1225784,22.4601312 50.1861675,21.8050841 50.1861675,21.3230393 Z" id="Shape-Copy-5" fill="url(#linearGradient-2)"></path>
                <path d="M11.9568139,50.5128631 L8.07290129,60.047392 C7.65953259,61.0621615 8.14706421,62.2198962 9.16183365,62.6332649 C10.1766031,63.0466336 11.3343378,62.559102 11.7477065,61.5443325 L15.6316191,52.0098036 C16.0449878,50.9950341 15.5574562,49.8372994 14.5426868,49.4239307 C13.5279173,49.010562 12.3701826,49.4980937 11.9568139,50.5128631 L11.9568139,50.5128631 Z" id="Line" fill="#9FD2FF"></path>
                <path d="M27.8288139,50.5128631 L23.9449013,60.047392 C23.5315326,61.0621615 24.0190642,62.2198962 25.0338336,62.6332649 C26.0486031,63.0466336 27.2063378,62.559102 27.6197065,61.5443325 L31.5036191,52.0098036 C31.9169878,50.9950341 31.4294562,49.8372994 30.4146868,49.4239307 C29.3999173,49.010562 28.2421826,49.4980937 27.8288139,50.5128631 L27.8288139,50.5128631 Z" id="Line" fill="#9FD2FF"></path>
                <path d="M43.7008139,50.5128631 L39.8169013,60.047392 C39.4035326,61.0621615 39.8910642,62.2198962 40.9058336,62.6332649 C41.9206031,63.0466336 43.0783378,62.559102 43.4917065,61.5443325 L47.3756191,52.0098036 C47.7889878,50.9950341 47.3014562,49.8372994 46.2866868,49.4239307 C45.2719173,49.010562 44.1141826,49.4980937 43.7008139,50.5128631 L43.7008139,50.5128631 Z" id="Line" fill="#9FD2FF"></path>
            </g>
        </g>
    </g>
</svg>