<?xml version="1.0" encoding="UTF-8" standalone="no"?>
<svg width="64px" height="64px" viewBox="0 0 64 64" version="1.1" xmlns="http://www.w3.org/2000/svg" xmlns:xlink="http://www.w3.org/1999/xlink">
    <!-- Generator: Sketch 3.8.3 (29802) - http://www.bohemiancoding.com/sketch -->
    <title>21</title>
    <desc>Created with Sketch.</desc>
    <defs>
        <linearGradient x1="50%" y1="-1.11022302e-14%" x2="50%" y2="100%" id="linearGradient-1">
            <stop stop-color="#F1D616" offset="0%"></stop>
            <stop stop-color="#FFC500" offset="100%"></stop>
        </linearGradient>
        <linearGradient x1="50%" y1="0%" x2="50%" y2="97.7459343%" id="linearGradient-2">
            <stop stop-color="#FFFFFF" stop-opacity="0.8" offset="0%"></stop>
            <stop stop-color="#FFFFFF" stop-opacity="0.9" offset="100%"></stop>
        </linearGradient>
    </defs>
    <g id="天气图标" stroke="none" stroke-width="1" fill="none" fill-rule="evenodd">
        <g id="天气图标_默认背景" transform="translate(-364.000000, -1928.000000)">
            <g id="Group-18" transform="translate(366.000000, 1930.000000)">
                <path d="M21.7737175,52.3738517 L23.8180815,52.3738517 C24.625569,52.3738517 25.28,53.0284097 25.28,53.8357702 C25.28,54.6431305 24.625569,55.2976887 23.8180815,55.2976887 L21.7737175,55.2976887 L22.7958826,57.0681355 C23.1996263,57.7673139 22.9599989,58.6614995 22.2608205,59.0651161 C22.0306,59.1980873 21.7791501,59.2612675 21.5312596,59.2612675 C21.0259443,59.2612675 20.5346126,58.9991391 20.2638398,58.530054 L19.241641,56.7595488 L18.2194421,58.5300541 C17.9487966,58.9990121 17.4573376,59.2612675 16.9520224,59.2612675 C16.7040047,59.2612675 16.4526818,59.1980872 16.2224615,59.0651162 C15.5232831,58.6614996 15.2836555,57.7674411 15.6873993,57.0681356 L16.7095645,55.2976887 L14.6652004,55.2976887 C13.85784,55.2976887 13.2032818,54.6432577 13.2032818,53.8357702 C13.2032818,53.0284099 13.8578399,52.3738517 14.6652004,52.3738517 L16.7095646,52.3738517 L15.6873993,50.6034047 C15.2836556,49.9042263 15.5232831,49.0100407 16.2224615,48.606424 C16.921767,48.2026803 17.8158255,48.4423078 18.2194421,49.1414862 L19.241641,50.9119915 L20.2638398,49.1414863 C20.6674565,48.4423079 21.561515,48.2026803 22.2608205,48.6064242 C22.9599989,49.0101679 23.1996264,49.9042264 22.7958826,50.6034048 L21.7737175,52.3738517 Z" id="Shape-Copy-4" fill="#A8D8FF"></path>
                <path d="M39.1337175,52.3738517 L41.1780815,52.3738517 C41.985569,52.3738517 42.64,53.0284097 42.64,53.8357702 C42.64,54.6431305 41.985569,55.2976887 41.1780815,55.2976887 L39.1337175,55.2976887 L40.1558826,57.0681355 C40.5596263,57.7673139 40.3199989,58.6614995 39.6208205,59.0651161 C39.3906,59.1980873 39.1391501,59.2612675 38.8912596,59.2612675 C38.3859443,59.2612675 37.8946126,58.9991391 37.6238398,58.530054 L36.601641,56.7595488 L35.5794421,58.5300541 C35.3087966,58.9990121 34.8173376,59.2612675 34.3120224,59.2612675 C34.0640047,59.2612675 33.8126818,59.1980872 33.5824615,59.0651162 C32.8832831,58.6614996 32.6436555,57.7674411 33.0473993,57.0681356 L34.0695645,55.2976887 L32.0252004,55.2976887 C31.21784,55.2976887 30.5632818,54.6432577 30.5632818,53.8357702 C30.5632818,53.0284099 31.2178399,52.3738517 32.0252004,52.3738517 L34.0695646,52.3738517 L33.0473993,50.6034047 C32.6436556,49.9042263 32.8832831,49.0100407 33.5824615,48.606424 C34.281767,48.2026803 35.1758255,48.4423078 35.5794421,49.1414862 L36.601641,50.9119915 L37.6238398,49.1414863 C38.0274565,48.4423079 38.921515,48.2026803 39.6208205,48.6064242 C40.3199989,49.0101679 40.5596264,49.9042264 40.1558826,50.6034048 L39.1337175,52.3738517 Z" id="Shape-Copy-4" fill="#A8D8FF"></path>
                <path d="M44.5039995,30.8893538 C52.9131128,30.8893538 59.730046,23.9745365 59.730046,15.4446769 C59.730046,6.91481739 52.9131128,0 44.5039995,0 C36.0948862,0 29.277953,6.91481739 29.277953,15.4446769 C29.277953,23.9745365 36.0948862,30.8893538 44.5039995,30.8893538 Z" id="Combined-Shape-Copy-4" fill="url(#linearGradient-1)"></path>
                <path d="M46.779578,19.0528494 C46.779578,11.6439452 40.7132527,5.61624615 33.2569684,5.61624615 C28.5097601,5.61624615 24.1312572,8.10577356 21.697801,12.0744722 C20.1855551,11.0476458 18.3985854,10.4949819 16.529072,10.4949819 C11.4654991,10.4949819 7.34659233,14.5879029 7.34659233,19.6191493 C7.34659233,20.1750752 7.39629773,20.7261348 7.49560311,21.2666063 C3.14798827,22.8344926 0.210045981,26.9295526 0.210045981,31.628559 C0.210045981,37.6105369 4.98218605,42.1218462 11.3095306,42.1218462 L43.084933,42.1218462 C49.2053913,42.1218462 54.184892,37.1747159 54.184892,31.093328 C54.1850501,26.3700439 51.0808082,22.1501199 46.6562897,20.6492378 C46.7199632,20.118873 46.779578,19.5047664 46.779578,19.0528494 Z" id="Shape-Copy-5" fill="url(#linearGradient-2)"></path>
            </g>
        </g>
    </g>
</svg>