<?xml version="1.0" encoding="UTF-8" standalone="no"?>
<svg width="64px" height="64px" viewBox="0 0 64 64" version="1.1" xmlns="http://www.w3.org/2000/svg" xmlns:xlink="http://www.w3.org/1999/xlink">
    <!-- Generator: Sketch 3.8.3 (29802) - http://www.bohemiancoding.com/sketch -->
    <title>22</title>
    <desc>Created with Sketch.</desc>
    <defs>
        <linearGradient x1="50%" y1="0%" x2="50%" y2="97.7459343%" id="linearGradient-1">
            <stop stop-color="#FFFFFF" stop-opacity="0.8" offset="0%"></stop>
            <stop stop-color="#FFFFFF" stop-opacity="0.9" offset="100%"></stop>
        </linearGradient>
    </defs>
    <g id="天气图标" stroke="none" stroke-width="1" fill="none" fill-rule="evenodd">
        <g id="天气图标_默认背景" transform="translate(-364.000000, -2018.000000)">
            <g id="Group-19" transform="translate(366.000000, 2022.000000)">
                <path d="M23.7737175,49.8938517 L25.8180815,49.8938517 C26.625569,49.8938517 27.28,50.5484097 27.28,51.3557702 C27.28,52.1631305 26.625569,52.8176887 25.8180815,52.8176887 L23.7737175,52.8176887 L24.7958826,54.5881355 C25.1996263,55.2873139 24.9599989,56.1814995 24.2608205,56.5851161 C24.0306,56.7180873 23.7791501,56.7812675 23.5312596,56.7812675 C23.0259443,56.7812675 22.5346126,56.5191391 22.2638398,56.050054 L21.241641,54.2795488 L20.2194421,56.0500541 C19.9487966,56.5190121 19.4573376,56.7812675 18.9520224,56.7812675 C18.7040047,56.7812675 18.4526818,56.7180872 18.2224615,56.5851162 C17.5232831,56.1814996 17.2836555,55.2874411 17.6873993,54.5881356 L18.7095645,52.8176887 L16.6652004,52.8176887 C15.85784,52.8176887 15.2032818,52.1632577 15.2032818,51.3557702 C15.2032818,50.5484099 15.8578399,49.8938517 16.6652004,49.8938517 L18.7095646,49.8938517 L17.6873993,48.1234047 C17.2836556,47.4242263 17.5232831,46.5300407 18.2224615,46.126424 C18.921767,45.7226803 19.8158255,45.9623078 20.2194421,46.6614862 L21.241641,48.4319915 L22.2638398,46.6614863 C22.6674565,45.9623079 23.561515,45.7226803 24.2608205,46.1264242 C24.9599989,46.5301679 25.1996264,47.4242264 24.7958826,48.1234048 L23.7737175,49.8938517 Z" id="Shape-Copy-4" fill="#A8D8FF"></path>
                <path d="M41.1337175,49.8938517 L43.1780815,49.8938517 C43.985569,49.8938517 44.64,50.5484097 44.64,51.3557702 C44.64,52.1631305 43.985569,52.8176887 43.1780815,52.8176887 L41.1337175,52.8176887 L42.1558826,54.5881355 C42.5596263,55.2873139 42.3199989,56.1814995 41.6208205,56.5851161 C41.3906,56.7180873 41.1391501,56.7812675 40.8912596,56.7812675 C40.3859443,56.7812675 39.8946126,56.5191391 39.6238398,56.050054 L38.601641,54.2795488 L37.5794421,56.0500541 C37.3087966,56.5190121 36.8173376,56.7812675 36.3120224,56.7812675 C36.0640047,56.7812675 35.8126818,56.7180872 35.5824615,56.5851162 C34.8832831,56.1814996 34.6436555,55.2874411 35.0473993,54.5881356 L36.0695645,52.8176887 L34.0252004,52.8176887 C33.21784,52.8176887 32.5632818,52.1632577 32.5632818,51.3557702 C32.5632818,50.5484099 33.2178399,49.8938517 34.0252004,49.8938517 L36.0695646,49.8938517 L35.0473993,48.1234047 C34.6436556,47.4242263 34.8832831,46.5300407 35.5824615,46.126424 C36.281767,45.7226803 37.1758255,45.9623078 37.5794421,46.6614862 L38.601641,48.4319915 L39.6238398,46.6614863 C40.0274565,45.9623079 40.921515,45.7226803 41.6208205,46.1264242 C42.3199989,46.5301679 42.5596264,47.4242264 42.1558826,48.1234048 L41.1337175,49.8938517 Z" id="Shape-Copy-4" fill="#A8D8FF"></path>
                <path d="M51.3538945,14.6050035 C51.3538945,6.5518468 44.6643399,0 36.4420275,0 C31.2071105,0 26.3787783,2.70600805 23.6953188,7.01981095 C22.0277109,5.90369524 20.0571552,5.30297366 17.9955757,5.30297366 C12.4117921,5.30297366 7.86972581,9.75180086 7.86972581,15.2205469 C7.86972581,15.8248141 7.92453774,16.423792 8.03404535,17.0112611 C3.23977441,18.7154852 0,23.1666374 0,28.2742531 C0,34.776403 5.26241014,39.68 12.2398001,39.68 L47.2796768,39.68 C54.0289259,39.68 59.52,34.3026845 59.52,27.6924802 C59.5201744,22.5584759 56.0970154,17.9716018 51.21794,16.3402083 C51.2881551,15.7637248 51.3538945,15.0962176 51.3538945,14.6050035 Z" id="Shape-Copy-8" fill="url(#linearGradient-1)"></path>
            </g>
        </g>
    </g>
</svg>