<?xml version="1.0" encoding="UTF-8" standalone="no"?>
<svg width="64px" height="64px" viewBox="0 0 64 64" version="1.1" xmlns="http://www.w3.org/2000/svg" xmlns:xlink="http://www.w3.org/1999/xlink">
    <!-- Generator: Sketch 3.8.3 (29802) - http://www.bohemiancoding.com/sketch -->
    <title>24</title>
    <desc>Created with Sketch.</desc>
    <defs>
        <linearGradient x1="50%" y1="0%" x2="50%" y2="97.7459343%" id="linearGradient-1">
            <stop stop-color="#FFFFFF" stop-opacity="0.8" offset="0%"></stop>
            <stop stop-color="#FFFFFF" stop-opacity="0.9" offset="100%"></stop>
        </linearGradient>
    </defs>
    <g id="天气图标" stroke="none" stroke-width="1" fill="none" fill-rule="evenodd">
        <g id="天气图标_默认背景" transform="translate(-364.000000, -2198.000000)">
            <g id="Group-24" transform="translate(366.000000, 2202.000000)">
                <path d="M9.37371746,49.8938517 L11.4180815,49.8938517 C12.225569,49.8938517 12.88,50.5484097 12.88,51.3557702 C12.88,52.1631305 12.225569,52.8176887 11.4180815,52.8176887 L9.37371753,52.8176887 L10.3958826,54.5881355 C10.7996263,55.2873139 10.5599989,56.1814995 9.86082049,56.5851161 C9.63060003,56.7180873 9.37915015,56.7812675 9.13125959,56.7812675 C8.62594432,56.7812675 8.1346126,56.5191391 7.86383984,56.050054 L6.84164101,54.2795488 L5.81944212,56.0500541 C5.54879656,56.5190121 5.05733764,56.7812675 4.55202236,56.7812675 C4.30400473,56.7812675 4.0526818,56.7180872 3.82246147,56.5851162 C3.12328306,56.1814996 2.88365552,55.2874411 3.28739934,54.5881356 L4.3095645,52.8176887 L2.26520036,52.8176887 C1.45784003,52.8176887 0.803281832,52.1632577 0.803281832,51.3557702 C0.803281832,50.5484099 1.45783991,49.8938517 2.26520036,49.8938517 L4.30956457,49.8938517 L3.28739934,48.1234047 C2.88365564,47.4242263 3.12328306,46.5300407 3.82246147,46.126424 C4.52176695,45.7226803 5.41582549,45.9623078 5.81944212,46.6614862 L6.84164101,48.4319915 L7.86383984,46.6614863 C8.26745646,45.9623079 9.161515,45.7226803 9.86082049,46.1264242 C10.5599989,46.5301679 10.7996264,47.4242264 10.3958826,48.1234048 L9.37371746,49.8938517 Z" id="Shape-Copy-4" fill="#A8D8FF"></path>
                <path d="M24.2537175,49.8938517 L26.2980815,49.8938517 C27.105569,49.8938517 27.76,50.5484097 27.76,51.3557702 C27.76,52.1631305 27.105569,52.8176887 26.2980815,52.8176887 L24.2537175,52.8176887 L25.2758826,54.5881355 C25.6796263,55.2873139 25.4399989,56.1814995 24.7408205,56.5851161 C24.5106,56.7180873 24.2591501,56.7812675 24.0112596,56.7812675 C23.5059443,56.7812675 23.0146126,56.5191391 22.7438398,56.050054 L21.721641,54.2795488 L20.6994421,56.0500541 C20.4287966,56.5190121 19.9373376,56.7812675 19.4320224,56.7812675 C19.1840047,56.7812675 18.9326818,56.7180872 18.7024615,56.5851162 C18.0032831,56.1814996 17.7636555,55.2874411 18.1673993,54.5881356 L19.1895645,52.8176887 L17.1452004,52.8176887 C16.33784,52.8176887 15.6832818,52.1632577 15.6832818,51.3557702 C15.6832818,50.5484099 16.3378399,49.8938517 17.1452004,49.8938517 L19.1895646,49.8938517 L18.1673993,48.1234047 C17.7636556,47.4242263 18.0032831,46.5300407 18.7024615,46.126424 C19.401767,45.7226803 20.2958255,45.9623078 20.6994421,46.6614862 L21.721641,48.4319915 L22.7438398,46.6614863 C23.1474565,45.9623079 24.041515,45.7226803 24.7408205,46.1264242 C25.4399989,46.5301679 25.6796264,47.4242264 25.2758826,48.1234048 L24.2537175,49.8938517 Z" id="Shape-Copy-4" fill="#A8D8FF"></path>
                <path d="M39.1337175,49.8938517 L41.1780815,49.8938517 C41.985569,49.8938517 42.64,50.5484097 42.64,51.3557702 C42.64,52.1631305 41.985569,52.8176887 41.1780815,52.8176887 L39.1337175,52.8176887 L40.1558826,54.5881355 C40.5596263,55.2873139 40.3199989,56.1814995 39.6208205,56.5851161 C39.3906,56.7180873 39.1391501,56.7812675 38.8912596,56.7812675 C38.3859443,56.7812675 37.8946126,56.5191391 37.6238398,56.050054 L36.601641,54.2795488 L35.5794421,56.0500541 C35.3087966,56.5190121 34.8173376,56.7812675 34.3120224,56.7812675 C34.0640047,56.7812675 33.8126818,56.7180872 33.5824615,56.5851162 C32.8832831,56.1814996 32.6436555,55.2874411 33.0473993,54.5881356 L34.0695645,52.8176887 L32.0252004,52.8176887 C31.21784,52.8176887 30.5632818,52.1632577 30.5632818,51.3557702 C30.5632818,50.5484099 31.2178399,49.8938517 32.0252004,49.8938517 L34.0695646,49.8938517 L33.0473993,48.1234047 C32.6436556,47.4242263 32.8832831,46.5300407 33.5824615,46.126424 C34.281767,45.7226803 35.1758255,45.9623078 35.5794421,46.6614862 L36.601641,48.4319915 L37.6238398,46.6614863 C38.0274565,45.9623079 38.921515,45.7226803 39.6208205,46.1264242 C40.3199989,46.5301679 40.5596264,47.4242264 40.1558826,48.1234048 L39.1337175,49.8938517 Z" id="Shape-Copy-4" fill="#A8D8FF"></path>
                <path d="M54.0137175,49.8938517 L56.0580815,49.8938517 C56.865569,49.8938517 57.52,50.5484097 57.52,51.3557702 C57.52,52.1631305 56.865569,52.8176887 56.0580815,52.8176887 L54.0137175,52.8176887 L55.0358826,54.5881355 C55.4396263,55.2873139 55.1999989,56.1814995 54.5008205,56.5851161 C54.2706,56.7180873 54.0191501,56.7812675 53.7712596,56.7812675 C53.2659443,56.7812675 52.7746126,56.5191391 52.5038398,56.050054 L51.481641,54.2795488 L50.4594421,56.0500541 C50.1887966,56.5190121 49.6973376,56.7812675 49.1920224,56.7812675 C48.9440047,56.7812675 48.6926818,56.7180872 48.4624615,56.5851162 C47.7632831,56.1814996 47.5236555,55.2874411 47.9273993,54.5881356 L48.9495645,52.8176887 L46.9052004,52.8176887 C46.09784,52.8176887 45.4432818,52.1632577 45.4432818,51.3557702 C45.4432818,50.5484099 46.0978399,49.8938517 46.9052004,49.8938517 L48.9495646,49.8938517 L47.9273993,48.1234047 C47.5236556,47.4242263 47.7632831,46.5300407 48.4624615,46.126424 C49.161767,45.7226803 50.0558255,45.9623078 50.4594421,46.6614862 L51.481641,48.4319915 L52.5038398,46.6614863 C52.9074565,45.9623079 53.801515,45.7226803 54.5008205,46.1264242 C55.1999989,46.5301679 55.4396264,47.4242264 55.0358826,48.1234048 L54.0137175,49.8938517 Z" id="Shape-Copy-4" fill="#A8D8FF"></path>
                <path d="M51.8338945,14.6050035 C51.8338945,6.5518468 45.1443399,0 36.9220275,0 C31.6871105,0 26.8587783,2.70600805 24.1753188,7.01981095 C22.5077109,5.90369524 20.5371552,5.30297366 18.4755757,5.30297366 C12.8917921,5.30297366 8.34972581,9.75180086 8.34972581,15.2205469 C8.34972581,15.8248141 8.40453774,16.423792 8.51404535,17.0112611 C3.71977441,18.7154852 0.48,23.1666374 0.48,28.2742531 C0.48,34.776403 5.74241014,39.68 12.7198001,39.68 L47.7596768,39.68 C54.5089259,39.68 60,34.3026845 60,27.6924802 C60.0001744,22.5584759 56.5770154,17.9716018 51.69794,16.3402083 C51.7681551,15.7637248 51.8338945,15.0962176 51.8338945,14.6050035 Z" id="Shape-Copy-8" fill="url(#linearGradient-1)"></path>
            </g>
        </g>
    </g>
</svg>