<?xml version="1.0" encoding="UTF-8" standalone="no"?>
<svg width="64px" height="64px" viewBox="0 0 64 64" version="1.1" xmlns="http://www.w3.org/2000/svg" xmlns:xlink="http://www.w3.org/1999/xlink">
    <!-- Generator: Sketch 3.8.3 (29802) - http://www.bohemiancoding.com/sketch -->
    <title>25</title>
    <desc>Created with Sketch.</desc>
    <defs>
        <linearGradient x1="50%" y1="0%" x2="50%" y2="97.7459343%" id="linearGradient-1">
            <stop stop-color="#FFFFFF" stop-opacity="0.8" offset="0%"></stop>
            <stop stop-color="#FFFFFF" stop-opacity="0.9" offset="100%"></stop>
        </linearGradient>
    </defs>
    <g id="天气图标" stroke="none" stroke-width="1" fill="none" fill-rule="evenodd">
        <g id="天气图标_默认背景" transform="translate(-364.000000, -2290.000000)">
            <g id="Group-33" transform="translate(366.000000, 2292.000000)">
                <path d="M11.7926553,45.8376962 L13.2529153,45.8376962 C13.8296921,45.8376962 14.2971429,46.2958868 14.2971429,46.8610391 C14.2971429,47.4261914 13.8296921,47.8843821 13.2529153,47.8843821 L11.7926554,47.8843821 L12.5227733,49.1236948 C12.8111617,49.6131197 12.6399992,50.2390496 12.1405861,50.5215813 C11.9761429,50.6146611 11.7965358,50.6588873 11.6194711,50.6588873 C11.2585317,50.6588873 10.9075804,50.4753974 10.7141713,50.1470378 L9.9840293,48.9076842 L9.25388723,50.1470379 C9.06056897,50.4753084 8.70952689,50.6588873 8.3485874,50.6588873 C8.17143195,50.6588873 7.99191557,50.614661 7.82747248,50.5215814 C7.32805933,50.2390497 7.1568968,49.6132088 7.44528525,49.1236949 L8.17540321,47.8843821 L6.71514312,47.8843821 C6.13845716,47.8843821 5.67091559,47.4262804 5.67091559,46.8610391 C5.67091559,46.2958869 6.13845708,45.8376962 6.71514312,45.8376962 L8.17540326,45.8376962 L7.44528525,44.5983833 C7.15689689,44.1089584 7.32805933,43.4830285 7.82747248,43.2004968 C8.32697639,42.9178762 8.96558964,43.0856154 9.25388723,43.5750403 L9.9840293,44.814394 L10.7141713,43.5750404 C11.0024689,43.0856155 11.6410821,42.9178762 12.1405861,43.2004969 C12.6399992,43.4831175 12.8111617,44.1089585 12.5227733,44.5983834 L11.7926553,45.8376962 Z" id="Shape-Copy-4" fill="#A8D8FF"></path>
                <path d="M30.9240839,45.8376962 L32.3843439,45.8376962 C32.9611207,45.8376962 33.4285714,46.2958868 33.4285714,46.8610391 C33.4285714,47.4261914 32.9611207,47.8843821 32.3843439,47.8843821 L30.924084,47.8843821 L31.6542019,49.1236948 C31.9425902,49.6131197 31.7714278,50.2390496 31.2720146,50.5215813 C31.1075715,50.6146611 30.9279644,50.6588873 30.7508997,50.6588873 C30.3899602,50.6588873 30.039009,50.4753974 29.8455999,50.1470378 L29.1154579,48.9076842 L28.3853158,50.1470379 C28.1919975,50.4753084 27.8409555,50.6588873 27.480016,50.6588873 C27.3028605,50.6588873 27.1233441,50.614661 26.958901,50.5215814 C26.4594879,50.2390497 26.2883254,49.6132088 26.5767138,49.1236949 L27.3068318,47.8843821 L25.8465717,47.8843821 C25.2698857,47.8843821 24.8023442,47.4262804 24.8023442,46.8610391 C24.8023442,46.2958869 25.2698856,45.8376962 25.8465717,45.8376962 L27.3068318,45.8376962 L26.5767138,44.5983833 C26.2883255,44.1089584 26.4594879,43.4830285 26.958901,43.2004968 C27.458405,42.9178762 28.0970182,43.0856154 28.3853158,43.5750403 L29.1154579,44.814394 L29.8455999,43.5750404 C30.1338975,43.0856155 30.7725107,42.9178762 31.2720146,43.2004969 C31.7714278,43.4831175 31.9425903,44.1089585 31.6542019,44.5983834 L30.9240839,45.8376962 Z" id="Shape-Copy-4" fill="#A8D8FF"></path>
                <path d="M21.3583696,54.5176962 L22.8186296,54.5176962 C23.3954064,54.5176962 23.8628571,54.9758868 23.8628571,55.5410391 C23.8628571,56.1061914 23.3954064,56.5643821 22.8186296,56.5643821 L21.3583697,56.5643821 L22.0884876,57.8036948 C22.3768759,58.2931197 22.2057135,58.9190496 21.7063003,59.2015813 C21.5418572,59.2946611 21.3622501,59.3388873 21.1851854,59.3388873 C20.8242459,59.3388873 20.4732947,59.1553974 20.2798856,58.8270378 L19.5497436,57.5876842 L18.8196015,58.8270379 C18.6262833,59.1553084 18.2752412,59.3388873 17.9143017,59.3388873 C17.7371462,59.3388873 17.5576299,59.294661 17.3931868,59.2015814 C16.8937736,58.9190497 16.7226111,58.2932088 17.0109995,57.8036949 L17.7411175,56.5643821 L16.2808574,56.5643821 C15.7041714,56.5643821 15.2366299,56.1062804 15.2366299,55.5410391 C15.2366299,54.9758869 15.7041714,54.5176962 16.2808574,54.5176962 L17.7411175,54.5176962 L17.0109995,53.2783833 C16.7226112,52.7889584 16.8937736,52.1630285 17.3931868,51.8804968 C17.8926907,51.5978762 18.5313039,51.7656154 18.8196015,52.2550403 L19.5497436,53.494394 L20.2798856,52.2550404 C20.5681832,51.7656155 21.2067964,51.5978762 21.7063003,51.8804969 C22.2057135,52.1631175 22.376876,52.7889585 22.0884876,53.2783834 L21.3583696,54.5176962 Z" id="Shape-Copy-4" fill="#A8D8FF"></path>
                <path d="M40.4897982,54.5176962 L41.9500582,54.5176962 C42.526835,54.5176962 42.9942857,54.9758868 42.9942857,55.5410391 C42.9942857,56.1061914 42.526835,56.5643821 41.9500582,56.5643821 L40.4897982,56.5643821 L41.2199162,57.8036948 C41.5083045,58.2931197 41.3371421,58.9190496 40.8377289,59.2015813 C40.6732857,59.2946611 40.4936787,59.3388873 40.316614,59.3388873 C39.9556745,59.3388873 39.6047233,59.1553974 39.4113142,58.8270378 L38.6811722,57.5876842 L37.9510301,58.8270379 C37.7577118,59.1553084 37.4066697,59.3388873 37.0457303,59.3388873 C36.8685748,59.3388873 36.6890584,59.294661 36.5246153,59.2015814 C36.0252022,58.9190497 35.8540397,58.2932088 36.1424281,57.8036949 L36.8725461,56.5643821 L35.412286,56.5643821 C34.8356,56.5643821 34.3680585,56.1062804 34.3680585,55.5410391 C34.3680585,54.9758869 34.8355999,54.5176962 35.412286,54.5176962 L36.8725461,54.5176962 L36.1424281,53.2783833 C35.8540397,52.7889584 36.0252022,52.1630285 36.5246153,51.8804968 C37.0241193,51.5978762 37.6627325,51.7656154 37.9510301,52.2550403 L38.6811722,53.494394 L39.4113142,52.2550404 C39.6996118,51.7656155 40.338225,51.5978762 40.8377289,51.8804969 C41.3371421,52.1631175 41.5083046,52.7889585 41.2199162,53.2783834 L40.4897982,54.5176962 Z" id="Shape-Copy-4" fill="#A8D8FF"></path>
                <path d="M50.0555125,45.8376962 L51.5157725,45.8376962 C52.0925493,45.8376962 52.56,46.2958868 52.56,46.8610391 C52.56,47.4261914 52.0925493,47.8843821 51.5157725,47.8843821 L50.0555125,47.8843821 L50.7856304,49.1236948 C51.0740188,49.6131197 50.9028564,50.2390496 50.4034432,50.5215813 C50.239,50.6146611 50.059393,50.6588873 49.8823283,50.6588873 C49.5213888,50.6588873 49.1704376,50.4753974 48.9770285,50.1470378 L48.2468864,48.9076842 L47.5167444,50.1470379 C47.3234261,50.4753084 46.972384,50.6588873 46.6114445,50.6588873 C46.4342891,50.6588873 46.2547727,50.614661 46.0903296,50.5215814 C45.5909165,50.2390497 45.4197539,49.6132088 45.7081424,49.1236949 L46.4382604,47.8843821 L44.9780003,47.8843821 C44.4013143,47.8843821 43.9337727,47.4262804 43.9337727,46.8610391 C43.9337727,46.2958869 44.4013142,45.8376962 44.9780003,45.8376962 L46.4382604,45.8376962 L45.7081424,44.5983833 C45.419754,44.1089584 45.5909165,43.4830285 46.0903296,43.2004968 C46.5898335,42.9178762 47.2284468,43.0856154 47.5167444,43.5750403 L48.2468864,44.814394 L48.9770285,43.5750404 C49.265326,43.0856155 49.9039393,42.9178762 50.4034432,43.2004969 C50.9028564,43.4831175 51.0740189,44.1089585 50.7856304,44.5983834 L50.0555125,45.8376962 Z" id="Shape-Copy-4" fill="#A8D8FF"></path>
                <path d="M51.8338945,14.6050035 C51.8338945,6.5518468 45.1443399,0 36.9220275,0 C31.6871105,0 26.8587783,2.70600805 24.1753188,7.01981095 C22.5077109,5.90369524 20.5371552,5.30297366 18.4755757,5.30297366 C12.8917921,5.30297366 8.34972581,9.75180086 8.34972581,15.2205469 C8.34972581,15.8248141 8.40453774,16.423792 8.51404535,17.0112611 C3.71977441,18.7154852 0.48,23.1666374 0.48,28.2742531 C0.48,34.776403 5.74241014,39.68 12.7198001,39.68 L47.7596768,39.68 C54.5089259,39.68 60,34.3026845 60,27.6924802 C60.0001744,22.5584759 56.5770154,17.9716018 51.69794,16.3402083 C51.7681551,15.7637248 51.8338945,15.0962176 51.8338945,14.6050035 Z" id="Shape-Copy-8" fill="url(#linearGradient-1)"></path>
            </g>
        </g>
    </g>
</svg>