<?xml version="1.0" encoding="UTF-8" standalone="no"?>
<svg width="64px" height="64px" viewBox="0 0 64 64" version="1.1" xmlns="http://www.w3.org/2000/svg" xmlns:xlink="http://www.w3.org/1999/xlink">
    <!-- Generator: Sketch 3.8.3 (29802) - http://www.bohemiancoding.com/sketch -->
    <title>27</title>
    <desc>Created with Sketch.</desc>
    <defs></defs>
    <g id="天气图标" stroke="none" stroke-width="1" fill="none" fill-rule="evenodd">
        <g id="天气图标_默认背景" transform="translate(-364.000000, -2461.000000)" fill="#FFFFFF">
            <path d="M376.615385,2514.23077 C376.615385,2515.42185 375.650462,2516.38462 374.461539,2516.38462 L370.153846,2516.38462 C368.964923,2516.38462 368,2515.42185 368,2514.23077 C368,2513.03969 368.964923,2512.07692 370.153846,2512.07692 L374.461538,2512.07692 C375.650462,2512.07692 376.615385,2513.03969 376.615385,2514.23077 L376.615385,2514.23077 Z M387.384615,2512.07692 L383.076923,2512.07692 C381.888,2512.07692 380.923077,2513.03969 380.923077,2514.23077 C380.923077,2515.42185 381.888,2516.38462 383.076923,2516.38462 L387.384615,2516.38462 C388.573539,2516.38462 389.538462,2515.42185 389.538462,2514.23077 C389.538462,2513.03969 388.573538,2512.07692 387.384615,2512.07692 L387.384615,2512.07692 Z M400.307692,2512.07692 L396,2512.07692 C394.811077,2512.07692 393.846154,2513.03969 393.846154,2514.23077 C393.846154,2515.42185 394.811077,2516.38462 396,2516.38462 L400.307692,2516.38462 C401.498769,2516.38462 402.461538,2515.42185 402.461538,2514.23077 C402.461538,2513.03969 401.498769,2512.07692 400.307692,2512.07692 L400.307692,2512.07692 Z M413.230769,2512.07692 L408.923077,2512.07692 C407.732,2512.07692 406.769231,2513.03969 406.769231,2514.23077 C406.769231,2515.42185 407.732,2516.38462 408.923077,2516.38462 L413.230769,2516.38462 C414.421846,2516.38462 415.384615,2515.42185 415.384615,2514.23077 C415.384615,2513.03969 414.421846,2512.07692 413.230769,2512.07692 L413.230769,2512.07692 Z M385.230769,2505.61538 C385.230769,2504.42431 384.265846,2503.46154 383.076923,2503.46154 L378.769231,2503.46154 C377.580308,2503.46154 376.615385,2504.42431 376.615385,2505.61538 C376.615385,2506.80646 377.580308,2507.76923 378.769231,2507.76923 L383.076923,2507.76923 C384.265846,2507.76923 385.230769,2506.80646 385.230769,2505.61538 L385.230769,2505.61538 Z M398.153846,2505.61538 C398.153846,2504.42431 397.188923,2503.46154 396,2503.46154 L391.692308,2503.46154 C390.503385,2503.46154 389.538462,2504.42431 389.538462,2505.61538 C389.538462,2506.80646 390.503385,2507.76923 391.692308,2507.76923 L396,2507.76923 C397.188923,2507.76923 398.153846,2506.80646 398.153846,2505.61538 L398.153846,2505.61538 Z M411.076923,2505.61538 C411.076923,2504.42431 410.114154,2503.46154 408.923077,2503.46154 L404.615385,2503.46154 C403.424308,2503.46154 402.461539,2504.42431 402.461539,2505.61538 C402.461539,2506.80646 403.424308,2507.76923 404.615385,2507.76923 L408.923077,2507.76923 C410.114154,2507.76923 411.076923,2506.80646 411.076923,2505.61538 L411.076923,2505.61538 Z M421.846154,2503.46154 L417.538462,2503.46154 C416.347385,2503.46154 415.384615,2504.42431 415.384615,2505.61538 C415.384615,2506.80646 416.347385,2507.76923 417.538462,2507.76923 L421.846154,2507.76923 C423.037231,2507.76923 424,2506.80646 424,2505.61538 C424,2504.42431 423.037231,2503.46154 421.846154,2503.46154 L421.846154,2503.46154 Z M370.153846,2499.15385 L374.461538,2499.15385 C375.650462,2499.15385 376.615385,2498.19108 376.615385,2497 C376.615385,2495.80892 375.650461,2494.84615 374.461538,2494.84615 L370.153846,2494.84615 C368.964923,2494.84615 368,2495.80892 368,2497 C368,2498.19108 368.964923,2499.15385 370.153846,2499.15385 L370.153846,2499.15385 Z M383.076923,2499.15385 L387.384615,2499.15385 C388.573539,2499.15385 389.538462,2498.19108 389.538462,2497 C389.538462,2495.80892 388.573538,2494.84615 387.384615,2494.84615 L383.076923,2494.84615 C381.888,2494.84615 380.923077,2495.80892 380.923077,2497 C380.923077,2498.19108 381.888,2499.15385 383.076923,2499.15385 L383.076923,2499.15385 Z M396,2499.15385 L400.307692,2499.15385 C401.498769,2499.15385 402.461538,2498.19108 402.461538,2497 C402.461538,2495.80892 401.498769,2494.84615 400.307692,2494.84615 L396,2494.84615 C394.811077,2494.84615 393.846154,2495.80892 393.846154,2497 C393.846154,2498.19108 394.811077,2499.15385 396,2499.15385 L396,2499.15385 Z M408.923077,2499.15385 L413.230769,2499.15385 C414.421846,2499.15385 415.384615,2498.19108 415.384615,2497 C415.384615,2495.80892 414.421846,2494.84615 413.230769,2494.84615 L408.923077,2494.84615 C407.732,2494.84615 406.769231,2495.80892 406.769231,2497 C406.769231,2498.19108 407.732,2499.15385 408.923077,2499.15385 L408.923077,2499.15385 Z M385.230769,2488.38462 C385.230769,2487.19569 384.265846,2486.23077 383.076923,2486.23077 L378.769231,2486.23077 C377.580308,2486.23077 376.615385,2487.19569 376.615385,2488.38462 C376.615385,2489.57354 377.580308,2490.53846 378.769231,2490.53846 L383.076923,2490.53846 C384.265846,2490.53846 385.230769,2489.57354 385.230769,2488.38462 L385.230769,2488.38462 Z M398.153846,2488.38462 C398.153846,2487.19569 397.188923,2486.23077 396,2486.23077 L391.692308,2486.23077 C390.503385,2486.23077 389.538462,2487.19569 389.538462,2488.38462 C389.538462,2489.57354 390.503385,2490.53846 391.692308,2490.53846 L396,2490.53846 C397.188923,2490.53846 398.153846,2489.57354 398.153846,2488.38462 L398.153846,2488.38462 Z M411.076923,2488.38462 C411.076923,2487.19569 410.114154,2486.23077 408.923077,2486.23077 L404.615385,2486.23077 C403.424308,2486.23077 402.461539,2487.19569 402.461539,2488.38462 C402.461539,2489.57354 403.424308,2490.53846 404.615385,2490.53846 L408.923077,2490.53846 C410.114154,2490.53846 411.076923,2489.57354 411.076923,2488.38462 L411.076923,2488.38462 Z M421.846154,2486.23077 L417.538462,2486.23077 C416.347385,2486.23077 415.384615,2487.19569 415.384615,2488.38462 C415.384615,2489.57354 416.347385,2490.53846 417.538462,2490.53846 L421.846154,2490.53846 C423.037231,2490.53846 424,2489.57354 424,2488.38462 C424,2487.19569 423.037231,2486.23077 421.846154,2486.23077 L421.846154,2486.23077 Z M370.153846,2481.92308 L374.461538,2481.92308 C375.650462,2481.92308 376.615385,2480.95815 376.615385,2479.76923 C376.615385,2478.58031 375.650462,2477.61538 374.461538,2477.61538 L370.153846,2477.61538 C368.964923,2477.61538 368,2478.58031 368,2479.76923 C368,2480.95815 368.964923,2481.92308 370.153846,2481.92308 L370.153846,2481.92308 Z M380.923077,2479.76923 C380.923077,2480.95815 381.888,2481.92308 383.076923,2481.92308 L387.384615,2481.92308 C388.573538,2481.92308 389.538461,2480.95815 389.538461,2479.76923 C389.538461,2478.58031 388.573538,2477.61538 387.384615,2477.61538 L383.076923,2477.61538 C381.888,2477.61538 380.923077,2478.58031 380.923077,2479.76923 L380.923077,2479.76923 Z M393.846154,2479.76923 C393.846154,2480.95815 394.811077,2481.92308 396,2481.92308 L400.307692,2481.92308 C401.498769,2481.92308 402.461538,2480.95815 402.461538,2479.76923 C402.461538,2478.58031 401.498769,2477.61538 400.307692,2477.61538 L396,2477.61538 C394.811077,2477.61538 393.846154,2478.58031 393.846154,2479.76923 L393.846154,2479.76923 Z M406.769231,2479.76923 C406.769231,2480.95815 407.732,2481.92308 408.923077,2481.92308 L413.230769,2481.92308 C414.421846,2481.92308 415.384615,2480.95815 415.384615,2479.76923 C415.384615,2478.58031 414.421846,2477.61538 413.230769,2477.61538 L408.923077,2477.61538 C407.732,2477.61538 406.769231,2478.58031 406.769231,2479.76923 L406.769231,2479.76923 Z M378.769231,2473.30769 L383.076923,2473.30769 C384.265846,2473.30769 385.230769,2472.34277 385.230769,2471.15385 C385.230769,2469.96492 384.265846,2469 383.076923,2469 L378.769231,2469 C377.580308,2469 376.615385,2469.96492 376.615385,2471.15385 C376.615385,2472.34277 377.580308,2473.30769 378.769231,2473.30769 L378.769231,2473.30769 Z M391.692308,2473.30769 L396,2473.30769 C397.188923,2473.30769 398.153846,2472.34277 398.153846,2471.15385 C398.153846,2469.96492 397.188923,2469 396,2469 L391.692308,2469 C390.503385,2469 389.538462,2469.96492 389.538462,2471.15385 C389.538462,2472.34277 390.503385,2473.30769 391.692308,2473.30769 L391.692308,2473.30769 Z M404.615385,2473.30769 L408.923077,2473.30769 C410.114154,2473.30769 411.076923,2472.34277 411.076923,2471.15385 C411.076923,2469.96492 410.114154,2469 408.923077,2469 L404.615385,2469 C403.424308,2469 402.461539,2469.96492 402.461539,2471.15385 C402.461539,2472.34277 403.424308,2473.30769 404.615385,2473.30769 L404.615385,2473.30769 Z M417.538462,2473.30769 L421.846154,2473.30769 C423.037231,2473.30769 424,2472.34277 424,2471.15385 C424,2469.96492 423.037231,2469 421.846154,2469 L417.538462,2469 C416.347385,2469 415.384615,2469.96492 415.384615,2471.15385 C415.384615,2472.34277 416.347385,2473.30769 417.538462,2473.30769 L417.538462,2473.30769 Z" id="Shape"></path>
        </g>
    </g>
</svg>