<?xml version="1.0" encoding="UTF-8" standalone="no"?>
<svg width="64px" height="64px" viewBox="0 0 64 64" version="1.1" xmlns="http://www.w3.org/2000/svg" xmlns:xlink="http://www.w3.org/1999/xlink">
    <!-- Generator: Sketch 3.8.3 (29802) - http://www.bohemiancoding.com/sketch -->
    <title>29</title>
    <desc>Created with Sketch.</desc>
    <defs></defs>
    <g id="天气图标" stroke="none" stroke-width="1" fill="none" fill-rule="evenodd">
        <g id="天气图标_默认背景" transform="translate(-364.000000, -2616.000000)" fill="#FFFFFF">
            <path d="M367.125947,2640.82529 C365.953751,2640.82529 365,2641.76218 365,2642.92209 C365,2644.08199 365.953751,2645.01889 367.125947,2645.01889 C368.298143,2645.01889 369.251894,2644.08199 369.251894,2642.92209 C369.251894,2641.76218 368.298143,2640.82529 367.125947,2640.82529 L367.125947,2640.82529 L367.125947,2640.82529 Z M367.125947,2641.77913 C367.775118,2641.77913 368.298048,2642.29282 368.298048,2642.92209 C368.298048,2643.55135 367.775118,2644.06504 367.125947,2644.06504 C366.476776,2644.06504 365.953846,2643.55135 365.953846,2642.92209 C365.953846,2642.29282 366.476776,2641.77913 367.125947,2641.77913 L367.125947,2641.77913 L367.125947,2641.77913 Z M370.975568,2650.35325 C369.800397,2650.35325 368.843927,2651.28969 368.843927,2652.45005 C368.843927,2653.6103 369.800662,2654.54685 370.975568,2654.54685 C372.150473,2654.54685 373.107209,2653.6103 373.107209,2652.45005 C373.107209,2651.28969 372.150738,2650.35325 370.975568,2650.35325 L370.975568,2650.35325 L370.975568,2650.35325 Z M370.975568,2651.3071 C371.628409,2651.3071 372.153363,2651.82106 372.153363,2652.45005 C372.153363,2653.0789 371.628177,2653.59301 370.975568,2653.59301 C370.322958,2653.59301 369.797773,2653.0789 369.797773,2652.45005 C369.797773,2651.82106 370.322726,2651.3071 370.975568,2651.3071 L370.975568,2651.3071 L370.975568,2651.3071 Z M378.122857,2635.82429 C379.295381,2635.82429 380.248804,2634.88445 380.248804,2633.7219 C380.248804,2632.55935 379.295381,2631.6195 378.122857,2631.6195 C376.950332,2631.6195 375.99691,2632.55935 375.99691,2633.7219 C375.99691,2634.88471 376.950218,2635.82429 378.122857,2635.82429 L378.122857,2635.82429 L378.122857,2635.82429 Z M378.122857,2634.87045 C377.473942,2634.87045 376.950756,2634.35479 376.950756,2633.7219 C376.950756,2633.08923 377.474089,2632.57335 378.122857,2632.57335 C378.771624,2632.57335 379.294958,2633.08923 379.294958,2633.7219 C379.294958,2634.35456 378.771624,2634.87045 378.122857,2634.87045 L378.122857,2634.87045 L378.122857,2634.87045 Z M391.395013,2633.7219 C391.395013,2634.88471 392.348321,2635.82429 393.52096,2635.82429 C394.693484,2635.82429 395.646907,2634.88445 395.646907,2633.7219 C395.646907,2632.55935 394.693484,2631.6195 393.52096,2631.6195 C392.348435,2631.6195 391.395013,2632.55935 391.395013,2633.7219 L391.395013,2633.7219 L391.395013,2633.7219 Z M392.348859,2633.7219 C392.348859,2633.08923 392.872192,2632.57335 393.52096,2632.57335 C394.169727,2632.57335 394.693061,2633.08923 394.693061,2633.7219 C394.693061,2634.35456 394.169727,2634.87045 393.52096,2634.87045 C392.872045,2634.87045 392.348859,2634.35479 392.348859,2633.7219 L392.348859,2633.7219 L392.348859,2633.7219 Z M376.950756,2642.92209 C376.950756,2641.76218 375.997005,2640.82529 374.824809,2640.82529 C373.652613,2640.82529 372.698862,2641.76218 372.698862,2642.92209 C372.698862,2644.08199 373.652613,2645.01889 374.824809,2645.01889 C375.99727,2645.01889 376.950756,2644.0821 376.950756,2642.92209 L376.950756,2642.92209 L376.950756,2642.92209 Z M375.99691,2642.92209 C375.99691,2643.5515 375.474212,2644.06504 374.824809,2644.06504 C374.175638,2644.06504 373.652708,2643.55135 373.652708,2642.92209 C373.652708,2642.29282 374.175638,2641.77913 374.824809,2641.77913 C375.47398,2641.77913 375.99691,2642.29282 375.99691,2642.92209 L375.99691,2642.92209 L375.99691,2642.92209 Z M383.696151,2633.7219 C383.696151,2634.88471 384.649459,2635.82429 385.822098,2635.82429 C386.994623,2635.82429 387.948045,2634.88445 387.948045,2633.7219 C387.948045,2632.55935 386.994623,2631.6195 385.822098,2631.6195 C384.649308,2631.6195 383.696151,2632.55924 383.696151,2633.7219 L383.696151,2633.7219 L383.696151,2633.7219 Z M384.649997,2633.7219 C384.649997,2633.08909 385.173098,2632.57335 385.822098,2632.57335 C386.470866,2632.57335 386.994199,2633.08923 386.994199,2633.7219 C386.994199,2634.35456 386.470866,2634.87045 385.822098,2634.87045 C385.173183,2634.87045 384.649997,2634.35479 384.649997,2633.7219 L384.649997,2633.7219 L384.649997,2633.7219 Z M399.093874,2633.7219 C399.093874,2634.88505 400.050168,2635.82429 401.225516,2635.82429 C402.400748,2635.82429 403.357157,2634.88479 403.357157,2633.7219 C403.357157,2632.55901 402.400748,2631.6195 401.225516,2631.6195 C400.050283,2631.6195 399.093874,2632.55901 399.093874,2633.7219 L399.093874,2633.7219 L399.093874,2633.7219 Z M400.047721,2633.7219 C400.047721,2633.08965 400.573308,2632.57335 401.225516,2632.57335 C401.877723,2632.57335 402.403311,2633.08965 402.403311,2633.7219 C402.403311,2634.35415 401.877723,2634.87045 401.225516,2634.87045 C400.57316,2634.87045 400.047721,2634.35438 400.047721,2633.7219 L400.047721,2633.7219 L400.047721,2633.7219 Z M412.774378,2645.01889 C416.986534,2645.01889 420.404663,2641.65846 420.404663,2637.50944 C420.404663,2633.36017 416.986661,2630 412.774378,2630 C410.818692,2630 408.978354,2630.73293 407.571665,2632.02654 L407.202326,2632.3662 L407.560281,2632.71782 L407.606214,2632.76294 L407.940429,2632.42271 L407.658579,2632.03799 C407.119636,2632.43281 406.793495,2633.04977 406.793495,2633.72264 C406.793495,2634.8858 407.749789,2635.82504 408.925136,2635.82504 C409.640997,2635.82504 410.297956,2635.47366 410.691959,2634.89879 L410.603883,2634.99555 C411.212975,2634.48797 411.974132,2634.20516 412.780451,2634.20516 C414.644697,2634.20516 416.153149,2635.68907 416.153149,2637.51541 C416.153149,2639.16535 414.912539,2640.55699 413.259164,2640.78811 L412.848268,2640.84555 L412.848268,2641.26044 L412.848268,2641.30594 L413.325191,2641.30594 L413.325191,2640.82901 L388.575406,2640.82901 L381.978414,2640.82566 L381.501248,2640.82542 L381.501248,2641.30258 L381.501248,2641.40065 L381.978172,2641.40065 L381.822206,2640.94995 C380.977075,2641.24241 380.398103,2642.02524 380.398103,2642.92246 C380.398103,2643.81951 380.977262,2644.60239 381.822123,2644.89493 L381.978172,2644.44426 L381.501248,2644.44426 L381.501248,2644.54234 L381.501248,2645.01926 L381.978172,2645.01926 L412.228499,2645.01926 L412.265793,2645.0178 C412.344762,2645.01161 412.413985,2645.01156 412.580726,2645.01573 C412.673294,2645.01805 412.718269,2645.01889 412.774378,2645.01889 L412.774378,2645.01889 L412.774378,2645.01889 Z M412.774378,2644.06504 C412.728814,2644.06504 412.693032,2644.06437 412.604555,2644.06218 C412.404914,2644.05719 412.31392,2644.05725 412.191225,2644.06687 L412.191214,2644.06687 L381.978172,2644.06541 L381.978172,2644.54234 L382.455095,2644.54234 L382.455095,2644.44426 L382.455095,2644.1047 L382.13422,2643.99359 C381.667079,2643.83184 381.351949,2643.40586 381.351949,2642.92246 C381.351949,2642.43887 381.666883,2642.01305 382.134137,2641.85135 L382.455095,2641.74029 L382.455095,2641.40065 L382.455095,2641.30258 L381.978172,2641.30258 L381.977929,2641.7795 L388.575164,2641.78286 L413.325191,2641.78286 L413.802114,2641.78286 L413.802114,2641.30594 L413.802114,2641.26044 L413.325191,2641.26044 L413.391218,2641.73277 C415.510968,2641.43645 417.106995,2639.64613 417.106995,2637.51541 C417.106995,2635.15874 415.168021,2633.25131 412.780451,2633.25131 C411.748102,2633.25131 410.771637,2633.61412 409.993245,2634.26278 L409.905169,2634.35954 C409.687785,2634.67672 409.324185,2634.87119 408.925136,2634.87119 C408.272781,2634.87119 407.747341,2634.35512 407.747341,2633.72264 C407.747341,2633.36 407.923878,2633.02605 408.22228,2632.80744 L408.67501,2632.47577 L408.274645,2632.08249 L408.228712,2632.03737 L407.894496,2632.37759 L408.217328,2632.72864 C409.449747,2631.59529 411.06037,2630.95385 412.774378,2630.95385 C416.463475,2630.95385 419.450817,2633.89065 419.450817,2637.50944 C419.450817,2641.128 416.46334,2644.06504 412.774378,2644.06504 L412.774378,2644.06504 L412.774378,2644.06504 Z M392.429582,2660.0837 C391.257057,2660.0837 390.303635,2661.02355 390.303635,2662.1861 C390.303635,2663.34865 391.257057,2664.28849 392.429582,2664.28849 C393.602107,2664.28849 394.555529,2663.34865 394.555529,2662.1861 C394.555529,2661.02355 393.602107,2660.0837 392.429582,2660.0837 L392.429582,2660.0837 L392.429582,2660.0837 Z M392.429582,2661.03755 C393.07835,2661.03755 393.601683,2661.55343 393.601683,2662.1861 C393.601683,2662.81876 393.07835,2663.33465 392.429582,2663.33465 C391.780814,2663.33465 391.257481,2662.81876 391.257481,2662.1861 C391.257481,2661.55343 391.780814,2661.03755 392.429582,2661.03755 L392.429582,2661.03755 L392.429582,2661.03755 Z M407.827306,2660.0837 C406.654781,2660.0837 405.701359,2661.02355 405.701359,2662.1861 C405.701359,2663.34865 406.654781,2664.28849 407.827306,2664.28849 C408.99983,2664.28849 409.953253,2663.34865 409.953253,2662.1861 C409.953253,2661.02355 408.99983,2660.0837 407.827306,2660.0837 L407.827306,2660.0837 L407.827306,2660.0837 Z M407.827306,2661.03755 C408.476073,2661.03755 408.999407,2661.55343 408.999407,2662.1861 C408.999407,2662.81876 408.476073,2663.33465 407.827306,2663.33465 C407.178538,2663.33465 406.655205,2662.81876 406.655205,2662.1861 C406.655205,2661.55343 407.178538,2661.03755 407.827306,2661.03755 L407.827306,2661.03755 L407.827306,2661.03755 Z M400.128444,2660.0837 C398.955919,2660.0837 398.002497,2661.02355 398.002497,2662.1861 C398.002497,2663.34865 398.955919,2664.28849 400.128444,2664.28849 C401.300969,2664.28849 402.254391,2663.34865 402.254391,2662.1861 C402.254391,2661.02355 401.300969,2660.0837 400.128444,2660.0837 L400.128444,2660.0837 L400.128444,2660.0837 Z M400.128444,2661.03755 C400.777212,2661.03755 401.300545,2661.55343 401.300545,2662.1861 C401.300545,2662.81876 400.777212,2663.33465 400.128444,2663.33465 C399.479676,2663.33465 398.956343,2662.81876 398.956343,2662.1861 C398.956343,2661.55343 399.479676,2661.03755 400.128444,2661.03755 L400.128444,2661.03755 L400.128444,2661.03755 Z M377.025405,2660.0837 C375.849908,2660.0837 374.893764,2661.0231 374.893764,2662.1861 C374.893764,2663.34899 375.850173,2664.28849 377.025405,2664.28849 C378.200638,2664.28849 379.157047,2663.34899 379.157047,2662.1861 C379.157047,2661.0231 378.200903,2660.0837 377.025405,2660.0837 L377.025405,2660.0837 L377.025405,2660.0837 Z M377.025405,2661.03755 C377.677845,2661.03755 378.2032,2661.5537 378.2032,2662.1861 C378.2032,2662.81835 377.677613,2663.33465 377.025405,2663.33465 C376.373198,2663.33465 375.84761,2662.81835 375.84761,2662.1861 C375.84761,2661.5537 376.372966,2661.03755 377.025405,2661.03755 L377.025405,2661.03755 L377.025405,2661.03755 Z M418.824752,2650.38048 L394.624642,2650.35325 L394.147182,2650.35272 L394.147182,2650.83018 L394.147182,2650.92825 L394.624105,2650.92825 L394.77987,2650.47748 C394.546204,2650.39674 394.314988,2650.35325 394.078227,2650.35325 C392.906031,2650.35325 391.952279,2651.29015 391.952279,2652.45005 C391.952279,2653.60996 392.906031,2654.54685 394.078227,2654.54685 C394.315567,2654.54685 394.546986,2654.50343 394.780435,2654.42243 L394.624105,2653.97186 L394.147182,2653.97186 L394.147182,2654.06993 L394.147182,2654.54685 L394.624105,2654.54685 L395.175298,2654.54685 L419.924833,2654.54014 L419.924703,2654.06322 L419.44778,2654.06322 L419.44778,2654.11281 L419.44778,2654.52732 L419.85824,2654.58508 C421.509858,2654.81752 422.748486,2656.20844 422.748486,2657.8571 C422.748486,2659.68358 421.240275,2661.16735 419.375788,2661.16735 C418.569992,2661.16735 417.810178,2660.88726 417.205702,2660.38451 L417.295996,2660.4843 C416.903938,2659.90364 416.245451,2659.54747 415.526547,2659.54747 C414.354351,2659.54747 413.4006,2660.48437 413.4006,2661.64427 C413.4006,2662.34459 413.752327,2662.98564 414.3264,2663.37365 L414.593467,2662.97851 L414.259251,2662.63828 L414.205347,2662.69123 L413.845258,2663.04496 L414.21882,2663.38442 C415.616587,2664.65461 417.43915,2665.37214 419.375788,2665.37214 C423.584638,2665.37214 427,2662.01161 427,2657.8627 C427,2653.71379 423.584638,2650.35325 419.375788,2650.35325 C419.209028,2650.35325 419.081745,2650.36024 418.803635,2650.3807 C418.796437,2650.38123 418.796437,2650.38123 418.789255,2650.38176 L418.789246,2650.38176 L418.824752,2650.38048 L418.824752,2650.38048 Z M418.859185,2651.33304 L418.859194,2651.33304 C418.866418,2651.33251 418.866418,2651.33251 418.873624,2651.33198 C419.128606,2651.31322 419.240044,2651.3071 419.375788,2651.3071 C423.061267,2651.3071 426.046154,2654.24407 426.046154,2657.8627 C426.046154,2661.48132 423.061267,2664.41829 419.375788,2664.41829 C417.678528,2664.41829 416.084059,2663.79056 414.860304,2662.6785 L414.539562,2663.03146 L414.873777,2663.37169 L414.927682,2663.31874 L415.343779,2662.91 L414.860533,2662.58338 C414.544987,2662.3701 414.354446,2662.02283 414.354446,2661.64427 C414.354446,2661.01501 414.877376,2660.50132 415.526547,2660.50132 C415.925848,2660.50132 416.289314,2660.69791 416.505471,2661.01806 L416.595766,2661.11785 C417.369956,2661.76176 418.345007,2662.1212 419.375788,2662.1212 C421.763613,2662.1212 423.702332,2660.21389 423.702332,2657.8571 C423.702332,2655.72802 422.108798,2653.93856 419.991167,2653.64055 L419.924703,2654.11281 L420.401626,2654.11281 L420.401626,2654.06322 L420.401626,2653.58617 L419.924574,2653.5863 L395.175169,2653.59301 L394.624105,2653.59301 L394.624105,2654.06993 L395.101028,2654.06993 L395.101028,2653.97186 L395.101028,2653.30157 L394.467775,2653.52129 C394.329933,2653.56911 394.202578,2653.59301 394.078227,2653.59301 C393.429056,2653.59301 392.906126,2653.07932 392.906126,2652.45005 C392.906126,2651.82079 393.429056,2651.3071 394.078227,2651.3071 C394.202004,2651.3071 394.32972,2651.33112 394.468341,2651.37902 L395.101028,2651.59765 L395.101028,2650.92825 L395.101028,2650.83018 L394.624105,2650.83018 L394.623569,2651.3071 L418.823679,2651.33432 L418.859185,2651.33304 L418.859185,2651.33304 Z M378.680503,2650.35325 C377.508307,2650.35325 376.554556,2651.29015 376.554556,2652.45005 C376.554556,2653.60996 377.508307,2654.54685 378.680503,2654.54685 C379.852699,2654.54685 380.80645,2653.60996 380.80645,2652.45005 C380.80645,2651.29015 379.852699,2650.35325 378.680503,2650.35325 L378.680503,2650.35325 L378.680503,2650.35325 Z M378.680503,2651.3071 C379.329674,2651.3071 379.852604,2651.82079 379.852604,2652.45005 C379.852604,2653.07932 379.329674,2653.59301 378.680503,2653.59301 C378.031332,2653.59301 377.508402,2653.07932 377.508402,2652.45005 C377.508402,2651.82079 378.031332,2651.3071 378.680503,2651.3071 L378.680503,2651.3071 L378.680503,2651.3071 Z M386.379365,2650.35325 C385.207169,2650.35325 384.253418,2651.29015 384.253418,2652.45005 C384.253418,2653.60996 385.207169,2654.54685 386.379365,2654.54685 C387.551561,2654.54685 388.505312,2653.60996 388.505312,2652.45005 C388.505312,2651.29015 387.551561,2650.35325 386.379365,2650.35325 L386.379365,2650.35325 L386.379365,2650.35325 Z M386.379365,2651.3071 C387.028536,2651.3071 387.551466,2651.82079 387.551466,2652.45005 C387.551466,2653.07932 387.028536,2653.59301 386.379365,2653.59301 C385.730194,2653.59301 385.207264,2653.07932 385.207264,2652.45005 C385.207264,2651.82079 385.730194,2651.3071 386.379365,2651.3071 L386.379365,2651.3071 L386.379365,2651.3071 Z M384.724647,2660.0837 C383.549149,2660.0837 382.593006,2661.0231 382.593006,2662.1861 C382.593006,2663.34899 383.549414,2664.28849 384.724647,2664.28849 C385.899879,2664.28849 386.856288,2663.34899 386.856288,2662.1861 C386.856288,2661.02321 385.899879,2660.0837 384.724647,2660.0837 L384.724647,2660.0837 L384.724647,2660.0837 Z M367.125947,2641.30221 C366.215264,2641.30221 365.476923,2642.0275 365.476923,2642.92209 C365.476923,2643.81667 366.215264,2644.54196 367.125947,2644.54196 C368.03663,2644.54196 368.774971,2643.81667 368.774971,2642.92209 C368.774971,2642.0275 368.03663,2641.30221 367.125947,2641.30221 L367.125947,2641.30221 Z M370.975568,2650.83018 C370.061468,2650.83018 369.32085,2651.55547 369.32085,2652.45005 C369.32085,2653.34464 370.061847,2654.06993 370.975568,2654.06993 C371.889288,2654.06993 372.630286,2653.34464 372.630286,2652.45005 C372.630286,2651.55547 371.889668,2650.83018 370.975568,2650.83018 L370.975568,2650.83018 Z M378.122857,2635.34737 C379.03354,2635.34737 379.771881,2634.61947 379.771881,2633.7219 C379.771881,2632.82433 379.03354,2632.09643 378.122857,2632.09643 C377.212173,2632.09643 376.473833,2632.82433 376.473833,2633.7219 C376.473833,2634.61984 377.212173,2635.34737 378.122857,2635.34737 L378.122857,2635.34737 Z M391.871936,2633.7219 C391.871936,2634.61984 392.610276,2635.34737 393.52096,2635.34737 C394.431643,2635.34737 395.169984,2634.61947 395.169984,2633.7219 C395.169984,2632.82433 394.431643,2632.09643 393.52096,2632.09643 C392.610276,2632.09643 391.871936,2632.82433 391.871936,2633.7219 L391.871936,2633.7219 Z M376.473833,2642.92209 C376.473833,2642.0275 375.735492,2641.30221 374.824809,2641.30221 C373.914125,2641.30221 373.175785,2642.0275 373.175785,2642.92209 C373.175785,2643.81667 373.914125,2644.54196 374.824809,2644.54196 C375.735872,2644.54196 376.473833,2643.81667 376.473833,2642.92209 L376.473833,2642.92209 Z M384.173074,2633.7219 C384.173074,2634.61984 384.911415,2635.34737 385.822098,2635.34737 C386.732781,2635.34737 387.471122,2634.61947 387.471122,2633.7219 C387.471122,2632.82433 386.732781,2632.09643 385.822098,2632.09643 C384.911035,2632.09643 384.173074,2632.82433 384.173074,2633.7219 L384.173074,2633.7219 Z M399.570797,2633.7219 C399.570797,2634.61984 400.311795,2635.34737 401.225516,2635.34737 C402.139236,2635.34737 402.880234,2634.61947 402.880234,2633.7219 C402.880234,2632.82433 402.139236,2632.09643 401.225516,2632.09643 C400.311795,2632.09643 399.570797,2632.82433 399.570797,2633.7219 L399.570797,2633.7219 Z M419.92774,2637.50944 C419.92774,2633.62532 416.724974,2630.47692 412.774378,2630.47692 C410.88582,2630.47692 409.173022,2631.20184 407.894496,2632.37759 L407.940429,2632.42271 C407.535765,2632.71917 407.270418,2633.18865 407.270418,2633.72264 C407.270418,2634.62059 408.011416,2635.34811 408.925136,2635.34811 C409.497208,2635.34811 410.00133,2635.06285 410.298564,2634.62916 C410.969334,2634.07019 411.832566,2633.72824 412.780451,2633.72824 C414.906265,2633.72824 416.630072,2635.42381 416.630072,2637.51541 C416.630072,2639.42466 415.192491,2640.99941 413.325191,2641.26044 L413.325191,2641.30594 L388.575406,2641.30594 L381.978172,2641.30258 L381.978172,2641.40065 C381.337011,2641.62253 380.875026,2642.21693 380.875026,2642.92246 C380.875026,2643.62799 381.337391,2644.22239 381.978172,2644.44426 L381.978172,2644.54234 L412.228499,2644.54234 C412.409193,2644.52817 412.589887,2644.54196 412.774378,2644.54196 C416.724974,2644.54196 419.92774,2641.3932 419.92774,2637.50944 L419.92774,2637.50944 Z M392.429582,2660.56063 C391.518899,2660.56063 390.780558,2661.28853 390.780558,2662.1861 C390.780558,2663.08367 391.518899,2663.81157 392.429582,2663.81157 C393.340266,2663.81157 394.078606,2663.08367 394.078606,2662.1861 C394.078606,2661.28853 393.340266,2660.56063 392.429582,2660.56063 L392.429582,2660.56063 Z M407.827306,2660.56063 C406.916622,2660.56063 406.178282,2661.28853 406.178282,2662.1861 C406.178282,2663.08367 406.916622,2663.81157 407.827306,2663.81157 C408.737989,2663.81157 409.47633,2663.08367 409.47633,2662.1861 C409.47633,2661.28853 408.737989,2660.56063 407.827306,2660.56063 L407.827306,2660.56063 Z M400.128444,2660.56063 C399.217761,2660.56063 398.47942,2661.28853 398.47942,2662.1861 C398.47942,2663.08367 399.217761,2663.81157 400.128444,2663.81157 C401.039127,2663.81157 401.777468,2663.08367 401.777468,2662.1861 C401.777468,2661.28853 401.039127,2660.56063 400.128444,2660.56063 L400.128444,2660.56063 Z M377.025405,2660.56063 C376.111306,2660.56063 375.370687,2661.28853 375.370687,2662.1861 C375.370687,2663.08367 376.111685,2663.81157 377.025405,2663.81157 C377.939126,2663.81157 378.680124,2663.08367 378.680124,2662.1861 C378.680124,2661.28853 377.939505,2660.56063 377.025405,2660.56063 L377.025405,2660.56063 Z M418.824215,2650.8574 L394.624105,2650.83018 L394.624105,2650.92825 C394.452522,2650.86896 394.270689,2650.83018 394.078227,2650.83018 C393.167543,2650.83018 392.429203,2651.55547 392.429203,2652.45005 C392.429203,2653.34464 393.167543,2654.06993 394.078227,2654.06993 C394.270689,2654.06993 394.452142,2654.03152 394.624105,2653.97186 L394.624105,2654.06993 L395.175298,2654.06993 L419.924703,2654.06322 L419.924703,2654.11281 C421.790105,2654.37534 423.225409,2655.94935 423.225409,2657.8571 C423.225409,2659.9487 421.501981,2661.64427 419.375788,2661.64427 C418.431319,2661.64427 417.569226,2661.30717 416.900734,2660.75118 C416.605397,2660.31377 416.100896,2660.0244 415.526547,2660.0244 C414.615864,2660.0244 413.877523,2660.74969 413.877523,2661.64427 C413.877523,2662.1984 414.161471,2662.68653 414.593467,2662.97851 L414.539562,2663.03146 C415.811254,2664.18708 417.507729,2664.89522 419.375788,2664.89522 C423.322968,2664.89522 426.523077,2661.74645 426.523077,2657.8627 C426.523077,2653.97894 423.322968,2650.83018 419.375788,2650.83018 C419.1894,2650.83018 419.006807,2650.84397 418.824215,2650.8574 L418.824215,2650.8574 Z M378.680503,2650.83018 C377.76982,2650.83018 377.031479,2651.55547 377.031479,2652.45005 C377.031479,2653.34464 377.76982,2654.06993 378.680503,2654.06993 C379.591187,2654.06993 380.329527,2653.34464 380.329527,2652.45005 C380.329527,2651.55547 379.591187,2650.83018 378.680503,2650.83018 L378.680503,2650.83018 Z M386.379365,2650.83018 C385.468681,2650.83018 384.730341,2651.55547 384.730341,2652.45005 C384.730341,2653.34464 385.468681,2654.06993 386.379365,2654.06993 C387.290048,2654.06993 388.028389,2653.34464 388.028389,2652.45005 C388.028389,2651.55547 387.290048,2650.83018 386.379365,2650.83018 L386.379365,2650.83018 Z M384.724647,2660.56063 C383.810547,2660.56063 383.069929,2661.28853 383.069929,2662.1861 C383.069929,2663.08367 383.810927,2663.81157 384.724647,2663.81157 C385.638367,2663.81157 386.379365,2663.08367 386.379365,2662.1861 C386.379365,2661.28853 385.638367,2660.56063 384.724647,2660.56063 L384.724647,2660.56063 Z" id="Combined-Shape"></path>
        </g>
    </g>
</svg>