<?xml version="1.0" encoding="UTF-8" standalone="no"?>
<svg width="64px" height="64px" viewBox="0 0 64 64" version="1.1" xmlns="http://www.w3.org/2000/svg" xmlns:xlink="http://www.w3.org/1999/xlink">
    <!-- Generator: Sketch 3.8.3 (29802) - http://www.bohemiancoding.com/sketch -->
    <title>32</title>
    <desc>Created with Sketch.</desc>
    <defs>
        <linearGradient x1="1.12703284%" y1="48.8729672%" x2="98.8729672%" y2="48.8729672%" id="linearGradient-1">
            <stop stop-color="#FFFFFF" stop-opacity="0.8" offset="0%"></stop>
            <stop stop-color="#FFFFFF" stop-opacity="0.9" offset="100%"></stop>
        </linearGradient>
    </defs>
    <g id="天气图标" stroke="none" stroke-width="1" fill="none" fill-rule="evenodd">
        <g id="天气图标_默认背景" transform="translate(-364.000000, -2867.000000)" fill="url(#linearGradient-1)">
            <path d="M367.534198,2892.09504 L393.592594,2892.09504 C398.02926,2892.09504 401.638838,2888.48546 401.638838,2884.0488 C401.638838,2879.60958 398.02926,2876 393.592594,2876 C389.367805,2876 385.896075,2879.27006 385.569324,2883.41061 L388.650484,2883.41061 C388.964472,2880.96508 391.060273,2879.06584 393.592594,2879.06584 C396.339345,2879.06584 398.572995,2881.29949 398.572995,2884.0488 C398.572995,2886.79555 396.339345,2889.0292 393.592594,2889.0292 L367.534198,2889.0292 C366.68924,2889.0292 366,2889.71333 366,2890.55829 C366,2890.97183 366.15827,2891.3573 366.44673,2891.64576 C366.737743,2891.93677 367.123207,2892.09504 367.534198,2892.09504 Z M415.30469,2906.40444 L367.535219,2906.40444 C366.690262,2906.40444 366.001021,2907.09113 366.001021,2907.93609 C366.001021,2908.78104 366.690262,2909.46518 367.535219,2909.46518 L415.30469,2909.46518 C418.051441,2909.46518 420.285091,2911.70138 420.285091,2914.45068 C420.285091,2917.19744 418.051441,2919.42853 415.30469,2919.42853 C412.77237,2919.42853 410.676568,2917.53184 410.360028,2915.08887 L407.28142,2915.08887 C407.608172,2919.22942 411.082454,2922.49948 415.30469,2922.49948 C419.738804,2922.49948 423.345829,2918.8899 423.345829,2914.45068 C423.345829,2910.01402 419.738804,2906.40444 415.30469,2906.40444 Z M405.225697,2892.09504 L408.33749,2892.09504 C408.214958,2891.57939 408.153693,2891.07394 408.153693,2890.5634 C408.153693,2886.61686 411.36249,2883.41061 415.303924,2883.41061 C419.250464,2883.41061 422.459262,2886.61686 422.459262,2890.5634 C422.459262,2894.28785 419.643587,2897.34093 415.91403,2897.65747 C415.850211,2897.68044 415.732785,2897.71363 415.584726,2897.71363 L367.534454,2897.71363 C366.689496,2897.71363 366.000255,2898.40287 366.000255,2899.25038 C366.000255,2899.65882 366.158525,2900.04173 366.446985,2900.33019 C366.735445,2900.6212 367.123462,2900.77947 367.534454,2900.77947 L415.303924,2900.77947 C420.937827,2900.77947 425.52,2896.1973 425.52,2890.5634 C425.52,2884.92694 420.937827,2880.34222 415.303924,2880.34222 C409.667469,2880.34222 405.082743,2884.92694 405.082743,2890.5634 C405.082743,2891.04331 405.128693,2891.53854 405.225697,2892.09504 Z" id="Combined-Shape"></path>
        </g>
    </g>
</svg>