<?xml version="1.0" encoding="UTF-8" standalone="no"?>
<svg width="64px" height="64px" viewBox="0 0 64 64" version="1.1" xmlns="http://www.w3.org/2000/svg" xmlns:xlink="http://www.w3.org/1999/xlink">
    <!-- Generator: Sketch 3.8.3 (29802) - http://www.bohemiancoding.com/sketch -->
    <title>8</title>
    <desc>Created with Sketch.</desc>
    <defs>
        <linearGradient x1="50%" y1="0%" x2="50%" y2="100%" id="linearGradient-1">
            <stop stop-color="#EAE6C5" offset="0%"></stop>
            <stop stop-color="#D8C7A0" offset="100%"></stop>
        </linearGradient>
        <linearGradient x1="50%" y1="0%" x2="50%" y2="97.7459343%" id="linearGradient-2">
            <stop stop-color="#FFFFFF" stop-opacity="0.8" offset="0%"></stop>
            <stop stop-color="#FFFFFF" stop-opacity="0.9" offset="100%"></stop>
        </linearGradient>
    </defs>
    <g id="天气图标" stroke="none" stroke-width="1" fill="none" fill-rule="evenodd">
        <g id="天气图标_默认背景" transform="translate(-364.000000, -748.000000)">
            <g id="Group-4" transform="translate(364.000000, 753.000000)">
                <g id="Group">
                    <path d="M46.6181987,34.3893333 L46.6142486,34.3858876 C41.9464579,34.3594983 37.5619736,32.5300666 34.2578945,29.2266598 C30.9309979,25.8991329 29.0986667,21.4754008 29.0986667,16.7688666 C29.0986667,12.8998134 30.3407691,9.24758924 32.6921453,6.20778099 C33.8181434,4.75082447 35.1663072,3.48233275 36.6979352,2.43604872 C38.2458254,1.37963761 39.9440672,0.574512845 41.7466895,0.0442902715 C41.8464897,0.0145813462 41.9509122,0 42.0552927,0 C42.3806203,0 42.6875845,0.143628194 42.8968498,0.394914549 C43.1755759,0.731587806 43.2273038,1.20003931 43.0279977,1.58991132 C41.9531813,3.68487458 41.4527097,5.68054192 41.4527097,7.87190164 C41.4527097,15.6809396 47.8064301,22.03466 55.6154681,22.03466 C57.8074581,22.03466 59.8036296,21.5341884 61.8974584,20.4605065 C62.0517599,20.3813807 62.2239625,20.339864 62.396123,20.339864 C62.6503929,20.339864 62.8970989,20.4289907 63.0924552,20.5911503 C63.4279518,20.8693721 63.5659912,21.320469 63.4435417,21.7406802 C62.9095792,23.5488913 62.1044544,25.2471331 61.051321,26.7901067 C60.0061715,28.3210625 58.7370074,29.6693523 57.280051,30.7958968 C54.2404108,33.1471048 50.5880605,34.3892073 46.7191334,34.3892073 L46.6181987,34.3892073 L46.6181987,34.3893333 L46.6181987,34.3893333 Z" id="Shape" fill="url(#linearGradient-1)"></path>
                    <path d="M9.69955556,53.9733333 C4.34263894,53.9733333 0,49.5517373 0,44.0974222 C0,39.4873979 3.1022708,35.6151219 7.29716699,34.5267785 C7.77261091,24.7316554 15.7231484,16.9386667 25.4613333,16.9386667 C32.5873883,16.9386667 38.756196,21.1116472 41.7391633,27.1884953 C42.740411,26.9440436 43.7855785,26.8145778 44.8604444,26.8145778 C52.2262048,26.8145778 58.1973333,32.8942723 58.1973333,40.3939556 C58.1973333,47.4775053 52.8704587,53.2942758 46.0728889,53.9179751 L46.0728889,53.9733333 L9.69955556,53.9733333 L9.69955556,53.9733333 Z" id="Combined-Shape" fill="url(#linearGradient-2)"></path>
                </g>
            </g>
        </g>
    </g>
</svg>