<svg class="icon" width="200" height="200" viewBox="0 0 1024 1024" version="1.1" xmlns="http://www.w3.org/2000/svg"><title>10</title><g class="nc-icon-wrapper"><path d="M401.82 210a138.1 138.1 0 0 0-98.54-43C226.83 166 163.6 227.93 163 304.38a137.92 137.92 0 0 0 32.71 90.5c17.73 20.95 51.16 17.72 64.14-6.45C286 339.72 332.21 298.44 391 270.1a37.81 37.81 0 0 0 10.82-60.1z" fill="#F7D134"/><path d="M234.41 427.47a16.31 16.31 0 0 1-4.39-.61 154.41 154.41 0 0 1-106.2-190.81c23.33-81.88 108.92-129.52 190.8-106.2A154.45 154.45 0 0 1 423.94 249a16 16 0 0 1-31.41 6.12 122.43 122.43 0 1 0-153.74 141 16 16 0 0 1-4.38 31.39zM321.2 118.8a12.16 12.16 0 0 1-3.3-.46 12 12 0 0 1-8.25-14.83l18.82-66.07A12 12 0 1 1 351.55 44l-18.82 66.06a12 12 0 0 1-11.53 8.74z"/><path d="M185.58 134.49a12 12 0 0 1-10.5-6.16l-33.4-60a12 12 0 1 1 21-11.67l33.4 60a12 12 0 0 1-10.47 17.84zm-84.81 107a12.09 12.09 0 0 1-3.29-.46l-66.07-18.82A12 12 0 1 1 38 199.13l66.06 18.81a12 12 0 0 1-3.28 23.55zM56.44 410.52A12 12 0 0 1 50.6 388l60-33.41a12 12 0 1 1 11.67 21l-60 33.41a11.94 11.94 0 0 1-5.83 1.52zM428.2 203.6a12 12 0 0 1-5.85-22.48l60-33.41a12 12 0 0 1 11.67 21l-60 33.41a11.89 11.89 0 0 1-5.82 1.48z"/><path d="M782.4 435.17c-28.24-98.68-119.12-170.92-226.88-170.92-110 0-202.49 75.33-228.6 177.23a211.72 211.72 0 0 0-21.48-1.1c-115 0-208.31 93.27-208.31 208.31S190.39 857 305.44 857h443.14c117.23 0 212.26-95 212.26-212.26 0-105.74-77.29-193.37-178.44-209.57z" fill="#CEE9F4"/><path d="M698.58 843H508a16 16 0 0 1 0-32h190.58c108.22 0 196.26-88 196.26-196.26 0-97-69.38-178.46-165-193.77A16 16 0 0 1 717 409.58c-26.85-93.81-113.82-159.33-211.5-159.33a219.8 219.8 0 0 0-213.1 165.2 16 16 0 0 1-17.13 11.95 196.18 196.18 0 0 0-19.85-1c-106 0-192.31 86.27-192.31 192.31S149.4 811 255.44 811h26.4a16 16 0 0 1 0 32h-26.4a224.31 224.31 0 0 1 0-448.62q4.81 0 9.66.21a252.06 252.06 0 0 1 479.73-3.4A228.27 228.27 0 0 1 698.58 843z"/><path d="M478 907.9c0 55.72-30.91 77.3-69 77.3s-69-21.58-69-77.3 69-124.49 69-124.49 69 68.77 69 124.49z" fill="#F7D134"/><path d="M396 969.59c-22.35 0-41.18-6.93-54.44-20.06-15-14.83-22.6-36.78-22.6-65.23 0-58.37 68.48-127.26 71.39-130.16a8 8 0 0 1 11.29 0C404.55 757 473 825.93 473 884.3c0 28.45-7.6 50.4-22.59 65.23-13.25 13.13-32.08 20.06-54.41 20.06zm0-198.16c-16.1 17.5-61 70.19-61 112.87 0 57.27 33.19 69.29 61 69.29s61-12 61-69.29c0-42.74-44.91-95.38-61-112.87z"/></g></svg>