<svg class="icon" width="200" height="200" viewBox="0 0 1024 1024" version="1.1" xmlns="http://www.w3.org/2000/svg"><title>11</title><g class="nc-icon-wrapper"><path d="M802.4 258.17C774.16 159.49 683.28 87.25 575.52 87.25c-110 0-202.49 75.33-228.6 177.23a211.72 211.72 0 0 0-21.48-1.1c-115 0-208.31 93.27-208.31 208.31S210.39 680 325.44 680h169.88l4.39-14.73L398 671.61l92.48-244.93L467.36 616H599l-40.11 64h209.69c117.23 0 212.26-95 212.26-212.26 0-105.74-77.29-193.37-178.44-209.57z" fill="#CEE9F4"/><path d="M718.58 666h-36.22a16 16 0 0 1 0-32h36.22c108.22 0 196.26-88 196.26-196.26 0-97-69.38-178.46-165-193.77A16 16 0 0 1 737 232.58C710.17 138.77 623.2 73.25 525.52 73.25a219.8 219.8 0 0 0-213.1 165.2 16 16 0 0 1-17.13 12 196.18 196.18 0 0 0-19.85-1c-106 0-192.31 86.27-192.31 192.31S169.4 634 275.44 634h87.24a16 16 0 1 1 0 32h-87.24a224.31 224.31 0 0 1 0-448.62q4.81 0 9.66.21a252.06 252.06 0 0 1 479.73-3.4A228.27 228.27 0 0 1 718.58 666z"/><path d="M479.17 522.08L397 693l95.2.84a14.67 14.67 0 0 1 14.25 17.6l-29.94 147.22c-3.19 15.69 17.48 24.42 26.5 11.19l153.35-224.91A14.67 14.67 0 0 0 644.23 622h-144.7a14.67 14.67 0 0 1-14.35-17.76l16.05-74.65c2.92-13.59-16.03-20.04-22.06-7.51z" fill="#F7D134"/><path d="M444 956a12 12 0 0 1-11.61-15l61.36-234-113.06 6.51a12 12 0 0 1-11.69-16.8l140-324.46a12 12 0 0 1 22.77 7.18L486.08 600H639a12 12 0 0 1 10.35 18.08l-195 332A12 12 0 0 1 444 956zm65.54-274a12 12 0 0 1 11.61 15l-43.52 166L618 624H471.34a12 12 0 0 1-11.75-14.43l24.79-119.72-85.66 198.52L508.85 682z"/></g></svg>