<svg class="icon" width="200" height="200" viewBox="0 0 1024 1024" version="1.1" xmlns="http://www.w3.org/2000/svg"><title>12</title><g class="nc-icon-wrapper"><path d="M784.4 293.17c-28.24-98.68-119.12-170.92-226.88-170.92-110 0-202.49 75.33-228.6 177.23a211.72 211.72 0 0 0-21.48-1.1c-115 0-208.31 93.27-208.31 208.31S192.39 715 307.44 715h443.14c117.23 0 212.26-95 212.26-212.26 0-105.74-77.29-193.37-178.44-209.57z" fill="#CEE9F4"/><path d="M700.58 701h-153.5a16 16 0 1 1 0-32h153.5c108.22 0 196.26-88 196.26-196.26 0-97-69.38-178.46-165-193.77A16 16 0 0 1 719 267.58c-26.85-93.81-113.82-159.33-211.5-159.33a219.8 219.8 0 0 0-213.1 165.2 16 16 0 0 1-17.13 11.95 196.18 196.18 0 0 0-19.85-1c-106 0-192.31 86.27-192.31 192.31S151.4 669 257.44 669h26.4a16 16 0 0 1 0 32h-26.4a224.31 224.31 0 0 1 0-448.62q4.81 0 9.66.21a252.06 252.06 0 0 1 479.73-3.4A228.27 228.27 0 0 1 700.58 701z"/><path d="M476.1 747.6a8 8 0 0 1-4-1.06l-144.86-83.1a8 8 0 1 1 8-13.88l144.86 83.1a8 8 0 0 1-4 14.94z"/><path d="M331.5 748.42a8 8 0 0 1-4-14.91l144.36-83.91a8 8 0 0 1 8 13.84l-144.39 83.9a8 8 0 0 1-3.97 1.08z"/><path d="M404.28 790.18a8 8 0 0 1-8-8l-.46-167a8 8 0 0 1 8-8 8 8 0 0 1 8 8l.46 167a8 8 0 0 1-8 8zm299.31 128.29a12 12 0 0 1-6-1.59L518.94 814.37a12 12 0 1 1 11.95-20.81l178.68 102.5a12 12 0 0 1-6 22.41z"/><path d="M525.21 919.49a12 12 0 0 1-6-22.38l178.08-103.49a12 12 0 0 1 12.06 20.75L531.23 917.86a12 12 0 0 1-6.02 1.63z"/><path d="M615 971a12 12 0 0 1-12-12l-.57-206a12 12 0 0 1 12-12 12 12 0 0 1 12 12l.57 206a12 12 0 0 1-12 12z"/></g></svg>