<svg class="icon" width="200" height="200" viewBox="0 0 1024 1024" version="1.1" xmlns="http://www.w3.org/2000/svg"><title>1</title><g class="nc-icon-wrapper"><path d="M570.67 172.32A358.8 358.8 0 0 1 630 370.54c0 199.13-161.39 360.56-360.52 360.56a362.46 362.46 0 0 1-61.24-5.21c64.49 97.79 175.3 162.34 301.2 162.34C708.57 888.23 870 726.8 870 527.67c0-178.25-129.36-326.27-299.33-355.35z" fill="#F7D134"/><path d="M457.81 886.68a375.86 375.86 0 0 1-314.55-169.53 16 16 0 0 1 16.05-24.57 348.2 348.2 0 0 0 58.54 5c190 0 344.56-154.57 344.56-344.56a343.06 343.06 0 0 0-56.72-189.41A16 16 0 0 1 521.75 139a376.55 376.55 0 0 1-63.94 747.68zM191.38 728.62a343.78 343.78 0 0 0 266.43 126.06c190 0 344.56-154.56 344.56-344.55 0-156.24-103.51-290.44-250.79-331.67a376.44 376.44 0 0 1-333.73 551.09c-8.85 0-17.65-.31-26.47-.93z"/></g></svg>