<?xml version="1.0" encoding="UTF-8" standalone="no"?>
<svg width="24px" height="24px" viewBox="0 0 24 24" version="1.1" xmlns="http://www.w3.org/2000/svg" xmlns:xlink="http://www.w3.org/1999/xlink">
    <!-- Generator: Sketch 3.8.3 (29802) - http://www.bohemiancoding.com/sketch -->
    <title>10</title>
    <desc>Created with Sketch.</desc>
    <defs></defs>
    <g id="天气图标" stroke="none" stroke-width="1" fill="none" fill-rule="evenodd">
        <g id="天气图标_白色背景" transform="translate(-204.000000, -585.000000)">
            <path d="M221.860465,597.455385 C225.251237,597.455385 228,594.667152 228,591.227692 C228,587.788233 225.251237,585 221.860465,585 C218.469694,585 215.72093,587.788233 215.72093,591.227692 C215.72093,594.667152 218.469694,597.455385 221.860465,597.455385 Z" id="Combined-Shape-Copy-4" fill="#FFD610"></path>
            <path d="M222.778037,592.682601 C222.778037,589.695139 220.331938,587.264615 217.325372,587.264615 C215.411175,587.264615 213.64565,588.268457 212.664417,589.868739 C212.054641,589.454696 211.334088,589.231848 210.580252,589.231848 C208.538489,589.231848 206.87764,590.882219 206.87764,592.910947 C206.87764,593.135111 206.897682,593.357312 206.937725,593.575244 C205.184654,594.207457 204,595.858691 204,597.753451 C204,600.165539 205.92425,601.984615 208.475599,601.984615 L221.288261,601.984615 C223.756188,601.984615 225.764051,599.989805 225.764051,597.537632 C225.764115,595.633082 224.512404,593.9315 222.728324,593.326306 C222.753999,593.112449 222.778037,592.864825 222.778037,592.682601 Z" id="Shape-Copy-5" fill-opacity="0.85" fill="#EDEDED"></path>
            <path d="M209.020999,604 L207.552786,607.604283" id="Line" stroke="#7DC5FF" stroke-width="1.5" stroke-linecap="round"></path>
            <path d="M215.020999,604 L213.552786,607.604283" id="Line" stroke="#7DC5FF" stroke-width="1.5" stroke-linecap="round"></path>
            <path d="M221.020999,604 L219.552786,607.604283" id="Line" stroke="#7DC5FF" stroke-width="1.5" stroke-linecap="round"></path>
        </g>
    </g>
</svg>