<?xml version="1.0" encoding="UTF-8" standalone="no"?>
<svg width="24px" height="24px" viewBox="0 0 24 24" version="1.1" xmlns="http://www.w3.org/2000/svg" xmlns:xlink="http://www.w3.org/1999/xlink">
    <!-- Generator: Sketch 3.8.3 (29802) - http://www.bohemiancoding.com/sketch -->
    <title>11</title>
    <desc>Created with Sketch.</desc>
    <defs></defs>
    <g id="天气图标" stroke="none" stroke-width="1" fill="none" fill-rule="evenodd">
        <g id="天气图标_白色背景" transform="translate(-204.000000, -635.000000)">
            <path d="M224.707216,640.889114 C224.707216,637.641874 222.009814,635 218.694366,635 C216.583512,635 214.636604,636.091132 213.554564,637.830569 C212.882141,637.380522 212.087563,637.138296 211.256281,637.138296 C209.004755,637.138296 207.173277,638.932178 207.173277,641.137317 C207.173277,641.380973 207.195378,641.622497 207.239534,641.859379 C205.306361,642.546567 204,644.341386 204,646.400908 C204,649.022743 206.12194,651 208.935403,651 L223.064386,651 C225.785857,651 228,648.831728 228,646.166323 C228.00007,644.09616 226.619764,642.246614 224.652395,641.588794 C224.680708,641.356341 224.707216,641.087185 224.707216,640.889114 Z" id="Shape-Copy-5" fill-opacity="0.85" fill="#EDEDED"></path>
            <path d="M209.020999,653 L207.552786,656.604283" id="Line" stroke="#7DC5FF" stroke-width="1.5" stroke-linecap="round"></path>
            <path d="M223.020999,653 L221.552786,656.604283" id="Line" stroke="#7DC5FF" stroke-width="1.5" stroke-linecap="round"></path>
            <polygon id="Page-1" fill="#FFD80B" points="214.184303 651 212.585246 655.298286 214.185048 655.298286 214.234972 655.228476 212.753349 659 218.033693 653.816119 216.247906 653.816119 218.267218 651"></polygon>
        </g>
    </g>
</svg>