<?xml version="1.0" encoding="UTF-8" standalone="no"?>
<svg width="24px" height="24px" viewBox="0 0 24 24" version="1.1" xmlns="http://www.w3.org/2000/svg" xmlns:xlink="http://www.w3.org/1999/xlink">
    <!-- Generator: Sketch 3.8.3 (29802) - http://www.bohemiancoding.com/sketch -->
    <title>12</title>
    <desc>Created with Sketch.</desc>
    <defs></defs>
    <g id="天气图标" stroke="none" stroke-width="1" fill="none" fill-rule="evenodd">
        <g id="天气图标_白色背景" transform="translate(-204.000000, -685.000000)">
            <path d="M224.707216,690.889114 C224.707216,687.641874 222.009814,685 218.694366,685 C216.583512,685 214.636604,686.091132 213.554564,687.830569 C212.882141,687.380522 212.087563,687.138296 211.256281,687.138296 C209.004755,687.138296 207.173277,688.932178 207.173277,691.137317 C207.173277,691.380973 207.195378,691.622497 207.239534,691.859379 C205.306361,692.546567 204,694.341386 204,696.400908 C204,699.022743 206.12194,701 208.935403,701 L223.064386,701 C225.785857,701 228,698.831728 228,696.166323 C228.00007,694.09616 226.619764,692.246614 224.652395,691.588794 C224.680708,691.356341 224.707216,691.087185 224.707216,690.889114 Z" id="Shape-Copy-5" fill-opacity="0.85" fill="#EDEDED"></path>
            <circle id="Oval-5" fill="#D0D0D0" cx="207.5" cy="704.5" r="1.5"></circle>
            <circle id="Oval-5" fill="#D0D0D0" cx="222.5" cy="704.5" r="1.5"></circle>
            <polygon id="Page-1" fill="#FFD80B" points="214.184303 701 212.585246 705.298286 214.185048 705.298286 214.234972 705.228476 212.753349 709 218.033693 703.816119 216.247906 703.816119 218.267218 701"></polygon>
        </g>
    </g>
</svg>