<?xml version="1.0" encoding="UTF-8" standalone="no"?>
<svg width="24px" height="24px" viewBox="0 0 24 24" version="1.1" xmlns="http://www.w3.org/2000/svg" xmlns:xlink="http://www.w3.org/1999/xlink">
    <!-- Generator: Sketch 3.8.3 (29802) - http://www.bohemiancoding.com/sketch -->
    <title>13</title>
    <desc>Created with Sketch.</desc>
    <defs></defs>
    <g id="天气图标" stroke="none" stroke-width="1" fill="none" fill-rule="evenodd">
        <g id="天气图标_白色背景" transform="translate(-204.000000, -733.000000)">
            <path d="M224.707216,738.889114 C224.707216,735.641874 222.009814,733 218.694366,733 C216.583512,733 214.636604,734.091132 213.554564,735.830569 C212.882141,735.380522 212.087563,735.138296 211.256281,735.138296 C209.004755,735.138296 207.173277,736.932178 207.173277,739.137317 C207.173277,739.380973 207.195378,739.622497 207.239534,739.859379 C205.306361,740.546567 204,742.341386 204,744.400908 C204,747.022743 206.12194,749 208.935403,749 L223.064386,749 C225.785857,749 228,746.831728 228,744.166323 C228.00007,742.09616 226.619764,740.246614 224.652395,739.588794 C224.680708,739.356341 224.707216,739.087185 224.707216,738.889114 Z" id="Shape-Copy-5" fill-opacity="0.85" fill="#EDEDED"></path>
            <path d="M210.020999,752 L208.552786,755.604283" id="Line" stroke="#7DC5FF" stroke-width="1.5" stroke-linecap="round"></path>
            <path d="M216.020999,752 L214.552786,755.604283" id="Line" stroke="#7DC5FF" stroke-width="1.5" stroke-linecap="round"></path>
            <path d="M222.020999,752 L220.552786,755.604283" id="Line" stroke="#7DC5FF" stroke-width="1.5" stroke-linecap="round"></path>
        </g>
    </g>
</svg>