<?xml version="1.0" encoding="UTF-8" standalone="no"?>
<svg width="24px" height="24px" viewBox="0 0 24 24" version="1.1" xmlns="http://www.w3.org/2000/svg" xmlns:xlink="http://www.w3.org/1999/xlink">
    <!-- Generator: Sketch 3.8.3 (29802) - http://www.bohemiancoding.com/sketch -->
    <title>15</title>
    <desc>Created with Sketch.</desc>
    <defs></defs>
    <g id="天气图标" stroke="none" stroke-width="1" fill="none" fill-rule="evenodd">
        <g id="天气图标_白色背景" transform="translate(-204.000000, -833.000000)">
            <path d="M224.707216,839.284832 C224.707216,836.037591 222.009814,833.395717 218.694366,833.395717 C216.583512,833.395717 214.636604,834.48685 213.554564,836.226286 C212.882141,835.77624 212.087563,835.534013 211.256281,835.534013 C209.004755,835.534013 207.173277,837.327895 207.173277,839.533035 C207.173277,839.776691 207.195378,840.018214 207.239534,840.255097 C205.306361,840.942284 204,842.737103 204,844.796626 C204,847.418461 206.12194,849.395717 208.935403,849.395717 L223.064386,849.395717 C225.785857,849.395717 228,847.227445 228,844.56204 C228.00007,842.491877 226.619764,840.642331 224.652395,839.984511 C224.680708,839.752058 224.707216,839.482902 224.707216,839.284832 Z" id="Shape-Copy-6" fill-opacity="0.85" fill="#EDEDED"></path>
            <path d="M207.468213,852.395717 L206,856" id="Line-Copy" stroke="#7DC5FF" stroke-width="1.5" stroke-linecap="round"></path>
            <path d="M211.468213,852.395717 L210,856" id="Line-Copy-2" stroke="#7DC5FF" stroke-width="1.5" stroke-linecap="round"></path>
            <path d="M215.468213,852.395717 L214,856" id="Line-Copy-3" stroke="#7DC5FF" stroke-width="1.5" stroke-linecap="round"></path>
            <path d="M219.468213,852.395717 L218,856" id="Line-Copy-4" stroke="#7DC5FF" stroke-width="1.5" stroke-linecap="round"></path>
            <path d="M223.468213,852.395717 L222,856" id="Line-Copy-4" stroke="#7DC5FF" stroke-width="1.5" stroke-linecap="round"></path>
        </g>
    </g>
</svg>