<?xml version="1.0" encoding="UTF-8" standalone="no"?>
<svg width="24px" height="24px" viewBox="0 0 24 24" version="1.1" xmlns="http://www.w3.org/2000/svg" xmlns:xlink="http://www.w3.org/1999/xlink">
    <!-- Generator: Sketch 3.8.3 (29802) - http://www.bohemiancoding.com/sketch -->
    <title>16</title>
    <desc>Created with Sketch.</desc>
    <defs></defs>
    <g id="天气图标" stroke="none" stroke-width="1" fill="none" fill-rule="evenodd">
        <g id="天气图标_白色背景" transform="translate(-204.000000, -892.000000)">
            <path d="M208.360814,910 L206.296125,914.987426" id="Line-Copy-5" stroke="#7DC5FF" stroke-width="1.5" stroke-linecap="round"></path>
            <path d="M211.360814,910 L209.296125,914.987426" id="Line-Copy-5" stroke="#7DC5FF" stroke-width="1.5" stroke-linecap="round"></path>
            <path d="M214.360814,910 L212.296125,914.987426" id="Line-Copy-5" stroke="#7DC5FF" stroke-width="1.5" stroke-linecap="round"></path>
            <path d="M217.360814,910 L215.296125,914.987426" id="Line-Copy-5" stroke="#7DC5FF" stroke-width="1.5" stroke-linecap="round"></path>
            <path d="M220.360814,910 L218.296125,914.987426" id="Line-Copy-5" stroke="#7DC5FF" stroke-width="1.5" stroke-linecap="round"></path>
            <path d="M223.360814,910 L221.296125,914.987426" id="Line-Copy-5" stroke="#7DC5FF" stroke-width="1.5" stroke-linecap="round"></path>
            <path d="M224.707216,897.889114 C224.707216,894.641874 222.009814,892 218.694366,892 C216.583512,892 214.636604,893.091132 213.554564,894.830569 C212.882141,894.380522 212.087563,894.138296 211.256281,894.138296 C209.004755,894.138296 207.173277,895.932178 207.173277,898.137317 C207.173277,898.380973 207.195378,898.622497 207.239534,898.859379 C205.306361,899.546567 204,901.341386 204,903.400908 C204,906.022743 206.12194,908 208.935403,908 L223.064386,908 C225.785857,908 228,905.831728 228,903.166323 C228.00007,901.09616 226.619764,899.246614 224.652395,898.588794 C224.680708,898.356341 224.707216,898.087185 224.707216,897.889114 Z" id="Shape-Copy-7" fill-opacity="0.85" fill="#EDEDED"></path>
        </g>
    </g>
</svg>