<?xml version="1.0" encoding="UTF-8" standalone="no"?>
<svg width="24px" height="24px" viewBox="0 0 24 24" version="1.1" xmlns="http://www.w3.org/2000/svg" xmlns:xlink="http://www.w3.org/1999/xlink">
    <!-- Generator: Sketch 3.8.3 (29802) - http://www.bohemiancoding.com/sketch -->
    <title>19</title>
    <desc>Created with Sketch.</desc>
    <defs></defs>
    <g id="天气图标" stroke="none" stroke-width="1" fill="none" fill-rule="evenodd">
        <g id="天气图标_白色背景" transform="translate(-204.000000, -1063.000000)">
            <path d="M215.901822,1083.37532 L214.285607,1081.75911 L215.901822,1080.14289 L217.518037,1081.75911 L215.901822,1083.37532 Z M212.669336,1086.80387 L211.053121,1085.18765 L212.669336,1083.57144 L214.285551,1085.18765 L212.669336,1086.80387 Z M219.330369,1087 L217.714154,1085.38379 L219.330369,1083.76757 L220.946584,1085.38379 L219.330369,1087 Z M207.999858,1081.75884 L209.616073,1080.14262 L211.232288,1081.75884 L209.616073,1083.37505 L207.999858,1081.75884 Z M222.187547,1083.37536 L220.571333,1081.75914 L222.187547,1080.14293 L223.803762,1081.75914 L222.187547,1083.37536 Z" id="Shape-Copy-3" fill="#7CC2FF"></path>
            <path d="M224.707216,1068.88911 C224.707216,1065.64187 222.009814,1063 218.694366,1063 C216.583512,1063 214.636604,1064.09113 213.554564,1065.83057 C212.882141,1065.38052 212.087563,1065.1383 211.256281,1065.1383 C209.004755,1065.1383 207.173277,1066.93218 207.173277,1069.13732 C207.173277,1069.38097 207.195378,1069.6225 207.239534,1069.85938 C205.306361,1070.54657 204,1072.34139 204,1074.40091 C204,1077.02274 206.12194,1079 208.935403,1079 L223.064386,1079 C225.785857,1079 228,1076.83173 228,1074.16632 C228.00007,1072.09616 226.619764,1070.24661 224.652395,1069.58879 C224.680708,1069.35634 224.707216,1069.08718 224.707216,1068.88911 Z" id="Shape-Copy-7" fill-opacity="0.85" fill="#EDEDED"></path>
        </g>
    </g>
</svg>