<?xml version="1.0" encoding="UTF-8" standalone="no"?>
<svg width="24px" height="24px" viewBox="0 0 24 24" version="1.1" xmlns="http://www.w3.org/2000/svg" xmlns:xlink="http://www.w3.org/1999/xlink">
    <!-- Generator: Sketch 3.8.3 (29802) - http://www.bohemiancoding.com/sketch -->
    <title>20</title>
    <desc>Created with Sketch.</desc>
    <defs></defs>
    <g id="天气图标" stroke="none" stroke-width="1" fill="none" fill-rule="evenodd">
        <g id="天气图标_白色背景" transform="translate(-204.000000, -1112.000000)">
            <path d="M224.707216,1117.88911 C224.707216,1114.64187 222.009814,1112 218.694366,1112 C216.583512,1112 214.636604,1113.09113 213.554564,1114.83057 C212.882141,1114.38052 212.087563,1114.1383 211.256281,1114.1383 C209.004755,1114.1383 207.173277,1115.93218 207.173277,1118.13732 C207.173277,1118.38097 207.195378,1118.6225 207.239534,1118.85938 C205.306361,1119.54657 204,1121.34139 204,1123.40091 C204,1126.02274 206.12194,1128 208.935403,1128 L223.064386,1128 C225.785857,1128 228,1125.83173 228,1123.16632 C228.00007,1121.09616 226.619764,1119.24661 224.652395,1118.58879 C224.680708,1118.35634 224.707216,1118.08718 224.707216,1117.88911 Z" id="Shape-Copy-5" fill-opacity="0.85" fill="#EDEDED"></path>
            <path d="M223.670215,1131.18697 C223.420923,1130.93768 223.012991,1130.93768 222.763673,1131.18697 L221.857184,1132.09351 L220.950642,1131.18697 C220.701376,1130.93768 220.293444,1130.93768 220.044152,1131.18697 C219.794861,1131.43626 219.794861,1131.84422 220.044152,1132.09351 L220.950642,1133 L220.044152,1133.90649 C219.794861,1134.15578 219.794861,1134.56371 220.044152,1134.81303 C220.293444,1135.06232 220.701403,1135.06232 220.950642,1134.81303 L221.857184,1133.90649 L222.763673,1134.81303 C223.012965,1135.06232 223.420923,1135.06232 223.670215,1134.81303 C223.91948,1134.56374 223.91948,1134.15581 223.670215,1133.90649 L222.763673,1133 L223.670215,1132.09351 C223.919454,1131.84422 223.919454,1131.43629 223.670215,1131.18697 L223.670215,1131.18697 Z" id="Path" fill="#7CC2FF"></path>
            <path d="M210.020999,1131 L208.552786,1134.60428" id="Line" stroke="#7DC5FF" stroke-width="1.5" stroke-linecap="round"></path>
            <path d="M216.020999,1131 L214.552786,1134.60428" id="Line" stroke="#7DC5FF" stroke-width="1.5" stroke-linecap="round"></path>
        </g>
    </g>
</svg>