<?xml version="1.0" encoding="UTF-8" standalone="no"?>
<svg width="24px" height="24px" viewBox="0 0 24 24" version="1.1" xmlns="http://www.w3.org/2000/svg" xmlns:xlink="http://www.w3.org/1999/xlink">
    <!-- Generator: Sketch 3.8.3 (29802) - http://www.bohemiancoding.com/sketch -->
    <title>21</title>
    <desc>Created with Sketch.</desc>
    <defs></defs>
    <g id="天气图标" stroke="none" stroke-width="1" fill="none" fill-rule="evenodd">
        <g id="天气图标_白色背景" transform="translate(-204.000000, -1166.000000)">
            <path d="M212.586176,1187.11849 L213.410517,1187.11849 C213.736117,1187.11849 214,1187.38242 214,1187.70797 C214,1188.03352 213.736117,1188.29746 213.410517,1188.29746 L212.586176,1188.29746 L212.99834,1189.01134 C213.16114,1189.29327 213.064516,1189.65383 212.782589,1189.81658 C212.689758,1189.8702 212.588367,1189.89567 212.488411,1189.89567 C212.284655,1189.89567 212.086537,1189.78998 211.977355,1189.60083 L211.565178,1188.88691 L211.153001,1189.60083 C211.04387,1189.78992 210.845701,1189.89567 210.641945,1189.89567 C210.541937,1189.89567 210.440597,1189.8702 210.347767,1189.81658 C210.06584,1189.65383 209.969216,1189.29332 210.132016,1189.01134 L210.544179,1188.29746 L209.719839,1188.29746 C209.39429,1188.29746 209.130356,1188.03357 209.130356,1187.70797 C209.130356,1187.38242 209.39429,1187.11849 209.719839,1187.11849 L210.544179,1187.11849 L210.132016,1186.4046 C209.969216,1186.12267 210.06584,1185.76211 210.347767,1185.59936 C210.629745,1185.43656 210.990252,1185.53319 211.153001,1185.81512 L211.565178,1186.52903 L211.977355,1185.81512 C212.140103,1185.53319 212.500611,1185.43656 212.782589,1185.59936 C213.064516,1185.76216 213.16114,1186.12267 212.99834,1186.4046 L212.586176,1187.11849 Z" id="Shape-Copy-4" fill="#7BC0FF"></path>
            <path d="M219.586176,1187.11849 L220.410517,1187.11849 C220.736117,1187.11849 221,1187.38242 221,1187.70797 C221,1188.03352 220.736117,1188.29746 220.410517,1188.29746 L219.586176,1188.29746 L219.99834,1189.01134 C220.16114,1189.29327 220.064516,1189.65383 219.782589,1189.81658 C219.689758,1189.8702 219.588367,1189.89567 219.488411,1189.89567 C219.284655,1189.89567 219.086537,1189.78998 218.977355,1189.60083 L218.565178,1188.88691 L218.153001,1189.60083 C218.04387,1189.78992 217.845701,1189.89567 217.641945,1189.89567 C217.541937,1189.89567 217.440597,1189.8702 217.347767,1189.81658 C217.06584,1189.65383 216.969216,1189.29332 217.132016,1189.01134 L217.544179,1188.29746 L216.719839,1188.29746 C216.39429,1188.29746 216.130356,1188.03357 216.130356,1187.70797 C216.130356,1187.38242 216.39429,1187.11849 216.719839,1187.11849 L217.544179,1187.11849 L217.132016,1186.4046 C216.969216,1186.12267 217.06584,1185.76211 217.347767,1185.59936 C217.629745,1185.43656 217.990252,1185.53319 218.153001,1185.81512 L218.565178,1186.52903 L218.977355,1185.81512 C219.140103,1185.53319 219.500611,1185.43656 219.782589,1185.59936 C220.064516,1185.76216 220.16114,1186.12267 219.99834,1186.4046 L219.586176,1187.11849 Z" id="Shape-Copy-4" fill="#7BC0FF"></path>
            <path d="M221.751613,1178.45538 C225.142384,1178.45538 227.891148,1175.66715 227.891148,1172.22769 C227.891148,1168.78823 225.142384,1166 221.751613,1166 C218.360841,1166 215.612078,1168.78823 215.612078,1172.22769 C215.612078,1175.66715 218.360841,1178.45538 221.751613,1178.45538 Z" id="Combined-Shape-Copy-4" fill="#FFD80B"></path>
            <path d="M222.669185,1173.6826 C222.669185,1170.69514 220.223086,1168.26462 217.21652,1168.26462 C215.302323,1168.26462 213.536797,1169.26846 212.555565,1170.86874 C211.945788,1170.4547 211.225236,1170.23185 210.4714,1170.23185 C208.429637,1170.23185 206.768787,1171.88222 206.768787,1173.91095 C206.768787,1174.13511 206.78883,1174.35731 206.828872,1174.57524 C205.075802,1175.20746 203.891148,1176.85869 203.891148,1178.75345 C203.891148,1181.16554 205.815398,1182.98462 208.366746,1182.98462 L221.179408,1182.98462 C223.647335,1182.98462 225.655198,1180.9898 225.655198,1178.53763 C225.655262,1176.63308 224.403552,1174.9315 222.619472,1174.32631 C222.645146,1174.11245 222.669185,1173.86483 222.669185,1173.6826 Z" id="Shape-Copy-5" fill-opacity="0.85" fill="#EDEDED"></path>
        </g>
    </g>
</svg>