<?xml version="1.0" encoding="UTF-8" standalone="no"?>
<svg width="24px" height="24px" viewBox="0 0 24 24" version="1.1" xmlns="http://www.w3.org/2000/svg" xmlns:xlink="http://www.w3.org/1999/xlink">
    <!-- Generator: Sketch 3.8.3 (29802) - http://www.bohemiancoding.com/sketch -->
    <title>22</title>
    <desc>Created with Sketch.</desc>
    <defs></defs>
    <g id="天气图标" stroke="none" stroke-width="1" fill="none" fill-rule="evenodd">
        <g id="天气图标_白色背景" transform="translate(-204.000000, -1215.000000)">
            <path d="M213.586176,1236.11849 L214.410517,1236.11849 C214.736117,1236.11849 215,1236.38242 215,1236.70797 C215,1237.03352 214.736117,1237.29746 214.410517,1237.29746 L213.586176,1237.29746 L213.99834,1238.01134 C214.16114,1238.29327 214.064516,1238.65383 213.782589,1238.81658 C213.689758,1238.8702 213.588367,1238.89567 213.488411,1238.89567 C213.284655,1238.89567 213.086537,1238.78998 212.977355,1238.60083 L212.565178,1237.88691 L212.153001,1238.60083 C212.04387,1238.78992 211.845701,1238.89567 211.641945,1238.89567 C211.541937,1238.89567 211.440597,1238.8702 211.347767,1238.81658 C211.06584,1238.65383 210.969216,1238.29332 211.132016,1238.01134 L211.544179,1237.29746 L210.719839,1237.29746 C210.39429,1237.29746 210.130356,1237.03357 210.130356,1236.70797 C210.130356,1236.38242 210.39429,1236.11849 210.719839,1236.11849 L211.544179,1236.11849 L211.132016,1235.4046 C210.969216,1235.12267 211.06584,1234.76211 211.347767,1234.59936 C211.629745,1234.43656 211.990252,1234.53319 212.153001,1234.81512 L212.565178,1235.52903 L212.977355,1234.81512 C213.140103,1234.53319 213.500611,1234.43656 213.782589,1234.59936 C214.064516,1234.76216 214.16114,1235.12267 213.99834,1235.4046 L213.586176,1236.11849 Z" id="Shape-Copy-4" fill="#7BC0FF"></path>
            <path d="M220.586176,1236.11849 L221.410517,1236.11849 C221.736117,1236.11849 222,1236.38242 222,1236.70797 C222,1237.03352 221.736117,1237.29746 221.410517,1237.29746 L220.586176,1237.29746 L220.99834,1238.01134 C221.16114,1238.29327 221.064516,1238.65383 220.782589,1238.81658 C220.689758,1238.8702 220.588367,1238.89567 220.488411,1238.89567 C220.284655,1238.89567 220.086537,1238.78998 219.977355,1238.60083 L219.565178,1237.88691 L219.153001,1238.60083 C219.04387,1238.78992 218.845701,1238.89567 218.641945,1238.89567 C218.541937,1238.89567 218.440597,1238.8702 218.347767,1238.81658 C218.06584,1238.65383 217.969216,1238.29332 218.132016,1238.01134 L218.544179,1237.29746 L217.719839,1237.29746 C217.39429,1237.29746 217.130356,1237.03357 217.130356,1236.70797 C217.130356,1236.38242 217.39429,1236.11849 217.719839,1236.11849 L218.544179,1236.11849 L218.132016,1235.4046 C217.969216,1235.12267 218.06584,1234.76211 218.347767,1234.59936 C218.629745,1234.43656 218.990252,1234.53319 219.153001,1234.81512 L219.565178,1235.52903 L219.977355,1234.81512 C220.140103,1234.53319 220.500611,1234.43656 220.782589,1234.59936 C221.064516,1234.76216 221.16114,1235.12267 220.99834,1235.4046 L220.586176,1236.11849 Z" id="Shape-Copy-4" fill="#7BC0FF"></path>
            <path d="M224.707216,1221.88911 C224.707216,1218.64187 222.009814,1216 218.694366,1216 C216.583512,1216 214.636604,1217.09113 213.554564,1218.83057 C212.882141,1218.38052 212.087563,1218.1383 211.256281,1218.1383 C209.004755,1218.1383 207.173277,1219.93218 207.173277,1222.13732 C207.173277,1222.38097 207.195378,1222.6225 207.239534,1222.85938 C205.306361,1223.54657 204,1225.34139 204,1227.40091 C204,1230.02274 206.12194,1232 208.935403,1232 L223.064386,1232 C225.785857,1232 228,1229.83173 228,1227.16632 C228.00007,1225.09616 226.619764,1223.24661 224.652395,1222.58879 C224.680708,1222.35634 224.707216,1222.08718 224.707216,1221.88911 Z" id="Shape-Copy-8" fill-opacity="0.85" fill="#EDEDED"></path>
        </g>
    </g>
</svg>