<?xml version="1.0" encoding="UTF-8" standalone="no"?>
<svg width="24px" height="24px" viewBox="0 0 24 24" version="1.1" xmlns="http://www.w3.org/2000/svg" xmlns:xlink="http://www.w3.org/1999/xlink">
    <!-- Generator: Sketch 3.8.3 (29802) - http://www.bohemiancoding.com/sketch -->
    <title>23</title>
    <desc>Created with Sketch.</desc>
    <defs></defs>
    <g id="天气图标" stroke="none" stroke-width="1" fill="none" fill-rule="evenodd">
        <g id="天气图标_白色背景" transform="translate(-204.000000, -1261.000000)">
            <path d="M211.586176,1282.11849 L212.410517,1282.11849 C212.736117,1282.11849 213,1282.38242 213,1282.70797 C213,1283.03352 212.736117,1283.29746 212.410517,1283.29746 L211.586176,1283.29746 L211.99834,1284.01134 C212.16114,1284.29327 212.064516,1284.65383 211.782589,1284.81658 C211.689758,1284.8702 211.588367,1284.89567 211.488411,1284.89567 C211.284655,1284.89567 211.086537,1284.78998 210.977355,1284.60083 L210.565178,1283.88691 L210.153001,1284.60083 C210.04387,1284.78992 209.845701,1284.89567 209.641945,1284.89567 C209.541937,1284.89567 209.440597,1284.8702 209.347767,1284.81658 C209.06584,1284.65383 208.969216,1284.29332 209.132016,1284.01134 L209.544179,1283.29746 L208.719839,1283.29746 C208.39429,1283.29746 208.130356,1283.03357 208.130356,1282.70797 C208.130356,1282.38242 208.39429,1282.11849 208.719839,1282.11849 L209.544179,1282.11849 L209.132016,1281.4046 C208.969216,1281.12267 209.06584,1280.76211 209.347767,1280.59936 C209.629745,1280.43656 209.990252,1280.53319 210.153001,1280.81512 L210.565178,1281.52903 L210.977355,1280.81512 C211.140103,1280.53319 211.500611,1280.43656 211.782589,1280.59936 C212.064516,1280.76216 212.16114,1281.12267 211.99834,1281.4046 L211.586176,1282.11849 Z" id="Shape-Copy-4" fill="#7BC0FF"></path>
            <path d="M217.586176,1282.11849 L218.410517,1282.11849 C218.736117,1282.11849 219,1282.38242 219,1282.70797 C219,1283.03352 218.736117,1283.29746 218.410517,1283.29746 L217.586176,1283.29746 L217.99834,1284.01134 C218.16114,1284.29327 218.064516,1284.65383 217.782589,1284.81658 C217.689758,1284.8702 217.588367,1284.89567 217.488411,1284.89567 C217.284655,1284.89567 217.086537,1284.78998 216.977355,1284.60083 L216.565178,1283.88691 L216.153001,1284.60083 C216.04387,1284.78992 215.845701,1284.89567 215.641945,1284.89567 C215.541937,1284.89567 215.440597,1284.8702 215.347767,1284.81658 C215.06584,1284.65383 214.969216,1284.29332 215.132016,1284.01134 L215.544179,1283.29746 L214.719839,1283.29746 C214.39429,1283.29746 214.130356,1283.03357 214.130356,1282.70797 C214.130356,1282.38242 214.39429,1282.11849 214.719839,1282.11849 L215.544179,1282.11849 L215.132016,1281.4046 C214.969216,1281.12267 215.06584,1280.76211 215.347767,1280.59936 C215.629745,1280.43656 215.990252,1280.53319 216.153001,1280.81512 L216.565178,1281.52903 L216.977355,1280.81512 C217.140103,1280.53319 217.500611,1280.43656 217.782589,1280.59936 C218.064516,1280.76216 218.16114,1281.12267 217.99834,1281.4046 L217.586176,1282.11849 Z" id="Shape-Copy-4" fill="#7BC0FF"></path>
            <path d="M223.586176,1282.11849 L224.410517,1282.11849 C224.736117,1282.11849 225,1282.38242 225,1282.70797 C225,1283.03352 224.736117,1283.29746 224.410517,1283.29746 L223.586176,1283.29746 L223.99834,1284.01134 C224.16114,1284.29327 224.064516,1284.65383 223.782589,1284.81658 C223.689758,1284.8702 223.588367,1284.89567 223.488411,1284.89567 C223.284655,1284.89567 223.086537,1284.78998 222.977355,1284.60083 L222.565178,1283.88691 L222.153001,1284.60083 C222.04387,1284.78992 221.845701,1284.89567 221.641945,1284.89567 C221.541937,1284.89567 221.440597,1284.8702 221.347767,1284.81658 C221.06584,1284.65383 220.969216,1284.29332 221.132016,1284.01134 L221.544179,1283.29746 L220.719839,1283.29746 C220.39429,1283.29746 220.130356,1283.03357 220.130356,1282.70797 C220.130356,1282.38242 220.39429,1282.11849 220.719839,1282.11849 L221.544179,1282.11849 L221.132016,1281.4046 C220.969216,1281.12267 221.06584,1280.76211 221.347767,1280.59936 C221.629745,1280.43656 221.990252,1280.53319 222.153001,1280.81512 L222.565178,1281.52903 L222.977355,1280.81512 C223.140103,1280.53319 223.500611,1280.43656 223.782589,1280.59936 C224.064516,1280.76216 224.16114,1281.12267 223.99834,1281.4046 L223.586176,1282.11849 Z" id="Shape-Copy-4" fill="#7BC0FF"></path>
            <path d="M224.707216,1267.88911 C224.707216,1264.64187 222.009814,1262 218.694366,1262 C216.583512,1262 214.636604,1263.09113 213.554564,1264.83057 C212.882141,1264.38052 212.087563,1264.1383 211.256281,1264.1383 C209.004755,1264.1383 207.173277,1265.93218 207.173277,1268.13732 C207.173277,1268.38097 207.195378,1268.6225 207.239534,1268.85938 C205.306361,1269.54657 204,1271.34139 204,1273.40091 C204,1276.02274 206.12194,1278 208.935403,1278 L223.064386,1278 C225.785857,1278 228,1275.83173 228,1273.16632 C228.00007,1271.09616 226.619764,1269.24661 224.652395,1268.58879 C224.680708,1268.35634 224.707216,1268.08718 224.707216,1267.88911 Z" id="Shape-Copy-8" fill-opacity="0.85" fill="#EDEDED"></path>
        </g>
    </g>
</svg>