<?xml version="1.0" encoding="UTF-8" standalone="no"?>
<svg width="24px" height="24px" viewBox="0 0 24 24" version="1.1" xmlns="http://www.w3.org/2000/svg" xmlns:xlink="http://www.w3.org/1999/xlink">
    <!-- Generator: Sketch 3.8.3 (29802) - http://www.bohemiancoding.com/sketch -->
    <title>24</title>
    <desc>Created with Sketch.</desc>
    <defs></defs>
    <g id="天气图标" stroke="none" stroke-width="1" fill="none" fill-rule="evenodd">
        <g id="天气图标_白色背景" transform="translate(-204.000000, -1312.000000)">
            <path d="M207.586176,1333.11849 L208.410517,1333.11849 C208.736117,1333.11849 209,1333.38242 209,1333.70797 C209,1334.03352 208.736117,1334.29746 208.410517,1334.29746 L207.586176,1334.29746 L207.99834,1335.01134 C208.16114,1335.29327 208.064516,1335.65383 207.782589,1335.81658 C207.689758,1335.8702 207.588367,1335.89567 207.488411,1335.89567 C207.284655,1335.89567 207.086537,1335.78998 206.977355,1335.60083 L206.565178,1334.88691 L206.153001,1335.60083 C206.04387,1335.78992 205.845701,1335.89567 205.641945,1335.89567 C205.541937,1335.89567 205.440597,1335.8702 205.347767,1335.81658 C205.06584,1335.65383 204.969216,1335.29332 205.132016,1335.01134 L205.544179,1334.29746 L204.719839,1334.29746 C204.39429,1334.29746 204.130356,1334.03357 204.130356,1333.70797 C204.130356,1333.38242 204.39429,1333.11849 204.719839,1333.11849 L205.544179,1333.11849 L205.132016,1332.4046 C204.969216,1332.12267 205.06584,1331.76211 205.347767,1331.59936 C205.629745,1331.43656 205.990252,1331.53319 206.153001,1331.81512 L206.565178,1332.52903 L206.977355,1331.81512 C207.140103,1331.53319 207.500611,1331.43656 207.782589,1331.59936 C208.064516,1331.76216 208.16114,1332.12267 207.99834,1332.4046 L207.586176,1333.11849 Z" id="Shape-Copy-4" fill="#7BC0FF"></path>
            <path d="M213.586176,1333.11849 L214.410517,1333.11849 C214.736117,1333.11849 215,1333.38242 215,1333.70797 C215,1334.03352 214.736117,1334.29746 214.410517,1334.29746 L213.586176,1334.29746 L213.99834,1335.01134 C214.16114,1335.29327 214.064516,1335.65383 213.782589,1335.81658 C213.689758,1335.8702 213.588367,1335.89567 213.488411,1335.89567 C213.284655,1335.89567 213.086537,1335.78998 212.977355,1335.60083 L212.565178,1334.88691 L212.153001,1335.60083 C212.04387,1335.78992 211.845701,1335.89567 211.641945,1335.89567 C211.541937,1335.89567 211.440597,1335.8702 211.347767,1335.81658 C211.06584,1335.65383 210.969216,1335.29332 211.132016,1335.01134 L211.544179,1334.29746 L210.719839,1334.29746 C210.39429,1334.29746 210.130356,1334.03357 210.130356,1333.70797 C210.130356,1333.38242 210.39429,1333.11849 210.719839,1333.11849 L211.544179,1333.11849 L211.132016,1332.4046 C210.969216,1332.12267 211.06584,1331.76211 211.347767,1331.59936 C211.629745,1331.43656 211.990252,1331.53319 212.153001,1331.81512 L212.565178,1332.52903 L212.977355,1331.81512 C213.140103,1331.53319 213.500611,1331.43656 213.782589,1331.59936 C214.064516,1331.76216 214.16114,1332.12267 213.99834,1332.4046 L213.586176,1333.11849 Z" id="Shape-Copy-4" fill="#7BC0FF"></path>
            <path d="M219.586176,1333.11849 L220.410517,1333.11849 C220.736117,1333.11849 221,1333.38242 221,1333.70797 C221,1334.03352 220.736117,1334.29746 220.410517,1334.29746 L219.586176,1334.29746 L219.99834,1335.01134 C220.16114,1335.29327 220.064516,1335.65383 219.782589,1335.81658 C219.689758,1335.8702 219.588367,1335.89567 219.488411,1335.89567 C219.284655,1335.89567 219.086537,1335.78998 218.977355,1335.60083 L218.565178,1334.88691 L218.153001,1335.60083 C218.04387,1335.78992 217.845701,1335.89567 217.641945,1335.89567 C217.541937,1335.89567 217.440597,1335.8702 217.347767,1335.81658 C217.06584,1335.65383 216.969216,1335.29332 217.132016,1335.01134 L217.544179,1334.29746 L216.719839,1334.29746 C216.39429,1334.29746 216.130356,1334.03357 216.130356,1333.70797 C216.130356,1333.38242 216.39429,1333.11849 216.719839,1333.11849 L217.544179,1333.11849 L217.132016,1332.4046 C216.969216,1332.12267 217.06584,1331.76211 217.347767,1331.59936 C217.629745,1331.43656 217.990252,1331.53319 218.153001,1331.81512 L218.565178,1332.52903 L218.977355,1331.81512 C219.140103,1331.53319 219.500611,1331.43656 219.782589,1331.59936 C220.064516,1331.76216 220.16114,1332.12267 219.99834,1332.4046 L219.586176,1333.11849 Z" id="Shape-Copy-4" fill="#7BC0FF"></path>
            <path d="M225.586176,1333.11849 L226.410517,1333.11849 C226.736117,1333.11849 227,1333.38242 227,1333.70797 C227,1334.03352 226.736117,1334.29746 226.410517,1334.29746 L225.586176,1334.29746 L225.99834,1335.01134 C226.16114,1335.29327 226.064516,1335.65383 225.782589,1335.81658 C225.689758,1335.8702 225.588367,1335.89567 225.488411,1335.89567 C225.284655,1335.89567 225.086537,1335.78998 224.977355,1335.60083 L224.565178,1334.88691 L224.153001,1335.60083 C224.04387,1335.78992 223.845701,1335.89567 223.641945,1335.89567 C223.541937,1335.89567 223.440597,1335.8702 223.347767,1335.81658 C223.06584,1335.65383 222.969216,1335.29332 223.132016,1335.01134 L223.544179,1334.29746 L222.719839,1334.29746 C222.39429,1334.29746 222.130356,1334.03357 222.130356,1333.70797 C222.130356,1333.38242 222.39429,1333.11849 222.719839,1333.11849 L223.544179,1333.11849 L223.132016,1332.4046 C222.969216,1332.12267 223.06584,1331.76211 223.347767,1331.59936 C223.629745,1331.43656 223.990252,1331.53319 224.153001,1331.81512 L224.565178,1332.52903 L224.977355,1331.81512 C225.140103,1331.53319 225.500611,1331.43656 225.782589,1331.59936 C226.064516,1331.76216 226.16114,1332.12267 225.99834,1332.4046 L225.586176,1333.11849 Z" id="Shape-Copy-4" fill="#7BC0FF"></path>
            <path d="M224.707216,1318.88911 C224.707216,1315.64187 222.009814,1313 218.694366,1313 C216.583512,1313 214.636604,1314.09113 213.554564,1315.83057 C212.882141,1315.38052 212.087563,1315.1383 211.256281,1315.1383 C209.004755,1315.1383 207.173277,1316.93218 207.173277,1319.13732 C207.173277,1319.38097 207.195378,1319.6225 207.239534,1319.85938 C205.306361,1320.54657 204,1322.34139 204,1324.40091 C204,1327.02274 206.12194,1329 208.935403,1329 L223.064386,1329 C225.785857,1329 228,1326.83173 228,1324.16632 C228.00007,1322.09616 226.619764,1320.24661 224.652395,1319.58879 C224.680708,1319.35634 224.707216,1319.08718 224.707216,1318.88911 Z" id="Shape-Copy-8" fill-opacity="0.85" fill="#EDEDED"></path>
        </g>
    </g>
</svg>