<?xml version="1.0" encoding="UTF-8" standalone="no"?>
<svg width="24px" height="24px" viewBox="0 0 24 24" version="1.1" xmlns="http://www.w3.org/2000/svg" xmlns:xlink="http://www.w3.org/1999/xlink">
    <!-- Generator: Sketch 3.8.3 (29802) - http://www.bohemiancoding.com/sketch -->
    <title>25</title>
    <desc>Created with Sketch.</desc>
    <defs></defs>
    <g id="天气图标" stroke="none" stroke-width="1" fill="none" fill-rule="evenodd">
        <g id="天气图标_白色背景" transform="translate(-204.000000, -1365.000000)">
            <path d="M208.561555,1383.48294 L209.150369,1383.48294 C209.38294,1383.48294 209.571429,1383.6677 209.571429,1383.89558 C209.571429,1384.12346 209.38294,1384.30822 209.150369,1384.30822 L208.561555,1384.30822 L208.855957,1384.80794 C208.972243,1385.00529 208.903225,1385.25768 208.701849,1385.37161 C208.635541,1385.40914 208.563119,1385.42697 208.491722,1385.42697 C208.346182,1385.42697 208.20467,1385.35298 208.126682,1385.22058 L207.83227,1384.72084 L207.537858,1385.22058 C207.459907,1385.35295 207.318358,1385.42697 207.172818,1385.42697 C207.101384,1385.42697 207.028998,1385.40914 206.962691,1385.37161 C206.761314,1385.25768 206.692297,1385.00533 206.808583,1384.80794 L207.102985,1384.30822 L206.514171,1384.30822 C206.281636,1384.30822 206.093111,1384.1235 206.093111,1383.89558 C206.093111,1383.6677 206.281636,1383.48294 206.514171,1383.48294 L207.102985,1383.48294 L206.808583,1382.98322 C206.692297,1382.78587 206.761314,1382.53348 206.962691,1382.41956 C207.164103,1382.3056 207.421609,1382.37323 207.537858,1382.57058 L207.83227,1383.07032 L208.126682,1382.57058 C208.242931,1382.37323 208.500436,1382.3056 208.701849,1382.41956 C208.903225,1382.53352 208.972243,1382.78587 208.855957,1382.98322 L208.561555,1383.48294 Z" id="Shape-Copy-4" fill="#7BC0FF"></path>
            <path d="M216.27584,1383.48294 L216.864655,1383.48294 C217.097226,1383.48294 217.285714,1383.6677 217.285714,1383.89558 C217.285714,1384.12346 217.097226,1384.30822 216.864655,1384.30822 L216.27584,1384.30822 L216.570243,1384.80794 C216.686528,1385.00529 216.617511,1385.25768 216.416135,1385.37161 C216.349827,1385.40914 216.277405,1385.42697 216.206008,1385.42697 C216.060468,1385.42697 215.918955,1385.35298 215.840968,1385.22058 L215.546556,1384.72084 L215.252143,1385.22058 C215.174193,1385.35295 215.032643,1385.42697 214.887103,1385.42697 C214.81567,1385.42697 214.743284,1385.40914 214.676976,1385.37161 C214.4756,1385.25768 214.406583,1385.00533 214.522868,1384.80794 L214.817271,1384.30822 L214.228456,1384.30822 C213.995922,1384.30822 213.807397,1384.1235 213.807397,1383.89558 C213.807397,1383.6677 213.995922,1383.48294 214.228456,1383.48294 L214.817271,1383.48294 L214.522868,1382.98322 C214.406583,1382.78587 214.4756,1382.53348 214.676976,1382.41956 C214.878389,1382.3056 215.135894,1382.37323 215.252143,1382.57058 L215.546556,1383.07032 L215.840968,1382.57058 C215.957217,1382.37323 216.214722,1382.3056 216.416135,1382.41956 C216.617511,1382.53352 216.686528,1382.78587 216.570243,1382.98322 L216.27584,1383.48294 Z" id="Shape-Copy-4" fill="#7BC0FF"></path>
            <path d="M212.418697,1386.98294 L213.007512,1386.98294 C213.240083,1386.98294 213.428571,1387.1677 213.428571,1387.39558 C213.428571,1387.62346 213.240083,1387.80822 213.007512,1387.80822 L212.418697,1387.80822 L212.7131,1388.30794 C212.829385,1388.50529 212.760368,1388.75768 212.558992,1388.87161 C212.492684,1388.90914 212.420262,1388.92697 212.348865,1388.92697 C212.203325,1388.92697 212.061812,1388.85298 211.983825,1388.72058 L211.689413,1388.22084 L211.395001,1388.72058 C211.31705,1388.85295 211.1755,1388.92697 211.02996,1388.92697 C210.958527,1388.92697 210.886141,1388.90914 210.819833,1388.87161 C210.618457,1388.75768 210.54944,1388.50533 210.665726,1388.30794 L210.960128,1387.80822 L210.371313,1387.80822 C210.138779,1387.80822 209.950254,1387.6235 209.950254,1387.39558 C209.950254,1387.1677 210.138779,1386.98294 210.371313,1386.98294 L210.960128,1386.98294 L210.665726,1386.48322 C210.54944,1386.28587 210.618457,1386.03348 210.819833,1385.91956 C211.021246,1385.8056 211.278752,1385.87323 211.395001,1386.07058 L211.689413,1386.57032 L211.983825,1386.07058 C212.100074,1385.87323 212.357579,1385.8056 212.558992,1385.91956 C212.760368,1386.03352 212.829385,1386.28587 212.7131,1386.48322 L212.418697,1386.98294 Z" id="Shape-Copy-4" fill="#7BC0FF"></path>
            <path d="M220.132983,1386.98294 L220.721798,1386.98294 C220.954369,1386.98294 221.142857,1387.1677 221.142857,1387.39558 C221.142857,1387.62346 220.954369,1387.80822 220.721798,1387.80822 L220.132983,1387.80822 L220.427386,1388.30794 C220.543671,1388.50529 220.474654,1388.75768 220.273278,1388.87161 C220.20697,1388.90914 220.134548,1388.92697 220.063151,1388.92697 C219.917611,1388.92697 219.776098,1388.85298 219.698111,1388.72058 L219.403698,1388.22084 L219.109286,1388.72058 C219.031335,1388.85295 218.889786,1388.92697 218.744246,1388.92697 C218.672812,1388.92697 218.600427,1388.90914 218.534119,1388.87161 C218.332743,1388.75768 218.263726,1388.50533 218.380011,1388.30794 L218.674414,1387.80822 L218.085599,1387.80822 C217.853065,1387.80822 217.66454,1387.6235 217.66454,1387.39558 C217.66454,1387.1677 217.853064,1386.98294 218.085599,1386.98294 L218.674414,1386.98294 L218.380011,1386.48322 C218.263726,1386.28587 218.332743,1386.03348 218.534119,1385.91956 C218.735532,1385.8056 218.993037,1385.87323 219.109286,1386.07058 L219.403698,1386.57032 L219.698111,1386.07058 C219.81436,1385.87323 220.071865,1385.8056 220.273278,1385.91956 C220.474654,1386.03352 220.543671,1386.28587 220.427386,1386.48322 L220.132983,1386.98294 Z" id="Shape-Copy-4" fill="#7BC0FF"></path>
            <path d="M223.990126,1383.48294 L224.578941,1383.48294 C224.811512,1383.48294 225,1383.6677 225,1383.89558 C225,1384.12346 224.811512,1384.30822 224.578941,1384.30822 L223.990126,1384.30822 L224.284528,1384.80794 C224.400814,1385.00529 224.331797,1385.25768 224.130421,1385.37161 C224.064113,1385.40914 223.991691,1385.42697 223.920294,1385.42697 C223.774754,1385.42697 223.633241,1385.35298 223.555253,1385.22058 L223.260841,1384.72084 L222.966429,1385.22058 C222.888478,1385.35295 222.746929,1385.42697 222.601389,1385.42697 C222.529955,1385.42697 222.45757,1385.40914 222.391262,1385.37161 C222.189886,1385.25768 222.120869,1385.00533 222.237154,1384.80794 L222.531557,1384.30822 L221.942742,1384.30822 C221.710207,1384.30822 221.521683,1384.1235 221.521683,1383.89558 C221.521683,1383.6677 221.710207,1383.48294 221.942742,1383.48294 L222.531557,1383.48294 L222.237154,1382.98322 C222.120869,1382.78587 222.189886,1382.53348 222.391262,1382.41956 C222.592675,1382.3056 222.85018,1382.37323 222.966429,1382.57058 L223.260841,1383.07032 L223.555253,1382.57058 C223.671502,1382.37323 223.929008,1382.3056 224.130421,1382.41956 C224.331797,1382.53352 224.400814,1382.78587 224.284528,1382.98322 L223.990126,1383.48294 Z" id="Shape-Copy-4" fill="#7BC0FF"></path>
            <path d="M224.707216,1370.88911 C224.707216,1367.64187 222.009814,1365 218.694366,1365 C216.583512,1365 214.636604,1366.09113 213.554564,1367.83057 C212.882141,1367.38052 212.087563,1367.1383 211.256281,1367.1383 C209.004755,1367.1383 207.173277,1368.93218 207.173277,1371.13732 C207.173277,1371.38097 207.195378,1371.6225 207.239534,1371.85938 C205.306361,1372.54657 204,1374.34139 204,1376.40091 C204,1379.02274 206.12194,1381 208.935403,1381 L223.064386,1381 C225.785857,1381 228,1378.83173 228,1376.16632 C228.00007,1374.09616 226.619764,1372.24661 224.652395,1371.58879 C224.680708,1371.35634 224.707216,1371.08718 224.707216,1370.88911 Z" id="Shape-Copy-8" fill-opacity="0.85" fill="#EDEDED"></path>
        </g>
    </g>
</svg>