<?xml version="1.0" encoding="UTF-8" standalone="no"?>
<svg width="24px" height="24px" viewBox="0 0 24 24" version="1.1" xmlns="http://www.w3.org/2000/svg" xmlns:xlink="http://www.w3.org/1999/xlink">
    <!-- Generator: Sketch 3.8.3 (29802) - http://www.bohemiancoding.com/sketch -->
    <title>28</title>
    <desc>Created with Sketch.</desc>
    <defs></defs>
    <g id="天气图标" stroke="none" stroke-width="1" fill="none" fill-rule="evenodd">
        <g id="天气图标_白色背景" transform="translate(-204.000000, -1522.000000)" fill="#E5C793">
            <path d="M204.822947,1531.19043 C204.369194,1531.19043 204,1531.5531 204,1532.0021 C204,1532.45109 204.369194,1532.81376 204.822947,1532.81376 C205.2767,1532.81376 205.645894,1532.45109 205.645894,1532.0021 C205.645894,1531.5531 205.2767,1531.19043 204.822947,1531.19043 L204.822947,1531.19043 L204.822947,1531.19043 Z M204.822947,1531.55966 C205.074239,1531.55966 205.276664,1531.75851 205.276664,1532.0021 C205.276664,1532.24569 205.074239,1532.44453 204.822947,1532.44453 C204.571655,1532.44453 204.369231,1532.24569 204.369231,1532.0021 C204.369231,1531.75851 204.571655,1531.55966 204.822947,1531.55966 L204.822947,1531.55966 L204.822947,1531.55966 Z M206.313123,1534.87868 C205.858218,1534.87868 205.487972,1535.24117 205.487972,1535.69034 C205.487972,1536.13947 205.858321,1536.50201 206.313123,1536.50201 C206.767925,1536.50201 207.138274,1536.13947 207.138274,1535.69034 C207.138274,1535.24117 206.768028,1534.87868 206.313123,1534.87868 L206.313123,1534.87868 L206.313123,1534.87868 Z M206.313123,1535.24791 C206.565836,1535.24791 206.769044,1535.44686 206.769044,1535.69034 C206.769044,1535.93377 206.565746,1536.13278 206.313123,1536.13278 C206.0605,1536.13278 205.857202,1535.93377 205.857202,1535.69034 C205.857202,1535.44686 206.06041,1535.24791 206.313123,1535.24791 L206.313123,1535.24791 L206.313123,1535.24791 Z M209.079815,1529.25456 C209.533696,1529.25456 209.902763,1528.89075 209.902763,1528.44073 C209.902763,1527.99072 209.533696,1527.6269 209.079815,1527.6269 C208.625935,1527.6269 208.256868,1527.99072 208.256868,1528.44073 C208.256868,1528.89085 208.625891,1529.25456 209.079815,1529.25456 L209.079815,1529.25456 L209.079815,1529.25456 Z M209.079815,1528.88533 C208.828623,1528.88533 208.626099,1528.68573 208.626099,1528.44073 C208.626099,1528.19583 208.82868,1527.99614 209.079815,1527.99614 C209.330951,1527.99614 209.533532,1528.19583 209.533532,1528.44073 C209.533532,1528.68564 209.330951,1528.88533 209.079815,1528.88533 L209.079815,1528.88533 L209.079815,1528.88533 Z M214.217424,1528.44073 C214.217424,1528.89085 214.586447,1529.25456 215.040372,1529.25456 C215.494252,1529.25456 215.863319,1528.89075 215.863319,1528.44073 C215.863319,1527.99072 215.494252,1527.6269 215.040372,1527.6269 C214.586491,1527.6269 214.217424,1527.99072 214.217424,1528.44073 L214.217424,1528.44073 L214.217424,1528.44073 Z M214.586655,1528.44073 C214.586655,1528.19583 214.789236,1527.99614 215.040371,1527.99614 C215.291507,1527.99614 215.494088,1528.19583 215.494088,1528.44073 C215.494088,1528.68564 215.291507,1528.88533 215.040372,1528.88533 C214.789179,1528.88533 214.586655,1528.68573 214.586655,1528.44073 L214.586655,1528.44073 L214.586655,1528.44073 Z M208.626099,1532.0021 C208.626099,1531.5531 208.256905,1531.19043 207.803152,1531.19043 C207.349399,1531.19043 206.980205,1531.5531 206.980205,1532.0021 C206.980205,1532.45109 207.349399,1532.81376 207.803152,1532.81376 C208.257008,1532.81376 208.626099,1532.45114 208.626099,1532.0021 L208.626099,1532.0021 L208.626099,1532.0021 Z M208.256868,1532.0021 C208.256868,1532.24574 208.054534,1532.44453 207.803152,1532.44453 C207.55186,1532.44453 207.349435,1532.24569 207.349435,1532.0021 C207.349435,1531.75851 207.55186,1531.55966 207.803152,1531.55966 C208.054444,1531.55966 208.256868,1531.75851 208.256868,1532.0021 L208.256868,1532.0021 L208.256868,1532.0021 Z M211.23722,1528.44073 C211.23722,1528.89085 211.606242,1529.25456 212.060167,1529.25456 C212.514048,1529.25456 212.883114,1528.89075 212.883114,1528.44073 C212.883114,1527.99072 212.514048,1527.6269 212.060167,1527.6269 C211.606184,1527.6269 211.23722,1527.99067 211.23722,1528.44073 L211.23722,1528.44073 L211.23722,1528.44073 Z M211.606451,1528.44073 C211.606451,1528.19578 211.808941,1527.99614 212.060167,1527.99614 C212.311303,1527.99614 212.513883,1528.19583 212.513883,1528.44073 C212.513883,1528.68564 212.311303,1528.88533 212.060167,1528.88533 C211.808974,1528.88533 211.606451,1528.68573 211.606451,1528.44073 L211.606451,1528.44073 L211.606451,1528.44073 Z M217.197629,1528.44073 C217.197629,1528.89099 217.567807,1529.25456 218.02278,1529.25456 C218.477709,1529.25456 218.847932,1528.89089 218.847932,1528.44073 C218.847932,1527.99058 218.477709,1527.6269 218.02278,1527.6269 C217.567851,1527.6269 217.197629,1527.99058 217.197629,1528.44073 L217.197629,1528.44073 L217.197629,1528.44073 Z M217.56686,1528.44073 C217.56686,1528.19599 217.770313,1527.99614 218.02278,1527.99614 C218.275248,1527.99614 218.478701,1528.19599 218.478701,1528.44073 C218.478701,1528.68548 218.275248,1528.88533 218.02278,1528.88533 C217.770255,1528.88533 217.56686,1528.68556 217.56686,1528.44073 L217.56686,1528.44073 L217.56686,1528.44073 Z M222.493307,1532.81376 C224.12382,1532.81376 225.446966,1531.51295 225.446966,1529.90688 C225.446966,1528.30071 224.123869,1527 222.493307,1527 C221.736268,1527 221.023879,1527.28371 220.479354,1527.78447 L220.336384,1527.91595 L220.474948,1528.05206 L220.492728,1528.06953 L220.622102,1527.93783 L220.512998,1527.7889 C220.304375,1527.94173 220.178127,1528.18056 220.178127,1528.44102 C220.178127,1528.89128 220.548306,1529.25485 221.003279,1529.25485 C221.280386,1529.25485 221.534693,1529.11884 221.68721,1528.8963 L221.653116,1528.93376 C221.888893,1528.73728 222.183535,1528.6278 222.495659,1528.6278 C223.217302,1528.6278 223.801219,1529.20222 223.801219,1529.90919 C223.801219,1530.54788 223.320983,1531.08658 222.680967,1531.17604 L222.52191,1531.19828 L222.52191,1531.35888 L222.52191,1531.37649 L222.706526,1531.37649 L222.706526,1531.19188 L213.125964,1531.19188 L210.572289,1531.19058 L210.38758,1531.19048 L210.38758,1531.37519 L210.38758,1531.41316 L210.572195,1531.41316 L210.511822,1531.23869 C210.184674,1531.3519 209.960556,1531.65493 209.960556,1532.00224 C209.960556,1532.34949 210.184747,1532.65254 210.51179,1532.76578 L210.572195,1532.59133 L210.38758,1532.59133 L210.38758,1532.62929 L210.38758,1532.81391 L210.572195,1532.81391 L222.282,1532.81391 L222.296436,1532.81334 C222.327005,1532.81094 222.353801,1532.81093 222.418346,1532.81254 C222.454178,1532.81344 222.471588,1532.81376 222.493307,1532.81376 L222.493307,1532.81376 L222.493307,1532.81376 Z M222.493307,1532.44453 C222.47567,1532.44453 222.461819,1532.44427 222.42757,1532.44342 C222.350289,1532.44149 222.315066,1532.44152 222.267571,1532.44524 L222.267567,1532.44524 L210.572195,1532.44468 L210.572195,1532.62929 L210.756811,1532.62929 L210.756811,1532.59133 L210.756811,1532.45988 L210.632601,1532.41687 C210.451773,1532.35426 210.329787,1532.18936 210.329787,1532.00224 C210.329787,1531.81505 210.451697,1531.65021 210.632569,1531.58762 L210.756811,1531.54463 L210.756811,1531.41316 L210.756811,1531.37519 L210.572195,1531.37519 L210.572102,1531.55981 L213.12587,1531.56111 L222.706526,1531.56111 L222.891141,1531.56111 L222.891141,1531.37649 L222.891141,1531.35888 L222.706526,1531.35888 L222.732084,1531.54172 C223.552633,1531.42701 224.17045,1530.73399 224.17045,1529.90919 C224.17045,1528.99693 223.419879,1528.25857 222.495659,1528.25857 C222.09604,1528.25857 221.718053,1528.39901 221.41674,1528.65011 L221.382646,1528.68756 C221.298497,1528.81034 221.157749,1528.88562 221.003279,1528.88562 C220.750754,1528.88562 220.547358,1528.68585 220.547358,1528.44102 C220.547358,1528.30065 220.615695,1528.17137 220.731205,1528.08675 L220.906455,1527.95836 L220.751475,1527.80612 L220.733695,1527.78866 L220.604321,1527.92036 L220.729288,1528.05625 C221.206354,1527.61753 221.82982,1527.36923 222.493307,1527.36923 C223.921345,1527.36923 225.077736,1528.50606 225.077736,1529.90688 C225.077736,1531.30761 223.921293,1532.44453 222.493307,1532.44453 L222.493307,1532.44453 L222.493307,1532.44453 Z M214.617903,1538.64531 C214.164022,1538.64531 213.794956,1539.00912 213.794956,1539.45913 C213.794956,1539.90915 214.164022,1540.27296 214.617903,1540.27296 C215.071783,1540.27296 215.44085,1539.90915 215.44085,1539.45913 C215.44085,1539.00912 215.071783,1538.64531 214.617903,1538.64531 L214.617903,1538.64531 L214.617903,1538.64531 Z M214.617903,1539.01454 C214.869039,1539.01454 215.071619,1539.21423 215.071619,1539.45913 C215.071619,1539.70404 214.869039,1539.90373 214.617903,1539.90373 C214.366767,1539.90373 214.164186,1539.70404 214.164186,1539.45913 C214.164186,1539.21423 214.366767,1539.01454 214.617903,1539.01454 L214.617903,1539.01454 L214.617903,1539.01454 Z M220.578312,1538.64531 C220.124431,1538.64531 219.755365,1539.00912 219.755365,1539.45913 C219.755365,1539.90915 220.124431,1540.27296 220.578312,1540.27296 C221.032192,1540.27296 221.401259,1539.90915 221.401259,1539.45913 C221.401259,1539.00912 221.032192,1538.64531 220.578312,1538.64531 L220.578312,1538.64531 L220.578312,1538.64531 Z M220.578312,1539.01454 C220.829448,1539.01454 221.032028,1539.21423 221.032028,1539.45913 C221.032028,1539.70404 220.829448,1539.90373 220.578312,1539.90373 C220.327176,1539.90373 220.124595,1539.70404 220.124595,1539.45913 C220.124595,1539.21423 220.327176,1539.01454 220.578312,1539.01454 L220.578312,1539.01454 L220.578312,1539.01454 Z M217.598107,1538.64531 C217.144227,1538.64531 216.77516,1539.00912 216.77516,1539.45913 C216.77516,1539.90915 217.144227,1540.27296 217.598107,1540.27296 C218.051988,1540.27296 218.421055,1539.90915 218.421055,1539.45913 C218.421055,1539.00912 218.051988,1538.64531 217.598107,1538.64531 L217.598107,1538.64531 L217.598107,1538.64531 Z M217.598107,1539.01454 C217.849243,1539.01454 218.051824,1539.21423 218.051824,1539.45913 C218.051824,1539.70404 217.849243,1539.90373 217.598107,1539.90373 C217.346971,1539.90373 217.144391,1539.70404 217.144391,1539.45913 C217.144391,1539.21423 217.346971,1539.01454 217.598107,1539.01454 L217.598107,1539.01454 L217.598107,1539.01454 Z M208.654996,1538.64531 C208.199964,1538.64531 207.829844,1539.00894 207.829844,1539.45913 C207.829844,1539.90929 208.200067,1540.27296 208.654996,1540.27296 C209.109924,1540.27296 209.480147,1539.90929 209.480147,1539.45913 C209.480147,1539.00894 209.110027,1538.64531 208.654996,1538.64531 L208.654996,1538.64531 L208.654996,1538.64531 Z M208.654996,1539.01454 C208.907553,1539.01454 209.110916,1539.21434 209.110916,1539.45913 C209.110916,1539.70388 208.907463,1539.90373 208.654996,1539.90373 C208.402528,1539.90373 208.199075,1539.70388 208.199075,1539.45913 C208.199075,1539.21434 208.402438,1539.01454 208.654996,1539.01454 L208.654996,1539.01454 L208.654996,1539.01454 Z M224.835388,1534.88922 L215.467603,1534.87868 L215.28278,1534.87847 L215.28278,1535.06329 L215.28278,1535.10126 L215.467396,1535.10126 L215.527691,1534.92677 C215.43724,1534.89551 215.347737,1534.87868 215.256088,1534.87868 C214.802334,1534.87868 214.43314,1535.24135 214.43314,1535.69034 C214.43314,1536.13934 214.802334,1536.50201 215.256088,1536.50201 C215.347961,1536.50201 215.437543,1536.4852 215.52791,1536.45384 L215.467396,1536.27943 L215.28278,1536.27943 L215.28278,1536.31739 L215.28278,1536.50201 L215.467396,1536.50201 L215.680761,1536.50201 L225.261226,1536.49941 L225.261176,1536.31479 L225.07656,1536.31479 L225.07656,1536.33399 L225.07656,1536.49445 L225.235448,1536.51681 C225.874784,1536.60678 226.354252,1537.1452 226.354252,1537.78339 C226.354252,1538.49042 225.770429,1539.06478 225.048692,1539.06478 C224.736771,1539.06478 224.44265,1538.95636 224.208659,1538.76174 L224.243611,1538.80038 C224.091847,1538.5756 223.836949,1538.43773 223.558663,1538.43773 C223.10491,1538.43773 222.735716,1538.8004 222.735716,1539.2494 C222.735716,1539.52049 222.871869,1539.76863 223.09409,1539.91883 L223.197471,1539.76588 L223.068097,1539.63417 L223.047231,1539.65467 L222.907842,1539.7916 L223.052446,1539.923 C223.593518,1540.41469 224.299026,1540.69244 225.048692,1540.69244 C226.677924,1540.69244 228,1539.39159 228,1537.78556 C228,1536.17953 226.677924,1534.87868 225.048692,1534.87868 C224.98414,1534.87868 224.934869,1534.88138 224.827214,1534.8893 C224.824427,1534.88951 224.824427,1534.88951 224.821647,1534.88971 L224.821643,1534.88971 L224.835388,1534.88922 L224.835388,1534.88922 Z M224.848717,1535.25795 L224.84872,1535.25795 C224.851517,1535.25774 224.851517,1535.25774 224.854306,1535.25754 C224.953009,1535.25028 224.996146,1535.24791 225.048692,1535.24791 C226.475329,1535.24791 227.630769,1536.3848 227.630769,1537.78556 C227.630769,1539.18632 226.475329,1540.32321 225.048692,1540.32321 C224.391688,1540.32321 223.774475,1540.08022 223.300763,1539.64974 L223.176605,1539.78637 L223.305978,1539.91807 L223.326845,1539.89758 L223.487915,1539.73935 L223.300852,1539.61292 C223.178705,1539.53036 223.104947,1539.39593 223.104947,1539.2494 C223.104947,1539.00581 223.307371,1538.80696 223.558663,1538.80696 C223.713231,1538.80696 223.853928,1538.88306 223.937602,1539.00699 L223.972554,1539.04562 C224.272241,1539.29487 224.64968,1539.43401 225.048692,1539.43401 C225.973012,1539.43401 226.723483,1538.6957 226.723483,1537.78339 C226.723483,1536.95923 226.106632,1536.26654 225.286903,1536.15118 L225.261176,1536.33399 L225.445791,1536.33399 L225.445791,1536.31479 L225.445791,1536.13013 L225.261125,1536.13018 L215.680711,1536.13278 L215.467396,1536.13278 L215.467396,1536.31739 L215.652011,1536.31739 L215.652011,1536.27943 L215.652011,1536.01996 L215.406881,1536.10501 C215.353522,1536.12353 215.304224,1536.13278 215.256088,1536.13278 C215.004796,1536.13278 214.802371,1535.93393 214.802371,1535.69034 C214.802371,1535.44676 215.004796,1535.24791 215.256088,1535.24791 C215.304002,1535.24791 215.35344,1535.25721 215.4071,1535.27575 L215.652011,1535.36038 L215.652011,1535.10126 L215.652011,1535.06329 L215.467396,1535.06329 L215.467188,1535.24791 L224.834972,1535.25845 L224.848717,1535.25795 L224.848717,1535.25795 Z M209.295679,1534.87868 C208.841925,1534.87868 208.472731,1535.24135 208.472731,1535.69034 C208.472731,1536.13934 208.841925,1536.50201 209.295679,1536.50201 C209.749432,1536.50201 210.118626,1536.13934 210.118626,1535.69034 C210.118626,1535.24135 209.749432,1534.87868 209.295679,1534.87868 L209.295679,1534.87868 L209.295679,1534.87868 Z M209.295679,1535.24791 C209.546971,1535.24791 209.749395,1535.44676 209.749395,1535.69034 C209.749395,1535.93393 209.546971,1536.13278 209.295679,1536.13278 C209.044387,1536.13278 208.841962,1535.93393 208.841962,1535.69034 C208.841962,1535.44676 209.044387,1535.24791 209.295679,1535.24791 L209.295679,1535.24791 L209.295679,1535.24791 Z M212.275883,1534.87868 C211.82213,1534.87868 211.452936,1535.24135 211.452936,1535.69034 C211.452936,1536.13934 211.82213,1536.50201 212.275883,1536.50201 C212.729636,1536.50201 213.09883,1536.13934 213.09883,1535.69034 C213.09883,1535.24135 212.729636,1534.87868 212.275883,1534.87868 L212.275883,1534.87868 L212.275883,1534.87868 Z M212.275883,1535.24791 C212.527175,1535.24791 212.7296,1535.44676 212.7296,1535.69034 C212.7296,1535.93393 212.527175,1536.13278 212.275883,1536.13278 C212.024591,1536.13278 211.822167,1535.93393 211.822167,1535.69034 C211.822167,1535.44676 212.024591,1535.24791 212.275883,1535.24791 L212.275883,1535.24791 L212.275883,1535.24791 Z M211.635347,1538.64531 C211.180316,1538.64531 210.810196,1539.00894 210.810196,1539.45913 C210.810196,1539.90929 211.180418,1540.27296 211.635347,1540.27296 C212.090276,1540.27296 212.460499,1539.90929 212.460499,1539.45913 C212.460499,1539.00898 212.090276,1538.64531 211.635347,1538.64531 L211.635347,1538.64531 L211.635347,1538.64531 Z M204.822947,1531.37505 C204.470425,1531.37505 204.184615,1531.65581 204.184615,1532.0021 C204.184615,1532.34839 204.470425,1532.62915 204.822947,1532.62915 C205.17547,1532.62915 205.461279,1532.34839 205.461279,1532.0021 C205.461279,1531.65581 205.17547,1531.37505 204.822947,1531.37505 L204.822947,1531.37505 Z M206.313123,1535.06329 C205.959278,1535.06329 205.672587,1535.34405 205.672587,1535.69034 C205.672587,1536.03664 205.959425,1536.31739 206.313123,1536.31739 C206.666821,1536.31739 206.953659,1536.03664 206.953659,1535.69034 C206.953659,1535.34405 206.666968,1535.06329 206.313123,1535.06329 L206.313123,1535.06329 Z M209.079815,1529.06995 C209.432338,1529.06995 209.718147,1528.78818 209.718147,1528.44073 C209.718147,1528.09329 209.432338,1527.81152 209.079815,1527.81152 C208.727293,1527.81152 208.441484,1528.09329 208.441484,1528.44073 C208.441484,1528.78833 208.727293,1529.06995 209.079815,1529.06995 L209.079815,1529.06995 Z M214.40204,1528.44073 C214.40204,1528.78833 214.687849,1529.06995 215.040372,1529.06995 C215.392894,1529.06995 215.678703,1528.78818 215.678703,1528.44073 C215.678703,1528.09329 215.392894,1527.81152 215.040372,1527.81152 C214.687849,1527.81152 214.40204,1528.09329 214.40204,1528.44073 L214.40204,1528.44073 Z M208.441484,1532.0021 C208.441484,1531.65581 208.155674,1531.37505 207.803152,1531.37505 C207.450629,1531.37505 207.16482,1531.65581 207.16482,1532.0021 C207.16482,1532.34839 207.450629,1532.62915 207.803152,1532.62915 C208.155821,1532.62915 208.441484,1532.34839 208.441484,1532.0021 L208.441484,1532.0021 Z M211.421835,1528.44073 C211.421835,1528.78833 211.707644,1529.06995 212.060167,1529.06995 C212.41269,1529.06995 212.698499,1528.78818 212.698499,1528.44073 C212.698499,1528.09329 212.41269,1527.81152 212.060167,1527.81152 C211.707497,1527.81152 211.421835,1528.09329 211.421835,1528.44073 L211.421835,1528.44073 Z M217.382244,1528.44073 C217.382244,1528.78833 217.669082,1529.06995 218.02278,1529.06995 C218.376478,1529.06995 218.663316,1528.78818 218.663316,1528.44073 C218.663316,1528.09329 218.376478,1527.81152 218.02278,1527.81152 C217.669082,1527.81152 217.382244,1528.09329 217.382244,1528.44073 L217.382244,1528.44073 Z M225.262351,1529.90688 C225.262351,1528.40335 224.022571,1527.18462 222.493307,1527.18462 C221.762253,1527.18462 221.099234,1527.46523 220.604321,1527.92036 L220.622102,1527.93783 C220.465458,1528.05258 220.362743,1528.23432 220.362743,1528.44102 C220.362743,1528.78861 220.64958,1529.07024 221.003279,1529.07024 C221.224726,1529.07024 221.41987,1528.95981 221.534928,1528.79193 C221.794581,1528.57556 222.128735,1528.44319 222.495659,1528.44319 C223.318554,1528.44319 223.985834,1529.09954 223.985834,1529.90919 C223.985834,1530.64825 223.429351,1531.25784 222.706526,1531.35888 L222.706526,1531.37649 L213.125964,1531.37649 L210.572195,1531.37519 L210.572195,1531.41316 C210.324004,1531.49904 210.145171,1531.72913 210.145171,1532.00224 C210.145171,1532.27535 210.324151,1532.50544 210.572195,1532.59133 L210.572195,1532.62929 L222.282,1532.62929 C222.351946,1532.62381 222.421892,1532.62915 222.493307,1532.62915 C224.022571,1532.62915 225.262351,1531.41027 225.262351,1529.90688 L225.262351,1529.90688 Z M214.617903,1538.82992 C214.26538,1538.82992 213.979571,1539.11169 213.979571,1539.45913 C213.979571,1539.80658 214.26538,1540.08835 214.617903,1540.08835 C214.970425,1540.08835 215.256235,1539.80658 215.256235,1539.45913 C215.256235,1539.11169 214.970425,1538.82992 214.617903,1538.82992 L214.617903,1538.82992 Z M220.578312,1538.82992 C220.225789,1538.82992 219.93998,1539.11169 219.93998,1539.45913 C219.93998,1539.80658 220.225789,1540.08835 220.578312,1540.08835 C220.930834,1540.08835 221.216644,1539.80658 221.216644,1539.45913 C221.216644,1539.11169 220.930834,1538.82992 220.578312,1538.82992 L220.578312,1538.82992 Z M217.598107,1538.82992 C217.245585,1538.82992 216.959775,1539.11169 216.959775,1539.45913 C216.959775,1539.80658 217.245585,1540.08835 217.598107,1540.08835 C217.95063,1540.08835 218.236439,1539.80658 218.236439,1539.45913 C218.236439,1539.11169 217.95063,1538.82992 217.598107,1538.82992 L217.598107,1538.82992 Z M208.654996,1538.82992 C208.301151,1538.82992 208.01446,1539.11169 208.01446,1539.45913 C208.01446,1539.80658 208.301298,1540.08835 208.654996,1540.08835 C209.008694,1540.08835 209.295532,1539.80658 209.295532,1539.45913 C209.295532,1539.11169 209.008841,1538.82992 208.654996,1538.82992 L208.654996,1538.82992 Z M224.83518,1535.07383 L215.467396,1535.06329 L215.467396,1535.10126 C215.400976,1535.07831 215.330589,1535.06329 215.256088,1535.06329 C214.903565,1535.06329 214.617756,1535.34405 214.617756,1535.69034 C214.617756,1536.03664 214.903565,1536.31739 215.256088,1536.31739 C215.330589,1536.31739 215.400829,1536.30252 215.467396,1536.27943 L215.467396,1536.31739 L215.680761,1536.31739 L225.261176,1536.31479 L225.261176,1536.33399 C225.983266,1536.43561 226.538868,1537.04491 226.538868,1537.78339 C226.538868,1538.59304 225.871735,1539.2494 225.048692,1539.2494 C224.683091,1539.2494 224.349378,1539.11891 224.090607,1538.90368 C223.976283,1538.73436 223.780992,1538.62235 223.558663,1538.62235 C223.206141,1538.62235 222.920331,1538.90311 222.920331,1539.2494 C222.920331,1539.4639 223.030247,1539.65285 223.197471,1539.76588 L223.176605,1539.78637 C223.668873,1540.23371 224.325573,1540.50783 225.048692,1540.50783 C226.576633,1540.50783 227.815385,1539.28895 227.815385,1537.78556 C227.815385,1536.28217 226.576633,1535.06329 225.048692,1535.06329 C224.976542,1535.06329 224.905861,1535.06864 224.83518,1535.07383 L224.83518,1535.07383 Z M209.295679,1535.06329 C208.943156,1535.06329 208.657347,1535.34405 208.657347,1535.69034 C208.657347,1536.03664 208.943156,1536.31739 209.295679,1536.31739 C209.648201,1536.31739 209.934011,1536.03664 209.934011,1535.69034 C209.934011,1535.34405 209.648201,1535.06329 209.295679,1535.06329 L209.295679,1535.06329 Z M212.275883,1535.06329 C211.923361,1535.06329 211.637551,1535.34405 211.637551,1535.69034 C211.637551,1536.03664 211.923361,1536.31739 212.275883,1536.31739 C212.628406,1536.31739 212.914215,1536.03664 212.914215,1535.69034 C212.914215,1535.34405 212.628406,1535.06329 212.275883,1535.06329 L212.275883,1535.06329 Z M211.635347,1538.82992 C211.281502,1538.82992 210.994811,1539.11169 210.994811,1539.45913 C210.994811,1539.80658 211.281649,1540.08835 211.635347,1540.08835 C211.989045,1540.08835 212.275883,1539.80658 212.275883,1539.45913 C212.275883,1539.11169 211.989045,1538.82992 211.635347,1538.82992 L211.635347,1538.82992 Z" id="Combined-Shape"></path>
        </g>
    </g>
</svg>