<?xml version="1.0" encoding="UTF-8" standalone="no"?>
<svg width="24px" height="24px" viewBox="0 0 24 24" version="1.1" xmlns="http://www.w3.org/2000/svg" xmlns:xlink="http://www.w3.org/1999/xlink">
    <!-- Generator: Sketch 3.8.3 (29802) - http://www.bohemiancoding.com/sketch -->
    <title>31</title>
    <desc>Created with Sketch.</desc>
    <defs></defs>
    <g id="天气图标" stroke="none" stroke-width="1" fill="none" fill-rule="evenodd">
        <g id="天气图标_白色背景" transform="translate(-204.000000, -1674.000000)" fill="#B5B5B5">
            <path d="M222.278251,1681.28412 C218.840182,1681.28412 216.84796,1684.04682 216.00044,1685.59877 C215.15248,1684.04682 213.160258,1681.28324 209.721749,1681.28324 C206.245817,1681.28324 204,1683.46522 204,1686.84297 C204,1690.26299 206.273554,1692.47182 209.793073,1692.47182 C213.21221,1692.47182 215.163047,1689.67347 216,1688.07 C216.836073,1689.67259 218.786909,1692.47182 222.205606,1692.47182 C225.725565,1692.47182 227.999119,1690.26299 228,1686.84385 C228,1683.4661 225.754623,1681.28412 222.278251,1681.28412 Z M215.997358,1678.16349 C216.594805,1678.16349 217.079102,1677.67875 217.079102,1677.08174 C217.079102,1676.4843 216.594805,1676 215.997358,1676 C215.399912,1676 214.915615,1676.4843 214.915615,1677.08174 C214.915615,1677.67875 215.399912,1678.16349 215.997358,1678.16349 Z M226.814485,1678.16349 C227.411491,1678.16349 227.895788,1677.67875 227.895788,1677.08174 C227.895788,1676.4843 227.411491,1676 226.814485,1676 C226.217479,1676 225.732741,1676.4843 225.732741,1677.08174 C225.732741,1677.67875 226.217479,1678.16349 226.814485,1678.16349 Z M205.962284,1678.16349 C206.55929,1678.16349 207.044027,1677.67875 207.044027,1677.08174 C207.044027,1676.4843 206.55929,1676 205.962284,1676 C205.364837,1676 204.88054,1676.4843 204.88054,1677.08174 C204.88054,1677.67875 205.364837,1678.16349 205.962284,1678.16349 Z M215.913927,1694.93157 C215.316481,1694.93157 214.832184,1695.41586 214.832184,1696.01331 C214.832184,1696.61032 215.316481,1697.09505 215.913927,1697.09505 C216.510933,1697.09505 216.995671,1696.61032 216.995671,1696.01331 C216.995671,1695.41586 216.510933,1694.93157 215.913927,1694.93157 Z M226.730657,1694.93157 C226.133211,1694.93157 225.648914,1695.41586 225.648914,1696.01331 C225.648914,1696.61032 226.133211,1697.09505 226.730657,1697.09505 C227.328104,1697.09505 227.812401,1696.61032 227.812401,1696.01331 C227.812401,1695.41586 227.328104,1694.93157 226.730657,1694.93157 Z M205.962284,1694.93157 C205.364837,1694.93157 204.88054,1695.41586 204.88054,1696.01331 C204.88054,1696.61032 205.364837,1697.09505 205.962284,1697.09505 C206.55929,1697.09505 207.044027,1696.61032 207.044027,1696.01331 C207.044027,1695.41586 206.55929,1694.93157 205.962284,1694.93157 Z M209.874083,1690.602 C207.434547,1690.602 205.978574,1689.1993 205.978574,1686.84913 C205.978574,1684.53463 207.412093,1683.15307 209.815087,1683.15307 C212.688289,1683.15307 214.183886,1686.12049 214.498679,1686.82492 C214.197534,1687.54652 212.753449,1690.602 209.874083,1690.602 Z M222.120634,1690.55401 C219.286616,1690.55401 217.853977,1687.5364 217.556355,1686.82492 C217.864984,1686.12841 219.332844,1683.2015 222.17875,1683.2015 C224.549163,1683.2015 225.965072,1684.56545 225.965072,1686.84957 C225.965072,1689.16892 224.528471,1690.55401 222.120634,1690.55401 Z" id="Combined-Shape"></path>
        </g>
    </g>
</svg>