<?xml version="1.0" encoding="UTF-8" standalone="no"?>
<svg width="24px" height="24px" viewBox="0 0 24 24" version="1.1" xmlns="http://www.w3.org/2000/svg" xmlns:xlink="http://www.w3.org/1999/xlink">
    <!-- Generator: Sketch 3.8.3 (29802) - http://www.bohemiancoding.com/sketch -->
    <title>32</title>
    <desc>Created with Sketch.</desc>
    <defs></defs>
    <g id="天气图标" stroke="none" stroke-width="1" fill="none" fill-rule="evenodd">
        <g id="天气图标_白色背景" transform="translate(-204.000000, -1737.000000)" fill="#B6B6B6">
            <path d="M204.618628,1746.48994 L215.126046,1746.48994 C216.915024,1746.48994 218.370499,1745.03446 218.370499,1743.24548 C218.370499,1741.45547 216.915024,1740 215.126046,1740 C213.422502,1740 212.022611,1741.31857 211.890857,1742.98815 L213.13326,1742.98815 C213.259868,1742.00205 214.104949,1741.23623 215.126046,1741.23623 C216.233607,1741.23623 217.134272,1742.13689 217.134272,1743.24548 C217.134272,1744.35304 216.233607,1745.25371 215.126046,1745.25371 L204.618628,1745.25371 C204.27792,1745.25371 204,1745.52957 204,1745.87028 C204,1746.03703 204.063819,1746.19246 204.180133,1746.30877 C204.297477,1746.42612 204.452906,1746.48994 204.618628,1746.48994 Z M223.880923,1752.25985 L204.61904,1752.25985 C204.278331,1752.25985 204.000412,1752.53674 204.000412,1752.87745 C204.000412,1753.21816 204.278331,1753.49402 204.61904,1753.49402 L223.880923,1753.49402 C224.988484,1753.49402 225.88915,1754.39572 225.88915,1755.50431 C225.88915,1756.61187 224.988484,1757.5115 223.880923,1757.5115 C222.859826,1757.5115 222.014745,1756.74671 221.887108,1755.76164 L220.645734,1755.76164 C220.777489,1757.43122 222.178409,1758.74979 223.880923,1758.74979 C225.668873,1758.74979 227.123318,1757.29432 227.123318,1755.50431 C227.123318,1753.71533 225.668873,1752.25985 223.880923,1752.25985 Z M219.816813,1746.48994 L221.071569,1746.48994 C221.022161,1746.28201 220.997457,1746.0782 220.997457,1745.87234 C220.997457,1744.28099 222.291327,1742.98815 223.880615,1742.98815 C225.471961,1742.98815 226.765831,1744.28099 226.765831,1745.87234 C226.765831,1747.37413 225.630479,1748.60521 224.126625,1748.73285 C224.100892,1748.74211 224.053542,1748.7555 223.993841,1748.7555 L204.618731,1748.7555 C204.278022,1748.7555 204.000103,1749.03341 204.000103,1749.37515 C204.000103,1749.53985 204.063921,1749.69425 204.180236,1749.81056 C204.29655,1749.9279 204.453009,1749.99172 204.618731,1749.99172 L223.880615,1749.99172 C226.15235,1749.99172 228,1748.14407 228,1745.87234 C228,1743.59957 226.15235,1741.75089 223.880615,1741.75089 C221.60785,1741.75089 219.759171,1743.59957 219.759171,1745.87234 C219.759171,1746.06585 219.777699,1746.26554 219.816813,1746.48994 Z" id="Combined-Shape"></path>
        </g>
    </g>
</svg>