<?xml version="1.0" encoding="UTF-8" standalone="no"?>
<svg width="24px" height="24px" viewBox="0 0 24 24" version="1.1" xmlns="http://www.w3.org/2000/svg" xmlns:xlink="http://www.w3.org/1999/xlink">
    <!-- Generator: Sketch 3.8.3 (29802) - http://www.bohemiancoding.com/sketch -->
    <title>34</title>
    <desc>Created with Sketch.</desc>
    <defs></defs>
    <g id="天气图标" stroke="none" stroke-width="1" fill="none" fill-rule="evenodd">
        <g id="天气图标_白色背景" transform="translate(-204.000000, -1838.000000)" fill="#B6B6B6">
            <path d="M216.635569,1860.45643 L214.468039,1860.45643 C214.209168,1860.45643 213.997552,1860.67729 213.997552,1860.94849 L213.997552,1861.50938 C213.997552,1861.78058 214.209168,1862.00041 214.468039,1862.00041 L216.635569,1862.00041 C216.89444,1862.00041 217.105029,1861.78058 217.105029,1861.50938 L217.105029,1860.94849 C217.105029,1860.67729 216.89444,1860.45643 216.635569,1860.45643 Z M223.898643,1852.97157 L213.91157,1852.97157 C213.652699,1852.97157 213.442109,1853.19141 213.442109,1853.4626 L213.442109,1854.02349 C213.442109,1854.29469 213.652699,1854.51555 213.91157,1854.51555 L223.898643,1854.51555 C224.157514,1854.51555 224.368103,1854.29469 224.368103,1854.02349 L224.368103,1853.4626 C224.368103,1853.19141 224.157514,1852.97157 223.898643,1852.97157 Z M204.466378,1839.79977 L204.468433,1839.54398 L227.53054,1839.54398 C227.789411,1839.54398 228,1839.32415 228,1839.05295 L228,1838.49103 C228,1838.21983 227.789411,1838 227.53054,1838 L204.46946,1838 C204.210589,1838 204,1838.21983 204,1838.49103 L204,1839.05295 C204,1839.18546 204.049309,1839.30976 204.139708,1839.40324 C204.227026,1839.49364 204.343107,1839.54398 204.466378,1839.54398 L204.466378,1839.79977 Z M220.267055,1856.71349 L214.637641,1856.71349 C214.37877,1856.71349 214.16818,1856.93332 214.16818,1857.20452 L214.16818,1857.76541 C214.16818,1858.0366 214.37877,1858.25747 214.637641,1858.25747 L220.267055,1858.25747 C220.525926,1858.25747 220.736515,1858.0366 220.736515,1857.76541 L220.736515,1857.20452 C220.736515,1856.93332 220.525926,1856.71349 220.267055,1856.71349 Z M227.534238,1849.22976 L210.280289,1849.22976 C210.020391,1849.22976 209.809802,1849.44959 209.809802,1849.72079 L209.809802,1850.27962 C209.809802,1850.55082 210.020391,1850.77168 210.280289,1850.77168 L227.530129,1850.77168 C227.789,1850.77168 227.999589,1850.55082 227.999589,1850.27962 L227.999589,1849.72079 C227.999589,1849.44959 227.791054,1849.22976 227.534238,1849.22976 Z M205.9215,1847.02977 L223.172367,1847.02977 C223.431237,1847.02977 223.641827,1846.8089 223.641827,1846.5377 L223.641827,1845.97682 C223.641827,1845.70562 223.431237,1845.48579 223.172367,1845.48579 L205.9215,1845.48579 C205.662629,1845.48579 205.451012,1845.70562 205.451012,1845.97682 L205.451012,1846.5377 C205.451012,1846.8089 205.662629,1847.02977 205.9215,1847.02977 Z M227.534238,1841.74387 L208.10146,1841.74387 C207.842589,1841.74387 207.630972,1841.9637 207.630972,1842.2349 L207.630972,1842.79476 C207.630972,1843.06596 207.842589,1843.28579 208.10146,1843.28579 L227.530129,1843.28579 C227.789,1843.28579 227.999589,1843.06596 227.999589,1842.79476 L227.999589,1842.2349 C227.999589,1841.9637 227.791054,1841.74387 227.534238,1841.74387 Z" id="Combined-Shape"></path>
        </g>
    </g>
</svg>