<?xml version="1.0" encoding="UTF-8" standalone="no"?>
<svg width="24px" height="24px" viewBox="0 0 24 24" version="1.1" xmlns="http://www.w3.org/2000/svg" xmlns:xlink="http://www.w3.org/1999/xlink">
    <!-- Generator: Sketch 3.8.3 (29802) - http://www.bohemiancoding.com/sketch -->
    <title>35</title>
    <desc>Created with Sketch.</desc>
    <defs></defs>
    <g id="天气图标" stroke="none" stroke-width="1" fill="none" fill-rule="evenodd">
        <g id="天气图标_白色背景" transform="translate(-204.000000, -1888.000000)" fill="#B6B6B6">
            <path d="M216.635569,1910.45643 L214.468039,1910.45643 C214.209168,1910.45643 213.997552,1910.67729 213.997552,1910.94849 L213.997552,1911.50938 C213.997552,1911.78058 214.209168,1912.00041 214.468039,1912.00041 L216.635569,1912.00041 C216.89444,1912.00041 217.105029,1911.78058 217.105029,1911.50938 L217.105029,1910.94849 C217.105029,1910.67729 216.89444,1910.45643 216.635569,1910.45643 Z M223.898643,1902.97157 L213.91157,1902.97157 C213.652699,1902.97157 213.442109,1903.19141 213.442109,1903.4626 L213.442109,1904.02349 C213.442109,1904.29469 213.652699,1904.51555 213.91157,1904.51555 L223.898643,1904.51555 C224.157514,1904.51555 224.368103,1904.29469 224.368103,1904.02349 L224.368103,1903.4626 C224.368103,1903.19141 224.157514,1902.97157 223.898643,1902.97157 Z M204.466378,1889.79977 L204.468433,1889.54398 L227.53054,1889.54398 C227.789411,1889.54398 228,1889.32415 228,1889.05295 L228,1888.49103 C228,1888.21983 227.789411,1888 227.53054,1888 L204.46946,1888 C204.210589,1888 204,1888.21983 204,1888.49103 L204,1889.05295 C204,1889.18546 204.049309,1889.30976 204.139708,1889.40324 C204.227026,1889.49364 204.343107,1889.54398 204.466378,1889.54398 L204.466378,1889.79977 Z M220.267055,1906.71349 L214.637641,1906.71349 C214.37877,1906.71349 214.16818,1906.93332 214.16818,1907.20452 L214.16818,1907.76541 C214.16818,1908.0366 214.37877,1908.25747 214.637641,1908.25747 L220.267055,1908.25747 C220.525926,1908.25747 220.736515,1908.0366 220.736515,1907.76541 L220.736515,1907.20452 C220.736515,1906.93332 220.525926,1906.71349 220.267055,1906.71349 Z M227.534238,1899.22976 L210.280289,1899.22976 C210.020391,1899.22976 209.809802,1899.44959 209.809802,1899.72079 L209.809802,1900.27962 C209.809802,1900.55082 210.020391,1900.77168 210.280289,1900.77168 L227.530129,1900.77168 C227.789,1900.77168 227.999589,1900.55082 227.999589,1900.27962 L227.999589,1899.72079 C227.999589,1899.44959 227.791054,1899.22976 227.534238,1899.22976 Z M205.9215,1897.02977 L223.172367,1897.02977 C223.431237,1897.02977 223.641827,1896.8089 223.641827,1896.5377 L223.641827,1895.97682 C223.641827,1895.70562 223.431237,1895.48579 223.172367,1895.48579 L205.9215,1895.48579 C205.662629,1895.48579 205.451012,1895.70562 205.451012,1895.97682 L205.451012,1896.5377 C205.451012,1896.8089 205.662629,1897.02977 205.9215,1897.02977 Z M227.534238,1891.74387 L208.10146,1891.74387 C207.842589,1891.74387 207.630972,1891.9637 207.630972,1892.2349 L207.630972,1892.79476 C207.630972,1893.06596 207.842589,1893.28579 208.10146,1893.28579 L227.530129,1893.28579 C227.789,1893.28579 227.999589,1893.06596 227.999589,1892.79476 L227.999589,1892.2349 C227.999589,1891.9637 227.791054,1891.74387 227.534238,1891.74387 Z" id="Combined-Shape"></path>
        </g>
    </g>
</svg>