<?xml version="1.0" encoding="UTF-8" standalone="no"?>
<svg width="24px" height="24px" viewBox="0 0 24 24" version="1.1" xmlns="http://www.w3.org/2000/svg" xmlns:xlink="http://www.w3.org/1999/xlink">
    <!-- Generator: Sketch 3.8.3 (29802) - http://www.bohemiancoding.com/sketch -->
    <title>36</title>
    <desc>Created with Sketch.</desc>
    <defs></defs>
    <g id="天气图标" stroke="none" stroke-width="1" fill="none" fill-rule="evenodd">
        <g id="天气图标_白色背景" transform="translate(-204.000000, -1937.000000)" fill="#B6B6B6">
            <path d="M215.933679,1937 C209.342836,1937 204,1939.21786 204,1941.9536 C204,1944.68934 209.342836,1946.90721 215.933679,1946.90721 C222.524523,1946.90721 227.867358,1944.68934 227.867358,1941.9536 C227.867358,1939.21786 222.524523,1937 215.933679,1937 L215.933679,1937 Z M209.253821,1943.45469 C209.253821,1942.43906 212.286477,1941.61586 216.027497,1941.61586 C219.768518,1941.61586 222.801174,1942.43906 222.801174,1943.45469 C222.801174,1944.08335 221.638278,1944.63816 219.865339,1944.96975 C218.633543,1945.12901 217.30973,1945.21848 215.963551,1945.21848 C214.776638,1945.21848 213.61104,1945.15048 212.512241,1945.02679 C210.55857,1944.7042 209.253821,1944.12088 209.253821,1943.45469 L209.253821,1943.45469 Z M224.050532,1944.03547 C224.14345,1943.84723 224.194037,1943.65329 224.194037,1943.45469 C224.194037,1941.73444 220.547134,1940.33993 216.048363,1940.33993 C211.549591,1940.33993 207.902688,1941.73444 207.902688,1943.45469 C207.902688,1943.67851 207.965734,1943.89677 208.08312,1944.10722 C206.218463,1943.47751 205.124468,1942.642 205.410576,1941.76597 C205.876215,1940.33993 210.135262,1938.31346 215.963401,1938.31346 C221.791539,1938.31346 225.878262,1940.11477 226.516226,1941.76597 C226.83836,1942.59922 225.82152,1943.40951 224.050532,1944.03547 L224.050532,1944.03547 Z M225.550723,1946.60068 C225.430786,1946.60068 225.319705,1946.63656 225.225437,1946.69645 L225.222285,1946.69135 C223.221179,1948.09037 219.860535,1949.00873 216.049714,1949.00873 C212.247598,1949.00873 208.89446,1948.09412 206.891853,1946.7005 C206.780172,1946.56436 206.61265,1946.47564 206.422762,1946.47564 C206.086367,1946.47564 205.813619,1946.74839 205.813619,1947.08478 C205.813619,1947.18731 205.841389,1947.28248 205.886122,1947.36714 L205.879367,1947.37209 C205.886272,1947.3796 205.893927,1947.38695 205.900832,1947.39431 C205.95232,1947.48077 206.023772,1947.55297 206.109935,1947.60491 C207.93286,1949.34888 211.697298,1950.54735 216.049864,1950.54735 C220.290598,1950.54735 223.975328,1949.41043 225.84809,1947.73896 L225.84779,1947.73851 C226.033174,1947.63403 226.159716,1947.43769 226.159716,1947.20983 C226.159866,1946.87343 225.887118,1946.60068 225.550723,1946.60068 L225.550723,1946.60068 Z M221.717986,1951.34353 C221.645333,1951.34353 221.576283,1951.35839 221.512487,1951.38346 L221.510385,1951.37941 C221.500778,1951.38571 221.48982,1951.39157 221.480063,1951.39772 C221.444487,1951.41438 221.411463,1951.43465 221.38039,1951.45807 C220.193627,1952.17033 218.207383,1952.63852 215.952293,1952.63852 C213.672284,1952.63852 211.665475,1952.16043 210.483665,1951.4348 C210.429776,1951.38001 210.364028,1951.33783 210.290925,1951.30991 C210.288974,1951.30856 210.286572,1951.30721 210.284621,1951.30585 L210.28342,1951.30766 C210.225928,1951.28679 210.164834,1951.27343 210.100136,1951.27343 C209.80292,1951.27343 209.562145,1951.51436 209.562145,1951.81142 C209.562145,1951.95433 209.618886,1952.08342 209.709853,1952.17979 L209.70685,1952.18429 C210.580786,1953.26103 213.045729,1954.03724 215.952293,1954.03724 C218.673322,1954.03724 221.007669,1953.35695 222.01175,1952.38664 C222.173267,1952.28742 222.281946,1952.11074 222.281946,1951.90734 C222.282096,1951.59602 222.029463,1951.34353 221.717986,1951.34353 L221.717986,1951.34353 Z M218.623485,1955.21094 C218.355841,1955.21094 218.126774,1955.36781 218.017345,1955.59342 L218.01164,1955.58967 L216.262118,1958.20127 L214.593054,1955.57211 L214.588701,1955.57481 C214.472667,1955.36976 214.255309,1955.22986 214.002975,1955.22986 C213.629804,1955.22986 213.327334,1955.53233 213.327334,1955.9055 C213.327334,1956.05126 213.374618,1956.18545 213.453125,1956.29578 L213.452375,1956.29623 L215.44042,1959.42781 L215.439069,1959.42976 L215.547298,1959.60029 L215.551801,1959.60329 L215.973158,1960.26692 L215.97586,1960.26512 C216.025996,1960.36059 216.124918,1960.42634 216.240202,1960.42634 C216.362541,1960.42634 216.467317,1960.35278 216.514001,1960.24771 L216.516103,1960.24906 L216.89723,1959.67999 L216.902934,1959.67639 L217.054694,1959.44973 L217.053193,1959.44733 L219.133857,1956.34142 L219.1247,1956.33526 C219.231878,1956.21578 219.298827,1956.05951 219.298827,1955.88629 C219.299127,1955.51341 218.996657,1955.21094 218.623485,1955.21094 L218.623485,1955.21094 Z" id="Shape"></path>
        </g>
    </g>
</svg>