<?xml version="1.0" encoding="UTF-8" standalone="no"?>
<svg width="24px" height="24px" viewBox="0 0 24 24" version="1.1" xmlns="http://www.w3.org/2000/svg" xmlns:xlink="http://www.w3.org/1999/xlink">
    <!-- Generator: Sketch 3.8.3 (29802) - http://www.bohemiancoding.com/sketch -->
    <title>4</title>
    <desc>Created with Sketch.</desc>
    <defs></defs>
    <g id="天气图标" stroke="none" stroke-width="1" fill="none" fill-rule="evenodd" fill-opacity="0.85">
        <g id="天气图标_白色背景" transform="translate(-204.000000, -282.000000)" fill="#E5E5E5">
            <path d="M224.707216,291.889114 C224.707216,288.641874 222.009814,286 218.694366,286 C216.583512,286 214.636604,287.091132 213.554564,288.830569 C212.882141,288.380522 212.087563,288.138296 211.256281,288.138296 C209.004755,288.138296 207.173277,289.932178 207.173277,292.137317 C207.173277,292.380973 207.195378,292.622497 207.239534,292.859379 C205.306361,293.546567 204,295.341386 204,297.400908 C204,300.022743 206.12194,302 208.935403,302 L223.064386,302 C225.785857,302 228,299.831728 228,297.166323 C228.00007,295.09616 226.619764,293.246614 224.652395,292.588794 C224.680708,292.356341 224.707216,292.087185 224.707216,291.889114 Z" id="Shape-Copy-5"></path>
        </g>
    </g>
</svg>