<?xml version="1.0" encoding="UTF-8" standalone="no"?>
<svg width="24px" height="24px" viewBox="0 0 24 24" version="1.1" xmlns="http://www.w3.org/2000/svg" xmlns:xlink="http://www.w3.org/1999/xlink">
    <!-- Generator: Sketch 3.8.3 (29802) - http://www.bohemiancoding.com/sketch -->
    <title>9</title>
    <desc>Created with Sketch.</desc>
    <defs></defs>
    <g id="天气图标" stroke="none" stroke-width="1" fill="none" fill-rule="evenodd" fill-opacity="0.85">
        <g id="天气图标_白色背景" transform="translate(-204.000000, -535.000000)" fill="#E5E5E5">
            <path d="M224.707216,544.889114 C224.707216,541.641874 222.009814,539 218.694366,539 C216.583512,539 214.636604,540.091132 213.554564,541.830569 C212.882141,541.380522 212.087563,541.138296 211.256281,541.138296 C209.004755,541.138296 207.173277,542.932178 207.173277,545.137317 C207.173277,545.380973 207.195378,545.622497 207.239534,545.859379 C205.306361,546.546567 204,548.341386 204,550.400908 C204,553.022743 206.12194,555 208.935403,555 L223.064386,555 C225.785857,555 228,552.831728 228,550.166323 C228.00007,548.09616 226.619764,546.246614 224.652395,545.588794 C224.680708,545.356341 224.707216,545.087185 224.707216,544.889114 Z" id="Shape-Copy-5"></path>
        </g>
    </g>
</svg>