<?xml version="1.0" encoding="UTF-8" standalone="no"?>
<svg width="24px" height="24px" viewBox="0 0 24 24" version="1.1" xmlns="http://www.w3.org/2000/svg" xmlns:xlink="http://www.w3.org/1999/xlink">
    <!-- Generator: Sketch 3.8.3 (29802) - http://www.bohemiancoding.com/sketch -->
    <title>1</title>
    <desc>Created with Sketch.</desc>
    <defs></defs>
    <g id="天气图标" stroke="none" stroke-width="1" fill="none" fill-rule="evenodd">
        <g id="天气图标_黑色背景" transform="translate(-264.000000, -128.000000)" fill="#F8F3CB">
            <path d="M276.189062,150.000252 L276.186765,149.998248 C273.472057,149.9829 270.922115,148.918934 269.000519,146.997728 C267.065653,145.062495 266,142.489728 266,139.752488 C266,137.502312 266.722386,135.378241 268.089906,133.61034 C268.744767,132.762999 269.528837,132.025266 270.419605,131.416765 C271.319832,130.802374 272.307501,130.334127 273.355875,130.025758 C273.413917,130.00848 273.474647,130 273.535353,130 C273.724558,130 273.903084,130.083532 274.024789,130.229676 C274.186891,130.425479 274.216975,130.697922 274.101062,130.924665 C273.475967,132.14306 273.184901,133.303707 273.184901,134.578164 C273.184901,139.119768 276.880117,142.814984 281.421721,142.814984 C282.696545,142.814984 283.857484,142.523918 285.07522,141.899483 C285.164959,141.853464 285.265109,141.829319 285.365234,141.829319 C285.513113,141.829319 285.656593,141.881154 285.770209,141.975463 C285.965329,142.137272 286.04561,142.399622 285.974395,142.64401 C285.663852,143.695635 285.195605,144.683303 284.58312,145.580671 C283.975279,146.471048 283.237155,147.255191 282.389814,147.91037 C280.622011,149.277793 278.497866,150.000178 276.247764,150.000178 L276.189062,150.000178 L276.189062,150.000252 L276.189062,150.000252 Z" id="Shape"></path>
        </g>
    </g>
</svg>