<?xml version="1.0" encoding="UTF-8" standalone="no"?>
<svg width="24px" height="24px" viewBox="0 0 24 24" version="1.1" xmlns="http://www.w3.org/2000/svg" xmlns:xlink="http://www.w3.org/1999/xlink">
    <!-- Generator: Sketch 3.8.3 (29802) - http://www.bohemiancoding.com/sketch -->
    <title>11</title>
    <desc>Created with Sketch.</desc>
    <defs></defs>
    <g id="天气图标" stroke="none" stroke-width="1" fill="none" fill-rule="evenodd">
        <g id="天气图标_黑色背景" transform="translate(-264.000000, -535.000000)">
            <g id="Group-5" transform="translate(264.000000, 535.000000)">
                <path d="M20.7072155,5.88911431 C20.7072155,2.64187371 18.0098145,0 14.6943659,0 C12.5835123,0 10.6366041,1.09113228 9.55456402,2.83056893 C8.88214149,2.38052228 8.08756259,2.13829583 7.25628052,2.13829583 C5.00475489,2.13829583 3.17327654,3.93217777 3.17327654,6.13731732 C3.17327654,6.38097345 3.19537812,6.62249677 3.23953441,6.85937946 C1.30636065,7.54656663 0,9.34138606 0,11.4009085 C0,14.0227432 2.12193957,16 4.93540326,16 L19.0643858,16 C21.7858572,16 24,13.8317276 24,11.1663227 C24.0000703,9.09615962 22.6197643,7.24661365 20.6523952,6.58879366 C20.6807077,6.35634065 20.7072155,6.08718453 20.7072155,5.88911431 Z" id="Shape-Copy-5" fill-opacity="0.85" fill="#F1F1F1"></path>
                <path d="M5.02099919,18 L3.55278625,21.6042826" id="Line" stroke="#7DC5FF" stroke-width="1.5" stroke-linecap="round"></path>
                <path d="M19.0209992,18 L17.5527862,21.6042826" id="Line" stroke="#7DC5FF" stroke-width="1.5" stroke-linecap="round"></path>
                <polygon id="Page-1" fill="#EFDF17" points="10.1843029 16 8.58524646 20.2982862 10.185048 20.2982862 10.234972 20.2284761 8.75334857 24 14.0336933 18.8161186 12.2479064 18.8161186 14.2672181 16"></polygon>
            </g>
        </g>
    </g>
</svg>