<?xml version="1.0" encoding="UTF-8" standalone="no"?>
<svg width="24px" height="24px" viewBox="0 0 24 24" version="1.1" xmlns="http://www.w3.org/2000/svg" xmlns:xlink="http://www.w3.org/1999/xlink">
    <!-- Generator: Sketch 3.8.3 (29802) - http://www.bohemiancoding.com/sketch -->
    <title>17</title>
    <desc>Created with Sketch.</desc>
    <defs></defs>
    <g id="天气图标" stroke="none" stroke-width="1" fill="none" fill-rule="evenodd">
        <g id="天气图标_黑色背景" transform="translate(-264.000000, -852.000000)">
            <g id="Group-7" transform="translate(264.000000, 852.000000)">
                <path d="M16.2859083,22.9921779 C16.0031031,23.595867 15.2200502,23.882658 14.5369107,23.6327436 C14.0947639,23.4709921 13.8028379,23.1240567 13.7285712,22.7357323 L13.6084362,22.9921779 C13.325631,23.595867 12.5425781,23.882658 11.8594386,23.6327436 C11.4172919,23.4709921 11.1253658,23.1240567 11.0510992,22.7357323 L10.9309642,22.9921779 C10.6481589,23.595867 9.86510601,23.882658 9.18196651,23.6327436 C8.73981978,23.4709921 8.44789372,23.1240567 8.37362707,22.7357323 L8.25349208,22.9921779 C7.97068686,23.595867 7.18763393,23.882658 6.50449443,23.6327436 C6.0623477,23.4709921 5.77042164,23.1240567 5.69615499,22.7357323 L5.57602,22.9921779 C5.29321478,23.595867 4.51016185,23.882658 3.82702235,23.6327436 C3.14388284,23.3828291 2.81934778,22.6908468 3.10215301,22.0871577 L4.00775279,18.1536134 C4.29055801,17.5499243 5.07361094,17.2631333 5.75675044,17.5130477 C6.19889717,17.6747993 6.49082323,18.0217346 6.56508988,18.4100591 L6.68522487,18.1536134 C6.96803009,17.5499243 7.75108302,17.2631333 8.43422252,17.5130477 C8.87636925,17.6747993 9.16829531,18.0217346 9.24256196,18.4100591 L9.36269695,18.1536134 C9.64550217,17.5499243 10.4285551,17.2631333 11.1116946,17.5130477 C11.5538413,17.6747993 11.8457674,18.0217346 11.920034,18.4100591 L12.040169,18.1536134 C12.3229743,17.5499243 13.1060272,17.2631333 13.7891667,17.5130477 C14.2313134,17.6747993 14.5232395,18.0217346 14.5975061,18.4100591 L14.7176411,18.1536134 C15.0004463,17.5499243 15.7834993,17.2631333 16.4666388,17.5130477 C16.9259105,17.6810641 17.2230997,18.048887 17.2826241,18.4553582 L17.42398,18.1536134 C17.7067852,17.5499243 18.4898381,17.2631333 19.1729777,17.5130477 C19.8561172,17.7629622 20.1806522,18.4549445 19.897847,19.0586336 L18.9922472,22.9921779 C18.709442,23.595867 17.9263891,23.882658 17.2432496,23.6327436 C16.7839778,23.4647272 16.4867886,23.0969043 16.4272642,22.6904331 L16.2859083,22.9921779 Z" id="Combined-Shape" fill="#7DC5FF"></path>
                <path d="M20.7072155,5.88911431 C20.7072155,2.64187371 18.0098145,0 14.6943659,0 C12.5835123,0 10.6366041,1.09113228 9.55456402,2.83056893 C8.88214149,2.38052228 8.08756259,2.13829583 7.25628052,2.13829583 C5.00475489,2.13829583 3.17327654,3.93217777 3.17327654,6.13731732 C3.17327654,6.38097345 3.19537812,6.62249677 3.23953441,6.85937946 C1.30636065,7.54656663 0,9.34138606 0,11.4009085 C0,14.0227432 2.12193957,16 4.93540326,16 L19.0643858,16 C21.7858572,16 24,13.8317276 24,11.1663227 C24.0000703,9.09615962 22.6197643,7.24661365 20.6523952,6.58879366 C20.6807077,6.35634065 20.7072155,6.08718453 20.7072155,5.88911431 Z" id="Shape-Copy-7" fill-opacity="0.85" fill="#F1F1F1"></path>
                <path d="M3.56404383,20.3432617 C2.4408613,22.5932956 0.227771757,21.3741944 0.0434389838,19.8587338 L0.0434389838,23.7549554 L22.9137507,23.7549554 C22.9137507,23.7549554 22.9137507,22.0957527 22.9137507,19.651001 C22.3494464,22.0957527 19.0358344,22.2664794 19.6085273,20.3432617 C15.4645587,20.3432618 5.76822431,20.3432617 3.56404383,20.3432617 Z" id="Path-736" fill="#7BC0FF"></path>
            </g>
        </g>
    </g>
</svg>