<?xml version="1.0" encoding="UTF-8" standalone="no"?>
<svg width="24px" height="24px" viewBox="0 0 24 24" version="1.1" xmlns="http://www.w3.org/2000/svg" xmlns:xlink="http://www.w3.org/1999/xlink">
    <!-- Generator: Sketch 3.8.3 (29802) - http://www.bohemiancoding.com/sketch -->
    <title>19</title>
    <desc>Created with Sketch.</desc>
    <defs></defs>
    <g id="天气图标" stroke="none" stroke-width="1" fill="none" fill-rule="evenodd">
        <g id="天气图标_黑色背景" transform="translate(-264.000000, -963.000000)">
            <g id="Group-9" transform="translate(264.000000, 963.000000)">
                <path d="M11.901822,20.3753244 L10.2856071,18.7591095 L11.901822,17.1428947 L13.5180368,18.7591095 L11.901822,20.3753244 Z M8.66933609,23.8038667 L7.05312124,22.1876518 L8.66933609,20.571437 L10.2855509,22.1876518 L8.66933609,23.8038667 Z M15.3303691,24.0000001 L13.7141542,22.3837852 L15.3303691,20.7675704 L16.9465839,22.3837852 L15.3303691,24.0000001 Z M3.99985805,18.7588377 L5.61607289,17.1426229 L7.23228773,18.7588377 L5.61607289,20.3750525 L3.99985805,18.7588377 Z M18.1875475,20.3753582 L16.5713326,18.7591433 L18.1875475,17.1429285 L19.8037623,18.7591433 L18.1875475,20.3753582 Z" id="Shape-Copy-3" fill="#7CC2FF"></path>
                <path d="M20.7072155,5.88911431 C20.7072155,2.64187371 18.0098145,0 14.6943659,0 C12.5835123,0 10.6366041,1.09113228 9.55456402,2.83056893 C8.88214149,2.38052228 8.08756259,2.13829583 7.25628052,2.13829583 C5.00475489,2.13829583 3.17327654,3.93217777 3.17327654,6.13731732 C3.17327654,6.38097345 3.19537812,6.62249677 3.23953441,6.85937946 C1.30636065,7.54656663 0,9.34138606 0,11.4009085 C0,14.0227432 2.12193957,16 4.93540326,16 L19.0643858,16 C21.7858572,16 24,13.8317276 24,11.1663227 C24.0000703,9.09615962 22.6197643,7.24661365 20.6523952,6.58879366 C20.6807077,6.35634065 20.7072155,6.08718453 20.7072155,5.88911431 Z" id="Shape-Copy-7" fill-opacity="0.85" fill="#F1F1F1"></path>
            </g>
        </g>
    </g>
</svg>