<?xml version="1.0" encoding="UTF-8" standalone="no"?>
<svg width="24px" height="24px" viewBox="0 0 24 24" version="1.1" xmlns="http://www.w3.org/2000/svg" xmlns:xlink="http://www.w3.org/1999/xlink">
    <!-- Generator: Sketch 3.8.3 (29802) - http://www.bohemiancoding.com/sketch -->
    <title>20</title>
    <desc>Created with Sketch.</desc>
    <defs></defs>
    <g id="天气图标" stroke="none" stroke-width="1" fill="none" fill-rule="evenodd">
        <g id="天气图标_黑色背景" transform="translate(-264.000000, -1012.000000)">
            <g id="Group-16" transform="translate(264.000000, 1012.000000)">
                <path d="M20.7072155,5.88911431 C20.7072155,2.64187371 18.0098145,0 14.6943659,0 C12.5835123,0 10.6366041,1.09113228 9.55456402,2.83056893 C8.88214149,2.38052228 8.08756259,2.13829583 7.25628052,2.13829583 C5.00475489,2.13829583 3.17327654,3.93217777 3.17327654,6.13731732 C3.17327654,6.38097345 3.19537812,6.62249677 3.23953441,6.85937946 C1.30636065,7.54656663 0,9.34138606 0,11.4009085 C0,14.0227432 2.12193957,16 4.93540326,16 L19.0643858,16 C21.7858572,16 24,13.8317276 24,11.1663227 C24.0000703,9.09615962 22.6197643,7.24661365 20.6523952,6.58879366 C20.6807077,6.35634065 20.7072155,6.08718453 20.7072155,5.88911431 Z" id="Shape-Copy-5" fill-opacity="0.85" fill="#F1F1F1"></path>
                <path d="M19.6702148,19.1869688 C19.420923,18.9376771 19.012991,18.9376771 18.7636729,19.1869688 L17.8571836,20.0935107 L16.9506417,19.1869688 C16.7013762,18.9376771 16.2934442,18.9376771 16.0441524,19.1869688 C15.7948606,19.4362606 15.7948606,19.8442189 16.0441524,20.0935107 L16.9506417,21 L16.0441524,21.9064893 C15.7948606,22.1557811 15.7948606,22.5637131 16.0441524,22.8130312 C16.2934442,23.0623229 16.7014025,23.0623229 16.9506417,22.8130312 L17.8571836,21.9064893 L18.7636729,22.8130312 C19.0129647,23.0623229 19.420923,23.0623229 19.6702148,22.8130312 C19.9194802,22.5637394 19.9194802,22.1558074 19.6702148,21.9064893 L18.7636729,21 L19.6702148,20.0935107 C19.919454,19.8442189 19.919454,19.4362869 19.6702148,19.1869688 L19.6702148,19.1869688 Z" id="Path" fill="#7CC2FF"></path>
                <path d="M6.02099919,19 L4.55278625,22.6042826" id="Line" stroke="#7DC5FF" stroke-width="1.5" stroke-linecap="round"></path>
                <path d="M12.0209992,19 L10.5527862,22.6042826" id="Line" stroke="#7DC5FF" stroke-width="1.5" stroke-linecap="round"></path>
            </g>
        </g>
    </g>
</svg>