<?xml version="1.0" encoding="UTF-8" standalone="no"?>
<svg width="24px" height="24px" viewBox="0 0 24 24" version="1.1" xmlns="http://www.w3.org/2000/svg" xmlns:xlink="http://www.w3.org/1999/xlink">
    <!-- Generator: Sketch 3.8.3 (29802) - http://www.bohemiancoding.com/sketch -->
    <title>23</title>
    <desc>Created with Sketch.</desc>
    <defs></defs>
    <g id="天气图标" stroke="none" stroke-width="1" fill="none" fill-rule="evenodd">
        <g id="天气图标_黑色背景" transform="translate(-264.000000, -1161.000000)">
            <g id="Group-17" transform="translate(264.000000, 1162.000000)">
                <path d="M7.58617639,20.1184886 L8.41051672,20.1184886 C8.73611653,20.1184886 9,20.3824233 9,20.7079719 C9,21.0335204 8.73611653,21.2974551 8.41051672,21.2974551 L7.58617642,21.2974551 L7.99833976,22.0113449 C8.16113964,22.2932717 8.06451568,22.6538304 7.78258891,22.8165791 C7.68975808,22.8701965 7.58836699,22.8956724 7.48841113,22.8956724 C7.28465497,22.8956724 7.08653734,22.7899755 6.97735477,22.6008282 L6.56517783,21.8869148 L6.15300085,22.6008283 C6.04386958,22.7899242 5.84570066,22.8956724 5.6419445,22.8956724 C5.54193739,22.8956724 5.4405975,22.8701964 5.34776672,22.8165791 C5.06583994,22.6538305 4.96921593,22.293323 5.13201586,22.011345 L5.54417923,21.2974551 L4.71983886,21.2974551 C4.39429033,21.2974551 4.13035558,21.0335717 4.13035558,20.7079719 C4.13035558,20.3824233 4.39429028,20.1184886 4.71983886,20.1184886 L5.54417926,20.1184886 L5.13201586,19.4045987 C4.96921598,19.1226719 5.06583994,18.7621132 5.34776672,18.5993645 C5.62974474,18.4365646 5.99025221,18.5331886 6.15300085,18.8151154 L6.56517783,19.5290288 L6.97735477,18.8151154 C7.14010341,18.5331887 7.50061089,18.4365646 7.78258891,18.5993646 C8.06451568,18.7621645 8.16113969,19.1226719 7.99833976,19.4045987 L7.58617639,20.1184886 Z" id="Shape-Copy-4" fill="#7BC0FF"></path>
                <path d="M13.5861764,20.1184886 L14.4105167,20.1184886 C14.7361165,20.1184886 15,20.3824233 15,20.7079719 C15,21.0335204 14.7361165,21.2974551 14.4105167,21.2974551 L13.5861764,21.2974551 L13.9983398,22.0113449 C14.1611396,22.2932717 14.0645157,22.6538304 13.7825889,22.8165791 C13.6897581,22.8701965 13.588367,22.8956724 13.4884111,22.8956724 C13.284655,22.8956724 13.0865373,22.7899755 12.9773548,22.6008282 L12.5651778,21.8869148 L12.1530009,22.6008283 C12.0438696,22.7899242 11.8457007,22.8956724 11.6419445,22.8956724 C11.5419374,22.8956724 11.4405975,22.8701964 11.3477667,22.8165791 C11.0658399,22.6538305 10.9692159,22.293323 11.1320159,22.011345 L11.5441792,21.2974551 L10.7198389,21.2974551 C10.3942903,21.2974551 10.1303556,21.0335717 10.1303556,20.7079719 C10.1303556,20.3824233 10.3942903,20.1184886 10.7198389,20.1184886 L11.5441793,20.1184886 L11.1320159,19.4045987 C10.969216,19.1226719 11.0658399,18.7621132 11.3477667,18.5993645 C11.6297447,18.4365646 11.9902522,18.5331886 12.1530009,18.8151154 L12.5651778,19.5290288 L12.9773548,18.8151154 C13.1401034,18.5331887 13.5006109,18.4365646 13.7825889,18.5993646 C14.0645157,18.7621645 14.1611397,19.1226719 13.9983398,19.4045987 L13.5861764,20.1184886 Z" id="Shape-Copy-4" fill="#7BC0FF"></path>
                <path d="M19.5861764,20.1184886 L20.4105167,20.1184886 C20.7361165,20.1184886 21,20.3824233 21,20.7079719 C21,21.0335204 20.7361165,21.2974551 20.4105167,21.2974551 L19.5861764,21.2974551 L19.9983398,22.0113449 C20.1611396,22.2932717 20.0645157,22.6538304 19.7825889,22.8165791 C19.6897581,22.8701965 19.588367,22.8956724 19.4884111,22.8956724 C19.284655,22.8956724 19.0865373,22.7899755 18.9773548,22.6008282 L18.5651778,21.8869148 L18.1530009,22.6008283 C18.0438696,22.7899242 17.8457007,22.8956724 17.6419445,22.8956724 C17.5419374,22.8956724 17.4405975,22.8701964 17.3477667,22.8165791 C17.0658399,22.6538305 16.9692159,22.293323 17.1320159,22.011345 L17.5441792,21.2974551 L16.7198389,21.2974551 C16.3942903,21.2974551 16.1303556,21.0335717 16.1303556,20.7079719 C16.1303556,20.3824233 16.3942903,20.1184886 16.7198389,20.1184886 L17.5441793,20.1184886 L17.1320159,19.4045987 C16.969216,19.1226719 17.0658399,18.7621132 17.3477667,18.5993645 C17.6297447,18.4365646 17.9902522,18.5331886 18.1530009,18.8151154 L18.5651778,19.5290288 L18.9773548,18.8151154 C19.1401034,18.5331887 19.5006109,18.4365646 19.7825889,18.5993646 C20.0645157,18.7621645 20.1611397,19.1226719 19.9983398,19.4045987 L19.5861764,20.1184886 Z" id="Shape-Copy-4" fill="#7BC0FF"></path>
                <path d="M20.7072155,5.88911431 C20.7072155,2.64187371 18.0098145,0 14.6943659,0 C12.5835123,0 10.6366041,1.09113228 9.55456402,2.83056893 C8.88214149,2.38052228 8.08756259,2.13829583 7.25628052,2.13829583 C5.00475489,2.13829583 3.17327654,3.93217777 3.17327654,6.13731732 C3.17327654,6.38097345 3.19537812,6.62249677 3.23953441,6.85937946 C1.30636065,7.54656663 0,9.34138606 0,11.4009085 C0,14.0227432 2.12193957,16 4.93540326,16 L19.0643858,16 C21.7858572,16 24,13.8317276 24,11.1663227 C24.0000703,9.09615962 22.6197643,7.24661365 20.6523952,6.58879366 C20.6807077,6.35634065 20.7072155,6.08718453 20.7072155,5.88911431 Z" id="Shape-Copy-8" fill-opacity="0.85" fill="#F1F1F1"></path>
            </g>
        </g>
    </g>
</svg>