<?xml version="1.0" encoding="UTF-8" standalone="no"?>
<svg width="24px" height="24px" viewBox="0 0 24 24" version="1.1" xmlns="http://www.w3.org/2000/svg" xmlns:xlink="http://www.w3.org/1999/xlink">
    <!-- Generator: Sketch 3.8.3 (29802) - http://www.bohemiancoding.com/sketch -->
    <title>25</title>
    <desc>Created with Sketch.</desc>
    <defs></defs>
    <g id="天气图标" stroke="none" stroke-width="1" fill="none" fill-rule="evenodd">
        <g id="天气图标_黑色背景" transform="translate(-264.000000, -1265.000000)">
            <g id="Group-12" transform="translate(264.000000, 1265.000000)">
                <path d="M4.56155457,18.482942 L5.15036909,18.482942 C5.38294038,18.482942 5.57142857,18.6676963 5.57142857,18.8955803 C5.57142857,19.1234643 5.38294038,19.3082186 5.15036909,19.3082186 L4.56155459,19.3082186 L4.85595697,19.8079415 C4.9722426,20.0052902 4.90322549,20.2576813 4.70184922,20.3716054 C4.63554148,20.4091375 4.56311928,20.4269707 4.49172223,20.4269707 C4.34618212,20.4269707 4.20466953,20.3529828 4.12668198,20.2205798 L3.83226988,19.7208404 L3.53785775,20.2205798 C3.45990684,20.352947 3.31835762,20.4269707 3.1728175,20.4269707 C3.10138385,20.4269707 3.02899821,20.4091375 2.96269051,20.3716054 C2.76131425,20.2576813 2.6922971,20.0053261 2.80858276,19.8079415 L3.10298517,19.3082186 L2.51417061,19.3082186 C2.28163595,19.3082186 2.09311113,19.1235002 2.09311113,18.8955803 C2.09311113,18.6676963 2.28163592,18.482942 2.51417061,18.482942 L3.10298519,18.482942 L2.80858276,17.9832191 C2.69229713,17.7858703 2.76131425,17.5334792 2.96269051,17.4195552 C3.16410338,17.3055953 3.42160872,17.373232 3.53785775,17.5705808 L3.83226988,18.0703202 L4.12668198,17.5705808 C4.24293101,17.3732321 4.50043635,17.3055953 4.70184922,17.4195552 C4.90322549,17.5335151 4.97224264,17.7858704 4.85595697,17.9832191 L4.56155457,18.482942 Z" id="Shape-Copy-4" fill="#7BC0FF"></path>
                <path d="M12.2758403,18.482942 L12.8646548,18.482942 C13.0972261,18.482942 13.2857143,18.6676963 13.2857143,18.8955803 C13.2857143,19.1234643 13.0972261,19.3082186 12.8646548,19.3082186 L12.2758403,19.3082186 L12.5702427,19.8079415 C12.6865283,20.0052902 12.6175112,20.2576813 12.4161349,20.3716054 C12.3498272,20.4091375 12.277405,20.4269707 12.2060079,20.4269707 C12.0604678,20.4269707 11.9189552,20.3529828 11.8409677,20.2205798 L11.5465556,19.7208404 L11.2521435,20.2205798 C11.1741926,20.352947 11.0326433,20.4269707 10.8871032,20.4269707 C10.8156696,20.4269707 10.7432839,20.4091375 10.6769762,20.3716054 C10.4756,20.2576813 10.4065828,20.0053261 10.5228685,19.8079415 L10.8172709,19.3082186 L10.2284563,19.3082186 C9.99592167,19.3082186 9.80739684,19.1235002 9.80739684,18.8955803 C9.80739684,18.6676963 9.99592163,18.482942 10.2284563,18.482942 L10.8172709,18.482942 L10.5228685,17.9832191 C10.4065828,17.7858703 10.4756,17.5334792 10.6769762,17.4195552 C10.8783891,17.3055953 11.1358944,17.373232 11.2521435,17.5705808 L11.5465556,18.0703202 L11.8409677,17.5705808 C11.9572167,17.3732321 12.2147221,17.3055953 12.4161349,17.4195552 C12.6175112,17.5335151 12.6865284,17.7858704 12.5702427,17.9832191 L12.2758403,18.482942 Z" id="Shape-Copy-4" fill="#7BC0FF"></path>
                <path d="M8.41869742,21.982942 L9.00751194,21.982942 C9.24008324,21.982942 9.42857143,22.1676963 9.42857143,22.3955803 C9.42857143,22.6234643 9.24008324,22.8082186 9.00751194,22.8082186 L8.41869745,22.8082186 L8.71309983,23.3079415 C8.82938546,23.5052902 8.76036835,23.7576813 8.55899208,23.8716054 C8.49268434,23.9091375 8.42026214,23.9269707 8.34886509,23.9269707 C8.20332498,23.9269707 8.06181238,23.8529828 7.98382484,23.7205798 L7.68941273,23.2208404 L7.39500061,23.7205798 C7.3170497,23.852947 7.17550047,23.9269707 7.02996036,23.9269707 C6.95852671,23.9269707 6.88614107,23.9091375 6.81983337,23.8716054 C6.6184571,23.7576813 6.54943995,23.5053261 6.66572562,23.3079415 L6.96012802,22.8082186 L6.37131347,22.8082186 C6.13877881,22.8082186 5.95025398,22.6235002 5.95025398,22.3955803 C5.95025398,22.1676963 6.13877877,21.982942 6.37131347,21.982942 L6.96012804,21.982942 L6.66572562,21.4832191 C6.54943999,21.2858703 6.6184571,21.0334792 6.81983337,20.9195552 C7.02124624,20.8055953 7.27875158,20.873232 7.39500061,21.0705808 L7.68941273,21.5703202 L7.98382484,21.0705808 C8.10007387,20.8732321 8.35757921,20.8055953 8.55899208,20.9195552 C8.76036835,21.0335151 8.8293855,21.2858704 8.71309983,21.4832191 L8.41869742,21.982942 Z" id="Shape-Copy-4" fill="#7BC0FF"></path>
                <path d="M16.1329831,21.982942 L16.7217977,21.982942 C16.954369,21.982942 17.1428571,22.1676963 17.1428571,22.3955803 C17.1428571,22.6234643 16.954369,22.8082186 16.7217977,22.8082186 L16.1329832,22.8082186 L16.4273855,23.3079415 C16.5436712,23.5052902 16.4746541,23.7576813 16.2732778,23.8716054 C16.2069701,23.9091375 16.1345479,23.9269707 16.0631508,23.9269707 C15.9176107,23.9269707 15.7760981,23.8529828 15.6981106,23.7205798 L15.4036984,23.2208404 L15.1092863,23.7205798 C15.0313354,23.852947 14.8897862,23.9269707 14.7442461,23.9269707 C14.6728124,23.9269707 14.6004268,23.9091375 14.5341191,23.8716054 C14.3327428,23.7576813 14.2637257,23.5053261 14.3800113,23.3079415 L14.6744137,22.8082186 L14.0855992,22.8082186 C13.8530645,22.8082186 13.6645397,22.6235002 13.6645397,22.3955803 C13.6645397,22.1676963 13.8530645,21.982942 14.0855992,21.982942 L14.6744138,21.982942 L14.3800113,21.4832191 C14.2637257,21.2858703 14.3327428,21.0334792 14.5341191,20.9195552 C14.735532,20.8055953 14.9930373,20.873232 15.1092863,21.0705808 L15.4036984,21.5703202 L15.6981106,21.0705808 C15.8143596,20.8732321 16.0718649,20.8055953 16.2732778,20.9195552 C16.4746541,21.0335151 16.5436712,21.2858704 16.4273855,21.4832191 L16.1329831,21.982942 Z" id="Shape-Copy-4" fill="#7BC0FF"></path>
                <path d="M19.990126,18.482942 L20.5789405,18.482942 C20.8115118,18.482942 21,18.6676963 21,18.8955803 C21,19.1234643 20.8115118,19.3082186 20.5789405,19.3082186 L19.990126,19.3082186 L20.2845284,19.8079415 C20.400814,20.0052902 20.3317969,20.2576813 20.1304206,20.3716054 C20.0641129,20.4091375 19.9916907,20.4269707 19.9202937,20.4269707 C19.7747535,20.4269707 19.633241,20.3529828 19.5552534,20.2205798 L19.2608413,19.7208404 L18.9664292,20.2205798 C18.8884783,20.352947 18.746929,20.4269707 18.6013889,20.4269707 C18.5299553,20.4269707 18.4575696,20.4091375 18.3912619,20.3716054 C18.1898857,20.2576813 18.1208685,20.0053261 18.2371542,19.8079415 L18.5315566,19.3082186 L17.942742,19.3082186 C17.7102074,19.3082186 17.5216826,19.1235002 17.5216826,18.8955803 C17.5216826,18.6676963 17.7102073,18.482942 17.942742,18.482942 L18.5315566,18.482942 L18.2371542,17.9832191 C18.1208686,17.7858703 18.1898857,17.5334792 18.3912619,17.4195552 C18.5926748,17.3055953 18.8501802,17.373232 18.9664292,17.5705808 L19.2608413,18.0703202 L19.5552534,17.5705808 C19.6715024,17.3732321 19.9290078,17.3055953 20.1304206,17.4195552 C20.3317969,17.5335151 20.4008141,17.7858704 20.2845284,17.9832191 L19.990126,18.482942 Z" id="Shape-Copy-4" fill="#7BC0FF"></path>
                <path d="M20.7072155,5.88911431 C20.7072155,2.64187371 18.0098145,0 14.6943659,0 C12.5835123,0 10.6366041,1.09113228 9.55456402,2.83056893 C8.88214149,2.38052228 8.08756259,2.13829583 7.25628052,2.13829583 C5.00475489,2.13829583 3.17327654,3.93217777 3.17327654,6.13731732 C3.17327654,6.38097345 3.19537812,6.62249677 3.23953441,6.85937946 C1.30636065,7.54656663 0,9.34138606 0,11.4009085 C0,14.0227432 2.12193957,16 4.93540326,16 L19.0643858,16 C21.7858572,16 24,13.8317276 24,11.1663227 C24.0000703,9.09615962 22.6197643,7.24661365 20.6523952,6.58879366 C20.6807077,6.35634065 20.7072155,6.08718453 20.7072155,5.88911431 Z" id="Shape-Copy-8" fill-opacity="0.85" fill="#F1F1F1"></path>
            </g>
        </g>
    </g>
</svg>