<?xml version="1.0" encoding="UTF-8" standalone="no"?>
<svg width="24px" height="24px" viewBox="0 0 24 24" version="1.1" xmlns="http://www.w3.org/2000/svg" xmlns:xlink="http://www.w3.org/1999/xlink">
    <!-- Generator: Sketch 3.8.3 (29802) - http://www.bohemiancoding.com/sketch -->
    <title>26</title>
    <desc>Created with Sketch.</desc>
    <defs></defs>
    <g id="天气图标" stroke="none" stroke-width="1" fill="none" fill-rule="evenodd">
        <g id="天气图标_黑色背景" transform="translate(-264.000000, -1325.000000)" fill="#E6CEA2">
            <path d="M267.692308,1346.38462 C267.692308,1346.89508 267.278769,1347.30769 266.769231,1347.30769 L264.923077,1347.30769 C264.413538,1347.30769 264,1346.89508 264,1346.38462 C264,1345.87415 264.413538,1345.46154 264.923077,1345.46154 L266.769231,1345.46154 C267.278769,1345.46154 267.692308,1345.87415 267.692308,1346.38462 L267.692308,1346.38462 Z M272.307692,1345.46154 L270.461538,1345.46154 C269.952,1345.46154 269.538462,1345.87415 269.538462,1346.38462 C269.538462,1346.89508 269.952,1347.30769 270.461538,1347.30769 L272.307692,1347.30769 C272.817231,1347.30769 273.230769,1346.89508 273.230769,1346.38462 C273.230769,1345.87415 272.817231,1345.46154 272.307692,1345.46154 L272.307692,1345.46154 Z M277.846154,1345.46154 L276,1345.46154 C275.490462,1345.46154 275.076923,1345.87415 275.076923,1346.38462 C275.076923,1346.89508 275.490462,1347.30769 276,1347.30769 L277.846154,1347.30769 C278.356615,1347.30769 278.769231,1346.89508 278.769231,1346.38462 C278.769231,1345.87415 278.356615,1345.46154 277.846154,1345.46154 L277.846154,1345.46154 Z M283.384615,1345.46154 L281.538462,1345.46154 C281.028,1345.46154 280.615385,1345.87415 280.615385,1346.38462 C280.615385,1346.89508 281.028,1347.30769 281.538462,1347.30769 L283.384615,1347.30769 C283.895077,1347.30769 284.307692,1346.89508 284.307692,1346.38462 C284.307692,1345.87415 283.895077,1345.46154 283.384615,1345.46154 L283.384615,1345.46154 Z M271.384615,1342.69231 C271.384615,1342.18185 270.971077,1341.76923 270.461538,1341.76923 L268.615385,1341.76923 C268.105846,1341.76923 267.692308,1342.18185 267.692308,1342.69231 C267.692308,1343.20277 268.105846,1343.61538 268.615385,1343.61538 L270.461538,1343.61538 C270.971077,1343.61538 271.384615,1343.20277 271.384615,1342.69231 L271.384615,1342.69231 Z M276.923077,1342.69231 C276.923077,1342.18185 276.509538,1341.76923 276,1341.76923 L274.153846,1341.76923 C273.644308,1341.76923 273.230769,1342.18185 273.230769,1342.69231 C273.230769,1343.20277 273.644308,1343.61538 274.153846,1343.61538 L276,1343.61538 C276.509538,1343.61538 276.923077,1343.20277 276.923077,1342.69231 L276.923077,1342.69231 Z M282.461538,1342.69231 C282.461538,1342.18185 282.048923,1341.76923 281.538462,1341.76923 L279.692308,1341.76923 C279.181846,1341.76923 278.769231,1342.18185 278.769231,1342.69231 C278.769231,1343.20277 279.181846,1343.61538 279.692308,1343.61538 L281.538462,1343.61538 C282.048923,1343.61538 282.461538,1343.20277 282.461538,1342.69231 L282.461538,1342.69231 Z M287.076923,1341.76923 L285.230769,1341.76923 C284.720308,1341.76923 284.307692,1342.18185 284.307692,1342.69231 C284.307692,1343.20277 284.720308,1343.61538 285.230769,1343.61538 L287.076923,1343.61538 C287.587385,1343.61538 288,1343.20277 288,1342.69231 C288,1342.18185 287.587385,1341.76923 287.076923,1341.76923 L287.076923,1341.76923 Z M264.923077,1339.92308 L266.769231,1339.92308 C267.278769,1339.92308 267.692308,1339.51046 267.692308,1339 C267.692308,1338.48954 267.278769,1338.07692 266.769231,1338.07692 L264.923077,1338.07692 C264.413538,1338.07692 264,1338.48954 264,1339 C264,1339.51046 264.413538,1339.92308 264.923077,1339.92308 L264.923077,1339.92308 Z M270.461538,1339.92308 L272.307692,1339.92308 C272.817231,1339.92308 273.230769,1339.51046 273.230769,1339 C273.230769,1338.48954 272.817231,1338.07692 272.307692,1338.07692 L270.461538,1338.07692 C269.952,1338.07692 269.538462,1338.48954 269.538462,1339 C269.538462,1339.51046 269.952,1339.92308 270.461538,1339.92308 L270.461538,1339.92308 Z M276,1339.92308 L277.846154,1339.92308 C278.356615,1339.92308 278.769231,1339.51046 278.769231,1339 C278.769231,1338.48954 278.356615,1338.07692 277.846154,1338.07692 L276,1338.07692 C275.490462,1338.07692 275.076923,1338.48954 275.076923,1339 C275.076923,1339.51046 275.490462,1339.92308 276,1339.92308 L276,1339.92308 Z M281.538462,1339.92308 L283.384615,1339.92308 C283.895077,1339.92308 284.307692,1339.51046 284.307692,1339 C284.307692,1338.48954 283.895077,1338.07692 283.384615,1338.07692 L281.538462,1338.07692 C281.028,1338.07692 280.615385,1338.48954 280.615385,1339 C280.615385,1339.51046 281.028,1339.92308 281.538462,1339.92308 L281.538462,1339.92308 Z M271.384615,1335.30769 C271.384615,1334.79815 270.971077,1334.38462 270.461538,1334.38462 L268.615385,1334.38462 C268.105846,1334.38462 267.692308,1334.79815 267.692308,1335.30769 C267.692308,1335.81723 268.105846,1336.23077 268.615385,1336.23077 L270.461538,1336.23077 C270.971077,1336.23077 271.384615,1335.81723 271.384615,1335.30769 L271.384615,1335.30769 Z M276.923077,1335.30769 C276.923077,1334.79815 276.509538,1334.38462 276,1334.38462 L274.153846,1334.38462 C273.644308,1334.38462 273.230769,1334.79815 273.230769,1335.30769 C273.230769,1335.81723 273.644308,1336.23077 274.153846,1336.23077 L276,1336.23077 C276.509538,1336.23077 276.923077,1335.81723 276.923077,1335.30769 L276.923077,1335.30769 Z M282.461538,1335.30769 C282.461538,1334.79815 282.048923,1334.38462 281.538462,1334.38462 L279.692308,1334.38462 C279.181846,1334.38462 278.769231,1334.79815 278.769231,1335.30769 C278.769231,1335.81723 279.181846,1336.23077 279.692308,1336.23077 L281.538462,1336.23077 C282.048923,1336.23077 282.461538,1335.81723 282.461538,1335.30769 L282.461538,1335.30769 Z M287.076923,1334.38462 L285.230769,1334.38462 C284.720308,1334.38462 284.307692,1334.79815 284.307692,1335.30769 C284.307692,1335.81723 284.720308,1336.23077 285.230769,1336.23077 L287.076923,1336.23077 C287.587385,1336.23077 288,1335.81723 288,1335.30769 C288,1334.79815 287.587385,1334.38462 287.076923,1334.38462 L287.076923,1334.38462 Z M264.923077,1332.53846 L266.769231,1332.53846 C267.278769,1332.53846 267.692308,1332.12492 267.692308,1331.61538 C267.692308,1331.10585 267.278769,1330.69231 266.769231,1330.69231 L264.923077,1330.69231 C264.413538,1330.69231 264,1331.10585 264,1331.61538 C264,1332.12492 264.413538,1332.53846 264.923077,1332.53846 L264.923077,1332.53846 Z M269.538462,1331.61538 C269.538462,1332.12492 269.952,1332.53846 270.461538,1332.53846 L272.307692,1332.53846 C272.817231,1332.53846 273.230769,1332.12492 273.230769,1331.61538 C273.230769,1331.10585 272.817231,1330.69231 272.307692,1330.69231 L270.461538,1330.69231 C269.952,1330.69231 269.538462,1331.10585 269.538462,1331.61538 L269.538462,1331.61538 Z M275.076923,1331.61538 C275.076923,1332.12492 275.490462,1332.53846 276,1332.53846 L277.846154,1332.53846 C278.356615,1332.53846 278.769231,1332.12492 278.769231,1331.61538 C278.769231,1331.10585 278.356615,1330.69231 277.846154,1330.69231 L276,1330.69231 C275.490462,1330.69231 275.076923,1331.10585 275.076923,1331.61538 L275.076923,1331.61538 Z M280.615385,1331.61538 C280.615385,1332.12492 281.028,1332.53846 281.538462,1332.53846 L283.384615,1332.53846 C283.895077,1332.53846 284.307692,1332.12492 284.307692,1331.61538 C284.307692,1331.10585 283.895077,1330.69231 283.384615,1330.69231 L281.538462,1330.69231 C281.028,1330.69231 280.615385,1331.10585 280.615385,1331.61538 L280.615385,1331.61538 Z M268.615385,1328.84615 L270.461538,1328.84615 C270.971077,1328.84615 271.384615,1328.43262 271.384615,1327.92308 C271.384615,1327.41354 270.971077,1327 270.461538,1327 L268.615385,1327 C268.105846,1327 267.692308,1327.41354 267.692308,1327.92308 C267.692308,1328.43262 268.105846,1328.84615 268.615385,1328.84615 L268.615385,1328.84615 Z M274.153846,1328.84615 L276,1328.84615 C276.509538,1328.84615 276.923077,1328.43262 276.923077,1327.92308 C276.923077,1327.41354 276.509538,1327 276,1327 L274.153846,1327 C273.644308,1327 273.230769,1327.41354 273.230769,1327.92308 C273.230769,1328.43262 273.644308,1328.84615 274.153846,1328.84615 L274.153846,1328.84615 Z M279.692308,1328.84615 L281.538462,1328.84615 C282.048923,1328.84615 282.461538,1328.43262 282.461538,1327.92308 C282.461538,1327.41354 282.048923,1327 281.538462,1327 L279.692308,1327 C279.181846,1327 278.769231,1327.41354 278.769231,1327.92308 C278.769231,1328.43262 279.181846,1328.84615 279.692308,1328.84615 L279.692308,1328.84615 Z M285.230769,1328.84615 L287.076923,1328.84615 C287.587385,1328.84615 288,1328.43262 288,1327.92308 C288,1327.41354 287.587385,1327 287.076923,1327 L285.230769,1327 C284.720308,1327 284.307692,1327.41354 284.307692,1327.92308 C284.307692,1328.43262 284.720308,1328.84615 285.230769,1328.84615 L285.230769,1328.84615 Z" id="Shape"></path>
        </g>
    </g>
</svg>