<?xml version="1.0" encoding="UTF-8" standalone="no"?>
<svg width="24px" height="24px" viewBox="0 0 24 24" version="1.1" xmlns="http://www.w3.org/2000/svg" xmlns:xlink="http://www.w3.org/1999/xlink">
    <!-- Generator: Sketch 3.8.3 (29802) - http://www.bohemiancoding.com/sketch -->
    <title>27</title>
    <desc>Created with Sketch.</desc>
    <defs></defs>
    <g id="天气图标" stroke="none" stroke-width="1" fill="none" fill-rule="evenodd">
        <g id="天气图标_黑色背景" transform="translate(-304.000000, -1325.000000)" fill="#E6CEA2">
            <path d="M307.692308,1346.38462 C307.692308,1346.89508 307.278769,1347.30769 306.769231,1347.30769 L304.923077,1347.30769 C304.413538,1347.30769 304,1346.89508 304,1346.38462 C304,1345.87415 304.413538,1345.46154 304.923077,1345.46154 L306.769231,1345.46154 C307.278769,1345.46154 307.692308,1345.87415 307.692308,1346.38462 L307.692308,1346.38462 Z M312.307692,1345.46154 L310.461538,1345.46154 C309.952,1345.46154 309.538462,1345.87415 309.538462,1346.38462 C309.538462,1346.89508 309.952,1347.30769 310.461538,1347.30769 L312.307692,1347.30769 C312.817231,1347.30769 313.230769,1346.89508 313.230769,1346.38462 C313.230769,1345.87415 312.817231,1345.46154 312.307692,1345.46154 L312.307692,1345.46154 Z M317.846154,1345.46154 L316,1345.46154 C315.490462,1345.46154 315.076923,1345.87415 315.076923,1346.38462 C315.076923,1346.89508 315.490462,1347.30769 316,1347.30769 L317.846154,1347.30769 C318.356615,1347.30769 318.769231,1346.89508 318.769231,1346.38462 C318.769231,1345.87415 318.356615,1345.46154 317.846154,1345.46154 L317.846154,1345.46154 Z M323.384615,1345.46154 L321.538462,1345.46154 C321.028,1345.46154 320.615385,1345.87415 320.615385,1346.38462 C320.615385,1346.89508 321.028,1347.30769 321.538462,1347.30769 L323.384615,1347.30769 C323.895077,1347.30769 324.307692,1346.89508 324.307692,1346.38462 C324.307692,1345.87415 323.895077,1345.46154 323.384615,1345.46154 L323.384615,1345.46154 Z M311.384615,1342.69231 C311.384615,1342.18185 310.971077,1341.76923 310.461538,1341.76923 L308.615385,1341.76923 C308.105846,1341.76923 307.692308,1342.18185 307.692308,1342.69231 C307.692308,1343.20277 308.105846,1343.61538 308.615385,1343.61538 L310.461538,1343.61538 C310.971077,1343.61538 311.384615,1343.20277 311.384615,1342.69231 L311.384615,1342.69231 Z M316.923077,1342.69231 C316.923077,1342.18185 316.509538,1341.76923 316,1341.76923 L314.153846,1341.76923 C313.644308,1341.76923 313.230769,1342.18185 313.230769,1342.69231 C313.230769,1343.20277 313.644308,1343.61538 314.153846,1343.61538 L316,1343.61538 C316.509538,1343.61538 316.923077,1343.20277 316.923077,1342.69231 L316.923077,1342.69231 Z M322.461538,1342.69231 C322.461538,1342.18185 322.048923,1341.76923 321.538462,1341.76923 L319.692308,1341.76923 C319.181846,1341.76923 318.769231,1342.18185 318.769231,1342.69231 C318.769231,1343.20277 319.181846,1343.61538 319.692308,1343.61538 L321.538462,1343.61538 C322.048923,1343.61538 322.461538,1343.20277 322.461538,1342.69231 L322.461538,1342.69231 Z M327.076923,1341.76923 L325.230769,1341.76923 C324.720308,1341.76923 324.307692,1342.18185 324.307692,1342.69231 C324.307692,1343.20277 324.720308,1343.61538 325.230769,1343.61538 L327.076923,1343.61538 C327.587385,1343.61538 328,1343.20277 328,1342.69231 C328,1342.18185 327.587385,1341.76923 327.076923,1341.76923 L327.076923,1341.76923 Z M304.923077,1339.92308 L306.769231,1339.92308 C307.278769,1339.92308 307.692308,1339.51046 307.692308,1339 C307.692308,1338.48954 307.278769,1338.07692 306.769231,1338.07692 L304.923077,1338.07692 C304.413538,1338.07692 304,1338.48954 304,1339 C304,1339.51046 304.413538,1339.92308 304.923077,1339.92308 L304.923077,1339.92308 Z M310.461538,1339.92308 L312.307692,1339.92308 C312.817231,1339.92308 313.230769,1339.51046 313.230769,1339 C313.230769,1338.48954 312.817231,1338.07692 312.307692,1338.07692 L310.461538,1338.07692 C309.952,1338.07692 309.538462,1338.48954 309.538462,1339 C309.538462,1339.51046 309.952,1339.92308 310.461538,1339.92308 L310.461538,1339.92308 Z M316,1339.92308 L317.846154,1339.92308 C318.356615,1339.92308 318.769231,1339.51046 318.769231,1339 C318.769231,1338.48954 318.356615,1338.07692 317.846154,1338.07692 L316,1338.07692 C315.490462,1338.07692 315.076923,1338.48954 315.076923,1339 C315.076923,1339.51046 315.490462,1339.92308 316,1339.92308 L316,1339.92308 Z M321.538462,1339.92308 L323.384615,1339.92308 C323.895077,1339.92308 324.307692,1339.51046 324.307692,1339 C324.307692,1338.48954 323.895077,1338.07692 323.384615,1338.07692 L321.538462,1338.07692 C321.028,1338.07692 320.615385,1338.48954 320.615385,1339 C320.615385,1339.51046 321.028,1339.92308 321.538462,1339.92308 L321.538462,1339.92308 Z M311.384615,1335.30769 C311.384615,1334.79815 310.971077,1334.38462 310.461538,1334.38462 L308.615385,1334.38462 C308.105846,1334.38462 307.692308,1334.79815 307.692308,1335.30769 C307.692308,1335.81723 308.105846,1336.23077 308.615385,1336.23077 L310.461538,1336.23077 C310.971077,1336.23077 311.384615,1335.81723 311.384615,1335.30769 L311.384615,1335.30769 Z M316.923077,1335.30769 C316.923077,1334.79815 316.509538,1334.38462 316,1334.38462 L314.153846,1334.38462 C313.644308,1334.38462 313.230769,1334.79815 313.230769,1335.30769 C313.230769,1335.81723 313.644308,1336.23077 314.153846,1336.23077 L316,1336.23077 C316.509538,1336.23077 316.923077,1335.81723 316.923077,1335.30769 L316.923077,1335.30769 Z M322.461538,1335.30769 C322.461538,1334.79815 322.048923,1334.38462 321.538462,1334.38462 L319.692308,1334.38462 C319.181846,1334.38462 318.769231,1334.79815 318.769231,1335.30769 C318.769231,1335.81723 319.181846,1336.23077 319.692308,1336.23077 L321.538462,1336.23077 C322.048923,1336.23077 322.461538,1335.81723 322.461538,1335.30769 L322.461538,1335.30769 Z M327.076923,1334.38462 L325.230769,1334.38462 C324.720308,1334.38462 324.307692,1334.79815 324.307692,1335.30769 C324.307692,1335.81723 324.720308,1336.23077 325.230769,1336.23077 L327.076923,1336.23077 C327.587385,1336.23077 328,1335.81723 328,1335.30769 C328,1334.79815 327.587385,1334.38462 327.076923,1334.38462 L327.076923,1334.38462 Z M304.923077,1332.53846 L306.769231,1332.53846 C307.278769,1332.53846 307.692308,1332.12492 307.692308,1331.61538 C307.692308,1331.10585 307.278769,1330.69231 306.769231,1330.69231 L304.923077,1330.69231 C304.413538,1330.69231 304,1331.10585 304,1331.61538 C304,1332.12492 304.413538,1332.53846 304.923077,1332.53846 L304.923077,1332.53846 Z M309.538462,1331.61538 C309.538462,1332.12492 309.952,1332.53846 310.461538,1332.53846 L312.307692,1332.53846 C312.817231,1332.53846 313.230769,1332.12492 313.230769,1331.61538 C313.230769,1331.10585 312.817231,1330.69231 312.307692,1330.69231 L310.461538,1330.69231 C309.952,1330.69231 309.538462,1331.10585 309.538462,1331.61538 L309.538462,1331.61538 Z M315.076923,1331.61538 C315.076923,1332.12492 315.490462,1332.53846 316,1332.53846 L317.846154,1332.53846 C318.356615,1332.53846 318.769231,1332.12492 318.769231,1331.61538 C318.769231,1331.10585 318.356615,1330.69231 317.846154,1330.69231 L316,1330.69231 C315.490462,1330.69231 315.076923,1331.10585 315.076923,1331.61538 L315.076923,1331.61538 Z M320.615385,1331.61538 C320.615385,1332.12492 321.028,1332.53846 321.538462,1332.53846 L323.384615,1332.53846 C323.895077,1332.53846 324.307692,1332.12492 324.307692,1331.61538 C324.307692,1331.10585 323.895077,1330.69231 323.384615,1330.69231 L321.538462,1330.69231 C321.028,1330.69231 320.615385,1331.10585 320.615385,1331.61538 L320.615385,1331.61538 Z M308.615385,1328.84615 L310.461538,1328.84615 C310.971077,1328.84615 311.384615,1328.43262 311.384615,1327.92308 C311.384615,1327.41354 310.971077,1327 310.461538,1327 L308.615385,1327 C308.105846,1327 307.692308,1327.41354 307.692308,1327.92308 C307.692308,1328.43262 308.105846,1328.84615 308.615385,1328.84615 L308.615385,1328.84615 Z M314.153846,1328.84615 L316,1328.84615 C316.509538,1328.84615 316.923077,1328.43262 316.923077,1327.92308 C316.923077,1327.41354 316.509538,1327 316,1327 L314.153846,1327 C313.644308,1327 313.230769,1327.41354 313.230769,1327.92308 C313.230769,1328.43262 313.644308,1328.84615 314.153846,1328.84615 L314.153846,1328.84615 Z M319.692308,1328.84615 L321.538462,1328.84615 C322.048923,1328.84615 322.461538,1328.43262 322.461538,1327.92308 C322.461538,1327.41354 322.048923,1327 321.538462,1327 L319.692308,1327 C319.181846,1327 318.769231,1327.41354 318.769231,1327.92308 C318.769231,1328.43262 319.181846,1328.84615 319.692308,1328.84615 L319.692308,1328.84615 Z M325.230769,1328.84615 L327.076923,1328.84615 C327.587385,1328.84615 328,1328.43262 328,1327.92308 C328,1327.41354 327.587385,1327 327.076923,1327 L325.230769,1327 C324.720308,1327 324.307692,1327.41354 324.307692,1327.92308 C324.307692,1328.43262 324.720308,1328.84615 325.230769,1328.84615 L325.230769,1328.84615 Z" id="Shape"></path>
        </g>
    </g>
</svg>