<?xml version="1.0" encoding="UTF-8" standalone="no"?>
<svg width="24px" height="24px" viewBox="0 0 24 24" version="1.1" xmlns="http://www.w3.org/2000/svg" xmlns:xlink="http://www.w3.org/1999/xlink">
    <!-- Generator: Sketch 3.8.3 (29802) - http://www.bohemiancoding.com/sketch -->
    <title>28</title>
    <desc>Created with Sketch.</desc>
    <defs></defs>
    <g id="天气图标" stroke="none" stroke-width="1" fill="none" fill-rule="evenodd">
        <g id="天气图标_黑色背景" transform="translate(-264.000000, -1362.000000)" fill="#E6CEA2">
            <path d="M264.822947,1371.19043 C264.369194,1371.19043 264,1371.5531 264,1372.0021 C264,1372.45109 264.369194,1372.81376 264.822947,1372.81376 C265.2767,1372.81376 265.645894,1372.45109 265.645894,1372.0021 C265.645894,1371.5531 265.2767,1371.19043 264.822947,1371.19043 L264.822947,1371.19043 L264.822947,1371.19043 Z M264.822947,1371.55966 C265.074239,1371.55966 265.276664,1371.75851 265.276664,1372.0021 C265.276664,1372.24569 265.074239,1372.44453 264.822947,1372.44453 C264.571655,1372.44453 264.369231,1372.24569 264.369231,1372.0021 C264.369231,1371.75851 264.571655,1371.55966 264.822947,1371.55966 L264.822947,1371.55966 L264.822947,1371.55966 Z M266.313123,1374.87868 C265.858218,1374.87868 265.487972,1375.24117 265.487972,1375.69034 C265.487972,1376.13947 265.858321,1376.50201 266.313123,1376.50201 C266.767925,1376.50201 267.138274,1376.13947 267.138274,1375.69034 C267.138274,1375.24117 266.768028,1374.87868 266.313123,1374.87868 L266.313123,1374.87868 L266.313123,1374.87868 Z M266.313123,1375.24791 C266.565836,1375.24791 266.769044,1375.44686 266.769044,1375.69034 C266.769044,1375.93377 266.565746,1376.13278 266.313123,1376.13278 C266.0605,1376.13278 265.857202,1375.93377 265.857202,1375.69034 C265.857202,1375.44686 266.06041,1375.24791 266.313123,1375.24791 L266.313123,1375.24791 L266.313123,1375.24791 Z M269.079815,1369.25456 C269.533696,1369.25456 269.902763,1368.89075 269.902763,1368.44073 C269.902763,1367.99072 269.533696,1367.6269 269.079815,1367.6269 C268.625935,1367.6269 268.256868,1367.99072 268.256868,1368.44073 C268.256868,1368.89085 268.625891,1369.25456 269.079815,1369.25456 L269.079815,1369.25456 L269.079815,1369.25456 Z M269.079815,1368.88533 C268.828623,1368.88533 268.626099,1368.68573 268.626099,1368.44073 C268.626099,1368.19583 268.82868,1367.99614 269.079815,1367.99614 C269.330951,1367.99614 269.533532,1368.19583 269.533532,1368.44073 C269.533532,1368.68564 269.330951,1368.88533 269.079815,1368.88533 L269.079815,1368.88533 L269.079815,1368.88533 Z M274.217424,1368.44073 C274.217424,1368.89085 274.586447,1369.25456 275.040372,1369.25456 C275.494252,1369.25456 275.863319,1368.89075 275.863319,1368.44073 C275.863319,1367.99072 275.494252,1367.6269 275.040372,1367.6269 C274.586491,1367.6269 274.217424,1367.99072 274.217424,1368.44073 L274.217424,1368.44073 L274.217424,1368.44073 Z M274.586655,1368.44073 C274.586655,1368.19583 274.789236,1367.99614 275.040371,1367.99614 C275.291507,1367.99614 275.494088,1368.19583 275.494088,1368.44073 C275.494088,1368.68564 275.291507,1368.88533 275.040372,1368.88533 C274.789179,1368.88533 274.586655,1368.68573 274.586655,1368.44073 L274.586655,1368.44073 L274.586655,1368.44073 Z M268.626099,1372.0021 C268.626099,1371.5531 268.256905,1371.19043 267.803152,1371.19043 C267.349399,1371.19043 266.980205,1371.5531 266.980205,1372.0021 C266.980205,1372.45109 267.349399,1372.81376 267.803152,1372.81376 C268.257008,1372.81376 268.626099,1372.45114 268.626099,1372.0021 L268.626099,1372.0021 L268.626099,1372.0021 Z M268.256868,1372.0021 C268.256868,1372.24574 268.054534,1372.44453 267.803152,1372.44453 C267.55186,1372.44453 267.349435,1372.24569 267.349435,1372.0021 C267.349435,1371.75851 267.55186,1371.55966 267.803152,1371.55966 C268.054444,1371.55966 268.256868,1371.75851 268.256868,1372.0021 L268.256868,1372.0021 L268.256868,1372.0021 Z M271.23722,1368.44073 C271.23722,1368.89085 271.606242,1369.25456 272.060167,1369.25456 C272.514048,1369.25456 272.883114,1368.89075 272.883114,1368.44073 C272.883114,1367.99072 272.514048,1367.6269 272.060167,1367.6269 C271.606184,1367.6269 271.23722,1367.99067 271.23722,1368.44073 L271.23722,1368.44073 L271.23722,1368.44073 Z M271.606451,1368.44073 C271.606451,1368.19578 271.808941,1367.99614 272.060167,1367.99614 C272.311303,1367.99614 272.513883,1368.19583 272.513883,1368.44073 C272.513883,1368.68564 272.311303,1368.88533 272.060167,1368.88533 C271.808974,1368.88533 271.606451,1368.68573 271.606451,1368.44073 L271.606451,1368.44073 L271.606451,1368.44073 Z M277.197629,1368.44073 C277.197629,1368.89099 277.567807,1369.25456 278.02278,1369.25456 C278.477709,1369.25456 278.847932,1368.89089 278.847932,1368.44073 C278.847932,1367.99058 278.477709,1367.6269 278.02278,1367.6269 C277.567851,1367.6269 277.197629,1367.99058 277.197629,1368.44073 L277.197629,1368.44073 L277.197629,1368.44073 Z M277.56686,1368.44073 C277.56686,1368.19599 277.770313,1367.99614 278.02278,1367.99614 C278.275248,1367.99614 278.478701,1368.19599 278.478701,1368.44073 C278.478701,1368.68548 278.275248,1368.88533 278.02278,1368.88533 C277.770255,1368.88533 277.56686,1368.68556 277.56686,1368.44073 L277.56686,1368.44073 L277.56686,1368.44073 Z M282.493307,1372.81376 C284.12382,1372.81376 285.446966,1371.51295 285.446966,1369.90688 C285.446966,1368.30071 284.123869,1367 282.493307,1367 C281.736268,1367 281.023879,1367.28371 280.479354,1367.78447 L280.336384,1367.91595 L280.474948,1368.05206 L280.492728,1368.06953 L280.622102,1367.93783 L280.512998,1367.7889 C280.304375,1367.94173 280.178127,1368.18056 280.178127,1368.44102 C280.178127,1368.89128 280.548306,1369.25485 281.003279,1369.25485 C281.280386,1369.25485 281.534693,1369.11884 281.68721,1368.8963 L281.653116,1368.93376 C281.888893,1368.73728 282.183535,1368.6278 282.495659,1368.6278 C283.217302,1368.6278 283.801219,1369.20222 283.801219,1369.90919 C283.801219,1370.54788 283.320983,1371.08658 282.680967,1371.17604 L282.52191,1371.19828 L282.52191,1371.35888 L282.52191,1371.37649 L282.706526,1371.37649 L282.706526,1371.19188 L273.125964,1371.19188 L270.572289,1371.19058 L270.38758,1371.19048 L270.38758,1371.37519 L270.38758,1371.41316 L270.572195,1371.41316 L270.511822,1371.23869 C270.184674,1371.3519 269.960556,1371.65493 269.960556,1372.00224 C269.960556,1372.34949 270.184747,1372.65254 270.51179,1372.76578 L270.572195,1372.59133 L270.38758,1372.59133 L270.38758,1372.62929 L270.38758,1372.81391 L270.572195,1372.81391 L282.282,1372.81391 L282.296436,1372.81334 C282.327005,1372.81094 282.353801,1372.81093 282.418346,1372.81254 C282.454178,1372.81344 282.471588,1372.81376 282.493307,1372.81376 L282.493307,1372.81376 L282.493307,1372.81376 Z M282.493307,1372.44453 C282.47567,1372.44453 282.461819,1372.44427 282.42757,1372.44342 C282.350289,1372.44149 282.315066,1372.44152 282.267571,1372.44524 L282.267567,1372.44524 L270.572195,1372.44468 L270.572195,1372.62929 L270.756811,1372.62929 L270.756811,1372.59133 L270.756811,1372.45988 L270.632601,1372.41687 C270.451773,1372.35426 270.329787,1372.18936 270.329787,1372.00224 C270.329787,1371.81505 270.451697,1371.65021 270.632569,1371.58762 L270.756811,1371.54463 L270.756811,1371.41316 L270.756811,1371.37519 L270.572195,1371.37519 L270.572102,1371.55981 L273.12587,1371.56111 L282.706526,1371.56111 L282.891141,1371.56111 L282.891141,1371.37649 L282.891141,1371.35888 L282.706526,1371.35888 L282.732084,1371.54172 C283.552633,1371.42701 284.17045,1370.73399 284.17045,1369.90919 C284.17045,1368.99693 283.419879,1368.25857 282.495659,1368.25857 C282.09604,1368.25857 281.718053,1368.39901 281.41674,1368.65011 L281.382646,1368.68756 C281.298497,1368.81034 281.157749,1368.88562 281.003279,1368.88562 C280.750754,1368.88562 280.547358,1368.68585 280.547358,1368.44102 C280.547358,1368.30065 280.615695,1368.17137 280.731205,1368.08675 L280.906455,1367.95836 L280.751475,1367.80612 L280.733695,1367.78866 L280.604321,1367.92036 L280.729288,1368.05625 C281.206354,1367.61753 281.82982,1367.36923 282.493307,1367.36923 C283.921345,1367.36923 285.077736,1368.50606 285.077736,1369.90688 C285.077736,1371.30761 283.921293,1372.44453 282.493307,1372.44453 L282.493307,1372.44453 L282.493307,1372.44453 Z M274.617903,1378.64531 C274.164022,1378.64531 273.794956,1379.00912 273.794956,1379.45913 C273.794956,1379.90915 274.164022,1380.27296 274.617903,1380.27296 C275.071783,1380.27296 275.44085,1379.90915 275.44085,1379.45913 C275.44085,1379.00912 275.071783,1378.64531 274.617903,1378.64531 L274.617903,1378.64531 L274.617903,1378.64531 Z M274.617903,1379.01454 C274.869039,1379.01454 275.071619,1379.21423 275.071619,1379.45913 C275.071619,1379.70404 274.869039,1379.90373 274.617903,1379.90373 C274.366767,1379.90373 274.164186,1379.70404 274.164186,1379.45913 C274.164186,1379.21423 274.366767,1379.01454 274.617903,1379.01454 L274.617903,1379.01454 L274.617903,1379.01454 Z M280.578312,1378.64531 C280.124431,1378.64531 279.755365,1379.00912 279.755365,1379.45913 C279.755365,1379.90915 280.124431,1380.27296 280.578312,1380.27296 C281.032192,1380.27296 281.401259,1379.90915 281.401259,1379.45913 C281.401259,1379.00912 281.032192,1378.64531 280.578312,1378.64531 L280.578312,1378.64531 L280.578312,1378.64531 Z M280.578312,1379.01454 C280.829448,1379.01454 281.032028,1379.21423 281.032028,1379.45913 C281.032028,1379.70404 280.829448,1379.90373 280.578312,1379.90373 C280.327176,1379.90373 280.124595,1379.70404 280.124595,1379.45913 C280.124595,1379.21423 280.327176,1379.01454 280.578312,1379.01454 L280.578312,1379.01454 L280.578312,1379.01454 Z M277.598107,1378.64531 C277.144227,1378.64531 276.77516,1379.00912 276.77516,1379.45913 C276.77516,1379.90915 277.144227,1380.27296 277.598107,1380.27296 C278.051988,1380.27296 278.421055,1379.90915 278.421055,1379.45913 C278.421055,1379.00912 278.051988,1378.64531 277.598107,1378.64531 L277.598107,1378.64531 L277.598107,1378.64531 Z M277.598107,1379.01454 C277.849243,1379.01454 278.051824,1379.21423 278.051824,1379.45913 C278.051824,1379.70404 277.849243,1379.90373 277.598107,1379.90373 C277.346971,1379.90373 277.144391,1379.70404 277.144391,1379.45913 C277.144391,1379.21423 277.346971,1379.01454 277.598107,1379.01454 L277.598107,1379.01454 L277.598107,1379.01454 Z M268.654996,1378.64531 C268.199964,1378.64531 267.829844,1379.00894 267.829844,1379.45913 C267.829844,1379.90929 268.200067,1380.27296 268.654996,1380.27296 C269.109924,1380.27296 269.480147,1379.90929 269.480147,1379.45913 C269.480147,1379.00894 269.110027,1378.64531 268.654996,1378.64531 L268.654996,1378.64531 L268.654996,1378.64531 Z M268.654996,1379.01454 C268.907553,1379.01454 269.110916,1379.21434 269.110916,1379.45913 C269.110916,1379.70388 268.907463,1379.90373 268.654996,1379.90373 C268.402528,1379.90373 268.199075,1379.70388 268.199075,1379.45913 C268.199075,1379.21434 268.402438,1379.01454 268.654996,1379.01454 L268.654996,1379.01454 L268.654996,1379.01454 Z M284.835388,1374.88922 L275.467603,1374.87868 L275.28278,1374.87847 L275.28278,1375.06329 L275.28278,1375.10126 L275.467396,1375.10126 L275.527691,1374.92677 C275.43724,1374.89551 275.347737,1374.87868 275.256088,1374.87868 C274.802334,1374.87868 274.43314,1375.24135 274.43314,1375.69034 C274.43314,1376.13934 274.802334,1376.50201 275.256088,1376.50201 C275.347961,1376.50201 275.437543,1376.4852 275.52791,1376.45384 L275.467396,1376.27943 L275.28278,1376.27943 L275.28278,1376.31739 L275.28278,1376.50201 L275.467396,1376.50201 L275.680761,1376.50201 L285.261226,1376.49941 L285.261176,1376.31479 L285.07656,1376.31479 L285.07656,1376.33399 L285.07656,1376.49445 L285.235448,1376.51681 C285.874784,1376.60678 286.354252,1377.1452 286.354252,1377.78339 C286.354252,1378.49042 285.770429,1379.06478 285.048692,1379.06478 C284.736771,1379.06478 284.44265,1378.95636 284.208659,1378.76174 L284.243611,1378.80038 C284.091847,1378.5756 283.836949,1378.43773 283.558663,1378.43773 C283.10491,1378.43773 282.735716,1378.8004 282.735716,1379.2494 C282.735716,1379.52049 282.871869,1379.76863 283.09409,1379.91883 L283.197471,1379.76588 L283.068097,1379.63417 L283.047231,1379.65467 L282.907842,1379.7916 L283.052446,1379.923 C283.593518,1380.41469 284.299026,1380.69244 285.048692,1380.69244 C286.677924,1380.69244 288,1379.39159 288,1377.78556 C288,1376.17953 286.677924,1374.87868 285.048692,1374.87868 C284.98414,1374.87868 284.934869,1374.88138 284.827214,1374.8893 C284.824427,1374.88951 284.824427,1374.88951 284.821647,1374.88971 L284.821643,1374.88971 L284.835388,1374.88922 L284.835388,1374.88922 Z M284.848717,1375.25795 L284.84872,1375.25795 C284.851517,1375.25774 284.851517,1375.25774 284.854306,1375.25754 C284.953009,1375.25028 284.996146,1375.24791 285.048692,1375.24791 C286.475329,1375.24791 287.630769,1376.3848 287.630769,1377.78556 C287.630769,1379.18632 286.475329,1380.32321 285.048692,1380.32321 C284.391688,1380.32321 283.774475,1380.08022 283.300763,1379.64974 L283.176605,1379.78637 L283.305978,1379.91807 L283.326845,1379.89758 L283.487915,1379.73935 L283.300852,1379.61292 C283.178705,1379.53036 283.104947,1379.39593 283.104947,1379.2494 C283.104947,1379.00581 283.307371,1378.80696 283.558663,1378.80696 C283.713231,1378.80696 283.853928,1378.88306 283.937602,1379.00699 L283.972554,1379.04562 C284.272241,1379.29487 284.64968,1379.43401 285.048692,1379.43401 C285.973012,1379.43401 286.723483,1378.6957 286.723483,1377.78339 C286.723483,1376.95923 286.106632,1376.26654 285.286903,1376.15118 L285.261176,1376.33399 L285.445791,1376.33399 L285.445791,1376.31479 L285.445791,1376.13013 L285.261125,1376.13018 L275.680711,1376.13278 L275.467396,1376.13278 L275.467396,1376.31739 L275.652011,1376.31739 L275.652011,1376.27943 L275.652011,1376.01996 L275.406881,1376.10501 C275.353522,1376.12353 275.304224,1376.13278 275.256088,1376.13278 C275.004796,1376.13278 274.802371,1375.93393 274.802371,1375.69034 C274.802371,1375.44676 275.004796,1375.24791 275.256088,1375.24791 C275.304002,1375.24791 275.35344,1375.25721 275.4071,1375.27575 L275.652011,1375.36038 L275.652011,1375.10126 L275.652011,1375.06329 L275.467396,1375.06329 L275.467188,1375.24791 L284.834972,1375.25845 L284.848717,1375.25795 L284.848717,1375.25795 Z M269.295679,1374.87868 C268.841925,1374.87868 268.472731,1375.24135 268.472731,1375.69034 C268.472731,1376.13934 268.841925,1376.50201 269.295679,1376.50201 C269.749432,1376.50201 270.118626,1376.13934 270.118626,1375.69034 C270.118626,1375.24135 269.749432,1374.87868 269.295679,1374.87868 L269.295679,1374.87868 L269.295679,1374.87868 Z M269.295679,1375.24791 C269.546971,1375.24791 269.749395,1375.44676 269.749395,1375.69034 C269.749395,1375.93393 269.546971,1376.13278 269.295679,1376.13278 C269.044387,1376.13278 268.841962,1375.93393 268.841962,1375.69034 C268.841962,1375.44676 269.044387,1375.24791 269.295679,1375.24791 L269.295679,1375.24791 L269.295679,1375.24791 Z M272.275883,1374.87868 C271.82213,1374.87868 271.452936,1375.24135 271.452936,1375.69034 C271.452936,1376.13934 271.82213,1376.50201 272.275883,1376.50201 C272.729636,1376.50201 273.09883,1376.13934 273.09883,1375.69034 C273.09883,1375.24135 272.729636,1374.87868 272.275883,1374.87868 L272.275883,1374.87868 L272.275883,1374.87868 Z M272.275883,1375.24791 C272.527175,1375.24791 272.7296,1375.44676 272.7296,1375.69034 C272.7296,1375.93393 272.527175,1376.13278 272.275883,1376.13278 C272.024591,1376.13278 271.822167,1375.93393 271.822167,1375.69034 C271.822167,1375.44676 272.024591,1375.24791 272.275883,1375.24791 L272.275883,1375.24791 L272.275883,1375.24791 Z M271.635347,1378.64531 C271.180316,1378.64531 270.810196,1379.00894 270.810196,1379.45913 C270.810196,1379.90929 271.180418,1380.27296 271.635347,1380.27296 C272.090276,1380.27296 272.460499,1379.90929 272.460499,1379.45913 C272.460499,1379.00898 272.090276,1378.64531 271.635347,1378.64531 L271.635347,1378.64531 L271.635347,1378.64531 Z M264.822947,1371.37505 C264.470425,1371.37505 264.184615,1371.65581 264.184615,1372.0021 C264.184615,1372.34839 264.470425,1372.62915 264.822947,1372.62915 C265.17547,1372.62915 265.461279,1372.34839 265.461279,1372.0021 C265.461279,1371.65581 265.17547,1371.37505 264.822947,1371.37505 L264.822947,1371.37505 Z M266.313123,1375.06329 C265.959278,1375.06329 265.672587,1375.34405 265.672587,1375.69034 C265.672587,1376.03664 265.959425,1376.31739 266.313123,1376.31739 C266.666821,1376.31739 266.953659,1376.03664 266.953659,1375.69034 C266.953659,1375.34405 266.666968,1375.06329 266.313123,1375.06329 L266.313123,1375.06329 Z M269.079815,1369.06995 C269.432338,1369.06995 269.718147,1368.78818 269.718147,1368.44073 C269.718147,1368.09329 269.432338,1367.81152 269.079815,1367.81152 C268.727293,1367.81152 268.441484,1368.09329 268.441484,1368.44073 C268.441484,1368.78833 268.727293,1369.06995 269.079815,1369.06995 L269.079815,1369.06995 Z M274.40204,1368.44073 C274.40204,1368.78833 274.687849,1369.06995 275.040372,1369.06995 C275.392894,1369.06995 275.678703,1368.78818 275.678703,1368.44073 C275.678703,1368.09329 275.392894,1367.81152 275.040372,1367.81152 C274.687849,1367.81152 274.40204,1368.09329 274.40204,1368.44073 L274.40204,1368.44073 Z M268.441484,1372.0021 C268.441484,1371.65581 268.155674,1371.37505 267.803152,1371.37505 C267.450629,1371.37505 267.16482,1371.65581 267.16482,1372.0021 C267.16482,1372.34839 267.450629,1372.62915 267.803152,1372.62915 C268.155821,1372.62915 268.441484,1372.34839 268.441484,1372.0021 L268.441484,1372.0021 Z M271.421835,1368.44073 C271.421835,1368.78833 271.707644,1369.06995 272.060167,1369.06995 C272.41269,1369.06995 272.698499,1368.78818 272.698499,1368.44073 C272.698499,1368.09329 272.41269,1367.81152 272.060167,1367.81152 C271.707497,1367.81152 271.421835,1368.09329 271.421835,1368.44073 L271.421835,1368.44073 Z M277.382244,1368.44073 C277.382244,1368.78833 277.669082,1369.06995 278.02278,1369.06995 C278.376478,1369.06995 278.663316,1368.78818 278.663316,1368.44073 C278.663316,1368.09329 278.376478,1367.81152 278.02278,1367.81152 C277.669082,1367.81152 277.382244,1368.09329 277.382244,1368.44073 L277.382244,1368.44073 Z M285.262351,1369.90688 C285.262351,1368.40335 284.022571,1367.18462 282.493307,1367.18462 C281.762253,1367.18462 281.099234,1367.46523 280.604321,1367.92036 L280.622102,1367.93783 C280.465458,1368.05258 280.362743,1368.23432 280.362743,1368.44102 C280.362743,1368.78861 280.64958,1369.07024 281.003279,1369.07024 C281.224726,1369.07024 281.41987,1368.95981 281.534928,1368.79193 C281.794581,1368.57556 282.128735,1368.44319 282.495659,1368.44319 C283.318554,1368.44319 283.985834,1369.09954 283.985834,1369.90919 C283.985834,1370.64825 283.429351,1371.25784 282.706526,1371.35888 L282.706526,1371.37649 L273.125964,1371.37649 L270.572195,1371.37519 L270.572195,1371.41316 C270.324004,1371.49904 270.145171,1371.72913 270.145171,1372.00224 C270.145171,1372.27535 270.324151,1372.50544 270.572195,1372.59133 L270.572195,1372.62929 L282.282,1372.62929 C282.351946,1372.62381 282.421892,1372.62915 282.493307,1372.62915 C284.022571,1372.62915 285.262351,1371.41027 285.262351,1369.90688 L285.262351,1369.90688 Z M274.617903,1378.82992 C274.26538,1378.82992 273.979571,1379.11169 273.979571,1379.45913 C273.979571,1379.80658 274.26538,1380.08835 274.617903,1380.08835 C274.970425,1380.08835 275.256235,1379.80658 275.256235,1379.45913 C275.256235,1379.11169 274.970425,1378.82992 274.617903,1378.82992 L274.617903,1378.82992 Z M280.578312,1378.82992 C280.225789,1378.82992 279.93998,1379.11169 279.93998,1379.45913 C279.93998,1379.80658 280.225789,1380.08835 280.578312,1380.08835 C280.930834,1380.08835 281.216644,1379.80658 281.216644,1379.45913 C281.216644,1379.11169 280.930834,1378.82992 280.578312,1378.82992 L280.578312,1378.82992 Z M277.598107,1378.82992 C277.245585,1378.82992 276.959775,1379.11169 276.959775,1379.45913 C276.959775,1379.80658 277.245585,1380.08835 277.598107,1380.08835 C277.95063,1380.08835 278.236439,1379.80658 278.236439,1379.45913 C278.236439,1379.11169 277.95063,1378.82992 277.598107,1378.82992 L277.598107,1378.82992 Z M268.654996,1378.82992 C268.301151,1378.82992 268.01446,1379.11169 268.01446,1379.45913 C268.01446,1379.80658 268.301298,1380.08835 268.654996,1380.08835 C269.008694,1380.08835 269.295532,1379.80658 269.295532,1379.45913 C269.295532,1379.11169 269.008841,1378.82992 268.654996,1378.82992 L268.654996,1378.82992 Z M284.83518,1375.07383 L275.467396,1375.06329 L275.467396,1375.10126 C275.400976,1375.07831 275.330589,1375.06329 275.256088,1375.06329 C274.903565,1375.06329 274.617756,1375.34405 274.617756,1375.69034 C274.617756,1376.03664 274.903565,1376.31739 275.256088,1376.31739 C275.330589,1376.31739 275.400829,1376.30252 275.467396,1376.27943 L275.467396,1376.31739 L275.680761,1376.31739 L285.261176,1376.31479 L285.261176,1376.33399 C285.983266,1376.43561 286.538868,1377.04491 286.538868,1377.78339 C286.538868,1378.59304 285.871735,1379.2494 285.048692,1379.2494 C284.683091,1379.2494 284.349378,1379.11891 284.090607,1378.90368 C283.976283,1378.73436 283.780992,1378.62235 283.558663,1378.62235 C283.206141,1378.62235 282.920331,1378.90311 282.920331,1379.2494 C282.920331,1379.4639 283.030247,1379.65285 283.197471,1379.76588 L283.176605,1379.78637 C283.668873,1380.23371 284.325573,1380.50783 285.048692,1380.50783 C286.576633,1380.50783 287.815385,1379.28895 287.815385,1377.78556 C287.815385,1376.28217 286.576633,1375.06329 285.048692,1375.06329 C284.976542,1375.06329 284.905861,1375.06864 284.83518,1375.07383 L284.83518,1375.07383 Z M269.295679,1375.06329 C268.943156,1375.06329 268.657347,1375.34405 268.657347,1375.69034 C268.657347,1376.03664 268.943156,1376.31739 269.295679,1376.31739 C269.648201,1376.31739 269.934011,1376.03664 269.934011,1375.69034 C269.934011,1375.34405 269.648201,1375.06329 269.295679,1375.06329 L269.295679,1375.06329 Z M272.275883,1375.06329 C271.923361,1375.06329 271.637551,1375.34405 271.637551,1375.69034 C271.637551,1376.03664 271.923361,1376.31739 272.275883,1376.31739 C272.628406,1376.31739 272.914215,1376.03664 272.914215,1375.69034 C272.914215,1375.34405 272.628406,1375.06329 272.275883,1375.06329 L272.275883,1375.06329 Z M271.635347,1378.82992 C271.281502,1378.82992 270.994811,1379.11169 270.994811,1379.45913 C270.994811,1379.80658 271.281649,1380.08835 271.635347,1380.08835 C271.989045,1380.08835 272.275883,1379.80658 272.275883,1379.45913 C272.275883,1379.11169 271.989045,1378.82992 271.635347,1378.82992 L271.635347,1378.82992 Z" id="Combined-Shape"></path>
        </g>
    </g>
</svg>