<?xml version="1.0" encoding="UTF-8" standalone="no"?>
<svg width="24px" height="24px" viewBox="0 0 24 24" version="1.1" xmlns="http://www.w3.org/2000/svg" xmlns:xlink="http://www.w3.org/1999/xlink">
    <!-- Generator: Sketch 3.8.3 (29802) - http://www.bohemiancoding.com/sketch -->
    <title>29</title>
    <desc>Created with Sketch.</desc>
    <defs></defs>
    <g id="天气图标" stroke="none" stroke-width="1" fill="none" fill-rule="evenodd">
        <g id="天气图标_黑色背景" transform="translate(-304.000000, -1362.000000)" fill="#E6CEA2">
            <path d="M304.822947,1371.19043 C304.369194,1371.19043 304,1371.5531 304,1372.0021 C304,1372.45109 304.369194,1372.81376 304.822947,1372.81376 C305.2767,1372.81376 305.645894,1372.45109 305.645894,1372.0021 C305.645894,1371.5531 305.2767,1371.19043 304.822947,1371.19043 L304.822947,1371.19043 L304.822947,1371.19043 Z M304.822947,1371.55966 C305.074239,1371.55966 305.276664,1371.75851 305.276664,1372.0021 C305.276664,1372.24569 305.074239,1372.44453 304.822947,1372.44453 C304.571655,1372.44453 304.369231,1372.24569 304.369231,1372.0021 C304.369231,1371.75851 304.571655,1371.55966 304.822947,1371.55966 L304.822947,1371.55966 L304.822947,1371.55966 Z M306.313123,1374.87868 C305.858218,1374.87868 305.487972,1375.24117 305.487972,1375.69034 C305.487972,1376.13947 305.858321,1376.50201 306.313123,1376.50201 C306.767925,1376.50201 307.138274,1376.13947 307.138274,1375.69034 C307.138274,1375.24117 306.768028,1374.87868 306.313123,1374.87868 L306.313123,1374.87868 L306.313123,1374.87868 Z M306.313123,1375.24791 C306.565836,1375.24791 306.769044,1375.44686 306.769044,1375.69034 C306.769044,1375.93377 306.565746,1376.13278 306.313123,1376.13278 C306.0605,1376.13278 305.857202,1375.93377 305.857202,1375.69034 C305.857202,1375.44686 306.06041,1375.24791 306.313123,1375.24791 L306.313123,1375.24791 L306.313123,1375.24791 Z M309.079815,1369.25456 C309.533696,1369.25456 309.902763,1368.89075 309.902763,1368.44073 C309.902763,1367.99072 309.533696,1367.6269 309.079815,1367.6269 C308.625935,1367.6269 308.256868,1367.99072 308.256868,1368.44073 C308.256868,1368.89085 308.625891,1369.25456 309.079815,1369.25456 L309.079815,1369.25456 L309.079815,1369.25456 Z M309.079815,1368.88533 C308.828623,1368.88533 308.626099,1368.68573 308.626099,1368.44073 C308.626099,1368.19583 308.82868,1367.99614 309.079815,1367.99614 C309.330951,1367.99614 309.533532,1368.19583 309.533532,1368.44073 C309.533532,1368.68564 309.330951,1368.88533 309.079815,1368.88533 L309.079815,1368.88533 L309.079815,1368.88533 Z M314.217424,1368.44073 C314.217424,1368.89085 314.586447,1369.25456 315.040372,1369.25456 C315.494252,1369.25456 315.863319,1368.89075 315.863319,1368.44073 C315.863319,1367.99072 315.494252,1367.6269 315.040372,1367.6269 C314.586491,1367.6269 314.217424,1367.99072 314.217424,1368.44073 L314.217424,1368.44073 L314.217424,1368.44073 Z M314.586655,1368.44073 C314.586655,1368.19583 314.789236,1367.99614 315.040371,1367.99614 C315.291507,1367.99614 315.494088,1368.19583 315.494088,1368.44073 C315.494088,1368.68564 315.291507,1368.88533 315.040372,1368.88533 C314.789179,1368.88533 314.586655,1368.68573 314.586655,1368.44073 L314.586655,1368.44073 L314.586655,1368.44073 Z M308.626099,1372.0021 C308.626099,1371.5531 308.256905,1371.19043 307.803152,1371.19043 C307.349399,1371.19043 306.980205,1371.5531 306.980205,1372.0021 C306.980205,1372.45109 307.349399,1372.81376 307.803152,1372.81376 C308.257008,1372.81376 308.626099,1372.45114 308.626099,1372.0021 L308.626099,1372.0021 L308.626099,1372.0021 Z M308.256868,1372.0021 C308.256868,1372.24574 308.054534,1372.44453 307.803152,1372.44453 C307.55186,1372.44453 307.349435,1372.24569 307.349435,1372.0021 C307.349435,1371.75851 307.55186,1371.55966 307.803152,1371.55966 C308.054444,1371.55966 308.256868,1371.75851 308.256868,1372.0021 L308.256868,1372.0021 L308.256868,1372.0021 Z M311.23722,1368.44073 C311.23722,1368.89085 311.606242,1369.25456 312.060167,1369.25456 C312.514048,1369.25456 312.883114,1368.89075 312.883114,1368.44073 C312.883114,1367.99072 312.514048,1367.6269 312.060167,1367.6269 C311.606184,1367.6269 311.23722,1367.99067 311.23722,1368.44073 L311.23722,1368.44073 L311.23722,1368.44073 Z M311.606451,1368.44073 C311.606451,1368.19578 311.808941,1367.99614 312.060167,1367.99614 C312.311303,1367.99614 312.513883,1368.19583 312.513883,1368.44073 C312.513883,1368.68564 312.311303,1368.88533 312.060167,1368.88533 C311.808974,1368.88533 311.606451,1368.68573 311.606451,1368.44073 L311.606451,1368.44073 L311.606451,1368.44073 Z M317.197629,1368.44073 C317.197629,1368.89099 317.567807,1369.25456 318.02278,1369.25456 C318.477709,1369.25456 318.847932,1368.89089 318.847932,1368.44073 C318.847932,1367.99058 318.477709,1367.6269 318.02278,1367.6269 C317.567851,1367.6269 317.197629,1367.99058 317.197629,1368.44073 L317.197629,1368.44073 L317.197629,1368.44073 Z M317.56686,1368.44073 C317.56686,1368.19599 317.770313,1367.99614 318.02278,1367.99614 C318.275248,1367.99614 318.478701,1368.19599 318.478701,1368.44073 C318.478701,1368.68548 318.275248,1368.88533 318.02278,1368.88533 C317.770255,1368.88533 317.56686,1368.68556 317.56686,1368.44073 L317.56686,1368.44073 L317.56686,1368.44073 Z M322.493307,1372.81376 C324.12382,1372.81376 325.446966,1371.51295 325.446966,1369.90688 C325.446966,1368.30071 324.123869,1367 322.493307,1367 C321.736268,1367 321.023879,1367.28371 320.479354,1367.78447 L320.336384,1367.91595 L320.474948,1368.05206 L320.492728,1368.06953 L320.622102,1367.93783 L320.512998,1367.7889 C320.304375,1367.94173 320.178127,1368.18056 320.178127,1368.44102 C320.178127,1368.89128 320.548306,1369.25485 321.003279,1369.25485 C321.280386,1369.25485 321.534693,1369.11884 321.68721,1368.8963 L321.653116,1368.93376 C321.888893,1368.73728 322.183535,1368.6278 322.495659,1368.6278 C323.217302,1368.6278 323.801219,1369.20222 323.801219,1369.90919 C323.801219,1370.54788 323.320983,1371.08658 322.680967,1371.17604 L322.52191,1371.19828 L322.52191,1371.35888 L322.52191,1371.37649 L322.706526,1371.37649 L322.706526,1371.19188 L313.125964,1371.19188 L310.572289,1371.19058 L310.38758,1371.19048 L310.38758,1371.37519 L310.38758,1371.41316 L310.572195,1371.41316 L310.511822,1371.23869 C310.184674,1371.3519 309.960556,1371.65493 309.960556,1372.00224 C309.960556,1372.34949 310.184747,1372.65254 310.51179,1372.76578 L310.572195,1372.59133 L310.38758,1372.59133 L310.38758,1372.62929 L310.38758,1372.81391 L310.572195,1372.81391 L322.282,1372.81391 L322.296436,1372.81334 C322.327005,1372.81094 322.353801,1372.81093 322.418346,1372.81254 C322.454178,1372.81344 322.471588,1372.81376 322.493307,1372.81376 L322.493307,1372.81376 L322.493307,1372.81376 Z M322.493307,1372.44453 C322.47567,1372.44453 322.461819,1372.44427 322.42757,1372.44342 C322.350289,1372.44149 322.315066,1372.44152 322.267571,1372.44524 L322.267567,1372.44524 L310.572195,1372.44468 L310.572195,1372.62929 L310.756811,1372.62929 L310.756811,1372.59133 L310.756811,1372.45988 L310.632601,1372.41687 C310.451773,1372.35426 310.329787,1372.18936 310.329787,1372.00224 C310.329787,1371.81505 310.451697,1371.65021 310.632569,1371.58762 L310.756811,1371.54463 L310.756811,1371.41316 L310.756811,1371.37519 L310.572195,1371.37519 L310.572102,1371.55981 L313.12587,1371.56111 L322.706526,1371.56111 L322.891141,1371.56111 L322.891141,1371.37649 L322.891141,1371.35888 L322.706526,1371.35888 L322.732084,1371.54172 C323.552633,1371.42701 324.17045,1370.73399 324.17045,1369.90919 C324.17045,1368.99693 323.419879,1368.25857 322.495659,1368.25857 C322.09604,1368.25857 321.718053,1368.39901 321.41674,1368.65011 L321.382646,1368.68756 C321.298497,1368.81034 321.157749,1368.88562 321.003279,1368.88562 C320.750754,1368.88562 320.547358,1368.68585 320.547358,1368.44102 C320.547358,1368.30065 320.615695,1368.17137 320.731205,1368.08675 L320.906455,1367.95836 L320.751475,1367.80612 L320.733695,1367.78866 L320.604321,1367.92036 L320.729288,1368.05625 C321.206354,1367.61753 321.82982,1367.36923 322.493307,1367.36923 C323.921345,1367.36923 325.077736,1368.50606 325.077736,1369.90688 C325.077736,1371.30761 323.921293,1372.44453 322.493307,1372.44453 L322.493307,1372.44453 L322.493307,1372.44453 Z M314.617903,1378.64531 C314.164022,1378.64531 313.794956,1379.00912 313.794956,1379.45913 C313.794956,1379.90915 314.164022,1380.27296 314.617903,1380.27296 C315.071783,1380.27296 315.44085,1379.90915 315.44085,1379.45913 C315.44085,1379.00912 315.071783,1378.64531 314.617903,1378.64531 L314.617903,1378.64531 L314.617903,1378.64531 Z M314.617903,1379.01454 C314.869039,1379.01454 315.071619,1379.21423 315.071619,1379.45913 C315.071619,1379.70404 314.869039,1379.90373 314.617903,1379.90373 C314.366767,1379.90373 314.164186,1379.70404 314.164186,1379.45913 C314.164186,1379.21423 314.366767,1379.01454 314.617903,1379.01454 L314.617903,1379.01454 L314.617903,1379.01454 Z M320.578312,1378.64531 C320.124431,1378.64531 319.755365,1379.00912 319.755365,1379.45913 C319.755365,1379.90915 320.124431,1380.27296 320.578312,1380.27296 C321.032192,1380.27296 321.401259,1379.90915 321.401259,1379.45913 C321.401259,1379.00912 321.032192,1378.64531 320.578312,1378.64531 L320.578312,1378.64531 L320.578312,1378.64531 Z M320.578312,1379.01454 C320.829448,1379.01454 321.032028,1379.21423 321.032028,1379.45913 C321.032028,1379.70404 320.829448,1379.90373 320.578312,1379.90373 C320.327176,1379.90373 320.124595,1379.70404 320.124595,1379.45913 C320.124595,1379.21423 320.327176,1379.01454 320.578312,1379.01454 L320.578312,1379.01454 L320.578312,1379.01454 Z M317.598107,1378.64531 C317.144227,1378.64531 316.77516,1379.00912 316.77516,1379.45913 C316.77516,1379.90915 317.144227,1380.27296 317.598107,1380.27296 C318.051988,1380.27296 318.421055,1379.90915 318.421055,1379.45913 C318.421055,1379.00912 318.051988,1378.64531 317.598107,1378.64531 L317.598107,1378.64531 L317.598107,1378.64531 Z M317.598107,1379.01454 C317.849243,1379.01454 318.051824,1379.21423 318.051824,1379.45913 C318.051824,1379.70404 317.849243,1379.90373 317.598107,1379.90373 C317.346971,1379.90373 317.144391,1379.70404 317.144391,1379.45913 C317.144391,1379.21423 317.346971,1379.01454 317.598107,1379.01454 L317.598107,1379.01454 L317.598107,1379.01454 Z M308.654996,1378.64531 C308.199964,1378.64531 307.829844,1379.00894 307.829844,1379.45913 C307.829844,1379.90929 308.200067,1380.27296 308.654996,1380.27296 C309.109924,1380.27296 309.480147,1379.90929 309.480147,1379.45913 C309.480147,1379.00894 309.110027,1378.64531 308.654996,1378.64531 L308.654996,1378.64531 L308.654996,1378.64531 Z M308.654996,1379.01454 C308.907553,1379.01454 309.110916,1379.21434 309.110916,1379.45913 C309.110916,1379.70388 308.907463,1379.90373 308.654996,1379.90373 C308.402528,1379.90373 308.199075,1379.70388 308.199075,1379.45913 C308.199075,1379.21434 308.402438,1379.01454 308.654996,1379.01454 L308.654996,1379.01454 L308.654996,1379.01454 Z M324.835388,1374.88922 L315.467603,1374.87868 L315.28278,1374.87847 L315.28278,1375.06329 L315.28278,1375.10126 L315.467396,1375.10126 L315.527691,1374.92677 C315.43724,1374.89551 315.347737,1374.87868 315.256088,1374.87868 C314.802334,1374.87868 314.43314,1375.24135 314.43314,1375.69034 C314.43314,1376.13934 314.802334,1376.50201 315.256088,1376.50201 C315.347961,1376.50201 315.437543,1376.4852 315.52791,1376.45384 L315.467396,1376.27943 L315.28278,1376.27943 L315.28278,1376.31739 L315.28278,1376.50201 L315.467396,1376.50201 L315.680761,1376.50201 L325.261226,1376.49941 L325.261176,1376.31479 L325.07656,1376.31479 L325.07656,1376.33399 L325.07656,1376.49445 L325.235448,1376.51681 C325.874784,1376.60678 326.354252,1377.1452 326.354252,1377.78339 C326.354252,1378.49042 325.770429,1379.06478 325.048692,1379.06478 C324.736771,1379.06478 324.44265,1378.95636 324.208659,1378.76174 L324.243611,1378.80038 C324.091847,1378.5756 323.836949,1378.43773 323.558663,1378.43773 C323.10491,1378.43773 322.735716,1378.8004 322.735716,1379.2494 C322.735716,1379.52049 322.871869,1379.76863 323.09409,1379.91883 L323.197471,1379.76588 L323.068097,1379.63417 L323.047231,1379.65467 L322.907842,1379.7916 L323.052446,1379.923 C323.593518,1380.41469 324.299026,1380.69244 325.048692,1380.69244 C326.677924,1380.69244 328,1379.39159 328,1377.78556 C328,1376.17953 326.677924,1374.87868 325.048692,1374.87868 C324.98414,1374.87868 324.934869,1374.88138 324.827214,1374.8893 C324.824427,1374.88951 324.824427,1374.88951 324.821647,1374.88971 L324.821643,1374.88971 L324.835388,1374.88922 L324.835388,1374.88922 Z M324.848717,1375.25795 L324.84872,1375.25795 C324.851517,1375.25774 324.851517,1375.25774 324.854306,1375.25754 C324.953009,1375.25028 324.996146,1375.24791 325.048692,1375.24791 C326.475329,1375.24791 327.630769,1376.3848 327.630769,1377.78556 C327.630769,1379.18632 326.475329,1380.32321 325.048692,1380.32321 C324.391688,1380.32321 323.774475,1380.08022 323.300763,1379.64974 L323.176605,1379.78637 L323.305978,1379.91807 L323.326845,1379.89758 L323.487915,1379.73935 L323.300852,1379.61292 C323.178705,1379.53036 323.104947,1379.39593 323.104947,1379.2494 C323.104947,1379.00581 323.307371,1378.80696 323.558663,1378.80696 C323.713231,1378.80696 323.853928,1378.88306 323.937602,1379.00699 L323.972554,1379.04562 C324.272241,1379.29487 324.64968,1379.43401 325.048692,1379.43401 C325.973012,1379.43401 326.723483,1378.6957 326.723483,1377.78339 C326.723483,1376.95923 326.106632,1376.26654 325.286903,1376.15118 L325.261176,1376.33399 L325.445791,1376.33399 L325.445791,1376.31479 L325.445791,1376.13013 L325.261125,1376.13018 L315.680711,1376.13278 L315.467396,1376.13278 L315.467396,1376.31739 L315.652011,1376.31739 L315.652011,1376.27943 L315.652011,1376.01996 L315.406881,1376.10501 C315.353522,1376.12353 315.304224,1376.13278 315.256088,1376.13278 C315.004796,1376.13278 314.802371,1375.93393 314.802371,1375.69034 C314.802371,1375.44676 315.004796,1375.24791 315.256088,1375.24791 C315.304002,1375.24791 315.35344,1375.25721 315.4071,1375.27575 L315.652011,1375.36038 L315.652011,1375.10126 L315.652011,1375.06329 L315.467396,1375.06329 L315.467188,1375.24791 L324.834972,1375.25845 L324.848717,1375.25795 L324.848717,1375.25795 Z M309.295679,1374.87868 C308.841925,1374.87868 308.472731,1375.24135 308.472731,1375.69034 C308.472731,1376.13934 308.841925,1376.50201 309.295679,1376.50201 C309.749432,1376.50201 310.118626,1376.13934 310.118626,1375.69034 C310.118626,1375.24135 309.749432,1374.87868 309.295679,1374.87868 L309.295679,1374.87868 L309.295679,1374.87868 Z M309.295679,1375.24791 C309.546971,1375.24791 309.749395,1375.44676 309.749395,1375.69034 C309.749395,1375.93393 309.546971,1376.13278 309.295679,1376.13278 C309.044387,1376.13278 308.841962,1375.93393 308.841962,1375.69034 C308.841962,1375.44676 309.044387,1375.24791 309.295679,1375.24791 L309.295679,1375.24791 L309.295679,1375.24791 Z M312.275883,1374.87868 C311.82213,1374.87868 311.452936,1375.24135 311.452936,1375.69034 C311.452936,1376.13934 311.82213,1376.50201 312.275883,1376.50201 C312.729636,1376.50201 313.09883,1376.13934 313.09883,1375.69034 C313.09883,1375.24135 312.729636,1374.87868 312.275883,1374.87868 L312.275883,1374.87868 L312.275883,1374.87868 Z M312.275883,1375.24791 C312.527175,1375.24791 312.7296,1375.44676 312.7296,1375.69034 C312.7296,1375.93393 312.527175,1376.13278 312.275883,1376.13278 C312.024591,1376.13278 311.822167,1375.93393 311.822167,1375.69034 C311.822167,1375.44676 312.024591,1375.24791 312.275883,1375.24791 L312.275883,1375.24791 L312.275883,1375.24791 Z M311.635347,1378.64531 C311.180316,1378.64531 310.810196,1379.00894 310.810196,1379.45913 C310.810196,1379.90929 311.180418,1380.27296 311.635347,1380.27296 C312.090276,1380.27296 312.460499,1379.90929 312.460499,1379.45913 C312.460499,1379.00898 312.090276,1378.64531 311.635347,1378.64531 L311.635347,1378.64531 L311.635347,1378.64531 Z M304.822947,1371.37505 C304.470425,1371.37505 304.184615,1371.65581 304.184615,1372.0021 C304.184615,1372.34839 304.470425,1372.62915 304.822947,1372.62915 C305.17547,1372.62915 305.461279,1372.34839 305.461279,1372.0021 C305.461279,1371.65581 305.17547,1371.37505 304.822947,1371.37505 L304.822947,1371.37505 Z M306.313123,1375.06329 C305.959278,1375.06329 305.672587,1375.34405 305.672587,1375.69034 C305.672587,1376.03664 305.959425,1376.31739 306.313123,1376.31739 C306.666821,1376.31739 306.953659,1376.03664 306.953659,1375.69034 C306.953659,1375.34405 306.666968,1375.06329 306.313123,1375.06329 L306.313123,1375.06329 Z M309.079815,1369.06995 C309.432338,1369.06995 309.718147,1368.78818 309.718147,1368.44073 C309.718147,1368.09329 309.432338,1367.81152 309.079815,1367.81152 C308.727293,1367.81152 308.441484,1368.09329 308.441484,1368.44073 C308.441484,1368.78833 308.727293,1369.06995 309.079815,1369.06995 L309.079815,1369.06995 Z M314.40204,1368.44073 C314.40204,1368.78833 314.687849,1369.06995 315.040372,1369.06995 C315.392894,1369.06995 315.678703,1368.78818 315.678703,1368.44073 C315.678703,1368.09329 315.392894,1367.81152 315.040372,1367.81152 C314.687849,1367.81152 314.40204,1368.09329 314.40204,1368.44073 L314.40204,1368.44073 Z M308.441484,1372.0021 C308.441484,1371.65581 308.155674,1371.37505 307.803152,1371.37505 C307.450629,1371.37505 307.16482,1371.65581 307.16482,1372.0021 C307.16482,1372.34839 307.450629,1372.62915 307.803152,1372.62915 C308.155821,1372.62915 308.441484,1372.34839 308.441484,1372.0021 L308.441484,1372.0021 Z M311.421835,1368.44073 C311.421835,1368.78833 311.707644,1369.06995 312.060167,1369.06995 C312.41269,1369.06995 312.698499,1368.78818 312.698499,1368.44073 C312.698499,1368.09329 312.41269,1367.81152 312.060167,1367.81152 C311.707497,1367.81152 311.421835,1368.09329 311.421835,1368.44073 L311.421835,1368.44073 Z M317.382244,1368.44073 C317.382244,1368.78833 317.669082,1369.06995 318.02278,1369.06995 C318.376478,1369.06995 318.663316,1368.78818 318.663316,1368.44073 C318.663316,1368.09329 318.376478,1367.81152 318.02278,1367.81152 C317.669082,1367.81152 317.382244,1368.09329 317.382244,1368.44073 L317.382244,1368.44073 Z M325.262351,1369.90688 C325.262351,1368.40335 324.022571,1367.18462 322.493307,1367.18462 C321.762253,1367.18462 321.099234,1367.46523 320.604321,1367.92036 L320.622102,1367.93783 C320.465458,1368.05258 320.362743,1368.23432 320.362743,1368.44102 C320.362743,1368.78861 320.64958,1369.07024 321.003279,1369.07024 C321.224726,1369.07024 321.41987,1368.95981 321.534928,1368.79193 C321.794581,1368.57556 322.128735,1368.44319 322.495659,1368.44319 C323.318554,1368.44319 323.985834,1369.09954 323.985834,1369.90919 C323.985834,1370.64825 323.429351,1371.25784 322.706526,1371.35888 L322.706526,1371.37649 L313.125964,1371.37649 L310.572195,1371.37519 L310.572195,1371.41316 C310.324004,1371.49904 310.145171,1371.72913 310.145171,1372.00224 C310.145171,1372.27535 310.324151,1372.50544 310.572195,1372.59133 L310.572195,1372.62929 L322.282,1372.62929 C322.351946,1372.62381 322.421892,1372.62915 322.493307,1372.62915 C324.022571,1372.62915 325.262351,1371.41027 325.262351,1369.90688 L325.262351,1369.90688 Z M314.617903,1378.82992 C314.26538,1378.82992 313.979571,1379.11169 313.979571,1379.45913 C313.979571,1379.80658 314.26538,1380.08835 314.617903,1380.08835 C314.970425,1380.08835 315.256235,1379.80658 315.256235,1379.45913 C315.256235,1379.11169 314.970425,1378.82992 314.617903,1378.82992 L314.617903,1378.82992 Z M320.578312,1378.82992 C320.225789,1378.82992 319.93998,1379.11169 319.93998,1379.45913 C319.93998,1379.80658 320.225789,1380.08835 320.578312,1380.08835 C320.930834,1380.08835 321.216644,1379.80658 321.216644,1379.45913 C321.216644,1379.11169 320.930834,1378.82992 320.578312,1378.82992 L320.578312,1378.82992 Z M317.598107,1378.82992 C317.245585,1378.82992 316.959775,1379.11169 316.959775,1379.45913 C316.959775,1379.80658 317.245585,1380.08835 317.598107,1380.08835 C317.95063,1380.08835 318.236439,1379.80658 318.236439,1379.45913 C318.236439,1379.11169 317.95063,1378.82992 317.598107,1378.82992 L317.598107,1378.82992 Z M308.654996,1378.82992 C308.301151,1378.82992 308.01446,1379.11169 308.01446,1379.45913 C308.01446,1379.80658 308.301298,1380.08835 308.654996,1380.08835 C309.008694,1380.08835 309.295532,1379.80658 309.295532,1379.45913 C309.295532,1379.11169 309.008841,1378.82992 308.654996,1378.82992 L308.654996,1378.82992 Z M324.83518,1375.07383 L315.467396,1375.06329 L315.467396,1375.10126 C315.400976,1375.07831 315.330589,1375.06329 315.256088,1375.06329 C314.903565,1375.06329 314.617756,1375.34405 314.617756,1375.69034 C314.617756,1376.03664 314.903565,1376.31739 315.256088,1376.31739 C315.330589,1376.31739 315.400829,1376.30252 315.467396,1376.27943 L315.467396,1376.31739 L315.680761,1376.31739 L325.261176,1376.31479 L325.261176,1376.33399 C325.983266,1376.43561 326.538868,1377.04491 326.538868,1377.78339 C326.538868,1378.59304 325.871735,1379.2494 325.048692,1379.2494 C324.683091,1379.2494 324.349378,1379.11891 324.090607,1378.90368 C323.976283,1378.73436 323.780992,1378.62235 323.558663,1378.62235 C323.206141,1378.62235 322.920331,1378.90311 322.920331,1379.2494 C322.920331,1379.4639 323.030247,1379.65285 323.197471,1379.76588 L323.176605,1379.78637 C323.668873,1380.23371 324.325573,1380.50783 325.048692,1380.50783 C326.576633,1380.50783 327.815385,1379.28895 327.815385,1377.78556 C327.815385,1376.28217 326.576633,1375.06329 325.048692,1375.06329 C324.976542,1375.06329 324.905861,1375.06864 324.83518,1375.07383 L324.83518,1375.07383 Z M309.295679,1375.06329 C308.943156,1375.06329 308.657347,1375.34405 308.657347,1375.69034 C308.657347,1376.03664 308.943156,1376.31739 309.295679,1376.31739 C309.648201,1376.31739 309.934011,1376.03664 309.934011,1375.69034 C309.934011,1375.34405 309.648201,1375.06329 309.295679,1375.06329 L309.295679,1375.06329 Z M312.275883,1375.06329 C311.923361,1375.06329 311.637551,1375.34405 311.637551,1375.69034 C311.637551,1376.03664 311.923361,1376.31739 312.275883,1376.31739 C312.628406,1376.31739 312.914215,1376.03664 312.914215,1375.69034 C312.914215,1375.34405 312.628406,1375.06329 312.275883,1375.06329 L312.275883,1375.06329 Z M311.635347,1378.82992 C311.281502,1378.82992 310.994811,1379.11169 310.994811,1379.45913 C310.994811,1379.80658 311.281649,1380.08835 311.635347,1380.08835 C311.989045,1380.08835 312.275883,1379.80658 312.275883,1379.45913 C312.275883,1379.11169 311.989045,1378.82992 311.635347,1378.82992 L311.635347,1378.82992 Z" id="Combined-Shape"></path>
        </g>
    </g>
</svg>