<?xml version="1.0" encoding="UTF-8" standalone="no"?>
<svg width="24px" height="24px" viewBox="0 0 24 24" version="1.1" xmlns="http://www.w3.org/2000/svg" xmlns:xlink="http://www.w3.org/1999/xlink">
    <!-- Generator: Sketch 3.8.3 (29802) - http://www.bohemiancoding.com/sketch -->
    <title>3</title>
    <desc>Created with Sketch.</desc>
    <defs></defs>
    <g id="天气图标" stroke="none" stroke-width="1" fill="none" fill-rule="evenodd">
        <g id="天气图标_黑色背景" transform="translate(-303.000000, -128.000000)" fill="#F8F3CB">
            <path d="M315.189062,150.000252 L315.186765,149.998248 C312.472057,149.9829 309.922115,148.918934 308.000519,146.997728 C306.065653,145.062495 305,142.489728 305,139.752488 C305,137.502312 305.722386,135.378241 307.089906,133.61034 C307.744767,132.762999 308.528837,132.025266 309.419605,131.416765 C310.319832,130.802374 311.307501,130.334127 312.355875,130.025758 C312.413917,130.00848 312.474647,130 312.535353,130 C312.724558,130 312.903084,130.083532 313.024789,130.229676 C313.186891,130.425479 313.216975,130.697922 313.101062,130.924665 C312.475967,132.14306 312.184901,133.303707 312.184901,134.578164 C312.184901,139.119768 315.880117,142.814984 320.421721,142.814984 C321.696545,142.814984 322.857484,142.523918 324.07522,141.899483 C324.164959,141.853464 324.265109,141.829319 324.365234,141.829319 C324.513113,141.829319 324.656593,141.881154 324.770209,141.975463 C324.965329,142.137272 325.04561,142.399622 324.974395,142.64401 C324.663852,143.695635 324.195605,144.683303 323.58312,145.580671 C322.975279,146.471048 322.237155,147.255191 321.389814,147.91037 C319.622011,149.277793 317.497866,150.000178 315.247764,150.000178 L315.189062,150.000178 L315.189062,150.000252 L315.189062,150.000252 Z" id="Shape"></path>
        </g>
    </g>
</svg>