<?xml version="1.0" encoding="UTF-8" standalone="no"?>
<svg width="24px" height="24px" viewBox="0 0 24 24" version="1.1" xmlns="http://www.w3.org/2000/svg" xmlns:xlink="http://www.w3.org/1999/xlink">
    <!-- Generator: Sketch 3.8.3 (29802) - http://www.bohemiancoding.com/sketch -->
    <title>31</title>
    <desc>Created with Sketch.</desc>
    <defs></defs>
    <g id="天气图标" stroke="none" stroke-width="1" fill="none" fill-rule="evenodd">
        <g id="天气图标_黑色背景" transform="translate(-264.000000, -1494.000000)" fill="#FFFFFF">
            <path d="M282.278251,1500.28412 C278.840182,1500.28412 276.84796,1503.04682 276.00044,1504.59877 C275.15248,1503.04682 273.160258,1500.28324 269.721749,1500.28324 C266.245817,1500.28324 264,1502.46522 264,1505.84297 C264,1509.26299 266.273554,1511.47182 269.793073,1511.47182 C273.21221,1511.47182 275.163047,1508.67347 276,1507.07 C276.836073,1508.67259 278.786909,1511.47182 282.205606,1511.47182 C285.725565,1511.47182 287.999119,1509.26299 288,1505.84385 C288,1502.4661 285.754623,1500.28412 282.278251,1500.28412 Z M275.997358,1497.16349 C276.594805,1497.16349 277.079102,1496.67875 277.079102,1496.08174 C277.079102,1495.4843 276.594805,1495 275.997358,1495 C275.399912,1495 274.915615,1495.4843 274.915615,1496.08174 C274.915615,1496.67875 275.399912,1497.16349 275.997358,1497.16349 Z M286.814485,1497.16349 C287.411491,1497.16349 287.895788,1496.67875 287.895788,1496.08174 C287.895788,1495.4843 287.411491,1495 286.814485,1495 C286.217479,1495 285.732741,1495.4843 285.732741,1496.08174 C285.732741,1496.67875 286.217479,1497.16349 286.814485,1497.16349 Z M265.962284,1497.16349 C266.55929,1497.16349 267.044027,1496.67875 267.044027,1496.08174 C267.044027,1495.4843 266.55929,1495 265.962284,1495 C265.364837,1495 264.88054,1495.4843 264.88054,1496.08174 C264.88054,1496.67875 265.364837,1497.16349 265.962284,1497.16349 Z M275.913927,1513.93157 C275.316481,1513.93157 274.832184,1514.41586 274.832184,1515.01331 C274.832184,1515.61032 275.316481,1516.09505 275.913927,1516.09505 C276.510933,1516.09505 276.995671,1515.61032 276.995671,1515.01331 C276.995671,1514.41586 276.510933,1513.93157 275.913927,1513.93157 Z M286.730657,1513.93157 C286.133211,1513.93157 285.648914,1514.41586 285.648914,1515.01331 C285.648914,1515.61032 286.133211,1516.09505 286.730657,1516.09505 C287.328104,1516.09505 287.812401,1515.61032 287.812401,1515.01331 C287.812401,1514.41586 287.328104,1513.93157 286.730657,1513.93157 Z M265.962284,1513.93157 C265.364837,1513.93157 264.88054,1514.41586 264.88054,1515.01331 C264.88054,1515.61032 265.364837,1516.09505 265.962284,1516.09505 C266.55929,1516.09505 267.044027,1515.61032 267.044027,1515.01331 C267.044027,1514.41586 266.55929,1513.93157 265.962284,1513.93157 Z M269.874083,1509.602 C267.434547,1509.602 265.978574,1508.1993 265.978574,1505.84913 C265.978574,1503.53463 267.412093,1502.15307 269.815087,1502.15307 C272.688289,1502.15307 274.183886,1505.12049 274.498679,1505.82492 C274.197534,1506.54652 272.753449,1509.602 269.874083,1509.602 Z M282.120634,1509.55401 C279.286616,1509.55401 277.853977,1506.5364 277.556355,1505.82492 C277.864984,1505.12841 279.332844,1502.2015 282.17875,1502.2015 C284.549163,1502.2015 285.965072,1503.56545 285.965072,1505.84957 C285.965072,1508.16892 284.528471,1509.55401 282.120634,1509.55401 Z" id="Combined-Shape"></path>
        </g>
    </g>
</svg>