<?xml version="1.0" encoding="UTF-8" standalone="no"?>
<svg width="24px" height="24px" viewBox="0 0 24 24" version="1.1" xmlns="http://www.w3.org/2000/svg" xmlns:xlink="http://www.w3.org/1999/xlink">
    <!-- Generator: Sketch 3.8.3 (29802) - http://www.bohemiancoding.com/sketch -->
    <title>32</title>
    <desc>Created with Sketch.</desc>
    <defs></defs>
    <g id="天气图标" stroke="none" stroke-width="1" fill="none" fill-rule="evenodd">
        <g id="天气图标_黑色背景" transform="translate(-264.000000, -1557.000000)" fill="#FFFFFF">
            <path d="M264.618628,1566.48994 L275.126046,1566.48994 C276.915024,1566.48994 278.370499,1565.03446 278.370499,1563.24548 C278.370499,1561.45547 276.915024,1560 275.126046,1560 C273.422502,1560 272.022611,1561.31857 271.890857,1562.98815 L273.13326,1562.98815 C273.259868,1562.00205 274.104949,1561.23623 275.126046,1561.23623 C276.233607,1561.23623 277.134272,1562.13689 277.134272,1563.24548 C277.134272,1564.35304 276.233607,1565.25371 275.126046,1565.25371 L264.618628,1565.25371 C264.27792,1565.25371 264,1565.52957 264,1565.87028 C264,1566.03703 264.063819,1566.19246 264.180133,1566.30877 C264.297477,1566.42612 264.452906,1566.48994 264.618628,1566.48994 Z M283.880923,1572.25985 L264.61904,1572.25985 C264.278331,1572.25985 264.000412,1572.53674 264.000412,1572.87745 C264.000412,1573.21816 264.278331,1573.49402 264.61904,1573.49402 L283.880923,1573.49402 C284.988484,1573.49402 285.88915,1574.39572 285.88915,1575.50431 C285.88915,1576.61187 284.988484,1577.5115 283.880923,1577.5115 C282.859826,1577.5115 282.014745,1576.74671 281.887108,1575.76164 L280.645734,1575.76164 C280.777489,1577.43122 282.178409,1578.74979 283.880923,1578.74979 C285.668873,1578.74979 287.123318,1577.29432 287.123318,1575.50431 C287.123318,1573.71533 285.668873,1572.25985 283.880923,1572.25985 Z M279.816813,1566.48994 L281.071569,1566.48994 C281.022161,1566.28201 280.997457,1566.0782 280.997457,1565.87234 C280.997457,1564.28099 282.291327,1562.98815 283.880615,1562.98815 C285.471961,1562.98815 286.765831,1564.28099 286.765831,1565.87234 C286.765831,1567.37413 285.630479,1568.60521 284.126625,1568.73285 C284.100892,1568.74211 284.053542,1568.7555 283.993841,1568.7555 L264.618731,1568.7555 C264.278022,1568.7555 264.000103,1569.03341 264.000103,1569.37515 C264.000103,1569.53985 264.063921,1569.69425 264.180236,1569.81056 C264.29655,1569.9279 264.453009,1569.99172 264.618731,1569.99172 L283.880615,1569.99172 C286.15235,1569.99172 288,1568.14407 288,1565.87234 C288,1563.59957 286.15235,1561.75089 283.880615,1561.75089 C281.60785,1561.75089 279.759171,1563.59957 279.759171,1565.87234 C279.759171,1566.06585 279.777699,1566.26554 279.816813,1566.48994 Z" id="Combined-Shape"></path>
        </g>
    </g>
</svg>