<?xml version="1.0" encoding="UTF-8" standalone="no"?>
<svg width="24px" height="24px" viewBox="0 0 24 24" version="1.1" xmlns="http://www.w3.org/2000/svg" xmlns:xlink="http://www.w3.org/1999/xlink">
    <!-- Generator: Sketch 3.8.3 (29802) - http://www.bohemiancoding.com/sketch -->
    <title>33</title>
    <desc>Created with Sketch.</desc>
    <defs></defs>
    <g id="天气图标" stroke="none" stroke-width="1" fill="none" fill-rule="evenodd">
        <g id="天气图标_黑色背景" transform="translate(-304.000000, -1557.000000)" fill="#FFFFFF">
            <path d="M304.618628,1566.48994 L315.126046,1566.48994 C316.915024,1566.48994 318.370499,1565.03446 318.370499,1563.24548 C318.370499,1561.45547 316.915024,1560 315.126046,1560 C313.422502,1560 312.022611,1561.31857 311.890857,1562.98815 L313.13326,1562.98815 C313.259868,1562.00205 314.104949,1561.23623 315.126046,1561.23623 C316.233607,1561.23623 317.134272,1562.13689 317.134272,1563.24548 C317.134272,1564.35304 316.233607,1565.25371 315.126046,1565.25371 L304.618628,1565.25371 C304.27792,1565.25371 304,1565.52957 304,1565.87028 C304,1566.03703 304.063819,1566.19246 304.180133,1566.30877 C304.297477,1566.42612 304.452906,1566.48994 304.618628,1566.48994 Z M323.880923,1572.25985 L304.61904,1572.25985 C304.278331,1572.25985 304.000412,1572.53674 304.000412,1572.87745 C304.000412,1573.21816 304.278331,1573.49402 304.61904,1573.49402 L323.880923,1573.49402 C324.988484,1573.49402 325.88915,1574.39572 325.88915,1575.50431 C325.88915,1576.61187 324.988484,1577.5115 323.880923,1577.5115 C322.859826,1577.5115 322.014745,1576.74671 321.887108,1575.76164 L320.645734,1575.76164 C320.777489,1577.43122 322.178409,1578.74979 323.880923,1578.74979 C325.668873,1578.74979 327.123318,1577.29432 327.123318,1575.50431 C327.123318,1573.71533 325.668873,1572.25985 323.880923,1572.25985 Z M319.816813,1566.48994 L321.071569,1566.48994 C321.022161,1566.28201 320.997457,1566.0782 320.997457,1565.87234 C320.997457,1564.28099 322.291327,1562.98815 323.880615,1562.98815 C325.471961,1562.98815 326.765831,1564.28099 326.765831,1565.87234 C326.765831,1567.37413 325.630479,1568.60521 324.126625,1568.73285 C324.100892,1568.74211 324.053542,1568.7555 323.993841,1568.7555 L304.618731,1568.7555 C304.278022,1568.7555 304.000103,1569.03341 304.000103,1569.37515 C304.000103,1569.53985 304.063921,1569.69425 304.180236,1569.81056 C304.29655,1569.9279 304.453009,1569.99172 304.618731,1569.99172 L323.880615,1569.99172 C326.15235,1569.99172 328,1568.14407 328,1565.87234 C328,1563.59957 326.15235,1561.75089 323.880615,1561.75089 C321.60785,1561.75089 319.759171,1563.59957 319.759171,1565.87234 C319.759171,1566.06585 319.777699,1566.26554 319.816813,1566.48994 Z" id="Combined-Shape"></path>
        </g>
    </g>
</svg>