<?xml version="1.0" encoding="UTF-8" standalone="no"?>
<svg width="24px" height="24px" viewBox="0 0 24 24" version="1.1" xmlns="http://www.w3.org/2000/svg" xmlns:xlink="http://www.w3.org/1999/xlink">
    <!-- Generator: Sketch 3.8.3 (29802) - http://www.bohemiancoding.com/sketch -->
    <title>34</title>
    <desc>Created with Sketch.</desc>
    <defs></defs>
    <g id="天气图标" stroke="none" stroke-width="1" fill="none" fill-rule="evenodd">
        <g id="天气图标_黑色背景" transform="translate(-264.000000, -1638.000000)" fill="#FFFFFF">
            <path d="M276.635569,1660.45643 L274.468039,1660.45643 C274.209168,1660.45643 273.997552,1660.67729 273.997552,1660.94849 L273.997552,1661.50938 C273.997552,1661.78058 274.209168,1662.00041 274.468039,1662.00041 L276.635569,1662.00041 C276.89444,1662.00041 277.105029,1661.78058 277.105029,1661.50938 L277.105029,1660.94849 C277.105029,1660.67729 276.89444,1660.45643 276.635569,1660.45643 Z M283.898643,1652.97157 L273.91157,1652.97157 C273.652699,1652.97157 273.442109,1653.19141 273.442109,1653.4626 L273.442109,1654.02349 C273.442109,1654.29469 273.652699,1654.51555 273.91157,1654.51555 L283.898643,1654.51555 C284.157514,1654.51555 284.368103,1654.29469 284.368103,1654.02349 L284.368103,1653.4626 C284.368103,1653.19141 284.157514,1652.97157 283.898643,1652.97157 Z M264.466378,1639.79977 L264.468433,1639.54398 L287.53054,1639.54398 C287.789411,1639.54398 288,1639.32415 288,1639.05295 L288,1638.49103 C288,1638.21983 287.789411,1638 287.53054,1638 L264.46946,1638 C264.210589,1638 264,1638.21983 264,1638.49103 L264,1639.05295 C264,1639.18546 264.049309,1639.30976 264.139708,1639.40324 C264.227026,1639.49364 264.343107,1639.54398 264.466378,1639.54398 L264.466378,1639.79977 Z M280.267055,1656.71349 L274.637641,1656.71349 C274.37877,1656.71349 274.16818,1656.93332 274.16818,1657.20452 L274.16818,1657.76541 C274.16818,1658.0366 274.37877,1658.25747 274.637641,1658.25747 L280.267055,1658.25747 C280.525926,1658.25747 280.736515,1658.0366 280.736515,1657.76541 L280.736515,1657.20452 C280.736515,1656.93332 280.525926,1656.71349 280.267055,1656.71349 Z M287.534238,1649.22976 L270.280289,1649.22976 C270.020391,1649.22976 269.809802,1649.44959 269.809802,1649.72079 L269.809802,1650.27962 C269.809802,1650.55082 270.020391,1650.77168 270.280289,1650.77168 L287.530129,1650.77168 C287.789,1650.77168 287.999589,1650.55082 287.999589,1650.27962 L287.999589,1649.72079 C287.999589,1649.44959 287.791054,1649.22976 287.534238,1649.22976 Z M265.9215,1647.02977 L283.172367,1647.02977 C283.431237,1647.02977 283.641827,1646.8089 283.641827,1646.5377 L283.641827,1645.97682 C283.641827,1645.70562 283.431237,1645.48579 283.172367,1645.48579 L265.9215,1645.48579 C265.662629,1645.48579 265.451012,1645.70562 265.451012,1645.97682 L265.451012,1646.5377 C265.451012,1646.8089 265.662629,1647.02977 265.9215,1647.02977 Z M287.534238,1641.74387 L268.10146,1641.74387 C267.842589,1641.74387 267.630972,1641.9637 267.630972,1642.2349 L267.630972,1642.79476 C267.630972,1643.06596 267.842589,1643.28579 268.10146,1643.28579 L287.530129,1643.28579 C287.789,1643.28579 287.999589,1643.06596 287.999589,1642.79476 L287.999589,1642.2349 C287.999589,1641.9637 287.791054,1641.74387 287.534238,1641.74387 Z" id="Combined-Shape"></path>
        </g>
    </g>
</svg>