<?xml version="1.0" encoding="UTF-8" standalone="no"?>
<svg width="24px" height="24px" viewBox="0 0 24 24" version="1.1" xmlns="http://www.w3.org/2000/svg" xmlns:xlink="http://www.w3.org/1999/xlink">
    <!-- Generator: Sketch 3.8.3 (29802) - http://www.bohemiancoding.com/sketch -->
    <title>35</title>
    <desc>Created with Sketch.</desc>
    <defs></defs>
    <g id="天气图标" stroke="none" stroke-width="1" fill="none" fill-rule="evenodd">
        <g id="天气图标_黑色背景" transform="translate(-304.000000, -1638.000000)" fill="#FFFFFF">
            <path d="M316.635569,1660.45643 L314.468039,1660.45643 C314.209168,1660.45643 313.997552,1660.67729 313.997552,1660.94849 L313.997552,1661.50938 C313.997552,1661.78058 314.209168,1662.00041 314.468039,1662.00041 L316.635569,1662.00041 C316.89444,1662.00041 317.105029,1661.78058 317.105029,1661.50938 L317.105029,1660.94849 C317.105029,1660.67729 316.89444,1660.45643 316.635569,1660.45643 Z M323.898643,1652.97157 L313.91157,1652.97157 C313.652699,1652.97157 313.442109,1653.19141 313.442109,1653.4626 L313.442109,1654.02349 C313.442109,1654.29469 313.652699,1654.51555 313.91157,1654.51555 L323.898643,1654.51555 C324.157514,1654.51555 324.368103,1654.29469 324.368103,1654.02349 L324.368103,1653.4626 C324.368103,1653.19141 324.157514,1652.97157 323.898643,1652.97157 Z M304.466378,1639.79977 L304.468433,1639.54398 L327.53054,1639.54398 C327.789411,1639.54398 328,1639.32415 328,1639.05295 L328,1638.49103 C328,1638.21983 327.789411,1638 327.53054,1638 L304.46946,1638 C304.210589,1638 304,1638.21983 304,1638.49103 L304,1639.05295 C304,1639.18546 304.049309,1639.30976 304.139708,1639.40324 C304.227026,1639.49364 304.343107,1639.54398 304.466378,1639.54398 L304.466378,1639.79977 Z M320.267055,1656.71349 L314.637641,1656.71349 C314.37877,1656.71349 314.16818,1656.93332 314.16818,1657.20452 L314.16818,1657.76541 C314.16818,1658.0366 314.37877,1658.25747 314.637641,1658.25747 L320.267055,1658.25747 C320.525926,1658.25747 320.736515,1658.0366 320.736515,1657.76541 L320.736515,1657.20452 C320.736515,1656.93332 320.525926,1656.71349 320.267055,1656.71349 Z M327.534238,1649.22976 L310.280289,1649.22976 C310.020391,1649.22976 309.809802,1649.44959 309.809802,1649.72079 L309.809802,1650.27962 C309.809802,1650.55082 310.020391,1650.77168 310.280289,1650.77168 L327.530129,1650.77168 C327.789,1650.77168 327.999589,1650.55082 327.999589,1650.27962 L327.999589,1649.72079 C327.999589,1649.44959 327.791054,1649.22976 327.534238,1649.22976 Z M305.9215,1647.02977 L323.172367,1647.02977 C323.431237,1647.02977 323.641827,1646.8089 323.641827,1646.5377 L323.641827,1645.97682 C323.641827,1645.70562 323.431237,1645.48579 323.172367,1645.48579 L305.9215,1645.48579 C305.662629,1645.48579 305.451012,1645.70562 305.451012,1645.97682 L305.451012,1646.5377 C305.451012,1646.8089 305.662629,1647.02977 305.9215,1647.02977 Z M327.534238,1641.74387 L308.10146,1641.74387 C307.842589,1641.74387 307.630972,1641.9637 307.630972,1642.2349 L307.630972,1642.79476 C307.630972,1643.06596 307.842589,1643.28579 308.10146,1643.28579 L327.530129,1643.28579 C327.789,1643.28579 327.999589,1643.06596 327.999589,1642.79476 L327.999589,1642.2349 C327.999589,1641.9637 327.791054,1641.74387 327.534238,1641.74387 Z" id="Combined-Shape"></path>
        </g>
    </g>
</svg>