<?xml version="1.0" encoding="UTF-8" standalone="no"?>
<svg width="24px" height="24px" viewBox="0 0 24 24" version="1.1" xmlns="http://www.w3.org/2000/svg" xmlns:xlink="http://www.w3.org/1999/xlink">
    <!-- Generator: Sketch 3.8.3 (29802) - http://www.bohemiancoding.com/sketch -->
    <title>36</title>
    <desc>Created with Sketch.</desc>
    <defs></defs>
    <g id="天气图标" stroke="none" stroke-width="1" fill="none" fill-rule="evenodd">
        <g id="天气图标_黑色背景" transform="translate(-264.000000, -1712.000000)" fill="#FFFFFF">
            <path d="M275.933679,1712 C269.342836,1712 264,1714.21786 264,1716.9536 C264,1719.68934 269.342836,1721.90721 275.933679,1721.90721 C282.524523,1721.90721 287.867358,1719.68934 287.867358,1716.9536 C287.867358,1714.21786 282.524523,1712 275.933679,1712 L275.933679,1712 Z M269.253821,1718.45469 C269.253821,1717.43906 272.286477,1716.61586 276.027497,1716.61586 C279.768518,1716.61586 282.801174,1717.43906 282.801174,1718.45469 C282.801174,1719.08335 281.638278,1719.63816 279.865339,1719.96975 C278.633543,1720.12901 277.30973,1720.21848 275.963551,1720.21848 C274.776638,1720.21848 273.61104,1720.15048 272.512241,1720.02679 C270.55857,1719.7042 269.253821,1719.12088 269.253821,1718.45469 L269.253821,1718.45469 Z M284.050532,1719.03547 C284.14345,1718.84723 284.194037,1718.65329 284.194037,1718.45469 C284.194037,1716.73444 280.547134,1715.33993 276.048363,1715.33993 C271.549591,1715.33993 267.902688,1716.73444 267.902688,1718.45469 C267.902688,1718.67851 267.965734,1718.89677 268.08312,1719.10722 C266.218463,1718.47751 265.124468,1717.642 265.410576,1716.76597 C265.876215,1715.33993 270.135262,1713.31346 275.963401,1713.31346 C281.791539,1713.31346 285.878262,1715.11477 286.516226,1716.76597 C286.83836,1717.59922 285.82152,1718.40951 284.050532,1719.03547 L284.050532,1719.03547 Z M285.550723,1721.60068 C285.430786,1721.60068 285.319705,1721.63656 285.225437,1721.69645 L285.222285,1721.69135 C283.221179,1723.09037 279.860535,1724.00873 276.049714,1724.00873 C272.247598,1724.00873 268.89446,1723.09412 266.891853,1721.7005 C266.780172,1721.56436 266.61265,1721.47564 266.422762,1721.47564 C266.086367,1721.47564 265.813619,1721.74839 265.813619,1722.08478 C265.813619,1722.18731 265.841389,1722.28248 265.886122,1722.36714 L265.879367,1722.37209 C265.886272,1722.3796 265.893927,1722.38695 265.900832,1722.39431 C265.95232,1722.48077 266.023772,1722.55297 266.109935,1722.60491 C267.93286,1724.34888 271.697298,1725.54735 276.049864,1725.54735 C280.290598,1725.54735 283.975328,1724.41043 285.84809,1722.73896 L285.84779,1722.73851 C286.033174,1722.63403 286.159716,1722.43769 286.159716,1722.20983 C286.159866,1721.87343 285.887118,1721.60068 285.550723,1721.60068 L285.550723,1721.60068 Z M281.717986,1726.34353 C281.645333,1726.34353 281.576283,1726.35839 281.512487,1726.38346 L281.510385,1726.37941 C281.500778,1726.38571 281.48982,1726.39157 281.480063,1726.39772 C281.444487,1726.41438 281.411463,1726.43465 281.38039,1726.45807 C280.193627,1727.17033 278.207383,1727.63852 275.952293,1727.63852 C273.672284,1727.63852 271.665475,1727.16043 270.483665,1726.4348 C270.429776,1726.38001 270.364028,1726.33783 270.290925,1726.30991 C270.288974,1726.30856 270.286572,1726.30721 270.284621,1726.30585 L270.28342,1726.30766 C270.225928,1726.28679 270.164834,1726.27343 270.100136,1726.27343 C269.80292,1726.27343 269.562145,1726.51436 269.562145,1726.81142 C269.562145,1726.95433 269.618886,1727.08342 269.709853,1727.17979 L269.70685,1727.18429 C270.580786,1728.26103 273.045729,1729.03724 275.952293,1729.03724 C278.673322,1729.03724 281.007669,1728.35695 282.01175,1727.38664 C282.173267,1727.28742 282.281946,1727.11074 282.281946,1726.90734 C282.282096,1726.59602 282.029463,1726.34353 281.717986,1726.34353 L281.717986,1726.34353 Z M278.623485,1730.21094 C278.355841,1730.21094 278.126774,1730.36781 278.017345,1730.59342 L278.01164,1730.58967 L276.262118,1733.20127 L274.593054,1730.57211 L274.588701,1730.57481 C274.472667,1730.36976 274.255309,1730.22986 274.002975,1730.22986 C273.629804,1730.22986 273.327334,1730.53233 273.327334,1730.9055 C273.327334,1731.05126 273.374618,1731.18545 273.453125,1731.29578 L273.452375,1731.29623 L275.44042,1734.42781 L275.439069,1734.42976 L275.547298,1734.60029 L275.551801,1734.60329 L275.973158,1735.26692 L275.97586,1735.26512 C276.025996,1735.36059 276.124918,1735.42634 276.240202,1735.42634 C276.362541,1735.42634 276.467317,1735.35278 276.514001,1735.24771 L276.516103,1735.24906 L276.89723,1734.67999 L276.902934,1734.67639 L277.054694,1734.44973 L277.053193,1734.44733 L279.133857,1731.34142 L279.1247,1731.33526 C279.231878,1731.21578 279.298827,1731.05951 279.298827,1730.88629 C279.299127,1730.51341 278.996657,1730.21094 278.623485,1730.21094 L278.623485,1730.21094 Z" id="Shape"></path>
        </g>
    </g>
</svg>