<?xml version="1.0" encoding="UTF-8" standalone="no"?>
<svg width="24px" height="24px" viewBox="0 0 24 24" version="1.1" xmlns="http://www.w3.org/2000/svg" xmlns:xlink="http://www.w3.org/1999/xlink">
    <!-- Generator: Sketch 3.8.3 (29802) - http://www.bohemiancoding.com/sketch -->
    <title>37</title>
    <desc>Created with Sketch.</desc>
    <defs></defs>
    <g id="天气图标" stroke="none" stroke-width="1" fill="none" fill-rule="evenodd">
        <g id="天气图标_黑色背景" transform="translate(-264.000000, -1771.000000)" fill="#FFFFFF">
            <path d="M286.721599,1788.24582 L283.02298,1786.11041 L286.50621,1785.02207 C286.799619,1784.93039 286.96315,1784.61822 286.87147,1784.32481 C286.779818,1784.03141 286.467572,1783.86771 286.174218,1783.95955 L281.712307,1785.35373 L277.613123,1782.98707 L281.640153,1780.66205 L286.174218,1782.07875 C286.22949,1782.09605 286.285369,1782.10426 286.340366,1782.10426 C286.577345,1782.1042 286.79703,1781.95163 286.871442,1781.71352 C286.96315,1781.42011 286.799591,1781.10798 286.506183,1781.01627 L282.950771,1779.90537 L286.693756,1777.74435 C286.959983,1777.59065 287.051195,1777.25029 286.897468,1776.98406 C286.743823,1776.71794 286.403404,1776.62662 286.137177,1776.78035 L282.438586,1778.91573 L283.237653,1775.35503 C283.304987,1775.05512 283.116395,1774.75742 282.816459,1774.69014 C282.516276,1774.62253 282.218791,1774.81145 282.151567,1775.11133 L281.127968,1779.67244 L277.057205,1782.02271 L277.057205,1777.38143 L280.522672,1774.18941 C280.748718,1773.98112 280.763177,1773.62903 280.554948,1773.40293 C280.346665,1773.17694 279.994569,1773.16237 279.768468,1773.37065 L277.057205,1775.86801 L277.057205,1771.55658 C277.057205,1771.24918 276.807998,1771 276.500626,1771 C276.193255,1771 275.944048,1771.24918 275.944048,1771.55658 L275.944048,1775.86914 L273.231463,1773.37057 C273.005416,1773.16234 272.65332,1773.1768 272.44501,1773.40284 C272.236754,1773.62895 272.251212,1773.98104 272.477314,1774.18933 L275.944048,1777.38256 L275.944048,1782.02337 L271.888045,1779.68166 L270.864475,1775.12053 C270.797168,1774.82056 270.499463,1774.63172 270.199555,1774.69933 C269.899619,1774.76661 269.711027,1775.06432 269.778334,1775.36423 L270.577373,1778.92493 L266.862781,1776.78032 C266.596609,1776.62662 266.256135,1776.71781 266.102491,1776.98403 C265.948791,1777.25026 266.040003,1777.59062 266.306202,1777.74432 L270.065188,1779.91457 L266.509831,1781.02547 C266.216423,1781.11715 266.052919,1781.42931 266.144571,1781.72272 C266.218984,1781.96088 266.438641,1782.11345 266.675648,1782.11345 C266.730618,1782.11345 266.786551,1782.10525 266.841796,1782.08795 L271.375806,1780.67128 L275.386808,1782.98704 L271.303651,1785.34447 L266.841823,1783.95033 C266.54847,1783.85868 266.236279,1784.02218 266.144571,1784.31559 C266.052891,1784.609 266.216423,1784.92113 266.509831,1785.01284 L269.993006,1786.10118 L266.278387,1788.24584 C266.012188,1788.39954 265.920948,1788.73991 266.074675,1789.00613 C266.177757,1789.18467 266.364834,1789.28453 266.5572,1789.28453 C266.651606,1789.28453 266.747334,1789.26046 266.834966,1789.20985 L270.593952,1787.0396 L269.778361,1790.67408 C269.711054,1790.97402 269.899619,1791.27169 270.199582,1791.33897 C270.240616,1791.34823 270.281568,1791.35261 270.321969,1791.35261 C270.576629,1791.35261 270.806421,1791.17665 270.86453,1790.91778 L271.904652,1786.28286 L275.944103,1783.95069 L275.944103,1788.6742 L272.477314,1791.86743 C272.251212,1792.07572 272.236754,1792.42781 272.44501,1792.65391 C272.653265,1792.87991 273.005361,1792.89431 273.231463,1792.68619 L275.944048,1790.18762 L275.944048,1794.48757 C275.944048,1794.79494 276.193255,1795.04415 276.500626,1795.04415 C276.807998,1795.04415 277.057205,1794.79494 277.057205,1794.48757 L277.057205,1790.18886 L279.768468,1792.68622 C279.875487,1792.78476 280.010597,1792.83342 280.145405,1792.83342 C280.295524,1792.83342 280.44523,1792.77302 280.554948,1792.65394 C280.763177,1792.42784 280.748718,1792.07574 280.522672,1791.86746 L277.057205,1788.67541 L277.057205,1783.95143 L281.111417,1786.29215 L282.151567,1790.92703 C282.209676,1791.18596 282.439412,1791.36186 282.694128,1791.36186 C282.734446,1791.36186 282.775508,1791.35745 282.816487,1791.34823 C283.116395,1791.28095 283.305015,1790.98324 283.23768,1790.68333 L282.422062,1787.04886 L286.165047,1789.20987 C286.252706,1789.26046 286.34838,1789.28456 286.442786,1789.28456 C286.635151,1789.28456 286.822284,1789.1847 286.925338,1789.00616 C287.079037,1788.73991 286.987826,1788.39954 286.721599,1788.24582 L286.721599,1788.24582 Z" id="Shape"></path>
        </g>
    </g>
</svg>