<?xml version="1.0" encoding="UTF-8" standalone="no"?>
<svg width="24px" height="24px" viewBox="0 0 24 24" version="1.1" xmlns="http://www.w3.org/2000/svg" xmlns:xlink="http://www.w3.org/1999/xlink">
    <!-- Generator: Sketch 3.8.3 (29802) - http://www.bohemiancoding.com/sketch -->
    <title>4</title>
    <desc>Created with Sketch.</desc>
    <defs></defs>
    <g id="天气图标" stroke="none" stroke-width="1" fill="none" fill-rule="evenodd" fill-opacity="0.85">
        <g id="天气图标_黑色背景" transform="translate(-264.000000, -182.000000)" fill="#F1F1F1">
            <path d="M284.707216,191.889114 C284.707216,188.641874 282.009814,186 278.694366,186 C276.583512,186 274.636604,187.091132 273.554564,188.830569 C272.882141,188.380522 272.087563,188.138296 271.256281,188.138296 C269.004755,188.138296 267.173277,189.932178 267.173277,192.137317 C267.173277,192.380973 267.195378,192.622497 267.239534,192.859379 C265.306361,193.546567 264,195.341386 264,197.400908 C264,200.022743 266.12194,202 268.935403,202 L283.064386,202 C285.785857,202 288,199.831728 288,197.166323 C288.00007,195.09616 286.619764,193.246614 284.652395,192.588794 C284.680708,192.356341 284.707216,192.087185 284.707216,191.889114 Z" id="Shape-Copy-5"></path>
        </g>
    </g>
</svg>