<?xml version="1.0" encoding="UTF-8" standalone="no"?>
<svg width="24px" height="24px" viewBox="0 0 24 24" version="1.1" xmlns="http://www.w3.org/2000/svg" xmlns:xlink="http://www.w3.org/1999/xlink">
    <!-- Generator: Sketch 3.8.3 (29802) - http://www.bohemiancoding.com/sketch -->
    <title>9</title>
    <desc>Created with Sketch.</desc>
    <defs></defs>
    <g id="天气图标" stroke="none" stroke-width="1" fill="none" fill-rule="evenodd" fill-opacity="0.85">
        <g id="天气图标_黑色背景" transform="translate(-264.000000, -435.000000)" fill="#F1F1F1">
            <path d="M284.707216,444.889114 C284.707216,441.641874 282.009814,439 278.694366,439 C276.583512,439 274.636604,440.091132 273.554564,441.830569 C272.882141,441.380522 272.087563,441.138296 271.256281,441.138296 C269.004755,441.138296 267.173277,442.932178 267.173277,445.137317 C267.173277,445.380973 267.195378,445.622497 267.239534,445.859379 C265.306361,446.546567 264,448.341386 264,450.400908 C264,453.022743 266.12194,455 268.935403,455 L283.064386,455 C285.785857,455 288,452.831728 288,450.166323 C288.00007,448.09616 286.619764,446.246614 284.652395,445.588794 C284.680708,445.356341 284.707216,445.087185 284.707216,444.889114 Z" id="Shape-Copy-5"></path>
        </g>
    </g>
</svg>