<?xml version="1.0" encoding="UTF-8" standalone="no"?>
<svg width="24px" height="24px" viewBox="0 0 24 24" version="1.1" xmlns="http://www.w3.org/2000/svg" xmlns:xlink="http://www.w3.org/1999/xlink">
    <!-- Generator: Sketch 3.8.3 (29802) - http://www.bohemiancoding.com/sketch -->
    <title>99</title>
    <desc>Created with Sketch.</desc>
    <defs></defs>
    <g id="天气图标" stroke="none" stroke-width="1" fill="none" fill-rule="evenodd">
        <g id="天气图标_黑色背景" transform="translate(-264.000000, -1872.000000)" fill="#CACACA">
            <path d="M270.964162,1887.61503 L270.991908,1887.61503 L270.991908,1879.24971 L271.990751,1879.24971 L271.990751,1889.07168 L270.742197,1889.07168 L265.02659,1880.62312 L264.998844,1880.62312 L264.998844,1889.07168 L264,1889.07168 L264,1879.24971 L265.248555,1879.24971 L270.964162,1887.61503 Z M274.168786,1889.32139 L273.364162,1889.0578 L277.56763,1879 L278.358382,1879.27746 L274.168786,1889.32139 Z M279.662428,1889.07168 L278.566474,1889.07168 L282.811561,1879.24971 L283.782659,1879.24971 L288,1889.07168 L286.890173,1889.07168 L285.808092,1886.49133 L280.730636,1886.49133 L279.662428,1889.07168 Z M281.105202,1885.57572 L285.433526,1885.57572 L283.269364,1880.35954 L281.105202,1885.57572 Z" id="N/A"></path>
        </g>
    </g>
</svg>