<svg class="icon" width="200" height="200" viewBox="0 0 1024 1024" version="1.1" xmlns="http://www.w3.org/2000/svg"><title>10</title><g class="nc-icon-wrapper"><path d="M444.70000000000005 307.5a203.5 203.5 0 1 0 407 0 203.5 203.5 0 1 0-407 0z" fill="#FFCF06"/><path d="M668.9 313.8c-27.6 0-53.7 6.5-76.9 18-34.9-89.6-122-153.1-223.9-153.1-132.7 0-240.3 107.6-240.3 240.3 0 132.7 107.6 240.3 240.3 240.3h300.8c95.4 0 172.7-77.3 172.7-172.7.1-95.4-77.3-172.8-172.7-172.8z" fill="#90E6F4"/><path d="M368.7 667c-71 0-138.8-30.5-185.9-83.7-2.8-3.1-2.5-7.9.6-10.7 3.1-2.8 8-2.5 10.7.6 44.2 49.9 107.9 78.6 174.5 78.6 4.2 0 7.6 3.4 7.6 7.6s-3.3 7.6-7.5 7.6zm136.8-116c-3.1 0-6.1-2-7.2-5.1-6.7-19.2-10.1-39.3-10.1-59.7 0-67.1 36.2-127.4 94.9-159.1-36.8-86.2-120.2-141.6-214.4-141.6-33.2 0-65.3 6.8-95.3 20.3-3.8 1.7-8.3 0-10-3.8-1.7-3.8 0-8.3 3.8-10 32-14.4 66.2-21.6 101.6-21.6 102.8 0 193.5 61.8 231.1 157.6l2.6 6.5-6.3 3.1c-57.2 28.1-92.7 85.1-92.7 148.7 0 18.7 3.1 37.1 9.3 54.7 1.4 4-.7 8.3-4.7 9.7-.9.2-1.8.3-2.6.3z" fill="#54686B"/><path d="M669 667c-4.2 0-7.6-3.4-7.6-7.6s3.4-7.6 7.6-7.6c91.3 0 165.6-74.3 165.6-165.6S760.3 320.6 669 320.6c-25.5 0-50.1 5.7-72.9 16.9-3.8 1.9-8.3.3-10.2-3.5-1.8-3.8-.3-8.3 3.5-10.2 24.9-12.2 51.7-18.5 79.6-18.5 99.7 0 180.8 81.1 180.8 180.8S768.7 667 669 667z" fill="#54686B"/><path d="M669 667h-37.6c-4.2 0-7.6-3.4-7.6-7.6s3.4-7.6 7.6-7.6H669c4.2 0 7.6 3.4 7.6 7.6s-3.4 7.6-7.6 7.6zm-265.3 0h-35.1c-4.2 0-7.6-3.4-7.6-7.6s3.4-7.6 7.6-7.6h35.1c4.2 0 7.6 3.4 7.6 7.6s-3.4 7.6-7.6 7.6z" fill="#54686B"/><path d="M587.1 856.4c0 53.7-43.6 97.3-97.3 97.3-53.7 0-97.3-43.6-97.3-97.3 0-53.7 43.6-163.3 97.3-163.3 53.7 0 97.3 109.6 97.3 163.3z" fill="#90E6F4"/><path d="M533.3 951.1c-2.8 0-5.5-1.5-6.8-4.2-1.9-3.7-.3-8.3 3.4-10.2 30.6-15.3 49.7-46.1 49.7-80.3 0-51.3-41.5-155.7-89.7-155.7-18.2 0-34.1 15.7-44.2 28.9-2.6 3.3-7.3 3.9-10.7 1.4-3.3-2.6-3.9-7.3-1.4-10.7 17.5-22.8 37-34.8 56.3-34.8 59.5 0 104.9 113.9 104.9 170.9 0 40-22.2 76-58.1 93.9-1.1.5-2.3.8-3.4.8z" fill="#54686B"/></g></svg>