<svg class="icon" width="200" height="200" viewBox="0 0 1024 1024" version="1.1" xmlns="http://www.w3.org/2000/svg"><title>11</title><g class="nc-icon-wrapper"><path d="M618.9 567.6L416.7 725.1c-5.7 4.5-2.6 13.7 4.7 13.7h101.8c8.5 0 13.8 9.4 9.3 16.6l-79.2 128.5c-1.5 2.5 1.6 5.1 3.8 3.2l210.1-183.2c6.8-5.9 2.6-17.1-6.4-17.1h-94.6c-8.3 0-13.3-9.2-8.7-16.2l65.2-99.6c1.4-2.4-1.5-5.2-3.8-3.4z" fill="#F7F706"/><path d="M724.9 260.6c-29.9 0-58.1 7-83.2 19.5-37.8-97-132-165.7-242.3-165.7-143.6 0-260 116.4-260 260s116.4 260 260 260h325.5c103.3 0 187-83.7 187-186.9s-83.7-186.9-187-186.9z" fill="#90E6F4"/><path d="M399.4 643.7c-62.3 0-123-21.8-170.9-61.4-3.5-2.9-4-8.1-1.1-11.6s8.1-4 11.6-1.1c45 37.2 102 57.6 160.5 57.6 4.5 0 8.2 3.7 8.2 8.2-.1 4.6-3.7 8.3-8.3 8.3zm148.1-125.5c-3.4 0-6.6-2.1-7.7-5.5-7.3-20.8-11-42.5-11-64.6 0-72.6 39.2-137.9 102.7-172.2-39.8-93.3-130.1-153.2-232.1-153.2-59.9 0-117.9 21.3-163.4 60.1-3.5 2.9-8.6 2.5-11.6-.9-2.9-3.5-2.5-8.6.9-11.6 48.5-41.3 110.3-64 174.1-64 111.2 0 209.4 66.9 250.1 170.5l2.8 7-6.8 3.3c-61.9 30.4-100.3 92.1-100.3 160.9 0 20.2 3.4 40.1 10.1 59.2 1.5 4.3-.8 9-5 10.5-1 .3-1.9.5-2.8.5z" fill="#54686B"/><path d="M724.5 643.7c-4.5 0-8.2-3.7-8.2-8.2 0-4.5 3.7-8.2 8.2-8.2 98.8 0 179.2-80.4 179.2-179.2s-80.4-179.2-179.2-179.2c-27.6 0-54.2 6.2-78.9 18.3-4.1 2-9 .3-11-3.8s-.3-9 3.8-11c27-13.3 56-20 86.1-20 107.9 0 195.6 87.8 195.6 195.7s-87.8 195.6-195.6 195.6z" fill="#54686B"/><path d="M724.5 643.7h-60.1c-4.5 0-8.2-3.7-8.2-8.2 0-4.5 3.7-8.2 8.2-8.2h60.1c4.5 0 8.2 3.7 8.2 8.2 0 4.5-3.7 8.2-8.2 8.2zm-252.3 0h-72.8c-4.5 0-8.2-3.7-8.2-8.2 0-4.5 3.7-8.2 8.2-8.2h72.8c4.5 0 8.2 3.7 8.2 8.2 0 4.5-3.6 8.2-8.2 8.2z" fill="#54686B"/><path d="M383.5 834c0 39.2-31.8 71-71 71s-71-31.8-71-71 31.8-119.1 71-119.1 71 79.9 71 119.1zm459.1 0c0 39.2-31.8 71-71 71s-71-31.8-71-71 31.8-119.1 71-119.1 71 79.9 71 119.1z" fill="#90E6F4"/><path d="M597.8 772.5c-2.3 0-4.6-1-6.2-2.8-3-3.4-2.6-8.6.8-11.6l69.3-60.4c.2-.2.8-.7.4-1.7s-1.1-1-1.4-1h-94.6c-6.9 0-13.2-3.8-16.4-9.8-3.3-6-3-13.4.8-19.1l13.2-20.2c2.5-3.8 7.6-4.8 11.4-2.4 3.8 2.5 4.9 7.6 2.4 11.4l-13.2 20.2c-.6.9-.4 1.8-.1 2.3.3.5.9 1.2 2 1.2h94.6c7.6 0 14.2 4.6 16.8 11.6 2.7 7.1.7 14.9-5 19.8l-69.3 60.4c-1.6 1.4-3.5 2.1-5.5 2.1z" fill="#685E2C"/></g></svg>