<svg class="icon" width="200" height="200" viewBox="0 0 1024 1024" version="1.1" xmlns="http://www.w3.org/2000/svg"><title>13</title><g class="nc-icon-wrapper"><path d="M721.5 237.8c-30.3 0-58.9 7.1-84.4 19.8-38.3-98.3-133.9-168-245.8-168-145.7 0-263.7 118.1-263.7 263.7C127.6 499 245.7 617 391.3 617h330.1C826.1 617 911 532.1 911 427.4c.1-104.7-84.8-189.6-189.5-189.6z" fill="#90E6F4"/><path d="M392 625.4c-63.2 0-124.7-22.1-173.4-62.2-3.5-2.9-4-8.2-1.1-11.7 2.9-3.6 8.2-4 11.7-1.1 45.7 37.7 103.5 58.4 162.8 58.4 4.6 0 8.3 3.7 8.3 8.3 0 4.6-3.7 8.3-8.3 8.3zm150.1-127.3c-3.4 0-6.7-2.1-7.9-5.6-7.4-21.1-11.1-43.2-11.1-65.5 0-73.7 39.7-139.9 104.2-174.6C586.9 157.7 495.4 97 392 97c-60.7 0-119.6 21.6-165.7 60.9-3.5 3-8.7 2.6-11.7-1-3-3.5-2.6-8.8 1-11.7 49.2-41.8 111.9-64.9 176.5-64.9 112.8 0 212.4 67.9 253.7 172.9l2.8 7.1-6.9 3.4c-62.8 30.8-101.8 93.4-101.8 163.2 0 20.5 3.4 40.7 10.2 60 1.5 4.3-.8 9.1-5.1 10.6-1 .5-2 .6-2.9.6z" fill="#54686B"/><path d="M721.6 625.4c-4.6 0-8.3-3.7-8.3-8.3 0-4.6 3.7-8.3 8.3-8.3 100.2 0 181.8-81.5 181.8-181.8s-81.5-181.8-181.8-181.8c-28 0-55 6.2-80 18.5-4.1 2-9.1.3-11.1-3.8s-.3-9.1 3.8-11.1c27.4-13.4 56.8-20.3 87.4-20.3C831 228.6 920 317.6 920 427s-89 198.4-198.4 198.4z" fill="#54686B"/><path d="M721.6 625.4h-60.9c-4.6 0-8.3-3.7-8.3-8.3 0-4.6 3.7-8.3 8.3-8.3h60.9c4.6 0 8.3 3.7 8.3 8.3 0 4.6-3.7 8.3-8.3 8.3zm-255.8 0H392c-4.6 0-8.3-3.7-8.3-8.3 0-4.6 3.7-8.3 8.3-8.3h73.8c4.6 0 8.3 3.7 8.3 8.3 0 4.6-3.7 8.3-8.3 8.3z" fill="#54686B"/><path d="M661.5 826.5c0 58.9-47.7 106.6-106.6 106.6-58.9 0-106.6-47.7-106.6-106.6 0-58.9 47.7-178.9 106.6-178.9 58.9.1 106.6 120.1 106.6 178.9z" fill="#90E6F4"/><path d="M602.5 930.2c-3.1 0-6-1.7-7.5-4.6-2.1-4.1-.4-9.1 3.7-11.2 33.5-16.8 54.4-50.4 54.4-87.9 0-56.2-45.5-170.5-98.2-170.5-19.9 0-37.3 17.2-48.4 31.6-2.8 3.6-8.1 4.3-11.7 1.5-3.6-2.8-4.3-8-1.5-11.7 19.2-24.9 40.5-38.1 61.6-38.1 65.2 0 114.9 124.8 114.9 187.2 0 43.8-24.4 83.2-63.6 102.8-1.2.7-2.5.9-3.7.9z" fill="#54686B"/></g></svg>