<svg class="icon" width="200" height="200" viewBox="0 0 1024 1024" version="1.1" xmlns="http://www.w3.org/2000/svg"><title>0</title><g class="nc-icon-wrapper"><path d="M886.1 506.4c0 212.4-172.2 384.6-384.6 384.6-212.4 0-384.6-172.2-384.6-384.6 0-212.4 172.2-384.6 384.6-384.6 212.4 0 384.6 172.2 384.6 384.6z" fill="#FCC208"/><path d="M501.5 903.1c-77.7 0-152.9-22.5-217.6-64.9-5.6-3.7-7.1-11.2-3.5-16.7 3.7-5.6 11.2-7.1 16.7-3.5 60.7 39.9 131.4 61 204.3 61 205.4 0 372.5-167.1 372.5-372.5 0-72.2-20.7-142.2-59.7-202.4-3.6-5.6-2-13.1 3.6-16.7 5.6-3.6 13.1-2 16.7 3.6 41.6 64.2 63.6 138.7 63.6 215.6.1 218.6-177.8 396.5-396.6 396.5z" fill="#705B57"/></g></svg>