<svg class="icon" width="200" height="200" viewBox="0 0 1024 1024" version="1.1" xmlns="http://www.w3.org/2000/svg"><title>22</title><g class="nc-icon-wrapper"><path d="M815.2 220.6L407.6 96.9l-311 291.2L193.2 803l407.7 123.7 311-291.1z" fill="#B6D2E0"/><path d="M363.1 866.5L189.9 814c-3.9-1.2-6.9-4.4-7.8-8.4l-14.8-63.3c-1.4-6.2 2.4-12.3 8.6-13.8 6.2-1.5 12.4 2.4 13.8 8.6L203 794l166.9 50.7c6.1 1.8 9.5 8.2 7.6 14.3-1.9 6-8.3 9.4-14.4 7.5z" fill="#276868"/><path d="M854.1 672.7c-3.6-1.1-6.6-4-7.7-7.9L835 624.2 500.9 522.8c-6.1-1.8-9.5-8.2-7.6-14.3 1.8-6.1 8.2-9.5 14.3-7.6l340.1 103.2c3.7 1.1 6.7 4.1 7.7 7.9l13.1 46.6c1.7 6.1-1.9 12.4-8 14.1-2.1.6-4.3.6-6.4 0z" fill="#FFF"/><path d="M841.1 626c-1.8-.6-3.5-1.5-4.9-3-4.4-4.6-4.3-11.8.3-16.2l38.5-37.2c4.5-4.4 11.8-4.3 16.2.3 4.4 4.6 4.3 11.8-.3 16.2l-38.5 37.2c-3.1 3-7.5 3.9-11.3 2.7zm-79.3 80.8l-62.7-19c-3.9-1.2-6.9-4.4-7.8-8.4L665 566.6c-1.4-6.2 2.4-12.3 8.6-13.8 6.2-1.4 12.4 2.4 13.8 8.6l24.8 106.4 56.4 17.1c6.1 1.8 9.5 8.2 7.6 14.3-1.9 6-8.3 9.5-14.4 7.6z" fill="#FFF"/><path d="M672.8 575c-1.9-.6-3.6-1.6-5-3.1-4.3-4.6-4.1-11.9.5-16.2l84.5-79.2c3-2.8 7.2-3.8 11.2-2.6l62.7 19c6.1 1.8 9.5 8.2 7.6 14.3-1.8 6.1-8.2 9.5-14.3 7.6l-56.4-17.1-79.6 74.7c-3.1 2.9-7.4 3.7-11.2 2.6zm-171.9-52.2c-1.9-.6-3.6-1.6-5-3.1-4.3-4.6-4.1-11.9.5-16.2l259.5-243c2.8-2.7 6.9-3.7 10.7-2.7l46.9 12c7.1 1.4 9.8 7.8 8.3 14-1.6 6.1-7.8 9.8-14 8.3L767 281.5 512.1 520.2c-3.1 2.9-7.4 3.7-11.2 2.6z" fill="#FFF"/><path d="M763.2 280.7c-3.7-1.1-6.8-4.1-7.8-8.2l-13-52c-1.6-6.1 2.2-12.4 8.3-13.9 6.1-1.6 12.4 2.2 13.9 8.3l13 52c1.6 6.1-2.2 12.4-8.3 13.9-2 .6-4.2.5-6.1-.1z" fill="#FFF"/><path d="M820 729.5c-1.9-.6-3.6-1.6-5-3.1-4.3-4.6-4.1-11.9.5-16.2l83.7-78.4-93.7-402-191-58c-6.1-1.8-9.5-8.2-7.6-14.3 1.8-6.1 8.2-9.5 14.3-7.6l197.4 59.9c3.9 1.2 6.9 4.4 7.8 8.4L923.1 633c.9 4-.3 8.2-3.3 11l-88.6 82.9c-3.1 2.9-7.4 3.7-11.2 2.6z" fill="#276868"/><path d="M745.7 434.5l-110.8-33.6c-6.1-1.8-9.5-8.2-7.6-14.3 1.8-6.1 8.2-9.5 14.3-7.6L746 410.7l43-40.3c4.6-4.3 11.9-4.1 16.2.5 4.3 4.6 4.1 11.9-.5 16.2l-47.9 44.8c-2.9 2.8-7.2 3.8-11.1 2.6z" fill="#FFF"/><path d="M634.8 400.9c-3.8-1.1-6.9-4.2-7.8-8.4l-26.3-112.8c-.9-4 .3-8.2 3.3-11l47.9-44.8c4.6-4.3 11.9-4.1 16.2.5 4.3 4.6 4.1 11.9-.5 16.2l-43 40.3 24.8 106.4c1.4 6.2-2.4 12.3-8.6 13.8-2.1.4-4.1.3-6-.2zM500.9 522.8c-3.8-1.1-6.9-4.2-7.8-8.4l-80.7-346.2c-.9-3.8.2-7.8 3-10.6l33.9-34.6c4.4-4.5 11.8-4.6 16.2-.2 4.5 4.4 4.6 11.7.2 16.2l-29.5 30.1 79.2 340.1c1.4 6.2-2.4 12.3-8.6 13.8-2 .5-4 .4-5.9-.2z" fill="#FFF"/><path d="M371.4 159.4c-6-1.8-9.4-8.1-7.7-14.1 1.8-6.1 8.1-9.6 14.2-7.9l51.5 14.7c6.6 1.6 9.6 8.1 7.9 14.2-1.8 6.1-8.1 9.6-14.2 7.9l-51.5-14.7c-.1-.1-.1-.1-.2-.1zm91.4 186c-1.9-.6-3.6-1.6-5-3.1-4.3-4.6-4.1-11.9.5-16.2l79.7-74.7-13.4-57.4c-1.4-6.2 2.4-12.3 8.6-13.8 6.2-1.4 12.3 2.4 13.8 8.6l14.9 63.8c.9 4-.3 8.2-3.3 11L474 342.8c-3.1 2.9-7.4 3.7-11.2 2.6z" fill="#FFF"/><path d="M462.8 345.4L352 311.7c-3.9-1.2-6.9-4.4-7.8-8.4l-14.9-63.9c-1.4-6.2 2.4-12.3 8.6-13.8 6.1-1.4 12.3 2.4 13.8 8.6l13.4 57.4 104.5 31.7c6.1 1.8 9.5 8.2 7.6 14.3s-8.3 9.6-14.4 7.8z" fill="#FFF"/></g></svg>