<svg class="icon" width="200" height="200" viewBox="0 0 1024 1024" version="1.1" xmlns="http://www.w3.org/2000/svg"><title>26</title><g class="nc-icon-wrapper"><path d="M903.1 587H682.8c-10 0-18.2-8.1-18.2-18.2 0-10 8.1-18.2 18.2-18.2h58.7c22.1 0 40.3-18.1 40.3-40.3 0-22.1-18.1-40.3-40.3-40.3h-150c-10 0-18.2-8.1-18.2-18.2 0-10 8.1-18.2 18.2-18.2h319.9c22.1 0 40.3-18.1 40.3-40.3 0-22.1-18.1-40.3-40.3-40.3H777.6c-10 0-18.2-8.1-18.2-18.2s8.1-18.2 18.2-18.2h17c22.1 0 40.3-18.1 40.3-40.3S816.8 236 794.6 236H350.3c-22.1 0-40.3 18.1-40.3 40.3s18.1 40.3 40.3 40.3h145.8c10 0 18.2 8.1 18.2 18.2s-8.1 18.2-18.2 18.2h-218c-22.1 0-40.3 18.1-40.3 40.3 0 22.1 18.1 40.3 40.3 40.3H310c10 0 18.2 8.1 18.2 18.2 0 10-8.1 18.2-18.2 18.2H112.9c-22.1 0-40.3 18.1-40.3 40.3 0 22.1 18.1 40.3 40.3 40.3h436.8c10 0 18.2 8.1 18.2 18.2 0 10-8.1 18.2-18.2 18.2H401.6c-22.1 0-40.3 18.1-40.3 40.3s18.1 40.3 40.3 40.3h43.2c10 0 18.2 8.1 18.2 18.2 0 10-8.1 18.2-18.2 18.2H327.6c-22.1 0-40.3 18.1-40.3 40.3 0 22.1 18.1 40.3 40.3 40.3h313.1c22.1 0 40.3-18.1 40.3-40.3 0-22.1-18.1-40.3-40.3-40.3h-15.2c-10 0-18.2-8.1-18.2-18.2 0-10 8.1-18.2 18.2-18.2h277.6c22.1 0 40.3-18.1 40.3-40.3S925.3 587 903.1 587z" fill="#B5E2D7"/><path d="M911.5 441.3H787.1c-4.2 0-7.6-3.4-7.6-7.6s3.4-7.6 7.6-7.6h124.3c18 0 32.6-14.6 32.6-32.6s-14.6-32.6-32.6-32.6H777.6c-14.2 0-25.8-11.6-25.8-25.8s11.6-25.8 25.8-25.8h17c18 0 32.6-14.6 32.6-32.6s-14.6-32.6-32.6-32.6H406c-4.2 0-7.6-3.4-7.6-7.6 0-4.2 3.4-7.6 7.6-7.6h388.5c26.4 0 47.9 21.5 47.9 47.9s-21.5 47.9-47.9 47.9h-17c-5.8 0-10.6 4.7-10.6 10.6 0 5.8 4.7 10.6 10.6 10.6h133.9c26.4 0 47.9 21.5 47.9 47.9s-21.4 47.5-47.8 47.5zM640.7 792H488.9c-4.2 0-7.6-3.4-7.6-7.6 0-4.2 3.4-7.6 7.6-7.6h151.8c18 0 32.6-14.6 32.6-32.6s-14.6-32.6-32.6-32.6h-15.2c-14.2 0-25.8-11.6-25.8-25.8s11.6-25.8 25.8-25.8h277.6c18 0 32.6-14.6 32.6-32.6s-14.6-32.6-32.6-32.6H715.5c-4.2 0-7.6-3.4-7.6-7.6s3.4-7.6 7.6-7.6h187.6c26.4 0 47.9 21.5 47.9 47.9s-21.5 47.9-47.9 47.9H625.5c-5.8 0-10.6 4.7-10.6 10.6 0 5.8 4.7 10.6 10.6 10.6h15.2c26.4 0 47.9 21.5 47.9 47.9 0 26-21.5 47.5-47.9 47.5zm-435-233.8H113c-26.4 0-47.9-21.5-47.9-47.9 0-4.2 3.4-7.6 7.6-7.6s7.6 3.4 7.6 7.6c0 18 14.6 32.6 32.6 32.6h92.7c4.2 0 7.6 3.4 7.6 7.6.1 4.3-3.3 7.7-7.5 7.7z" fill="#617275"/><path d="M237.29999999999998 622.5a34.9 34.9 0 1 0 69.8 0 34.9 34.9 0 1 0-69.8 0z" fill="#B5E2D7"/><path d="M832.4000000000001 519.5a29.8 29.8 0 1 0 59.6 0 29.8 29.8 0 1 0-59.6 0z" fill="#B5E2D7"/></g></svg>