<svg class="icon" width="200" height="200" viewBox="0 0 1024 1024" version="1.1" xmlns="http://www.w3.org/2000/svg"><title>5</title><g class="nc-icon-wrapper"><path d="M456.00000000000006 411.2a251.7 251.7 0 1 0 503.4 0 251.7 251.7 0 1 0-503.4 0z" fill="#FFCF06"/><path d="M733.3 419.1c-34.2 0-66.4 8.1-95 22.3C595.1 330.6 487.5 252 361.4 252 197.3 252 64.3 385 64.3 549.1c0 164.1 133 297.1 297.1 297.1h372c118 0 213.6-95.6 213.6-213.6-.1-117.8-95.7-213.5-213.7-213.5z" fill="#90E6F4"/><path d="M362 855.9c-87.8 0-171.6-37.7-229.9-103.5-3.4-3.9-3.1-9.8.8-13.3 3.9-3.5 9.8-3.1 13.3.8 54.7 61.8 133.4 97.2 215.8 97.2 5.2 0 9.4 4.2 9.4 9.4s-4.2 9.4-9.4 9.4zm169.2-143.5c-3.9 0-7.5-2.4-8.9-6.3-8.3-23.8-12.5-48.6-12.5-73.8 0-83 44.7-157.6 117.3-196.7C581.6 328.9 478.5 260.5 362 260.5c-41 0-80.7 8.5-117.9 25.1-4.7 2.1-10.3 0-12.4-4.7-2.1-4.7 0-10.3 4.7-12.4 39.6-17.8 81.9-26.8 125.6-26.8 127.1 0 239.3 76.5 285.9 194.9l3.2 8.1-7.8 3.8c-70.7 34.7-114.7 105.2-114.7 183.9 0 23.1 3.9 45.8 11.5 67.6 1.7 4.9-.9 10.3-5.8 12-1 .3-2.1.4-3.1.4z" fill="#54686B"/><path d="M733.4 855.9c-5.2 0-9.4-4.2-9.4-9.4s4.2-9.4 9.4-9.4c112.9 0 204.8-91.9 204.8-204.8s-91.9-204.8-204.8-204.8c-31.6 0-61.9 7-90.1 20.9-4.7 2.2-10.3.3-12.6-4.3-2.3-4.7-.3-10.3 4.3-12.6 30.8-15.1 64-22.8 98.4-22.8C856.7 408.7 957 509 957 632.3S856.6 855.9 733.4 855.9z" fill="#54686B"/><path d="M733.4 855.9h-46.5c-5.2 0-9.4-4.2-9.4-9.4s4.2-9.4 9.4-9.4h46.5c5.2 0 9.4 4.2 9.4 9.4s-4.2 9.4-9.4 9.4zm-328.1 0H362c-5.2 0-9.4-4.2-9.4-9.4s4.2-9.4 9.4-9.4h43.4c5.2 0 9.4 4.2 9.4 9.4s-4.3 9.4-9.5 9.4z" fill="#54686B"/></g></svg>