<svg class="icon" width="200" height="200" viewBox="0 0 1024 1024" version="1.1" xmlns="http://www.w3.org/2000/svg"><title>19</title><g class="nc-icon-wrapper"><path d="M714.2 699.5l-141-41.7L466.6 759 501 902l140.9 41.7 106.7-101.2z" fill="#BDD3D6"/><path d="M366.6 781.8c0 38.8-31.4 70.2-70.2 70.2-38.8 0-70.2-31.4-70.2-70.2 0-38.8 31.4-117.8 70.2-117.8 38.7-.1 70.2 79 70.2 117.8zm337.6-518.3c-29.5 0-57.5 7-82.2 19.3C584.6 186.9 491.5 119 382.4 119c-142 0-257.1 115.1-257.1 257.1s115.1 257.1 257.1 257.1h321.9c102.1 0 184.9-82.8 184.9-184.9-.2-102.1-83-184.8-185-184.8z" fill="#90E6F4"/><path d="M382.3 642.3c-61.6 0-121.6-21.6-169-60.7-3.5-2.9-3.9-8-1.1-11.4 2.9-3.5 8-4 11.4-1.1 44.5 36.7 100.9 57 158.7 57 4.5 0 8.1 3.6 8.1 8.1 0 4.4-3.6 8.1-8.1 8.1zm146.4-124.2c-3.4 0-6.5-2.1-7.7-5.4-7.2-20.6-10.9-42.1-10.9-63.9 0-71.8 38.7-136.4 101.5-170.2C572.4 186.3 483.1 127 382.3 127c-59.2 0-116.6 21.1-161.6 59.4-3.4 2.9-8.5 2.5-11.4-.9-2.9-3.4-2.5-8.5.9-11.4 47.9-40.8 109.1-63.3 172.1-63.3 110 0 207.1 66.2 247.3 168.6l2.7 7-6.7 3.3c-61.2 30.1-99.2 91-99.2 159.1 0 20 3.3 39.7 9.9 58.5 1.5 4.2-.8 8.9-5 10.3-.8.4-1.7.5-2.6.5z" fill="#54686B"/><path d="M703.7 642.3c-4.5 0-8.1-3.6-8.1-8.1s3.6-8.1 8.1-8.1c97.7 0 177.2-79.5 177.2-177.2s-79.5-177.2-177.2-177.2c-27.3 0-53.6 6.1-78 18.1-4 2-8.9.3-10.9-3.7s-.3-8.9 3.7-10.9c26.7-13.1 55.3-19.7 85.2-19.7 106.7 0 193.5 86.8 193.5 193.5s-86.9 193.3-193.5 193.3z" fill="#54686B"/><path d="M703.7 642.3h-59.4c-4.5 0-8.1-3.6-8.1-8.1s3.6-8.1 8.1-8.1h59.4c4.5 0 8.1 3.6 8.1 8.1 0 4.4-3.6 8.1-8.1 8.1zm-249.4 0h-72c-4.5 0-8.1-3.6-8.1-8.1s3.6-8.1 8.1-8.1h72c4.5 0 8.1 3.6 8.1 8.1 0 4.4-3.6 8.1-8.1 8.1z" fill="#54686B"/><path d="M707 846.2c-1.8 0-3.4-1.2-3.9-2.9l-3.1-10.9-93.5-27.7c-2.1-.6-3.4-2.9-2.7-5 .6-2.1 2.9-3.4 5-2.7l95.6 28.3c1.3.4 2.4 1.4 2.8 2.8l3.7 13c.6 2.1-.6 4.4-2.8 5-.4 0-.7.1-1.1.1z" fill="#FFF"/><path d="M703.2 833.1c-1.1 0-2.1-.4-2.9-1.2-1.6-1.6-1.5-4.2.1-5.7l10.7-10.5c1.6-1.6 4.2-1.5 5.7.1 1.6 1.6 1.5 4.2-.1 5.7L706.1 832c-.8.7-1.8 1.1-2.9 1.1zm-22.1 22.8c-.4 0-.8-.1-1.1-.2l-17.6-5.2c-1.4-.4-2.5-1.5-2.8-2.9L652 816c-.5-2.2.8-4.4 3-4.9 2.3-.5 4.4.8 4.9 3l7 29.3 15.4 4.6c2.2.6 3.4 2.9 2.7 5-.5 1.8-2.1 2.9-3.9 2.9z" fill="#FFF"/><path d="M655.9 819.1c-1.1 0-2.1-.4-2.9-1.3-1.5-1.6-1.5-4.2.1-5.7l23.6-22.4c1.1-1 2.6-1.4 3.9-1l17.6 5.2c2.2.6 3.4 2.9 2.7 5-.6 2.2-2.9 3.4-5 2.7l-15.4-4.6-21.8 21c-.8.7-1.8 1.1-2.8 1.1zm-48.3-14.3c-1.1 0-2.1-.4-2.9-1.3-1.5-1.6-1.5-4.2.1-5.7l72.3-68.7c1-1 2.4-1.3 3.8-1l13.2 3.3c2.2.5 3.5 2.7 3 4.9s-2.8 3.4-4.9 3l-11-2.7-70.7 67.1c-.9.7-1.9 1.1-2.9 1.1z" fill="#FFF"/><path d="M680.7 736.4c-1.8 0-3.5-1.2-3.9-3l-3.7-14.5c-.6-2.2.8-4.4 2.9-4.9 2.2-.6 4.4.8 4.9 2.9l3.7 14.5c.6 2.2-.8 4.4-2.9 4.9-.3 0-.6.1-1 .1zm-4.6 43.2c-.4 0-.8-.1-1.1-.2l-31.2-9.2c-2.1-.6-3.4-2.9-2.7-5 .6-2.1 2.9-3.3 5-2.7l28.9 8.6 11.6-11c1.6-1.5 4.2-1.5 5.7.2 1.5 1.6 1.5 4.2-.2 5.7l-13.3 12.7c-.7.5-1.7.9-2.7.9z" fill="#FFF"/><path d="M644.9 770.3c-1.8 0-3.5-1.3-3.9-3.1l-7.6-31.6c-.3-1.4.1-2.9 1.2-3.9l13.3-12.7c1.6-1.5 4.2-1.5 5.7.2 1.5 1.6 1.5 4.2-.2 5.7L641.8 736l7 29.3c.5 2.2-.8 4.4-3 4.9-.2.1-.6.1-.9.1zm-37.3 34.5c-1.8 0-3.5-1.3-3.9-3.1l-23.3-97c-.3-1.3.1-2.8 1-3.8l9.4-9.8c1.6-1.6 4.1-1.6 5.7-.1 1.6 1.6 1.7 4.1.1 5.7l-7.9 8.2 22.8 94.8c.5 2.2-.8 4.4-3 4.9-.3.2-.6.2-.9.2z" fill="#FFF"/><path d="M585 707.1c-.4 0-.7 0-1.1-.2l-14.5-4c-2.2-.6-3.4-2.8-2.8-5s2.9-3.4 5-2.8l14.5 4c2.2.6 3.4 2.8 2.8 5-.5 1.8-2.1 3-3.9 3zm11.6 48c-1.1 0-2.1-.4-2.9-1.3-1.5-1.6-1.5-4.2.2-5.7l21.9-20.8-3.7-15.6c-.5-2.2.8-4.4 3-4.9 2.2-.6 4.4.8 4.9 3l4.3 17.9c.3 1.4-.1 2.9-1.2 3.9L599.3 754c-.7.7-1.7 1.1-2.7 1.1z" fill="#FFF"/><path d="M596.6 755.1c-.4 0-.8-.1-1.1-.2l-31.2-9.2c-1.4-.4-2.5-1.5-2.8-2.9l-4.3-17.9c-.5-2.2.8-4.4 3-4.9s4.4.8 4.9 3l3.7 15.6 28.9 8.6c2.1.6 3.4 2.9 2.7 5-.5 1.8-2.1 2.9-3.8 2.9zm11 49.7c-.4 0-.8-.1-1.1-.2l-95.6-28.3c-1.3-.4-2.4-1.4-2.8-2.8l-3.7-13.1c-.6-2.1.6-4.4 2.8-5 2.1-.6 4.4.6 5 2.8l3.1 10.9 93.5 27.7c2.1.6 3.4 2.9 2.7 5-.5 1.9-2.2 3-3.9 3z" fill="#FFF"/><path d="M501.2 787c-1.1 0-2.1-.4-2.9-1.2-1.6-1.6-1.5-4.2.1-5.7l10.7-10.5c1.6-1.5 4.2-1.5 5.7.1 1.6 1.6 1.5 4.2-.1 5.7L504 785.9c-.7.7-1.8 1.1-2.8 1.1zm58.1 3.5c-1.8 0-3.5-1.3-3.9-3.1l-7-29.3-15.4-4.6c-2.1-.6-3.4-2.9-2.7-5s2.9-3.4 5-2.7l17.6 5.2c1.4.4 2.5 1.5 2.8 2.9l7.6 31.6c.5 2.2-.8 4.4-3 4.9-.4.1-.7.1-1 .1z" fill="#FFF"/><path d="M535.7 812.9c-.4 0-.8-.1-1.1-.2l-17.6-5.2c-2.1-.6-3.4-2.9-2.7-5 .6-2.1 2.9-3.4 5-2.7l15.4 4.6 21.9-20.8c1.6-1.5 4.2-1.5 5.7.2 1.5 1.6 1.5 4.2-.2 5.7l-23.6 22.4c-.8.6-1.8 1-2.8 1zm-.4 60.6c-.3 0-.7 0-1-.1l-13.2-3.3c-2.2-.5-3.5-2.7-3-4.9s2.7-3.5 4.9-3l11 2.7 70.7-67.1c1.6-1.5 4.2-1.5 5.7.1s1.5 4.2-.1 5.7L538 872.3c-.7.8-1.7 1.2-2.7 1.2z" fill="#FFF"/><path d="M538.2 887.8c-1.8 0-3.5-1.2-3.9-3l-3.7-14.5c-.6-2.2.8-4.4 2.9-4.9 2.2-.5 4.4.7 4.9 2.9l3.7 14.5c.6 2.2-.8 4.4-2.9 4.9-.3.1-.7.1-1 .1zm-12.5-45.1c-1.1 0-2.1-.4-2.9-1.3-1.5-1.6-1.5-4.2.1-5.7l13.3-12.7c1.1-1 2.6-1.4 3.9-1l31.2 9.2c2.2.6 3.4 2.9 2.7 5-.6 2.2-2.9 3.4-5 2.7l-28.9-8.6-11.6 11.1c-.8.9-1.8 1.3-2.8 1.3z" fill="#FFF"/><path d="M564.5 883.5c-1.1 0-2.1-.4-2.9-1.3-1.5-1.6-1.5-4.2.1-5.7l11.6-11.1-7-29.3c-.5-2.2.8-4.4 3-4.9 2.3-.5 4.4.8 4.9 3l7.6 31.6c.3 1.4-.1 2.9-1.1 3.9l-13.3 12.7c-.9.8-1.9 1.1-2.9 1.1zm57 28.1c-1 0-2-.4-2.8-1.1-1.6-1.6-1.7-4.1-.1-5.7l7.9-8.2-22.8-94.8c-.5-2.2.8-4.4 3-4.9 2.3-.5 4.4.8 4.9 3l23.3 97c.3 1.3-.1 2.8-1 3.8l-9.4 9.8c-.9.7-2 1.1-3 1.1z" fill="#FFF"/><path d="M644.6 906.5c-.4 0-.7 0-1.1-.2l-14.5-4c-2.2-.6-3.4-2.8-2.8-5s2.9-3.4 5-2.8l14.5 4c2.2.6 3.4 2.8 2.8 5-.5 1.9-2.1 3-3.9 3zm-45.3-11.7c-1.8 0-3.5-1.3-3.9-3.1l-4.3-17.9c-.3-1.4.1-2.9 1.2-3.9l23.6-22.4c1.6-1.5 4.2-1.5 5.7.2 1.5 1.6 1.5 4.2-.2 5.7l-21.9 20.8 3.7 15.6c.5 2.2-.8 4.4-3 4.9-.2 0-.5.1-.9.1z" fill="#FFF"/><path d="M654.1 881.6c-1.8 0-3.5-1.3-3.9-3.1l-3.7-15.6-28.9-8.6c-2.2-.6-3.4-2.9-2.7-5 .6-2.1 2.9-3.4 5-2.7l31.2 9.2c1.4.4 2.5 1.5 2.8 2.9l4.3 17.9c.5 2.2-.8 4.4-3 4.9-.5.1-.8.1-1.1.1z" fill="#FFF"/></g></svg>