<svg class="icon" width="200" height="200" viewBox="0 0 1024 1024" version="1.1" xmlns="http://www.w3.org/2000/svg"><title>28</title><g class="nc-icon-wrapper"><path d="M907 546.5H726.2c-21 0-38.1-17.1-38.1-38.1s17.1-38.1 38.1-38.1h22c24.2 0 44.1-19.8 44.1-44.1 0-24.2-19.8-44.1-44.1-44.1H611.4c-21 0-38.1-17.1-38.1-38.1s17.1-38.1 38.1-38.1h181.5c24.2 0 44.1-19.8 44.1-44.1s-19.8-44.1-44.1-44.1H265.5c-24.2 0-44.1 19.8-44.1 44.1s19.8 44.1 44.1 44.1h70c21 0 38.1 17.1 38.1 38.1s-17.1 38.1-38.1 38.1H108.1C83.8 382.2 64 402 64 426.3c0 24.2 19.8 44.1 44.1 44.1h353.8c21 0 38.1 17.1 38.1 38.1s-17.1 38.1-38.1 38.1h-269c-24.2 0-44.1 19.8-44.1 44.1s19.8 44.1 44.1 44.1h105.6c21 0 38.1 17.1 38.1 38.1S319.5 711 298.5 711h-77.8c-24.2 0-44.1 19.8-44.1 44.1s19.8 44.1 44.1 44.1h396.5c24.2 0 44.1-19.8 44.1-44.1S641.5 711 617.2 711h-45.9c-21 0-38.1-17.1-38.1-38.1s17.1-38.1 38.1-38.1H907c24.2 0 44.1-19.8 44.1-44.1s-19.9-44.2-44.1-44.2z" fill="#B7AC91"/><path d="M617.3 807.3h-40.2c-4.6 0-8.3-3.7-8.3-8.3s3.7-8.3 8.3-8.3h40.2c19.7 0 35.8-16.1 35.8-35.8s-16.1-35.8-35.8-35.8h-45.9c-25.6 0-46.4-20.8-46.4-46.4s20.8-46.4 46.4-46.4H907c19.7 0 35.8-16.1 35.8-35.8 0-19.7-16.1-35.8-35.8-35.8H726.2c-25.6 0-46.4-20.8-46.4-46.4 0-25.6 20.8-46.4 46.4-46.4h22C768 462 784 446 784 426.3c0-19.7-16-35.8-35.8-35.8H611.5c-25.7 0-46.5-20.8-46.5-46.4 0-25.6 20.8-46.4 46.4-46.4h181.5c19.7 0 35.8-16.1 35.8-35.8s-16-35.8-35.8-35.8H363.4c-4.6 0-8.3-3.7-8.3-8.3s3.7-8.3 8.3-8.3H793c28.9 0 52.3 23.5 52.3 52.3s-23.5 52.3-52.3 52.3l-57-.1c-5.4.1-27.6.1-124.4.1-16.5 0-29.9 13.4-29.9 29.8 0 16.5 13.4 29.8 29.8 29.8h136.8c28.8 0 52.3 23.5 52.3 52.3s-23.5 52.3-52.3 52.3h-22c-16.4 0-29.8 13.4-29.8 29.8s13.4 29.8 29.8 29.8H907c28.9 0 52.3 23.5 52.3 52.3 0 28.9-23.5 52.3-52.3 52.3H571.4c-16.4 0-29.8 13.4-29.8 29.8s13.4 29.8 29.8 29.8h45.9c28.9 0 52.3 23.5 52.3 52.3s-23.4 52.9-52.3 52.9z" fill="#63625C"/><path d="M121.1 604.3L89.3 616l-26-21.7 5.8-33.4 31.8-11.6 26 21.6z" fill="#BFB89B"/></g></svg>