<svg class="icon" width="200" height="200" viewBox="0 0 1024 1024" version="1.1" xmlns="http://www.w3.org/2000/svg"><title>1</title><g class="nc-icon-wrapper"><path d="M603.9 195.7c7.1 29.8 10.7 60.9 10.4 93-1.7 170-118.8 318.8-280.9 370-36.5 11.5-72 16.8-106.4 17.1-40.3.4-61 47.4-35.2 78.3 79.6 95.5 203.8 152.5 340.7 138.6 181.7-18.4 329.1-165.3 348.1-346.9 18.1-173.2-77.1-326.2-220.4-394.7-30.1-14.4-64 12.3-56.3 44.6z" fill="#FFE700"/><path d="M492.1 907c-86.6 0-170.6-27.5-240.2-79.1-5.4-4-6.6-11.7-2.5-17.2 4.1-5.4 11.7-6.6 17.2-2.5 75.7 56.3 169.7 81.9 264.6 72.3 176.9-17.9 318.6-159.2 337.1-336C878.5 447 851.6 351 792.7 274c-4.1-5.4-3.1-13.1 2.3-17.2s13.1-3.1 17.2 2.3c62.8 82 91.4 184.2 80.6 288-19.7 188.3-170.6 338.8-359 357.9-14 1.3-27.9 2-41.7 2z" fill="#685E2C"/></g></svg>