<svg class="icon" width="200" height="200" viewBox="0 0 1024 1024" version="1.1" xmlns="http://www.w3.org/2000/svg"><title>38</title><g class="nc-icon-wrapper"><path d="M576.5 559.7V145c0-37.4-30.6-67.9-67.9-67.9s-67.9 30.6-67.9 67.9v412.7C362.1 584.9 305.6 659.3 305.6 747c0 110.6 89.7 200.3 200.3 200.3S706.2 857.6 706.2 747c0-85.7-53.9-158.7-129.7-187.3z" fill="#FF7E45"/><path d="M505.9 959.6c-65.5 0-126.3-29.5-166.9-80.9-4.2-5.3-3.3-13 2-17.2 5.3-4.2 13-3.2 17.2 2 35.9 45.5 89.8 71.6 147.7 71.6C609.6 935.1 694 850.7 694 747c0-77.7-49-148.4-121.8-175.8-4.8-1.8-7.9-6.4-7.9-11.4V145c0-30.7-25-55.7-55.7-55.7-30.7 0-55.7 25-55.7 55.7v28.1c0 6.8-5.5 12.2-12.2 12.2-6.8 0-12.2-5.5-12.2-12.2V145c0-44.2 36-80.2 80.2-80.2s80.2 36 80.2 80.2v406.4C666.7 584.5 718.5 662 718.5 747c0 117.2-95.4 212.6-212.6 212.6z" fill="#54686B"/><path d="M525.4 271.9h-65.3c-6.8 0-12.2-5.5-12.2-12.2 0-6.8 5.5-12.2 12.2-12.2h65.3c6.8 0 12.2 5.5 12.2 12.2 0 6.8-5.4 12.2-12.2 12.2zm0 52.7h-65.3c-6.8 0-12.2-5.5-12.2-12.2 0-6.8 5.5-12.2 12.2-12.2h65.3c6.8 0 12.2 5.5 12.2 12.2 0 6.7-5.4 12.2-12.2 12.2zm0 52.7h-65.3c-6.8 0-12.2-5.5-12.2-12.2 0-6.8 5.5-12.2 12.2-12.2h65.3c6.8 0 12.2 5.5 12.2 12.2 0 6.7-5.4 12.2-12.2 12.2zm0 52.6h-65.3c-6.8 0-12.2-5.5-12.2-12.2 0-6.8 5.5-12.2 12.2-12.2h65.3c6.8 0 12.2 5.5 12.2 12.2 0 6.7-5.4 12.2-12.2 12.2zm0 52.7h-65.3c-6.8 0-12.2-5.5-12.2-12.2 0-6.8 5.5-12.2 12.2-12.2h65.3c6.8 0 12.2 5.5 12.2 12.2 0 6.7-5.4 12.2-12.2 12.2zm0 52.6h-65.3c-6.8 0-12.2-5.5-12.2-12.2 0-6.8 5.5-12.2 12.2-12.2h65.3c6.8 0 12.2 5.5 12.2 12.2 0 6.8-5.4 12.2-12.2 12.2z" fill="#FFF"/></g></svg>