<svg class="icon" width="200" height="200" viewBox="0 0 1024 1024" version="1.1" xmlns="http://www.w3.org/2000/svg"><title>6</title><g class="nc-icon-wrapper"><path d="M720.8 190.9c5.4 22.8 8.2 46.7 8 71.3-1.3 130.3-91.1 244.4-215.4 283.7-28 8.8-55.2 12.8-81.5 13.1-30.9.3-46.8 36.3-27 60 61 73.2 156.2 116.9 261.2 106.2 139.3-14.1 252.3-126.7 266.8-266 13.9-132.8-59.1-250.1-169-302.6-23-10.9-49 9.6-43.1 34.3z" fill="#F2CB0C"/><path d="M733.1 418.9c-34.2 0-66.5 8.1-95.1 22.3-43.2-110.9-151-189.5-277.2-189.5-164.3 0-297.4 133.2-297.4 297.4 0 164.3 133.2 297.4 297.4 297.4h372.3c118.1 0 213.8-95.7 213.8-213.8 0-118.1-95.7-213.8-213.8-213.8z" fill="#90E6F4"/><path d="M361.4 856.1c-87.9 0-171.8-37.8-230.1-103.6-3.5-3.9-3.1-9.8.8-13.3 3.9-3.5 9.8-3.1 13.3.8 54.8 61.8 133.5 97.2 216 97.2 5.2 0 9.4 4.2 9.4 9.4s-4.2 9.5-9.4 9.5zm169.4-143.6c-3.9 0-7.5-2.4-8.9-6.3-8.3-23.8-12.6-48.7-12.6-73.9 0-83.1 44.8-157.7 117.4-196.9C581.3 328.6 478 260.1 361.4 260.1c-41.1 0-80.8 8.5-118 25.1-4.8 2.1-10.3 0-12.4-4.7-2.1-4.7 0-10.3 4.7-12.4 39.6-17.8 81.9-26.8 125.7-26.8 127.2 0 239.6 76.6 286.1 195l3.2 8.1-7.8 3.8C572.1 483 528.1 553.5 528.1 632.3c0 23.1 3.9 45.9 11.5 67.7 1.7 4.9-.9 10.3-5.8 12-1 .3-2 .5-3 .5z" fill="#54686B"/><path d="M733.1 856.1c-5.2 0-9.4-4.2-9.4-9.4s4.2-9.4 9.4-9.4c113 0 205-92 205-205s-92-205-205-205c-31.6 0-62 7-90.2 20.9-4.7 2.3-10.3.4-12.6-4.3-2.3-4.7-.4-10.3 4.3-12.6 30.9-15.2 64-22.8 98.5-22.8 123.4 0 223.8 100.4 223.8 223.8S856.5 856.1 733.1 856.1z" fill="#54686B"/><path d="M733.1 856.1h-46.6c-5.2 0-9.4-4.2-9.4-9.4s4.2-9.4 9.4-9.4h46.6c5.2 0 9.4 4.2 9.4 9.4s-4.2 9.4-9.4 9.4zm-328.3 0h-43.4c-5.2 0-9.4-4.2-9.4-9.4s4.2-9.4 9.4-9.4h43.4c5.2 0 9.4 4.2 9.4 9.4s-4.2 9.4-9.4 9.4z" fill="#54686B"/></g></svg>